<?xml version="1.0" encoding="UTF-8" standalone="no"?>
<!-- Creator: fig2dev Version 3.2 Patchlevel 5e -->

<!-- CreationDate: Mon Nov  9 10:17:05 2015 -->

<!-- Magnification: 1.050 -->

<svg
   xmlns:dc="http://purl.org/dc/elements/1.1/"
   xmlns:cc="http://creativecommons.org/ns#"
   xmlns:rdf="http://www.w3.org/1999/02/22-rdf-syntax-ns#"
   xmlns:svg="http://www.w3.org/2000/svg"
   xmlns="http://www.w3.org/2000/svg"
   xmlns:sodipodi="http://sodipodi.sourceforge.net/DTD/sodipodi-0.dtd"
   xmlns:inkscape="http://www.inkscape.org/namespaces/inkscape"
   width="3.2in"
   height="1.2in"
   viewBox="2790 1877 3783 1474"
   id="svg4249"
   version="1.1"
   inkscape:version="0.91 r13725"
   sodipodi:docname="ellipse2.svg">
  <metadata
     id="metadata4287">
    <rdf:RDF>
      <cc:Work
         rdf:about="">
        <dc:format>image/svg+xml</dc:format>
        <dc:type
           rdf:resource="http://purl.org/dc/dcmitype/StillImage" />
      </cc:Work>
    </rdf:RDF>
  </metadata>
  <defs
     id="defs4285" />
  <sodipodi:namedview
     pagecolor="#ffffff"
     bordercolor="#666666"
     borderopacity="1"
     objecttolerance="10"
     gridtolerance="10"
     guidetolerance="10"
     inkscape:pageopacity="0"
     inkscape:pageshadow="2"
     inkscape:window-width="2418"
     inkscape:window-height="1261"
     id="namedview4283"
     showgrid="false"
     inkscape:zoom="4.4488801"
     inkscape:cx="103.05027"
     inkscape:cy="42.926797"
     inkscape:window-x="142"
     inkscape:window-y="60"
     inkscape:window-maximized="1"
     inkscape:current-layer="svg4249" />
  <polyline
     id="polyline4253"
     style="fill:none;stroke:#000000;stroke-width:8;stroke-linecap:butt;stroke-linejoin:miter"
     points="2834,3307 2834,1906 " />
  <polyline
     id="polyline4255"
     style="fill:none;stroke:#000000;stroke-width:8;stroke-miterlimit:8"
     points="2866 2017 2834 1891 2803 2017 " />
  <polyline
     id="polyline4257"
     style="fill:none;stroke:#000000;stroke-width:8;stroke-linecap:butt;stroke-linejoin:miter"
     points="2834,3307 5415,3307 " />
  <polyline
     id="polyline4259"
     style="fill:none;stroke:#000000;stroke-width:8;stroke-miterlimit:8"
     points="5304 3338 5430 3307 5304 3275 " />
  <polyline
     id="polyline4261"
     style="fill:none;stroke:#000000;stroke-width:8;stroke-linecap:butt;stroke-linejoin:miter;stroke-dasharray:41, 41"
     points="2836,3308 4952,2783 " />
  <polyline
     id="polyline4263"
     style="fill:none;stroke:#000000;stroke-width:8;stroke-linecap:butt;stroke-linejoin:miter"
     points="4440,2267 5385,3212 " />
  <polyline
     id="polyline4265"
     style="fill:none;stroke:#000000;stroke-width:8;stroke-linecap:butt;stroke-linejoin:bevel"
     points="2839,2127 2841,2127 2845,2127 2851,2127 2861,2127 2875,2128 2892,2128 2912,2128 2934,2129 2958,2130 2984,2130 3012,2131 3041,2133 3071,2134 3105,2136 3141,2138 3179,2141 3220,2144 3266,2149 3312,2153 3358,2158 3401,2162 3438,2166 3469,2170 3493,2173 3511,2175 3524,2176 3533,2177 3540,2177 3546,2177 3551,2178 3558,2178 3567,2180 3580,2182 3597,2184 3622,2190 3653,2195 3690,2202 3733,2211 3779,2221 3825,2232 3868,2242 3907,2251 3940,2261 3966,2267 3987,2274 4003,2279 4015,2283 4026,2286 4034,2289 4043,2292 4052,2296 4064,2300 4078,2305 4097,2311 4120,2320 4148,2328 4180,2339 4215,2350 4251,2363 4299,2380 4338,2392 4364,2403 4381,2409 4389,2412 4392,2413 4391,2413 4393,2414 4400,2417 4412,2424 4432,2433 4459,2447 4493,2462 4522,2477 4548,2491 4569,2501 4584,2509 4595,2514 4601,2516 4605,2518 4607,2518 4611,2519 4615,2521 4621,2525 4633,2532 4648,2542 4670,2557 4698,2576 4729,2599 4758,2621 4785,2641 4808,2660 4828,2676 4844,2687 4856,2698 4866,2705 4873,2711 4880,2718 4887,2723 4894,2729 4903,2738 4915,2748 4929,2761 4946,2777 4966,2798 4990,2822 5013,2846 5040,2876 5061,2902 5077,2921 5086,2935 5091,2943 5095,2949 5095,2952 5096,2955 5097,2959 5100,2966 5105,2979 5114,2996 5126,3019 5139,3045 5152,3075 5163,3100 5169,3118 5172,3129 5174,3137 5175,3142 5175,3146 5176,3153 5179,3163 5182,3177 5186,3196 5191,3218 5196,3247 5200,3267 5201,3280 5200,3290 5198,3296 5197,3300 5196,3302 " />
  <text
     style="font-style:normal;font-weight:normal;font-size:126px;font-family:Times;text-anchor:start;fill:#000000;stroke-width:0.025in"
     id="text4267"
     font-size="126"
     font-weight="normal"
     font-style="normal"
     y="2567"
     x="3015"
     xml:space="preserve">Region 1</text>
  <text
     style="font-style:normal;font-weight:normal;font-size:126px;font-family:Times;text-anchor:start;fill:#000000;stroke-width:0.025in"
     id="text4269"
     font-size="126"
     font-weight="normal"
     font-style="normal"
     y="3197"
     x="4012"
     xml:space="preserve">Region 2</text>
  <text
     style="font-style:normal;font-weight:normal;font-size:126px;font-family:Times;text-anchor:start;fill:#000000;stroke-width:0.025in"
     id="text4271"
     font-size="126"
     font-weight="normal"
     font-style="normal"
     y="2379"
     x="4653"
     xml:space="preserve">Tangente mit Steigung $-1$</text>
  <text
     style="font-style:normal;font-weight:normal;font-size:126px;font-family:Times;text-anchor:start;fill:#000000;stroke-width:0.025in"
     id="text4273"
     font-size="126"
     font-weight="normal"
     font-style="normal"
     y="2756"
     x="5057"
     xml:space="preserve">$(xᵣ, yᵣ)$<tspan
   id="tspan4277" /></text>
</svg>
