<?xml version="1.0" encoding="UTF-8" standalone="no"?>
<!-- Creator: fig2dev Version 3.2 Patchlevel 5e -->

<!-- CreationDate: Thu Nov 19 11:05:02 2015 -->

<!-- Magnification: 1.050 -->

<svg
   xmlns:dc="http://purl.org/dc/elements/1.1/"
   xmlns:cc="http://creativecommons.org/ns#"
   xmlns:rdf="http://www.w3.org/1999/02/22-rdf-syntax-ns#"
   xmlns:svg="http://www.w3.org/2000/svg"
   xmlns="http://www.w3.org/2000/svg"
   xmlns:sodipodi="http://sodipodi.sourceforge.net/DTD/sodipodi-0.dtd"
   xmlns:inkscape="http://www.inkscape.org/namespaces/inkscape"
   width="1.989098in"
   height="1.9422475in"
   viewBox="1877 1760 2380.2871 2351.3333"
   id="svg2"
   version="1.1"
   inkscape:version="0.91 r13725"
   sodipodi:docname="clipX3.svg">
  <metadata
     id="metadata60">
    <rdf:RDF>
      <cc:Work
         rdf:about="">
        <dc:format>image/svg+xml</dc:format>
        <dc:type
           rdf:resource="http://purl.org/dc/dcmitype/StillImage" />
        <dc:title></dc:title>
      </cc:Work>
    </rdf:RDF>
  </metadata>
  <defs
     id="defs58" />
  <sodipodi:namedview
     pagecolor="#ffffff"
     bordercolor="#666666"
     borderopacity="1"
     objecttolerance="10"
     gridtolerance="10"
     guidetolerance="10"
     inkscape:pageopacity="0"
     inkscape:pageshadow="2"
     inkscape:window-width="2418"
     inkscape:window-height="1269"
     id="namedview56"
     showgrid="false"
     inkscape:zoom="4.3703702"
     inkscape:cx="98.311769"
     inkscape:cy="87.471265"
     inkscape:window-x="142"
     inkscape:window-y="60"
     inkscape:window-maximized="1"
     inkscape:current-layer="svg2"
     fit-margin-top="0"
     fit-margin-left="0"
     fit-margin-right="0"
     fit-margin-bottom="0" />
  <text
     style="font-style:normal;font-variant:normal;font-weight:normal;font-stretch:normal;font-size:100.88540649px;line-height:125%;font-family:Times;-inkscape-font-specification:'Times, Normal';text-align:start;writing-mode:lr-tb;text-anchor:start;fill:#000000;stroke-width:0.025in"
     id="text24"
     font-size="126"
     font-weight="normal"
     font-style="normal"
     y="3536.23"
     x="2535.6304"
     xml:space="preserve"
     sodipodi:linespacing="125%">$tᵤ$</text>
  <text
     style="font-style:normal;font-variant:normal;font-weight:normal;font-stretch:normal;font-size:100.88540649px;line-height:125%;font-family:Times;-inkscape-font-specification:'Times, Normal';text-align:start;writing-mode:lr-tb;text-anchor:start;fill:#000000;stroke-width:0.025in"
     id="text30"
     font-size="126"
     font-weight="normal"
     font-style="normal"
     y="2734.5713"
     x="2778.5337"
     xml:space="preserve"
     sodipodi:linespacing="125%">$tₒ$</text>
  <polyline
     id="polyline36"
     style="fill:none;stroke:#000000;stroke-width:19.60284424;stroke-linecap:butt;stroke-linejoin:miter"
     points="4724,7559 4724,1906 "
     transform="matrix(0.40810406,0,0,0.40810406,1072.5914,1026.4746)" />
  <polyline
     id="polyline38"
     style="fill:none;stroke:#000000;stroke-width:19.60284424;stroke-miterlimit:8"
     points="4755 2017 4724 1891 4692 2017 "
     transform="matrix(0.40810406,0,0,0.40810406,1072.5914,1026.4746)" />
  <polyline
     id="polyline40"
     style="fill:none;stroke:#000000;stroke-width:19.60284424;stroke-linecap:butt;stroke-linejoin:miter"
     points="1889,4724 7541,4724 "
     transform="matrix(0.40810406,0,0,0.40810406,1072.5914,1026.4746)" />
  <polyline
     id="polyline42"
     style="fill:none;stroke:#000000;stroke-width:19.60284424;stroke-miterlimit:8"
     points="7430 4755 7556 4724 7430 4692 "
     transform="matrix(0.40810406,0,0,0.40810406,1072.5914,1026.4746)" />
  <polyline
     id="polyline44"
     style="fill:none;stroke:#000000;stroke-width:19.60284424;stroke-linecap:butt;stroke-linejoin:miter"
     points="2362,7086 7086,2362 "
     transform="matrix(0.40810406,0,0,0.40810406,1072.5914,1026.4746)" />
  <polyline
     id="polyline46"
     style="fill:none;stroke:#000000;stroke-width:19.60284424;stroke-linecap:butt;stroke-linejoin:miter"
     points="2362,2362 7086,7086 "
     transform="matrix(0.40810406,0,0,0.40810406,1072.5914,1026.4746)" />
  <path
     style="fill:none;fill-opacity:0.75;fill-rule:evenodd;stroke:#000000;stroke-width:13.45138645;stroke-linecap:butt;stroke-linejoin:miter;stroke-miterlimit:4;stroke-dasharray:26.90277458, 13.45138728, 6.72569365, 13.45138728;stroke-dashoffset:0;stroke-opacity:1"
     d="M 2335.6867,3887.7831 2938.601,2212.7146"
     id="path4150"
     inkscape:connector-curvature="0"
     sodipodi:nodetypes="cc" />
  <text
     style="font-style:normal;font-variant:normal;font-weight:normal;font-stretch:normal;font-size:100.88539886px;line-height:125%;font-family:Times;-inkscape-font-specification:'Times, Normal';text-align:start;writing-mode:lr-tb;text-anchor:start;fill:#000000;stroke-width:0.025in"
     id="text30-4"
     font-size="126"
     font-weight="normal"
     font-style="normal"
     y="2866.3047"
     x="2157.8027"
     xml:space="preserve"
     sodipodi:linespacing="125%">$P₀$</text>
  <text
     style="font-style:normal;font-variant:normal;font-weight:normal;font-stretch:normal;font-size:100.88539886px;line-height:125%;font-family:Times;-inkscape-font-specification:'Times, Normal';text-align:start;writing-mode:lr-tb;text-anchor:start;fill:#000000;stroke-width:0.025in"
     id="text30-3"
     font-size="126"
     font-weight="normal"
     font-style="normal"
     y="2703.178"
     x="2207.0486"
     xml:space="preserve"
     sodipodi:linespacing="125%">$P₁$</text>
  <path
     style="fill:none;fill-opacity:0.75;fill-rule:evenodd;stroke:#000000;stroke-width:13.45138741px;stroke-linecap:butt;stroke-linejoin:miter;stroke-opacity:1"
     d="m 2463.3005,3461.9046 c -5.2972,-4.5573 -12.7408,-5.4159 -18.4672,-9.2336 -1.2073,-0.8044 -1.7801,-2.4289 -3.0778,-3.0778 -1.8353,-0.9174 -4.7049,1.4509 -6.1558,0 -0.7254,-0.725 0.7255,-2.3524 0,-3.0778 -0.7254,-0.725 -2.3524,0.725 -3.0778,0 -0.7255,-0.725 0.7254,-2.3525 0,-3.0779 -0.7255,-0.7251 -2.3524,0.725 -3.0779,0 -0.7254,-0.7251 0.7255,-2.3524 0,-3.0779 -0.7254,-0.725 -2.3524,0.7251 -3.0778,0 -0.7255,-0.725 0.7254,-2.3523 0,-3.0778 -0.7255,-0.725 -2.3525,0.7251 -3.0779,0 -0.7254,-0.725 0.4588,-2.1603 0,-3.0779 -0.6489,-1.2981 -2.0519,-2.0519 -3.0779,-3.0778 -1.0259,-1.0264 -1.7801,-2.4291 -3.0778,-3.078 -0.9177,-0.4587 -2.3524,0.7251 -3.0779,0 -0.7254,-0.725 0.4588,-2.1601 0,-3.0778 -1.8467,-3.6935 -7.3869,-5.5401 -9.2336,-9.2336 -0.4588,-0.9173 0.4589,-2.1601 0,-3.0778 -0.6489,-1.298 -2.4289,-1.7801 -3.0778,-3.0779 -0.4589,-0.9174 0.7254,-2.3524 0,-3.0778 -0.7255,-0.7251 -2.3524,0.725 -3.0779,0 -1.4509,-1.4509 1.4509,-4.7048 0,-6.1558 -0.7254,-0.725 -2.3524,0.725 -3.0778,0 -1.451,-1.4509 0.9176,-4.3204 0,-6.1556 -0.6489,-1.2981 -2.429,-1.7802 -3.0779,-3.078 -0.9177,-1.8353 0.9177,-4.3204 0,-6.1557 -0.6489,-1.2981 -2.429,-1.78 -3.0779,-3.0778 -0.9673,-1.9345 0.9673,-10.377 0,-12.3114 -0.6489,-1.2981 -2.429,-1.7802 -3.0778,-3.078 -0.6848,-1.3694 0.4692,-10.9035 0,-12.3113 -0.4588,-1.3765 -2.429,-1.7802 -3.0779,-3.0778 -0.4588,-0.9174 0,-2.0521 0,-3.078 0,-1.294 0.4578,-17.5515 0,-18.4671 -0.6489,-1.2981 -2.429,-1.7802 -3.0779,-3.0778 -0.4046,-0.8098 0,-10.7021 0,-12.3116 0,-11.2854 0,-22.5709 0,-33.8564 0,-6.1557 0,-12.3114 0,-18.4672 0,-1.3861 -0.4683,-8.2968 0,-9.2335 0.6489,-1.2981 2.429,-1.7802 3.0779,-3.0779 0.4588,-0.9173 0,-2.0518 0,-3.0779 0,-1.0263 0,-2.0519 0,-3.0778 0,-6.1558 0,-12.3114 0,-18.4672 0,-1.0263 -0.7254,-2.3523 0,-3.0778 0.7254,-0.725 2.3524,0.7251 3.0779,0 0.7254,-0.725 0,-2.052 0,-3.0779 0,-5.1297 0,-10.2595 0,-15.3893 0,-2.4778 -0.6439,-10.3795 0,-12.3114 0.7254,-2.1765 2.5214,-3.9301 3.0778,-6.1558 0.4977,-1.9907 0,-4.1037 0,-6.1556 0,-5.1298 0,-10.2596 0,-15.3893 0,-2.0519 -0.6489,-4.2092 0,-6.1558 0.4589,-1.3765 2.429,-1.7801 3.0779,-3.0778 0.9997,-1.9996 -0.9762,-13.437 0,-15.3893 0.6489,-1.2981 2.429,-1.7802 3.0779,-3.0778 0.9344,-1.8691 -0.9345,-16.5984 0,-18.4673 0.6488,-1.2981 2.4289,-1.78 3.0778,-3.0778 0.6848,-1.3696 -0.4693,-10.9037 0,-12.3115 0.4588,-1.3764 2.429,-1.7801 3.0779,-3.0778 1.2312,-2.4623 -1.2312,-6.7713 0,-9.2336 0.6489,-1.2978 2.429,-1.7801 3.0778,-3.0779 0.9177,-1.8352 -0.9176,-4.3204 0,-6.1557 0.6489,-1.2978 2.429,-1.7801 3.0779,-3.0778 1.2311,-2.4623 -1.2312,-6.7713 0,-9.2336 0.6489,-1.2978 2.429,-1.7801 3.0779,-3.0779 0.6101,-1.2203 -0.6293,-8.6043 0,-9.2336 0.7254,-0.7254 2.3524,0.7255 3.0778,0 0.6293,-0.6292 -0.6101,-8.0132 0,-9.2335 0.6489,-1.2978 2.429,-1.7802 3.0779,-3.0779 0.9176,-1.8353 -1.4509,-4.7048 0,-6.1557 0.7254,-0.7255 2.619,0.9176 3.0778,0 1.3765,-2.7529 -1.3764,-6.4807 0,-9.2336 0.6489,-1.2978 2.429,-1.7801 3.0779,-3.0779 0.9176,-1.8352 -1.4509,-4.7048 0,-6.1557 0.7254,-0.7254 2.3524,0.7255 3.0779,0 1.5389,-1.5389 -1.539,-7.6946 0,-9.2336 0.7254,-0.7254 2.3524,0.7255 3.0778,0 0.6293,-0.6292 -0.6101,-8.0132 0,-9.2335 0.6489,-1.2978 2.429,-1.7802 3.0779,-3.0779 0.4588,-0.9176 -0.4589,-2.1602 0,-3.0779 0.6489,-1.2978 2.429,-1.7801 3.0778,-3.0778 1.2312,-2.4623 -1.2312,-6.7713 0,-9.2336 0.6489,-1.2978 2.429,-1.7801 3.0779,-3.0779 0.4588,-0.9176 0,-2.0519 0,-3.0778 0,-2.0519 -0.6489,-4.2091 0,-6.1557 0.4588,-1.3765 2.429,-1.7802 3.0779,-3.0779 0.4588,-0.9177 -0.4589,-2.1602 0,-3.0779 0.6489,-1.2977 2.4289,-1.7801 3.0778,-3.0778 0.9177,-1.8353 -1.4509,-4.7048 0,-6.1557 0.7254,-0.7255 2.3524,0.7254 3.0779,0 1.4509,-1.451 -1.4509,-4.7048 0,-6.1558 0.7254,-0.7254 2.3524,0.7255 3.0778,0 1.4509,-1.4509 -1.4509,-4.7048 0,-6.1557 0.7255,-0.7254 2.3524,0.7255 3.0779,0 0.6292,-0.6292 -0.6102,-8.0132 0,-9.2336 0.6489,-1.2977 2.429,-1.7801 3.0779,-3.0778 1.231,-2.4623 -1.2312,-6.7713 0,-9.2336 0.6489,-1.2978 2.4289,-1.7801 3.0778,-3.0779 0.4684,-0.9367 0,-7.8474 0,-9.2335 0,-6.1558 0,-12.3115 0,-18.4672 0,-5.1298 0,-10.2595 0,-15.3893 0,-1.0259 0,-2.0519 0,-3.0778 0,-1.026 0.4588,-2.1603 0,-3.0779 -0.6489,-1.2978 -2.429,-1.7801 -3.0778,-3.0779 -0.9177,-1.8353 0.9176,-4.3204 0,-6.1557 -0.6489,-1.2978 -2.429,-1.7801 -3.0779,-3.0778 -0.4588,-0.9177 0.7254,-2.3525 0,-3.0779 -0.7254,-0.7254 -2.3524,0.7254 -3.0779,0 -0.7254,-0.7254 0.4589,-2.1602 0,-3.0779 -0.6489,-1.2978 -2.429,-1.7801 -3.0778,-3.0778 -0.4589,-0.9177 0.4588,-2.1603 0,-3.0779 -1.2978,-2.5955 -4.858,-3.5602 -6.1557,-6.1557 -0.4589,-0.9177 0.7254,-2.3524 0,-3.0779 -0.7255,-0.7254 -2.3525,0.7255 -3.0779,0 -0.7254,-0.7254 0.4588,-2.1602 0,-3.0778 -0.2946,-0.5892 -11.7223,-12.0169 -12.3114,-12.3115 -0.9177,-0.4588 -2.3525,0.7255 -3.0779,0 -0.7254,-0.7254 0.7254,-2.3524 0,-3.0778 -0.7254,-0.7255 -2.1602,0.4588 -3.0779,0 -1.2978,-0.6489 -1.7801,-2.429 -3.0778,-3.0779 -0.9177,-0.4588 -2.1602,0.4588 -3.0779,0 -1.2978,-0.6489 -1.7801,-2.429 -3.0778,-3.0779 -0.9177,-0.4588 -2.3525,0.7255 -3.0779,0 -0.7254,-0.7254 0.7254,-2.3523 0,-3.0778 -0.7254,-0.7254 -2.3524,0.7254 -3.0779,0 -0.7254,-0.7254 0.7255,-2.3524 0,-3.0779 -0.7254,-0.7254 -2.3524,0.7255 -3.0778,0 -0.7255,-0.7254 0.7254,-2.3524 0,-3.0778 -0.7255,-0.7255 -2.0519,0 -3.0779,0 0,-1.026 0.4588,-2.1602 0,-3.0779 -6.4046,-12.8093 0.2125,3.2904 -6.1557,-3.0779 -0.7254,-0.7254 -0.9177,-2.619 0,-3.0778 1.8353,-0.9177 4.1038,0 6.1557,0 2.0519,0 4.1038,0 6.1557,0 7.1817,0 14.3634,0 21.5451,0 1.0259,0 2.0519,0 3.0778,0 1.026,0 2.3524,0.7254 3.0779,0 0.7254,-0.7254 -0.7255,-2.3524 0,-3.0779 0.7254,-0.7254 2.0519,0 3.0778,0 5.1298,0 10.2596,0 15.3893,0 1.026,0 2.3524,0.7255 3.0779,0 0.7254,-0.7254 -0.7254,-2.3524 0,-3.0778 1.4509,-1.4509 4.3204,0.9176 6.1557,0 1.2978,-0.6489 1.7801,-2.429 3.0779,-3.0779 1.8353,-0.9176 4.3204,0.9177 6.1557,0 1.2978,-0.6489 1.7801,-2.429 3.0779,-3.0778 1.8352,-0.9177 4.3204,0.9176 6.1557,0 1.2978,-0.6489 1.7801,-2.429 3.0778,-3.0779 1.8353,-0.9177 4.3205,0.9176 6.1557,0 1.2978,-0.6489 1.8707,-2.273 3.0779,-3.0779 2.0519,-1.0259 4.1038,-2.0519 6.1557,-3.0778 1.026,0 2.1603,0.4588 3.0779,0 1.2978,-0.6489 1.7801,-2.429 3.0778,-3.0779 1.8353,-0.9176 4.7049,1.4509 6.1558,0 0.7254,-0.7254 -0.7255,-2.3524 0,-3.0778 0.7254,-0.7255 2.3524,0.7254 3.0778,0 0.7255,-0.7255 -0.7254,-2.3524 0,-3.0779 0.7255,-0.7254 2.1602,0.4588 3.0779,0 1.2978,-0.6489 1.7801,-2.429 3.0778,-3.0779 0.9177,-0.4588 2.3525,0.7255 3.0779,0 0.7254,-0.7254 -0.7254,-2.3524 0,-3.0778 0.7254,-0.7255 2.1602,0.4588 3.0779,0 2.728,-1.364 6.4317,-7.3657 9.2336,-9.2336 1.9088,-1.2725 4.2469,-1.8053 6.1557,-3.0779 10.733,-7.1553 -4.5774,0.9996 6.1557,-6.1557 1.9088,-1.2725 4.2469,-1.8053 6.1557,-3.0778 2.4145,-1.6097 3.5603,-4.858 6.1557,-6.1558 0.9177,-0.4588 2.3524,0.7255 3.0779,0 0.7254,-0.7254 -0.4588,-2.1602 0,-3.0778 0.6489,-1.2978 2.429,-1.7801 3.0779,-3.0779 0.4588,-0.9176 -0.4589,-2.1602 0,-3.0778 1.8467,-3.6935 7.3868,-5.5402 9.2335,-9.2336 0.9177,-1.8353 -1.4509,-4.7048 0,-6.1557 0.7255,-0.7255 2.3524,0.7254 3.0779,0 1.4509,-1.451 -0.9177,-4.3205 0,-6.1558 0.6489,-1.2978 2.429,-1.7801 3.0778,-3.0778 1.6346,-3.2692 -1.6346,-2.8866 0,-6.1557 0.6489,-1.2978 2.429,-1.7802 3.0779,-3.0779 0.4588,-0.9177 -0.3244,-2.1046 0,-3.0779 0.7254,-2.1763 2.3524,-3.9793 3.0779,-6.1557 0.6489,-1.9466 -0.9177,-4.3204 0,-6.1557 0.6489,-1.2978 2.429,-1.7801 3.0778,-3.0779 0.9177,-1.8352 -0.9176,-4.3204 0,-6.1557 0.6489,-1.2978 2.429,-1.7801 3.0779,-3.0778 1.2311,-2.4623 -1.2312,-6.7713 0,-9.2336 0.6489,-1.2978 2.429,-1.7801 3.0778,-3.0779 1.6346,-3.2692 -1.6346,-2.8865 0,-6.1557 0.6489,-1.2978 2.052,-2.0519 3.0779,-3.0779 1.0259,-3.0778 1.627,-6.3317 3.0779,-9.2335 7.043,-14.0862 -1.2758,13.0606 6.1557,-9.2336 0.6489,-1.9466 -0.9177,-4.3205 0,-6.1557 0.6489,-1.2978 2.429,-1.7802 3.0778,-3.0779 0.9177,-1.8353 -1.4509,-4.7048 0,-6.1557 0.7255,-0.7254 2.3524,0.7254 3.0779,0 1.4509,-1.4509 -1.4509,-4.7048 0,-6.1557 0.7254,-0.7255 2.3524,0.7254 3.0779,0 0.6292,-0.6293 -0.6102,-8.0133 0,-9.2336 1.364,-2.728 7.3657,-6.4318 9.2335,-9.2336 1.2725,-1.9088 1.8054,-4.2469 3.0779,-6.1557 1.6097,-2.4145 5.2381,-3.4028 6.1557,-6.1557 0.6489,-1.9467 -0.4977,-4.1651 0,-6.1558 0.5564,-2.2256 2.0519,-4.1038 3.0779,-6.1557 2.0519,-4.1038 4.7048,-7.9587 6.1557,-12.3114 0.3244,-0.9734 0,-2.0519 0,-3.0779 1.0259,-1.0259 2.429,-1.7801 3.0779,-3.0778 0.4588,-0.9177 -0.4589,-2.1603 0,-3.0779 0.6489,-1.2978 2.4289,-1.7801 3.0778,-3.0779 0.8348,-1.6697 -0.8422,-11.4692 0,-12.3114 0.7255,-0.7254 2.3524,0.7254 3.0779,0 0.7254,-0.7254 0,-2.0519 0,-3.0779 0,-5.1297 0,-10.2595 0,-15.3893 0,-4.0994 0,-2.0562 0,-6.1557 0,-1.0259 -1.026,-3.0778 0,-3.0778 1.0259,0 0,4.1038 0,3.0778 0,-2.0519 -0.9177,-4.3204 0,-6.1557 0.4588,-0.9176 2.3524,0.7254 3.0778,0 0.1,-0.099 0,-8.4871 0,-9.2336"
     id="path4260"
     inkscape:connector-curvature="0" />
  <path
     style="fill:none;fill-opacity:0.75;fill-rule:evenodd;stroke:#000000;stroke-width:13.45138741px;stroke-linecap:butt;stroke-linejoin:miter;stroke-opacity:1"
     d="m 2666.4392,2436.9773 c 3.3267,-13.3068 3.0779,-8.0813 3.0779,-15.3893 0,-1.0259 -0.4588,-2.1602 0,-3.0779 3.8033,-7.6066 3.0778,1.0624 3.0778,-6.1557 0,-4.0994 0,-2.0562 0,-6.1557 0,-1.0259 -1.0259,-3.0779 0,-3.0779 1.026,0 0,2.052 0,3.0779"
     id="path4262"
     inkscape:connector-curvature="0" />
  <path
     style="fill:none;fill-opacity:0.75;fill-rule:evenodd;stroke:#000000;stroke-width:13.45138741px;stroke-linecap:butt;stroke-linejoin:miter;stroke-opacity:1"
     d="m 2691.0621,2356.953 c 12.9728,-2.4676 0.7384,-10.7103 3.0779,-15.3893 0.6489,-1.2978 2.429,-1.7802 3.0778,-3.0779 1.6346,-3.2692 -1.6346,-2.8865 0,-6.1557 0.6489,-1.2978 2.429,-1.7801 3.0779,-3.0779 0.9176,-1.8353 -1.4509,-4.7048 0,-6.1557 0.7254,-0.7254 2.3524,0.7254 3.0778,0 0.7255,-0.7254 -0.4588,-2.1602 0,-3.0779 0.6489,-1.2978 2.429,-1.7801 3.0779,-3.0778 0.4588,-0.9177 -0.4588,-2.1602 0,-3.0779 0.6489,-1.2978 2.0519,-2.0519 3.0779,-3.0778 1.0259,-1.026 2.0519,-2.0519 3.0778,-3.0779"
     id="path4264"
     inkscape:connector-curvature="0" />
</svg>
