<?xml version="1.0" encoding="UTF-8" standalone="no"?>
<!-- Creator: fig2dev Version 3.2 Patchlevel 5e -->

<!-- CreationDate: Wed Oct 21 16:23:39 2015 -->

<!-- Magnification: 1.050 -->

<svg
   xmlns:dc="http://purl.org/dc/elements/1.1/"
   xmlns:cc="http://creativecommons.org/ns#"
   xmlns:rdf="http://www.w3.org/1999/02/22-rdf-syntax-ns#"
   xmlns:svg="http://www.w3.org/2000/svg"
   xmlns="http://www.w3.org/2000/svg"
   xmlns:sodipodi="http://sodipodi.sourceforge.net/DTD/sodipodi-0.dtd"
   xmlns:inkscape="http://www.inkscape.org/namespaces/inkscape"
   width="11.2in"
   height="5.4in"
   viewBox="-2850 898 13426 6538"
   id="svg2"
   version="1.1"
   inkscape:version="0.91 r13725"
   sodipodi:docname="fig_sichtSilhouette2.svg">
  <metadata
     id="metadata44">
    <rdf:RDF>
      <cc:Work
         rdf:about="">
        <dc:format>image/svg+xml</dc:format>
        <dc:type
           rdf:resource="http://purl.org/dc/dcmitype/StillImage" />
      </cc:Work>
    </rdf:RDF>
  </metadata>
  <defs
     id="defs42" />
  <sodipodi:namedview
     pagecolor="#ffffff"
     bordercolor="#666666"
     borderopacity="1"
     objecttolerance="10"
     gridtolerance="10"
     guidetolerance="10"
     inkscape:pageopacity="0"
     inkscape:pageshadow="2"
     inkscape:window-width="640"
     inkscape:window-height="480"
     id="namedview40"
     showgrid="false"
     inkscape:zoom="0.4513889"
     inkscape:cx="503.99999"
     inkscape:cy="243"
     inkscape:window-x="142"
     inkscape:window-y="60"
     inkscape:window-maximized="0"
     inkscape:current-layer="svg2" />
  <polyline
     id="polyline6"
     style="fill:#ffffff;stroke:#ff0000;stroke-width:48;stroke-linecap:butt;stroke-linejoin:bevel"
     points="2125,4960 2127,4959 2131,4956 2137,4951 2146,4943 2161,4932 2179,4917 2202,4898 2229,4876 2261,4851 2295,4823 2332,4792 2371,4759 2412,4725 2454,4689 2496,4654 2537,4618 2578,4581 2618,4546 2656,4511 2693,4477 2729,4444 2763,4410 2795,4377 2827,4346 2856,4314 2886,4283 2914,4251 2941,4220 2967,4188 2994,4156 3019,4123 3045,4089 3070,4055 3093,4023 3117,3990 3139,3958 3163,3923 3186,3888 3209,3851 3233,3815 3257,3777 3282,3738 3308,3699 3333,3659 3358,3618 3384,3576 3409,3535 3437,3492 3463,3450 3489,3408 3517,3365 3543,3323 3569,3280 3596,3239 3623,3197 3649,3158 3676,3118 3701,3078 3728,3040 3753,3003 3778,2967 3803,2933 3828,2899 3853,2867 3877,2835 3900,2806 3923,2777 3947,2750 3969,2725 3992,2700 4015,2677 4039,2654 4064,2632 4088,2611 4112,2591 4137,2572 4162,2554 4187,2538 4214,2523 4240,2510 4266,2497 4293,2486 4320,2476 4348,2468 4375,2461 4404,2456 4431,2452 4459,2450 4488,2449 4516,2450 4544,2452 4572,2456 4600,2461 4627,2468 4656,2476 4682,2486 4709,2497 4735,2510 4762,2523 4788,2538 4813,2554 4838,2572 4864,2591 4888,2611 4912,2632 4936,2654 4960,2677 4983,2700 5006,2725 5028,2750 5053,2777 5076,2806 5099,2835 5123,2867 5147,2899 5172,2933 5197,2967 5223,3003 5248,3040 5274,3078 5299,3118 5327,3158 5353,3197 5379,3239 5406,3280 5433,3323 5459,3365 5486,3408 5512,3450 5539,3492 5566,3535 5591,3576 5617,3618 5643,3659 5668,3699 5693,3738 5718,3777 5742,3815 5766,3851 5790,3888 5813,3923 5837,3958 5859,3990 5882,4023 5905,4055 5930,4089 5956,4123 5982,4156 6008,4188 6034,4220 6061,4251 6090,4283 6119,4314 6149,4346 6180,4377 6213,4410 6246,4444 6282,4477 6320,4511 6358,4546 6397,4581 6438,4618 6479,4654 6521,4689 6563,4725 6604,4759 6643,4792 6681,4823 6714,4851 6746,4876 6773,4898 6796,4917 6814,4932 6829,4943 6838,4951 6845,4956 6849,4959 6850,4960 " />
  <polyline
     id="polyline8"
     style="fill:#ffffff;stroke:#ff0000;stroke-width:48;stroke-linecap:butt;stroke-linejoin:bevel"
     points="1653,5196 1655,5195 1659,5193 1667,5189 1678,5183 1695,5174 1716,5162 1743,5148 1774,5130 1809,5110 1848,5089 1889,5066 1932,5041 1976,5016 2020,4990 2065,4963 2108,4937 2150,4911 2191,4886 2229,4860 2267,4836 2303,4812 2337,4788 2369,4764 2401,4741 2431,4717 2460,4692 2489,4668 2516,4644 2543,4619 2571,4593 2598,4566 2622,4542 2646,4517 2670,4491 2695,4465 2720,4437 2745,4409 2770,4381 2796,4350 2823,4320 2849,4289 2876,4258 2902,4225 2931,4193 2958,4159 2986,4127 3014,4093 3042,4059 3070,4026 3099,3993 3127,3961 3154,3928 3183,3896 3210,3864 3238,3834 3265,3804 3292,3775 3318,3748 3344,3720 3371,3694 3396,3670 3421,3646 3446,3623 3470,3602 3495,3581 3519,3562 3543,3543 3568,3524 3594,3507 3619,3490 3646,3475 3672,3460 3699,3446 3725,3434 3754,3423 3781,3413 3809,3403 3838,3395 3867,3388 3897,3382 3926,3378 3955,3375 3986,3373 4015,3372 4045,3373 4075,3375 4104,3378 4134,3382 4163,3388 4193,3395 4221,3403 4249,3413 4277,3423 4305,3434 4331,3446 4359,3460 4385,3475 4411,3490 4436,3507 4462,3524 4488,3543 4512,3562 4536,3581 4560,3602 4584,3623 4609,3646 4635,3670 4660,3694 4686,3720 4712,3748 4739,3775 4766,3804 4792,3834 4820,3864 4848,3896 4876,3928 4903,3961 4932,3993 4960,4026 4988,4059 5017,4093 5044,4127 5072,4159 5100,4193 5128,4225 5154,4258 5182,4289 5208,4320 5234,4350 5260,4381 5286,4409 5311,4437 5336,4465 5360,4491 5384,4517 5408,4542 5433,4566 5460,4593 5487,4619 5514,4644 5542,4668 5570,4692 5600,4717 5630,4741 5661,4764 5694,4788 5728,4812 5763,4836 5801,4860 5840,4886 5881,4911 5923,4937 5966,4963 6010,4990 6054,5016 6098,5041 6141,5066 6182,5089 6221,5110 6257,5130 6287,5148 6314,5162 6335,5174 6352,5183 6364,5189 6371,5193 6375,5195 6377,5196 " />
  <polyline
     id="polyline10"
     style="fill:#ffffff;stroke:#ff0000;stroke-width:48;stroke-linecap:butt;stroke-linejoin:bevel"
     points="1181,5433 1183,5432 1188,5430 1196,5428 1211,5424 1230,5419 1256,5412 1287,5402 1322,5393 1362,5380 1405,5367 1451,5354 1498,5339 1545,5324 1592,5310 1638,5294 1683,5279 1727,5264 1767,5249 1806,5234 1844,5219 1880,5205 1913,5190 1946,5175 1977,5161 2009,5145 2038,5129 2068,5113 2096,5096 2125,5079 2153,5061 2180,5043 2207,5024 2235,5005 2263,4985 2291,4964 2321,4943 2350,4921 2380,4898 2410,4875 2440,4852 2472,4828 2503,4804 2535,4779 2566,4754 2598,4729 2629,4705 2661,4681 2692,4657 2724,4633 2755,4611 2786,4587 2816,4566 2846,4545 2875,4525 2904,4506 2933,4488 2961,4470 2988,4453 3016,4437 3043,4423 3070,4409 3098,4395 3125,4384 3152,4372 3180,4361 3208,4351 3236,4342 3266,4333 3295,4325 3324,4319 3355,4312 3385,4307 3417,4303 3448,4300 3480,4297 3511,4296 3543,4296 3574,4296 3606,4297 3637,4300 3669,4303 3700,4307 3731,4312 3761,4319 3791,4325 3820,4333 3849,4342 3878,4351 3906,4361 3933,4372 3961,4384 3988,4395 4015,4409 4043,4423 4070,4437 4097,4453 4124,4470 4153,4488 4181,4506 4211,4525 4240,4545 4269,4566 4300,4587 4330,4611 4362,4633 4393,4657 4425,4681 4456,4705 4488,4729 4519,4754 4551,4779 4582,4804 4614,4828 4645,4852 4676,4875 4706,4898 4735,4921 4765,4943 4794,4964 4823,4985 4851,5005 4878,5024 4906,5043 4933,5061 4960,5079 4990,5096 5018,5113 5047,5129 5077,5145 5108,5161 5140,5175 5172,5190 5206,5205 5241,5219 5279,5234 5318,5249 5359,5264 5402,5279 5447,5294 5493,5310 5541,5324 5588,5339 5634,5354 5680,5367 5723,5380 5763,5393 5799,5402 5829,5412 5856,5419 5875,5424 5889,5428 5898,5430 5903,5432 5905,5433 " />
  <polyline
     id="polyline12"
     style="fill:#ffffff;stroke:#ff0000;stroke-width:48;stroke-linecap:butt;stroke-linejoin:bevel"
     points="708,5669 710,5669 716,5669 724,5669 739,5668 758,5668 784,5667 814,5667 850,5666 890,5665 933,5662 979,5661 1025,5659 1072,5657 1120,5655 1166,5653 1211,5650 1254,5648 1295,5645 1334,5641 1372,5637 1407,5634 1441,5630 1474,5625 1505,5620 1537,5615 1566,5610 1595,5604 1624,5597 1653,5590 1682,5583 1711,5574 1740,5566 1770,5558 1800,5548 1830,5538 1862,5528 1893,5517 1925,5506 1958,5495 1991,5482 2025,5470 2058,5458 2092,5445 2125,5433 2159,5420 2193,5407 2226,5395 2260,5383 2293,5371 2326,5359 2358,5349 2389,5337 2420,5328 2451,5317 2481,5308 2511,5299 2540,5291 2569,5282 2598,5275 2627,5268 2656,5261 2685,5255 2714,5250 2745,5245 2775,5239 2807,5235 2838,5231 2870,5228 2902,5225 2936,5223 2970,5220 3003,5219 3037,5218 3070,5218 3104,5218 3138,5219 3171,5220 3205,5223 3238,5225 3271,5228 3302,5231 3334,5235 3365,5239 3396,5245 3426,5250 3456,5255 3485,5261 3513,5268 3543,5275 3572,5282 3601,5291 3630,5299 3659,5308 3690,5317 3720,5328 3752,5337 3783,5349 3815,5359 3847,5371 3881,5383 3914,5395 3948,5407 3982,5420 4015,5433 4049,5445 4082,5458 4116,5470 4150,5482 4183,5495 4216,5506 4247,5517 4279,5528 4310,5538 4341,5548 4371,5558 4401,5566 4430,5574 4458,5583 4488,5590 4517,5597 4545,5604 4575,5610 4604,5615 4636,5620 4667,5625 4700,5630 4733,5634 4769,5637 4807,5641 4846,5645 4887,5648 4930,5650 4975,5653 5021,5655 5068,5657 5116,5659 5162,5661 5208,5662 5251,5665 5291,5666 5327,5667 5357,5667 5383,5668 5402,5668 5417,5669 5425,5669 5430,5669 5433,5669 " />
  <polyline
     id="polyline14"
     style="fill:none;stroke:#00b000;stroke-width:48;stroke-linecap:butt;stroke-linejoin:miter"
     points="-708,6850 -708,1132 " />
  <polygon
     id="polygon16"
     style="fill:#00b000;stroke:#00b000;stroke-width:48;stroke-miterlimit:8"
     points="-770,1081 -707,1128 -644,1081 -644,1081 -707,939 " />
  <polyline
     id="polyline18"
     style="fill:none;stroke:#00b000;stroke-width:48;stroke-linecap:butt;stroke-linejoin:miter"
     points="-944,6614 8314,6614 " />
  <polygon
     id="polygon20"
     style="fill:#00b000;stroke:#00b000;stroke-width:48;stroke-miterlimit:8"
     points="8367,6551 8320,6614 8367,6677 8367,6677 8509,6614 " />
  <polyline
     id="polyline22"
     style="fill:none;stroke:#0000ff;stroke-width:63;stroke-linecap:butt;stroke-linejoin:round"
     points="661,5716 661,5669 1653,5149 1889,5007 2125,4866 2409,4677 2598,4488 2834,4204 3070,3921 3307,3590 3543,3212 3779,2881 4015,2598 4251,2456 4488,2409 4724,2456 4913,2551 5196,2881 5433,3212 5669,3590 5905,3968 6141,4251 6377,4488 6614,4677 6897,4913 5433,5716 5196,5716 4960,5716 4724,5669 4488,5622 4251,5574 4015,5480 3779,5385 3543,5338 3307,5291 3070,5291 2834,5291 2598,5338 2362,5385 2125,5480 1889,5574 1653,5622 1417,5669 1181,5716 944,5716 661,5716 " />
  <text
     style="font-style:normal;font-weight:normal;font-size:378px;font-family:Helvetica;text-anchor:start;fill:#0000ff;stroke-width:0.025in"
     id="text24"
     font-size="378"
     font-weight="normal"
     font-style="normal"
     y="3354"
     x="5763"
     xml:space="preserve">Silhouette (Kontur)</text>
  <text
     style="font-style:normal;font-weight:normal;font-size:378px;font-family:Helvetica;text-anchor:start;fill:#00b000;stroke-width:0.025in"
     id="text26"
     font-size="378"
     font-weight="normal"
     font-style="normal"
     y="7275"
     x="5811"
     xml:space="preserve">(Pixelkoordinaten)</text>
  <text
     style="font-style:normal;font-weight:normal;font-size:378px;font-family:Times;text-anchor:start;fill:#00b000;stroke-width:0.025in"
     id="text28"
     font-size="378"
     font-weight="normal"
     font-style="normal"
     y="7275"
     x="3968"
     xml:space="preserve">$i$</text>
  <polyline
     id="polyline30"
     style="fill:none;stroke:#00b000;stroke-width:32;stroke-linecap:butt;stroke-linejoin:miter;stroke-dasharray:83, 83"
     points="4015,1889 4015,6614 " />
  <polyline
     id="polyline32"
     style="fill:none;stroke:#00b000;stroke-width:32;stroke-linecap:butt;stroke-linejoin:miter;stroke-dasharray:83, 83"
     points="-708,2645 5669,2645 " />
  <polyline
     id="polyline34"
     style="fill:none;stroke:#00b000;stroke-width:32;stroke-linecap:butt;stroke-linejoin:miter;stroke-dasharray:83, 83"
     points="-708,5480 5669,5480 " />
  <text
     style="font-style:normal;font-weight:normal;font-size:378px;font-family:Times;text-anchor:start;fill:#00b000;stroke-width:0.025in"
     id="text36"
     font-size="378"
     font-weight="normal"
     font-style="normal"
     y="5574"
     x="-2834"
     xml:space="preserve">$j_{\min}[i]$</text>
  <text
     style="font-style:normal;font-weight:normal;font-size:378px;font-family:Times;text-anchor:start;fill:#00b000;stroke-width:0.025in"
     id="text38"
     font-size="378"
     font-weight="normal"
     font-style="normal"
     y="2787"
     x="-2834"
     xml:space="preserve">$j_{\max}[i]$</text>
</svg>
