<?xml version="1.0" encoding="UTF-8" standalone="no"?>
<!-- Creator: fig2dev Version 3.2 Patchlevel 5e -->

<!-- CreationDate: Thu Sep 24 12:23:04 2015 -->

<!-- Magnification: 1.050 -->

<svg
   xmlns:dc="http://purl.org/dc/elements/1.1/"
   xmlns:cc="http://creativecommons.org/ns#"
   xmlns:rdf="http://www.w3.org/1999/02/22-rdf-syntax-ns#"
   xmlns:svg="http://www.w3.org/2000/svg"
   xmlns="http://www.w3.org/2000/svg"
   xmlns:sodipodi="http://sodipodi.sourceforge.net/DTD/sodipodi-0.dtd"
   xmlns:inkscape="http://www.inkscape.org/namespaces/inkscape"
   width="7.2in"
   height="9.1in"
   viewBox="343 -251 8672 10916"
   id="svg2"
   version="1.1"
   inkscape:version="0.91 r13725"
   sodipodi:docname="fig_hardwareRasterInterlaced.svg">
  <metadata
     id="metadata326">
    <rdf:RDF>
      <cc:Work
         rdf:about="">
        <dc:format>image/svg+xml</dc:format>
        <dc:type
           rdf:resource="http://purl.org/dc/dcmitype/StillImage" />
      </cc:Work>
    </rdf:RDF>
  </metadata>
  <defs
     id="defs324" />
  <sodipodi:namedview
     pagecolor="#ffffff"
     bordercolor="#666666"
     borderopacity="1"
     objecttolerance="10"
     gridtolerance="10"
     guidetolerance="10"
     inkscape:pageopacity="0"
     inkscape:pageshadow="2"
     inkscape:window-width="640"
     inkscape:window-height="480"
     id="namedview322"
     showgrid="false"
     inkscape:zoom="0.28815628"
     inkscape:cx="323.99999"
     inkscape:cy="409.50002"
     inkscape:window-x="142"
     inkscape:window-y="60"
     inkscape:window-maximized="0"
     inkscape:current-layer="svg2" />
  <circle
     id="circle6"
     style="fill:none;stroke:#000000;stroke-width:63"
     r="236"
     cy="9685"
     cx="3070" />
  <circle
     id="circle8"
     style="fill:none;stroke:#000000;stroke-width:63"
     r="236"
     cy="9685"
     cx="4015" />
  <circle
     id="circle10"
     style="fill:none;stroke:#000000;stroke-width:63"
     r="236"
     cy="9685"
     cx="4960" />
  <circle
     id="circle12"
     style="fill:none;stroke:#000000;stroke-width:63"
     r="236"
     cy="9685"
     cx="5905" />
  <circle
     id="circle14"
     style="fill:none;stroke:#000000;stroke-width:63"
     r="236"
     cy="9685"
     cx="6850" />
  <circle
     id="circle16"
     style="fill:none;stroke:#000000;stroke-width:63"
     r="236"
     cy="9685"
     cx="7795" />
  <circle
     id="circle18"
     style="fill:none;stroke:#000000;stroke-width:63"
     r="236"
     cy="9685"
     cx="2125" />
  <circle
     id="circle20"
     style="fill:none;stroke:#000000;stroke-width:63"
     r="236"
     cy="9685"
     cx="8740" />
  <circle
     id="circle22"
     style="fill:none;stroke:#000000;stroke-width:63"
     r="236"
     cy="8267"
     cx="3070" />
  <circle
     id="circle24"
     style="fill:none;stroke:#000000;stroke-width:63"
     r="236"
     cy="8267"
     cx="4015" />
  <circle
     id="circle26"
     style="fill:none;stroke:#000000;stroke-width:63"
     r="236"
     cy="8267"
     cx="4960" />
  <circle
     id="circle28"
     style="fill:none;stroke:#000000;stroke-width:63"
     r="236"
     cy="8267"
     cx="5905" />
  <circle
     id="circle30"
     style="fill:none;stroke:#000000;stroke-width:63"
     r="236"
     cy="8267"
     cx="6850" />
  <circle
     id="circle32"
     style="fill:none;stroke:#000000;stroke-width:63"
     r="236"
     cy="8267"
     cx="7795" />
  <circle
     id="circle34"
     style="fill:none;stroke:#000000;stroke-width:63"
     r="236"
     cy="8267"
     cx="8740" />
  <circle
     id="circle36"
     style="fill:none;stroke:#000000;stroke-width:63"
     r="236"
     cy="8267"
     cx="2125" />
  <circle
     id="circle38"
     style="fill:none;stroke:#000000;stroke-width:63"
     r="236"
     cy="2598"
     cx="3070" />
  <circle
     id="circle40"
     style="fill:none;stroke:#000000;stroke-width:63"
     r="236"
     cy="2598"
     cx="4015" />
  <circle
     id="circle42"
     style="fill:none;stroke:#000000;stroke-width:63"
     r="236"
     cy="2598"
     cx="4960" />
  <circle
     id="circle44"
     style="fill:none;stroke:#000000;stroke-width:63"
     r="236"
     cy="2598"
     cx="5905" />
  <circle
     id="circle46"
     style="fill:none;stroke:#000000;stroke-width:63"
     r="236"
     cy="2598"
     cx="6850" />
  <circle
     id="circle48"
     style="fill:none;stroke:#000000;stroke-width:63"
     r="236"
     cy="2598"
     cx="7795" />
  <circle
     id="circle50"
     style="fill:none;stroke:#000000;stroke-width:63"
     r="236"
     cy="2598"
     cx="8740" />
  <circle
     id="circle52"
     style="fill:none;stroke:#000000;stroke-width:63"
     r="236"
     cy="2598"
     cx="2125" />
  <circle
     id="circle54"
     style="fill:none;stroke:#000000;stroke-width:63"
     r="236"
     cy="4015"
     cx="3070" />
  <circle
     id="circle56"
     style="fill:none;stroke:#000000;stroke-width:63"
     r="236"
     cy="4015"
     cx="4015" />
  <circle
     id="circle58"
     style="fill:none;stroke:#000000;stroke-width:63"
     r="236"
     cy="4015"
     cx="4960" />
  <circle
     id="circle60"
     style="fill:none;stroke:#000000;stroke-width:63"
     r="236"
     cy="4015"
     cx="5905" />
  <circle
     id="circle62"
     style="fill:none;stroke:#000000;stroke-width:63"
     r="236"
     cy="4015"
     cx="6850" />
  <circle
     id="circle64"
     style="fill:none;stroke:#000000;stroke-width:63"
     r="236"
     cy="4015"
     cx="7795" />
  <circle
     id="circle66"
     style="fill:none;stroke:#000000;stroke-width:63"
     r="236"
     cy="4015"
     cx="2125" />
  <circle
     id="circle68"
     style="fill:none;stroke:#000000;stroke-width:63"
     r="236"
     cy="4015"
     cx="8740" />
  <circle
     id="circle70"
     style="fill:none;stroke:#000000;stroke-width:63"
     r="236"
     cy="5433"
     cx="3070" />
  <circle
     id="circle72"
     style="fill:none;stroke:#000000;stroke-width:63"
     r="236"
     cy="5433"
     cx="4015" />
  <circle
     id="circle74"
     style="fill:none;stroke:#000000;stroke-width:63"
     r="236"
     cy="5433"
     cx="4960" />
  <circle
     id="circle76"
     style="fill:none;stroke:#000000;stroke-width:63"
     r="236"
     cy="5433"
     cx="5905" />
  <circle
     id="circle78"
     style="fill:none;stroke:#000000;stroke-width:63"
     r="236"
     cy="5433"
     cx="6850" />
  <circle
     id="circle80"
     style="fill:none;stroke:#000000;stroke-width:63"
     r="236"
     cy="5433"
     cx="7795" />
  <circle
     id="circle82"
     style="fill:none;stroke:#000000;stroke-width:63"
     r="236"
     cy="5433"
     cx="8740" />
  <circle
     id="circle84"
     style="fill:none;stroke:#000000;stroke-width:63"
     r="236"
     cy="5433"
     cx="2125" />
  <circle
     id="circle86"
     style="fill:none;stroke:#000000;stroke-width:63"
     r="236"
     cy="6850"
     cx="3070" />
  <circle
     id="circle88"
     style="fill:none;stroke:#000000;stroke-width:63"
     r="236"
     cy="6850"
     cx="4015" />
  <circle
     id="circle90"
     style="fill:none;stroke:#000000;stroke-width:63"
     r="236"
     cy="6850"
     cx="4960" />
  <circle
     id="circle92"
     style="fill:none;stroke:#000000;stroke-width:63"
     r="236"
     cy="6850"
     cx="5905" />
  <circle
     id="circle94"
     style="fill:none;stroke:#000000;stroke-width:63"
     r="236"
     cy="6850"
     cx="6850" />
  <circle
     id="circle96"
     style="fill:none;stroke:#000000;stroke-width:63"
     r="236"
     cy="6850"
     cx="7795" />
  <circle
     id="circle98"
     style="fill:none;stroke:#000000;stroke-width:63"
     r="236"
     cy="6850"
     cx="2125" />
  <circle
     id="circle100"
     style="fill:none;stroke:#000000;stroke-width:63"
     r="236"
     cy="6850"
     cx="8740" />
  <text
     style="font-style:normal;font-weight:normal;font-size:454px;font-family:Helvetica;text-anchor:middle;fill:#b000b0;stroke-width:0.025in"
     id="text102"
     font-size="454"
     font-weight="normal"
     font-style="normal"
     y="236"
     x="5433"
     xml:space="preserve">erstes Halbbild</text>
  <text
     style="font-style:normal;font-weight:normal;font-size:454px;font-family:Helvetica;text-anchor:middle;fill:#0000ff;stroke-width:0.025in"
     id="text104"
     font-size="454"
     font-weight="normal"
     font-style="normal"
     y="1181"
     x="5433"
     xml:space="preserve">zweites Halbbild</text>
  <polyline
     id="polyline106"
     style="fill:none;stroke:#0000ff;stroke-width:79;stroke-linecap:butt;stroke-linejoin:miter"
     points="2834,9685 3527,9685 " />
  <polygon
     id="polygon108"
     style="fill:#0000ff;stroke:#0000ff;stroke-width:79;stroke-miterlimit:8"
     points="3596,9590 3533,9685 3596,9779 3596,9779 3785,9685 " />
  <polyline
     id="polyline110"
     style="fill:none;stroke:#0000ff;stroke-width:79;stroke-linecap:butt;stroke-linejoin:miter"
     points="2125,9685 2582,9685 " />
  <polygon
     id="polygon112"
     style="fill:#0000ff;stroke:#0000ff;stroke-width:79;stroke-miterlimit:8"
     points="2651,9590 2588,9685 2651,9779 2651,9779 2840,9685 " />
  <polyline
     id="polyline114"
     style="fill:none;stroke:#0000ff;stroke-width:79;stroke-linecap:butt;stroke-linejoin:miter"
     points="3779,9685 4472,9685 " />
  <polygon
     id="polygon116"
     style="fill:#0000ff;stroke:#0000ff;stroke-width:79;stroke-miterlimit:8"
     points="4541,9590 4478,9685 4541,9779 4541,9779 4730,9685 " />
  <polyline
     id="polyline118"
     style="fill:none;stroke:#0000ff;stroke-width:79;stroke-linecap:butt;stroke-linejoin:miter"
     points="4724,9685 5417,9685 " />
  <polygon
     id="polygon120"
     style="fill:#0000ff;stroke:#0000ff;stroke-width:79;stroke-miterlimit:8"
     points="5486,9590 5423,9685 5486,9779 5486,9779 5675,9685 " />
  <polyline
     id="polyline122"
     style="fill:none;stroke:#0000ff;stroke-width:79;stroke-linecap:butt;stroke-linejoin:miter"
     points="5669,9685 6362,9685 " />
  <polygon
     id="polygon124"
     style="fill:#0000ff;stroke:#0000ff;stroke-width:79;stroke-miterlimit:8"
     points="6431,9590 6368,9685 6431,9779 6431,9779 6620,9685 " />
  <polyline
     id="polyline126"
     style="fill:none;stroke:#0000ff;stroke-width:79;stroke-linecap:butt;stroke-linejoin:miter"
     points="6614,9685 7307,9685 " />
  <polygon
     id="polygon128"
     style="fill:#0000ff;stroke:#0000ff;stroke-width:79;stroke-miterlimit:8"
     points="7376,9590 7313,9685 7376,9779 7376,9779 7565,9685 " />
  <polyline
     id="polyline130"
     style="fill:none;stroke:#0000ff;stroke-width:79;stroke-linecap:butt;stroke-linejoin:miter"
     points="7559,9685 8251,9685 " />
  <polygon
     id="polygon132"
     style="fill:#0000ff;stroke:#0000ff;stroke-width:79;stroke-miterlimit:8"
     points="8321,9590 8258,9685 8321,9779 8321,9779 8510,9685 " />
  <polyline
     id="polyline134"
     style="fill:none;stroke:#0000ff;stroke-width:79;stroke-linecap:butt;stroke-linejoin:miter"
     points="8503,9685 8740,9685 " />
  <polyline
     id="polyline136"
     style="fill:none;stroke:#b000b0;stroke-width:79;stroke-linecap:butt;stroke-linejoin:miter"
     points="2834,8267 3527,8267 " />
  <polygon
     id="polygon138"
     style="fill:#b000b0;stroke:#b000b0;stroke-width:79;stroke-miterlimit:8"
     points="3596,8173 3533,8267 3596,8362 3596,8362 3785,8267 " />
  <polyline
     id="polyline140"
     style="fill:none;stroke:#b000b0;stroke-width:79;stroke-linecap:butt;stroke-linejoin:miter"
     points="2125,8267 2582,8267 " />
  <polygon
     id="polygon142"
     style="fill:#b000b0;stroke:#b000b0;stroke-width:79;stroke-miterlimit:8"
     points="2651,8173 2588,8267 2651,8362 2651,8362 2840,8267 " />
  <polyline
     id="polyline144"
     style="fill:none;stroke:#b000b0;stroke-width:79;stroke-linecap:butt;stroke-linejoin:miter"
     points="3779,8267 4472,8267 " />
  <polygon
     id="polygon146"
     style="fill:#b000b0;stroke:#b000b0;stroke-width:79;stroke-miterlimit:8"
     points="4541,8173 4478,8267 4541,8362 4541,8362 4730,8267 " />
  <polyline
     id="polyline148"
     style="fill:none;stroke:#b000b0;stroke-width:79;stroke-linecap:butt;stroke-linejoin:miter"
     points="4724,8267 5417,8267 " />
  <polygon
     id="polygon150"
     style="fill:#b000b0;stroke:#b000b0;stroke-width:79;stroke-miterlimit:8"
     points="5486,8173 5423,8267 5486,8362 5486,8362 5675,8267 " />
  <polyline
     id="polyline152"
     style="fill:none;stroke:#b000b0;stroke-width:79;stroke-linecap:butt;stroke-linejoin:miter"
     points="5669,8267 6362,8267 " />
  <polygon
     id="polygon154"
     style="fill:#b000b0;stroke:#b000b0;stroke-width:79;stroke-miterlimit:8"
     points="6431,8173 6368,8267 6431,8362 6431,8362 6620,8267 " />
  <polyline
     id="polyline156"
     style="fill:none;stroke:#b000b0;stroke-width:79;stroke-linecap:butt;stroke-linejoin:miter"
     points="6614,8267 7307,8267 " />
  <polygon
     id="polygon158"
     style="fill:#b000b0;stroke:#b000b0;stroke-width:79;stroke-miterlimit:8"
     points="7376,8173 7313,8267 7376,8362 7376,8362 7565,8267 " />
  <polyline
     id="polyline160"
     style="fill:none;stroke:#b000b0;stroke-width:79;stroke-linecap:butt;stroke-linejoin:miter"
     points="7559,8267 8251,8267 " />
  <polygon
     id="polygon162"
     style="fill:#b000b0;stroke:#b000b0;stroke-width:79;stroke-miterlimit:8"
     points="8321,8173 8258,8267 8321,8362 8321,8362 8510,8267 " />
  <polyline
     id="polyline164"
     style="fill:none;stroke:#b000b0;stroke-width:79;stroke-linecap:butt;stroke-linejoin:miter"
     points="8503,8267 8740,8267 " />
  <polyline
     id="polyline166"
     style="fill:none;stroke:#b000b0;stroke-width:32;stroke-linecap:butt;stroke-linejoin:miter;stroke-dasharray:83, 83"
     points="8740,8267 8031,8976 1889,8976 1181,8267 1181,6392 " />
  <polygon
     id="polygon168"
     style="fill:#b000b0;stroke:#b000b0;stroke-width:79;stroke-miterlimit:8"
     points="1086,6371 1181,6434 1275,6371 1275,6371 1181,6182 " />
  <polyline
     id="polyline170"
     style="fill:none;stroke:#0000ff;stroke-width:32;stroke-linecap:butt;stroke-linejoin:miter;stroke-dasharray:83, 83"
     points="8740,9685 7795,10629 2125,10629 472,8976 472,7809 " />
  <polygon
     id="polygon172"
     style="fill:#0000ff;stroke:#0000ff;stroke-width:79;stroke-miterlimit:8"
     points="377,7788 472,7851 566,7788 566,7788 472,7600 " />
  <polyline
     id="polyline174"
     style="fill:none;stroke:#b000b0;stroke-width:32;stroke-linecap:butt;stroke-linejoin:miter;stroke-dasharray:83, 83"
     points="1181,6141 1181,4960 2125,4015 " />
  <polyline
     id="polyline176"
     style="fill:none;stroke:#0000ff;stroke-width:32;stroke-linecap:butt;stroke-linejoin:miter;stroke-dasharray:83, 83"
     points="472,7559 472,4251 2125,2598 " />
  <polyline
     id="polyline178"
     style="fill:none;stroke:#b000b0;stroke-width:79;stroke-linecap:butt;stroke-linejoin:miter"
     points="2834,2598 3527,2598 " />
  <polygon
     id="polygon180"
     style="fill:#b000b0;stroke:#b000b0;stroke-width:79;stroke-miterlimit:8"
     points="3596,2503 3533,2598 3596,2692 3596,2692 3785,2598 " />
  <polyline
     id="polyline182"
     style="fill:none;stroke:#b000b0;stroke-width:79;stroke-linecap:butt;stroke-linejoin:miter"
     points="2125,2598 2582,2598 " />
  <polygon
     id="polygon184"
     style="fill:#b000b0;stroke:#b000b0;stroke-width:79;stroke-miterlimit:8"
     points="2651,2503 2588,2598 2651,2692 2651,2692 2840,2598 " />
  <polyline
     id="polyline186"
     style="fill:none;stroke:#b000b0;stroke-width:79;stroke-linecap:butt;stroke-linejoin:miter"
     points="3779,2598 4472,2598 " />
  <polygon
     id="polygon188"
     style="fill:#b000b0;stroke:#b000b0;stroke-width:79;stroke-miterlimit:8"
     points="4541,2503 4478,2598 4541,2692 4541,2692 4730,2598 " />
  <polyline
     id="polyline190"
     style="fill:none;stroke:#b000b0;stroke-width:79;stroke-linecap:butt;stroke-linejoin:miter"
     points="4724,2598 5417,2598 " />
  <polygon
     id="polygon192"
     style="fill:#b000b0;stroke:#b000b0;stroke-width:79;stroke-miterlimit:8"
     points="5486,2503 5423,2598 5486,2692 5486,2692 5675,2598 " />
  <polyline
     id="polyline194"
     style="fill:none;stroke:#b000b0;stroke-width:79;stroke-linecap:butt;stroke-linejoin:miter"
     points="5669,2598 6362,2598 " />
  <polygon
     id="polygon196"
     style="fill:#b000b0;stroke:#b000b0;stroke-width:79;stroke-miterlimit:8"
     points="6431,2503 6368,2598 6431,2692 6431,2692 6620,2598 " />
  <polyline
     id="polyline198"
     style="fill:none;stroke:#b000b0;stroke-width:79;stroke-linecap:butt;stroke-linejoin:miter"
     points="6614,2598 7307,2598 " />
  <polygon
     id="polygon200"
     style="fill:#b000b0;stroke:#b000b0;stroke-width:79;stroke-miterlimit:8"
     points="7376,2503 7313,2598 7376,2692 7376,2692 7565,2598 " />
  <polyline
     id="polyline202"
     style="fill:none;stroke:#b000b0;stroke-width:79;stroke-linecap:butt;stroke-linejoin:miter"
     points="7559,2598 8251,2598 " />
  <polygon
     id="polygon204"
     style="fill:#b000b0;stroke:#b000b0;stroke-width:79;stroke-miterlimit:8"
     points="8321,2503 8258,2598 8321,2692 8321,2692 8510,2598 " />
  <polyline
     id="polyline206"
     style="fill:none;stroke:#b000b0;stroke-width:79;stroke-linecap:butt;stroke-linejoin:miter"
     points="8503,2598 8740,2598 " />
  <polyline
     id="polyline208"
     style="fill:none;stroke:#b000b0;stroke-width:32;stroke-linecap:butt;stroke-linejoin:miter;stroke-dasharray:83, 83"
     points="8740,2598 6843,3441 " />
  <polygon
     id="polygon210"
     style="fill:#b000b0;stroke:#b000b0;stroke-width:79;stroke-miterlimit:8"
     points="6861,3535 6880,3423 6784,3362 6784,3362 6650,3526 " />
  <polyline
     id="polyline212"
     style="fill:none;stroke:#b000b0;stroke-width:32;stroke-linecap:butt;stroke-linejoin:miter;stroke-dasharray:83, 83"
     points="6614,3543 2125,5433 " />
  <polyline
     id="polyline214"
     style="fill:none;stroke:#0000ff;stroke-width:79;stroke-linecap:butt;stroke-linejoin:miter"
     points="2834,4015 3527,4015 " />
  <polygon
     id="polygon216"
     style="fill:#0000ff;stroke:#0000ff;stroke-width:79;stroke-miterlimit:8"
     points="3596,3921 3533,4015 3596,4110 3596,4110 3785,4015 " />
  <polyline
     id="polyline218"
     style="fill:none;stroke:#0000ff;stroke-width:79;stroke-linecap:butt;stroke-linejoin:miter"
     points="2125,4015 2582,4015 " />
  <polygon
     id="polygon220"
     style="fill:#0000ff;stroke:#0000ff;stroke-width:79;stroke-miterlimit:8"
     points="2651,3921 2588,4015 2651,4110 2651,4110 2840,4015 " />
  <polyline
     id="polyline222"
     style="fill:none;stroke:#0000ff;stroke-width:79;stroke-linecap:butt;stroke-linejoin:miter"
     points="3779,4015 4472,4015 " />
  <polygon
     id="polygon224"
     style="fill:#0000ff;stroke:#0000ff;stroke-width:79;stroke-miterlimit:8"
     points="4541,3921 4478,4015 4541,4110 4541,4110 4730,4015 " />
  <polyline
     id="polyline226"
     style="fill:none;stroke:#0000ff;stroke-width:79;stroke-linecap:butt;stroke-linejoin:miter"
     points="4724,4015 5417,4015 " />
  <polygon
     id="polygon228"
     style="fill:#0000ff;stroke:#0000ff;stroke-width:79;stroke-miterlimit:8"
     points="5486,3921 5423,4015 5486,4110 5486,4110 5675,4015 " />
  <polyline
     id="polyline230"
     style="fill:none;stroke:#0000ff;stroke-width:79;stroke-linecap:butt;stroke-linejoin:miter"
     points="5669,4015 6362,4015 " />
  <polygon
     id="polygon232"
     style="fill:#0000ff;stroke:#0000ff;stroke-width:79;stroke-miterlimit:8"
     points="6431,3921 6368,4015 6431,4110 6431,4110 6620,4015 " />
  <polyline
     id="polyline234"
     style="fill:none;stroke:#0000ff;stroke-width:79;stroke-linecap:butt;stroke-linejoin:miter"
     points="6614,4015 7307,4015 " />
  <polygon
     id="polygon236"
     style="fill:#0000ff;stroke:#0000ff;stroke-width:79;stroke-miterlimit:8"
     points="7376,3921 7313,4015 7376,4110 7376,4110 7565,4015 " />
  <polyline
     id="polyline238"
     style="fill:none;stroke:#0000ff;stroke-width:79;stroke-linecap:butt;stroke-linejoin:miter"
     points="7559,4015 8251,4015 " />
  <polygon
     id="polygon240"
     style="fill:#0000ff;stroke:#0000ff;stroke-width:79;stroke-miterlimit:8"
     points="8321,3921 8258,4015 8321,4110 8321,4110 8510,4015 " />
  <polyline
     id="polyline242"
     style="fill:none;stroke:#0000ff;stroke-width:79;stroke-linecap:butt;stroke-linejoin:miter"
     points="8503,4015 8740,4015 " />
  <polyline
     id="polyline244"
     style="fill:none;stroke:#0000ff;stroke-width:32;stroke-linecap:butt;stroke-linejoin:miter;stroke-dasharray:83, 83"
     points="8740,4015 6843,4858 " />
  <polygon
     id="polygon246"
     style="fill:#0000ff;stroke:#0000ff;stroke-width:79;stroke-miterlimit:8"
     points="6861,4953 6880,4840 6784,4780 6784,4780 6650,4943 " />
  <polyline
     id="polyline248"
     style="fill:none;stroke:#0000ff;stroke-width:32;stroke-linecap:butt;stroke-linejoin:miter;stroke-dasharray:83, 83"
     points="6614,4960 2125,6850 " />
  <polyline
     id="polyline250"
     style="fill:none;stroke:#b000b0;stroke-width:79;stroke-linecap:butt;stroke-linejoin:miter"
     points="2834,5433 3527,5433 " />
  <polygon
     id="polygon252"
     style="fill:#b000b0;stroke:#b000b0;stroke-width:79;stroke-miterlimit:8"
     points="3596,5338 3533,5433 3596,5527 3596,5527 3785,5433 " />
  <polyline
     id="polyline254"
     style="fill:none;stroke:#b000b0;stroke-width:79;stroke-linecap:butt;stroke-linejoin:miter"
     points="2125,5433 2582,5433 " />
  <polygon
     id="polygon256"
     style="fill:#b000b0;stroke:#b000b0;stroke-width:79;stroke-miterlimit:8"
     points="2651,5338 2588,5433 2651,5527 2651,5527 2840,5433 " />
  <polyline
     id="polyline258"
     style="fill:none;stroke:#b000b0;stroke-width:79;stroke-linecap:butt;stroke-linejoin:miter"
     points="3779,5433 4472,5433 " />
  <polygon
     id="polygon260"
     style="fill:#b000b0;stroke:#b000b0;stroke-width:79;stroke-miterlimit:8"
     points="4541,5338 4478,5433 4541,5527 4541,5527 4730,5433 " />
  <polyline
     id="polyline262"
     style="fill:none;stroke:#b000b0;stroke-width:79;stroke-linecap:butt;stroke-linejoin:miter"
     points="4724,5433 5417,5433 " />
  <polygon
     id="polygon264"
     style="fill:#b000b0;stroke:#b000b0;stroke-width:79;stroke-miterlimit:8"
     points="5486,5338 5423,5433 5486,5527 5486,5527 5675,5433 " />
  <polyline
     id="polyline266"
     style="fill:none;stroke:#b000b0;stroke-width:79;stroke-linecap:butt;stroke-linejoin:miter"
     points="5669,5433 6362,5433 " />
  <polygon
     id="polygon268"
     style="fill:#b000b0;stroke:#b000b0;stroke-width:79;stroke-miterlimit:8"
     points="6431,5338 6368,5433 6431,5527 6431,5527 6620,5433 " />
  <polyline
     id="polyline270"
     style="fill:none;stroke:#b000b0;stroke-width:79;stroke-linecap:butt;stroke-linejoin:miter"
     points="6614,5433 7307,5433 " />
  <polygon
     id="polygon272"
     style="fill:#b000b0;stroke:#b000b0;stroke-width:79;stroke-miterlimit:8"
     points="7376,5338 7313,5433 7376,5527 7376,5527 7565,5433 " />
  <polyline
     id="polyline274"
     style="fill:none;stroke:#b000b0;stroke-width:79;stroke-linecap:butt;stroke-linejoin:miter"
     points="7559,5433 8251,5433 " />
  <polygon
     id="polygon276"
     style="fill:#b000b0;stroke:#b000b0;stroke-width:79;stroke-miterlimit:8"
     points="8321,5338 8258,5433 8321,5527 8321,5527 8510,5433 " />
  <polyline
     id="polyline278"
     style="fill:none;stroke:#b000b0;stroke-width:79;stroke-linecap:butt;stroke-linejoin:miter"
     points="8503,5433 8740,5433 " />
  <polyline
     id="polyline280"
     style="fill:none;stroke:#b000b0;stroke-width:32;stroke-linecap:butt;stroke-linejoin:miter;stroke-dasharray:83, 83"
     points="8740,5433 6843,6276 " />
  <polygon
     id="polygon282"
     style="fill:#b000b0;stroke:#b000b0;stroke-width:79;stroke-miterlimit:8"
     points="6861,6370 6880,6258 6784,6197 6784,6197 6650,6361 " />
  <polyline
     id="polyline284"
     style="fill:none;stroke:#b000b0;stroke-width:32;stroke-linecap:butt;stroke-linejoin:miter;stroke-dasharray:83, 83"
     points="6614,6377 2125,8267 " />
  <polyline
     id="polyline286"
     style="fill:none;stroke:#0000ff;stroke-width:79;stroke-linecap:butt;stroke-linejoin:miter"
     points="2834,6850 3527,6850 " />
  <polygon
     id="polygon288"
     style="fill:#0000ff;stroke:#0000ff;stroke-width:79;stroke-miterlimit:8"
     points="3596,6755 3533,6850 3596,6944 3596,6944 3785,6850 " />
  <polyline
     id="polyline290"
     style="fill:none;stroke:#0000ff;stroke-width:79;stroke-linecap:butt;stroke-linejoin:miter"
     points="2125,6850 2582,6850 " />
  <polygon
     id="polygon292"
     style="fill:#0000ff;stroke:#0000ff;stroke-width:79;stroke-miterlimit:8"
     points="2651,6755 2588,6850 2651,6944 2651,6944 2840,6850 " />
  <polyline
     id="polyline294"
     style="fill:none;stroke:#0000ff;stroke-width:79;stroke-linecap:butt;stroke-linejoin:miter"
     points="3779,6850 4472,6850 " />
  <polygon
     id="polygon296"
     style="fill:#0000ff;stroke:#0000ff;stroke-width:79;stroke-miterlimit:8"
     points="4541,6755 4478,6850 4541,6944 4541,6944 4730,6850 " />
  <polyline
     id="polyline298"
     style="fill:none;stroke:#0000ff;stroke-width:79;stroke-linecap:butt;stroke-linejoin:miter"
     points="4724,6850 5417,6850 " />
  <polygon
     id="polygon300"
     style="fill:#0000ff;stroke:#0000ff;stroke-width:79;stroke-miterlimit:8"
     points="5486,6755 5423,6850 5486,6944 5486,6944 5675,6850 " />
  <polyline
     id="polyline302"
     style="fill:none;stroke:#0000ff;stroke-width:79;stroke-linecap:butt;stroke-linejoin:miter"
     points="5669,6850 6362,6850 " />
  <polygon
     id="polygon304"
     style="fill:#0000ff;stroke:#0000ff;stroke-width:79;stroke-miterlimit:8"
     points="6431,6755 6368,6850 6431,6944 6431,6944 6620,6850 " />
  <polyline
     id="polyline306"
     style="fill:none;stroke:#0000ff;stroke-width:79;stroke-linecap:butt;stroke-linejoin:miter"
     points="6614,6850 7307,6850 " />
  <polygon
     id="polygon308"
     style="fill:#0000ff;stroke:#0000ff;stroke-width:79;stroke-miterlimit:8"
     points="7376,6755 7313,6850 7376,6944 7376,6944 7565,6850 " />
  <polyline
     id="polyline310"
     style="fill:none;stroke:#0000ff;stroke-width:79;stroke-linecap:butt;stroke-linejoin:miter"
     points="7559,6850 8251,6850 " />
  <polygon
     id="polygon312"
     style="fill:#0000ff;stroke:#0000ff;stroke-width:79;stroke-miterlimit:8"
     points="8321,6755 8258,6850 8321,6944 8321,6944 8510,6850 " />
  <polyline
     id="polyline314"
     style="fill:none;stroke:#0000ff;stroke-width:79;stroke-linecap:butt;stroke-linejoin:miter"
     points="8503,6850 8740,6850 " />
  <polyline
     id="polyline316"
     style="fill:none;stroke:#0000ff;stroke-width:32;stroke-linecap:butt;stroke-linejoin:miter;stroke-dasharray:83, 83"
     points="8740,6850 6843,7693 " />
  <polygon
     id="polygon318"
     style="fill:#0000ff;stroke:#0000ff;stroke-width:79;stroke-miterlimit:8"
     points="6861,7787 6880,7675 6784,7614 6784,7614 6650,7778 " />
  <polyline
     id="polyline320"
     style="fill:none;stroke:#0000ff;stroke-width:32;stroke-linecap:butt;stroke-linejoin:miter;stroke-dasharray:83, 83"
     points="6614,7795 2125,9685 " />
</svg>
