<?xml version="1.0" encoding="UTF-8" standalone="no"?>
<!-- Creator: fig2dev Version 3.2 Patchlevel 5e -->

<!-- CreationDate: Thu Nov 26 11:31:50 2015 -->

<!-- Magnification: 1.050 -->

<svg
   xmlns:dc="http://purl.org/dc/elements/1.1/"
   xmlns:cc="http://creativecommons.org/ns#"
   xmlns:rdf="http://www.w3.org/1999/02/22-rdf-syntax-ns#"
   xmlns:svg="http://www.w3.org/2000/svg"
   xmlns="http://www.w3.org/2000/svg"
   xmlns:sodipodi="http://sodipodi.sourceforge.net/DTD/sodipodi-0.dtd"
   xmlns:inkscape="http://www.inkscape.org/namespaces/inkscape"
   width="3.6in"
   height="3.2in"
   viewBox="3036 2800 4321 3848"
   id="svg2"
   version="1.1"
   inkscape:version="0.91 r13725"
   sodipodi:docname="fig_objekteFlaechenbasiertBohren.svg">
  <metadata
     id="metadata38">
    <rdf:RDF>
      <cc:Work
         rdf:about="">
        <dc:format>image/svg+xml</dc:format>
        <dc:type
           rdf:resource="http://purl.org/dc/dcmitype/StillImage" />
        <dc:title></dc:title>
      </cc:Work>
    </rdf:RDF>
  </metadata>
  <defs
     id="defs36" />
  <sodipodi:namedview
     pagecolor="#ffffff"
     bordercolor="#666666"
     borderopacity="1"
     objecttolerance="10"
     gridtolerance="10"
     guidetolerance="10"
     inkscape:pageopacity="0"
     inkscape:pageshadow="2"
     inkscape:window-width="640"
     inkscape:window-height="480"
     id="namedview34"
     showgrid="false"
     inkscape:zoom="0.81944443"
     inkscape:cx="162"
     inkscape:cy="144"
     inkscape:window-x="142"
     inkscape:window-y="60"
     inkscape:window-maximized="0"
     inkscape:current-layer="svg2" />
  <polyline
     id="polyline6"
     style="fill:none;stroke:#b000b0;stroke-width:32;stroke-linecap:round;stroke-linejoin:round;stroke-dasharray:83, 83"
     points="4488,5149 4488,2834 " />
  <polyline
     id="polyline8"
     style="fill:none;stroke:#b000b0;stroke-width:32;stroke-linecap:round;stroke-linejoin:round;stroke-dasharray:83, 83"
     points="4960,5669 7322,5669 " />
  <polyline
     id="polyline10"
     style="fill:none;stroke:#b000b0;stroke-width:32;stroke-linecap:round;stroke-linejoin:round;stroke-dasharray:83, 83"
     points="4157,5905 3070,6614 " />
  <polyline
     id="polyline12"
     style="fill:none;stroke:#b000b0;stroke-width:32;stroke-linecap:round;stroke-linejoin:round"
     points="5433,3779 3070,3779 3070,6614 5905,6614 5905,4251 " />
  <polyline
     id="polyline14"
     style="fill:none;stroke:#b000b0;stroke-width:32;stroke-linecap:round;stroke-linejoin:round"
     points="3070,3779 4488,2834 7322,2834 6236,3543 " />
  <polyline
     id="polyline16"
     style="fill:none;stroke:#b000b0;stroke-width:32;stroke-linecap:round;stroke-linejoin:round"
     points="7322,2834 7322,5669 5905,6614 " />
  <polyline
     id="polyline18"
     style="fill:none;stroke:#0000ff;stroke-width:48;stroke-linecap:round;stroke-linejoin:round;stroke-dasharray:104, 104"
     points="5433,3779 4204,5433 " />
  <polyline
     id="polyline20"
     style="fill:none;stroke:#0000ff;stroke-width:48;stroke-linecap:round;stroke-linejoin:round;stroke-dasharray:104, 104"
     points="5905,4299 4960,5669 " />
  <polyline
     id="polyline22"
     style="fill:none;stroke:#0000ff;stroke-width:63;stroke-linecap:round;stroke-linejoin:bevel"
     points="5433,3779 5435,3777 5441,3773 5450,3764 5464,3754 5483,3739 5505,3721 5529,3703 5555,3683 5581,3665 5606,3647 5630,3630 5653,3615 5674,3602 5694,3590 5714,3580 5732,3571 5751,3563 5769,3556 5787,3551 5805,3546 5824,3542 5845,3538 5866,3535 5888,3533 5913,3531 5941,3531 5969,3530 6001,3531 6034,3531 6069,3533 6102,3534 6136,3537 6166,3538 6192,3540 6212,3541 6224,3542 6233,3543 6236,3543 " />
  <polyline
     id="polyline24"
     style="fill:none;stroke:#0000ff;stroke-width:63;stroke-linecap:round;stroke-linejoin:bevel"
     points="5433,3779 5434,3783 5435,3791 5437,3805 5441,3824 5445,3849 5450,3878 5457,3907 5464,3937 5471,3965 5479,3991 5486,4015 5495,4037 5502,4056 5511,4074 5521,4090 5531,4104 5543,4118 5555,4131 5569,4143 5585,4155 5603,4166 5623,4179 5646,4191 5671,4203 5699,4217 5731,4230 5763,4244 5796,4257 5827,4269 5855,4280 5877,4288 5891,4293 5901,4298 5904,4299 5905,4299 " />
  <polyline
     id="polyline26"
     style="fill:none;stroke:#0000ff;stroke-width:63;stroke-linecap:round;stroke-linejoin:bevel"
     points="5905,4299 5908,4296 5916,4289 5927,4279 5944,4262 5966,4242 5989,4219 6014,4195 6039,4170 6064,4145 6086,4122 6104,4100 6122,4079 6137,4059 6150,4040 6161,4022 6172,4003 6181,3984 6187,3966 6195,3948 6200,3929 6205,3908 6209,3886 6214,3862 6218,3836 6221,3807 6223,3776 6226,3743 6228,3710 6230,3675 6233,3643 6234,3612 6235,3587 6235,3567 6236,3554 6236,3546 6236,3543 " />
  <polyline
     id="polyline28"
     style="fill:none;stroke:#0000ff;stroke-width:48;stroke-linecap:round;stroke-linejoin:bevel;stroke-dasharray:125, 125"
     points="4960,5669 4959,5665 4958,5657 4956,5643 4952,5624 4948,5598 4942,5570 4936,5541 4929,5511 4921,5483 4914,5457 4907,5433 4898,5411 4891,5392 4881,5374 4872,5358 4861,5343 4850,5331 4837,5317 4824,5304 4808,5293 4790,5281 4770,5269 4747,5257 4722,5245 4693,5231 4662,5217 4629,5204 4597,5191 4565,5179 4538,5168 4516,5160 4501,5154 4492,5150 4489,5149 4488,5149 " />
  <polyline
     id="polyline30"
     style="fill:none;stroke:#0000ff;stroke-width:48;stroke-linecap:round;stroke-linejoin:bevel;stroke-dasharray:125, 125"
     points="4488,5149 4485,5152 4477,5159 4466,5169 4449,5186 4427,5206 4404,5229 4379,5253 4353,5278 4329,5302 4307,5325 4288,5348 4270,5369 4256,5388 4243,5407 4232,5426 4221,5445 4213,5464 4205,5482 4198,5500 4193,5519 4187,5540 4183,5562 4179,5586 4175,5612 4172,5640 4170,5672 4166,5704 4164,5738 4162,5773 4160,5805 4159,5836 4158,5861 4158,5881 4157,5893 4157,5902 4157,5905 " />
  <polyline
     id="polyline32"
     style="fill:none;stroke:#0000ff;stroke-width:48;stroke-linecap:round;stroke-linejoin:bevel;stroke-dasharray:125, 125"
     points="4960,5669 4958,5671 4952,5675 4942,5683 4929,5694 4910,5709 4888,5727 4864,5744 4837,5764 4812,5783 4787,5801 4763,5818 4740,5833 4719,5846 4699,5858 4679,5868 4661,5877 4642,5885 4624,5891 4606,5898 4587,5902 4569,5906 4548,5910 4527,5912 4504,5914 4479,5917 4452,5917 4424,5918 4392,5917 4359,5917 4324,5914 4290,5913 4257,5911 4226,5910 4201,5908 4181,5907 4169,5906 4160,5905 4157,5905 " />
</svg>
