<?xml version="1.0" encoding="UTF-8" standalone="no"?>
<!-- Creator: fig2dev Version 3.2 Patchlevel 5e -->

<!-- CreationDate: Thu Sep 24 15:09:55 2015 -->

<!-- Magnification: 1.050 -->

<svg
   xmlns:dc="http://purl.org/dc/elements/1.1/"
   xmlns:cc="http://creativecommons.org/ns#"
   xmlns:rdf="http://www.w3.org/1999/02/22-rdf-syntax-ns#"
   xmlns:svg="http://www.w3.org/2000/svg"
   xmlns="http://www.w3.org/2000/svg"
   xmlns:sodipodi="http://sodipodi.sourceforge.net/DTD/sodipodi-0.dtd"
   xmlns:inkscape="http://www.inkscape.org/namespaces/inkscape"
   width="8.6in"
   height="8.4in"
   viewBox="7764 3212 10308 10028"
   id="svg2"
   version="1.1"
   inkscape:version="0.91 r13725"
   sodipodi:docname="fig_hardwarePlasma.svg">
  <metadata
     id="metadata346">
    <rdf:RDF>
      <cc:Work
         rdf:about="">
        <dc:format>image/svg+xml</dc:format>
        <dc:type
           rdf:resource="http://purl.org/dc/dcmitype/StillImage" />
      </cc:Work>
    </rdf:RDF>
  </metadata>
  <defs
     id="defs344" />
  <sodipodi:namedview
     pagecolor="#ffffff"
     bordercolor="#666666"
     borderopacity="1"
     objecttolerance="10"
     gridtolerance="10"
     guidetolerance="10"
     inkscape:pageopacity="0"
     inkscape:pageshadow="2"
     inkscape:window-width="2418"
     inkscape:window-height="1261"
     id="namedview342"
     showgrid="false"
     inkscape:zoom="0.62433865"
     inkscape:cx="350.40139"
     inkscape:cy="634.08077"
     inkscape:window-x="142"
     inkscape:window-y="60"
     inkscape:window-maximized="1"
     inkscape:current-layer="svg2" />
  <rect
     id="rect6"
     style="fill:#b2b2b2;stroke:#000000;stroke-width:0;stroke-linecap:butt;stroke-linejoin:round"
     rx="0"
     height="2834"
     width="141"
     y="10393"
     x="11905" />
  <polyline
     id="polyline8"
     style="fill:none;stroke:#000000;stroke-width:16;stroke-linecap:butt;stroke-linejoin:round;stroke-dasharray:62, 62"
     points="12755,8740 12047,10157 " />
  <polyline
     id="polyline10"
     style="fill:none;stroke:#000000;stroke-width:16;stroke-linecap:butt;stroke-linejoin:round;stroke-dasharray:62, 62"
     points="13228,8740 13700,10157 " />
  <polyline
     id="polyline12"
     style="fill:none;stroke:#ff0000;stroke-width:79;stroke-linecap:butt;stroke-linejoin:round"
     points="15590,5763 15590,8598 " />
  <polyline
     id="polyline14"
     style="fill:none;stroke:#ff0000;stroke-width:63;stroke-linecap:butt;stroke-linejoin:round"
     points="15118,5527 15118,8362 " />
  <polyline
     id="polyline16"
     style="fill:none;stroke:#ff0000;stroke-width:63;stroke-linecap:butt;stroke-linejoin:round"
     points="14645,5291 14645,8125 " />
  <polyline
     id="polyline18"
     style="fill:none;stroke:#ff0000;stroke-width:63;stroke-linecap:butt;stroke-linejoin:round"
     points="14173,5055 14173,7889 " />
  <polyline
     id="polyline20"
     style="fill:none;stroke:#ff0000;stroke-width:63;stroke-linecap:butt;stroke-linejoin:round"
     points="13700,4818 13700,7653 " />
  <polyline
     id="polyline22"
     style="fill:none;stroke:#ff0000;stroke-width:79;stroke-linecap:butt;stroke-linejoin:round"
     points="13228,4582 13228,7417 " />
  <polygon
     id="polygon24"
     style="fill:#0000ff;stroke:#0000ff;stroke-width:8;stroke-linecap:butt;stroke-linejoin:round"
     points="13700,13228 12047,13228 12047,12992 13464,12992 13464,10629 12047,10629 12047,10393 12047,10393 13700,10393 " />
  <rect
     id="rect26"
     style="fill:#ebbfeb;stroke:#b000b0;stroke-width:0;stroke-linecap:butt;stroke-linejoin:round"
     rx="110"
     height="1417"
     width="708"
     y="11102"
     x="12047" />
  <polyline
     id="polyline28"
     style="fill:#b000b0;stroke:#b000b0;stroke-width:48;stroke-linecap:butt;stroke-linejoin:round"
     points="12850,11811 13181,11811 " />
  <polygon
     id="polygon30"
     style="fill:#b000b0;stroke:#b000b0;stroke-width:48;stroke-miterlimit:8"
     points="13233,11748 13186,11811 13233,11874 13233,11874 13375,11811 " />
  <polyline
     id="polyline32"
     style="fill:#b000b0;stroke:#b000b0;stroke-width:48;stroke-linecap:butt;stroke-linejoin:round"
     points="12850,12283 13216,12550 " />
  <polygon
     id="polygon34"
     style="fill:#b000b0;stroke:#b000b0;stroke-width:48;stroke-miterlimit:8"
     points="13295,12529 13219,12552 13220,12630 13220,12630 13373,12663 " />
  <polyline
     id="polyline36"
     style="fill:#b000b0;stroke:#b000b0;stroke-width:48;stroke-linecap:butt;stroke-linejoin:round"
     points="12850,11338 13216,11070 " />
  <polygon
     id="polygon38"
     style="fill:#b000b0;stroke:#b000b0;stroke-width:48;stroke-miterlimit:8"
     points="13220,10990 13219,11068 13295,11091 13295,11091 13373,10957 " />
  <polyline
     id="polyline40"
     style="fill:#0000ff;stroke:#0000ff;stroke-width:48;stroke-linecap:butt;stroke-linejoin:round"
     points="13370,12755 11526,12755 " />
  <polygon
     id="polygon42"
     style="fill:#0000ff;stroke:#0000ff;stroke-width:48;stroke-miterlimit:8"
     points="11475,12818 11522,12755 11475,12692 11475,12692 11333,12755 " />
  <polyline
     id="polyline44"
     style="fill:#0000ff;stroke:#0000ff;stroke-width:48;stroke-linecap:butt;stroke-linejoin:round"
     points="13370,10866 11526,10866 " />
  <polygon
     id="polygon46"
     style="fill:#0000ff;stroke:#0000ff;stroke-width:48;stroke-miterlimit:8"
     points="11475,10929 11522,10866 11475,10803 11475,10803 11333,10866 " />
  <text
     style="font-style:normal;font-weight:normal;font-size:303px;font-family:Helvetica;text-anchor:middle;fill:#b000b0;stroke-width:0.025in"
     id="text48"
     font-size="303"
     font-weight="normal"
     font-style="normal"
     y="3543"
     x="11574"
     xml:space="preserve">Zellen mit</text>
  <text
     style="font-style:normal;font-weight:normal;font-size:303px;font-family:Helvetica;text-anchor:middle;fill:#b000b0;stroke-width:0.025in"
     id="text50"
     font-size="303"
     font-weight="normal"
     font-style="normal"
     y="4015"
     x="11574"
     xml:space="preserve">Leuchtgas</text>
  <text
     style="font-style:normal;font-weight:normal;font-size:303px;font-family:Helvetica;text-anchor:middle;fill:#ff0000;stroke-width:0.025in"
     id="text52"
     font-size="303"
     font-weight="normal"
     font-style="normal"
     y="4015"
     x="8976"
     xml:space="preserve">Leitungen</text>
  <text
     style="font-style:normal;font-weight:normal;font-size:303px;font-family:Helvetica;text-anchor:middle;fill:#ff0000;stroke-width:0.025in"
     id="text54"
     font-size="303"
     font-weight="normal"
     font-style="normal"
     y="3543"
     x="8976"
     xml:space="preserve">horizontale</text>
  <text
     style="font-style:normal;font-weight:normal;font-size:303px;font-family:Helvetica;text-anchor:middle;fill:#ff0000;stroke-width:0.025in"
     id="text56"
     font-size="303"
     font-weight="normal"
     font-style="normal"
     y="3543"
     x="14409"
     xml:space="preserve">vertikale</text>
  <text
     style="font-style:normal;font-weight:normal;font-size:303px;font-family:Helvetica;text-anchor:middle;fill:#ff0000;stroke-width:0.025in"
     id="text58"
     font-size="303"
     font-weight="normal"
     font-style="normal"
     y="4015"
     x="14409"
     xml:space="preserve">Leitungen</text>
  <text
     style="font-style:normal;font-weight:normal;font-size:303px;font-family:Helvetica;text-anchor:end;fill:#0000ff;stroke-width:0.025in"
     id="text60"
     font-size="303"
     font-weight="normal"
     font-style="normal"
     y="10677"
     x="11433"
     xml:space="preserve">sichtbares Licht</text>
  <text
     style="font-style:normal;font-weight:normal;font-size:303px;font-family:Helvetica;text-anchor:start;fill:#0000ff;stroke-width:0.025in"
     id="text62"
     font-size="303"
     font-weight="normal"
     font-style="normal"
     y="11574"
     x="13842"
     xml:space="preserve">blauer Phospor</text>
  <text
     style="font-style:normal;font-weight:normal;font-size:303px;font-family:Helvetica;text-anchor:start;fill:#000000;stroke-width:0.025in"
     id="text64"
     font-size="303"
     font-weight="normal"
     font-style="normal"
     y="12047"
     x="13842"
     xml:space="preserve">(\bzw rot \bzw grün)</text>
  <text
     style="font-style:normal;font-weight:normal;font-size:303px;font-family:Helvetica;text-anchor:middle;fill:#b000b0;stroke-width:0.025in"
     id="text66"
     font-size="303"
     font-weight="normal"
     font-style="normal"
     y="11716"
     x="13086"
     xml:space="preserve">UV</text>
  <text
     style="font-style:normal;font-weight:normal;font-size:303px;font-family:Helvetica;text-anchor:end;fill:#b000b0;stroke-width:0.025in"
     id="text68"
     font-size="303"
     font-weight="normal"
     font-style="normal"
     y="11905"
     x="12519"
     xml:space="preserve">Gasentladung</text>
  <polygon
     id="polygon70"
     style="fill:none;stroke:#000000;stroke-width:32;stroke-linecap:butt;stroke-linejoin:round"
     points="16062,5905 15590,5905 12755,4488 12755,4488 13228,4488 " />
  <polygon
     id="polygon72"
     style="fill:none;stroke:#000000;stroke-width:32;stroke-linecap:butt;stroke-linejoin:round"
     points="16062,8740 15590,8740 15590,5905 15590,5905 16062,5905 " />
  <polygon
     id="polygon74"
     style="fill:none;stroke:#000000;stroke-width:32;stroke-linecap:butt;stroke-linejoin:round"
     points="16062,8740 15590,8740 12755,7322 12755,7322 13228,7322 " />
  <polygon
     id="polygon76"
     style="fill:none;stroke:#000000;stroke-width:32;stroke-linecap:butt;stroke-linejoin:round"
     points="15590,8740 12755,7322 12755,4488 12755,4488 15590,5905 " />
  <polygon
     id="polygon78"
     style="fill:none;stroke:#000000;stroke-width:32;stroke-linecap:butt;stroke-linejoin:round"
     points="16062,8740 16062,5905 13228,4488 13228,4488 13228,7322 " />
  <polygon
     id="polygon80"
     style="fill:#ffffff;stroke:#b000b0;stroke-width:48;stroke-linecap:butt;stroke-linejoin:round"
     points="11338,4724 10866,4724 10393,4488 10393,4488 10866,4488 " />
  <polygon
     id="polygon82"
     style="fill:#ffffff;stroke:#b000b0;stroke-width:48;stroke-linecap:butt;stroke-linejoin:round"
     points="11811,4960 11338,4960 10866,4724 10866,4724 11338,4724 " />
  <polygon
     id="polygon84"
     style="fill:#ffffff;stroke:#b000b0;stroke-width:48;stroke-linecap:butt;stroke-linejoin:round"
     points="12283,5196 11811,5196 11338,4960 11338,4960 11811,4960 " />
  <polygon
     id="polygon86"
     style="fill:#ffffff;stroke:#b000b0;stroke-width:48;stroke-linecap:butt;stroke-linejoin:round"
     points="12755,5433 12283,5433 11811,5196 11811,5196 12283,5196 " />
  <polygon
     id="polygon88"
     style="fill:#ffffff;stroke:#b000b0;stroke-width:48;stroke-linecap:butt;stroke-linejoin:round"
     points="13228,5669 12755,5669 12283,5433 12283,5433 12755,5433 " />
  <polygon
     id="polygon90"
     style="fill:#ffffff;stroke:#b000b0;stroke-width:48;stroke-linecap:butt;stroke-linejoin:round"
     points="13700,5905 13228,5905 12755,5669 12755,5669 13228,5669 " />
  <rect
     id="rect92"
     style="fill:#ffffff;stroke:#b000b0;stroke-width:48;stroke-linecap:butt;stroke-linejoin:round"
     rx="0"
     height="472"
     width="472"
     y="5905"
     x="13228" />
  <rect
     id="rect94"
     style="fill:#ffffff;stroke:#b000b0;stroke-width:48;stroke-linecap:butt;stroke-linejoin:round"
     rx="0"
     height="472"
     width="472"
     y="6377"
     x="13228" />
  <rect
     id="rect96"
     style="fill:#ffffff;stroke:#b000b0;stroke-width:48;stroke-linecap:butt;stroke-linejoin:round"
     rx="0"
     height="472"
     width="472"
     y="6850"
     x="13228" />
  <rect
     id="rect98"
     style="fill:#ffffff;stroke:#b000b0;stroke-width:48;stroke-linecap:butt;stroke-linejoin:round"
     rx="0"
     height="472"
     width="472"
     y="7322"
     x="13228" />
  <rect
     id="rect100"
     style="fill:#ffffff;stroke:#b000b0;stroke-width:48;stroke-linecap:butt;stroke-linejoin:round"
     rx="0"
     height="472"
     width="472"
     y="7795"
     x="13228" />
  <rect
     id="rect102"
     style="fill:#ffffff;stroke:#b000b0;stroke-width:48;stroke-linecap:butt;stroke-linejoin:round"
     rx="0"
     height="472"
     width="472"
     y="8267"
     x="13228" />
  <polygon
     id="polygon104"
     style="fill:#d77fd7;stroke:#b000b0;stroke-width:48;stroke-linecap:butt;stroke-linejoin:round"
     points="10866,5196 10393,4960 10393,4488 10393,4488 10866,4724 " />
  <polygon
     id="polygon106"
     style="fill:#f3d8f3;stroke:#b000b0;stroke-width:48;stroke-linecap:butt;stroke-linejoin:round"
     points="10626,4600 10393,4485 10393,4970 10393,4970 10626,4970 " />
  <polygon
     id="polygon108"
     style="fill:#ebbfeb;stroke:#b000b0;stroke-width:48;stroke-linecap:butt;stroke-linejoin:round"
     points="10862,5087 10862,5200 10396,4963 10396,4963 10620,4963 " />
  <polygon
     id="polygon110"
     style="fill:#d77fd7;stroke:#b000b0;stroke-width:48;stroke-linecap:butt;stroke-linejoin:round"
     points="10866,5669 10393,5433 10393,4960 10393,4960 10866,5196 " />
  <polygon
     id="polygon112"
     style="fill:#f3d8f3;stroke:#b000b0;stroke-width:48;stroke-linecap:butt;stroke-linejoin:round"
     points="10626,5072 10393,4957 10393,5442 10393,5442 10626,5442 " />
  <polygon
     id="polygon114"
     style="fill:#ebbfeb;stroke:#b000b0;stroke-width:48;stroke-linecap:butt;stroke-linejoin:round"
     points="10862,5560 10862,5672 10396,5436 10396,5436 10620,5436 " />
  <polygon
     id="polygon116"
     style="fill:#d77fd7;stroke:#b000b0;stroke-width:48;stroke-linecap:butt;stroke-linejoin:round"
     points="11338,5433 10866,5196 10866,4724 10866,4724 11338,4960 " />
  <polygon
     id="polygon118"
     style="fill:#f3d8f3;stroke:#b000b0;stroke-width:48;stroke-linecap:butt;stroke-linejoin:round"
     points="11099,4836 10866,4721 10866,5206 10866,5206 11099,5206 " />
  <polygon
     id="polygon120"
     style="fill:#ebbfeb;stroke:#b000b0;stroke-width:48;stroke-linecap:butt;stroke-linejoin:round"
     points="11335,5323 11335,5436 10869,5200 10869,5200 11092,5200 " />
  <polygon
     id="polygon122"
     style="fill:#d77fd7;stroke:#b000b0;stroke-width:48;stroke-linecap:butt;stroke-linejoin:round"
     points="11811,5669 11338,5433 11338,4960 11338,4960 11811,5196 " />
  <polygon
     id="polygon124"
     style="fill:#f3d8f3;stroke:#b000b0;stroke-width:48;stroke-linecap:butt;stroke-linejoin:round"
     points="11571,5072 11338,4957 11338,5442 11338,5442 11571,5442 " />
  <polygon
     id="polygon126"
     style="fill:#ebbfeb;stroke:#b000b0;stroke-width:48;stroke-linecap:butt;stroke-linejoin:round"
     points="11807,5560 11807,5672 11341,5436 11341,5436 11565,5436 " />
  <polygon
     id="polygon128"
     style="fill:#d77fd7;stroke:#b000b0;stroke-width:48;stroke-linecap:butt;stroke-linejoin:round"
     points="12283,5905 11811,5669 11811,5196 11811,5196 12283,5433 " />
  <polygon
     id="polygon130"
     style="fill:#f3d8f3;stroke:#b000b0;stroke-width:48;stroke-linecap:butt;stroke-linejoin:round"
     points="12044,5309 11811,5193 11811,5678 11811,5678 12044,5678 " />
  <polygon
     id="polygon132"
     style="fill:#ebbfeb;stroke:#b000b0;stroke-width:48;stroke-linecap:butt;stroke-linejoin:round"
     points="12280,5796 12280,5908 11814,5672 11814,5672 12037,5672 " />
  <polygon
     id="polygon134"
     style="fill:#d77fd7;stroke:#b000b0;stroke-width:48;stroke-linecap:butt;stroke-linejoin:round"
     points="12755,6141 12283,5905 12283,5433 12283,5433 12755,5669 " />
  <polygon
     id="polygon136"
     style="fill:#f3d8f3;stroke:#b000b0;stroke-width:48;stroke-linecap:butt;stroke-linejoin:round"
     points="12516,5545 12283,5429 12283,5914 12283,5914 12516,5914 " />
  <polygon
     id="polygon138"
     style="fill:#ebbfeb;stroke:#b000b0;stroke-width:48;stroke-linecap:butt;stroke-linejoin:round"
     points="12752,6032 12752,6144 12286,5908 12286,5908 12510,5908 " />
  <polygon
     id="polygon140"
     style="fill:#d77fd7;stroke:#b000b0;stroke-width:48;stroke-linecap:butt;stroke-linejoin:round"
     points="13228,6377 12755,6141 12755,5669 12755,5669 13228,5905 " />
  <polygon
     id="polygon142"
     style="fill:#f3d8f3;stroke:#b000b0;stroke-width:48;stroke-linecap:butt;stroke-linejoin:round"
     points="12988,5781 12755,5666 12755,6151 12755,6151 12988,6151 " />
  <polygon
     id="polygon144"
     style="fill:#ebbfeb;stroke:#b000b0;stroke-width:48;stroke-linecap:butt;stroke-linejoin:round"
     points="13225,6268 13225,6381 12759,6144 12759,6144 12982,6144 " />
  <polygon
     id="polygon146"
     style="fill:#d77fd7;stroke:#b000b0;stroke-width:48;stroke-linecap:butt;stroke-linejoin:round"
     points="13228,7322 12755,7086 12755,6614 12755,6614 13228,6850 " />
  <polygon
     id="polygon148"
     style="fill:#f3d8f3;stroke:#b000b0;stroke-width:48;stroke-linecap:butt;stroke-linejoin:round"
     points="12988,6726 12755,6611 12755,7096 12755,7096 12988,7096 " />
  <polygon
     id="polygon150"
     style="fill:#ebbfeb;stroke:#b000b0;stroke-width:48;stroke-linecap:butt;stroke-linejoin:round"
     points="13225,7213 13225,7325 12759,7089 12759,7089 12982,7089 " />
  <polygon
     id="polygon152"
     style="fill:#d77fd7;stroke:#b000b0;stroke-width:48;stroke-linecap:butt;stroke-linejoin:round"
     points="13228,7795 12755,7559 12755,7086 12755,7086 13228,7322 " />
  <polygon
     id="polygon154"
     style="fill:#f3d8f3;stroke:#b000b0;stroke-width:48;stroke-linecap:butt;stroke-linejoin:round"
     points="12988,7198 12755,7083 12755,7568 12755,7568 12988,7568 " />
  <polygon
     id="polygon156"
     style="fill:#ebbfeb;stroke:#b000b0;stroke-width:48;stroke-linecap:butt;stroke-linejoin:round"
     points="13225,7686 13225,7798 12759,7562 12759,7562 12982,7562 " />
  <polygon
     id="polygon158"
     style="fill:#d77fd7;stroke:#b000b0;stroke-width:48;stroke-linecap:butt;stroke-linejoin:round"
     points="13228,8267 12755,8031 12755,7559 12755,7559 13228,7795 " />
  <polygon
     id="polygon160"
     style="fill:#f3d8f3;stroke:#b000b0;stroke-width:48;stroke-linecap:butt;stroke-linejoin:round"
     points="12988,7671 12755,7555 12755,8040 12755,8040 12988,8040 " />
  <polygon
     id="polygon162"
     style="fill:#ebbfeb;stroke:#b000b0;stroke-width:48;stroke-linecap:butt;stroke-linejoin:round"
     points="13225,8158 13225,8270 12759,8034 12759,8034 12982,8034 " />
  <polygon
     id="polygon164"
     style="fill:#d77fd7;stroke:#b000b0;stroke-width:48;stroke-linecap:butt;stroke-linejoin:round"
     points="13228,6850 12755,6614 12755,6141 12755,6141 13228,6377 " />
  <polygon
     id="polygon166"
     style="fill:#f3d8f3;stroke:#b000b0;stroke-width:48;stroke-linecap:butt;stroke-linejoin:round"
     points="12988,6254 12755,6138 12755,6623 12755,6623 12988,6623 " />
  <polygon
     id="polygon168"
     style="fill:#ebbfeb;stroke:#b000b0;stroke-width:48;stroke-linecap:butt;stroke-linejoin:round"
     points="13225,6741 13225,6853 12759,6617 12759,6617 12982,6617 " />
  <polygon
     id="polygon170"
     style="fill:#d77fd7;stroke:#b000b0;stroke-width:48;stroke-linecap:butt;stroke-linejoin:round"
     points="12755,6614 12283,6377 12283,5905 12283,5905 12755,6141 " />
  <polygon
     id="polygon172"
     style="fill:#f3d8f3;stroke:#b000b0;stroke-width:48;stroke-linecap:butt;stroke-linejoin:round"
     points="12516,6017 12283,5902 12283,6387 12283,6387 12516,6387 " />
  <polygon
     id="polygon174"
     style="fill:#ebbfeb;stroke:#b000b0;stroke-width:48;stroke-linecap:butt;stroke-linejoin:round"
     points="12752,6504 12752,6617 12286,6381 12286,6381 12510,6381 " />
  <polygon
     id="polygon176"
     style="fill:#d77fd7;stroke:#b000b0;stroke-width:48;stroke-linecap:butt;stroke-linejoin:round"
     points="12283,6377 11811,6141 11811,5669 11811,5669 12283,5905 " />
  <polygon
     id="polygon178"
     style="fill:#f3d8f3;stroke:#b000b0;stroke-width:48;stroke-linecap:butt;stroke-linejoin:round"
     points="12044,5781 11811,5666 11811,6151 11811,6151 12044,6151 " />
  <polygon
     id="polygon180"
     style="fill:#ebbfeb;stroke:#b000b0;stroke-width:48;stroke-linecap:butt;stroke-linejoin:round"
     points="12280,6268 12280,6381 11814,6144 11814,6144 12037,6144 " />
  <polygon
     id="polygon182"
     style="fill:#d77fd7;stroke:#b000b0;stroke-width:48;stroke-linecap:butt;stroke-linejoin:round"
     points="11811,6141 11338,5905 11338,5433 11338,5433 11811,5669 " />
  <polygon
     id="polygon184"
     style="fill:#f3d8f3;stroke:#b000b0;stroke-width:48;stroke-linecap:butt;stroke-linejoin:round"
     points="11571,5545 11338,5429 11338,5914 11338,5914 11571,5914 " />
  <polygon
     id="polygon186"
     style="fill:#ebbfeb;stroke:#b000b0;stroke-width:48;stroke-linecap:butt;stroke-linejoin:round"
     points="11807,6032 11807,6144 11341,5908 11341,5908 11565,5908 " />
  <polygon
     id="polygon188"
     style="fill:#d77fd7;stroke:#b000b0;stroke-width:48;stroke-linecap:butt;stroke-linejoin:round"
     points="11338,5905 10866,5669 10866,5196 10866,5196 11338,5433 " />
  <polygon
     id="polygon190"
     style="fill:#f3d8f3;stroke:#b000b0;stroke-width:48;stroke-linecap:butt;stroke-linejoin:round"
     points="11099,5309 10866,5193 10866,5678 10866,5678 11099,5678 " />
  <polygon
     id="polygon192"
     style="fill:#ebbfeb;stroke:#b000b0;stroke-width:48;stroke-linecap:butt;stroke-linejoin:round"
     points="11335,5796 11335,5908 10869,5672 10869,5672 11092,5672 " />
  <polygon
     id="polygon194"
     style="fill:#d77fd7;stroke:#b000b0;stroke-width:48;stroke-linecap:butt;stroke-linejoin:round"
     points="10866,6141 10393,5905 10393,5433 10393,5433 10866,5669 " />
  <polygon
     id="polygon196"
     style="fill:#f3d8f3;stroke:#b000b0;stroke-width:48;stroke-linecap:butt;stroke-linejoin:round"
     points="10626,5545 10393,5429 10393,5914 10393,5914 10626,5914 " />
  <polygon
     id="polygon198"
     style="fill:#ebbfeb;stroke:#b000b0;stroke-width:48;stroke-linecap:butt;stroke-linejoin:round"
     points="10862,6032 10862,6144 10396,5908 10396,5908 10620,5908 " />
  <polygon
     id="polygon200"
     style="fill:#d77fd7;stroke:#b000b0;stroke-width:48;stroke-linecap:butt;stroke-linejoin:round"
     points="11338,6377 10866,6141 10866,5669 10866,5669 11338,5905 " />
  <polygon
     id="polygon202"
     style="fill:#f3d8f3;stroke:#b000b0;stroke-width:48;stroke-linecap:butt;stroke-linejoin:round"
     points="11099,5781 10866,5666 10866,6151 10866,6151 11099,6151 " />
  <polygon
     id="polygon204"
     style="fill:#ebbfeb;stroke:#b000b0;stroke-width:48;stroke-linecap:butt;stroke-linejoin:round"
     points="11335,6268 11335,6381 10869,6144 10869,6144 11092,6144 " />
  <polygon
     id="polygon206"
     style="fill:#d77fd7;stroke:#b000b0;stroke-width:48;stroke-linecap:butt;stroke-linejoin:round"
     points="11811,6614 11338,6377 11338,5905 11338,5905 11811,6141 " />
  <polygon
     id="polygon208"
     style="fill:#f3d8f3;stroke:#b000b0;stroke-width:48;stroke-linecap:butt;stroke-linejoin:round"
     points="11571,6017 11338,5902 11338,6387 11338,6387 11571,6387 " />
  <polygon
     id="polygon210"
     style="fill:#ebbfeb;stroke:#b000b0;stroke-width:48;stroke-linecap:butt;stroke-linejoin:round"
     points="11807,6504 11807,6617 11341,6381 11341,6381 11565,6381 " />
  <polygon
     id="polygon212"
     style="fill:#d77fd7;stroke:#b000b0;stroke-width:48;stroke-linecap:butt;stroke-linejoin:round"
     points="12283,6850 11811,6614 11811,6141 11811,6141 12283,6377 " />
  <polygon
     id="polygon214"
     style="fill:#f3d8f3;stroke:#b000b0;stroke-width:48;stroke-linecap:butt;stroke-linejoin:round"
     points="12044,6254 11811,6138 11811,6623 11811,6623 12044,6623 " />
  <polygon
     id="polygon216"
     style="fill:#ebbfeb;stroke:#b000b0;stroke-width:48;stroke-linecap:butt;stroke-linejoin:round"
     points="12280,6741 12280,6853 11814,6617 11814,6617 12037,6617 " />
  <polygon
     id="polygon218"
     style="fill:#d77fd7;stroke:#b000b0;stroke-width:48;stroke-linecap:butt;stroke-linejoin:round"
     points="12755,7086 12283,6850 12283,6377 12283,6377 12755,6614 " />
  <polygon
     id="polygon220"
     style="fill:#f3d8f3;stroke:#b000b0;stroke-width:48;stroke-linecap:butt;stroke-linejoin:round"
     points="12516,6490 12283,6374 12283,6859 12283,6859 12516,6859 " />
  <polygon
     id="polygon222"
     style="fill:#ebbfeb;stroke:#b000b0;stroke-width:48;stroke-linecap:butt;stroke-linejoin:round"
     points="12752,6977 12752,7089 12286,6853 12286,6853 12510,6853 " />
  <polygon
     id="polygon224"
     style="fill:#d77fd7;stroke:#b000b0;stroke-width:48;stroke-linecap:butt;stroke-linejoin:round"
     points="12755,7559 12283,7322 12283,6850 12283,6850 12755,7086 " />
  <polygon
     id="polygon226"
     style="fill:#f3d8f3;stroke:#b000b0;stroke-width:48;stroke-linecap:butt;stroke-linejoin:round"
     points="12516,6962 12283,6847 12283,7332 12283,7332 12516,7332 " />
  <polygon
     id="polygon228"
     style="fill:#ebbfeb;stroke:#b000b0;stroke-width:48;stroke-linecap:butt;stroke-linejoin:round"
     points="12752,7449 12752,7562 12286,7325 12286,7325 12510,7325 " />
  <polygon
     id="polygon230"
     style="fill:#d77fd7;stroke:#b000b0;stroke-width:48;stroke-linecap:butt;stroke-linejoin:round"
     points="12283,7322 11811,7086 11811,6614 11811,6614 12283,6850 " />
  <polygon
     id="polygon232"
     style="fill:#f3d8f3;stroke:#b000b0;stroke-width:48;stroke-linecap:butt;stroke-linejoin:round"
     points="12044,6726 11811,6611 11811,7096 11811,7096 12044,7096 " />
  <polygon
     id="polygon234"
     style="fill:#ebbfeb;stroke:#b000b0;stroke-width:48;stroke-linecap:butt;stroke-linejoin:round"
     points="12280,7213 12280,7325 11814,7089 11814,7089 12037,7089 " />
  <polygon
     id="polygon236"
     style="fill:#d77fd7;stroke:#b000b0;stroke-width:48;stroke-linecap:butt;stroke-linejoin:round"
     points="12283,7795 11811,7559 11811,7086 11811,7086 12283,7322 " />
  <polygon
     id="polygon238"
     style="fill:#f3d8f3;stroke:#b000b0;stroke-width:48;stroke-linecap:butt;stroke-linejoin:round"
     points="12044,7198 11811,7083 11811,7568 11811,7568 12044,7568 " />
  <polygon
     id="polygon240"
     style="fill:#ebbfeb;stroke:#b000b0;stroke-width:48;stroke-linecap:butt;stroke-linejoin:round"
     points="12280,7686 12280,7798 11814,7562 11814,7562 12037,7562 " />
  <polygon
     id="polygon242"
     style="fill:#d77fd7;stroke:#b000b0;stroke-width:48;stroke-linecap:butt;stroke-linejoin:round"
     points="12755,8031 12283,7795 12283,7322 12283,7322 12755,7559 " />
  <polygon
     id="polygon244"
     style="fill:#f3d8f3;stroke:#b000b0;stroke-width:48;stroke-linecap:butt;stroke-linejoin:round"
     points="12516,7435 12283,7319 12283,7804 12283,7804 12516,7804 " />
  <polygon
     id="polygon246"
     style="fill:#ebbfeb;stroke:#b000b0;stroke-width:48;stroke-linecap:butt;stroke-linejoin:round"
     points="12752,7922 12752,8034 12286,7798 12286,7798 12510,7798 " />
  <polygon
     id="polygon248"
     style="fill:#d77fd7;stroke:#b000b0;stroke-width:48;stroke-linecap:butt;stroke-linejoin:round"
     points="12755,8503 12283,8267 12283,7795 12283,7795 12755,8031 " />
  <polygon
     id="polygon250"
     style="fill:#f3d8f3;stroke:#b000b0;stroke-width:48;stroke-linecap:butt;stroke-linejoin:round"
     points="12516,7907 12283,7792 12283,8277 12283,8277 12516,8277 " />
  <polygon
     id="polygon252"
     style="fill:#ebbfeb;stroke:#b000b0;stroke-width:48;stroke-linecap:butt;stroke-linejoin:round"
     points="12752,8394 12752,8507 12286,8270 12286,8270 12510,8270 " />
  <polygon
     id="polygon254"
     style="fill:#d77fd7;stroke:#b000b0;stroke-width:48;stroke-linecap:butt;stroke-linejoin:round"
     points="12283,8267 11811,8031 11811,7559 11811,7559 12283,7795 " />
  <polygon
     id="polygon256"
     style="fill:#f3d8f3;stroke:#b000b0;stroke-width:48;stroke-linecap:butt;stroke-linejoin:round"
     points="12044,7671 11811,7555 11811,8040 11811,8040 12044,8040 " />
  <polygon
     id="polygon258"
     style="fill:#ebbfeb;stroke:#b000b0;stroke-width:48;stroke-linecap:butt;stroke-linejoin:round"
     points="12280,8158 12280,8270 11814,8034 11814,8034 12037,8034 " />
  <polygon
     id="polygon260"
     style="fill:#d77fd7;stroke:#b000b0;stroke-width:48;stroke-linecap:butt;stroke-linejoin:round"
     points="11811,7086 11338,6850 11338,6377 11338,6377 11811,6614 " />
  <polygon
     id="polygon262"
     style="fill:#f3d8f3;stroke:#b000b0;stroke-width:48;stroke-linecap:butt;stroke-linejoin:round"
     points="11571,6490 11338,6374 11338,6859 11338,6859 11571,6859 " />
  <polygon
     id="polygon264"
     style="fill:#ebbfeb;stroke:#b000b0;stroke-width:48;stroke-linecap:butt;stroke-linejoin:round"
     points="11807,6977 11807,7089 11341,6853 11341,6853 11565,6853 " />
  <polygon
     id="polygon266"
     style="fill:#d77fd7;stroke:#b000b0;stroke-width:48;stroke-linecap:butt;stroke-linejoin:round"
     points="11811,7559 11338,7322 11338,6850 11338,6850 11811,7086 " />
  <polygon
     id="polygon268"
     style="fill:#f3d8f3;stroke:#b000b0;stroke-width:48;stroke-linecap:butt;stroke-linejoin:round"
     points="11571,6962 11338,6847 11338,7332 11338,7332 11571,7332 " />
  <polygon
     id="polygon270"
     style="fill:#ebbfeb;stroke:#b000b0;stroke-width:48;stroke-linecap:butt;stroke-linejoin:round"
     points="11807,7449 11807,7562 11341,7325 11341,7325 11565,7325 " />
  <polygon
     id="polygon272"
     style="fill:#d77fd7;stroke:#b000b0;stroke-width:48;stroke-linecap:butt;stroke-linejoin:round"
     points="10866,6614 10393,6377 10393,5905 10393,5905 10866,6141 " />
  <polygon
     id="polygon274"
     style="fill:#f3d8f3;stroke:#b000b0;stroke-width:48;stroke-linecap:butt;stroke-linejoin:round"
     points="10626,6017 10393,5902 10393,6387 10393,6387 10626,6387 " />
  <polygon
     id="polygon276"
     style="fill:#ebbfeb;stroke:#b000b0;stroke-width:48;stroke-linecap:butt;stroke-linejoin:round"
     points="10862,6504 10862,6617 10396,6381 10396,6381 10620,6381 " />
  <polygon
     id="polygon278"
     style="fill:#d77fd7;stroke:#b000b0;stroke-width:48;stroke-linecap:butt;stroke-linejoin:round"
     points="10866,7086 10393,6850 10393,6377 10393,6377 10866,6614 " />
  <polygon
     id="polygon280"
     style="fill:#f3d8f3;stroke:#b000b0;stroke-width:48;stroke-linecap:butt;stroke-linejoin:round"
     points="10626,6490 10393,6374 10393,6859 10393,6859 10626,6859 " />
  <polygon
     id="polygon282"
     style="fill:#ebbfeb;stroke:#b000b0;stroke-width:48;stroke-linecap:butt;stroke-linejoin:round"
     points="10862,6977 10862,7089 10396,6853 10396,6853 10620,6853 " />
  <polygon
     id="polygon284"
     style="fill:#d77fd7;stroke:#b000b0;stroke-width:48;stroke-linecap:butt;stroke-linejoin:round"
     points="11811,8031 11338,7795 11338,7322 11338,7322 11811,7559 " />
  <polygon
     id="polygon286"
     style="fill:#f3d8f3;stroke:#b000b0;stroke-width:48;stroke-linecap:butt;stroke-linejoin:round"
     points="11571,7435 11338,7319 11338,7804 11338,7804 11571,7804 " />
  <polygon
     id="polygon288"
     style="fill:#ebbfeb;stroke:#b000b0;stroke-width:48;stroke-linecap:butt;stroke-linejoin:round"
     points="11807,7922 11807,8034 11341,7798 11341,7798 11565,7798 " />
  <polygon
     id="polygon290"
     style="fill:#d77fd7;stroke:#b000b0;stroke-width:48;stroke-linecap:butt;stroke-linejoin:round"
     points="11338,7795 10866,7559 10866,7086 10866,7086 11338,7322 " />
  <polygon
     id="polygon292"
     style="fill:#f3d8f3;stroke:#b000b0;stroke-width:48;stroke-linecap:butt;stroke-linejoin:round"
     points="11099,7198 10866,7083 10866,7568 10866,7568 11099,7568 " />
  <polygon
     id="polygon294"
     style="fill:#ebbfeb;stroke:#b000b0;stroke-width:48;stroke-linecap:butt;stroke-linejoin:round"
     points="11335,7686 11335,7798 10869,7562 10869,7562 11092,7562 " />
  <polygon
     id="polygon296"
     style="fill:#d77fd7;stroke:#b000b0;stroke-width:48;stroke-linecap:butt;stroke-linejoin:round"
     points="10866,7559 10393,7322 10393,6850 10393,6850 10866,7086 " />
  <polygon
     id="polygon298"
     style="fill:#f3d8f3;stroke:#b000b0;stroke-width:48;stroke-linecap:butt;stroke-linejoin:round"
     points="10626,6962 10393,6847 10393,7332 10393,7332 10626,7332 " />
  <polygon
     id="polygon300"
     style="fill:#ebbfeb;stroke:#b000b0;stroke-width:48;stroke-linecap:butt;stroke-linejoin:round"
     points="10862,7449 10862,7562 10396,7325 10396,7325 10620,7325 " />
  <polygon
     id="polygon302"
     style="fill:#d77fd7;stroke:#b000b0;stroke-width:48;stroke-linecap:butt;stroke-linejoin:round"
     points="11338,7322 10866,7086 10866,6614 10866,6614 11338,6850 " />
  <polygon
     id="polygon304"
     style="fill:#f3d8f3;stroke:#b000b0;stroke-width:48;stroke-linecap:butt;stroke-linejoin:round"
     points="11099,6726 10866,6611 10866,7096 10866,7096 11099,7096 " />
  <polygon
     id="polygon306"
     style="fill:#ebbfeb;stroke:#b000b0;stroke-width:48;stroke-linecap:butt;stroke-linejoin:round"
     points="11335,7213 11335,7325 10869,7089 10869,7089 11092,7089 " />
  <polygon
     id="polygon308"
     style="fill:#d77fd7;stroke:#b000b0;stroke-width:48;stroke-linecap:butt;stroke-linejoin:round"
     points="11338,6850 10866,6614 10866,6141 10866,6141 11338,6377 " />
  <polygon
     id="polygon310"
     style="fill:#f3d8f3;stroke:#b000b0;stroke-width:48;stroke-linecap:butt;stroke-linejoin:round"
     points="11099,6254 10866,6138 10866,6623 10866,6623 11099,6623 " />
  <polygon
     id="polygon312"
     style="fill:#ebbfeb;stroke:#b000b0;stroke-width:48;stroke-linecap:butt;stroke-linejoin:round"
     points="11335,6741 11335,6853 10869,6617 10869,6617 11092,6617 " />
  <polygon
     id="polygon314"
     style="fill:#d77fd7;stroke:#b000b0;stroke-width:48;stroke-linecap:butt;stroke-linejoin:round"
     points="13228,8740 12755,8503 12755,8031 12755,8031 13228,8267 " />
  <polygon
     id="polygon316"
     style="fill:#f3d8f3;stroke:#b000b0;stroke-width:48;stroke-linecap:butt;stroke-linejoin:round"
     points="12988,8143 12755,8028 12755,8513 12755,8513 12988,8513 " />
  <polygon
     id="polygon318"
     style="fill:#ebbfeb;stroke:#b000b0;stroke-width:48;stroke-linecap:butt;stroke-linejoin:round"
     points="13225,8630 13225,8743 12759,8507 12759,8507 12982,8507 " />
  <polygon
     id="polygon320"
     style="fill:#ffffff;stroke:#000000;stroke-width:32;stroke-linecap:butt;stroke-linejoin:round"
     points="11338,8740 11338,5905 8503,4488 8503,4488 8503,7322 " />
  <polyline
     id="polyline322"
     style="fill:#ffffff;stroke:#000000;stroke-width:32;stroke-linecap:butt;stroke-linejoin:round"
     points="8031,7322 8503,7322 11338,8740 10866,8740 " />
  <polyline
     id="polyline324"
     style="fill:#ffffff;stroke:#ff0000;stroke-width:63;stroke-linecap:butt;stroke-linejoin:round"
     points="11102,6141 8267,4724 " />
  <polyline
     id="polyline326"
     style="fill:#ffffff;stroke:#ff0000;stroke-width:63;stroke-linecap:butt;stroke-linejoin:round"
     points="11102,6614 8267,5196 " />
  <polyline
     id="polyline328"
     style="fill:#ffffff;stroke:#ff0000;stroke-width:63;stroke-linecap:butt;stroke-linejoin:round"
     points="11102,7086 8267,5669 " />
  <polyline
     id="polyline330"
     style="fill:#ffffff;stroke:#ff0000;stroke-width:63;stroke-linecap:butt;stroke-linejoin:round"
     points="11102,7559 8267,6141 " />
  <polyline
     id="polyline332"
     style="fill:#ffffff;stroke:#ff0000;stroke-width:63;stroke-linecap:butt;stroke-linejoin:round"
     points="11102,8031 8267,6614 " />
  <polyline
     id="polyline334"
     style="fill:#ffffff;stroke:#ff0000;stroke-width:63;stroke-linecap:butt;stroke-linejoin:round"
     points="11102,8503 8267,7086 " />
  <polygon
     id="polygon336"
     style="fill:none;stroke:#000000;stroke-width:32;stroke-linecap:butt;stroke-linejoin:round"
     points="10866,8740 8031,7322 8031,4488 8031,4488 10866,5905 " />
  <polygon
     id="polygon338"
     style="fill:none;stroke:#000000;stroke-width:32;stroke-linecap:butt;stroke-linejoin:round"
     points="11338,5905 10866,5905 8031,4488 8031,4488 8503,4488 " />
  <polygon
     id="polygon340"
     style="fill:none;stroke:#000000;stroke-width:32;stroke-linecap:butt;stroke-linejoin:round"
     points="10866,8740 10866,5905 11338,5905 11338,5905 11338,8740 " />
</svg>
