<?xml version="1.0" encoding="UTF-8" standalone="no"?>
<!-- Creator: fig2dev Version 3.2 Patchlevel 5e -->

<!-- CreationDate: Thu Nov 26 13:17:08 2015 -->

<!-- Magnification: 1.050 -->

<svg
   xmlns:dc="http://purl.org/dc/elements/1.1/"
   xmlns:cc="http://creativecommons.org/ns#"
   xmlns:rdf="http://www.w3.org/1999/02/22-rdf-syntax-ns#"
   xmlns:svg="http://www.w3.org/2000/svg"
   xmlns="http://www.w3.org/2000/svg"
   xmlns:sodipodi="http://sodipodi.sourceforge.net/DTD/sodipodi-0.dtd"
   xmlns:inkscape="http://www.inkscape.org/namespaces/inkscape"
   width="10.6in"
   height="9.4in"
   viewBox="1261 3149 12774 11290"
   id="svg2"
   version="1.1"
   inkscape:version="0.91 r13725"
   sodipodi:docname="fig_objekteGrammatikZweig.svg">
  <metadata
     id="metadata158">
    <rdf:RDF>
      <cc:Work
         rdf:about="">
        <dc:format>image/svg+xml</dc:format>
        <dc:type
           rdf:resource="http://purl.org/dc/dcmitype/StillImage" />
        <dc:title></dc:title>
      </cc:Work>
    </rdf:RDF>
  </metadata>
  <defs
     id="defs156" />
  <sodipodi:namedview
     pagecolor="#ffffff"
     bordercolor="#666666"
     borderopacity="1"
     objecttolerance="10"
     gridtolerance="10"
     guidetolerance="10"
     inkscape:pageopacity="0"
     inkscape:pageshadow="2"
     inkscape:window-width="2418"
     inkscape:window-height="1269"
     id="namedview154"
     showgrid="false"
     inkscape:zoom="0.78901753"
     inkscape:cx="325.71383"
     inkscape:cy="512.91238"
     inkscape:window-x="142"
     inkscape:window-y="60"
     inkscape:window-maximized="1"
     inkscape:current-layer="svg2" />
  <polyline
     id="polyline6"
     style="fill:none;stroke:#a14000;stroke-width:63;stroke-linecap:butt;stroke-linejoin:miter"
     points="8267,8976 12992,8976 " />
  <polyline
     id="polyline8"
     style="fill:none;stroke:#a14000;stroke-width:63;stroke-linecap:butt;stroke-linejoin:miter"
     points="8267,6141 11574,6141 " />
  <polyline
     id="polyline10"
     style="fill:none;stroke:#a14000;stroke-width:63;stroke-linecap:butt;stroke-linejoin:miter"
     points="8267,12755 12992,12755 " />
  <polyline
     id="polyline12"
     style="fill:none;stroke:#a14000;stroke-width:63;stroke-linecap:butt;stroke-linejoin:miter"
     points="9691,12769 10958,11707 " />
  <polyline
     id="polyline14"
     style="fill:none;stroke:#a14000;stroke-width:63;stroke-linecap:butt;stroke-linejoin:miter"
     points="9691,12742 10958,13804 " />
  <polyline
     id="polyline16"
     style="fill:none;stroke:#a14000;stroke-width:63;stroke-linecap:butt;stroke-linejoin:miter"
     points="8267,3307 9921,3307 " />
  <polyline
     id="polyline18"
     style="fill:none;stroke:#a14000;stroke-width:63;stroke-linecap:butt;stroke-linejoin:miter"
     points="9691,8990 10958,7927 " />
  <polyline
     id="polyline20"
     style="fill:none;stroke:#a14000;stroke-width:63;stroke-linecap:butt;stroke-linejoin:miter"
     points="9691,8962 10958,10025 " />
  <path
     inkscape:connector-curvature="0"
     id="path22"
     d="m 9898,3307 a 296,296 0 0 1 472,0"
     style="fill:#bfbfff;stroke:#0000ff;stroke-width:32;stroke-linecap:butt" />
  <path
     inkscape:connector-curvature="0"
     id="path24"
     d="m 9898,3307 a 294,294 0 0 0 472,0"
     style="fill:#bfbfff;stroke:#0000ff;stroke-width:32;stroke-linecap:butt" />
  <path
     inkscape:connector-curvature="0"
     id="path26"
     d="m 9950,6079 a 295,295 0 0 1 362,-303"
     style="fill:#bfbfff;stroke:#0000ff;stroke-width:32;stroke-linecap:butt" />
  <path
     inkscape:connector-curvature="0"
     id="path28"
     d="m 9950,6079 a 294,294 0 0 0 362,-303"
     style="fill:#bfbfff;stroke:#0000ff;stroke-width:32;stroke-linecap:butt" />
  <path
     inkscape:connector-curvature="0"
     id="path30"
     d="m 9950,6203 a 295,295 0 0 0 362,304"
     style="fill:#bfbfff;stroke:#0000ff;stroke-width:32;stroke-linecap:butt" />
  <path
     inkscape:connector-curvature="0"
     id="path32"
     d="m 9950,6203 a 294,294 0 0 1 362,304"
     style="fill:#bfbfff;stroke:#0000ff;stroke-width:32;stroke-linecap:butt" />
  <path
     inkscape:connector-curvature="0"
     id="path34"
     d="m 11551,6141 a 296,296 0 0 1 473,0"
     style="fill:#bfbfff;stroke:#0000ff;stroke-width:32;stroke-linecap:butt" />
  <path
     inkscape:connector-curvature="0"
     id="path36"
     d="m 11551,6141 a 294,294 0 0 0 473,0"
     style="fill:#bfbfff;stroke:#0000ff;stroke-width:32;stroke-linecap:butt" />
  <path
     inkscape:connector-curvature="0"
     id="path38"
     d="m 10939,7942 a 294,294 0 0 1 362,-304"
     style="fill:#bfbfff;stroke:#0000ff;stroke-width:32;stroke-linecap:butt" />
  <path
     inkscape:connector-curvature="0"
     id="path40"
     d="m 10939,7942 a 294,294 0 0 0 362,-304"
     style="fill:#bfbfff;stroke:#0000ff;stroke-width:32;stroke-linecap:butt" />
  <path
     inkscape:connector-curvature="0"
     id="path42"
     d="m 11367,8914 a 295,295 0 0 1 363,-303"
     style="fill:#bfbfff;stroke:#0000ff;stroke-width:32;stroke-linecap:butt" />
  <path
     inkscape:connector-curvature="0"
     id="path44"
     d="m 11367,8914 a 294,294 0 0 0 363,-303"
     style="fill:#bfbfff;stroke:#0000ff;stroke-width:32;stroke-linecap:butt" />
  <path
     inkscape:connector-curvature="0"
     id="path46"
     d="m 11367,9038 a 295,295 0 0 0 363,303"
     style="fill:#bfbfff;stroke:#0000ff;stroke-width:32;stroke-linecap:butt" />
  <path
     inkscape:connector-curvature="0"
     id="path48"
     d="m 11367,9038 a 294,294 0 0 1 363,303"
     style="fill:#bfbfff;stroke:#0000ff;stroke-width:32;stroke-linecap:butt" />
  <path
     inkscape:connector-curvature="0"
     id="path50"
     d="m 12969,8976 a 296,296 0 0 1 472,0"
     style="fill:#bfbfff;stroke:#0000ff;stroke-width:32;stroke-linecap:butt" />
  <path
     inkscape:connector-curvature="0"
     id="path52"
     d="m 12969,8976 a 294,294 0 0 0 472,0"
     style="fill:#bfbfff;stroke:#0000ff;stroke-width:32;stroke-linecap:butt" />
  <path
     inkscape:connector-curvature="0"
     id="path54"
     d="m 9808,9038 a 295,295 0 0 0 363,303"
     style="fill:#bfbfff;stroke:#0000ff;stroke-width:32;stroke-linecap:butt" />
  <path
     inkscape:connector-curvature="0"
     id="path56"
     d="m 9808,9038 a 294,294 0 0 1 363,303"
     style="fill:#bfbfff;stroke:#0000ff;stroke-width:32;stroke-linecap:butt" />
  <path
     inkscape:connector-curvature="0"
     id="path58"
     d="m 10939,10010 a 294,294 0 0 0 362,303"
     style="fill:#bfbfff;stroke:#0000ff;stroke-width:32;stroke-linecap:butt" />
  <path
     inkscape:connector-curvature="0"
     id="path60"
     d="m 10939,10010 a 294,294 0 0 1 362,303"
     style="fill:#bfbfff;stroke:#0000ff;stroke-width:32;stroke-linecap:butt" />
  <path
     inkscape:connector-curvature="0"
     id="path62"
     d="m 11367,12817 a 295,295 0 0 0 363,304"
     style="fill:#bfbfff;stroke:#0000ff;stroke-width:32;stroke-linecap:butt" />
  <path
     inkscape:connector-curvature="0"
     id="path64"
     d="m 11367,12817 a 294,294 0 0 1 363,304"
     style="fill:#bfbfff;stroke:#0000ff;stroke-width:32;stroke-linecap:butt" />
  <path
     inkscape:connector-curvature="0"
     id="path66"
     d="m 9808,12817 a 295,295 0 0 0 363,304"
     style="fill:#bfbfff;stroke:#0000ff;stroke-width:32;stroke-linecap:butt" />
  <path
     inkscape:connector-curvature="0"
     id="path68"
     d="m 9808,12817 a 294,294 0 0 1 363,304"
     style="fill:#bfbfff;stroke:#0000ff;stroke-width:32;stroke-linecap:butt" />
  <polyline
     id="polyline70"
     style="fill:none;stroke:#b000b0;stroke-width:48;stroke-linecap:butt;stroke-linejoin:miter"
     points="4157,3685 4157,5338 " />
  <polygon
     id="polygon72"
     style="fill:#b000b0;stroke:#b000b0;stroke-width:48;stroke-miterlimit:8"
     points="4220,5391 4157,5343 4094,5391 4094,5391 4157,5532 " />
  <polyline
     id="polyline74"
     style="fill:none;stroke:#b000b0;stroke-width:32;stroke-linecap:butt;stroke-linejoin:miter"
     points="1748,8740 1842,8598 1984,8598 2078,8503 2173,8598 2314,8598 2409,8740 " />
  <polyline
     id="polyline76"
     style="fill:none;stroke:#b000b0;stroke-width:32;stroke-linecap:butt;stroke-linejoin:miter"
     points="3070,5905 3212,5763 4062,5763 4157,5669 4251,5763 5102,5763 5196,5905 " />
  <polyline
     id="polyline78"
     style="fill:none;stroke:#b000b0;stroke-width:32;stroke-linecap:butt;stroke-linejoin:miter"
     points="2787,8740 2929,8598 3401,8598 3496,8503 3590,8598 4062,8598 4157,8740 " />
  <polyline
     id="polyline80"
     style="fill:none;stroke:#b000b0;stroke-width:48;stroke-linecap:butt;stroke-linejoin:miter"
     points="3448,6472 2232,8253 " />
  <polygon
     id="polygon82"
     style="fill:#b000b0;stroke:#b000b0;stroke-width:48;stroke-miterlimit:8"
     points="2254,8330 2228,8256 2150,8259 2150,8259 2122,8412 " />
  <polyline
     id="polyline84"
     style="fill:none;stroke:#b000b0;stroke-width:48;stroke-linecap:butt;stroke-linejoin:miter"
     points="4157,6472 3601,8182 " />
  <polygon
     id="polygon86"
     style="fill:#b000b0;stroke:#b000b0;stroke-width:48;stroke-miterlimit:8"
     points="3644,8250 3598,8185 3524,8212 3524,8212 3541,8366 " />
  <polyline
     id="polyline88"
     style="fill:none;stroke:#b000b0;stroke-width:32;stroke-linecap:butt;stroke-linejoin:miter"
     points="4629,8740 4771,8598 5574,8598 5669,8503 5763,8598 6377,8598 6472,8740 " />
  <polyline
     id="polyline90"
     style="fill:none;stroke:#b000b0;stroke-width:48;stroke-linecap:butt;stroke-linejoin:miter"
     points="5007,6472 5607,8183 " />
  <polygon
     id="polygon92"
     style="fill:#b000b0;stroke:#b000b0;stroke-width:48;stroke-miterlimit:8"
     points="5682,8211 5607,8187 5563,8253 5563,8253 5670,8366 " />
  <polyline
     id="polyline94"
     style="fill:none;stroke:#b000b0;stroke-width:48;stroke-linecap:butt;stroke-linejoin:miter"
     points="2409,9307 2542,12236 " />
  <polygon
     id="polygon96"
     style="fill:#b000b0;stroke:#b000b0;stroke-width:48;stroke-miterlimit:8"
     points="2605,12284 2540,12240 2479,12289 2479,12289 2550,12429 " />
  <polyline
     id="polyline98"
     style="fill:none;stroke:#b000b0;stroke-width:48;stroke-linecap:butt;stroke-linejoin:miter"
     points="3968,9307 3968,12236 " />
  <polygon
     id="polygon100"
     style="fill:#b000b0;stroke:#b000b0;stroke-width:48;stroke-miterlimit:8"
     points="4031,12288 3968,12241 3905,12288 3905,12288 3968,12430 " />
  <polyline
     id="polyline102"
     style="fill:none;stroke:#b000b0;stroke-width:48;stroke-linecap:butt;stroke-linejoin:miter"
     points="4913,9307 4913,12236 " />
  <polygon
     id="polygon104"
     style="fill:#b000b0;stroke:#b000b0;stroke-width:48;stroke-miterlimit:8"
     points="4976,12288 4913,12241 4850,12288 4850,12288 4913,12430 " />
  <polyline
     id="polyline106"
     style="fill:none;stroke:#b000b0;stroke-width:48;stroke-linecap:butt;stroke-linejoin:miter"
     points="6236,9307 6145,12236 " />
  <polygon
     id="polygon108"
     style="fill:#b000b0;stroke:#b000b0;stroke-width:48;stroke-miterlimit:8"
     points="6208,12288 6146,12240 6082,12285 6082,12285 6141,12429 " />
  <polyline
     id="polyline110"
     style="fill:none;stroke:#b000b0;stroke-width:48;stroke-linecap:butt;stroke-linejoin:miter"
     points="5480,9307 5480,12236 " />
  <polygon
     id="polygon112"
     style="fill:#b000b0;stroke:#b000b0;stroke-width:48;stroke-miterlimit:8"
     points="5543,12288 5480,12241 5417,12288 5417,12288 5480,12430 " />
  <polyline
     id="polyline114"
     style="fill:none;stroke:#b000b0;stroke-width:48;stroke-linecap:butt;stroke-linejoin:miter"
     points="3212,9307 3212,12236 " />
  <polygon
     id="polygon116"
     style="fill:#b000b0;stroke:#b000b0;stroke-width:48;stroke-miterlimit:8"
     points="3275,12288 3212,12241 3149,12288 3149,12288 3212,12430 " />
  <polygon
     id="polygon118"
     style="fill:#bfebbf;stroke:#00b000;stroke-width:32;stroke-linecap:butt;stroke-linejoin:bevel"
     points="10949,11398 10956,11382 10962,11372 10965,11365 10969,11360 10972,11356 10977,11349 10985,11338 10997,11323 11015,11302 11036,11278 11056,11258 11072,11240 11087,11228 11098,11218 11105,11212 11109,11208 11113,11205 11118,11202 11123,11198 11130,11193 11142,11186 11158,11175 11177,11163 11201,11149 11227,11134 11249,11123 11265,11116 11274,11110 11279,11107 11282,11106 11286,11104 11292,11102 11301,11100 11317,11096 11340,11091 11369,11088 11397,11086 11421,11086 11439,11087 11451,11088 11459,11090 11464,11092 11469,11095 11477,11097 11488,11100 11505,11104 11528,11109 11554,11116 11584,11124 11606,11131 11619,11138 11626,11142 11629,11146 11632,11149 11638,11153 11649,11159 11668,11165 11691,11172 11714,11177 11731,11181 11741,11182 11748,11182 11752,11181 11755,11180 11760,11179 11770,11179 11782,11179 11797,11181 11817,11184 11826,11185 11829,11186 11830,11186 11835,11188 11839,11191 11839,11192 11839,11193 11839,11194 11838,11194 11838,11193 11837,11192 11836,11191 11835,11190 11835,11188 11834,11187 11833,11185 11830,11185 11829,11185 11827,11186 11824,11188 11821,11192 11817,11198 11813,11206 11804,11222 11797,11236 11791,11247 11787,11254 11785,11258 11782,11264 11778,11273 11773,11288 11763,11311 11753,11342 11745,11366 11739,11388 11735,11405 11733,11419 11733,11428 11735,11435 11736,11440 11738,11446 11738,11453 11737,11462 11733,11476 11727,11495 11715,11518 11700,11544 11683,11569 11668,11591 11654,11608 11644,11620 11636,11628 11631,11634 11627,11637 11622,11641 11615,11646 11607,11653 11593,11664 11575,11677 11552,11694 11525,11713 11497,11731 11472,11744 11453,11756 11439,11763 11429,11769 11423,11772 11418,11774 11414,11776 11407,11778 11397,11781 11382,11785 11362,11792 11336,11798 11306,11804 11275,11808 11250,11812 11229,11813 11214,11813 11204,11813 11196,11812 11190,11811 11185,11809 11179,11808 11169,11806 11155,11804 11138,11800 11117,11796 11093,11791 11064,11781 11044,11774 11034,11769 11028,11765 11027,11763 11026,11761 11023,11757 11016,11750 11002,11736 10984,11718 10967,11698 10954,11682 10945,11671 10940,11665 10936,11660 10933,11656 10930,11649 10923,11636 10917,11616 10910,11591 10906,11565 10903,11545 10903,11532 10902,11525 10902,11522 10903,11518 10906,11510 10909,11497 10916,11475 10927,11445 10927,11445 10938,11420 " />
  <polyline
     id="polyline120"
     style="fill:none;stroke:#00b000;stroke-width:32;stroke-linecap:butt;stroke-linejoin:bevel"
     points="11839,11191 11837,11192 11834,11194 11828,11198 11820,11204 11809,11210 11798,11217 11784,11226 11770,11235 11753,11245 11734,11255 11712,11267 11687,11280 11659,11294 11631,11308 11606,11319 11587,11328 11572,11333 11563,11337 11556,11338 11551,11339 11546,11340 11540,11342 11529,11345 11514,11352 11495,11361 11468,11373 11439,11387 11409,11402 11384,11416 11364,11426 11350,11435 11340,11441 11334,11445 11330,11448 11324,11451 11319,11456 11310,11462 11297,11469 11280,11480 11259,11492 11235,11506 11205,11524 11184,11535 11171,11542 11167,11544 11166,11543 11165,11543 11161,11545 11150,11550 11132,11563 11107,11580 11085,11595 11065,11611 11047,11625 11032,11637 11017,11650 11004,11661 10993,11672 10982,11681 10975,11688 10971,11692 10969,11694 " />
  <polygon
     id="polygon122"
     style="fill:#bfebbf;stroke:#00b000;stroke-width:32;stroke-linecap:butt;stroke-linejoin:bevel"
     points="13128,12496 13143,12487 13153,12480 13160,12476 13165,12473 13170,12471 13177,12468 13190,12462 13208,12456 13233,12447 13264,12436 13291,12429 13314,12423 13333,12418 13346,12415 13356,12413 13362,12412 13367,12412 13372,12411 13378,12411 13387,12410 13401,12409 13420,12408 13443,12407 13470,12407 13501,12408 13526,12409 13543,12409 13553,12410 13560,12409 13564,12409 13567,12409 13572,12410 13583,12413 13598,12417 13620,12426 13647,12436 13673,12449 13694,12461 13709,12471 13718,12478 13724,12483 13729,12489 13732,12493 13737,12499 13745,12508 13758,12519 13775,12536 13795,12555 13816,12577 13832,12595 13840,12606 13843,12614 13844,12619 13844,12623 13847,12629 13854,12640 13866,12655 13883,12672 13900,12688 13913,12700 13923,12706 13928,12709 13932,12710 13937,12710 13942,12712 13949,12717 13960,12724 13972,12732 13988,12745 13994,12750 13996,12752 13997,12753 14000,12756 14002,12762 14002,12763 14001,12764 14000,12764 13998,12763 13998,12762 13998,12760 14000,12759 14000,12756 14000,12755 14000,12753 13998,12752 13997,12752 13995,12751 13993,12751 13990,12753 13985,12754 13980,12758 13972,12762 13956,12771 13943,12781 13933,12787 13927,12791 13923,12793 13918,12796 13910,12803 13898,12812 13879,12828 13854,12850 13835,12867 13819,12882 13806,12896 13798,12907 13794,12915 13792,12921 13790,12927 13788,12932 13785,12938 13779,12945 13770,12956 13754,12969 13733,12983 13707,12998 13679,13012 13654,13022 13634,13030 13619,13036 13609,13039 13602,13041 13596,13042 13590,13043 13583,13044 13571,13045 13554,13047 13532,13050 13503,13054 13470,13057 13438,13058 13408,13059 13386,13058 13371,13058 13360,13058 13353,13057 13348,13057 13342,13056 13335,13055 13325,13053 13310,13049 13290,13044 13264,13037 13234,13027 13206,13016 13182,13005 13163,12996 13150,12988 13141,12983 13135,12979 13130,12975 13127,12972 13122,12966 13114,12960 13104,12952 13090,12940 13075,12925 13057,12909 13036,12887 13022,12870 13016,12859 13013,12854 13013,12852 13013,12850 13013,12845 13009,12834 13004,12816 12998,12791 12993,12765 12991,12745 12988,12731 12986,12723 12985,12717 12985,12711 12985,12703 12987,12689 12991,12669 12998,12643 13007,12618 13016,12600 13022,12588 13025,12582 13027,12579 13029,12577 13035,12572 13045,12561 13062,12545 13086,12525 13086,12525 13108,12509 " />
  <polyline
     id="polyline124"
     style="fill:none;stroke:#00b000;stroke-width:32;stroke-linecap:butt;stroke-linejoin:bevel"
     points="14002,12762 14000,12762 13995,12762 13989,12763 13980,12763 13967,12764 13952,12765 13937,12765 13920,12766 13900,12766 13879,12765 13854,12765 13825,12764 13795,12762 13763,12760 13737,12756 13715,12754 13700,12752 13690,12750 13683,12749 13679,12747 13674,12745 13668,12744 13657,12742 13641,12740 13619,12738 13591,12734 13559,12732 13526,12730 13497,12729 13475,12729 13458,12729 13446,12729 13439,12729 13433,12730 13427,12730 13420,12731 13409,12731 13395,12732 13375,12732 13350,12732 13322,12732 13288,12732 13262,12732 13249,12731 13245,12730 13244,12730 13243,12729 13238,12729 13226,12729 13205,12730 13174,12732 13147,12735 13123,12739 13101,12742 13080,12745 13062,12748 13045,12751 13029,12754 13017,12758 13006,12760 13001,12761 12998,12762 " />
  <text
     style="font-style:normal;font-weight:normal;font-size:378px;font-family:Helvetica;text-anchor:middle;fill:#000000;stroke-width:0.025in"
     id="text126"
     font-size="378"
     font-weight="normal"
     font-style="normal"
     y="3543"
     x="4095.3394"
     xml:space="preserve">\iisc{0.56}{zK}</text>
  <text
     style="font-style:normal;font-weight:normal;font-size:378px;font-family:Helvetica;text-anchor:middle;fill:#000000;stroke-width:0.025in"
     id="text128"
     font-size="378"
     font-weight="normal"
     font-style="normal"
     y="6377"
     x="4122.1191"
     xml:space="preserve">\iisc{0.56}{z(K)[K]zK}</text>
  <text
     style="font-style:normal;font-weight:normal;font-size:378px;font-family:Helvetica;text-anchor:middle;fill:#000000;stroke-width:0.025in"
     id="text130"
     font-size="378"
     font-weight="normal"
     font-style="normal"
     y="9212"
     x="4015"
     xml:space="preserve">\iisc{0.56}{z(zK)[(K)zK]z(K)[K]zK}</text>
  <text
     style="font-style:normal;font-weight:normal;font-size:378px;font-family:Helvetica;text-anchor:middle;fill:#000000;stroke-width:0.025in"
     id="text132"
     font-size="378"
     font-weight="normal"
     font-style="normal"
     y="12992"
     x="4015"
     xml:space="preserve">\iisc{0.56}{z(zl)[(K)zB]z(B)[K]zl}</text>
  <polygon
     id="polygon134"
     style="fill:#ffbfbf;stroke:#ff0000;stroke-width:32;stroke-linecap:butt;stroke-linejoin:bevel"
     points="11210,12542 11216,12560 11223,12574 11228,12584 11233,12593 11237,12599 11243,12605 11248,12613 11254,12621 11264,12632 11274,12644 11288,12659 11302,12672 11311,12679 11319,12685 11328,12689 11334,12693 11339,12698 11344,12700 11349,12703 11352,12705 11354,12708 11356,12710 11357,12712 11359,12713 11360,12716 11362,12717 11364,12717 11366,12718 11369,12717 11373,12716 11377,12712 11382,12708 11388,12702 11395,12695 11402,12685 11409,12672 11420,12650 11429,12627 11438,12605 11445,12584 11451,12566 11457,12551 11461,12536 11465,12522 11469,12509 11472,12494 11477,12477 11480,12457 11482,12435 11483,12410 11483,12382 11480,12354 11474,12330 11466,12309 11459,12295 11450,12284 11443,12277 11437,12272 11429,12269 11424,12268 11417,12267 11411,12266 11402,12265 11393,12263 11381,12259 11369,12255 11354,12250 11338,12247 11321,12246 11307,12247 11296,12249 11288,12253 11282,12255 11279,12257 11276,12259 11274,12262 11271,12266 11267,12271 11260,12279 11252,12289 11243,12302 11232,12319 11222,12340 11213,12360 11207,12374 11203,12385 11200,12392 11196,12398 11194,12405 11192,12413 11191,12426 11191,12444 11192,12468 11196,12496 11196,12496 11203,12521 " />
  <polygon
     id="polygon136"
     style="fill:#ffbfbf;stroke:#ff0000;stroke-width:32;stroke-linecap:butt;stroke-linejoin:bevel"
     points="11166,13783 11147,13777 11132,13774 11121,13772 11112,13771 11103,13771 11092,13771 11079,13771 11060,13771 11038,13771 11015,13774 11004,13776 10994,13779 10985,13781 10978,13784 10972,13786 10966,13787 10961,13788 10958,13790 10954,13790 10951,13790 10949,13790 10946,13790 10944,13790 10942,13790 10940,13791 10938,13793 10937,13795 10936,13799 10935,13803 10935,13811 10936,13818 10937,13828 10940,13840 10944,13854 10954,13876 10965,13898 10978,13919 10988,13938 10999,13953 11007,13968 11016,13981 11023,13992 11032,14005 11041,14017 11051,14030 11064,14045 11080,14061 11099,14079 11120,14096 11143,14112 11165,14123 11186,14131 11203,14134 11215,14135 11226,14134 11233,14132 11239,14129 11245,14124 11249,14120 11254,14115 11260,14110 11269,14104 11278,14098 11290,14091 11302,14082 11315,14073 11327,14060 11335,14049 11340,14039 11343,14032 11345,14027 11345,14023 11345,14019 11344,14015 11344,14011 11342,14005 11341,13995 11338,13983 11335,13967 11329,13948 11319,13926 11310,13907 11302,13892 11297,13882 11293,13875 11291,13869 11287,13863 11281,13857 11273,13847 11259,13835 11240,13821 11216,13805 11216,13805 11190,13793 " />
  <polygon
     id="polygon138"
     style="fill:#ffbfbf;stroke:#ff0000;stroke-width:32;stroke-linecap:butt;stroke-linejoin:bevel"
     points="11039,12570 11046,12582 11051,12591 11055,12595 11057,12598 11058,12599 11059,12600 11062,12602 11066,12605 11075,12611 11087,12618 11105,12627 11126,12638 11146,12646 11166,12654 11185,12660 11201,12665 11214,12670 11227,12676 11237,12681 11247,12685 11256,12688 11267,12691 11277,12695 11289,12696 11301,12695 11315,12690 11328,12684 11338,12672 11345,12655 11349,12636 11349,12618 11346,12601 11343,12587 11340,12575 11335,12563 11331,12552 11324,12538 11318,12522 11309,12502 11298,12479 11285,12453 11268,12425 11250,12398 11232,12376 11217,12360 11206,12348 11196,12340 11189,12334 11182,12330 11175,12327 11168,12323 11159,12318 11146,12310 11129,12302 11110,12291 11090,12283 11077,12279 11064,12276 11054,12274 11045,12272 11038,12271 11033,12271 11028,12271 11024,12271 11022,12271 11020,12271 11018,12271 11016,12272 11013,12275 11011,12277 11006,12280 11002,12284 10998,12290 10993,12298 10988,12307 10984,12319 10980,12338 10979,12356 10979,12373 10979,12388 10980,12400 10982,12410 10984,12418 10986,12428 10988,12438 10992,12451 10996,12467 11002,12486 11009,12508 11019,12531 11019,12531 11029,12552 " />
  <polygon
     id="polygon140"
     style="fill:#ffbfbf;stroke:#ff0000;stroke-width:32;stroke-linecap:butt;stroke-linejoin:bevel"
     points="11673,12570 11666,12582 11660,12591 11657,12595 11655,12598 11654,12599 11653,12600 11650,12602 11646,12605 11637,12611 11625,12618 11607,12627 11586,12638 11566,12646 11546,12654 11527,12660 11511,12665 11498,12670 11485,12676 11475,12681 11465,12685 11456,12688 11445,12691 11435,12695 11423,12696 11411,12695 11397,12690 11384,12684 11374,12672 11366,12655 11363,12636 11363,12618 11365,12601 11369,12587 11372,12575 11377,12563 11381,12552 11387,12538 11394,12522 11403,12502 11414,12479 11427,12453 11444,12425 11462,12398 11480,12376 11495,12360 11506,12348 11516,12340 11523,12334 11530,12330 11537,12327 11544,12323 11553,12318 11566,12310 11583,12302 11602,12291 11622,12283 11635,12279 11648,12276 11658,12274 11667,12272 11674,12271 11679,12271 11683,12271 11688,12271 11690,12271 11692,12271 11694,12271 11696,12272 11699,12275 11701,12277 11706,12280 11710,12284 11714,12290 11719,12298 11723,12307 11728,12319 11732,12338 11733,12356 11733,12373 11733,12388 11732,12400 11730,12410 11728,12418 11725,12428 11723,12438 11720,12451 11716,12467 11710,12486 11702,12508 11693,12531 11693,12531 11682,12552 " />
  <polygon
     id="polygon142"
     style="fill:#ffbfbf;stroke:#ff0000;stroke-width:32;stroke-linecap:butt;stroke-linejoin:bevel"
     points="11259,13637 11245,13635 11235,13633 11229,13633 11226,13632 11224,13632 11223,13632 11219,13633 11213,13635 11204,13638 11190,13643 11172,13650 11150,13659 11131,13670 11112,13680 11097,13690 11082,13698 11069,13706 11058,13712 11047,13717 11038,13722 11029,13727 11020,13733 11012,13739 11004,13748 10997,13758 10992,13771 10988,13784 10991,13800 10999,13817 11013,13832 11026,13843 11040,13853 11054,13859 11065,13864 11077,13868 11089,13871 11103,13876 11120,13881 11141,13886 11165,13893 11194,13900 11227,13905 11258,13908 11287,13908 11309,13908 11325,13906 11338,13904 11346,13902 11354,13900 11361,13897 11369,13893 11379,13890 11393,13885 11409,13878 11428,13869 11448,13860 11461,13853 11470,13845 11479,13838 11485,13832 11490,13827 11495,13823 11498,13820 11500,13817 11501,13815 11502,13814 11503,13812 11504,13809 11504,13806 11504,13802 11504,13798 11503,13792 11502,13784 11499,13776 11495,13766 11488,13756 11476,13741 11462,13728 11449,13717 11438,13708 11428,13701 11419,13696 11412,13692 11403,13688 11394,13682 11381,13677 11366,13671 11349,13662 11327,13654 11302,13647 11302,13647 11279,13641 " />
  <polygon
     id="polygon144"
     style="fill:#ffbfbf;stroke:#ff0000;stroke-width:32;stroke-linecap:butt;stroke-linejoin:bevel"
     points="10853,14123 10848,14110 10845,14100 10844,14094 10843,14091 10841,14090 10841,14088 10843,14085 10843,14079 10845,14069 10847,14054 10850,14035 10856,14012 10862,13991 10870,13971 10877,13953 10883,13938 10888,13923 10892,13911 10895,13900 10898,13889 10901,13880 10906,13869 10911,13860 10918,13850 10927,13841 10938,13834 10952,13828 10967,13827 10985,13833 11002,13843 11017,13855 11028,13866 11037,13878 11044,13888 11050,13899 11057,13910 11063,13923 11070,13939 11080,13958 11090,13981 11103,14009 11113,14039 11122,14070 11127,14097 11130,14120 11131,14137 11131,14150 11131,14158 11130,14166 11128,14174 11126,14182 11124,14193 11121,14207 11118,14225 11112,14246 11106,14267 11101,14281 11096,14292 11089,14302 11085,14309 11081,14316 11078,14320 11076,14323 11074,14326 11071,14328 11070,14329 11068,14330 11066,14331 11064,14332 11060,14333 11056,14333 11049,14334 11042,14333 11034,14332 11023,14330 11012,14326 10995,14317 10979,14306 10965,14296 10955,14285 10946,14277 10940,14269 10934,14262 10929,14255 10921,14246 10914,14236 10904,14222 10894,14205 10881,14185 10870,14163 10870,14163 10860,14141 " />
  <polygon
     id="polygon146"
     style="fill:#ffbfbf;stroke:#ff0000;stroke-width:32;stroke-linecap:butt;stroke-linejoin:bevel"
     points="10900,12566 10908,12576 10912,12579 10915,12580 10916,12578 10918,12577 10921,12576 10929,12577 10941,12582 10960,12591 10984,12602 11007,12613 11030,12621 11050,12629 11069,12637 11084,12644 11099,12649 11111,12655 11124,12660 11137,12665 11149,12669 11163,12674 11176,12676 11188,12676 11196,12672 11197,12664 11192,12655 11184,12644 11173,12636 11162,12628 11149,12622 11137,12615 11123,12606 11107,12594 11090,12578 11072,12556 11055,12531 11039,12504 11026,12481 11020,12465 11018,12451 11018,12441 11020,12434 11021,12426 11021,12417 11019,12406 11013,12391 11000,12373 10984,12354 10971,12342 10957,12332 10945,12325 10935,12319 10925,12313 10918,12310 10911,12307 10904,12304 10898,12302 10892,12301 10885,12300 10877,12300 10869,12301 10859,12304 10850,12309 10843,12319 10836,12333 10833,12349 10833,12366 10833,12380 10835,12393 10836,12405 10839,12416 10841,12427 10846,12439 10849,12453 10854,12470 10860,12489 10868,12510 10877,12531 10877,12531 10890,12552 " />
  <polygon
     id="polygon148"
     style="fill:#ffbfbf;stroke:#ff0000;stroke-width:32;stroke-linecap:butt;stroke-linejoin:bevel"
     points="11779,12577 11772,12586 11767,12590 11765,12591 11764,12588 11762,12587 11759,12586 11752,12587 11739,12593 11720,12601 11696,12613 11673,12623 11650,12632 11629,12640 11611,12647 11595,12655 11582,12660 11569,12665 11556,12670 11544,12676 11530,12680 11517,12684 11503,12686 11491,12686 11483,12683 11482,12675 11486,12665 11496,12655 11506,12646 11518,12639 11530,12633 11543,12625 11556,12617 11572,12604 11588,12588 11607,12566 11625,12541 11640,12515 11653,12492 11659,12474 11662,12461 11662,12451 11660,12444 11658,12436 11658,12427 11661,12415 11668,12401 11680,12383 11696,12364 11712,12350 11727,12340 11740,12331 11751,12325 11760,12321 11769,12317 11776,12314 11783,12311 11791,12310 11799,12309 11808,12310 11819,12312 11828,12319 11838,12329 11844,12344 11846,12360 11847,12376 11847,12391 11845,12404 11843,12415 11841,12427 11838,12437 11835,12450 11830,12464 11825,12480 11819,12499 11812,12520 11802,12541 11802,12541 11790,12562 " />
  <polygon
     id="polygon150"
     style="fill:#ffbfbf;stroke:#ff0000;stroke-width:32;stroke-linecap:butt;stroke-linejoin:bevel"
     points="11353,13531 11341,13531 11335,13532 11334,13534 11334,13537 11334,13540 11332,13543 11325,13547 11314,13554 11295,13563 11271,13574 11248,13586 11227,13596 11207,13607 11190,13616 11175,13624 11162,13630 11149,13636 11138,13641 11126,13648 11114,13655 11103,13662 11092,13672 11085,13680 11082,13689 11087,13695 11099,13698 11112,13697 11125,13695 11139,13691 11151,13686 11165,13681 11181,13676 11200,13673 11224,13671 11251,13672 11282,13674 11313,13678 11338,13685 11356,13691 11367,13697 11374,13703 11379,13710 11383,13715 11390,13721 11400,13727 11416,13731 11437,13733 11462,13733 11482,13730 11501,13725 11516,13720 11527,13716 11537,13712 11545,13708 11552,13704 11559,13700 11565,13696 11571,13690 11576,13682 11582,13673 11584,13661 11582,13648 11574,13634 11564,13620 11552,13610 11541,13601 11529,13593 11520,13587 11509,13582 11499,13576 11487,13571 11474,13565 11458,13559 11439,13550 11418,13543 11396,13537 11396,13537 11372,13532 " />
  <polygon
     id="polygon152"
     style="fill:#ffbfbf;stroke:#ff0000;stroke-width:32;stroke-linecap:butt;stroke-linejoin:bevel"
     points="10779,14198 10777,14186 10777,14181 10779,14179 10781,14180 10783,14180 10786,14178 10789,14172 10793,14159 10798,14139 10806,14113 10813,14089 10820,14065 10827,14044 10833,14025 10838,14009 10843,13994 10847,13981 10850,13968 10854,13954 10859,13942 10866,13929 10872,13917 10880,13907 10888,13903 10895,13907 10899,13918 10901,13930 10901,13944 10899,13958 10896,13972 10894,13986 10892,14003 10892,14022 10894,14046 10898,14073 10907,14103 10916,14133 10927,14156 10936,14173 10944,14183 10952,14190 10959,14193 10965,14197 10973,14202 10979,14212 10986,14226 10993,14247 10997,14271 10998,14292 10996,14310 10994,14326 10992,14339 10990,14349 10987,14359 10984,14366 10982,14373 10979,14381 10974,14387 10967,14394 10959,14401 10948,14405 10934,14405 10919,14400 10904,14391 10892,14382 10880,14372 10872,14362 10864,14352 10856,14344 10850,14333 10843,14323 10834,14311 10825,14297 10814,14279 10803,14260 10792,14239 10792,14239 10784,14216 " />
</svg>
