<?xml version="1.0" encoding="UTF-8" standalone="no"?>
<!-- Creator: fig2dev Version 3.2 Patchlevel 5e -->

<!-- CreationDate: Thu Oct 22 10:39:09 2015 -->

<!-- Magnification: 1.050 -->

<svg
   xmlns:dc="http://purl.org/dc/elements/1.1/"
   xmlns:cc="http://creativecommons.org/ns#"
   xmlns:rdf="http://www.w3.org/1999/02/22-rdf-syntax-ns#"
   xmlns:svg="http://www.w3.org/2000/svg"
   xmlns="http://www.w3.org/2000/svg"
   xmlns:sodipodi="http://sodipodi.sourceforge.net/DTD/sodipodi-0.dtd"
   xmlns:inkscape="http://www.inkscape.org/namespaces/inkscape"
   width="12.7in"
   height="4.5in"
   viewBox="-2086 3546 15191 5459"
   id="svg2"
   version="1.1"
   inkscape:version="0.91 r13725"
   sodipodi:docname="fig_farbeModellSamplingProblem.svg">
  <metadata
     id="metadata46">
    <rdf:RDF>
      <cc:Work
         rdf:about="">
        <dc:format>image/svg+xml</dc:format>
        <dc:type
           rdf:resource="http://purl.org/dc/dcmitype/StillImage" />
      </cc:Work>
    </rdf:RDF>
  </metadata>
  <defs
     id="defs44" />
  <sodipodi:namedview
     pagecolor="#ffffff"
     bordercolor="#666666"
     borderopacity="1"
     objecttolerance="10"
     gridtolerance="10"
     guidetolerance="10"
     inkscape:pageopacity="0"
     inkscape:pageshadow="2"
     inkscape:window-width="2418"
     inkscape:window-height="1261"
     id="namedview42"
     showgrid="false"
     inkscape:zoom="1.1259268"
     inkscape:cx="690.13318"
     inkscape:cy="220.95658"
     inkscape:window-x="142"
     inkscape:window-y="60"
     inkscape:window-maximized="1"
     inkscape:current-layer="svg2" />
  <polyline
     id="polyline6"
     style="fill:none;stroke:#000000;stroke-width:16;stroke-linecap:butt;stroke-linejoin:miter"
     points="4015,7795 4015,8267 " />
  <polyline
     id="polyline8"
     style="fill:none;stroke:#000000;stroke-width:16;stroke-linecap:butt;stroke-linejoin:miter"
     points="8503,7795 8503,8267 " />
  <polyline
     id="polyline10"
     style="fill:none;stroke:#000000;stroke-width:16;stroke-linecap:butt;stroke-linejoin:miter"
     points="9448,7795 9448,8267 " />
  <polyline
     id="polyline12"
     style="fill:none;stroke:#000000;stroke-width:16;stroke-linecap:butt;stroke-linejoin:miter"
     points="10393,7795 10393,8267 " />
  <polyline
     id="polyline14"
     style="fill:none;stroke:#000000;stroke-width:16;stroke-linecap:butt;stroke-linejoin:miter"
     points="11338,7795 11338,8267 " />
  <polyline
     id="polyline16"
     style="fill:none;stroke:#000000;stroke-width:16;stroke-linecap:butt;stroke-linejoin:miter"
     points="6377,7795 6377,8267 " />
  <polyline
     id="polyline18"
     style="fill:none;stroke:#000000;stroke-width:16;stroke-linecap:butt;stroke-linejoin:miter"
     points="5669,7795 5669,8267 " />
  <polyline
     id="polyline20"
     style="fill:none;stroke:#000000;stroke-width:16;stroke-linecap:butt;stroke-linejoin:miter"
     points="4960,7795 4960,8267 " />
  <polyline
     id="polyline22"
     style="fill:none;stroke:#000000;stroke-width:16;stroke-linecap:butt;stroke-linejoin:miter"
     points="7086,7795 7086,8267 " />
  <polyline
     id="polyline24"
     style="fill:none;stroke:#000000;stroke-width:16;stroke-linecap:butt;stroke-linejoin:miter"
     points="7795,7795 7795,8267 " />
  <polyline
     id="polyline26"
     style="fill:none;stroke:#000000;stroke-width:32;stroke-linecap:butt;stroke-linejoin:miter"
     points="3543,8031 12094,8031 " />
  <polygon
     id="polygon28"
     style="fill:#000000;stroke:#000000;stroke-width:32;stroke-miterlimit:8"
     points="12139,7984 12092,8031 12139,8078 12139,8078 12281,8031 " />
  <polyline
     id="polyline30"
     style="fill:none;stroke:#000000;stroke-width:32;stroke-linecap:butt;stroke-linejoin:miter"
     points="3543,8031 3543,3967 " />
  <polygon
     id="polygon32"
     style="fill:#000000;stroke:#000000;stroke-width:32;stroke-miterlimit:8"
     points="3496,3923 3543,3970 3590,3923 3590,3923 3543,3781 " />
  <text
     style="font-style:normal;font-weight:normal;font-size:429px;font-family:Times;text-anchor:middle;fill:#000000;stroke-width:0.025in"
     id="text34"
     font-size="429"
     font-weight="normal"
     font-style="normal"
     y="8834"
     x="11385"
     xml:space="preserve">$λₘ$</text>
  <text
     style="font-style:normal;font-weight:normal;font-size:429px;font-family:Times;text-anchor:middle;fill:#000000;stroke-width:0.025in"
     id="text36"
     font-size="429"
     font-weight="normal"
     font-style="normal"
     y="8834"
     x="4062"
     xml:space="preserve">$λ₁$</text>
  <text
     style="font-style:normal;font-weight:normal;font-size:429px;font-family:Times;text-anchor:end;fill:#b000b0;stroke-width:0.025in"
     id="text38"
     font-size="429"
     font-weight="normal"
     font-style="normal"
     y="4015"
     x="3307"
     xml:space="preserve">$I$</text>
  <polyline
     id="polyline40"
     style="fill:none;stroke:#b000b0;stroke-width:63;stroke-linecap:butt;stroke-linejoin:bevel"
     points="3543,8031 3544,8031 3548,8031 3558,8031 3574,8031 3596,8031 3620,8031 3646,8031 3670,8031 3692,8031 3713,8031 3731,8031 3748,8031 3763,8031 3779,8031 3795,8031 3811,8031 3826,8031 3844,8031 3861,8031 3879,8031 3898,8031 3916,8031 3933,8031 3950,8031 3968,8031 3984,8031 4000,8031 4015,8031 4031,8031 4047,8031 4062,8031 4080,8031 4097,8031 4115,8031 4134,8031 4152,8031 4170,8031 4186,8031 4204,8031 4220,8031 4236,8031 4251,8031 4267,8031 4283,8031 4299,8031 4317,8031 4333,8031 4351,8031 4370,8031 4388,8031 4406,8031 4423,8031 4440,8031 4456,8031 4472,8031 4488,8031 4503,8031 4519,8031 4535,8031 4553,8031 4570,8031 4587,8031 4606,8031 4624,8031 4642,8031 4659,8031 4677,8031 4692,8031 4708,8031 4724,8031 4740,8031 4755,8031 4771,8031 4789,8031 4806,8031 4824,8031 4843,8031 4860,8031 4878,8031 4895,8031 4913,8031 4929,8031 4944,8031 4960,8031 4976,8031 4992,8031 5007,8031 5025,8031 5042,8031 5060,8031 5079,8031 5097,8031 5114,8031 5131,8031 5149,8031 5165,8031 5181,8031 5196,8031 5212,8031 5228,8031 5244,8031 5261,8031 5278,8031 5296,8031 5315,8031 5333,8031 5351,8031 5367,8031 5385,8031 5401,8031 5417,8031 5433,8031 5450,8031 5469,8031 5488,8031 5507,8031 5526,8031 5545,8031 5563,8031 5580,8031 5595,8031 5608,8031 5619,8031 5630,8031 5638,8031 5646,8031 5653,8031 5660,8031 5670,8031 5679,8031 5692,8031 5706,8031 5721,8031 5740,8031 5762,8031 5787,8031 5802,8031 5819,8031 5838,8031 5857,8031 5879,8031 5901,8031 5925,8031 5950,8031 5976,8031 6003,8031 6031,8031 6058,8031 6087,8031 6115,8031 6142,8031 6170,8031 6196,8031 6221,8031 6246,8031 6269,8031 6292,8031 6314,8031 6328,8031 6342,8031 6355,8031 6369,8030 6382,8029 6394,8027 6408,8025 6420,8022 6433,8017 6445,8011 6457,8005 6469,7996 6481,7987 6493,7976 6503,7964 6515,7949 6525,7932 6536,7914 6545,7895 6555,7871 6564,7847 6573,7821 6581,7792 6590,7761 6597,7728 6603,7693 6611,7655 6616,7615 6622,7572 6627,7528 6633,7481 6637,7430 6641,7378 6645,7322 6647,7282 6650,7241 6653,7198 6655,7154 6657,7108 6659,7060 6661,7012 6662,6960 6664,6908 6665,6854 6667,6798 6668,6742 6669,6683 6670,6623 6672,6562 6674,6500 6675,6437 6676,6373 6676,6308 6677,6242 6678,6175 6679,6109 6679,6040 6680,5973 6680,5905 6681,5837 6681,5770 6682,5701 6682,5635 6683,5568 6683,5502 6683,5437 6684,5373 6684,5310 6684,5248 6685,5187 6685,5127 6685,5068 6686,5012 6686,4956 6687,4902 6687,4850 6688,4798 6688,4750 6689,4702 6689,4656 6690,4612 6690,4569 6691,4528 6692,4488 6693,4446 6695,4407 6696,4368 6697,4332 6698,4298 6700,4264 6701,4233 6703,4202 6704,4175 6706,4148 6707,4123 6709,4100 6711,4079 6713,4059 6714,4043 6717,4027 6719,4013 6721,4002 6723,3992 6725,3985 6727,3980 6729,3976 6732,3975 6734,3976 6737,3980 6739,3985 6741,3992 6743,4002 6745,4013 6747,4027 6749,4043 6750,4059 6752,4079 6754,4100 6756,4123 6758,4148 6760,4175 6761,4202 6763,4233 6764,4264 6766,4298 6767,4332 6768,4368 6769,4407 6770,4446 6771,4488 6772,4528 6773,4569 6773,4612 6774,4656 6774,4702 6775,4750 6775,4798 6776,4850 6776,4902 6777,4956 6777,5012 6779,5068 6779,5127 6779,5187 6780,5248 6780,5310 6780,5373 6781,5437 6781,5502 6781,5568 6782,5635 6782,5701 6783,5770 6783,5837 6784,5905 6784,5973 6785,6040 6785,6109 6786,6175 6787,6242 6788,6308 6788,6373 6789,6437 6790,6500 6791,6562 6793,6623 6794,6683 6795,6742 6796,6798 6798,6854 6800,6908 6802,6960 6803,7012 6805,7060 6807,7108 6809,7154 6811,7198 6813,7241 6816,7282 6818,7322 6823,7381 6827,7437 6832,7489 6837,7540 6844,7586 6849,7630 6856,7672 6862,7711 6870,7746 6878,7781 6887,7812 6895,7841 6903,7867 6913,7891 6922,7913 6933,7932 6943,7950 6954,7965 6964,7979 6975,7990 6986,8000 6997,8008 7008,8014 7019,8019 7030,8023 7042,8026 7054,8028 7064,8030 7076,8030 7087,8031 7099,8031 7110,8031 7130,8031 7151,8031 7173,8031 7196,8031 7220,8031 7245,8031 7270,8031 7295,8031 7320,8031 7345,8031 7371,8031 7395,8031 7418,8031 7440,8031 7461,8031 7482,8031 7501,8031 7520,8031 7540,8031 7559,8031 7577,8031 7596,8031 7616,8031 7634,8031 7653,8031 7671,8031 7689,8031 7706,8031 7722,8031 7738,8031 7753,8031 7767,8031 7781,8031 7795,8031 7811,8031 7826,8031 7842,8031 7860,8031 7877,8031 7895,8031 7913,8031 7931,8031 7949,8031 7966,8031 7984,8031 8000,8031 8015,8031 8031,8031 8047,8031 8062,8031 8078,8031 8096,8031 8113,8031 8131,8031 8150,8031 8167,8031 8185,8031 8202,8031 8220,8031 8236,8031 8251,8031 8267,8031 8283,8031 8299,8031 8314,8031 8332,8031 8349,8031 8367,8031 8386,8031 8404,8031 8422,8031 8438,8031 8456,8031 8472,8031 8488,8031 8503,8031 8519,8031 8535,8031 8551,8031 8569,8031 8585,8031 8603,8031 8622,8031 8640,8031 8658,8031 8675,8031 8692,8031 8708,8031 8724,8031 8740,8031 8755,8031 8771,8031 8787,8031 8805,8031 8822,8031 8839,8031 8858,8031 8876,8031 8894,8031 8911,8031 8929,8031 8944,8031 8960,8031 8976,8031 8992,8031 9007,8031 9023,8031 9041,8031 9058,8031 9076,8031 9095,8031 9112,8031 9130,8031 9147,8031 9165,8031 9181,8031 9196,8031 9212,8031 9228,8031 9244,8031 9259,8031 9277,8031 9294,8031 9312,8031 9331,8031 9349,8031 9366,8031 9383,8031 9401,8031 9417,8031 9433,8031 9448,8031 9464,8031 9480,8031 9496,8031 9513,8031 9530,8031 9548,8031 9567,8031 9585,8031 9603,8031 9619,8031 9637,8031 9653,8031 9669,8031 9685,8031 9700,8031 9716,8031 9732,8031 9750,8031 9766,8031 9784,8031 9803,8031 9821,8031 9839,8031 9856,8031 9874,8031 9889,8031 9905,8031 9921,8031 9937,8031 9952,8031 9968,8031 9986,8031 10003,8031 10020,8031 10039,8031 10057,8031 10075,8031 10092,8031 10110,8031 10125,8031 10141,8031 10157,8031 10173,8031 10188,8031 10204,8031 10222,8031 10239,8031 10257,8031 10276,8031 10293,8031 10311,8031 10328,8031 10346,8031 10362,8031 10377,8031 10393,8031 10409,8031 10425,8031 10440,8031 10458,8031 10475,8031 10493,8031 10512,8031 10530,8031 10548,8031 10564,8031 10582,8031 10598,8031 10614,8031 10629,8031 10645,8031 10661,8031 10677,8031 10695,8031 10711,8031 10729,8031 10748,8031 10766,8031 10784,8031 10801,8031 10818,8031 10834,8031 10850,8031 10866,8031 10881,8031 10897,8031 10913,8031 10931,8031 10948,8031 10965,8031 10984,8031 11002,8031 11020,8031 11037,8031 11055,8031 11070,8031 11086,8031 11102,8031 11118,8031 11133,8031 11149,8031 11167,8031 11184,8031 11202,8031 11220,8031 11238,8031 11256,8031 11273,8031 11291,8031 11307,8031 11322,8031 11338,8031 11354,8031 11370,8031 11385,8031 11403,8031 11420,8031 11438,8031 11457,8031 11475,8031 11492,8031 11509,8031 11527,8031 11543,8031 11559,8031 11574,8031 11590,8031 11606,8031 11622,8031 11639,8031 11656,8031 11674,8031 11693,8031 11711,8031 11729,8031 11745,8031 11763,8031 11779,8031 11795,8031 11811,8031 11826,8031 11842,8031 11859,8031 11877,8031 11898,8031 11920,8031 11944,8031 11969,8031 11993,8031 12015,8031 12032,8031 12041,8031 12046,8031 12047,8031 " />
</svg>
