<?xml version="1.0" encoding="UTF-8" standalone="no"?>
<!-- Creator: fig2dev Version 3.2 Patchlevel 5e -->

<!-- CreationDate: Wed Oct 28 11:00:47 2015 -->

<!-- Magnification: 1.050 -->

<svg
   xmlns:dc="http://purl.org/dc/elements/1.1/"
   xmlns:cc="http://creativecommons.org/ns#"
   xmlns:rdf="http://www.w3.org/1999/02/22-rdf-syntax-ns#"
   xmlns:svg="http://www.w3.org/2000/svg"
   xmlns="http://www.w3.org/2000/svg"
   xmlns:sodipodi="http://sodipodi.sourceforge.net/DTD/sodipodi-0.dtd"
   xmlns:inkscape="http://www.inkscape.org/namespaces/inkscape"
   width="7.1in"
   height="3.5in"
   viewBox="2788 4074 8511 4165"
   id="svg2"
   version="1.1"
   inkscape:version="0.91 r13725"
   sodipodi:docname="fig_farbeTexturVolume.svg">
  <metadata
     id="metadata82">
    <rdf:RDF>
      <cc:Work
         rdf:about="">
        <dc:format>image/svg+xml</dc:format>
        <dc:type
           rdf:resource="http://purl.org/dc/dcmitype/StillImage" />
      </cc:Work>
    </rdf:RDF>
  </metadata>
  <defs
     id="defs80" />
  <sodipodi:namedview
     pagecolor="#ffffff"
     bordercolor="#666666"
     borderopacity="1"
     objecttolerance="10"
     gridtolerance="10"
     guidetolerance="10"
     inkscape:pageopacity="0"
     inkscape:pageshadow="2"
     inkscape:window-width="640"
     inkscape:window-height="480"
     id="namedview78"
     showgrid="false"
     inkscape:zoom="0.71205009"
     inkscape:cx="319.5"
     inkscape:cy="157.5"
     inkscape:window-x="142"
     inkscape:window-y="60"
     inkscape:window-maximized="0"
     inkscape:current-layer="svg2" />
  <ellipse
     cy="5316"
     cx="4018"
     id="ellipse6"
     style="fill:none;stroke:#000000;stroke-width:32"
     ry="688"
     rx="1181" />
  <ellipse
     cy="5316"
     cx="8743"
     id="ellipse8"
     style="fill:none;stroke:#000000;stroke-width:32"
     ry="688"
     rx="1181" />
  <rect
     id="rect10"
     style="fill:#ffffff;stroke:#a14000;stroke-width:0;stroke-linecap:butt;stroke-linejoin:miter"
     rx="0"
     height="702"
     width="2355"
     y="4613"
     x="2834" />
  <rect
     id="rect12"
     style="fill:#ffffff;stroke:#a14000;stroke-width:0;stroke-linecap:butt;stroke-linejoin:miter"
     rx="0"
     height="702"
     width="2355"
     y="4613"
     x="7559" />
  <polyline
     id="polyline14"
     style="fill:none;stroke:#a14000;stroke-width:48;stroke-linecap:butt;stroke-linejoin:bevel"
     points="3070,5244 3070,5245 3070,5250 3070,5261 3071,5280 3071,5306 3072,5335 3072,5364 3074,5392 3074,5418 3074,5440 3075,5460 3075,5479 3075,5495 3075,5510 3075,5526 3075,5541 3075,5556 3074,5573 3074,5591 3074,5610 3072,5631 3072,5652 3071,5672 3071,5690 3070,5703 3070,5712 3070,5715 3070,5716 " />
  <polyline
     id="polyline16"
     style="fill:none;stroke:#a14000;stroke-width:63;stroke-linecap:butt;stroke-linejoin:bevel"
     points="3307,5385 3307,5386 3308,5390 3309,5399 3311,5416 3313,5437 3316,5464 3319,5492 3323,5521 3325,5548 3329,5573 3331,5596 3333,5616 3334,5634 3335,5650 3335,5665 3335,5679 3335,5696 3334,5714 3333,5731 3330,5749 3327,5767 3323,5787 3318,5808 3314,5827 3311,5843 3308,5853 3307,5857 3307,5858 " />
  <polyline
     id="polyline18"
     style="fill:none;stroke:#a14000;stroke-width:79;stroke-linecap:butt;stroke-linejoin:bevel"
     points="3685,5480 3685,5481 3685,5484 3686,5495 3687,5510 3689,5532 3691,5560 3694,5589 3696,5618 3698,5647 3700,5673 3701,5696 3702,5717 3703,5737 3704,5754 3706,5771 3706,5785 3706,5803 3706,5820 3706,5837 3704,5855 3703,5874 3702,5895 3700,5918 3699,5940 3697,5962 3695,5982 3694,5995 3693,6005 3693,6008 3693,6009 " />
  <polyline
     id="polyline20"
     style="fill:none;stroke:#a14000;stroke-width:79;stroke-linecap:butt;stroke-linejoin:bevel"
     points="4251,5527 4251,5528 4253,5532 4254,5545 4255,5564 4258,5589 4260,5617 4263,5647 4265,5674 4267,5699 4268,5721 4269,5741 4270,5760 4271,5776 4271,5792 4271,5807 4270,5822 4269,5838 4268,5855 4267,5872 4265,5892 4263,5912 4260,5934 4258,5955 4255,5973 4254,5987 4253,5995 4251,5998 4251,6000 " />
  <polyline
     id="polyline22"
     style="fill:none;stroke:#a14000;stroke-width:79;stroke-linecap:butt;stroke-linejoin:bevel"
     points="4629,5433 4629,5434 4630,5438 4633,5448 4637,5464 4641,5486 4647,5511 4653,5538 4658,5562 4662,5585 4665,5605 4668,5624 4671,5640 4674,5656 4676,5672 4677,5687 4678,5703 4679,5719 4679,5738 4679,5758 4679,5780 4679,5803 4679,5828 4678,5853 4678,5875 4677,5890 4677,5900 4677,5904 4677,5905 " />
  <polyline
     id="polyline24"
     style="fill:none;stroke:#a14000;stroke-width:63;stroke-linecap:butt;stroke-linejoin:bevel"
     points="4913,5291 4913,5292 4914,5296 4916,5306 4919,5322 4924,5343 4930,5367 4935,5392 4939,5416 4943,5437 4948,5457 4951,5474 4953,5489 4955,5504 4957,5519 4958,5534 4959,5551 4960,5568 4961,5588 4961,5609 4961,5632 4961,5656 4961,5679 4960,5698 4960,5710 4960,5715 4960,5716 " />
  <polyline
     id="polyline26"
     style="fill:none;stroke:#a14000;stroke-width:79;stroke-linecap:butt;stroke-linejoin:bevel"
     points="7563,5197 7566,5201 7573,5207 7585,5217 7601,5232 7620,5250 7641,5269 7664,5289 7686,5308 7707,5325 7727,5341 7745,5356 7763,5370 7781,5382 7799,5395 7818,5406 7833,5416 7848,5425 7865,5435 7883,5444 7902,5455 7921,5465 7941,5475 7962,5485 7984,5496 8006,5505 8028,5516 8050,5525 8072,5534 8095,5543 8116,5551 8138,5560 8159,5567 8179,5574 8200,5581 8220,5587 8240,5592 8260,5598 8281,5604 8302,5609 8324,5614 8346,5619 8368,5624 8391,5628 8414,5632 8438,5636 8461,5640 8485,5644 8508,5647 8531,5650 8553,5652 8575,5654 8596,5656 8617,5657 8637,5659 8657,5660 8678,5661 8698,5662 8719,5662 8740,5664 8762,5664 8785,5664 8807,5664 8831,5664 8854,5664 8877,5662 8901,5661 8924,5660 8948,5659 8970,5657 8992,5656 9013,5654 9034,5652 9054,5650 9074,5648 9092,5646 9113,5643 9134,5639 9156,5635 9179,5631 9201,5627 9223,5623 9246,5617 9269,5612 9291,5607 9314,5602 9335,5595 9357,5589 9377,5584 9397,5577 9416,5571 9434,5565 9450,5559 9467,5552 9485,5546 9503,5538 9522,5530 9540,5522 9558,5513 9576,5504 9594,5495 9612,5484 9629,5474 9646,5464 9661,5454 9677,5443 9691,5433 9704,5422 9717,5412 9730,5401 9741,5391 9753,5379 9763,5366 9776,5354 9788,5339 9801,5322 9816,5304 9830,5286 9846,5265 9861,5245 9875,5227 9886,5211 9893,5200 9899,5193 9901,5190 " />
  <polyline
     id="polyline28"
     style="fill:none;stroke:#a14000;stroke-width:48;stroke-linecap:butt;stroke-linejoin:bevel"
     points="7563,5400 7566,5402 7572,5407 7585,5416 7602,5428 7623,5444 7647,5462 7673,5481 7699,5500 7724,5518 7750,5535 7773,5551 7794,5566 7815,5579 7835,5591 7854,5603 7872,5614 7892,5626 7910,5635 7928,5645 7947,5655 7967,5665 7988,5675 8009,5685 8031,5695 8054,5706 8076,5715 8100,5725 8123,5735 8146,5744 8170,5753 8192,5762 8214,5770 8235,5778 8256,5785 8276,5792 8295,5798 8313,5804 8334,5811 8354,5816 8375,5822 8397,5827 8418,5833 8440,5837 8462,5842 8485,5846 8508,5849 8530,5854 8552,5857 8574,5859 8596,5862 8617,5863 8637,5865 8657,5866 8677,5867 8697,5868 8716,5868 8733,5868 8752,5868 8772,5868 8792,5867 8813,5867 8834,5866 8856,5864 8879,5863 8901,5861 8924,5859 8948,5857 8970,5854 8992,5851 9014,5848 9036,5845 9056,5842 9077,5838 9097,5835 9117,5830 9137,5826 9156,5822 9177,5817 9198,5813 9219,5806 9241,5801 9262,5795 9286,5788 9308,5782 9330,5775 9352,5767 9373,5760 9394,5753 9414,5745 9434,5738 9453,5731 9470,5723 9487,5716 9504,5710 9520,5702 9539,5693 9558,5683 9576,5674 9594,5664 9613,5653 9631,5643 9649,5631 9667,5619 9682,5608 9699,5596 9714,5585 9728,5574 9741,5563 9753,5552 9764,5542 9775,5532 9786,5520 9798,5508 9808,5496 9820,5481 9833,5466 9845,5448 9859,5430 9874,5411 9886,5392 9898,5375 9907,5362 9912,5355 9914,5351 " />
  <text
     style="font-style:normal;font-weight:normal;font-size:378px;font-family:Helvetica;text-anchor:middle;fill:#000000;stroke-width:0.025in"
     id="text30"
     font-size="378"
     font-weight="normal"
     font-style="normal"
     y="6850"
     x="4015"
     xml:space="preserve">real</text>
  <text
     style="font-style:normal;font-weight:normal;font-size:378px;font-family:Helvetica;text-anchor:middle;fill:#000000;stroke-width:0.025in"
     id="text32"
     font-size="378"
     font-weight="normal"
     font-style="normal"
     y="6850"
     x="8740"
     xml:space="preserve">typisches Aussehen</text>
  <text
     style="font-style:normal;font-weight:normal;font-size:378px;font-family:Helvetica;text-anchor:middle;fill:#000000;stroke-width:0.025in"
     id="text34"
     font-size="378"
     font-weight="normal"
     font-style="normal"
     y="7464"
     x="8740"
     xml:space="preserve">bei Flat oder</text>
  <text
     style="font-style:normal;font-weight:normal;font-size:378px;font-family:Helvetica;text-anchor:middle;fill:#000000;stroke-width:0.025in"
     id="text36"
     font-size="378"
     font-weight="normal"
     font-style="normal"
     y="8078"
     x="8740"
     xml:space="preserve">Bump Mapping</text>
  <ellipse
     cy="4843"
     cx="4015"
     id="ellipse38"
     style="fill:none;stroke:#000000;stroke-width:32"
     ry="688"
     rx="1181" />
  <ellipse
     cy="4843"
     cx="8740"
     id="ellipse40"
     style="fill:none;stroke:#000000;stroke-width:32"
     ry="688"
     rx="1181" />
  <polyline
     id="polyline42"
     style="fill:none;stroke:#000000;stroke-width:48;stroke-linecap:butt;stroke-linejoin:miter"
     points="2834,5315 2834,4901 " />
  <polyline
     id="polyline44"
     style="fill:none;stroke:#000000;stroke-width:48;stroke-linecap:butt;stroke-linejoin:miter"
     points="5196,5315 5196,4901 " />
  <polyline
     id="polyline46"
     style="fill:none;stroke:#000000;stroke-width:48;stroke-linecap:butt;stroke-linejoin:miter"
     points="7559,5315 7559,4901 " />
  <polyline
     id="polyline48"
     style="fill:none;stroke:#000000;stroke-width:48;stroke-linecap:butt;stroke-linejoin:miter"
     points="9921,5315 9921,4901 " />
  <polyline
     id="polyline50"
     style="fill:none;stroke:#a14000;stroke-width:48;stroke-linecap:butt;stroke-linejoin:bevel"
     points="3070,4429 3070,4430 3074,4433 3081,4441 3091,4455 3107,4474 3126,4497 3146,4523 3167,4549 3186,4574 3203,4597 3217,4618 3231,4638 3243,4656 3252,4672 3260,4688 3268,4704 3274,4720 3279,4737 3285,4752 3288,4770 3292,4787 3294,4805 3295,4824 3296,4843 3295,4860 3294,4879 3292,4897 3288,4914 3285,4932 3279,4948 3274,4964 3268,4980 3260,4996 3252,5012 3243,5028 3231,5046 3217,5066 3203,5087 3186,5110 3167,5135 3146,5161 3126,5187 3107,5210 3091,5229 3081,5243 3074,5251 3070,5254 3070,5255 " />
  <polyline
     id="polyline52"
     style="fill:none;stroke:#a14000;stroke-width:63;stroke-linecap:butt;stroke-linejoin:bevel"
     points="2881,4622 2881,4623 2885,4626 2892,4636 2904,4651 2919,4671 2936,4695 2953,4718 2967,4740 2981,4760 2991,4779 2998,4795 3003,4810 3006,4825 3007,4838 3006,4851 3003,4865 2998,4879 2991,4895 2981,4912 2967,4930 2953,4950 2936,4971 2919,4992 2904,5008 2892,5022 2885,5030 2881,5034 2881,5035 " />
  <polyline
     id="polyline54"
     style="fill:none;stroke:#a14000;stroke-width:63;stroke-linecap:butt;stroke-linejoin:bevel"
     points="3307,4291 3309,4295 3314,4301 3322,4311 3335,4327 3350,4347 3366,4370 3385,4394 3403,4419 3420,4444 3436,4468 3449,4490 3462,4511 3472,4532 3482,4552 3490,4572 3497,4592 3504,4613 3508,4632 3513,4651 3518,4672 3521,4695 3524,4718 3527,4741 3529,4766 3530,4791 3531,4816 3532,4843 3531,4868 3530,4893 3529,4918 3527,4943 3524,4966 3521,4990 3518,5012 3513,5033 3508,5053 3504,5071 3497,5092 3490,5112 3482,5132 3472,5152 3462,5173 3449,5194 3436,5217 3420,5240 3403,5266 3385,5291 3366,5315 3350,5338 3335,5358 3322,5374 3314,5384 3309,5391 3307,5394 " />
  <polyline
     id="polyline56"
     style="fill:none;stroke:#a14000;stroke-width:79;stroke-linecap:butt;stroke-linejoin:bevel"
     points="3637,4181 3639,4184 3643,4192 3649,4204 3658,4223 3671,4247 3686,4277 3701,4308 3717,4342 3734,4375 3749,4408 3763,4439 3776,4469 3787,4496 3798,4522 3807,4546 3815,4570 3822,4592 3828,4614 3835,4636 3839,4658 3844,4681 3848,4704 3851,4727 3856,4752 3858,4777 3860,4803 3862,4829 3863,4855 3864,4881 3864,4908 3863,4934 3862,4959 3861,4984 3859,5008 3856,5032 3854,5055 3849,5077 3846,5098 3842,5118 3837,5140 3832,5162 3824,5184 3817,5207 3808,5231 3799,5256 3787,5283 3775,5313 3761,5342 3748,5374 3733,5404 3719,5434 3707,5459 3697,5479 3691,5492 3687,5500 3685,5504 " />
  <polyline
     id="polyline58"
     style="fill:none;stroke:#a14000;stroke-width:95;stroke-linecap:butt;stroke-linejoin:bevel"
     points="4015,4153 4016,4156 4018,4162 4023,4174 4029,4192 4037,4215 4047,4243 4057,4275 4070,4309 4081,4344 4094,4380 4106,4414 4116,4447 4125,4477 4135,4506 4143,4533 4151,4558 4158,4581 4164,4604 4171,4625 4176,4646 4181,4667 4186,4690 4191,4713 4196,4737 4200,4760 4204,4784 4208,4808 4213,4832 4217,4857 4220,4882 4223,4908 4226,4933 4229,4957 4232,4981 4235,5004 4237,5027 4238,5049 4240,5070 4241,5091 4242,5111 4244,5131 4245,5153 4246,5174 4246,5196 4247,5219 4248,5245 4248,5271 4249,5298 4249,5329 4250,5360 4250,5394 4250,5426 4251,5457 4251,5483 4251,5504 4251,5519 4251,5527 4251,5530 4251,5531 " />
  <polyline
     id="polyline60"
     style="fill:none;stroke:#a14000;stroke-width:79;stroke-linecap:butt;stroke-linejoin:bevel"
     points="4440,4208 4441,4212 4444,4218 4448,4229 4454,4246 4462,4269 4472,4298 4482,4328 4495,4362 4507,4396 4519,4431 4531,4465 4541,4496 4551,4525 4560,4553 4569,4578 4576,4602 4583,4624 4590,4644 4596,4663 4601,4682 4606,4700 4612,4722 4617,4743 4622,4764 4627,4786 4632,4807 4637,4829 4641,4851 4644,4872 4647,4894 4650,4915 4654,4936 4656,4957 4657,4976 4659,4996 4660,5014 4660,5033 4661,5050 4661,5067 4661,5085 4660,5103 4660,5122 4659,5142 4657,5163 4656,5186 4653,5210 4650,5237 4647,5266 4644,5295 4641,5324 4638,5353 4635,5377 4633,5396 4630,5409 4629,5418 4629,5421 " />
  <polyline
     id="polyline62"
     style="fill:none;stroke:#a14000;stroke-width:63;stroke-linecap:butt;stroke-linejoin:bevel"
     points="4818,4346 4818,4347 4820,4350 4824,4359 4830,4373 4839,4393 4851,4419 4864,4450 4877,4481 4891,4513 4903,4543 4916,4573 4927,4599 4936,4624 4944,4646 4953,4667 4959,4687 4965,4705 4972,4724 4978,4745 4983,4765 4988,4786 4994,4807 4999,4829 5002,4851 5006,4873 5009,4895 5012,4916 5014,4937 5015,4958 5015,4977 5015,4996 5015,5013 5013,5029 5011,5045 5007,5063 5004,5081 4999,5099 4992,5118 4984,5139 4974,5161 4963,5185 4952,5209 4939,5233 4929,5254 4920,5269 4915,5279 4913,5282 4913,5283 " />
  <polyline
     id="polyline64"
     style="fill:none;stroke:#a14000;stroke-width:48;stroke-linecap:butt;stroke-linejoin:bevel"
     points="7795,4429 7795,4430 7798,4433 7805,4441 7816,4455 7832,4474 7850,4497 7870,4523 7891,4549 7910,4574 7927,4597 7942,4618 7955,4638 7967,4656 7976,4672 7985,4688 7992,4704 7998,4720 8004,4737 8009,4752 8012,4770 8016,4787 8018,4805 8019,4824 8020,4843 8019,4860 8018,4879 8016,4897 8012,4914 8009,4932 8004,4948 7998,4964 7992,4980 7985,4996 7976,5012 7967,5028 7955,5046 7942,5066 7927,5087 7910,5110 7891,5135 7870,5161 7850,5187 7832,5210 7816,5229 7805,5243 7798,5251 7795,5254 7795,5255 " />
  <polyline
     id="polyline66"
     style="fill:none;stroke:#a14000;stroke-width:63;stroke-linecap:butt;stroke-linejoin:bevel"
     points="7606,4622 7606,4623 7609,4626 7616,4636 7629,4651 7644,4671 7660,4695 7677,4718 7692,4740 7706,4760 7715,4779 7722,4795 7728,4810 7731,4825 7732,4838 7731,4851 7728,4865 7722,4879 7715,4895 7706,4912 7692,4930 7677,4950 7660,4971 7644,4992 7629,5008 7616,5022 7609,5030 7606,5034 7606,5035 " />
  <polyline
     id="polyline68"
     style="fill:none;stroke:#a14000;stroke-width:63;stroke-linecap:butt;stroke-linejoin:bevel"
     points="8031,4291 8033,4295 8038,4301 8047,4311 8059,4327 8074,4347 8091,4370 8110,4394 8128,4419 8144,4444 8160,4468 8174,4490 8186,4511 8197,4532 8206,4552 8215,4572 8221,4592 8228,4613 8233,4632 8238,4651 8242,4672 8245,4695 8248,4718 8251,4741 8254,4766 8255,4791 8256,4816 8257,4843 8256,4868 8255,4893 8254,4918 8251,4943 8248,4966 8245,4990 8242,5012 8238,5033 8233,5053 8228,5071 8221,5092 8215,5112 8206,5132 8197,5152 8186,5173 8174,5194 8160,5217 8144,5240 8128,5266 8110,5291 8091,5315 8074,5338 8059,5358 8047,5374 8038,5384 8033,5391 8031,5394 " />
  <polyline
     id="polyline70"
     style="fill:none;stroke:#a14000;stroke-width:79;stroke-linecap:butt;stroke-linejoin:bevel"
     points="8362,4181 8364,4184 8367,4192 8373,4204 8383,4223 8395,4247 8410,4277 8426,4308 8441,4342 8458,4375 8473,4408 8488,4439 8500,4469 8512,4496 8522,4522 8532,4546 8539,4570 8546,4592 8553,4614 8559,4636 8563,4658 8569,4681 8573,4704 8576,4727 8580,4752 8582,4777 8584,4803 8586,4829 8587,4855 8588,4881 8588,4908 8587,4934 8586,4959 8585,4984 8583,5008 8580,5032 8578,5055 8574,5077 8571,5098 8566,5118 8561,5140 8556,5162 8549,5184 8541,5207 8533,5231 8523,5256 8512,5283 8499,5313 8486,5342 8472,5374 8457,5404 8444,5434 8431,5459 8422,5479 8415,5492 8411,5500 8409,5504 " />
  <polyline
     id="polyline72"
     style="fill:none;stroke:#a14000;stroke-width:95;stroke-linecap:butt;stroke-linejoin:bevel"
     points="8740,4153 8741,4156 8743,4162 8747,4174 8753,4192 8762,4215 8771,4243 8782,4275 8794,4309 8806,4344 8818,4380 8830,4414 8840,4447 8850,4477 8859,4506 8868,4533 8875,4558 8882,4581 8889,4604 8895,4625 8900,4646 8906,4667 8911,4690 8915,4713 8920,4737 8924,4760 8929,4784 8933,4808 8937,4832 8941,4857 8944,4882 8948,4908 8951,4933 8954,4957 8956,4981 8959,5004 8961,5027 8962,5049 8964,5070 8965,5091 8966,5111 8969,5131 8970,5153 8971,5174 8971,5196 8972,5219 8973,5245 8973,5271 8974,5298 8974,5329 8975,5360 8975,5394 8975,5426 8976,5457 8976,5483 8976,5504 8976,5519 8976,5527 8976,5530 8976,5531 " />
  <polyline
     id="polyline74"
     style="fill:none;stroke:#a14000;stroke-width:79;stroke-linecap:butt;stroke-linejoin:bevel"
     points="9165,4208 9166,4212 9168,4218 9172,4229 9179,4246 9187,4269 9196,4298 9207,4328 9219,4362 9231,4396 9244,4431 9255,4465 9266,4496 9275,4525 9285,4553 9293,4578 9300,4602 9308,4624 9314,4644 9320,4663 9325,4682 9331,4700 9336,4722 9341,4743 9346,4764 9352,4786 9356,4807 9361,4829 9365,4851 9369,4872 9372,4894 9375,4915 9378,4936 9380,4957 9381,4976 9383,4996 9384,5014 9384,5033 9385,5050 9385,5067 9385,5085 9384,5103 9384,5122 9383,5142 9381,5163 9380,5186 9377,5210 9375,5237 9372,5266 9369,5295 9365,5324 9362,5353 9359,5377 9357,5396 9355,5409 9354,5418 9354,5421 " />
  <polyline
     id="polyline76"
     style="fill:none;stroke:#a14000;stroke-width:63;stroke-linecap:butt;stroke-linejoin:bevel"
     points="9543,4346 9543,4347 9545,4350 9548,4359 9554,4373 9564,4393 9575,4419 9588,4450 9602,4481 9615,4513 9628,4543 9640,4573 9651,4599 9660,4624 9669,4646 9677,4667 9683,4687 9690,4705 9696,4724 9702,4745 9708,4765 9713,4786 9718,4807 9723,4829 9727,4851 9731,4873 9734,4895 9736,4916 9738,4937 9739,4958 9739,4977 9739,4996 9739,5013 9737,5029 9735,5045 9732,5063 9729,5081 9723,5099 9716,5118 9709,5139 9698,5161 9688,5185 9676,5209 9664,5233 9653,5254 9645,5269 9639,5279 9637,5282 9637,5283 " />
</svg>
