<?xml version="1.0" encoding="UTF-8" standalone="no"?>
<!-- Creator: fig2dev Version 3.2 Patchlevel 5e -->

<!-- CreationDate: Wed Oct 21 16:22:38 2015 -->

<!-- Magnification: 1.050 -->

<svg
   xmlns:dc="http://purl.org/dc/elements/1.1/"
   xmlns:cc="http://creativecommons.org/ns#"
   xmlns:rdf="http://www.w3.org/1999/02/22-rdf-syntax-ns#"
   xmlns:svg="http://www.w3.org/2000/svg"
   xmlns="http://www.w3.org/2000/svg"
   xmlns:sodipodi="http://sodipodi.sourceforge.net/DTD/sodipodi-0.dtd"
   xmlns:inkscape="http://www.inkscape.org/namespaces/inkscape"
   width="12.2in"
   height="6.5in"
   viewBox="190 898 14620 7804"
   id="svg2"
   version="1.1"
   inkscape:version="0.91 r13725"
   sodipodi:docname="fig_sichtSilhouette1.svg">
  <metadata
     id="metadata66">
    <rdf:RDF>
      <cc:Work
         rdf:about="">
        <dc:format>image/svg+xml</dc:format>
        <dc:type
           rdf:resource="http://purl.org/dc/dcmitype/StillImage" />
      </cc:Work>
    </rdf:RDF>
  </metadata>
  <defs
     id="defs64" />
  <sodipodi:namedview
     pagecolor="#ffffff"
     bordercolor="#666666"
     borderopacity="1"
     objecttolerance="10"
     gridtolerance="10"
     guidetolerance="10"
     inkscape:pageopacity="0"
     inkscape:pageshadow="2"
     inkscape:window-width="640"
     inkscape:window-height="480"
     id="namedview62"
     showgrid="false"
     inkscape:zoom="0.4034188"
     inkscape:cx="548.99999"
     inkscape:cy="292.5"
     inkscape:window-x="142"
     inkscape:window-y="60"
     inkscape:window-maximized="0"
     inkscape:current-layer="svg2" />
  <polyline
     id="polyline6"
     style="fill:#ffffff;stroke:#ff0000;stroke-width:48;stroke-linecap:butt;stroke-linejoin:bevel"
     points="4488,3779 4490,3779 4495,3779 4503,3779 4518,3778 4537,3778 4563,3777 4594,3777 4629,3776 4669,3775 4712,3773 4759,3772 4805,3770 4852,3767 4899,3765 4945,3763 4991,3760 5034,3758 5075,3755 5113,3752 5151,3748 5187,3744 5220,3740 5253,3735 5285,3731 5316,3725 5345,3720 5375,3714 5403,3708 5433,3700 5462,3693 5490,3685 5520,3676 5549,3668 5580,3658 5610,3648 5641,3638 5673,3627 5704,3616 5737,3605 5771,3592 5804,3581 5838,3568 5871,3555 5905,3543 5939,3530 5972,3518 6006,3505 6039,3493 6073,3481 6106,3469 6137,3459 6169,3447 6200,3438 6230,3427 6261,3418 6290,3409 6320,3401 6348,3393 6377,3385 6407,3378 6435,3372 6465,3365 6494,3360 6524,3355 6555,3350 6586,3345 6618,3341 6649,3338 6682,3335 6716,3333 6749,3331 6783,3330 6816,3329 6850,3329 6883,3329 6917,3330 6951,3331 6984,3333 7018,3335 7050,3338 7082,3341 7113,3345 7145,3350 7175,3355 7206,3360 7235,3365 7265,3372 7293,3378 7322,3385 7352,3393 7380,3401 7409,3409 7439,3418 7469,3427 7500,3438 7531,3447 7563,3459 7594,3469 7627,3481 7660,3493 7694,3505 7728,3518 7761,3530 7795,3543 7828,3555 7862,3568 7896,3581 7929,3592 7963,3605 7995,3616 8027,3627 8058,3638 8090,3648 8120,3658 8151,3668 8180,3676 8209,3685 8238,3693 8267,3700 8297,3708 8325,3714 8354,3720 8384,3725 8415,3731 8447,3735 8479,3740 8513,3744 8549,3748 8586,3752 8625,3755 8666,3758 8709,3760 8754,3763 8801,3765 8848,3767 8895,3770 8941,3772 8987,3773 9030,3775 9070,3776 9106,3777 9137,3777 9163,3778 9182,3778 9196,3779 9205,3779 9210,3779 9212,3779 " />
  <polyline
     id="polyline8"
     style="fill:#ffffff;stroke:#ff0000;stroke-width:48;stroke-linecap:butt;stroke-linejoin:bevel"
     points="4015,4015 4017,4014 4023,4013 4031,4011 4046,4007 4065,4002 4091,3994 4121,3985 4157,3975 4197,3963 4240,3950 4286,3937 4332,3922 4380,3907 4427,3892 4473,3877 4518,3862 4561,3846 4602,3832 4641,3817 4679,3802 4714,3787 4748,3773 4781,3758 4812,3743 4844,3728 4873,3712 4902,3696 4931,3678 4960,3661 4987,3644 5015,3626 5042,3607 5069,3588 5098,3568 5126,3547 5155,3526 5185,3504 5214,3481 5245,3458 5275,3435 5307,3411 5338,3386 5370,3361 5401,3337 5433,3312 5464,3288 5496,3264 5527,3239 5559,3215 5590,3193 5620,3170 5651,3149 5680,3128 5710,3108 5739,3088 5767,3070 5796,3053 5823,3036 5850,3020 5878,3005 5905,2992 5932,2978 5960,2966 5987,2955 6014,2943 6043,2934 6071,2924 6100,2916 6130,2908 6159,2901 6190,2895 6220,2890 6251,2886 6283,2882 6314,2879 6346,2878 6377,2878 6409,2878 6440,2879 6472,2882 6503,2886 6535,2890 6565,2895 6596,2901 6625,2908 6655,2916 6684,2924 6712,2934 6741,2943 6768,2955 6795,2966 6823,2978 6850,2992 6877,3005 6904,3020 6932,3036 6959,3053 6987,3070 7016,3088 7045,3108 7075,3128 7104,3149 7134,3170 7165,3193 7196,3215 7228,3239 7259,3264 7291,3288 7322,3312 7354,3337 7385,3361 7417,3386 7448,3411 7480,3435 7510,3458 7541,3481 7570,3504 7600,3526 7629,3547 7657,3568 7686,3588 7713,3607 7740,3626 7767,3644 7795,3661 7824,3678 7853,3696 7882,3712 7911,3728 7943,3743 7974,3758 8007,3773 8040,3787 8076,3802 8114,3817 8153,3832 8194,3846 8237,3862 8282,3877 8328,3892 8375,3907 8423,3922 8469,3937 8515,3950 8558,3963 8598,3975 8634,3985 8664,3994 8690,4002 8709,4007 8724,4011 8732,4013 8738,4014 8740,4015 " />
  <polyline
     id="polyline10"
     style="fill:#ffffff;stroke:#ff0000;stroke-width:48;stroke-linecap:butt;stroke-linejoin:bevel"
     points="3543,4251 3545,4250 3549,4248 3556,4244 3568,4238 3585,4229 3606,4217 3633,4203 3664,4185 3699,4165 3738,4144 3779,4121 3822,4096 3866,4071 3910,4045 3954,4018 3997,3992 4039,3966 4080,3941 4119,3916 4157,3891 4193,3867 4226,3843 4259,3819 4290,3796 4321,3772 4350,3748 4379,3723 4406,3699 4433,3674 4460,3648 4488,3622 4512,3597 4536,3572 4560,3546 4584,3520 4609,3492 4635,3464 4660,3436 4686,3405 4712,3375 4739,3344 4766,3313 4792,3280 4820,3248 4848,3214 4876,3182 4903,3148 4932,3114 4960,3081 4988,3048 5017,3016 5044,2983 5072,2951 5100,2919 5128,2889 5154,2859 5182,2830 5208,2803 5234,2775 5260,2749 5286,2725 5311,2701 5336,2678 5360,2657 5384,2636 5408,2617 5433,2598 5458,2579 5484,2562 5509,2545 5535,2530 5562,2515 5589,2501 5615,2489 5644,2478 5671,2468 5699,2458 5728,2450 5757,2444 5786,2437 5816,2433 5845,2430 5876,2428 5905,2427 5934,2428 5965,2430 5994,2433 6024,2437 6053,2444 6082,2450 6111,2458 6139,2468 6166,2478 6195,2489 6221,2501 6248,2515 6275,2530 6301,2545 6326,2562 6352,2579 6377,2598 6402,2617 6426,2636 6450,2657 6474,2678 6499,2701 6524,2725 6550,2749 6576,2775 6602,2803 6628,2830 6656,2859 6682,2889 6710,2919 6738,2951 6766,2983 6793,3016 6822,3048 6850,3081 6878,3114 6907,3148 6934,3182 6962,3214 6990,3248 7018,3280 7044,3313 7071,3344 7098,3375 7124,3405 7150,3436 7175,3464 7201,3492 7226,3520 7250,3546 7274,3572 7298,3597 7322,3622 7350,3648 7377,3674 7404,3699 7432,3723 7460,3748 7489,3772 7520,3796 7551,3819 7584,3843 7617,3867 7653,3891 7691,3916 7730,3941 7771,3966 7813,3992 7856,4018 7900,4045 7944,4071 7988,4096 8031,4121 8072,4144 8111,4165 8146,4185 8177,4203 8204,4217 8225,4229 8242,4238 8254,4244 8261,4248 8265,4250 8267,4251 " />
  <polyline
     id="polyline12"
     style="fill:#ffffff;stroke:#ff0000;stroke-width:48;stroke-linecap:butt;stroke-linejoin:bevel"
     points="3070,4488 3071,4487 3076,4483 3082,4478 3091,4471 3106,4459 3124,4445 3147,4426 3174,4404 3206,4379 3239,4350 3277,4320 3316,4286 3357,4253 3399,4217 3441,4181 3482,4145 3523,4109 3563,4074 3601,4038 3638,4005 3674,3971 3708,3938 3740,3905 3772,3874 3801,3842 3830,3811 3859,3779 3886,3748 3912,3716 3939,3683 3964,3651 3990,3616 4015,3583 4038,3550 4061,3518 4083,3485 4108,3450 4131,3416 4154,3379 4178,3342 4202,3304 4227,3266 4253,3227 4278,3187 4303,3146 4329,3104 4354,3063 4382,3020 4408,2978 4434,2936 4461,2893 4488,2851 4514,2808 4541,2767 4567,2725 4594,2685 4621,2645 4646,2605 4672,2567 4698,2531 4723,2495 4748,2460 4773,2427 4797,2394 4822,2363 4845,2333 4868,2305 4892,2278 4914,2253 4937,2227 4960,2204 4984,2181 5008,2159 5033,2138 5057,2118 5082,2099 5107,2081 5132,2066 5159,2051 5185,2037 5211,2025 5238,2013 5265,2004 5293,1995 5320,1989 5349,1984 5376,1980 5404,1977 5433,1976 5461,1977 5489,1980 5517,1984 5545,1989 5572,1995 5601,2004 5627,2013 5654,2025 5680,2037 5707,2051 5733,2066 5758,2081 5783,2099 5808,2118 5833,2138 5857,2159 5881,2181 5905,2204 5928,2227 5951,2253 5973,2278 5997,2305 6020,2333 6044,2363 6068,2394 6092,2427 6117,2460 6142,2495 6167,2531 6193,2567 6219,2605 6244,2645 6271,2685 6298,2725 6324,2767 6351,2808 6377,2851 6404,2893 6431,2936 6457,2978 6483,3020 6511,3063 6536,3104 6562,3146 6587,3187 6613,3227 6638,3266 6663,3304 6687,3342 6711,3379 6734,3416 6758,3450 6782,3485 6804,3518 6827,3550 6850,3583 6875,3616 6901,3651 6927,3683 6953,3716 6979,3748 7006,3779 7035,3811 7064,3842 7093,3874 7125,3905 7158,3938 7191,3971 7227,4005 7265,4038 7302,4074 7342,4109 7383,4145 7424,4181 7466,4217 7508,4253 7549,4286 7588,4320 7626,4350 7659,4379 7691,4404 7718,4426 7741,4445 7759,4459 7774,4471 7783,4478 7790,4483 7794,4487 7795,4488 " />
  <polyline
     id="polyline14"
     style="fill:#ffffff;stroke:#ff0000;stroke-width:48;stroke-linecap:butt;stroke-linejoin:bevel"
     points="2598,4724 2599,4723 2602,4720 2607,4713 2616,4705 2628,4692 2644,4675 2664,4654 2688,4628 2716,4599 2746,4565 2780,4529 2815,4490 2853,4448 2892,4405 2931,4361 2971,4317 3009,4271 3048,4227 3086,4183 3122,4139 3158,4097 3191,4055 3224,4014 3255,3974 3286,3935 3314,3897 3342,3858 3370,3820 3395,3781 3421,3743 3446,3704 3470,3665 3495,3625 3519,3585 3543,3543 3564,3506 3584,3469 3605,3432 3626,3393 3647,3353 3669,3312 3690,3270 3712,3228 3734,3185 3756,3140 3779,3096 3801,3049 3824,3003 3847,2956 3871,2909 3895,2861 3919,2813 3943,2765 3967,2717 3991,2668 4015,2620 4039,2572 4064,2524 4088,2477 4112,2431 4136,2386 4159,2341 4183,2297 4206,2254 4229,2213 4251,2172 4275,2133 4297,2094 4319,2057 4341,2022 4362,1988 4384,1955 4405,1924 4426,1893 4447,1864 4467,1837 4488,1811 4510,1784 4531,1759 4553,1735 4575,1712 4597,1691 4620,1671 4642,1651 4665,1633 4688,1616 4712,1602 4735,1588 4760,1574 4785,1564 4809,1553 4834,1545 4859,1539 4885,1533 4910,1529 4935,1527 4960,1526 4985,1527 5011,1529 5036,1533 5061,1539 5086,1545 5111,1553 5135,1564 5161,1574 5185,1588 5208,1602 5232,1616 5255,1633 5278,1651 5300,1671 5323,1691 5345,1712 5367,1735 5390,1759 5411,1784 5433,1811 5454,1837 5474,1864 5495,1893 5516,1924 5537,1955 5559,1988 5580,2022 5602,2057 5624,2094 5646,2133 5669,2172 5691,2213 5714,2254 5737,2297 5761,2341 5784,2386 5808,2431 5833,2477 5857,2524 5881,2572 5905,2620 5929,2668 5953,2717 5977,2765 6002,2813 6026,2861 6049,2909 6073,2956 6096,3003 6119,3049 6141,3096 6164,3140 6186,3185 6208,3228 6230,3270 6251,3312 6274,3353 6295,3393 6316,3432 6337,3469 6356,3506 6377,3543 6402,3585 6426,3625 6450,3665 6474,3704 6499,3743 6525,3781 6551,3820 6578,3858 6606,3897 6635,3935 6665,3974 6697,4014 6729,4055 6763,4097 6798,4139 6834,4183 6872,4227 6911,4271 6950,4317 6990,4361 7028,4405 7067,4448 7105,4490 7141,4529 7174,4565 7205,4599 7232,4628 7256,4654 7276,4675 7292,4692 7304,4705 7313,4713 7318,4720 7321,4723 7322,4724 " />
  <polyline
     id="polyline16"
     style="fill:#ffffff;stroke:#ff0000;stroke-width:48;stroke-linecap:butt;stroke-linejoin:bevel"
     points="2125,4960 2127,4959 2131,4956 2137,4951 2146,4943 2161,4932 2179,4917 2202,4898 2229,4876 2261,4851 2295,4823 2332,4792 2371,4759 2412,4725 2454,4689 2496,4654 2537,4618 2578,4581 2618,4546 2656,4511 2693,4477 2729,4444 2763,4410 2795,4377 2827,4346 2856,4314 2886,4283 2914,4251 2941,4220 2967,4188 2994,4156 3019,4123 3045,4089 3070,4055 3093,4023 3117,3990 3139,3958 3163,3923 3186,3888 3209,3851 3233,3815 3257,3777 3282,3738 3308,3699 3333,3659 3358,3618 3384,3576 3409,3535 3437,3492 3463,3450 3489,3408 3517,3365 3543,3323 3569,3280 3596,3239 3623,3197 3649,3158 3676,3118 3701,3078 3728,3040 3753,3003 3778,2967 3803,2933 3828,2899 3853,2867 3877,2835 3900,2806 3923,2777 3947,2750 3969,2725 3992,2700 4015,2677 4039,2654 4064,2632 4088,2611 4112,2591 4137,2572 4162,2554 4187,2538 4214,2523 4240,2510 4266,2497 4293,2486 4320,2476 4348,2468 4375,2461 4404,2456 4431,2452 4459,2450 4488,2449 4516,2450 4544,2452 4572,2456 4600,2461 4627,2468 4656,2476 4682,2486 4709,2497 4735,2510 4762,2523 4788,2538 4813,2554 4838,2572 4864,2591 4888,2611 4912,2632 4936,2654 4960,2677 4983,2700 5006,2725 5028,2750 5053,2777 5076,2806 5099,2835 5123,2867 5147,2899 5172,2933 5197,2967 5223,3003 5248,3040 5274,3078 5299,3118 5327,3158 5353,3197 5379,3239 5406,3280 5433,3323 5459,3365 5486,3408 5512,3450 5539,3492 5566,3535 5591,3576 5617,3618 5643,3659 5668,3699 5693,3738 5718,3777 5742,3815 5766,3851 5790,3888 5813,3923 5837,3958 5859,3990 5882,4023 5905,4055 5930,4089 5956,4123 5982,4156 6008,4188 6034,4220 6061,4251 6090,4283 6119,4314 6149,4346 6180,4377 6213,4410 6246,4444 6282,4477 6320,4511 6358,4546 6397,4581 6438,4618 6479,4654 6521,4689 6563,4725 6604,4759 6643,4792 6681,4823 6714,4851 6746,4876 6773,4898 6796,4917 6814,4932 6829,4943 6838,4951 6845,4956 6849,4959 6850,4960 " />
  <polyline
     id="polyline18"
     style="fill:#ffffff;stroke:#ff0000;stroke-width:48;stroke-linecap:butt;stroke-linejoin:bevel"
     points="1653,5196 1655,5195 1659,5193 1667,5189 1678,5183 1695,5174 1716,5162 1743,5148 1774,5130 1809,5110 1848,5089 1889,5066 1932,5041 1976,5016 2020,4990 2065,4963 2108,4937 2150,4911 2191,4886 2229,4860 2267,4836 2303,4812 2337,4788 2369,4764 2401,4741 2431,4717 2460,4692 2489,4668 2516,4644 2543,4619 2571,4593 2598,4566 2622,4542 2646,4517 2670,4491 2695,4465 2720,4437 2745,4409 2770,4381 2796,4350 2823,4320 2849,4289 2876,4258 2902,4225 2931,4193 2958,4159 2986,4127 3014,4093 3042,4059 3070,4026 3099,3993 3127,3961 3154,3928 3183,3896 3210,3864 3238,3834 3265,3804 3292,3775 3318,3748 3344,3720 3371,3694 3396,3670 3421,3646 3446,3623 3470,3602 3495,3581 3519,3562 3543,3543 3568,3524 3594,3507 3619,3490 3646,3475 3672,3460 3699,3446 3725,3434 3754,3423 3781,3413 3809,3403 3838,3395 3867,3388 3897,3382 3926,3378 3955,3375 3986,3373 4015,3372 4045,3373 4075,3375 4104,3378 4134,3382 4163,3388 4193,3395 4221,3403 4249,3413 4277,3423 4305,3434 4331,3446 4359,3460 4385,3475 4411,3490 4436,3507 4462,3524 4488,3543 4512,3562 4536,3581 4560,3602 4584,3623 4609,3646 4635,3670 4660,3694 4686,3720 4712,3748 4739,3775 4766,3804 4792,3834 4820,3864 4848,3896 4876,3928 4903,3961 4932,3993 4960,4026 4988,4059 5017,4093 5044,4127 5072,4159 5100,4193 5128,4225 5154,4258 5182,4289 5208,4320 5234,4350 5260,4381 5286,4409 5311,4437 5336,4465 5360,4491 5384,4517 5408,4542 5433,4566 5460,4593 5487,4619 5514,4644 5542,4668 5570,4692 5600,4717 5630,4741 5661,4764 5694,4788 5728,4812 5763,4836 5801,4860 5840,4886 5881,4911 5923,4937 5966,4963 6010,4990 6054,5016 6098,5041 6141,5066 6182,5089 6221,5110 6257,5130 6287,5148 6314,5162 6335,5174 6352,5183 6364,5189 6371,5193 6375,5195 6377,5196 " />
  <polyline
     id="polyline20"
     style="fill:#ffffff;stroke:#ff0000;stroke-width:48;stroke-linecap:butt;stroke-linejoin:bevel"
     points="1181,5433 1183,5432 1188,5430 1196,5428 1211,5424 1230,5419 1256,5412 1287,5402 1322,5393 1362,5380 1405,5367 1451,5354 1498,5339 1545,5324 1592,5310 1638,5294 1683,5279 1727,5264 1767,5249 1806,5234 1844,5219 1880,5205 1913,5190 1946,5175 1977,5161 2009,5145 2038,5129 2068,5113 2096,5096 2125,5079 2153,5061 2180,5043 2207,5024 2235,5005 2263,4985 2291,4964 2321,4943 2350,4921 2380,4898 2410,4875 2440,4852 2472,4828 2503,4804 2535,4779 2566,4754 2598,4729 2629,4705 2661,4681 2692,4657 2724,4633 2755,4611 2786,4587 2816,4566 2846,4545 2875,4525 2904,4506 2933,4488 2961,4470 2988,4453 3016,4437 3043,4423 3070,4409 3098,4395 3125,4384 3152,4372 3180,4361 3208,4351 3236,4342 3266,4333 3295,4325 3324,4319 3355,4312 3385,4307 3417,4303 3448,4300 3480,4297 3511,4296 3543,4296 3574,4296 3606,4297 3637,4300 3669,4303 3700,4307 3731,4312 3761,4319 3791,4325 3820,4333 3849,4342 3878,4351 3906,4361 3933,4372 3961,4384 3988,4395 4015,4409 4043,4423 4070,4437 4097,4453 4124,4470 4153,4488 4181,4506 4211,4525 4240,4545 4269,4566 4300,4587 4330,4611 4362,4633 4393,4657 4425,4681 4456,4705 4488,4729 4519,4754 4551,4779 4582,4804 4614,4828 4645,4852 4676,4875 4706,4898 4735,4921 4765,4943 4794,4964 4823,4985 4851,5005 4878,5024 4906,5043 4933,5061 4960,5079 4990,5096 5018,5113 5047,5129 5077,5145 5108,5161 5140,5175 5172,5190 5206,5205 5241,5219 5279,5234 5318,5249 5359,5264 5402,5279 5447,5294 5493,5310 5541,5324 5588,5339 5634,5354 5680,5367 5723,5380 5763,5393 5799,5402 5829,5412 5856,5419 5875,5424 5889,5428 5898,5430 5903,5432 5905,5433 " />
  <polyline
     id="polyline22"
     style="fill:#ffffff;stroke:#ff0000;stroke-width:48;stroke-linecap:butt;stroke-linejoin:bevel"
     points="708,5669 710,5669 716,5669 724,5669 739,5668 758,5668 784,5667 814,5667 850,5666 890,5665 933,5662 979,5661 1025,5659 1072,5657 1120,5655 1166,5653 1211,5650 1254,5648 1295,5645 1334,5641 1372,5637 1407,5634 1441,5630 1474,5625 1505,5620 1537,5615 1566,5610 1595,5604 1624,5597 1653,5590 1682,5583 1711,5574 1740,5566 1770,5558 1800,5548 1830,5538 1862,5528 1893,5517 1925,5506 1958,5495 1991,5482 2025,5470 2058,5458 2092,5445 2125,5433 2159,5420 2193,5407 2226,5395 2260,5383 2293,5371 2326,5359 2358,5349 2389,5337 2420,5328 2451,5317 2481,5308 2511,5299 2540,5291 2569,5282 2598,5275 2627,5268 2656,5261 2685,5255 2714,5250 2745,5245 2775,5239 2807,5235 2838,5231 2870,5228 2902,5225 2936,5223 2970,5220 3003,5219 3037,5218 3070,5218 3104,5218 3138,5219 3171,5220 3205,5223 3238,5225 3271,5228 3302,5231 3334,5235 3365,5239 3396,5245 3426,5250 3456,5255 3485,5261 3513,5268 3543,5275 3572,5282 3601,5291 3630,5299 3659,5308 3690,5317 3720,5328 3752,5337 3783,5349 3815,5359 3847,5371 3881,5383 3914,5395 3948,5407 3982,5420 4015,5433 4049,5445 4082,5458 4116,5470 4150,5482 4183,5495 4216,5506 4247,5517 4279,5528 4310,5538 4341,5548 4371,5558 4401,5566 4430,5574 4458,5583 4488,5590 4517,5597 4545,5604 4575,5610 4604,5615 4636,5620 4667,5625 4700,5630 4733,5634 4769,5637 4807,5641 4846,5645 4887,5648 4930,5650 4975,5653 5021,5655 5068,5657 5116,5659 5162,5661 5208,5662 5251,5665 5291,5666 5327,5667 5357,5667 5383,5668 5402,5668 5417,5669 5425,5669 5430,5669 5433,5669 " />
  <polyline
     id="polyline24"
     style="fill:none;stroke:#a14000;stroke-width:48;stroke-linecap:butt;stroke-linejoin:round"
     points="4488,5905 9212,5905 5433,7795 708,7795 4488,5905 " />
  <polyline
     id="polyline26"
     style="fill:none;stroke:#a14000;stroke-width:48;stroke-linecap:butt;stroke-linejoin:miter"
     points="4488,5905 9732,5905 " />
  <polygon
     id="polygon28"
     style="fill:#a14000;stroke:#a14000;stroke-width:48;stroke-miterlimit:8"
     points="9784,5842 9737,5905 9784,5968 9784,5968 9926,5905 " />
  <polyline
     id="polyline30"
     style="fill:none;stroke:#a14000;stroke-width:48;stroke-linecap:butt;stroke-linejoin:miter"
     points="4488,5905 404,7947 " />
  <polygon
     id="polygon32"
     style="fill:#a14000;stroke:#a14000;stroke-width:48;stroke-miterlimit:8"
     points="386,8025 401,7947 329,7911 329,7911 232,8032 " />
  <polyline
     id="polyline34"
     style="fill:none;stroke:#a14000;stroke-width:48;stroke-linecap:butt;stroke-linejoin:miter"
     points="4488,5905 4488,1132 " />
  <polygon
     id="polygon36"
     style="fill:#a14000;stroke:#a14000;stroke-width:48;stroke-miterlimit:8"
     points="4425,1081 4488,1128 4551,1081 4551,1081 4488,939 " />
  <polyline
     id="polyline38"
     style="fill:none;stroke:#0000ff;stroke-width:48;stroke-linecap:butt;stroke-linejoin:miter"
     points="4488,5905 9212,5905 " />
  <polyline
     id="polyline40"
     style="fill:none;stroke:#0000ff;stroke-width:48;stroke-linecap:butt;stroke-linejoin:miter"
     points="4015,6141 8740,6141 " />
  <polyline
     id="polyline42"
     style="fill:none;stroke:#0000ff;stroke-width:48;stroke-linecap:butt;stroke-linejoin:miter"
     points="3543,6377 8267,6377 " />
  <polyline
     id="polyline44"
     style="fill:none;stroke:#0000ff;stroke-width:48;stroke-linecap:butt;stroke-linejoin:miter"
     points="3070,6614 7795,6614 " />
  <polyline
     id="polyline46"
     style="fill:none;stroke:#0000ff;stroke-width:48;stroke-linecap:butt;stroke-linejoin:miter"
     points="2598,6850 7322,6850 " />
  <polyline
     id="polyline48"
     style="fill:none;stroke:#0000ff;stroke-width:48;stroke-linecap:butt;stroke-linejoin:miter"
     points="2125,7086 6850,7086 " />
  <polyline
     id="polyline50"
     style="fill:none;stroke:#0000ff;stroke-width:48;stroke-linecap:butt;stroke-linejoin:miter"
     points="1653,7322 6377,7322 " />
  <polyline
     id="polyline52"
     style="fill:none;stroke:#0000ff;stroke-width:48;stroke-linecap:butt;stroke-linejoin:miter"
     points="1181,7559 5905,7559 " />
  <polyline
     id="polyline54"
     style="fill:none;stroke:#0000ff;stroke-width:48;stroke-linecap:butt;stroke-linejoin:miter"
     points="708,7795 5433,7795 " />
  <text
     style="font-style:normal;font-weight:normal;font-size:467px;font-family:Times;text-anchor:start;fill:#a14000;stroke-width:0.025in"
     id="text56"
     font-size="467"
     font-weight="normal"
     font-style="normal"
     y="5669"
     x="9448"
     xml:space="preserve">$s$</text>
  <text
     style="font-style:normal;font-weight:normal;font-size:467px;font-family:Times;text-anchor:start;fill:#a14000;stroke-width:0.025in"
     id="text58"
     font-size="467"
     font-weight="normal"
     font-style="normal"
     y="8503"
     x="472"
     xml:space="preserve">$t$</text>
  <text
     style="font-style:normal;font-weight:normal;font-size:467px;font-family:Times;text-anchor:start;fill:#a14000;stroke-width:0.025in"
     id="text60"
     font-size="467"
     font-weight="normal"
     font-style="normal"
     y="1417"
     x="4015"
     xml:space="preserve">$f$</text>
</svg>
