<?xml version="1.0" encoding="UTF-8" standalone="no"?>
<!-- Creator: fig2dev Version 3.2 Patchlevel 5e -->

<!-- CreationDate: Tue Oct 27 16:26:34 2015 -->

<!-- Magnification: 1.050 -->

<svg
   xmlns:dc="http://purl.org/dc/elements/1.1/"
   xmlns:cc="http://creativecommons.org/ns#"
   xmlns:rdf="http://www.w3.org/1999/02/22-rdf-syntax-ns#"
   xmlns:svg="http://www.w3.org/2000/svg"
   xmlns="http://www.w3.org/2000/svg"
   xmlns:sodipodi="http://sodipodi.sourceforge.net/DTD/sodipodi-0.dtd"
   xmlns:inkscape="http://www.inkscape.org/namespaces/inkscape"
   width="7.5in"
   height="2.7in"
   viewBox="-230 3969 9017 3226"
   id="svg2"
   version="1.1"
   inkscape:version="0.91 r13725"
   sodipodi:docname="fig_farbeStrategieBouknightMach3.svg">
  <metadata
     id="metadata28">
    <rdf:RDF>
      <cc:Work
         rdf:about="">
        <dc:format>image/svg+xml</dc:format>
        <dc:type
           rdf:resource="http://purl.org/dc/dcmitype/StillImage" />
      </cc:Work>
    </rdf:RDF>
  </metadata>
  <defs
     id="defs26" />
  <sodipodi:namedview
     pagecolor="#ffffff"
     bordercolor="#666666"
     borderopacity="1"
     objecttolerance="10"
     gridtolerance="10"
     guidetolerance="10"
     inkscape:pageopacity="0"
     inkscape:pageshadow="2"
     inkscape:window-width="640"
     inkscape:window-height="480"
     id="namedview24"
     showgrid="false"
     inkscape:zoom="0.67407407"
     inkscape:cx="337.5"
     inkscape:cy="121.5"
     inkscape:window-x="142"
     inkscape:window-y="60"
     inkscape:window-maximized="0"
     inkscape:current-layer="svg2" />
  <polyline
     id="polyline6"
     style="fill:none;stroke:#000000;stroke-width:48;stroke-linecap:butt;stroke-linejoin:miter"
     points="2362,7086 8488,7086 " />
  <polygon
     id="polygon8"
     style="fill:#000000;stroke:#000000;stroke-width:48;stroke-miterlimit:8"
     points="8539,7023 8476,7086 8539,7149 8539,7149 8728,7086 " />
  <polyline
     id="polyline10"
     style="fill:none;stroke:#000000;stroke-width:48;stroke-linecap:butt;stroke-linejoin:miter"
     points="2362,7086 2362,4266 " />
  <polygon
     id="polygon12"
     style="fill:#000000;stroke:#000000;stroke-width:48;stroke-miterlimit:8"
     points="2299,4216 2362,4279 2425,4216 2425,4216 2362,4027 " />
  <polyline
     id="polyline14"
     style="fill:none;stroke:#ff0000;stroke-width:63;stroke-linecap:butt;stroke-linejoin:round"
     points="2362,5669 3779,4960 6614,6377 8031,5669 " />
  <text
     style="font-style:normal;font-weight:normal;font-size:378px;font-family:Helvetica;text-anchor:end;fill:#000000;stroke-width:0.025in"
     id="text16"
     font-size="378"
     font-weight="normal"
     font-style="normal"
     y="4488"
     x="2125"
     xml:space="preserve">Intensität</text>
  <text
     style="font-style:normal;font-weight:normal;font-size:378px;font-family:Helvetica;text-anchor:start;fill:#ff0000;stroke-width:0.025in"
     id="text18"
     font-size="378"
     font-weight="normal"
     font-style="normal"
     y="5433"
     x="5196"
     xml:space="preserve">objektiv</text>
  <text
     style="font-style:normal;font-weight:normal;font-size:378px;font-family:Helvetica;text-anchor:start;fill:#0000ff;stroke-width:0.025in"
     id="text20"
     font-size="378"
     font-weight="normal"
     font-style="normal"
     y="4724"
     x="5196"
     xml:space="preserve">subjektiv</text>
  <polyline
     id="polyline22"
     style="fill:none;stroke:#0000ff;stroke-width:63;stroke-linecap:butt;stroke-linejoin:bevel"
     points="2362,5622 2365,5620 2370,5617 2381,5612 2396,5604 2417,5593 2444,5581 2472,5566 2503,5551 2536,5534 2567,5519 2599,5503 2628,5488 2657,5474 2683,5461 2708,5448 2731,5437 2753,5426 2774,5416 2794,5405 2814,5395 2834,5385 2854,5376 2874,5365 2894,5355 2915,5344 2935,5334 2957,5323 2979,5312 3001,5299 3023,5288 3045,5275 3068,5261 3090,5249 3112,5235 3134,5222 3156,5208 3177,5194 3197,5181 3217,5167 3236,5152 3255,5139 3273,5124 3291,5110 3309,5095 3327,5079 3343,5063 3361,5046 3379,5029 3398,5011 3416,4993 3434,4974 3451,4954 3469,4935 3487,4915 3504,4896 3521,4876 3537,4857 3551,4839 3566,4822 3580,4805 3593,4789 3605,4773 3616,4759 3627,4745 3637,4732 3652,4712 3666,4695 3679,4677 3692,4661 3703,4646 3715,4633 3725,4620 3735,4609 3743,4601 3752,4594 3759,4588 3766,4585 3773,4583 3779,4582 3785,4583 3792,4585 3799,4588 3806,4594 3815,4601 3823,4609 3833,4620 3843,4633 3855,4646 3866,4661 3879,4677 3892,4695 3906,4712 3921,4732 3931,4745 3942,4759 3953,4773 3965,4789 3979,4805 3992,4822 4007,4839 4022,4857 4037,4876 4054,4896 4071,4915 4089,4935 4107,4954 4124,4974 4142,4993 4160,5011 4179,5029 4197,5046 4215,5063 4232,5079 4249,5095 4267,5110 4285,5124 4303,5139 4322,5152 4341,5167 4361,5181 4381,5194 4402,5208 4424,5222 4446,5235 4468,5249 4490,5261 4513,5275 4535,5288 4557,5299 4579,5312 4601,5323 4623,5334 4643,5344 4664,5355 4684,5365 4704,5376 4724,5385 4744,5395 4764,5405 4784,5415 4805,5425 4826,5436 4847,5447 4869,5458 4891,5469 4914,5481 4937,5492 4960,5504 4983,5514 5006,5526 5029,5538 5051,5549 5074,5560 5095,5571 5116,5582 5137,5592 5156,5602 5176,5612 5196,5622 5216,5631 5236,5641 5256,5651 5277,5661 5298,5672 5319,5683 5341,5694 5363,5706 5386,5717 5409,5729 5433,5740 5456,5751 5479,5762 5502,5774 5524,5785 5546,5796 5567,5807 5588,5818 5609,5828 5629,5838 5649,5848 5669,5858 5689,5867 5709,5878 5729,5888 5750,5899 5770,5909 5792,5920 5814,5931 5836,5944 5858,5955 5880,5968 5903,5982 5925,5994 5947,6008 5969,6022 5991,6035 6012,6049 6032,6062 6052,6076 6071,6091 6090,6104 6108,6119 6125,6134 6143,6149 6161,6164 6178,6180 6196,6197 6214,6214 6233,6233 6250,6250 6268,6269 6286,6289 6304,6308 6322,6328 6339,6347 6355,6367 6371,6386 6386,6404 6401,6422 6414,6438 6428,6454 6439,6470 6451,6485 6461,6498 6472,6512 6489,6534 6506,6555 6520,6575 6534,6593 6548,6608 6560,6623 6571,6636 6581,6645 6591,6653 6599,6657 6606,6660 6614,6661 6621,6660 6628,6657 6637,6653 6646,6645 6657,6636 6667,6623 6680,6608 6693,6593 6707,6575 6722,6555 6739,6534 6755,6512 6766,6498 6776,6485 6788,6470 6800,6454 6813,6438 6827,6422 6841,6404 6856,6386 6872,6367 6889,6347 6906,6328 6923,6308 6941,6289 6959,6269 6977,6250 6995,6233 7014,6214 7032,6197 7049,6180 7066,6164 7084,6149 7102,6134 7120,6119 7138,6104 7156,6091 7175,6076 7195,6062 7215,6049 7236,6035 7258,6022 7280,6008 7302,5994 7324,5982 7348,5968 7370,5955 7392,5944 7414,5931 7436,5920 7458,5909 7478,5899 7499,5888 7519,5878 7539,5867 7559,5858 7579,5848 7598,5838 7618,5827 7639,5817 7661,5806 7685,5795 7710,5782 7736,5770 7764,5755 7794,5740 7825,5724 7857,5709 7889,5692 7921,5677 7949,5662 7975,5650 7996,5639 8012,5631 8023,5626 8028,5623 8031,5622 " />
</svg>
