<?xml version="1.0" encoding="UTF-8" standalone="no"?>
<!-- Creator: fig2dev Version 3.2 Patchlevel 5e -->

<!-- CreationDate: Wed Oct 28 11:20:06 2015 -->

<!-- Magnification: 1.050 -->

<svg
   xmlns:dc="http://purl.org/dc/elements/1.1/"
   xmlns:cc="http://creativecommons.org/ns#"
   xmlns:rdf="http://www.w3.org/1999/02/22-rdf-syntax-ns#"
   xmlns:svg="http://www.w3.org/2000/svg"
   xmlns="http://www.w3.org/2000/svg"
   xmlns:sodipodi="http://sodipodi.sourceforge.net/DTD/sodipodi-0.dtd"
   xmlns:inkscape="http://www.inkscape.org/namespaces/inkscape"
   width="11.7in"
   height="2.9in"
   viewBox="256 4094 14055 3506"
   id="svg2"
   version="1.1"
   inkscape:version="0.91 r13725"
   sodipodi:docname="fig_farbeTransparenzMaske.svg">
  <metadata
     id="metadata100">
    <rdf:RDF>
      <cc:Work
         rdf:about="">
        <dc:format>image/svg+xml</dc:format>
        <dc:type
           rdf:resource="http://purl.org/dc/dcmitype/StillImage" />
      </cc:Work>
    </rdf:RDF>
  </metadata>
  <defs
     id="defs98" />
  <sodipodi:namedview
     pagecolor="#ffffff"
     bordercolor="#666666"
     borderopacity="1"
     objecttolerance="10"
     gridtolerance="10"
     guidetolerance="10"
     inkscape:pageopacity="0"
     inkscape:pageshadow="2"
     inkscape:window-width="2418"
     inkscape:window-height="1261"
     id="namedview96"
     showgrid="false"
     inkscape:zoom="1.2221599"
     inkscape:cx="453.36485"
     inkscape:cy="105.80776"
     inkscape:window-x="142"
     inkscape:window-y="60"
     inkscape:window-maximized="1"
     inkscape:current-layer="svg2" />
  <rect
     id="rect6"
     style="fill:#ffbfbf;stroke:#ff0000;stroke-width:0;stroke-linecap:butt;stroke-linejoin:miter"
     rx="0"
     height="566"
     width="850"
     y="6377"
     x="4771" />
  <rect
     id="rect8"
     style="fill:#ffbfbf;stroke:#ff0000;stroke-width:0;stroke-linecap:butt;stroke-linejoin:miter"
     rx="0"
     height="566"
     width="944"
     y="6377"
     x="1700" />
  <polyline
     id="polyline10"
     style="fill:none;stroke:#000000;stroke-width:32;stroke-linecap:butt;stroke-linejoin:miter"
     points="6850,4724 8740,4724 " />
  <polyline
     id="polyline12"
     style="fill:none;stroke:#000000;stroke-width:32;stroke-linecap:butt;stroke-linejoin:miter"
     points="6850,4960 8740,4960 " />
  <polyline
     id="polyline14"
     style="fill:none;stroke:#000000;stroke-width:32;stroke-linecap:butt;stroke-linejoin:miter"
     points="6850,5196 8740,5196 " />
  <polyline
     id="polyline16"
     style="fill:none;stroke:#000000;stroke-width:32;stroke-linecap:butt;stroke-linejoin:miter"
     points="6850,5433 8740,5433 " />
  <polyline
     id="polyline18"
     style="fill:none;stroke:#000000;stroke-width:32;stroke-linecap:butt;stroke-linejoin:miter"
     points="6850,5669 8740,5669 " />
  <polyline
     id="polyline20"
     style="fill:none;stroke:#000000;stroke-width:32;stroke-linecap:butt;stroke-linejoin:miter"
     points="6850,5905 8740,5905 " />
  <polyline
     id="polyline22"
     style="fill:none;stroke:#000000;stroke-width:32;stroke-linecap:butt;stroke-linejoin:miter"
     points="6850,6141 8740,6141 " />
  <polyline
     id="polyline24"
     style="fill:none;stroke:#000000;stroke-width:32;stroke-linecap:butt;stroke-linejoin:miter"
     points="6850,6377 8740,6377 " />
  <polyline
     id="polyline26"
     style="fill:none;stroke:#000000;stroke-width:32;stroke-linecap:butt;stroke-linejoin:miter"
     points="6850,6614 8740,6614 " />
  <polyline
     id="polyline28"
     style="fill:none;stroke:#000000;stroke-width:32;stroke-linecap:butt;stroke-linejoin:miter"
     points="6850,4724 6850,6614 " />
  <polyline
     id="polyline30"
     style="fill:none;stroke:#000000;stroke-width:32;stroke-linecap:butt;stroke-linejoin:miter"
     points="7086,4724 7086,6614 " />
  <polyline
     id="polyline32"
     style="fill:none;stroke:#000000;stroke-width:32;stroke-linecap:butt;stroke-linejoin:miter"
     points="7322,4724 7322,6614 " />
  <polyline
     id="polyline34"
     style="fill:none;stroke:#000000;stroke-width:32;stroke-linecap:butt;stroke-linejoin:miter"
     points="7559,4724 7559,6614 " />
  <polyline
     id="polyline36"
     style="fill:none;stroke:#000000;stroke-width:32;stroke-linecap:butt;stroke-linejoin:miter"
     points="7795,4724 7795,6614 " />
  <polyline
     id="polyline38"
     style="fill:none;stroke:#000000;stroke-width:32;stroke-linecap:butt;stroke-linejoin:miter"
     points="8031,4724 8031,6614 " />
  <polyline
     id="polyline40"
     style="fill:none;stroke:#000000;stroke-width:32;stroke-linecap:butt;stroke-linejoin:miter"
     points="8267,4724 8267,6614 " />
  <polyline
     id="polyline42"
     style="fill:none;stroke:#000000;stroke-width:32;stroke-linecap:butt;stroke-linejoin:miter"
     points="8503,4724 8503,6614 " />
  <polyline
     id="polyline44"
     style="fill:none;stroke:#000000;stroke-width:32;stroke-linecap:butt;stroke-linejoin:miter"
     points="8740,4724 8740,6614 " />
  <rect
     id="rect46"
     style="fill:#000000;stroke:#000000;stroke-width:8;stroke-linecap:butt;stroke-linejoin:miter"
     rx="0"
     height="236"
     width="236"
     y="4724"
     x="7086" />
  <rect
     id="rect48"
     style="fill:#000000;stroke:#000000;stroke-width:8;stroke-linecap:butt;stroke-linejoin:miter"
     rx="0"
     height="236"
     width="236"
     y="4960"
     x="8031" />
  <rect
     id="rect50"
     style="fill:#000000;stroke:#000000;stroke-width:8;stroke-linecap:butt;stroke-linejoin:miter"
     rx="0"
     height="236"
     width="236"
     y="5433"
     x="7559" />
  <rect
     id="rect52"
     style="fill:#000000;stroke:#000000;stroke-width:8;stroke-linecap:butt;stroke-linejoin:miter"
     rx="0"
     height="236"
     width="236"
     y="5669"
     x="8503" />
  <rect
     id="rect54"
     style="fill:#000000;stroke:#000000;stroke-width:8;stroke-linecap:butt;stroke-linejoin:miter"
     rx="0"
     height="236"
     width="236"
     y="5905"
     x="7086" />
  <rect
     id="rect56"
     style="fill:#000000;stroke:#000000;stroke-width:8;stroke-linecap:butt;stroke-linejoin:miter"
     rx="0"
     height="236"
     width="236"
     y="6141"
     x="7795" />
  <polyline
     id="polyline58"
     style="fill:none;stroke:#000000;stroke-width:32;stroke-linecap:butt;stroke-linejoin:miter"
     points="2362,5905 1653,6141 " />
  <polyline
     id="polyline60"
     style="fill:none;stroke:#000000;stroke-width:32;stroke-linecap:butt;stroke-linejoin:miter"
     points="2598,5905 1889,6141 " />
  <polyline
     id="polyline62"
     style="fill:none;stroke:#000000;stroke-width:32;stroke-linecap:butt;stroke-linejoin:miter"
     points="3543,5905 4251,6141 " />
  <polyline
     id="polyline64"
     style="fill:none;stroke:#000000;stroke-width:32;stroke-linecap:butt;stroke-linejoin:miter"
     points="3779,5905 4488,6141 " />
  <polyline
     id="polyline66"
     style="fill:none;stroke:#ff0000;stroke-width:32;stroke-linecap:butt;stroke-linejoin:miter"
     points="7842,5716 7984,5858 " />
  <polyline
     id="polyline68"
     style="fill:none;stroke:#ff0000;stroke-width:32;stroke-linecap:butt;stroke-linejoin:miter"
     points="7984,5716 7842,5858 " />
  <polyline
     id="polyline70"
     style="fill:none;stroke:#000000;stroke-width:63;stroke-linecap:butt;stroke-linejoin:bevel"
     points="8976,5669 8978,5668 8984,5667 8994,5664 9009,5658 9030,5652 9057,5644 9088,5635 9124,5625 9163,5613 9203,5602 9244,5590 9285,5580 9324,5569 9363,5560 9399,5550 9435,5543 9467,5535 9498,5529 9528,5524 9555,5520 9583,5517 9609,5514 9634,5512 9659,5511 9685,5511 9710,5511 9735,5512 9760,5514 9786,5517 9814,5520 9841,5524 9871,5529 9902,5535 9934,5543 9970,5550 10006,5560 10045,5569 10085,5580 10125,5590 10166,5602 10206,5613 10245,5625 10281,5635 10312,5644 10339,5652 10360,5658 10153,5593 " />
  <polygon
     id="polygon72"
     style="fill:#000000;stroke:#000000;stroke-width:63;stroke-miterlimit:8"
     points="10233,5535 10149,5592 10185,5687 10185,5687 10390,5668 " />
  <polyline
     id="polyline74"
     style="fill:none;stroke:#ff0000;stroke-width:63;stroke-linecap:butt;stroke-linejoin:bevel"
     points="5196,7086 5196,7089 5198,7097 5201,7107 5204,7123 5209,7142 5215,7162 5224,7183 5233,7202 5244,7218 5256,7233 5271,7247 5288,7258 5307,7268 5329,7276 5354,7283 5371,7287 5390,7291 5409,7294 5430,7296 5454,7298 5477,7300 5502,7300 5528,7300 5555,7299 5583,7296 5611,7293 5639,7288 5669,7282 5698,7274 5727,7266 5755,7255 5782,7244 5809,7230 5836,7215 5861,7200 5884,7182 5907,7163 5928,7142 5948,7120 5967,7096 5984,7070 5997,7046 6011,7021 6024,6994 6035,6965 6046,6935 6057,6903 6067,6871 6076,6836 6086,6800 6094,6763 6102,6725 6111,6686 6118,6646 6125,6605 6133,6565 6139,6524 6146,6485 6153,6445 6159,6406 6165,6367 6172,6330 6178,6293 6184,6259 6191,6225 6198,6193 6204,6162 6212,6133 6219,6106 6227,6079 6236,6055 6247,6026 6260,6000 6272,5975 6288,5953 6305,5933 6323,5914 6344,5897 6366,5881 6391,5866 6417,5851 6447,5838 6477,5826 6510,5815 6542,5804 6574,5795 6604,5786 6633,5779 6657,5774 6677,5770 6461,5812 " />
  <polygon
     id="polygon76"
     style="fill:#ff0000;stroke:#ff0000;stroke-width:63;stroke-miterlimit:8"
     points="6503,5724 6457,5814 6535,5879 6535,5879 6705,5764 " />
  <polyline
     id="polyline78"
     style="fill:none;stroke:#ff0000;stroke-width:63;stroke-linecap:butt;stroke-linejoin:bevel"
     points="2125,7086 2127,7087 2128,7089 2132,7092 2137,7099 2144,7106 2155,7117 2169,7129 2184,7144 2204,7161 2226,7179 2250,7197 2278,7217 2307,7238 2338,7258 2371,7278 2406,7298 2441,7316 2479,7334 2519,7351 2560,7366 2602,7381 2647,7395 2695,7407 2744,7419 2796,7429 2852,7440 2912,7448 2975,7458 3042,7465 3112,7472 3189,7480 3232,7483 3277,7487 3323,7490 3371,7493 3420,7497 3470,7500 3523,7503 3575,7506 3631,7509 3687,7511 3744,7514 3803,7517 3864,7519 3925,7521 3988,7523 4052,7525 4117,7527 4183,7529 4251,7531 4320,7532 4389,7534 4458,7535 4530,7537 4601,7538 4672,7539 4745,7540 4817,7541 4891,7542 4963,7542 5037,7543 5109,7543 5183,7544 5255,7544 5327,7544 5398,7544 5469,7544 5540,7543 5609,7543 5678,7543 5745,7542 5813,7542 5879,7541 5943,7540 6007,7539 6069,7538 6130,7537 6190,7535 6247,7534 6305,7533 6361,7532 6414,7530 6468,7529 6518,7528 6569,7526 6618,7525 6665,7523 6710,7521 6755,7520 6833,7516 6908,7512 6978,7508 7045,7504 7109,7500 7170,7495 7229,7489 7285,7484 7337,7479 7386,7472 7434,7466 7478,7459 7520,7453 7559,7445 7594,7438 7628,7429 7658,7421 7686,7414 7712,7404 7735,7396 7755,7387 7774,7378 7791,7370 7805,7360 7818,7351 7828,7341 7839,7332 7847,7322 7855,7313 7862,7302 7868,7293 7874,7283 7882,7267 7889,7249 7896,7231 7902,7211 7907,7189 7911,7166 7916,7140 7920,7112 7923,7082 7926,7049 7928,7016 7930,6981 7932,6949 7933,6919 7935,6894 7930,7101 " />
  <polygon
     id="polygon80"
     style="fill:#ff0000;stroke:#ff0000;stroke-width:63;stroke-miterlimit:8"
     points="7854,7040 7931,7104 8011,7043 8011,7043 7937,6853 " />
  <text
     style="font-style:normal;font-weight:normal;font-size:378px;font-family:Helvetica;text-anchor:middle;fill:#000000;stroke-width:0.025in"
     id="text82"
     font-size="378"
     font-weight="normal"
     font-style="normal"
     y="4488"
     x="7795"
     xml:space="preserve">Transparenzmaske 90\,\%</text>
  <text
     style="font-style:normal;font-weight:normal;font-size:378px;font-family:Helvetica;text-anchor:start;fill:#000000;stroke-width:0.025in"
     id="text84"
     font-size="378"
     font-weight="normal"
     font-style="normal"
     y="5905"
     x="10629"
     xml:space="preserve">nicht zeichnen</text>
  <text
     style="font-style:normal;font-weight:normal;font-size:378px;font-family:Helvetica;text-anchor:start;fill:#000000;stroke-width:0.025in"
     id="text86"
     font-size="378"
     font-weight="normal"
     font-style="normal"
     y="5669"
     x="472"
     xml:space="preserve">Pixel $(100, 83)$</text>
  <text
     style="font-style:normal;font-weight:normal;font-size:378px;font-family:Helvetica;text-anchor:end;fill:#000000;stroke-width:0.025in"
     id="text88"
     font-size="378"
     font-weight="normal"
     font-style="normal"
     y="6850"
     x="2839.7937"
     xml:space="preserve">$01100100₂$</text>
  <text
     style="font-style:normal;font-weight:normal;font-size:378px;font-family:Helvetica;text-anchor:end;fill:#000000;stroke-width:0.025in"
     id="text92"
     font-size="378"
     font-weight="normal"
     font-style="normal"
     y="6850"
     x="5883.9258"
     xml:space="preserve">$01010011₂$</text>
</svg>
