<?xml version="1.0" encoding="UTF-8" standalone="no"?>
<!-- Creator: fig2dev Version 3.2 Patchlevel 5e -->

<!-- CreationDate: Thu Sep 24 11:54:28 2015 -->

<!-- Magnification: 1.050 -->

<svg
   xmlns:dc="http://purl.org/dc/elements/1.1/"
   xmlns:cc="http://creativecommons.org/ns#"
   xmlns:rdf="http://www.w3.org/1999/02/22-rdf-syntax-ns#"
   xmlns:svg="http://www.w3.org/2000/svg"
   xmlns="http://www.w3.org/2000/svg"
   xmlns:sodipodi="http://sodipodi.sourceforge.net/DTD/sodipodi-0.dtd"
   xmlns:inkscape="http://www.inkscape.org/namespaces/inkscape"
   width="15.6in"
   height="10.0in"
   viewBox="3291 1070 18711 11955"
   id="svg2"
   version="1.1"
   inkscape:version="0.92.2 5c3e80d, 2017-08-06"
   sodipodi:docname="fig_fragestellung.svg">
  <metadata
     id="metadata134">
    <rdf:RDF>
      <cc:Work
         rdf:about="">
        <dc:format>image/svg+xml</dc:format>
        <dc:type
           rdf:resource="http://purl.org/dc/dcmitype/StillImage" />
      </cc:Work>
    </rdf:RDF>
  </metadata>
  <defs
     id="defs132" />
  <sodipodi:namedview
     pagecolor="#ffffff"
     bordercolor="#666666"
     borderopacity="1"
     objecttolerance="10"
     gridtolerance="10"
     guidetolerance="10"
     inkscape:pageopacity="0"
     inkscape:pageshadow="2"
     inkscape:window-width="2432"
     inkscape:window-height="1273"
     id="namedview130"
     showgrid="false"
     inkscape:zoom="0.74167645"
     inkscape:cx="351.88912"
     inkscape:cy="427.17079"
     inkscape:window-x="128"
     inkscape:window-y="60"
     inkscape:window-maximized="1"
     inkscape:current-layer="svg2" />
  <path
     inkscape:connector-curvature="0"
     id="path6"
     d="m 5905,2598 a 16814,16814 0 0 1 9685,0"
     style="fill:none;stroke:#a14000;stroke-width:63;stroke-linecap:butt" />
  <polygon
     id="polygon8"
     style="fill:#a14000;stroke:#a14000;stroke-width:8;stroke-miterlimit:8"
     points="15296,2382 15155,2473 15227,2624 15227,2624 15580,2595 " />
  <polyline
     id="polyline10"
     style="fill:none;stroke:#ff0000;stroke-width:32;stroke-linecap:butt;stroke-linejoin:miter"
     points="7559,9448 5669,10157 " />
  <polyline
     id="polyline12"
     style="fill:none;stroke:#ff0000;stroke-width:32;stroke-linecap:butt;stroke-linejoin:miter"
     points="8031,9448 9921,10157 " />
  <polyline
     id="polyline14"
     style="fill:none;stroke:#ff0000;stroke-width:32;stroke-linecap:butt;stroke-linejoin:miter"
     points="5196,10866 4488,11338 " />
  <polyline
     id="polyline16"
     style="fill:none;stroke:#ff0000;stroke-width:32;stroke-linecap:butt;stroke-linejoin:miter"
     points="5669,10866 6377,11338 " />
  <polyline
     id="polyline18"
     style="fill:none;stroke:#ff0000;stroke-width:32;stroke-linecap:butt;stroke-linejoin:miter"
     points="9921,10866 9212,11338 " />
  <polyline
     id="polyline20"
     style="fill:none;stroke:#ff0000;stroke-width:32;stroke-linecap:butt;stroke-linejoin:miter"
     points="10393,10866 11102,11338 " />
  <polyline
     id="polyline22"
     style="fill:none;stroke:#ff0000;stroke-width:32;stroke-linecap:butt;stroke-linejoin:miter"
     points="4015,12519 3543,12992 " />
  <polyline
     id="polyline24"
     style="fill:none;stroke:#ff0000;stroke-width:32;stroke-linecap:butt;stroke-linejoin:miter"
     points="4488,12519 4960,12992 " />
  <polyline
     id="polyline26"
     style="fill:none;stroke:#ff0000;stroke-width:32;stroke-linecap:butt;stroke-linejoin:miter"
     points="6377,12047 5905,12519 " />
  <polyline
     id="polyline28"
     style="fill:none;stroke:#ff0000;stroke-width:32;stroke-linecap:butt;stroke-linejoin:miter"
     points="6850,12047 7322,12519 " />
  <polyline
     id="polyline30"
     style="fill:none;stroke:#ff0000;stroke-width:32;stroke-linecap:butt;stroke-linejoin:miter"
     points="8740,12047 8267,12519 " />
  <polyline
     id="polyline32"
     style="fill:none;stroke:#ff0000;stroke-width:32;stroke-linecap:butt;stroke-linejoin:miter"
     points="9212,12047 9685,12519 " />
  <rect
     id="rect34"
     style="fill:none;stroke:#000000;stroke-width:32;stroke-linecap:butt;stroke-linejoin:miter"
     rx="0"
     height="5196"
     width="6614"
     y="5433"
     x="14645" />
  <polyline
     id="polyline36"
     style="fill:none;stroke:#000000;stroke-width:32;stroke-linecap:butt;stroke-linejoin:miter"
     points="14645,5433 15826,4724 21968,4724 21259,5433 " />
  <polyline
     id="polyline38"
     style="fill:none;stroke:#000000;stroke-width:32;stroke-linecap:butt;stroke-linejoin:miter"
     points="21968,4724 21968,9685 21259,10629 " />
  <rect
     id="rect40"
     style="fill:none;stroke:#000000;stroke-width:32;stroke-linecap:butt;stroke-linejoin:miter"
     rx="110"
     height="4724"
     width="6141"
     y="5669"
     x="14881" />
  <rect
     id="rect42"
     style="fill:none;stroke:#0000ff;stroke-width:32;stroke-linecap:butt;stroke-linejoin:miter"
     rx="0"
     height="2125"
     width="2362"
     y="5905"
     x="15118" />
  <rect
     id="rect44"
     style="fill:#7f7fff;stroke:#0000ff;stroke-width:16;stroke-linecap:butt;stroke-linejoin:miter"
     rx="0"
     height="803"
     width="472"
     y="7228"
     x="15354" />
  <rect
     id="rect46"
     style="fill:#7f7fff;stroke:#0000ff;stroke-width:16;stroke-linecap:butt;stroke-linejoin:miter"
     rx="0"
     height="472"
     width="472"
     y="7559"
     x="15826" />
  <rect
     id="rect48"
     style="fill:#7f7fff;stroke:#0000ff;stroke-width:16;stroke-linecap:butt;stroke-linejoin:miter"
     rx="0"
     height="1937"
     width="472"
     y="6094"
     x="16299" />
  <rect
     id="rect50"
     style="fill:#7f7fff;stroke:#0000ff;stroke-width:16;stroke-linecap:butt;stroke-linejoin:miter"
     rx="0"
     height="1275"
     width="472"
     y="6755"
     x="16771" />
  <rect
     id="rect52"
     style="fill:none;stroke:#00b000;stroke-width:16;stroke-linecap:butt;stroke-linejoin:miter"
     rx="0"
     height="1889"
     width="2362"
     y="8267"
     x="15118" />
  <polyline
     id="polyline54"
     style="fill:none;stroke:#00b000;stroke-width:8;stroke-linecap:butt;stroke-linejoin:miter;stroke-dasharray:41, 41"
     points="16299,8267 16299,10157 " />
  <polyline
     id="polyline56"
     style="fill:none;stroke:#00b000;stroke-width:8;stroke-linecap:butt;stroke-linejoin:miter;stroke-dasharray:41, 41"
     points="15118,9212 17480,9212 " />
  <rect
     id="rect58"
     style="fill:none;stroke:#ff0000;stroke-width:16;stroke-linecap:butt;stroke-linejoin:miter"
     rx="0"
     height="3070"
     width="3070"
     y="6614"
     x="17716" />
  <polygon
     id="polygon60"
     style="fill:none;stroke:#ff0000;stroke-width:16;stroke-linecap:butt;stroke-linejoin:miter"
     points="18425,7795 18897,8503 18897,9212 17952,9212 17952,9212 17952,8503 " />
  <polygon
     id="polygon62"
     style="fill:none;stroke:#ff0000;stroke-width:16;stroke-linecap:butt;stroke-linejoin:miter"
     points="19606,8267 18897,8503 18425,7795 18425,7795 19133,7559 " />
  <polygon
     id="polygon64"
     style="fill:none;stroke:#ff0000;stroke-width:16;stroke-linecap:butt;stroke-linejoin:miter"
     points="19606,8976 18897,9212 18897,8503 18897,8503 19606,8267 " />
  <rect
     id="rect66"
     style="fill:none;stroke:#ff0000;stroke-width:16;stroke-linecap:butt;stroke-linejoin:miter"
     rx="0"
     height="188"
     width="188"
     y="8220"
     x="18330" />
  <rect
     id="rect68"
     style="fill:none;stroke:#ff0000;stroke-width:16;stroke-linecap:butt;stroke-linejoin:miter"
     rx="0"
     height="472"
     width="283"
     y="8740"
     x="18283" />
  <polygon
     id="polygon70"
     style="fill:none;stroke:#ff0000;stroke-width:16;stroke-linecap:butt;stroke-linejoin:miter"
     points="19275,8598 18992,8692 18992,8976 18992,8976 19275,8881 " />
  <polygon
     id="polygon72"
     style="fill:none;stroke:#ff0000;stroke-width:16;stroke-linecap:butt;stroke-linejoin:miter"
     points="19511,8787 19511,8503 19370,8551 19370,8551 19370,8834 " />
  <polyline
     id="polyline74"
     style="fill:none;stroke:#00b000;stroke-width:16;stroke-linecap:butt;stroke-linejoin:bevel"
     points="15118,9212 15119,9210 15123,9205 15128,9194 15138,9180 15150,9160 15166,9134 15185,9105 15206,9071 15229,9036 15252,8998 15276,8960 15300,8923 15323,8888 15345,8854 15367,8823 15387,8793 15406,8767 15424,8742 15441,8720 15457,8700 15471,8681 15486,8664 15500,8648 15513,8635 15527,8622 15542,8608 15555,8597 15570,8585 15585,8576 15600,8566 15614,8559 15630,8552 15645,8546 15660,8542 15676,8539 15692,8537 15709,8536 15724,8537 15740,8539 15756,8542 15772,8546 15786,8552 15802,8559 15817,8566 15832,8576 15846,8585 15861,8597 15875,8608 15889,8622 15903,8635 15917,8648 15930,8663 15945,8680 15959,8697 15974,8716 15989,8735 16005,8755 16022,8777 16037,8801 16054,8825 16071,8849 16089,8874 16106,8900 16122,8927 16139,8953 16157,8979 16174,9006 16190,9033 16206,9059 16222,9085 16238,9111 16254,9137 16268,9162 16284,9187 16299,9212 16313,9237 16329,9262 16344,9288 16360,9313 16375,9339 16391,9365 16408,9392 16424,9418 16440,9445 16458,9471 16475,9498 16492,9524 16509,9550 16527,9575 16543,9600 16560,9624 16576,9647 16593,9669 16608,9689 16623,9709 16639,9728 16653,9744 16667,9761 16681,9776 16695,9790 16708,9803 16723,9816 16737,9827 16751,9839 16766,9848 16781,9858 16795,9865 16811,9872 16826,9878 16841,9882 16857,9885 16873,9887 16890,9888 16906,9887 16921,9885 16937,9882 16953,9878 16967,9872 16983,9865 16998,9858 17013,9848 17027,9839 17042,9827 17056,9816 17070,9803 17084,9790 17098,9776 17111,9760 17126,9743 17141,9724 17156,9704 17173,9682 17191,9657 17210,9631 17230,9602 17252,9570 17274,9537 17297,9501 17321,9464 17345,9426 17369,9388 17392,9353 17413,9319 17432,9290 17447,9265 17460,9245 17469,9230 17475,9219 17479,9214 17480,9212 " />
  <polyline
     id="polyline76"
     style="fill:none;stroke:#ff0000;stroke-width:16;stroke-linecap:butt;stroke-linejoin:bevel"
     points="20220,9448 20220,9447 20220,9444 20221,9434 20222,9417 20224,9393 20225,9362 20227,9328 20228,9292 20229,9256 20230,9223 20230,9191 20229,9163 20227,9139 20224,9117 20221,9098 20217,9082 20211,9067 20204,9055 20196,9042 20185,9030 20174,9020 20160,9011 20145,9001 20129,8993 20112,8984 20093,8976 20074,8967 20054,8959 20034,8951 20014,8941 19994,8932 19974,8921 19955,8910 19937,8897 19922,8886 19906,8873 19890,8859 19876,8845 19860,8828 19844,8810 19828,8791 19814,8771 19799,8750 19784,8729 19771,8706 19758,8683 19746,8661 19736,8638 19728,8615 19719,8592 19713,8570 19708,8546 19703,8525 19700,8503 19699,8481 19698,8459 19699,8437 19701,8415 19704,8392 19709,8368 19715,8345 19721,8321 19729,8297 19737,8272 19746,8249 19756,8226 19766,8203 19777,8182 19787,8161 19798,8141 19809,8122 19820,8104 19832,8087 19842,8071 19856,8050 19869,8031 19883,8012 19898,7993 19912,7973 19926,7955 19941,7937 19954,7919 19968,7901 19982,7884 19993,7867 20005,7851 20014,7837 20024,7822 20032,7808 20039,7795 20046,7779 20053,7763 20058,7748 20064,7730 20069,7713 20074,7695 20078,7676 20082,7658 20088,7640 20093,7624 20098,7606 20103,7590 20111,7574 20118,7559 20124,7547 20131,7534 20139,7523 20148,7510 20157,7499 20167,7487 20178,7477 20190,7467 20202,7458 20215,7450 20227,7444 20240,7439 20253,7437 20265,7435 20278,7436 20290,7438 20303,7442 20314,7448 20324,7455 20334,7463 20344,7472 20354,7484 20365,7497 20375,7511 20387,7528 20397,7546 20408,7566 20419,7587 20430,7609 20441,7633 20452,7658 20462,7685 20473,7712 20482,7739 20492,7766 20501,7795 20510,7824 20519,7854 20527,7883 20535,7913 20541,7939 20548,7966 20555,7993 20561,8022 20566,8051 20573,8081 20579,8112 20584,8143 20590,8176 20595,8208 20599,8241 20603,8274 20607,8307 20611,8340 20614,8371 20616,8404 20618,8434 20619,8464 20619,8493 20619,8520 20619,8546 20617,8572 20616,8596 20613,8619 20609,8640 20606,8661 20600,8686 20593,8710 20584,8732 20575,8754 20564,8775 20553,8796 20541,8815 20528,8834 20514,8853 20500,8871 20486,8888 20472,8904 20458,8920 20445,8935 20431,8951 20418,8965 20407,8979 20396,8994 20387,9008 20377,9023 20369,9039 20362,9055 20355,9072 20349,9091 20344,9112 20340,9135 20335,9161 20331,9188 20328,9218 20325,9251 20323,9283 20321,9317 20319,9350 20318,9379 20316,9404 20316,9424 20314,9437 20314,9445 20314,9448 " />
  <text
     style="font-style:normal;font-weight:normal;font-size:454px;line-height:0%;font-family:Times;text-anchor:start;fill:#a14000;stroke-width:0.025in"
     id="text78"
     font-size="454"
     font-weight="normal"
     font-style="normal"
     y="1653"
     x="10157"
     xml:space="preserve">?</text>
  <text
     style="font-style:normal;font-weight:normal;font-size:303px;line-height:0%;font-family:Helvetica;text-anchor:middle;fill:#ff0000;stroke-width:0.025in"
     id="text80"
     font-size="303"
     font-weight="normal"
     font-style="normal"
     y="12755"
     x="4251"
     xml:space="preserve">…</text>
  <text
     style="font-style:normal;font-weight:normal;font-size:303px;line-height:0%;font-family:Helvetica;text-anchor:middle;fill:#ff0000;stroke-width:0.025in"
     id="text82"
     font-size="303"
     font-weight="normal"
     font-style="normal"
     y="12283"
     x="6614"
     xml:space="preserve">…</text>
  <text
     style="font-style:normal;font-weight:normal;font-size:303px;line-height:0%;font-family:Helvetica;text-anchor:middle;fill:#ff0000;stroke-width:0.025in"
     id="text84"
     font-size="303"
     font-weight="normal"
     font-style="normal"
     y="9685"
     x="7795"
     xml:space="preserve">…</text>
  <text
     style="font-style:normal;font-weight:normal;font-size:303px;line-height:0%;font-family:Helvetica;text-anchor:middle;fill:#ff0000;stroke-width:0.025in"
     id="text86"
     font-size="303"
     font-weight="normal"
     font-style="normal"
     y="11102"
     x="5433"
     xml:space="preserve">…</text>
  <text
     style="font-style:normal;font-weight:normal;font-size:303px;line-height:0%;font-family:Helvetica;text-anchor:middle;fill:#ff0000;stroke-width:0.025in"
     id="text88"
     font-size="303"
     font-weight="normal"
     font-style="normal"
     y="12283"
     x="8976"
     xml:space="preserve">…</text>
  <text
     style="font-style:normal;font-weight:normal;font-size:303px;line-height:0%;font-family:Helvetica;text-anchor:middle;fill:#ff0000;stroke-width:0.025in"
     id="text90"
     font-size="303"
     font-weight="normal"
     font-style="normal"
     y="11102"
     x="10157"
     xml:space="preserve">…</text>
  <text
     style="font-style:normal;font-variant:normal;font-weight:bold;font-stretch:normal;font-size:404.00567627px;line-height:0%;font-family:sans-serif;-inkscape-font-specification:'sans-serif, Bold';text-align:start;writing-mode:lr-tb;text-anchor:start;fill:#000000;stroke-width:0.025in"
     id="text92"
     font-size="404"
     font-weight="normal"
     font-style="normal"
     y="3070"
     x="3307"
     xml:space="preserve">Daten und Modelle:</text>
  <text
     style="font-style:normal;font-weight:normal;font-size:404px;line-height:0%;font-family:Times;text-anchor:start;fill:#00b000;stroke-width:0.025in"
     id="text94"
     font-size="404"
     font-weight="normal"
     font-style="normal"
     y="4251"
     x="3543"
     xml:space="preserve">$y = \sin(x)$, $x ∈ [0; 2π]$</text>
  <text
     style="font-style:normal;font-variant:normal;font-weight:bold;font-stretch:normal;font-size:404.00567627px;line-height:0%;font-family:sans-serif;-inkscape-font-specification:'sans-serif, Bold';text-align:start;writing-mode:lr-tb;text-anchor:start;fill:#000000;stroke-width:0.025in"
     id="text96"
     font-size="404"
     font-weight="normal"
     font-style="normal"
     y="3070"
     x="14409"
     xml:space="preserve">Grafische Darstellung:</text>
  <text
     style="font-style:normal;font-weight:normal;font-size:404px;line-height:0%;font-family:Times;text-anchor:start;fill:#0000ff;stroke-width:0.025in"
     id="text98"
     font-size="404"
     font-weight="normal"
     font-style="normal"
     y="5669"
     x="5669"
     xml:space="preserve">Jan</text>
  <text
     style="font-style:normal;font-weight:normal;font-size:404px;line-height:0%;font-family:Times;text-anchor:start;fill:#0000ff;stroke-width:0.025in"
     id="text100"
     font-size="404"
     font-weight="normal"
     font-style="normal"
     y="6377"
     x="5669"
     xml:space="preserve">Feb</text>
  <text
     style="font-style:normal;font-weight:normal;font-size:404px;line-height:0%;font-family:Times;text-anchor:start;fill:#0000ff;stroke-width:0.025in"
     id="text102"
     font-size="404"
     font-weight="normal"
     font-style="normal"
     y="7086"
     x="5669"
     xml:space="preserve">Mrz</text>
  <text
     style="font-style:normal;font-weight:normal;font-size:404px;line-height:0%;font-family:Times;text-anchor:start;fill:#0000ff;stroke-width:0.025in"
     id="text104"
     font-size="404"
     font-weight="normal"
     font-style="normal"
     y="7795"
     x="5669"
     xml:space="preserve">Apr</text>
  <text
     style="font-style:normal;font-weight:normal;font-size:404px;line-height:0%;font-family:Times;text-anchor:end;fill:#0000ff;stroke-width:0.025in"
     id="text106"
     font-size="404"
     font-weight="normal"
     font-style="normal"
     y="7795"
     x="8503"
     xml:space="preserve">18,2 Mio</text>
  <text
     style="font-style:normal;font-weight:normal;font-size:404px;line-height:0%;font-family:Times;text-anchor:end;fill:#0000ff;stroke-width:0.025in"
     id="text108"
     font-size="404"
     font-weight="normal"
     font-style="normal"
     y="7086"
     x="8503"
     xml:space="preserve">27,4 Mio</text>
  <text
     style="font-style:normal;font-weight:normal;font-size:404px;line-height:0%;font-family:Times;text-anchor:end;fill:#0000ff;stroke-width:0.025in"
     id="text110"
     font-size="404"
     font-weight="normal"
     font-style="normal"
     y="6377"
     x="8503"
     xml:space="preserve">6,7 Mio</text>
  <text
     style="font-style:normal;font-weight:normal;font-size:404px;line-height:0%;font-family:Times;text-anchor:end;fill:#0000ff;stroke-width:0.025in"
     id="text112"
     font-size="404"
     font-weight="normal"
     font-style="normal"
     y="5669"
     x="8503"
     xml:space="preserve">11,3 Mio</text>
  <text
     style="font-style:normal;font-weight:normal;font-size:404px;line-height:0%;font-family:Times;text-anchor:middle;fill:#ff0000;stroke-width:0.025in"
     id="text114"
     font-size="404"
     font-weight="normal"
     font-style="normal"
     y="9212"
     x="7795"
     xml:space="preserve">Grundstück</text>
  <text
     style="font-style:normal;font-weight:normal;font-size:404px;line-height:0%;font-family:Times;text-anchor:middle;fill:#ff0000;stroke-width:0.025in"
     id="text116"
     font-size="404"
     font-weight="normal"
     font-style="normal"
     y="10629"
     x="10157"
     xml:space="preserve">Baum</text>
  <text
     style="font-style:normal;font-weight:normal;font-size:404px;line-height:0%;font-family:Times;text-anchor:middle;fill:#ff0000;stroke-width:0.025in"
     id="text118"
     font-size="404"
     font-weight="normal"
     font-style="normal"
     y="11811"
     x="8976"
     xml:space="preserve">Stamm</text>
  <text
     style="font-style:normal;font-weight:normal;font-size:404px;line-height:0%;font-family:Times;text-anchor:middle;fill:#ff0000;stroke-width:0.025in"
     id="text120"
     font-size="404"
     font-weight="normal"
     font-style="normal"
     y="11811"
     x="6614"
     xml:space="preserve">Dach</text>
  <text
     style="font-style:normal;font-weight:normal;font-size:404px;line-height:0%;font-family:Times;text-anchor:middle;fill:#ff0000;stroke-width:0.025in"
     id="text122"
     font-size="404"
     font-weight="normal"
     font-style="normal"
     y="10629"
     x="5433"
     xml:space="preserve">Haus</text>
  <text
     style="font-style:normal;font-weight:normal;font-size:404px;line-height:0%;font-family:Times;text-anchor:middle;fill:#ff0000;stroke-width:0.025in"
     id="text124"
     font-size="404"
     font-weight="normal"
     font-style="normal"
     y="11811"
     x="4251"
     xml:space="preserve">Giebel-</text>
  <text
     style="font-style:normal;font-weight:normal;font-size:404px;line-height:0%;font-family:Times;text-anchor:middle;fill:#ff0000;stroke-width:0.025in"
     id="text126"
     font-size="404"
     font-weight="normal"
     font-style="normal"
     y="12283"
     x="4251"
     xml:space="preserve">front</text>
  <text
     style="font-style:normal;font-weight:normal;font-size:404px;line-height:0%;font-family:Times;text-anchor:start;fill:#0000ff;stroke-width:0.025in"
     id="text128"
     font-size="404"
     font-weight="normal"
     font-style="normal"
     y="5669"
     x="3543"
     xml:space="preserve">Umsatz:</text>
</svg>
