<?xml version="1.0" encoding="UTF-8" standalone="no"?>
<!-- Creator: fig2dev Version 3.2 Patchlevel 5e -->

<!-- CreationDate: Wed Oct 21 16:20:54 2015 -->

<!-- Magnification: 1.050 -->

<svg
   xmlns:dc="http://purl.org/dc/elements/1.1/"
   xmlns:cc="http://creativecommons.org/ns#"
   xmlns:rdf="http://www.w3.org/1999/02/22-rdf-syntax-ns#"
   xmlns:svg="http://www.w3.org/2000/svg"
   xmlns="http://www.w3.org/2000/svg"
   xmlns:sodipodi="http://sodipodi.sourceforge.net/DTD/sodipodi-0.dtd"
   xmlns:inkscape="http://www.inkscape.org/namespaces/inkscape"
   width="9.8in"
   height="6.3in"
   viewBox="3520 444 11710 7512"
   id="svg2"
   version="1.1"
   inkscape:version="0.91 r13725"
   sodipodi:docname="fig_sichtPaintersGitter.svg">
  <metadata
     id="metadata166">
    <rdf:RDF>
      <cc:Work
         rdf:about="">
        <dc:format>image/svg+xml</dc:format>
        <dc:type
           rdf:resource="http://purl.org/dc/dcmitype/StillImage" />
      </cc:Work>
    </rdf:RDF>
  </metadata>
  <defs
     id="defs164" />
  <sodipodi:namedview
     pagecolor="#ffffff"
     bordercolor="#666666"
     borderopacity="1"
     objecttolerance="10"
     gridtolerance="10"
     guidetolerance="10"
     inkscape:pageopacity="0"
     inkscape:pageshadow="2"
     inkscape:window-width="2418"
     inkscape:window-height="1261"
     id="namedview162"
     showgrid="false"
     inkscape:zoom="0.83245147"
     inkscape:cx="466.82864"
     inkscape:cy="344.36563"
     inkscape:window-x="142"
     inkscape:window-y="60"
     inkscape:window-maximized="1"
     inkscape:current-layer="svg2" />
  <polygon
     id="polygon6"
     style="fill:none;stroke:#00b000;stroke-width:16;stroke-linecap:butt;stroke-linejoin:round"
     points="13937,2598 11102,6850 3543,4960 3543,4960 6377,708 " />
  <polyline
     id="polyline8"
     style="fill:none;stroke:#00b000;stroke-width:16;stroke-linecap:butt;stroke-linejoin:round"
     points="4015,4251 11574,6141 " />
  <polyline
     id="polyline10"
     style="fill:none;stroke:#00b000;stroke-width:16;stroke-linecap:butt;stroke-linejoin:round"
     points="4488,3543 12047,5433 " />
  <polyline
     id="polyline12"
     style="fill:none;stroke:#00b000;stroke-width:16;stroke-linecap:butt;stroke-linejoin:round"
     points="4960,2834 12519,4724 " />
  <polyline
     id="polyline14"
     style="fill:none;stroke:#00b000;stroke-width:16;stroke-linecap:butt;stroke-linejoin:round"
     points="5433,2125 12992,4015 " />
  <polyline
     id="polyline16"
     style="fill:none;stroke:#00b000;stroke-width:16;stroke-linecap:butt;stroke-linejoin:round"
     points="5905,1417 13464,3307 " />
  <polyline
     id="polyline18"
     style="fill:none;stroke:#00b000;stroke-width:16;stroke-linecap:butt;stroke-linejoin:round"
     points="4488,5196 7322,944 " />
  <polyline
     id="polyline20"
     style="fill:none;stroke:#00b000;stroke-width:16;stroke-linecap:butt;stroke-linejoin:round"
     points="5433,5433 8267,1181 " />
  <polyline
     id="polyline22"
     style="fill:none;stroke:#00b000;stroke-width:16;stroke-linecap:butt;stroke-linejoin:round"
     points="6377,5669 9212,1417 " />
  <polyline
     id="polyline24"
     style="fill:none;stroke:#00b000;stroke-width:16;stroke-linecap:butt;stroke-linejoin:round"
     points="7322,5905 10157,1653 " />
  <polyline
     id="polyline26"
     style="fill:none;stroke:#00b000;stroke-width:16;stroke-linecap:butt;stroke-linejoin:round"
     points="8267,6141 11102,1889 " />
  <polyline
     id="polyline28"
     style="fill:none;stroke:#00b000;stroke-width:16;stroke-linecap:butt;stroke-linejoin:round"
     points="9212,6377 12047,2125 " />
  <polyline
     id="polyline30"
     style="fill:none;stroke:#00b000;stroke-width:16;stroke-linecap:butt;stroke-linejoin:round"
     points="10157,6614 12992,2362 " />
  <polyline
     id="polyline32"
     style="fill:none;stroke:#00b000;stroke-width:16;stroke-linecap:butt;stroke-linejoin:round"
     points="5905,1417 7322,944 " />
  <polyline
     id="polyline34"
     style="fill:none;stroke:#00b000;stroke-width:16;stroke-linecap:butt;stroke-linejoin:round"
     points="5433,2125 8267,1181 " />
  <polyline
     id="polyline36"
     style="fill:none;stroke:#00b000;stroke-width:16;stroke-linecap:butt;stroke-linejoin:round"
     points="4960,2834 9212,1417 " />
  <polyline
     id="polyline38"
     style="fill:none;stroke:#00b000;stroke-width:16;stroke-linecap:butt;stroke-linejoin:round"
     points="4488,3543 10157,1653 " />
  <polyline
     id="polyline40"
     style="fill:none;stroke:#00b000;stroke-width:16;stroke-linecap:butt;stroke-linejoin:round"
     points="4015,4251 11102,1889 " />
  <polyline
     id="polyline42"
     style="fill:none;stroke:#00b000;stroke-width:16;stroke-linecap:butt;stroke-linejoin:round"
     points="3543,4960 12047,2125 " />
  <polyline
     id="polyline44"
     style="fill:none;stroke:#00b000;stroke-width:16;stroke-linecap:butt;stroke-linejoin:round"
     points="4488,5196 12992,2362 " />
  <polyline
     id="polyline46"
     style="fill:none;stroke:#00b000;stroke-width:16;stroke-linecap:butt;stroke-linejoin:round"
     points="5433,5433 13937,2598 " />
  <polyline
     id="polyline48"
     style="fill:none;stroke:#00b000;stroke-width:16;stroke-linecap:butt;stroke-linejoin:round"
     points="6377,5669 13464,3307 " />
  <polyline
     id="polyline50"
     style="fill:none;stroke:#00b000;stroke-width:16;stroke-linecap:butt;stroke-linejoin:round"
     points="7322,5905 12992,4015 " />
  <polyline
     id="polyline52"
     style="fill:none;stroke:#00b000;stroke-width:16;stroke-linecap:butt;stroke-linejoin:round"
     points="8267,6141 12519,4724 " />
  <polyline
     id="polyline54"
     style="fill:none;stroke:#00b000;stroke-width:16;stroke-linecap:butt;stroke-linejoin:round"
     points="9212,6377 12047,5433 " />
  <polyline
     id="polyline56"
     style="fill:none;stroke:#00b000;stroke-width:16;stroke-linecap:butt;stroke-linejoin:round"
     points="10157,6614 11574,6141 " />
  <polyline
     id="polyline58"
     style="fill:none;stroke:#ff0000;stroke-width:48;stroke-linecap:butt;stroke-linejoin:miter"
     points="7322,6614 7322,7606 " />
  <polygon
     id="polygon60"
     style="fill:#ff0000;stroke:#ff0000;stroke-width:48;stroke-miterlimit:8"
     points="7385,7658 7322,7611 7259,7658 7259,7658 7322,7800 " />
  <polyline
     id="polyline62"
     style="fill:none;stroke:#0000ff;stroke-width:48;stroke-linecap:butt;stroke-linejoin:round"
     points="6614,944 6766,1248 " />
  <polygon
     id="polygon64"
     style="fill:#0000ff;stroke:#0000ff;stroke-width:48;stroke-miterlimit:8"
     points="6844,1265 6766,1250 6731,1320 6731,1320 6851,1420 " />
  <polyline
     id="polyline66"
     style="fill:none;stroke:#0000ff;stroke-width:48;stroke-linecap:butt;stroke-linejoin:round"
     points="7559,1181 7711,1484 " />
  <polygon
     id="polygon68"
     style="fill:#0000ff;stroke:#0000ff;stroke-width:48;stroke-miterlimit:8"
     points="7788,1501 7711,1486 7676,1556 7676,1556 7796,1656 " />
  <polyline
     id="polyline70"
     style="fill:none;stroke:#0000ff;stroke-width:48;stroke-linecap:butt;stroke-linejoin:round"
     points="8503,1417 8656,1720 " />
  <polygon
     id="polygon72"
     style="fill:#0000ff;stroke:#0000ff;stroke-width:48;stroke-miterlimit:8"
     points="8733,1737 8656,1722 8621,1793 8621,1793 8741,1892 " />
  <polyline
     id="polyline74"
     style="fill:none;stroke:#0000ff;stroke-width:48;stroke-linecap:butt;stroke-linejoin:round"
     points="9448,1653 9601,1956 " />
  <polygon
     id="polygon76"
     style="fill:#0000ff;stroke:#0000ff;stroke-width:48;stroke-miterlimit:8"
     points="9678,1973 9601,1959 9566,2029 9566,2029 9686,2129 " />
  <polyline
     id="polyline78"
     style="fill:none;stroke:#0000ff;stroke-width:48;stroke-linecap:butt;stroke-linejoin:round"
     points="10393,1889 10545,2193 " />
  <polygon
     id="polygon80"
     style="fill:#0000ff;stroke:#0000ff;stroke-width:48;stroke-miterlimit:8"
     points="10623,2209 10545,2195 10511,2265 10511,2265 10630,2365 " />
  <polyline
     id="polyline82"
     style="fill:none;stroke:#0000ff;stroke-width:48;stroke-linecap:butt;stroke-linejoin:round"
     points="11338,2125 11490,2429 " />
  <polygon
     id="polygon84"
     style="fill:#0000ff;stroke:#0000ff;stroke-width:48;stroke-miterlimit:8"
     points="11568,2446 11490,2431 11456,2501 11456,2501 11575,2601 " />
  <polyline
     id="polyline86"
     style="fill:none;stroke:#0000ff;stroke-width:48;stroke-linecap:butt;stroke-linejoin:round"
     points="12283,2362 12435,2665 " />
  <polygon
     id="polygon88"
     style="fill:#0000ff;stroke:#0000ff;stroke-width:48;stroke-miterlimit:8"
     points="12513,2682 12435,2667 12401,2738 12401,2738 12520,2837 " />
  <polyline
     id="polyline90"
     style="fill:none;stroke:#0000ff;stroke-width:48;stroke-linecap:butt;stroke-linejoin:round"
     points="13228,2598 13380,2901 " />
  <polygon
     id="polygon92"
     style="fill:#0000ff;stroke:#0000ff;stroke-width:48;stroke-miterlimit:8"
     points="13458,2918 13380,2903 13345,2974 13345,2974 13465,3074 " />
  <polyline
     id="polyline94"
     style="fill:none;stroke:#0000ff;stroke-width:48;stroke-linecap:butt;stroke-linejoin:round"
     points="6141,1653 6293,1956 " />
  <polygon
     id="polygon96"
     style="fill:#0000ff;stroke:#0000ff;stroke-width:48;stroke-miterlimit:8"
     points="6371,1973 6293,1959 6259,2029 6259,2029 6379,2129 " />
  <polyline
     id="polyline98"
     style="fill:none;stroke:#0000ff;stroke-width:48;stroke-linecap:butt;stroke-linejoin:round"
     points="7086,1889 7238,2193 " />
  <polygon
     id="polygon100"
     style="fill:#0000ff;stroke:#0000ff;stroke-width:48;stroke-miterlimit:8"
     points="7316,2209 7238,2195 7204,2265 7204,2265 7323,2365 " />
  <polyline
     id="polyline102"
     style="fill:none;stroke:#0000ff;stroke-width:48;stroke-linecap:butt;stroke-linejoin:round"
     points="8031,2125 8183,2429 " />
  <polygon
     id="polygon104"
     style="fill:#0000ff;stroke:#0000ff;stroke-width:48;stroke-miterlimit:8"
     points="8261,2446 8183,2431 8149,2501 8149,2501 8268,2601 " />
  <polyline
     id="polyline106"
     style="fill:none;stroke:#0000ff;stroke-width:48;stroke-linecap:butt;stroke-linejoin:round"
     points="8976,2362 9128,2665 " />
  <polygon
     id="polygon108"
     style="fill:#0000ff;stroke:#0000ff;stroke-width:48;stroke-miterlimit:8"
     points="9206,2682 9128,2667 9093,2738 9093,2738 9213,2837 " />
  <polyline
     id="polyline110"
     style="fill:none;stroke:#0000ff;stroke-width:48;stroke-linecap:butt;stroke-linejoin:round"
     points="6850,1417 7379,1239 " />
  <polygon
     id="polygon112"
     style="fill:#0000ff;stroke:#0000ff;stroke-width:48;stroke-miterlimit:8"
     points="7406,1164 7382,1238 7446,1283 7446,1283 7562,1180 " />
  <polyline
     id="polyline114"
     style="fill:none;stroke:#0000ff;stroke-width:48;stroke-linecap:butt;stroke-linejoin:round"
     points="7795,1653 8324,1476 " />
  <polygon
     id="polygon116"
     style="fill:#0000ff;stroke:#0000ff;stroke-width:48;stroke-miterlimit:8"
     points="8351,1400 8327,1475 8391,1520 8391,1520 8507,1416 " />
  <polyline
     id="polyline118"
     style="fill:none;stroke:#0000ff;stroke-width:48;stroke-linecap:butt;stroke-linejoin:round"
     points="8740,1889 9269,1712 " />
  <polygon
     id="polygon120"
     style="fill:#0000ff;stroke:#0000ff;stroke-width:48;stroke-miterlimit:8"
     points="9296,1636 9272,1711 9336,1756 9336,1756 9451,1652 " />
  <polyline
     id="polyline122"
     style="fill:none;stroke:#0000ff;stroke-width:48;stroke-linecap:butt;stroke-linejoin:round"
     points="9685,2125 10214,1948 " />
  <polygon
     id="polygon124"
     style="fill:#0000ff;stroke:#0000ff;stroke-width:48;stroke-miterlimit:8"
     points="10241,1872 10217,1947 10281,1992 10281,1992 10396,1888 " />
  <polyline
     id="polyline126"
     style="fill:none;stroke:#0000ff;stroke-width:48;stroke-linecap:butt;stroke-linejoin:round"
     points="10629,2362 11159,2184 " />
  <polygon
     id="polygon128"
     style="fill:#0000ff;stroke:#0000ff;stroke-width:48;stroke-miterlimit:8"
     points="11186,2109 11162,2183 11226,2228 11226,2228 11341,2124 " />
  <polyline
     id="polyline130"
     style="fill:none;stroke:#0000ff;stroke-width:48;stroke-linecap:butt;stroke-linejoin:round"
     points="11574,2598 12103,2420 " />
  <polygon
     id="polygon132"
     style="fill:#0000ff;stroke:#0000ff;stroke-width:48;stroke-miterlimit:8"
     points="12131,2345 12107,2419 12171,2465 12171,2465 12286,2361 " />
  <polyline
     id="polyline134"
     style="fill:none;stroke:#0000ff;stroke-width:48;stroke-linecap:butt;stroke-linejoin:round"
     points="12519,2834 13048,2657 " />
  <polygon
     id="polygon136"
     style="fill:#0000ff;stroke:#0000ff;stroke-width:48;stroke-miterlimit:8"
     points="13076,2581 13051,2656 13116,2701 13116,2701 13231,2597 " />
  <polyline
     id="polyline138"
     style="fill:none;stroke:#0000ff;stroke-width:48;stroke-linecap:butt;stroke-linejoin:round"
     points="6377,2125 6907,1948 " />
  <polygon
     id="polygon140"
     style="fill:#0000ff;stroke:#0000ff;stroke-width:48;stroke-miterlimit:8"
     points="6934,1872 6910,1947 6974,1992 6974,1992 7089,1888 " />
  <polyline
     id="polyline142"
     style="fill:none;stroke:#0000ff;stroke-width:48;stroke-linecap:butt;stroke-linejoin:round"
     points="7322,2362 7851,2184 " />
  <polygon
     id="polygon144"
     style="fill:#0000ff;stroke:#0000ff;stroke-width:48;stroke-miterlimit:8"
     points="7879,2109 7855,2183 7919,2228 7919,2228 8034,2124 " />
  <polyline
     id="polyline146"
     style="fill:none;stroke:#0000ff;stroke-width:48;stroke-linecap:butt;stroke-linejoin:round"
     points="8267,2598 8796,2420 " />
  <polygon
     id="polygon148"
     style="fill:#0000ff;stroke:#0000ff;stroke-width:48;stroke-miterlimit:8"
     points="8824,2345 8800,2419 8864,2465 8864,2465 8979,2361 " />
  <polyline
     id="polyline150"
     style="fill:none;stroke:#0000ff;stroke-width:48;stroke-linecap:butt;stroke-linejoin:round"
     points="13464,3070 6326,1688 " />
  <polygon
     id="polygon152"
     style="fill:#0000ff;stroke:#0000ff;stroke-width:48;stroke-miterlimit:8"
     points="6263,1740 6321,1688 6286,1616 6286,1616 6136,1652 " />
  <text
     style="font-style:normal;font-weight:normal;font-size:378px;font-family:Helvetica;text-anchor:middle;fill:#0000ff;stroke-width:0.025in"
     id="text154"
     font-size="378"
     font-weight="normal"
     font-style="normal"
     y="1417"
     x="11102"
     xml:space="preserve">Zeichnen</text>
  <text
     style="font-style:normal;font-weight:normal;font-size:378px;font-family:Helvetica;text-anchor:middle;fill:#0000ff;stroke-width:0.025in"
     id="text156"
     font-size="378"
     font-weight="normal"
     font-style="normal"
     y="850"
     x="11102"
     xml:space="preserve">Reihenfolge beim</text>
  <text
     style="font-style:normal;font-weight:normal;font-size:378px;font-family:Helvetica;text-anchor:middle;fill:#00b000;stroke-width:0.025in"
     id="text158"
     font-size="378"
     font-weight="normal"
     font-style="normal"
     y="7559"
     x="11102"
     xml:space="preserve">„Grundgitter“</text>
  <text
     style="font-style:normal;font-weight:normal;font-size:378px;font-family:Times;text-anchor:start;fill:#ff0000;stroke-width:0.025in"
     id="text160"
     font-size="378"
     font-weight="normal"
     font-style="normal"
     y="7795"
     x="7559"
     xml:space="preserve">$\widehat{\vektor{n}}$</text>
</svg>
