<?xml version="1.0" encoding="UTF-8" standalone="no"?>
<!-- Creator: fig2dev Version 3.2 Patchlevel 5e -->

<!-- CreationDate: Thu Sep 24 11:50:48 2015 -->

<!-- Magnification: 1.050 -->

<svg
   xmlns:dc="http://purl.org/dc/elements/1.1/"
   xmlns:cc="http://creativecommons.org/ns#"
   xmlns:rdf="http://www.w3.org/1999/02/22-rdf-syntax-ns#"
   xmlns:svg="http://www.w3.org/2000/svg"
   xmlns="http://www.w3.org/2000/svg"
   xmlns:sodipodi="http://sodipodi.sourceforge.net/DTD/sodipodi-0.dtd"
   xmlns:inkscape="http://www.inkscape.org/namespaces/inkscape"
   width="6.2in"
   height="5.0in"
   viewBox="8683 13644 7436 6018"
   id="svg2"
   version="1.1"
   inkscape:version="0.91 r13725"
   sodipodi:docname="fig_titelFragestellung.svg">
  <metadata
     id="metadata54">
    <rdf:RDF>
      <cc:Work
         rdf:about="">
        <dc:format>image/svg+xml</dc:format>
        <dc:type
           rdf:resource="http://purl.org/dc/dcmitype/StillImage" />
      </cc:Work>
    </rdf:RDF>
  </metadata>
  <defs
     id="defs52" />
  <sodipodi:namedview
     pagecolor="#ffffff"
     bordercolor="#666666"
     borderopacity="1"
     objecttolerance="10"
     gridtolerance="10"
     guidetolerance="10"
     inkscape:pageopacity="0"
     inkscape:pageshadow="2"
     inkscape:window-width="640"
     inkscape:window-height="480"
     id="namedview50"
     showgrid="false"
     inkscape:zoom="0.52444444"
     inkscape:cx="278.99999"
     inkscape:cy="225"
     inkscape:window-x="142"
     inkscape:window-y="60"
     inkscape:window-maximized="0"
     inkscape:current-layer="svg2" />
  <rect
     id="rect6"
     style="fill:none;stroke:#d2edfe;stroke-width:63;stroke-linecap:butt;stroke-linejoin:miter"
     rx="0"
     height="5196"
     width="6614"
     y="14409"
     x="8740" />
  <polyline
     id="polyline8"
     style="fill:none;stroke:#d2edfe;stroke-width:63;stroke-linecap:butt;stroke-linejoin:miter"
     points="8740,14409 9921,13700 16062,13700 15354,14409 " />
  <polyline
     id="polyline10"
     style="fill:none;stroke:#d2edfe;stroke-width:63;stroke-linecap:butt;stroke-linejoin:miter"
     points="16062,13700 16062,18661 15354,19606 " />
  <rect
     id="rect12"
     style="fill:none;stroke:#d2edfe;stroke-width:63;stroke-linecap:butt;stroke-linejoin:miter"
     rx="110"
     height="4724"
     width="6141"
     y="14645"
     x="8976" />
  <rect
     id="rect14"
     style="fill:none;stroke:#d2edfe;stroke-width:63;stroke-linecap:butt;stroke-linejoin:miter"
     rx="0"
     height="2125"
     width="2362"
     y="14881"
     x="9212" />
  <rect
     id="rect16"
     style="fill:#e8f6fe;stroke:#d2edfe;stroke-width:48;stroke-linecap:butt;stroke-linejoin:miter"
     rx="0"
     height="803"
     width="472"
     y="16204"
     x="9448" />
  <rect
     id="rect18"
     style="fill:#e8f6fe;stroke:#d2edfe;stroke-width:48;stroke-linecap:butt;stroke-linejoin:miter"
     rx="0"
     height="472"
     width="472"
     y="16535"
     x="9921" />
  <rect
     id="rect20"
     style="fill:#e8f6fe;stroke:#d2edfe;stroke-width:48;stroke-linecap:butt;stroke-linejoin:miter"
     rx="0"
     height="1937"
     width="472"
     y="15070"
     x="10393" />
  <rect
     id="rect22"
     style="fill:#e8f6fe;stroke:#d2edfe;stroke-width:48;stroke-linecap:butt;stroke-linejoin:miter"
     rx="0"
     height="1275"
     width="472"
     y="15732"
     x="10866" />
  <rect
     id="rect24"
     style="fill:none;stroke:#d2edfe;stroke-width:48;stroke-linecap:butt;stroke-linejoin:miter"
     rx="0"
     height="1889"
     width="2362"
     y="17244"
     x="9212" />
  <polyline
     id="polyline26"
     style="fill:none;stroke:#d2edfe;stroke-width:32;stroke-linecap:butt;stroke-linejoin:miter;stroke-dasharray:41, 41"
     points="10393,17244 10393,19133 " />
  <polyline
     id="polyline28"
     style="fill:none;stroke:#d2edfe;stroke-width:32;stroke-linecap:butt;stroke-linejoin:miter;stroke-dasharray:41, 41"
     points="9212,18188 11574,18188 " />
  <rect
     id="rect30"
     style="fill:none;stroke:#d2edfe;stroke-width:63;stroke-linecap:butt;stroke-linejoin:miter"
     rx="0"
     height="3070"
     width="3070"
     y="15590"
     x="11811" />
  <polygon
     id="polygon32"
     style="fill:none;stroke:#d2edfe;stroke-width:48;stroke-linecap:butt;stroke-linejoin:miter"
     points="12519,16771 12992,17480 12992,18188 12047,18188 12047,18188 12047,17480 " />
  <polygon
     id="polygon34"
     style="fill:none;stroke:#d2edfe;stroke-width:48;stroke-linecap:butt;stroke-linejoin:miter"
     points="13700,17244 12992,17480 12519,16771 12519,16771 13228,16535 " />
  <polygon
     id="polygon36"
     style="fill:none;stroke:#d2edfe;stroke-width:48;stroke-linecap:butt;stroke-linejoin:miter"
     points="13700,17952 12992,18188 12992,17480 12992,17480 13700,17244 " />
  <rect
     id="rect38"
     style="fill:none;stroke:#d2edfe;stroke-width:48;stroke-linecap:butt;stroke-linejoin:miter"
     rx="0"
     height="188"
     width="188"
     y="17196"
     x="12425" />
  <rect
     id="rect40"
     style="fill:none;stroke:#d2edfe;stroke-width:48;stroke-linecap:butt;stroke-linejoin:miter"
     rx="0"
     height="472"
     width="283"
     y="17716"
     x="12377" />
  <polygon
     id="polygon42"
     style="fill:none;stroke:#d2edfe;stroke-width:48;stroke-linecap:butt;stroke-linejoin:miter"
     points="13370,17574 13086,17669 13086,17952 13086,17952 13370,17858 " />
  <polygon
     id="polygon44"
     style="fill:none;stroke:#d2edfe;stroke-width:48;stroke-linecap:butt;stroke-linejoin:miter"
     points="13606,17763 13606,17480 13464,17527 13464,17527 13464,17811 " />
  <polyline
     id="polyline46"
     style="fill:none;stroke:#d2edfe;stroke-width:48;stroke-linecap:butt;stroke-linejoin:bevel"
     points="9212,18188 9213,18186 9217,18181 9223,18171 9232,18156 9245,18136 9260,18111 9279,18081 9300,18048 9323,18012 9346,17974 9371,17937 9395,17900 9418,17864 9440,17830 9462,17799 9482,17770 9501,17743 9519,17718 9535,17696 9551,17676 9566,17657 9581,17640 9594,17625 9608,17611 9622,17598 9636,17585 9650,17573 9665,17562 9679,17552 9694,17543 9709,17535 9724,17528 9739,17523 9755,17519 9771,17516 9786,17513 9803,17512 9819,17513 9835,17516 9850,17519 9866,17523 9881,17528 9897,17535 9911,17543 9926,17552 9941,17562 9955,17573 9969,17585 9984,17598 9997,17611 10011,17625 10025,17639 10039,17656 10053,17673 10069,17692 10083,17712 10099,17732 10116,17754 10132,17777 10149,17801 10165,17825 10183,17850 10200,17877 10217,17903 10234,17929 10251,17955 10268,17983 10284,18009 10301,18035 10317,18061 10332,18088 10348,18113 10363,18138 10379,18163 10393,18188 10408,18214 10424,18239 10438,18264 10454,18289 10470,18316 10486,18342 10502,18368 10518,18394 10535,18422 10553,18448 10570,18474 10586,18500 10603,18527 10621,18552 10638,18576 10655,18600 10670,18623 10687,18645 10703,18665 10718,18685 10733,18704 10747,18721 10762,18738 10775,18752 10789,18766 10803,18780 10817,18792 10831,18804 10846,18815 10860,18825 10875,18834 10890,18841 10906,18849 10920,18854 10936,18858 10952,18861 10967,18864 10984,18865 11000,18864 11016,18861 11032,18858 11047,18854 11062,18849 11078,18841 11092,18834 11107,18825 11122,18815 11137,18804 11150,18792 11165,18780 11179,18766 11192,18752 11206,18737 11220,18720 11235,18701 11251,18681 11268,18659 11286,18634 11304,18607 11324,18578 11346,18546 11369,18513 11392,18477 11416,18440 11440,18403 11463,18365 11486,18329 11507,18296 11526,18266 11542,18241 11554,18221 11564,18206 11569,18196 11573,18191 11574,18188 " />
  <polyline
     id="polyline48"
     style="fill:none;stroke:#d2edfe;stroke-width:48;stroke-linecap:butt;stroke-linejoin:bevel"
     points="14314,18425 14314,18424 14314,18420 14316,18410 14317,18393 14319,18369 14320,18339 14322,18304 14323,18268 14324,18233 14325,18199 14325,18167 14324,18139 14322,18115 14319,18093 14316,18074 14311,18058 14305,18044 14299,18031 14290,18018 14280,18007 14268,17996 14255,17987 14240,17977 14223,17969 14206,17961 14187,17952 14169,17944 14149,17935 14129,17927 14109,17918 14089,17908 14069,17898 14050,17886 14031,17874 14016,17862 14001,17849 13985,17836 13970,17821 13954,17804 13939,17786 13923,17767 13908,17748 13893,17727 13879,17706 13865,17682 13853,17659 13841,17637 13830,17614 13822,17591 13814,17568 13807,17546 13802,17523 13798,17502 13795,17480 13794,17458 13793,17436 13794,17414 13796,17392 13799,17369 13803,17344 13809,17321 13816,17297 13823,17273 13832,17249 13841,17226 13850,17203 13861,17180 13871,17159 13882,17138 13892,17118 13904,17099 13914,17081 13926,17063 13937,17047 13950,17026 13964,17007 13977,16988 13992,16970 14007,16950 14020,16932 14035,16913 14049,16895 14062,16877 14076,16860 14088,16844 14099,16828 14109,16813 14118,16798 14127,16785 14134,16771 14140,16755 14148,16740 14153,16724 14158,16706 14163,16689 14169,16671 14173,16653 14177,16635 14182,16617 14187,16600 14193,16582 14198,16566 14205,16551 14213,16535 14219,16523 14225,16511 14234,16499 14242,16487 14251,16475 14262,16464 14272,16453 14284,16444 14297,16434 14309,16427 14322,16420 14334,16415 14347,16413 14360,16411 14372,16412 14385,16414 14397,16418 14409,16425 14418,16431 14429,16439 14438,16449 14449,16460 14459,16473 14470,16488 14481,16504 14492,16522 14502,16542 14514,16563 14524,16585 14536,16609 14546,16635 14557,16661 14567,16688 14577,16716 14586,16743 14596,16771 14604,16801 14614,16830 14621,16859 14629,16890 14636,16915 14642,16942 14649,16970 14656,16998 14661,17027 14667,17058 14674,17088 14679,17120 14684,17152 14689,17185 14693,17217 14698,17250 14702,17283 14705,17316 14708,17348 14710,17380 14712,17411 14713,17440 14713,17469 14713,17497 14713,17523 14711,17548 14710,17572 14707,17595 14704,17616 14701,17637 14695,17662 14687,17687 14679,17709 14669,17731 14659,17752 14647,17773 14636,17792 14622,17811 14608,17829 14595,17847 14580,17864 14566,17881 14553,17897 14539,17911 14525,17927 14513,17942 14501,17955 14491,17970 14481,17985 14472,18000 14464,18015 14456,18031 14450,18049 14444,18068 14438,18089 14434,18112 14430,18137 14426,18164 14423,18195 14419,18227 14417,18260 14415,18293 14413,18326 14412,18355 14410,18381 14410,18401 14409,18413 14409,18422 14409,18425 " />
</svg>
