<?xml version="1.0" encoding="UTF-8" standalone="no"?>
<!-- Creator: fig2dev Version 3.2 Patchlevel 5e -->

<!-- CreationDate: Wed Sep 30 10:45:15 2015 -->

<!-- Magnification: 1.050 -->

<svg
   xmlns:dc="http://purl.org/dc/elements/1.1/"
   xmlns:cc="http://creativecommons.org/ns#"
   xmlns:rdf="http://www.w3.org/1999/02/22-rdf-syntax-ns#"
   xmlns:svg="http://www.w3.org/2000/svg"
   xmlns="http://www.w3.org/2000/svg"
   xmlns:sodipodi="http://sodipodi.sourceforge.net/DTD/sodipodi-0.dtd"
   xmlns:inkscape="http://www.inkscape.org/namespaces/inkscape"
   width="10.9in"
   height="9.8in"
   viewBox="929 -629 13122 11778"
   id="svg2"
   version="1.1"
   inkscape:version="0.91 r13725"
   sodipodi:docname="fig_clip3DRealisierung.svg">
  <metadata
     id="metadata72">
    <rdf:RDF>
      <cc:Work
         rdf:about="">
        <dc:format>image/svg+xml</dc:format>
        <dc:type
           rdf:resource="http://purl.org/dc/dcmitype/StillImage" />
        <dc:title></dc:title>
      </cc:Work>
    </rdf:RDF>
  </metadata>
  <defs
     id="defs70" />
  <sodipodi:namedview
     pagecolor="#ffffff"
     bordercolor="#666666"
     borderopacity="1"
     objecttolerance="10"
     gridtolerance="10"
     guidetolerance="10"
     inkscape:pageopacity="0"
     inkscape:pageshadow="2"
     inkscape:window-width="2432"
     inkscape:window-height="1271"
     id="namedview68"
     showgrid="false"
     inkscape:zoom="0.75681268"
     inkscape:cx="56.090036"
     inkscape:cy="565.85463"
     inkscape:window-x="128"
     inkscape:window-y="60"
     inkscape:window-maximized="1"
     inkscape:current-layer="svg2" />
  <polyline
     id="polyline6"
     style="fill:none;stroke:#ff0000;stroke-width:48;stroke-linecap:butt;stroke-linejoin:miter"
     points="8834,7086 8976,7228 8976,8929 9118,9070 8976,9212 8976,10960 8834,11102 " />
  <polyline
     id="polyline8"
     style="fill:none;stroke:#ff0000;stroke-width:48;stroke-linecap:butt;stroke-linejoin:miter"
     points="8834,94 8976,236 8976,1937 9118,2078 8976,2220 8976,3874 8834,4015 " />
  <polyline
     id="polyline10"
     style="fill:none;stroke:#000000;stroke-width:32;stroke-linecap:butt;stroke-linejoin:bevel"
     points="2220,2881 2221,2882 2224,2886 2232,2895 2244,2909 2258,2925 2270,2943 2283,2960 2291,2975 2298,2988 2301,3001 2301,3013 2299,3023 2293,3034 2287,3045 2279,3057 2268,3069 2257,3081 2246,3095 2235,3107 2224,3119 2216,3131 2209,3143 2205,3154 2204,3165 2205,3175 2209,3187 2216,3198 2224,3211 2234,3223 2244,3236 2254,3249 2263,3260 2271,3273 2278,3285 2282,3296 2283,3307 2282,3317 2278,3329 2271,3340 2263,3353 2254,3364 2243,3378 2234,3391 2224,3402 2216,3415 2209,3426 2205,3438 2204,3448 2205,3459 2209,3470 2216,3482 2224,3495 2234,3506 2244,3520 2254,3532 2263,3544 2271,3556 2278,3568 2282,3580 2283,3590 2282,3601 2278,3612 2271,3624 2263,3636 2253,3650 2241,3664 2230,3677 2219,3691 2208,3706 2200,3719 2194,3733 2188,3748 2186,3760 2186,3774 2187,3788 2192,3805 2198,3823 2206,3844 2217,3868 2228,3892 2240,3917 2250,3938 2169,3788 " />
  <polygon
     id="polygon12"
     style="fill:#000000;stroke:#000000;stroke-width:8;stroke-miterlimit:8"
     points="2259,3837 2185,3818 2161,3889 2161,3889 2284,3998 " />
  <polyline
     id="polyline14"
     style="fill:none;stroke:#000000;stroke-width:32;stroke-linecap:butt;stroke-linejoin:bevel"
     points="2220,5007 2221,5008 2224,5012 2232,5021 2244,5035 2258,5051 2270,5069 2283,5086 2291,5101 2298,5114 2301,5127 2301,5139 2299,5149 2293,5160 2287,5171 2279,5183 2268,5195 2257,5207 2246,5220 2235,5233 2224,5245 2216,5257 2209,5269 2205,5280 2204,5291 2205,5301 2209,5313 2216,5324 2224,5337 2234,5349 2244,5362 2254,5375 2263,5386 2271,5399 2278,5411 2282,5422 2283,5433 2282,5443 2278,5455 2271,5466 2263,5479 2254,5490 2243,5504 2234,5517 2224,5528 2216,5541 2209,5552 2205,5564 2204,5574 2205,5585 2209,5596 2216,5608 2224,5620 2234,5632 2244,5646 2254,5658 2263,5670 2271,5682 2278,5694 2282,5706 2283,5716 2282,5727 2278,5738 2271,5750 2263,5762 2253,5776 2241,5790 2230,5803 2219,5817 2208,5832 2200,5845 2194,5859 2188,5874 2186,5886 2186,5900 2187,5914 2192,5931 2198,5949 2206,5970 2217,5994 2228,6018 2240,6043 2250,6064 2169,5914 " />
  <polygon
     id="polygon16"
     style="fill:#000000;stroke:#000000;stroke-width:8;stroke-miterlimit:8"
     points="2259,5963 2185,5944 2161,6015 2161,6015 2284,6124 " />
  <polyline
     id="polyline18"
     style="fill:none;stroke:#000000;stroke-width:32;stroke-linecap:butt;stroke-linejoin:bevel"
     points="2220,7133 2221,7134 2224,7138 2232,7147 2244,7161 2258,7177 2270,7195 2283,7212 2291,7227 2298,7240 2301,7253 2301,7265 2299,7275 2293,7286 2287,7297 2279,7309 2268,7321 2257,7333 2246,7346 2235,7359 2224,7371 2216,7383 2209,7395 2205,7406 2204,7417 2205,7427 2209,7439 2216,7450 2224,7463 2234,7475 2244,7488 2254,7501 2263,7512 2271,7525 2278,7537 2282,7548 2283,7559 2282,7569 2278,7581 2271,7592 2263,7605 2254,7616 2243,7630 2234,7643 2224,7654 2216,7667 2209,7678 2205,7690 2204,7700 2205,7711 2209,7722 2216,7734 2224,7746 2234,7758 2244,7772 2254,7784 2263,7796 2271,7808 2278,7820 2282,7832 2283,7842 2282,7853 2278,7864 2271,7876 2263,7888 2253,7902 2241,7916 2230,7929 2219,7943 2208,7958 2200,7971 2194,7985 2188,8000 2186,8012 2186,8026 2187,8040 2192,8057 2198,8075 2206,8096 2217,8120 2228,8144 2240,8169 2250,8190 2169,8040 " />
  <polygon
     id="polygon20"
     style="fill:#000000;stroke:#000000;stroke-width:8;stroke-miterlimit:8"
     points="2259,8089 2185,8070 2161,8141 2161,8141 2284,8250 " />
  <polyline
     id="polyline22"
     style="fill:none;stroke:#000000;stroke-width:32;stroke-linecap:butt;stroke-linejoin:bevel"
     points="2220,9259 2221,9260 2224,9264 2232,9273 2244,9287 2258,9303 2270,9321 2283,9338 2291,9353 2298,9366 2301,9379 2301,9391 2299,9401 2293,9412 2287,9423 2279,9435 2268,9447 2257,9459 2246,9472 2235,9485 2224,9497 2216,9509 2209,9521 2205,9532 2204,9543 2205,9553 2209,9565 2216,9576 2224,9589 2234,9601 2244,9614 2254,9627 2263,9638 2271,9651 2278,9662 2282,9674 2283,9685 2282,9695 2278,9707 2271,9718 2263,9731 2254,9742 2243,9756 2234,9769 2224,9780 2216,9793 2209,9804 2205,9816 2204,9826 2205,9837 2209,9848 2216,9860 2224,9872 2234,9884 2244,9898 2254,9910 2263,9922 2271,9934 2278,9946 2282,9958 2283,9968 2282,9979 2278,9990 2271,10002 2263,10014 2253,10028 2241,10041 2230,10055 2219,10069 2208,10083 2200,10097 2194,10111 2188,10125 2186,10138 2186,10152 2187,10166 2192,10183 2198,10201 2206,10222 2217,10246 2228,10270 2240,10295 2250,10316 2169,10166 " />
  <polygon
     id="polygon24"
     style="fill:#000000;stroke:#000000;stroke-width:8;stroke-miterlimit:8"
     points="2259,10215 2185,10196 2161,10267 2161,10267 2284,10376 " />
  <polyline
     id="polyline26"
     style="fill:none;stroke:#000000;stroke-width:32;stroke-linecap:butt;stroke-linejoin:bevel"
     points="2220,519 2221,520 2224,523 2232,533 2244,546 2258,563 2270,581 2283,598 2291,613 2298,626 2301,639 2301,650 2299,661 2293,671 2287,683 2279,695 2268,707 2257,719 2246,732 2235,745 2224,756 2216,769 2209,781 2205,792 2204,803 2205,813 2209,825 2216,836 2224,849 2234,860 2244,874 2254,887 2263,898 2271,911 2278,922 2282,934 2283,944 2282,955 2278,966 2271,978 2263,991 2254,1002 2243,1016 2234,1028 2224,1040 2216,1053 2209,1064 2205,1076 2204,1086 2205,1097 2209,1108 2216,1120 2224,1132 2234,1144 2244,1158 2254,1170 2263,1182 2271,1194 2278,1206 2282,1217 2283,1228 2282,1238 2278,1250 2271,1261 2263,1274 2253,1288 2241,1301 2230,1315 2219,1329 2208,1343 2200,1357 2194,1371 2188,1385 2186,1398 2186,1412 2187,1426 2192,1443 2198,1461 2206,1482 2217,1506 2228,1530 2240,1554 2250,1575 2169,1426 " />
  <polygon
     id="polygon28"
     style="fill:#000000;stroke:#000000;stroke-width:8;stroke-miterlimit:8"
     points="2259,1475 2185,1456 2161,1527 2161,1527 2284,1636 " />
  <text
     style="font-style:normal;font-weight:normal;font-size:377.99323091px;font-family:sans-serif;text-anchor:start;fill:#000000;stroke-width:0.025in;-inkscape-font-specification:'sans-serif, Normal';font-stretch:normal;font-variant:normal;text-align:start;writing-mode:lr;line-height:125%;"
     id="text30"
     font-size="378"
     font-weight="normal"
     font-style="normal"
     y="4724"
     x="944"
     xml:space="preserve"
     sodipodi:linespacing="125%">normalisierte Sichtkoordinaten</text>
  <text
     style="font-style:normal;font-weight:normal;font-size:377.99323091px;font-family:sans-serif;text-anchor:start;fill:#000000;stroke-width:0.025in;-inkscape-font-specification:'sans-serif, Normal';font-stretch:normal;font-variant:normal;text-align:start;writing-mode:lr;line-height:125%;"
     id="text32"
     font-size="378"
     font-weight="normal"
     font-style="normal"
     y="6850"
     x="944"
     xml:space="preserve"
     sodipodi:linespacing="125%">normalisierte Sichtkoordinaten</text>
  <text
     style="font-style:normal;font-variant:normal;font-weight:normal;font-stretch:normal;font-size:377.9932251px;line-height:125%;font-family:sans-serif;-inkscape-font-specification:'sans-serif, Normal';text-align:start;writing-mode:lr-tb;text-anchor:start;fill:#000000;stroke-width:0.025in"
     id="text34"
     font-size="378"
     font-weight="bold"
     font-style="italic"
     y="8976"
     x="944"
     xml:space="preserve"
     sodipodi:linespacing="125%">$(u, v)$-2D-Koordinaten</text>
  <text
     style="font-style:normal;font-weight:normal;font-size:377.99323091px;font-family:sans-serif;text-anchor:start;fill:#0000ff;stroke-width:0.025in;-inkscape-font-specification:'sans-serif, Normal';font-stretch:normal;font-variant:normal;text-align:start;writing-mode:lr;line-height:125%;"
     id="text38"
     font-size="378"
     font-weight="normal"
     font-style="normal"
     y="3637"
     x="2834"
     xml:space="preserve"
     sodipodi:linespacing="125%">Umrechnung</text>
  <text
     style="font-style:normal;font-weight:normal;font-size:377.99323091px;font-family:sans-serif;text-anchor:start;fill:#ff0000;stroke-width:0.025in;-inkscape-font-specification:'sans-serif, Normal';font-stretch:normal;font-variant:normal;text-align:start;writing-mode:lr;line-height:125%;"
     id="text40"
     font-size="378"
     font-weight="normal"
     font-style="normal"
     y="5763"
     x="2834"
     xml:space="preserve"
     sodipodi:linespacing="125%">3D-Clipping</text>
  <text
     style="font-style:normal;font-weight:normal;font-size:377.99323091px;font-family:sans-serif;text-anchor:start;fill:#0000ff;stroke-width:0.025in;-inkscape-font-specification:'sans-serif, Normal';font-stretch:normal;font-variant:normal;text-align:start;writing-mode:lr;line-height:125%;"
     id="text42"
     font-size="378"
     font-weight="normal"
     font-style="normal"
     y="7889"
     x="2834"
     xml:space="preserve"
     sodipodi:linespacing="125%">Projektion</text>
  <text
     style="font-style:normal;font-weight:normal;font-size:377.99323091px;font-family:sans-serif;text-anchor:start;fill:#0000ff;stroke-width:0.025in;-inkscape-font-specification:'sans-serif, Normal';font-stretch:normal;font-variant:normal;text-align:start;writing-mode:lr;line-height:125%;"
     id="text44"
     font-size="378"
     font-weight="normal"
     font-style="normal"
     y="1511"
     x="2834"
     xml:space="preserve"
     sodipodi:linespacing="125%">durch Modellierung)</text>
  <text
     style="font-style:normal;font-variant:normal;font-weight:normal;font-stretch:normal;font-size:377.9932251px;line-height:125%;font-family:sans-serif;-inkscape-font-specification:'sans-serif, Normal';text-align:start;writing-mode:lr-tb;text-anchor:start;fill:#0000ff;stroke-width:0.025in"
     id="text46"
     font-size="378"
     font-weight="normal"
     font-style="normal"
     y="850"
     x="2834"
     xml:space="preserve"
     sodipodi:linespacing="125%">(\ggf Transformationen</text>
  <text
     style="font-style:normal;font-weight:normal;font-size:377.99323091px;font-family:sans-serif;text-anchor:start;fill:#0000ff;stroke-width:0.025in;-inkscape-font-specification:'sans-serif, Normal';font-stretch:normal;font-variant:normal;text-align:start;writing-mode:lr;line-height:125%;"
     id="text48"
     font-size="378"
     font-weight="normal"
     font-style="normal"
     y="10015"
     x="2787"
     xml:space="preserve"
     sodipodi:linespacing="125%">Umrechnung</text>
  <text
     style="font-style:normal;font-weight:normal;font-size:377.99323091px;font-family:sans-serif;text-anchor:start;fill:#000000;stroke-width:0.025in;-inkscape-font-specification:'sans-serif, Normal';font-stretch:normal;font-variant:normal;text-align:start;writing-mode:lr;line-height:125%;"
     id="text50"
     font-size="378"
     font-weight="normal"
     font-style="normal"
     y="11102"
     x="944"
     xml:space="preserve"
     sodipodi:linespacing="125%">Gerätekoordinaten</text>
  <text
     style="font-style:normal;font-variant:normal;font-weight:normal;font-stretch:normal;font-size:377.9932251px;line-height:125%;font-family:sans-serif;-inkscape-font-specification:'sans-serif, Normal';text-align:start;writing-mode:lr-tb;text-anchor:start;fill:#000000;stroke-width:0.025in"
     id="text52"
     font-size="378"
     font-weight="bold"
     font-style="italic"
     y="-236"
     x="944"
     xml:space="preserve"
     sodipodi:linespacing="125%">$(x, y, z)$-3D-Koordinaten</text>
  <text
     style="font-style:normal;font-variant:normal;font-weight:normal;font-stretch:normal;font-size:377.9932251px;line-height:125%;font-family:sans-serif;-inkscape-font-specification:'sans-serif, Normal';text-align:start;writing-mode:lr-tb;text-anchor:start;fill:#000000;stroke-width:0.025in"
     id="text56"
     font-size="378"
     font-weight="bold"
     font-style="italic"
     y="2598"
     x="944"
     xml:space="preserve"
     sodipodi:linespacing="125%">$(x, y, z)$-3D-Koordinaten</text>
  <text
     style="font-style:normal;font-variant:normal;font-weight:normal;font-stretch:normal;font-size:377.9932251px;line-height:125%;font-family:sans-serif;-inkscape-font-specification:'sans-serif, Normal';text-align:start;writing-mode:lr-tb;text-anchor:start;fill:#ff0000;stroke-width:0.025in"
     id="text60"
     font-size="378"
     font-weight="normal"
     font-style="normal"
     y="2191.5132"
     x="9448"
     xml:space="preserve"
     sodipodi:linespacing="125%">$4×4$-Matrix-Vektor-Multiplikation</text>
  <text
     style="font-style:normal;font-variant:normal;font-weight:normal;font-stretch:normal;font-size:377.9932251px;line-height:125%;font-family:sans-serif;-inkscape-font-specification:'sans-serif, Normal';text-align:start;writing-mode:lr-tb;text-anchor:start;fill:#ff0000;stroke-width:0.025in"
     id="text64"
     font-size="378"
     font-weight="normal"
     font-style="normal"
     y="9212"
     x="9448"
     xml:space="preserve"
     sodipodi:linespacing="125%">$3×4$-Matrix-Vektor-Multiplikation</text>
</svg>
