<?xml version="1.0" encoding="UTF-8" standalone="no"?>
<!-- Creator: fig2dev Version 3.2 Patchlevel 5e -->

<!-- CreationDate: Thu Oct 22 15:52:12 2015 -->

<!-- Magnification: 1.050 -->

<svg
   xmlns:dc="http://purl.org/dc/elements/1.1/"
   xmlns:cc="http://creativecommons.org/ns#"
   xmlns:rdf="http://www.w3.org/1999/02/22-rdf-syntax-ns#"
   xmlns:svg="http://www.w3.org/2000/svg"
   xmlns="http://www.w3.org/2000/svg"
   xmlns:sodipodi="http://sodipodi.sourceforge.net/DTD/sodipodi-0.dtd"
   xmlns:inkscape="http://www.inkscape.org/namespaces/inkscape"
   width="5.6in"
   height="2.8in"
   viewBox="1799 2616 6713 3393"
   id="svg2"
   version="1.1"
   inkscape:version="0.91 r13725"
   sodipodi:docname="fig_farbeEffekteAmbient.svg">
  <metadata
     id="metadata32">
    <rdf:RDF>
      <cc:Work
         rdf:about="">
        <dc:format>image/svg+xml</dc:format>
        <dc:type
           rdf:resource="http://purl.org/dc/dcmitype/StillImage" />
      </cc:Work>
    </rdf:RDF>
  </metadata>
  <defs
     id="defs30" />
  <sodipodi:namedview
     pagecolor="#ffffff"
     bordercolor="#666666"
     borderopacity="1"
     objecttolerance="10"
     gridtolerance="10"
     guidetolerance="10"
     inkscape:pageopacity="0"
     inkscape:pageshadow="2"
     inkscape:window-width="640"
     inkscape:window-height="480"
     id="namedview28"
     showgrid="false"
     inkscape:zoom="0.90277779"
     inkscape:cx="252"
     inkscape:cy="126"
     inkscape:window-x="142"
     inkscape:window-y="60"
     inkscape:window-maximized="0"
     inkscape:current-layer="svg2" />
  <polyline
     id="polyline6"
     style="fill:none;stroke:#b000b0;stroke-width:63;stroke-linecap:butt;stroke-linejoin:miter"
     points="2362,5952 6614,4535 " />
  <polyline
     id="polyline8"
     style="fill:none;stroke:#ff8080;stroke-width:63;stroke-linecap:butt;stroke-linejoin:bevel"
     points="6006,3129 6002,3132 5994,3139 5980,3149 5961,3164 5935,3184 5908,3205 5880,3228 5853,3251 5826,3274 5803,3294 5783,3314 5766,3331 5753,3346 5742,3361 5734,3375 5729,3387 5725,3400 5724,3416 5725,3430 5730,3446 5735,3462 5742,3478 5750,3493 5757,3510 5764,3526 5770,3542 5773,3556 5774,3572 5772,3586 5765,3600 5756,3614 5745,3625 5733,3636 5717,3648 5699,3659 5678,3671 5656,3685 5633,3697 5609,3710 5584,3723 5559,3737 5534,3750 5511,3762 5489,3775 5469,3787 5451,3799 5436,3811 5423,3822 5413,3833 5402,3848 5397,3865 5395,3881 5397,3899 5402,3916 5407,3934 5413,3952 5418,3969 5420,3987 5419,4003 5413,4019 5402,4035 5393,4046 5379,4057 5364,4069 5346,4080 5327,4093 5304,4106 5281,4118 5257,4131 5232,4144 5207,4158 5183,4171 5160,4183 5138,4197 5118,4208 5100,4220 5084,4232 5071,4243 5061,4254 5049,4270 5044,4286 5042,4303 5044,4321 5048,4339 5054,4356 5059,4374 5063,4392 5065,4410 5063,4426 5058,4443 5047,4458 5037,4470 5024,4480 5008,4492 4991,4503 4971,4516 4949,4529 4925,4541 4901,4554 4876,4567 4852,4581 4828,4594 4805,4606 4783,4619 4763,4632 4745,4643 4729,4655 4717,4665 4706,4677 4697,4690 4691,4704 4689,4719 4690,4733 4693,4748 4699,4764 4706,4780 4713,4796 4721,4812 4728,4828 4733,4844 4738,4859 4739,4875 4738,4891 4734,4902 4729,4916 4721,4929 4710,4943 4697,4960 4680,4977 4659,4997 4636,5018 4609,5040 4582,5063 4553,5086 4525,5108 4501,5127 4481,5143 4467,5153 4459,5160 4455,5163 " />
  <polyline
     id="polyline10"
     style="fill:none;stroke:#ff8080;stroke-width:63;stroke-linecap:butt;stroke-linejoin:bevel"
     points="2184,4514 2018,4514 2044,4514 2074,4514 2110,4514 2146,4515 2182,4516 2217,4517 2247,4519 2276,4522 2300,4525 2320,4530 2338,4535 2352,4540 2364,4546 2374,4555 2385,4566 2392,4579 2400,4594 2404,4609 2408,4626 2412,4644 2415,4661 2419,4678 2425,4693 2431,4708 2439,4720 2450,4730 2462,4738 2479,4742 2494,4744 2511,4745 2530,4744 2551,4743 2574,4740 2599,4735 2625,4731 2653,4727 2680,4722 2707,4717 2734,4712 2761,4708 2786,4704 2809,4702 2831,4700 2850,4699 2867,4700 2882,4702 2898,4707 2911,4714 2922,4724 2931,4737 2938,4749 2945,4764 2951,4780 2957,4794 2963,4809 2971,4823 2980,4834 2991,4844 3004,4851 3020,4856 3035,4858 3051,4859 3070,4859 3092,4857 3116,4855 3140,4851 3166,4847 3193,4843 3220,4837 3248,4833 3275,4829 3301,4825 3325,4820 3349,4818 3371,4816 3390,4816 3406,4816 3421,4819 3439,4825 3454,4834 3465,4847 3475,4861 3482,4878 3489,4896 3497,4914 3504,4930 3513,4944 3525,4957 3540,4966 3558,4973 3572,4975 3590,4975 3609,4975 3630,4973 3653,4970 3678,4966 3704,4962 3732,4957 3759,4952 3786,4948 3814,4942 3840,4938 3865,4935 3888,4932 3909,4930 3928,4930 3946,4930 3961,4932 3976,4937 3989,4944 4000,4955 4008,4966 4015,4981 4020,4997 4025,5014 4029,5030 4033,5048 4037,5065 4043,5081 4049,5096 4057,5109 4068,5121 4078,5128 4090,5135 4104,5142 4122,5146 4142,5150 4166,5153 4194,5156 4225,5159 4259,5161 4296,5162 4332,5163 4367,5163 4397,5163 4423,5163 4440,5163 4450,5163 4454,5163 4455,5163 " />
  <polygon
     id="polygon12"
     style="fill:#ff8080;stroke:#ff8080;stroke-width:63;stroke-miterlimit:8"
     points="2137,4575 2186,4514 2137,4452 2137,4452 1989,4514 " />
  <polyline
     id="polyline14"
     style="fill:none;stroke:#ff0000;stroke-width:63;stroke-linecap:butt;stroke-linejoin:bevel"
     points="2856,3286 2857,3286 2860,3288 2869,3293 2882,3301 2902,3313 2925,3328 2950,3343 2974,3360 2997,3378 3018,3395 3036,3411 3051,3426 3064,3443 3075,3460 3083,3477 3090,3496 3096,3513 3100,3532 3104,3552 3107,3573 3110,3595 3112,3617 3114,3641 3118,3665 3120,3688 3123,3711 3126,3733 3129,3754 3133,3774 3139,3792 3144,3807 3151,3822 3159,3834 3168,3844 3180,3854 3193,3862 3208,3867 3226,3871 3244,3876 3264,3878 3285,3880 3306,3881 3327,3882 3348,3884 3367,3886 3385,3889 3403,3895 3418,3900 3432,3907 3443,3917 3454,3928 3462,3943 3469,3959 3476,3977 3481,3997 3486,4019 3490,4041 3495,4066 3499,4089 3503,4111 3508,4133 3513,4153 3520,4172 3527,4187 3535,4202 3545,4214 3556,4223 3570,4230 3586,4236 3603,4241 3622,4244 3640,4246 3661,4248 3682,4249 3703,4250 3724,4253 3743,4255 3762,4258 3779,4263 3795,4268 3808,4276 3820,4285 3829,4298 3838,4311 3845,4327 3851,4346 3858,4366 3862,4388 3866,4411 3871,4434 3876,4457 3880,4480 3885,4502 3890,4522 3897,4541 3904,4557 3912,4571 3922,4583 3934,4593 3947,4600 3963,4605 3980,4611 3998,4614 4018,4616 4038,4618 4060,4619 4081,4620 4101,4622 4121,4624 4140,4627 4157,4633 4173,4638 4185,4645 4198,4656 4206,4665 4215,4678 4221,4692 4226,4708 4232,4726 4236,4745 4240,4766 4243,4788 4245,4811 4248,4834 4250,4858 4253,4881 4256,4904 4259,4927 4262,4948 4266,4967 4270,4985 4276,5003 4283,5022 4291,5039 4303,5056 4316,5072 4331,5088 4350,5105 4371,5121 4394,5139 4419,5155 4445,5171 4468,5186 4488,5197 4502,5206 4511,5211 4514,5213 4515,5213 " />
  <polyline
     id="polyline16"
     style="fill:none;stroke:#ff0000;stroke-width:63;stroke-linecap:butt;stroke-linejoin:bevel"
     points="4544,2906 4627,2701 4619,2723 4609,2748 4599,2776 4590,2805 4582,2833 4576,2858 4571,2882 4569,2904 4569,2925 4570,2945 4574,2964 4579,2983 4586,3001 4594,3018 4603,3036 4614,3055 4624,3074 4637,3093 4649,3113 4662,3133 4674,3153 4686,3173 4697,3192 4707,3211 4716,3229 4723,3246 4728,3262 4731,3277 4733,3292 4732,3306 4729,3320 4723,3335 4714,3349 4704,3362 4691,3377 4678,3391 4662,3405 4646,3419 4632,3433 4616,3447 4602,3461 4590,3476 4579,3489 4571,3503 4564,3518 4561,3532 4560,3548 4562,3564 4566,3582 4573,3600 4581,3619 4591,3639 4601,3659 4612,3680 4622,3701 4633,3722 4642,3742 4650,3762 4657,3780 4661,3798 4663,3814 4663,3829 4659,3844 4653,3858 4644,3872 4634,3886 4621,3900 4607,3913 4592,3928 4577,3942 4561,3955 4545,3970 4532,3984 4519,3997 4509,4012 4500,4026 4494,4040 4491,4055 4490,4070 4492,4087 4496,4104 4502,4122 4511,4142 4520,4162 4531,4183 4541,4204 4552,4225 4562,4246 4572,4266 4580,4286 4586,4304 4591,4322 4593,4338 4593,4353 4588,4368 4583,4383 4575,4396 4564,4410 4552,4425 4537,4438 4522,4452 4507,4466 4491,4480 4476,4494 4461,4508 4449,4522 4438,4536 4430,4550 4425,4564 4420,4579 4420,4593 4422,4606 4425,4622 4430,4638 4437,4656 4446,4674 4456,4691 4467,4711 4479,4731 4491,4751 4503,4771 4516,4791 4528,4811 4539,4830 4550,4848 4559,4867 4566,4883 4573,4901 4579,4920 4582,4939 4584,4959 4584,4980 4581,5002 4577,5026 4571,5053 4563,5080 4554,5109 4544,5138 4535,5163 4527,5185 4520,5200 4517,5209 4515,5212 4515,5213 " />
  <polygon
     id="polygon18"
     style="fill:#ff0000;stroke:#ff0000;stroke-width:63;stroke-miterlimit:8"
     points="4494,2820 4543,2908 4640,2878 4640,2878 4638,2675 " />
  <polyline
     id="polyline20"
     style="fill:none;stroke:#ffd600;stroke-width:63;stroke-linecap:butt;stroke-linejoin:bevel"
     points="1856,5116 1860,5114 1867,5112 1882,5109 1902,5105 1928,5099 1960,5092 1993,5085 2028,5078 2064,5070 2096,5064 2127,5059 2155,5054 2180,5050 2203,5047 2223,5046 2241,5045 2257,5045 2270,5047 2284,5049 2301,5054 2316,5060 2329,5067 2343,5076 2355,5085 2368,5095 2380,5104 2392,5113 2405,5122 2418,5129 2432,5135 2448,5139 2464,5141 2481,5141 2497,5139 2514,5134 2533,5130 2553,5125 2574,5118 2597,5110 2620,5102 2643,5093 2667,5085 2691,5077 2714,5068 2737,5061 2758,5054 2777,5048 2795,5044 2812,5041 2826,5039 2839,5039 2855,5041 2868,5047 2878,5056 2888,5067 2895,5081 2903,5095 2912,5109 2921,5123 2932,5134 2945,5144 2961,5151 2980,5155 2996,5155 3014,5154 3033,5152 3055,5149 3078,5145 3103,5140 3129,5133 3156,5127 3185,5120 3212,5112 3239,5106 3266,5099 3291,5093 3314,5088 3336,5084 3355,5081 3373,5079 3388,5079 3408,5080 3424,5085 3438,5091 3448,5101 3459,5111 3467,5123 3476,5135 3485,5146 3496,5155 3507,5163 3522,5168 3540,5171 3553,5171 3569,5170 3587,5167 3606,5164 3628,5160 3650,5154 3674,5148 3699,5142 3724,5135 3750,5129 3775,5123 3799,5117 3822,5111 3844,5107 3864,5103 3883,5100 3900,5099 3914,5098 3934,5100 3950,5104 3965,5111 3976,5121 3988,5131 3997,5144 4008,5156 4018,5169 4029,5182 4041,5192 4055,5202 4072,5209 4083,5212 4097,5214 4112,5216 4130,5217 4150,5218 4172,5217 4197,5216 4225,5214 4257,5212 4290,5209 4325,5205 4362,5202 4396,5197 4428,5193 4455,5190 4476,5187 4491,5186 4498,5184 4502,5184 " />
  <polyline
     id="polyline22"
     style="fill:none;stroke:#ffd600;stroke-width:63;stroke-linecap:butt;stroke-linejoin:bevel"
     points="6283,3635 6485,3542 6460,3553 6432,3567 6401,3583 6369,3598 6338,3614 6307,3630 6280,3645 6255,3658 6233,3671 6214,3682 6197,3694 6182,3704 6171,3714 6160,3723 6151,3734 6140,3748 6132,3761 6125,3776 6120,3791 6116,3806 6112,3821 6108,3837 6103,3851 6098,3866 6092,3880 6085,3892 6075,3905 6062,3917 6048,3927 6034,3935 6019,3943 6002,3951 5983,3959 5962,3967 5939,3974 5916,3983 5891,3990 5867,3998 5843,4007 5820,4014 5798,4022 5777,4030 5758,4037 5741,4045 5727,4052 5714,4059 5704,4067 5694,4078 5688,4091 5685,4104 5685,4119 5687,4134 5689,4151 5691,4166 5692,4183 5691,4199 5687,4215 5678,4229 5666,4245 5653,4255 5639,4265 5623,4276 5604,4286 5582,4297 5559,4308 5534,4320 5509,4331 5483,4343 5457,4354 5430,4366 5406,4377 5382,4388 5361,4398 5341,4409 5324,4418 5309,4428 5296,4437 5282,4451 5272,4465 5267,4478 5264,4492 5262,4507 5262,4521 5262,4536 5262,4550 5260,4563 5256,4577 5248,4590 5236,4602 5225,4611 5212,4619 5196,4628 5179,4637 5160,4646 5139,4657 5116,4666 5092,4677 5068,4687 5044,4698 5020,4708 4998,4718 4976,4728 4956,4738 4937,4747 4921,4756 4907,4765 4895,4774 4880,4788 4870,4802 4864,4815 4859,4830 4857,4846 4856,4862 4856,4879 4856,4895 4854,4912 4851,4928 4846,4944 4836,4960 4829,4971 4820,4981 4810,4992 4796,5003 4782,5016 4763,5029 4743,5044 4719,5060 4692,5077 4664,5095 4634,5113 4603,5132 4573,5151 4545,5167 4521,5182 4503,5192 4491,5200 4483,5204 4480,5206 " />
  <polygon
     id="polygon24"
     style="fill:#ffd600;stroke:#ffd600;stroke-width:63;stroke-miterlimit:8"
     points="6305,3531 6280,3637 6377,3686 6377,3686 6525,3523 " />
  <text
     style="font-style:normal;font-weight:normal;font-size:378px;font-family:Helvetica;text-anchor:start;fill:#b000b0;stroke-width:0.025in"
     id="text26"
     font-size="378"
     font-weight="normal"
     font-style="normal"
     y="4488"
     x="6850"
     xml:space="preserve">Objekt</text>
</svg>
