<?xml version="1.0" encoding="UTF-8" standalone="no"?>
<!-- Creator: fig2dev Version 3.2 Patchlevel 5e -->

<!-- CreationDate: Thu Oct 29 15:42:00 2015 -->

<!-- Magnification: 1.050 -->

<svg
   xmlns:dc="http://purl.org/dc/elements/1.1/"
   xmlns:cc="http://creativecommons.org/ns#"
   xmlns:rdf="http://www.w3.org/1999/02/22-rdf-syntax-ns#"
   xmlns:svg="http://www.w3.org/2000/svg"
   xmlns="http://www.w3.org/2000/svg"
   xmlns:sodipodi="http://sodipodi.sourceforge.net/DTD/sodipodi-0.dtd"
   xmlns:inkscape="http://www.inkscape.org/namespaces/inkscape"
   width="3.8in"
   height="1.8in"
   viewBox="1919 3260 4521 2218"
   id="svg2"
   version="1.1"
   inkscape:version="0.91 r13725"
   sodipodi:docname="fig_farbeRadiosityKonkav.svg">
  <metadata
     id="metadata42">
    <rdf:RDF>
      <cc:Work
         rdf:about="">
        <dc:format>image/svg+xml</dc:format>
        <dc:type
           rdf:resource="http://purl.org/dc/dcmitype/StillImage" />
      </cc:Work>
    </rdf:RDF>
  </metadata>
  <defs
     id="defs40" />
  <sodipodi:namedview
     pagecolor="#ffffff"
     bordercolor="#666666"
     borderopacity="1"
     objecttolerance="10"
     gridtolerance="10"
     guidetolerance="10"
     inkscape:pageopacity="0"
     inkscape:pageshadow="2"
     inkscape:window-width="640"
     inkscape:window-height="480"
     id="namedview38"
     showgrid="false"
     inkscape:zoom="1.3304094"
     inkscape:cx="171"
     inkscape:cy="80.999998"
     inkscape:window-x="142"
     inkscape:window-y="60"
     inkscape:window-maximized="0"
     inkscape:current-layer="svg2" />
  <polygon
     id="polygon6"
     style="fill:#7f7fff;stroke:#0000ff;stroke-width:0;stroke-linecap:butt;stroke-linejoin:miter"
     points="2929,4251 5716,3543 5858,3354 3070,4015 3070,4015 2929,4204 " />
  <polygon
     id="polygon8"
     style="fill:#8c8cff;stroke:#0000ff;stroke-width:0;stroke-linecap:butt;stroke-linejoin:miter"
     points="5669,3779 5716,3543 2929,4251 2929,4251 2834,4488 " />
  <polygon
     id="polygon10"
     style="fill:#9999ff;stroke:#0000ff;stroke-width:0;stroke-linecap:butt;stroke-linejoin:miter"
     points="5669,4015 5669,3779 2834,4488 2834,4488 2834,4724 " />
  <polygon
     id="polygon12"
     style="fill:#a5a5ff;stroke:#0000ff;stroke-width:0;stroke-linecap:butt;stroke-linejoin:miter"
     points="5716,4251 5669,4015 2834,4724 2834,4724 2881,4960 " />
  <polygon
     id="polygon14"
     style="fill:#b2b2ff;stroke:#0000ff;stroke-width:0;stroke-linecap:butt;stroke-linejoin:miter"
     points="5905,4488 5716,4251 2881,4960 2881,4960 3070,5196 " />
  <polygon
     id="polygon16"
     style="fill:#bfbfff;stroke:#0000ff;stroke-width:0;stroke-linecap:butt;stroke-linejoin:miter"
     points="6141,4629 5905,4488 3070,5196 3070,5196 3307,5338 " />
  <polygon
     id="polygon18"
     style="fill:#ccccff;stroke:#0000ff;stroke-width:0;stroke-linecap:butt;stroke-linejoin:miter"
     points="6330,4724 6094,4629 3307,5338 3307,5338 3543,5433 " />
  <path
     inkscape:connector-curvature="0"
     id="path20"
     d="m 3070,4015 a 835,835 0 0 0 473,1418"
     style="fill:none;stroke:#0000ff;stroke-width:48;stroke-linecap:butt" />
  <path
     inkscape:connector-curvature="0"
     id="path22"
     d="m 5905,3307 a 835,835 0 0 0 472,1417"
     style="fill:none;stroke:#0000ff;stroke-width:48;stroke-linecap:butt" />
  <polyline
     id="polyline24"
     style="fill:none;stroke:#0000ff;stroke-width:48;stroke-linecap:butt;stroke-linejoin:miter"
     points="3070,4015 5905,3307 " />
  <polyline
     id="polyline26"
     style="fill:none;stroke:#0000ff;stroke-width:48;stroke-linecap:butt;stroke-linejoin:miter"
     points="3543,5433 6377,4724 " />
  <polyline
     id="polyline28"
     style="fill:none;stroke:#ff0000;stroke-width:63;stroke-linecap:butt;stroke-linejoin:miter"
     points="4488,4960 4193,4665 " />
  <polygon
     id="polygon30"
     style="fill:#ff0000;stroke:#ff0000;stroke-width:63;stroke-miterlimit:8"
     points="4094,4678 4194,4666 4205,4566 4205,4566 4016,4489 " />
  <polyline
     id="polyline32"
     style="fill:none;stroke:#ff0000;stroke-width:63;stroke-linecap:butt;stroke-linejoin:miter"
     points="4488,4960 4848,4240 " />
  <polygon
     id="polygon34"
     style="fill:#ff0000;stroke:#ff0000;stroke-width:63;stroke-miterlimit:8"
     points="4803,4151 4845,4242 4943,4221 4943,4221 4958,4017 " />
  <text
     style="font-style:normal;font-weight:normal;font-size:429px;font-family:Times;text-anchor:end;fill:#0000ff;stroke-width:0.025in"
     id="text36"
     font-size="429"
     font-weight="normal"
     font-style="normal"
     y="3779"
     x="6425"
     xml:space="preserve">$Aᵢ$</text>
</svg>
