<?xml version="1.0" encoding="UTF-8" standalone="no"?>
<!-- Creator: fig2dev Version 3.2 Patchlevel 5e -->

<!-- CreationDate: Wed Sep 30 10:37:43 2015 -->

<!-- Magnification: 1.050 -->

<svg
   xmlns:dc="http://purl.org/dc/elements/1.1/"
   xmlns:cc="http://creativecommons.org/ns#"
   xmlns:rdf="http://www.w3.org/1999/02/22-rdf-syntax-ns#"
   xmlns:svg="http://www.w3.org/2000/svg"
   xmlns="http://www.w3.org/2000/svg"
   xmlns:sodipodi="http://sodipodi.sourceforge.net/DTD/sodipodi-0.dtd"
   xmlns:inkscape="http://www.inkscape.org/namespaces/inkscape"
   width="8.4in"
   height="6.8in"
   viewBox="3238 2316 10035 8123"
   id="svg2"
   version="1.1"
   inkscape:version="0.91 r13725"
   sodipodi:docname="fig_clip3DFuerSchichten.svg">
  <metadata
     id="metadata162">
    <rdf:RDF>
      <cc:Work
         rdf:about="">
        <dc:format>image/svg+xml</dc:format>
        <dc:type
           rdf:resource="http://purl.org/dc/dcmitype/StillImage" />
      </cc:Work>
    </rdf:RDF>
  </metadata>
  <defs
     id="defs160" />
  <sodipodi:namedview
     pagecolor="#ffffff"
     bordercolor="#666666"
     borderopacity="1"
     objecttolerance="10"
     gridtolerance="10"
     guidetolerance="10"
     inkscape:pageopacity="0"
     inkscape:pageshadow="2"
     inkscape:window-width="2418"
     inkscape:window-height="1261"
     id="namedview158"
     showgrid="false"
     inkscape:zoom="1.0907006"
     inkscape:cx="486.60527"
     inkscape:cy="293.51429"
     inkscape:window-x="142"
     inkscape:window-y="60"
     inkscape:window-maximized="1"
     inkscape:current-layer="svg2" />
  <polygon
     id="polygon6"
     style="fill:none;stroke:#00b000;stroke-width:48;stroke-linecap:butt;stroke-linejoin:miter"
     points="7559,3070 8503,4015 8503,5669 6614,5669 6614,5669 6614,4015 " />
  <polyline
     id="polyline8"
     style="fill:none;stroke:#00b000;stroke-width:48;stroke-linecap:butt;stroke-linejoin:miter"
     points="7559,3070 9685,2362 " />
  <polyline
     id="polyline10"
     style="fill:none;stroke:#00b000;stroke-width:48;stroke-linecap:butt;stroke-linejoin:miter"
     points="9685,2362 10629,3307 10629,4960 8503,5669 " />
  <polyline
     id="polyline12"
     style="fill:none;stroke:#00b000;stroke-width:48;stroke-linecap:butt;stroke-linejoin:miter"
     points="8503,4015 10629,3307 " />
  <polyline
     id="polyline14"
     style="fill:none;stroke:#00b000;stroke-width:32;stroke-linecap:butt;stroke-linejoin:miter;stroke-dasharray:83, 83"
     points="11338,4724 5891,6539 " />
  <polygon
     id="polygon16"
     style="fill:#00b000;stroke:#00b000;stroke-width:32;stroke-miterlimit:8"
     points="5856,6617 5891,6538 5816,6497 5816,6497 5668,6614 " />
  <polygon
     id="polygon18"
     style="fill:none;stroke:#b000b0;stroke-width:48;stroke-linecap:butt;stroke-linejoin:miter"
     points="4724,7795 5669,8740 5669,10393 3779,10393 3779,10393 3779,8740 " />
  <polygon
     id="polygon20"
     style="fill:none;stroke:#0000ff;stroke-width:48;stroke-linecap:butt;stroke-linejoin:miter"
     points="12283,6614 13228,7559 13228,9212 11338,9212 11338,9212 11338,7559 " />
  <polyline
     id="polyline22"
     style="fill:none;stroke:#0000ff;stroke-width:32;stroke-linecap:butt;stroke-linejoin:miter"
     points="11338,8031 13228,8031 " />
  <polyline
     id="polyline24"
     style="fill:none;stroke:#0000ff;stroke-width:32;stroke-linecap:butt;stroke-linejoin:miter"
     points="11811,7086 12283,7086 12283,8031 " />
  <polyline
     id="polyline26"
     style="fill:none;stroke:#0000ff;stroke-width:16;stroke-linecap:butt;stroke-linejoin:miter"
     points="12283,7322 12047,7322 12047,8031 " />
  <polyline
     id="polyline28"
     style="fill:none;stroke:#0000ff;stroke-width:16;stroke-linecap:butt;stroke-linejoin:miter"
     points="11338,7842 11811,7842 11811,8031 " />
  <polyline
     id="polyline30"
     style="fill:none;stroke:#0000ff;stroke-width:16;stroke-linecap:butt;stroke-linejoin:miter"
     points="12425,7984 12566,7984 " />
  <polyline
     id="polyline32"
     style="fill:none;stroke:#0000ff;stroke-width:16;stroke-linecap:butt;stroke-linejoin:miter"
     points="12472,7937 12614,7937 " />
  <polyline
     id="polyline34"
     style="fill:none;stroke:#0000ff;stroke-width:16;stroke-linecap:butt;stroke-linejoin:miter"
     points="12519,7889 12661,7889 " />
  <polyline
     id="polyline36"
     style="fill:none;stroke:#0000ff;stroke-width:16;stroke-linecap:butt;stroke-linejoin:miter"
     points="12566,7842 12708,7842 " />
  <polyline
     id="polyline38"
     style="fill:none;stroke:#0000ff;stroke-width:16;stroke-linecap:butt;stroke-linejoin:miter"
     points="12614,7795 12755,7795 " />
  <polyline
     id="polyline40"
     style="fill:none;stroke:#0000ff;stroke-width:16;stroke-linecap:butt;stroke-linejoin:miter"
     points="12661,7748 12803,7748 " />
  <polyline
     id="polyline42"
     style="fill:none;stroke:#0000ff;stroke-width:16;stroke-linecap:butt;stroke-linejoin:miter"
     points="12661,7700 12803,7700 " />
  <polyline
     id="polyline44"
     style="fill:none;stroke:#0000ff;stroke-width:16;stroke-linecap:butt;stroke-linejoin:miter"
     points="12661,7653 12803,7653 " />
  <polyline
     id="polyline46"
     style="fill:none;stroke:#0000ff;stroke-width:16;stroke-linecap:butt;stroke-linejoin:miter"
     points="12661,7606 12803,7606 " />
  <polyline
     id="polyline48"
     style="fill:none;stroke:#0000ff;stroke-width:16;stroke-linecap:butt;stroke-linejoin:miter"
     points="12661,7559 12803,7559 " />
  <polyline
     id="polyline50"
     style="fill:none;stroke:#0000ff;stroke-width:16;stroke-linecap:butt;stroke-linejoin:miter"
     points="12661,7511 12803,7511 " />
  <polyline
     id="polyline52"
     style="fill:none;stroke:#0000ff;stroke-width:16;stroke-linecap:butt;stroke-linejoin:miter"
     points="12661,7464 12803,7464 " />
  <polyline
     id="polyline54"
     style="fill:none;stroke:#0000ff;stroke-width:16;stroke-linecap:butt;stroke-linejoin:miter"
     points="12661,7417 12803,7417 " />
  <polyline
     id="polyline56"
     style="fill:none;stroke:#0000ff;stroke-width:16;stroke-linecap:butt;stroke-linejoin:miter"
     points="12661,7370 12803,7370 " />
  <polyline
     id="polyline58"
     style="fill:none;stroke:#0000ff;stroke-width:16;stroke-linecap:butt;stroke-linejoin:miter"
     points="12614,7322 12755,7322 " />
  <polyline
     id="polyline60"
     style="fill:none;stroke:#0000ff;stroke-width:16;stroke-linecap:butt;stroke-linejoin:miter"
     points="12566,7275 12708,7275 " />
  <polyline
     id="polyline62"
     style="fill:none;stroke:#0000ff;stroke-width:16;stroke-linecap:butt;stroke-linejoin:miter"
     points="12519,7228 12661,7228 " />
  <polyline
     id="polyline64"
     style="fill:none;stroke:#0000ff;stroke-width:16;stroke-linecap:butt;stroke-linejoin:miter"
     points="12472,7181 12614,7181 " />
  <polyline
     id="polyline66"
     style="fill:none;stroke:#0000ff;stroke-width:16;stroke-linecap:butt;stroke-linejoin:miter"
     points="12425,7133 12566,7133 " />
  <polyline
     id="polyline68"
     style="fill:none;stroke:#0000ff;stroke-width:16;stroke-linecap:butt;stroke-linejoin:miter"
     points="12377,7086 12519,7086 " />
  <polyline
     id="polyline70"
     style="fill:none;stroke:#0000ff;stroke-width:16;stroke-linecap:butt;stroke-linejoin:miter"
     points="12897,9165 13181,9165 " />
  <polyline
     id="polyline72"
     style="fill:none;stroke:#0000ff;stroke-width:16;stroke-linecap:butt;stroke-linejoin:miter"
     points="12897,9118 13181,9118 " />
  <polyline
     id="polyline74"
     style="fill:none;stroke:#0000ff;stroke-width:16;stroke-linecap:butt;stroke-linejoin:miter"
     points="12897,9070 13181,9070 " />
  <polyline
     id="polyline76"
     style="fill:none;stroke:#0000ff;stroke-width:16;stroke-linecap:butt;stroke-linejoin:miter"
     points="12897,9023 13181,9023 " />
  <polyline
     id="polyline78"
     style="fill:none;stroke:#0000ff;stroke-width:16;stroke-linecap:butt;stroke-linejoin:miter"
     points="12897,8976 13181,8976 " />
  <polyline
     id="polyline80"
     style="fill:none;stroke:#0000ff;stroke-width:16;stroke-linecap:butt;stroke-linejoin:miter"
     points="12897,8929 13181,8929 " />
  <polyline
     id="polyline82"
     style="fill:none;stroke:#0000ff;stroke-width:16;stroke-linecap:butt;stroke-linejoin:miter"
     points="12897,8881 13181,8881 " />
  <polyline
     id="polyline84"
     style="fill:none;stroke:#0000ff;stroke-width:16;stroke-linecap:butt;stroke-linejoin:miter"
     points="12897,8834 13181,8834 " />
  <polyline
     id="polyline86"
     style="fill:none;stroke:#0000ff;stroke-width:16;stroke-linecap:butt;stroke-linejoin:miter"
     points="12897,8787 13181,8787 " />
  <polyline
     id="polyline88"
     style="fill:none;stroke:#0000ff;stroke-width:16;stroke-linecap:butt;stroke-linejoin:miter"
     points="12897,8740 13181,8740 " />
  <polyline
     id="polyline90"
     style="fill:none;stroke:#0000ff;stroke-width:16;stroke-linecap:butt;stroke-linejoin:miter"
     points="12897,8692 13181,8692 " />
  <polyline
     id="polyline92"
     style="fill:none;stroke:#0000ff;stroke-width:16;stroke-linecap:butt;stroke-linejoin:miter"
     points="12897,8645 13181,8645 " />
  <polyline
     id="polyline94"
     style="fill:none;stroke:#0000ff;stroke-width:16;stroke-linecap:butt;stroke-linejoin:miter"
     points="12897,8598 13181,8598 " />
  <polyline
     id="polyline96"
     style="fill:none;stroke:#0000ff;stroke-width:16;stroke-linecap:butt;stroke-linejoin:miter"
     points="12897,8551 13181,8551 " />
  <polyline
     id="polyline98"
     style="fill:none;stroke:#0000ff;stroke-width:16;stroke-linecap:butt;stroke-linejoin:miter"
     points="12897,8503 13181,8503 " />
  <polyline
     id="polyline100"
     style="fill:none;stroke:#0000ff;stroke-width:16;stroke-linecap:butt;stroke-linejoin:miter"
     points="12897,8456 13181,8456 " />
  <polyline
     id="polyline102"
     style="fill:none;stroke:#0000ff;stroke-width:16;stroke-linecap:butt;stroke-linejoin:miter"
     points="12897,8409 13181,8409 " />
  <polyline
     id="polyline104"
     style="fill:none;stroke:#0000ff;stroke-width:16;stroke-linecap:butt;stroke-linejoin:miter"
     points="12897,8362 13181,8362 " />
  <polyline
     id="polyline106"
     style="fill:none;stroke:#0000ff;stroke-width:16;stroke-linecap:butt;stroke-linejoin:miter"
     points="12897,8314 13181,8314 " />
  <polyline
     id="polyline108"
     style="fill:none;stroke:#0000ff;stroke-width:16;stroke-linecap:butt;stroke-linejoin:miter"
     points="12897,8267 13181,8267 " />
  <polyline
     id="polyline110"
     style="fill:none;stroke:#0000ff;stroke-width:16;stroke-linecap:butt;stroke-linejoin:miter"
     points="12897,8220 13181,8220 " />
  <polyline
     id="polyline112"
     style="fill:none;stroke:#0000ff;stroke-width:16;stroke-linecap:butt;stroke-linejoin:miter"
     points="12897,8173 13181,8173 " />
  <polyline
     id="polyline114"
     style="fill:none;stroke:#0000ff;stroke-width:16;stroke-linecap:butt;stroke-linejoin:miter"
     points="12897,8125 13181,8125 " />
  <polyline
     id="polyline116"
     style="fill:none;stroke:#0000ff;stroke-width:16;stroke-linecap:butt;stroke-linejoin:miter"
     points="12897,8078 13181,8078 " />
  <polyline
     id="polyline118"
     style="fill:none;stroke:#0000ff;stroke-width:16;stroke-linecap:butt;stroke-linejoin:miter"
     points="11669,8929 12000,8929 " />
  <polyline
     id="polyline120"
     style="fill:none;stroke:#0000ff;stroke-width:16;stroke-linecap:butt;stroke-linejoin:miter"
     points="11952,8929 11952,9212 " />
  <polyline
     id="polyline122"
     style="fill:none;stroke:#0000ff;stroke-width:32;stroke-linecap:butt;stroke-linejoin:miter"
     points="12472,8031 12472,8267 12472,9212 " />
  <polyline
     id="polyline124"
     style="fill:none;stroke:#0000ff;stroke-width:16;stroke-linecap:butt;stroke-linejoin:miter"
     points="12519,9212 12519,8503 12850,8503 12850,9212 " />
  <polyline
     id="polyline126"
     style="fill:none;stroke:#0000ff;stroke-width:16;stroke-linecap:butt;stroke-linejoin:miter"
     points="11716,8929 11716,9212 " />
  <polyline
     id="polyline128"
     style="fill:none;stroke:#0000ff;stroke-width:16;stroke-linecap:butt;stroke-linejoin:miter"
     points="11480,9023 11669,9023 " />
  <polyline
     id="polyline130"
     style="fill:none;stroke:#0000ff;stroke-width:16;stroke-linecap:butt;stroke-linejoin:miter"
     points="11433,8881 11480,9023 11480,9212 " />
  <polyline
     id="polyline132"
     style="fill:none;stroke:#0000ff;stroke-width:16;stroke-linecap:butt;stroke-linejoin:miter"
     points="11622,9023 11622,9212 " />
  <polyline
     id="polyline134"
     style="fill:none;stroke:#0000ff;stroke-width:16;stroke-linecap:butt;stroke-linejoin:miter"
     points="12283,9023 12094,9023 " />
  <polyline
     id="polyline136"
     style="fill:none;stroke:#0000ff;stroke-width:16;stroke-linecap:butt;stroke-linejoin:miter"
     points="12330,8881 12283,9023 12283,9212 " />
  <polyline
     id="polyline138"
     style="fill:none;stroke:#0000ff;stroke-width:16;stroke-linecap:butt;stroke-linejoin:miter"
     points="12141,9023 12141,9212 " />
  <polyline
     id="polyline140"
     style="fill:none;stroke:#b000b0;stroke-width:63;stroke-linecap:butt;stroke-linejoin:bevel"
     points="6377,7086 6374,7088 6367,7091 6354,7099 6335,7108 6311,7122 6284,7137 6254,7153 6222,7171 6192,7189 6163,7206 6137,7223 6113,7237 6093,7252 6075,7266 6060,7277 6048,7290 6037,7300 6029,7312 6024,7322 6017,7336 6014,7350 6012,7364 6012,7379 6014,7395 6016,7412 6019,7428 6024,7446 6027,7464 6030,7483 6032,7501 6034,7521 6034,7540 6032,7559 6029,7577 6024,7598 6017,7613 6010,7629 6002,7645 5991,7662 5979,7681 5964,7701 5946,7724 5927,7749 5905,7774 5881,7802 5855,7832 5826,7863 5798,7893 5771,7924 5744,7951 5721,7976 5701,7996 5840,7847 " />
  <polygon
     id="polygon142"
     style="fill:#b000b0;stroke:#b000b0;stroke-width:63;stroke-miterlimit:8"
     points="5861,7964 5836,7854 5724,7834 5724,7834 5662,8036 " />
  <polyline
     id="polyline144"
     style="fill:none;stroke:#0000ff;stroke-width:63;stroke-linecap:butt;stroke-linejoin:bevel"
     points="10629,5905 10633,5907 10640,5910 10653,5918 10671,5927 10696,5941 10723,5955 10753,5972 10785,5990 10815,6008 10844,6025 10870,6041 10894,6056 10914,6071 10932,6085 10946,6096 10959,6109 10970,6119 10978,6131 10984,6141 10990,6155 10993,6169 10995,6183 10995,6198 10993,6214 10991,6230 10987,6247 10984,6265 10980,6283 10977,6302 10975,6320 10973,6340 10973,6359 10975,6377 10978,6396 10984,6417 10990,6432 10997,6448 11005,6464 11016,6481 11028,6500 11043,6520 11061,6543 11080,6567 11102,6593 11126,6621 11152,6650 11181,6682 11209,6712 11236,6743 11262,6770 11286,6795 11306,6815 11166,6666 " />
  <polygon
     id="polygon146"
     style="fill:#0000ff;stroke:#0000ff;stroke-width:63;stroke-miterlimit:8"
     points="11282,6653 11170,6671 11145,6782 11145,6782 11343,6855 " />
  <text
     style="font-style:normal;font-weight:normal;font-size:429px;font-family:Times;text-anchor:middle;fill:#0000ff;stroke-width:0.025in"
     id="text148"
     font-size="429"
     font-weight="normal"
     font-style="normal"
     y="5669"
     x="10157"
     xml:space="preserve">$nᵥ$</text>
  <text
     style="font-style:normal;font-weight:normal;font-size:429px;font-family:Times;text-anchor:middle;fill:#00b000;stroke-width:0.025in"
     id="text150"
     font-size="429"
     font-weight="normal"
     font-style="normal"
     y="6377"
     x="5669"
     xml:space="preserve">$n$</text>
  <text
     style="font-style:normal;font-weight:normal;font-size:429px;font-family:Times;text-anchor:middle;fill:#b000b0;stroke-width:0.025in"
     id="text152"
     font-size="429"
     font-weight="normal"
     font-style="normal"
     y="6850"
     x="6614"
     xml:space="preserve">$nᵥ$</text>
  <polyline
     id="polyline154"
     style="fill:none;stroke:#b000b0;stroke-width:63;stroke-linecap:butt;stroke-linejoin:miter"
     points="6377,6283 6377,6519 " />
  <polyline
     id="polyline156"
     style="fill:none;stroke:#0000ff;stroke-width:63;stroke-linecap:butt;stroke-linejoin:miter"
     points="9921,5055 9921,5338 " />
</svg>
