<?xml version="1.0" encoding="UTF-8" standalone="no"?>
<!-- Creator: fig2dev Version 3.2 Patchlevel 5e -->

<!-- CreationDate: Thu Sep 24 11:57:58 2015 -->

<!-- Magnification: 1.050 -->

<svg
   xmlns:dc="http://purl.org/dc/elements/1.1/"
   xmlns:cc="http://creativecommons.org/ns#"
   xmlns:rdf="http://www.w3.org/1999/02/22-rdf-syntax-ns#"
   xmlns:svg="http://www.w3.org/2000/svg"
   xmlns="http://www.w3.org/2000/svg"
   xmlns:sodipodi="http://sodipodi.sourceforge.net/DTD/sodipodi-0.dtd"
   xmlns:inkscape="http://www.inkscape.org/namespaces/inkscape"
   width="11.3in"
   height="5.1in"
   viewBox="4614 1795 13597 6062"
   id="svg2"
   version="1.1"
   inkscape:version="0.91 r13725"
   sodipodi:docname="fig_hardwareKathodenstrahlroehre.svg">
  <metadata
     id="metadata126">
    <rdf:RDF>
      <cc:Work
         rdf:about="">
        <dc:format>image/svg+xml</dc:format>
        <dc:type
           rdf:resource="http://purl.org/dc/dcmitype/StillImage" />
      </cc:Work>
    </rdf:RDF>
  </metadata>
  <defs
     id="defs124" />
  <sodipodi:namedview
     pagecolor="#ffffff"
     bordercolor="#666666"
     borderopacity="1"
     objecttolerance="10"
     gridtolerance="10"
     guidetolerance="10"
     inkscape:pageopacity="0"
     inkscape:pageshadow="2"
     inkscape:window-width="2418"
     inkscape:window-height="1261"
     id="namedview122"
     showgrid="false"
     inkscape:zoom="1.3850115"
     inkscape:cx="429.90048"
     inkscape:cy="250.11431"
     inkscape:window-x="142"
     inkscape:window-y="60"
     inkscape:window-maximized="1"
     inkscape:current-layer="svg2" />
  <path
     inkscape:connector-curvature="0"
     id="path6"
     d="m 15118,2362 a 4291,4291 0 0 1 0,4724"
     style="fill:none;stroke:#000000;stroke-width:32;stroke-linecap:butt" />
  <rect
     id="rect8"
     style="fill:#ffffff;stroke:#0000ff;stroke-width:32;stroke-linecap:butt;stroke-linejoin:miter"
     rx="0"
     height="566"
     width="708"
     y="4346"
     x="10393" />
  <polyline
     id="polyline10"
     style="fill:none;stroke:#00d1d1;stroke-width:32;stroke-linecap:butt;stroke-linejoin:miter"
     points="9332,4493 9419,4493 9504,4578 9504,4836 9419,4921 9332,4921 " />
  <polyline
     id="polyline12"
     style="fill:none;stroke:#ff0000;stroke-width:48;stroke-linecap:butt;stroke-linejoin:miter"
     points="9921,4866 9921,5669 " />
  <polygon
     id="polygon14"
     style="fill:#ffffff;stroke:#0000ff;stroke-width:32;stroke-linecap:butt;stroke-linejoin:miter"
     points="12188,4818 11905,5055 11244,5055 11244,5055 11527,4818 " />
  <polygon
     id="polygon16"
     style="fill:#ffffff;stroke:#0000ff;stroke-width:32;stroke-linecap:butt;stroke-linejoin:miter"
     points="12236,4393 11952,4629 11291,4629 11291,4629 11574,4393 " />
  <polyline
     id="polyline18"
     style="fill:none;stroke:#00b000;stroke-width:48;stroke-linecap:butt;stroke-linejoin:miter"
     points="8267,3779 8267,5669 " />
  <polyline
     id="polyline20"
     style="fill:none;stroke:#ff0000;stroke-width:48;stroke-linecap:butt;stroke-linejoin:miter"
     points="9921,3779 9921,4582 " />
  <polyline
     id="polyline22"
     style="fill:none;stroke:#a14000;stroke-width:63;stroke-linecap:butt;stroke-linejoin:miter"
     points="12578,5552 15070,6944 " />
  <polyline
     id="polyline24"
     style="fill:none;stroke:#a14000;stroke-width:63;stroke-linecap:butt;stroke-linejoin:miter"
     points="12577,3892 15081,2522 " />
  <text
     style="font-style:normal;font-weight:normal;font-size:303px;font-family:Helvetica;text-anchor:middle;fill:#a14000;stroke-width:0.025in"
     id="text26"
     font-size="303"
     font-weight="normal"
     font-style="normal"
     y="6944"
     x="12944"
     xml:space="preserve">Leitschicht</text>
  <text
     style="font-style:normal;font-weight:normal;font-size:303px;font-family:Helvetica;text-anchor:middle;fill:#a14000;stroke-width:0.025in"
     id="text28"
     font-size="303"
     font-weight="normal"
     font-style="normal"
     y="7370"
     x="12944"
     xml:space="preserve">(++)</text>
  <text
     style="font-style:normal;font-weight:normal;font-size:303px;font-family:Helvetica;text-anchor:middle;fill:#00d1d1;stroke-width:0.025in"
     id="text30"
     font-size="303"
     font-weight="normal"
     font-style="normal"
     y="3543"
     x="9070"
     xml:space="preserve">Fokussierung</text>
  <text
     style="font-style:normal;font-weight:normal;font-size:303px;font-family:Helvetica;text-anchor:middle;fill:#0000ff;stroke-width:0.025in"
     id="text32"
     font-size="303"
     font-weight="normal"
     font-style="normal"
     y="2125"
     x="11622"
     xml:space="preserve">Ablenkeinheit</text>
  <text
     style="font-style:normal;font-weight:normal;font-size:303px;font-family:Helvetica;text-anchor:middle;fill:#0000ff;stroke-width:0.025in"
     id="text34"
     font-size="303"
     font-weight="normal"
     font-style="normal"
     y="2834"
     x="10440"
     xml:space="preserve">horizontale</text>
  <text
     style="font-style:normal;font-weight:normal;font-size:303px;font-family:Helvetica;text-anchor:middle;fill:#0000ff;stroke-width:0.025in"
     id="text36"
     font-size="303"
     font-weight="normal"
     font-style="normal"
     y="2834"
     x="12944"
     xml:space="preserve">vertikale</text>
  <text
     style="font-style:normal;font-weight:normal;font-size:303px;font-family:Helvetica;text-anchor:middle;fill:#00b000;stroke-width:0.025in"
     id="text38"
     font-size="303"
     font-weight="normal"
     font-style="normal"
     y="6141"
     x="7937"
     xml:space="preserve">Steuergitter</text>
  <text
     style="font-style:normal;font-weight:normal;font-size:303px;font-family:Helvetica;text-anchor:middle;fill:#00b000;stroke-width:0.025in"
     id="text40"
     font-size="303"
     font-weight="normal"
     font-style="normal"
     y="6566"
     x="7937"
     xml:space="preserve">(-)</text>
  <text
     style="font-style:normal;font-weight:normal;font-size:303px;font-family:Helvetica;text-anchor:middle;fill:#ff0000;stroke-width:0.025in"
     id="text42"
     font-size="303"
     font-weight="normal"
     font-style="normal"
     y="6141"
     x="10062"
     xml:space="preserve">Anode</text>
  <text
     style="font-style:normal;font-weight:normal;font-size:303px;font-family:Helvetica;text-anchor:middle;fill:#ff0000;stroke-width:0.025in"
     id="text44"
     font-size="303"
     font-weight="normal"
     font-style="normal"
     y="6566"
     x="10062"
     xml:space="preserve">(++)</text>
  <text
     style="font-style:normal;font-weight:normal;font-size:303px;font-family:Helvetica;text-anchor:middle;fill:#a14000;stroke-width:0.025in"
     id="text46"
     font-size="303"
     font-weight="normal"
     font-style="normal"
     y="7842"
     x="12944"
     xml:space="preserve">~ 20 kV</text>
  <text
     style="font-style:normal;font-weight:normal;font-size:303px;font-family:Helvetica;text-anchor:middle;fill:#ff0000;stroke-width:0.025in"
     id="text48"
     font-size="303"
     font-weight="normal"
     font-style="normal"
     y="7039"
     x="10062"
     xml:space="preserve">\string~ 10–20\,kV</text>
  <path
     inkscape:connector-curvature="0"
     id="path50"
     d="m 15070,2503 a 4057,4057 0 0 1 0,4441"
     style="fill:none;stroke:#00b000;stroke-width:63;stroke-linecap:butt" />
  <polyline
     id="polyline52"
     style="fill:none;stroke:#000000;stroke-width:32;stroke-linecap:butt;stroke-linejoin:miter"
     points="15118,2362 12519,3779 7086,3779 6850,4015 6850,5433 7086,5669 12519,5669 15118,7086 " />
  <polyline
     id="polyline54"
     style="fill:none;stroke:#ff00ff;stroke-width:63;stroke-linecap:butt;stroke-linejoin:bevel"
     points="15826,3685 15828,3681 15832,3674 15839,3660 15848,3641 15862,3617 15877,3588 15893,3556 15911,3524 15929,3492 15946,3462 15963,3434 15977,3407 15992,3384 16006,3363 16017,3345 16030,3330 16040,3315 16052,3302 16062,3291 16073,3280 16085,3271 16095,3262 16107,3255 16118,3249 16131,3244 16143,3239 16155,3236 16167,3234 16181,3234 16194,3234 16206,3236 16218,3239 16230,3244 16243,3249 16255,3255 16266,3262 16277,3271 16288,3280 16299,3291 16310,3303 16323,3317 16335,3333 16348,3350 16362,3367 16375,3386 16389,3406 16403,3427 16417,3448 16431,3469 16445,3490 16458,3510 16472,3529 16486,3547 16498,3564 16511,3580 16523,3593 16535,3606 16545,3616 16557,3626 16567,3634 16579,3641 16591,3648 16603,3653 16616,3657 16627,3660 16640,3662 16654,3662 16666,3662 16679,3660 16690,3657 16703,3653 16716,3648 16727,3641 16739,3634 16749,3626 16761,3616 16771,3606 16783,3593 16795,3580 16808,3564 16820,3547 16834,3529 16848,3510 16861,3490 16875,3469 16890,3448 16903,3427 16917,3406 16931,3386 16944,3367 16958,3350 16971,3333 16983,3317 16996,3303 17007,3291 17019,3279 17032,3269 17044,3260 17057,3252 17070,3245 17084,3239 17098,3234 17111,3231 17126,3229 17140,3227 17153,3227 17167,3228 17181,3230 17194,3233 17207,3236 17219,3240 17232,3246 17244,3252 17257,3258 17271,3267 17286,3275 17300,3286 17316,3296 17333,3307 17351,3318 17369,3331 17386,3342 17406,3354 17425,3364 17445,3375 17465,3385 17485,3394 17506,3402 17527,3409 17545,3414 17564,3419 17583,3423 17605,3426 17628,3429 17653,3433 17681,3436 17712,3438 17745,3440 17781,3442 17818,3443 17856,3444 17891,3446 17924,3446 17951,3447 17606,3440 " />
  <polygon
     id="polygon56"
     style="fill:#ff00ff;stroke:#ff00ff;stroke-width:8;stroke-miterlimit:8"
     points="17773,3325 17673,3442 17769,3562 17769,3562 18067,3449 " />
  <text
     style="font-style:normal;font-weight:normal;font-size:303px;font-family:Helvetica;text-anchor:start;fill:#00b000;stroke-width:0.025in"
     id="text58"
     font-size="303"
     font-weight="normal"
     font-style="normal"
     y="5007"
     x="15968"
     xml:space="preserve">Phosphor-</text>
  <text
     style="font-style:normal;font-weight:normal;font-size:303px;font-family:Helvetica;text-anchor:start;fill:#00b000;stroke-width:0.025in"
     id="text60"
     font-size="303"
     font-weight="normal"
     font-style="normal"
     y="5480"
     x="16251"
     xml:space="preserve">schicht</text>
  <polyline
     id="polyline62"
     style="fill:none;stroke:#ff0000;stroke-width:32;stroke-linecap:butt;stroke-linejoin:miter"
     points="6330,4299 7275,4299 7417,4346 7417,4440 7275,4535 7039,4535 6944,4488 6944,4440 7039,4393 7275,4393 7417,4535 7417,4677 7275,4771 7039,4771 6944,4724 6944,4677 7039,4629 7275,4629 7417,4771 7417,4913 7275,5007 7039,5007 6944,4960 6944,4913 7039,4866 7275,4866 7417,5007 7417,5055 7275,5102 6330,5102 " />
  <polyline
     id="polyline64"
     style="fill:none;stroke:#b000b0;stroke-width:63;stroke-linecap:butt;stroke-linejoin:miter"
     points="8031,4724 10346,4724 11716,4866 15590,3685 " />
  <text
     style="font-style:normal;font-weight:normal;font-size:303px;font-family:Helvetica;text-anchor:start;fill:#ff0000;stroke-width:0.025in"
     id="text66"
     font-size="303"
     font-weight="normal"
     font-style="normal"
     y="4204"
     x="4629"
     xml:space="preserve">Heizdraht</text>
  <text
     style="font-style:normal;font-weight:normal;font-size:303px;font-family:Helvetica;text-anchor:start;fill:#b000b0;stroke-width:0.025in"
     id="text68"
     font-size="303"
     font-weight="normal"
     font-style="normal"
     y="4724"
     x="7559"
     xml:space="preserve">.</text>
  <text
     style="font-style:normal;font-weight:normal;font-size:303px;font-family:Helvetica;text-anchor:start;fill:#b000b0;stroke-width:0.025in"
     id="text70"
     font-size="303"
     font-weight="normal"
     font-style="normal"
     y="4440"
     x="7606"
     xml:space="preserve">.</text>
  <text
     style="font-style:normal;font-weight:normal;font-size:303px;font-family:Helvetica;text-anchor:start;fill:#b000b0;stroke-width:0.025in"
     id="text72"
     font-size="303"
     font-weight="normal"
     font-style="normal"
     y="4582"
     x="7653"
     xml:space="preserve">.</text>
  <text
     style="font-style:normal;font-weight:normal;font-size:303px;font-family:Helvetica;text-anchor:start;fill:#b000b0;stroke-width:0.025in"
     id="text74"
     font-size="303"
     font-weight="normal"
     font-style="normal"
     y="4818"
     x="7700"
     xml:space="preserve">.</text>
  <text
     style="font-style:normal;font-weight:normal;font-size:303px;font-family:Helvetica;text-anchor:start;fill:#b000b0;stroke-width:0.025in"
     id="text76"
     font-size="303"
     font-weight="normal"
     font-style="normal"
     y="4960"
     x="7606"
     xml:space="preserve">.</text>
  <text
     style="font-style:normal;font-weight:normal;font-size:303px;font-family:Helvetica;text-anchor:start;fill:#b000b0;stroke-width:0.025in"
     id="text78"
     font-size="303"
     font-weight="normal"
     font-style="normal"
     y="5102"
     x="7700"
     xml:space="preserve">.</text>
  <text
     style="font-style:normal;font-weight:normal;font-size:303px;font-family:Helvetica;text-anchor:start;fill:#b000b0;stroke-width:0.025in"
     id="text80"
     font-size="303"
     font-weight="normal"
     font-style="normal"
     y="5055"
     x="7748"
     xml:space="preserve">.</text>
  <text
     style="font-style:normal;font-weight:normal;font-size:303px;font-family:Helvetica;text-anchor:start;fill:#b000b0;stroke-width:0.025in"
     id="text82"
     font-size="303"
     font-weight="normal"
     font-style="normal"
     y="4913"
     x="7795"
     xml:space="preserve">.</text>
  <text
     style="font-style:normal;font-weight:normal;font-size:303px;font-family:Helvetica;text-anchor:start;fill:#b000b0;stroke-width:0.025in"
     id="text84"
     font-size="303"
     font-weight="normal"
     font-style="normal"
     y="4677"
     x="7748"
     xml:space="preserve">.</text>
  <text
     style="font-style:normal;font-weight:normal;font-size:303px;font-family:Helvetica;text-anchor:start;fill:#b000b0;stroke-width:0.025in"
     id="text86"
     font-size="303"
     font-weight="normal"
     font-style="normal"
     y="4488"
     x="7748"
     xml:space="preserve">.</text>
  <text
     style="font-style:normal;font-weight:normal;font-size:303px;font-family:Helvetica;text-anchor:start;fill:#b000b0;stroke-width:0.025in"
     id="text88"
     font-size="303"
     font-weight="normal"
     font-style="normal"
     y="4535"
     x="7889"
     xml:space="preserve">.</text>
  <text
     style="font-style:normal;font-weight:normal;font-size:303px;font-family:Helvetica;text-anchor:start;fill:#b000b0;stroke-width:0.025in"
     id="text90"
     font-size="303"
     font-weight="normal"
     font-style="normal"
     y="4629"
     x="7842"
     xml:space="preserve">.</text>
  <text
     style="font-style:normal;font-weight:normal;font-size:303px;font-family:Helvetica;text-anchor:start;fill:#b000b0;stroke-width:0.025in"
     id="text92"
     font-size="303"
     font-weight="normal"
     font-style="normal"
     y="4818"
     x="7889"
     xml:space="preserve">.</text>
  <text
     style="font-style:normal;font-weight:normal;font-size:303px;font-family:Helvetica;text-anchor:start;fill:#b000b0;stroke-width:0.025in"
     id="text94"
     font-size="303"
     font-weight="normal"
     font-style="normal"
     y="4724"
     x="7937"
     xml:space="preserve">.</text>
  <text
     style="font-style:normal;font-weight:normal;font-size:303px;font-family:Helvetica;text-anchor:start;fill:#b000b0;stroke-width:0.025in"
     id="text96"
     font-size="303"
     font-weight="normal"
     font-style="normal"
     y="5007"
     x="7984"
     xml:space="preserve">.</text>
  <text
     style="font-style:normal;font-weight:normal;font-size:303px;font-family:Helvetica;text-anchor:start;fill:#b000b0;stroke-width:0.025in"
     id="text98"
     font-size="303"
     font-weight="normal"
     font-style="normal"
     y="5055"
     x="7842"
     xml:space="preserve">.</text>
  <text
     style="font-style:normal;font-weight:normal;font-size:303px;font-family:Helvetica;text-anchor:start;fill:#b000b0;stroke-width:0.025in"
     id="text100"
     font-size="303"
     font-weight="normal"
     font-style="normal"
     y="4866"
     x="7984"
     xml:space="preserve">.</text>
  <text
     style="font-style:normal;font-weight:normal;font-size:303px;font-family:Helvetica;text-anchor:start;fill:#b000b0;stroke-width:0.025in"
     id="text102"
     font-size="303"
     font-weight="normal"
     font-style="normal"
     y="4488"
     x="8031"
     xml:space="preserve">.</text>
  <text
     style="font-style:normal;font-weight:normal;font-size:303px;font-family:Helvetica;text-anchor:start;fill:#b000b0;stroke-width:0.025in"
     id="text104"
     font-size="303"
     font-weight="normal"
     font-style="normal"
     y="4393"
     x="7842"
     xml:space="preserve">.</text>
  <text
     style="font-style:normal;font-weight:normal;font-size:303px;font-family:Helvetica;text-anchor:start;fill:#b000b0;stroke-width:0.025in"
     id="text106"
     font-size="303"
     font-weight="normal"
     font-style="normal"
     y="5149"
     x="8031"
     xml:space="preserve">.</text>
  <text
     style="font-style:normal;font-weight:normal;font-size:303px;font-family:Helvetica;text-anchor:start;fill:#b000b0;stroke-width:0.025in"
     id="text108"
     font-size="303"
     font-weight="normal"
     font-style="normal"
     y="5102"
     x="7937"
     xml:space="preserve">.</text>
  <rect
     id="rect110"
     style="fill:#ffffff;stroke:#0000ff;stroke-width:32;stroke-linecap:butt;stroke-linejoin:miter"
     rx="0"
     height="566"
     width="708"
     y="4535"
     x="10157" />
  <polygon
     id="polygon112"
     style="fill:#00d1d1;stroke:#00d1d1;stroke-width:32;stroke-linecap:butt;stroke-linejoin:miter"
     points="9247,4836 9332,4921 8816,4921 8731,4836 8731,4578 8816,4493 9332,4493 9332,4493 9247,4578 " />
  <polyline
     id="polyline114"
     style="fill:none;stroke:#0000ff;stroke-width:16;stroke-linecap:butt;stroke-linejoin:miter"
     points="10866,2929 10656,4096 " />
  <polygon
     id="polygon116"
     style="fill:#0000ff;stroke:#0000ff;stroke-width:48;stroke-miterlimit:8"
     points="10702,4111 10662,4064 10608,4094 10608,4094 10635,4219 " />
  <polyline
     id="polyline118"
     style="fill:none;stroke:#0000ff;stroke-width:16;stroke-linecap:butt;stroke-linejoin:miter"
     points="12278,2928 11903,4149 " />
  <polygon
     id="polygon120"
     style="fill:#0000ff;stroke:#0000ff;stroke-width:48;stroke-miterlimit:8"
     points="11947,4167 11912,4116 11856,4140 11856,4140 11867,4267 " />
</svg>
