<?xml version="1.0" encoding="UTF-8" standalone="no"?>
<!-- Creator: fig2dev Version 3.2 Patchlevel 5e -->

<!-- CreationDate: Thu Sep 24 15:20:43 2015 -->

<!-- Magnification: 1.050 -->

<svg
   xmlns:dc="http://purl.org/dc/elements/1.1/"
   xmlns:cc="http://creativecommons.org/ns#"
   xmlns:rdf="http://www.w3.org/1999/02/22-rdf-syntax-ns#"
   xmlns:svg="http://www.w3.org/2000/svg"
   xmlns="http://www.w3.org/2000/svg"
   xmlns:sodipodi="http://sodipodi.sourceforge.net/DTD/sodipodi-0.dtd"
   xmlns:inkscape="http://www.inkscape.org/namespaces/inkscape"
   width="21.0in"
   height="8.4in"
   viewBox="-743 -1332 25225 10082"
   id="svg2"
   version="1.1"
   inkscape:version="0.91 r13725"
   sodipodi:docname="fig_hardwareTastaturMaus.svg">
  <metadata
     id="metadata138">
    <rdf:RDF>
      <cc:Work
         rdf:about="">
        <dc:format>image/svg+xml</dc:format>
        <dc:type
           rdf:resource="http://purl.org/dc/dcmitype/StillImage" />
      </cc:Work>
    </rdf:RDF>
  </metadata>
  <defs
     id="defs136" />
  <sodipodi:namedview
     pagecolor="#ffffff"
     bordercolor="#666666"
     borderopacity="1"
     objecttolerance="10"
     gridtolerance="10"
     guidetolerance="10"
     inkscape:pageopacity="0"
     inkscape:pageshadow="2"
     inkscape:window-width="2418"
     inkscape:window-height="1261"
     id="namedview134"
     showgrid="false"
     inkscape:zoom="0.52698413"
     inkscape:cx="248.08078"
     inkscape:cy="329.69536"
     inkscape:window-x="142"
     inkscape:window-y="60"
     inkscape:window-maximized="1"
     inkscape:current-layer="svg2" />
  <polyline
     id="polyline6"
     style="fill:none;stroke:#000000;stroke-width:63;stroke-linecap:butt;stroke-linejoin:round"
     points="17385,-1275 17179,-666 17433,-897 17312,-478 " />
  <polygon
     id="polygon8"
     style="fill:#000000;stroke:#000000;stroke-width:63;stroke-miterlimit:8"
     points="17361,-417 17317,-495 17239,-452 17239,-452 17249,-254 " />
  <polyline
     id="polyline10"
     style="fill:none;stroke:#000000;stroke-width:63;stroke-linecap:butt;stroke-linejoin:miter"
     points="24425,4139 24283,4413 23858,4825 22157,6738 21874,6874 21448,6874 21165,6738 19889,5507 19889,5234 20031,4960 22015,3046 " />
  <polyline
     id="polyline12"
     style="fill:none;stroke:#000000;stroke-width:63;stroke-linecap:butt;stroke-linejoin:miter"
     points="24425,4413 24425,4960 24283,5234 23858,5645 22157,7285 21874,7423 21448,7423 21165,7285 19889,6054 19748,5781 19748,5507 19889,5234 " />
  <polyline
     id="polyline14"
     style="fill:none;stroke:#000000;stroke-width:63;stroke-linecap:butt;stroke-linejoin:bevel"
     points="23858,3307 23858,3304 23857,3301 23857,3294 23855,3283 23854,3269 23850,3249 23846,3223 23842,3193 23836,3158 23829,3118 23821,3075 23812,3027 23801,2978 23788,2927 23776,2874 23761,2820 23745,2768 23729,2716 23711,2665 23692,2616 23671,2567 23650,2522 23627,2478 23603,2436 23576,2397 23549,2360 23520,2324 23489,2289 23457,2258 23422,2227 23385,2198 23345,2171 23303,2143 23259,2118 23212,2094 23163,2070 23110,2047 23071,2031 23030,2015 22990,2000 22946,1985 22901,1969 22855,1954 22808,1940 22760,1926 22709,1911 22657,1897 22604,1883 22550,1868 22493,1855 22436,1841 22377,1827 22318,1814 22257,1800 22195,1786 22132,1773 22068,1759 22003,1746 21938,1733 21871,1720 21804,1708 21738,1695 21670,1682 21603,1670 21535,1657 21467,1645 21400,1633 21333,1620 21266,1609 21200,1597 21133,1586 21068,1574 21004,1563 20940,1552 20878,1541 20816,1530 20755,1519 20696,1508 20638,1498 20581,1488 20524,1478 20470,1467 20417,1457 20365,1447 20314,1437 20265,1427 20218,1417 20171,1407 20125,1397 20081,1387 20039,1378 19973,1361 19911,1345 19853,1329 19796,1312 19742,1294 19691,1276 19641,1257 19594,1237 19548,1216 19504,1194 19461,1171 19418,1148 19377,1123 19336,1096 19296,1068 19257,1040 19218,1011 19181,980 19145,950 19109,919 19077,890 19045,860 19017,833 18992,808 18969,785 18950,765 18933,748 18920,734 18911,724 18904,717 18900,712 18898,709 18897,708 " />
  <text
     style="font-style:normal;font-weight:normal;font-size:605px;font-family:Helvetica;text-anchor:start;fill:#000000;stroke-width:0.025in"
     id="text16"
     font-size="605"
     font-weight="normal"
     font-style="normal"
     y="472"
     x="17716"
     xml:space="preserve">\iisc{0.275}{Tastencode}</text>
  <text
     style="font-style:normal;font-weight:normal;font-size:605px;font-family:Helvetica;text-anchor:start;fill:#00b000;stroke-width:0.025in"
     id="text18"
     font-size="605"
     font-weight="normal"
     font-style="normal"
     y="7559"
     x="3070"
     xml:space="preserve">\iisc{0.275}{Tastatur}</text>
  <text
     style="font-style:normal;font-weight:normal;font-size:605px;font-family:Helvetica;text-anchor:start;fill:#ff0000;stroke-width:0.025in"
     id="text20"
     font-size="605"
     font-weight="normal"
     font-style="normal"
     y="7559"
     x="9685"
     xml:space="preserve">\iisc{0.275}{Tastenblöcke}</text>
  <text
     style="font-style:normal;font-weight:normal;font-size:605px;font-family:Helvetica;text-anchor:start;fill:#000000;stroke-width:0.025in"
     id="text22"
     font-size="605"
     font-weight="normal"
     font-style="normal"
     y="8503"
     x="9685"
     xml:space="preserve">\iisc{0.275}{(Funktions-, Maustasten)}</text>
  <text
     style="font-style:normal;font-weight:normal;font-size:605px;font-family:Helvetica;text-anchor:start;fill:#000000;stroke-width:0.025in"
     id="text24"
     font-size="605"
     font-weight="normal"
     font-style="normal"
     y="-472"
     x="17716"
     xml:space="preserve">\iisc{0.275}{Unterbrechung}</text>
  <polyline
     id="polyline26"
     style="fill:none;stroke:#00b000;stroke-width:32;stroke-linecap:butt;stroke-linejoin:miter"
     points="1889,3779 9448,3779 9448,4015 " />
  <polyline
     id="polyline28"
     style="fill:none;stroke:#00b000;stroke-width:32;stroke-linecap:butt;stroke-linejoin:miter"
     points="1417,4251 8976,4251 8976,4488 " />
  <polyline
     id="polyline30"
     style="fill:none;stroke:#00b000;stroke-width:32;stroke-linecap:butt;stroke-linejoin:miter"
     points="944,4724 8503,4724 8503,4960 " />
  <polyline
     id="polyline32"
     style="fill:none;stroke:#00b000;stroke-width:32;stroke-linecap:butt;stroke-linejoin:miter"
     points="472,5196 8031,5196 8031,5433 " />
  <polyline
     id="polyline34"
     style="fill:none;stroke:#00b000;stroke-width:32;stroke-linecap:butt;stroke-linejoin:miter"
     points="9448,3779 8031,5196 " />
  <polyline
     id="polyline36"
     style="fill:none;stroke:#00b000;stroke-width:32;stroke-linecap:butt;stroke-linejoin:miter"
     points="7086,3307 5196,5196 5196,5433 " />
  <polyline
     id="polyline38"
     style="fill:none;stroke:#00b000;stroke-width:32;stroke-linecap:butt;stroke-linejoin:miter"
     points="8976,3307 7086,5196 7086,5433 " />
  <polyline
     id="polyline40"
     style="fill:none;stroke:#00b000;stroke-width:32;stroke-linecap:butt;stroke-linejoin:miter"
     points="8031,3307 6141,5196 6141,5433 " />
  <polyline
     id="polyline42"
     style="fill:none;stroke:#00b000;stroke-width:32;stroke-linecap:butt;stroke-linejoin:miter"
     points="6141,3307 4251,5196 4251,5433 " />
  <polyline
     id="polyline44"
     style="fill:none;stroke:#00b000;stroke-width:32;stroke-linecap:butt;stroke-linejoin:miter"
     points="5196,3307 3307,5196 3307,5433 " />
  <polyline
     id="polyline46"
     style="fill:none;stroke:#00b000;stroke-width:32;stroke-linecap:butt;stroke-linejoin:miter"
     points="4251,3307 2362,5196 2362,5433 " />
  <polyline
     id="polyline48"
     style="fill:none;stroke:#00b000;stroke-width:32;stroke-linecap:butt;stroke-linejoin:miter"
     points="1889,3779 472,5196 472,5433 8031,5433 " />
  <polyline
     id="polyline50"
     style="fill:none;stroke:#00b000;stroke-width:32;stroke-linecap:butt;stroke-linejoin:miter"
     points="3307,3307 1417,5196 1417,5433 " />
  <polyline
     id="polyline52"
     style="fill:none;stroke:#00b000;stroke-width:32;stroke-linecap:butt;stroke-linejoin:miter"
     points="8031,5433 9448,4015 " />
  <polyline
     id="polyline54"
     style="fill:none;stroke:#ff0000;stroke-width:32;stroke-linecap:butt;stroke-linejoin:miter"
     points="10866,3307 8976,5196 8976,5433 " />
  <polyline
     id="polyline56"
     style="fill:none;stroke:#ff0000;stroke-width:32;stroke-linecap:butt;stroke-linejoin:miter"
     points="11811,3307 9921,5196 9921,5433 " />
  <polyline
     id="polyline58"
     style="fill:none;stroke:#00b000;stroke-width:32;stroke-linecap:butt;stroke-linejoin:miter"
     points="2362,3307 9921,3307 9921,3543 " />
  <polyline
     id="polyline60"
     style="fill:none;stroke:#00b000;stroke-width:32;stroke-linecap:butt;stroke-linejoin:miter"
     points="2362,3307 1889,3779 " />
  <polyline
     id="polyline62"
     style="fill:none;stroke:#00b000;stroke-width:32;stroke-linecap:butt;stroke-linejoin:miter"
     points="9921,3307 9448,3779 " />
  <polyline
     id="polyline64"
     style="fill:none;stroke:#00b000;stroke-width:32;stroke-linecap:butt;stroke-linejoin:miter"
     points="9921,3543 9448,4015 " />
  <polyline
     id="polyline66"
     style="fill:none;stroke:#ff0000;stroke-width:32;stroke-linecap:butt;stroke-linejoin:miter"
     points="12755,3307 10866,5196 10866,5433 " />
  <polyline
     id="polyline68"
     style="fill:none;stroke:#ff0000;stroke-width:32;stroke-linecap:butt;stroke-linejoin:miter"
     points="13700,3307 11811,5196 11811,5433 " />
  <polyline
     id="polyline70"
     style="fill:none;stroke:#ff0000;stroke-width:32;stroke-linecap:butt;stroke-linejoin:miter"
     points="10866,3307 13700,3307 13700,3543 " />
  <polyline
     id="polyline72"
     style="fill:none;stroke:#ff0000;stroke-width:32;stroke-linecap:butt;stroke-linejoin:miter"
     points="10393,3779 13228,3779 13228,4015 " />
  <polyline
     id="polyline74"
     style="fill:none;stroke:#ff0000;stroke-width:32;stroke-linecap:butt;stroke-linejoin:miter"
     points="9921,4251 12755,4251 12755,4488 " />
  <polyline
     id="polyline76"
     style="fill:none;stroke:#ff0000;stroke-width:32;stroke-linecap:butt;stroke-linejoin:miter"
     points="9448,4724 12283,4724 12283,4960 " />
  <polyline
     id="polyline78"
     style="fill:none;stroke:#ff0000;stroke-width:32;stroke-linecap:butt;stroke-linejoin:miter"
     points="8976,5196 11811,5196 " />
  <polyline
     id="polyline80"
     style="fill:none;stroke:#ff0000;stroke-width:32;stroke-linecap:butt;stroke-linejoin:miter"
     points="8976,5433 11811,5433 13700,3543 " />
  <polyline
     id="polyline82"
     style="fill:none;stroke:#ff0000;stroke-width:32;stroke-linecap:butt;stroke-linejoin:miter"
     points="4251,2362 3779,2834 3779,3070 " />
  <polyline
     id="polyline84"
     style="fill:none;stroke:#ff0000;stroke-width:32;stroke-linecap:butt;stroke-linejoin:miter"
     points="3307,2362 2834,2834 2834,3070 " />
  <polyline
     id="polyline86"
     style="fill:none;stroke:#ff0000;stroke-width:32;stroke-linecap:butt;stroke-linejoin:miter"
     points="5196,2362 4724,2834 4724,3070 " />
  <polyline
     id="polyline88"
     style="fill:none;stroke:#ff0000;stroke-width:32;stroke-linecap:butt;stroke-linejoin:miter"
     points="6141,2362 5669,2834 5669,3070 " />
  <polyline
     id="polyline90"
     style="fill:none;stroke:#ff0000;stroke-width:32;stroke-linecap:butt;stroke-linejoin:miter"
     points="7086,2362 6614,2834 6614,3070 " />
  <polyline
     id="polyline92"
     style="fill:none;stroke:#ff0000;stroke-width:32;stroke-linecap:butt;stroke-linejoin:miter"
     points="8031,2362 7559,2834 7559,3070 " />
  <polyline
     id="polyline94"
     style="fill:none;stroke:#ff0000;stroke-width:32;stroke-linecap:butt;stroke-linejoin:miter"
     points="8976,2362 8503,2834 8503,3070 " />
  <polyline
     id="polyline96"
     style="fill:none;stroke:#ff0000;stroke-width:32;stroke-linecap:butt;stroke-linejoin:miter"
     points="9921,2362 9448,2834 9448,3070 " />
  <polyline
     id="polyline98"
     style="fill:none;stroke:#ff0000;stroke-width:32;stroke-linecap:butt;stroke-linejoin:miter"
     points="10866,2362 10393,2834 10393,3070 " />
  <polyline
     id="polyline100"
     style="fill:none;stroke:#ff0000;stroke-width:32;stroke-linecap:butt;stroke-linejoin:miter"
     points="11811,2362 11338,2834 11338,3070 " />
  <polyline
     id="polyline102"
     style="fill:none;stroke:#ff0000;stroke-width:32;stroke-linecap:butt;stroke-linejoin:miter"
     points="12755,2362 12283,2834 12283,3070 " />
  <polyline
     id="polyline104"
     style="fill:none;stroke:#ff0000;stroke-width:32;stroke-linecap:butt;stroke-linejoin:miter"
     points="13700,2362 13228,2834 13228,3070 " />
  <polyline
     id="polyline106"
     style="fill:none;stroke:#ff0000;stroke-width:32;stroke-linecap:butt;stroke-linejoin:miter"
     points="14645,2362 14173,2834 14173,3070 " />
  <polyline
     id="polyline108"
     style="fill:none;stroke:#ff0000;stroke-width:32;stroke-linecap:butt;stroke-linejoin:miter"
     points="3307,2362 14645,2362 14645,2598 " />
  <polyline
     id="polyline110"
     style="fill:none;stroke:#ff0000;stroke-width:32;stroke-linecap:butt;stroke-linejoin:miter"
     points="2834,2834 14173,2834 " />
  <polyline
     id="polyline112"
     style="fill:none;stroke:#ff0000;stroke-width:32;stroke-linecap:butt;stroke-linejoin:miter"
     points="2834,3070 14173,3070 14645,2598 " />
  <polygon
     id="polygon114"
     style="fill:none;stroke:#000000;stroke-width:32;stroke-linecap:butt;stroke-linejoin:miter"
     points="15826,1889 11811,5905 -708,5905 -708,5905 3307,1889 " />
  <polyline
     id="polyline116"
     style="fill:none;stroke:#000000;stroke-width:32;stroke-linecap:butt;stroke-linejoin:miter"
     points="-708,5905 -708,6377 11811,6377 11811,5905 " />
  <polyline
     id="polyline118"
     style="fill:none;stroke:#000000;stroke-width:32;stroke-linecap:butt;stroke-linejoin:miter"
     points="11811,6377 15826,2834 15826,1889 " />
  <polyline
     id="polyline120"
     style="fill:none;stroke:#000000;stroke-width:32;stroke-linecap:butt;stroke-linejoin:miter"
     points="15354,3307 15590,3779 15118,3543 " />
  <polyline
     id="polyline122"
     style="fill:none;stroke:#ff0000;stroke-width:63;stroke-linecap:butt;stroke-linejoin:miter"
     points="22015,3046 22440,2636 22724,2497 23007,2497 24425,3866 24425,4139 24283,4413 23858,4825 " />
  <polyline
     id="polyline124"
     style="fill:#ffffff;stroke:#ff0000;stroke-width:63;stroke-linecap:butt;stroke-linejoin:miter"
     points="22015,3046 23858,4825 " />
  <polyline
     id="polyline126"
     style="fill:#ffffff;stroke:#ff0000;stroke-width:63;stroke-linecap:butt;stroke-linejoin:miter"
     points="23433,2909 22667,3647 " />
  <polyline
     id="polyline128"
     style="fill:#ffffff;stroke:#ff0000;stroke-width:63;stroke-linecap:butt;stroke-linejoin:miter"
     points="24000,3456 23234,4195 " />
  <polyline
     id="polyline130"
     style="fill:none;stroke:#ff0000;stroke-width:63;stroke-linecap:butt;stroke-linejoin:miter"
     points="24425,4166 24425,4413 24255,4686 23858,5096 23858,4825 " />
  <polyline
     id="polyline132"
     style="fill:none;stroke:#000000;stroke-width:63;stroke-linecap:butt;stroke-linejoin:bevel"
     points="15826,2598 15828,2598 15833,2597 15841,2595 15853,2593 15870,2588 15893,2583 15922,2577 15956,2570 15995,2561 16038,2552 16085,2541 16134,2530 16185,2518 16237,2506 16289,2494 16341,2481 16392,2469 16441,2457 16490,2445 16536,2433 16580,2422 16623,2410 16664,2398 16703,2387 16741,2376 16776,2365 16811,2354 16846,2343 16878,2331 16912,2320 16943,2308 16976,2296 17007,2283 17039,2270 17071,2257 17103,2243 17135,2228 17168,2214 17202,2198 17235,2182 17269,2165 17302,2149 17336,2131 17371,2112 17405,2093 17440,2074 17474,2054 17508,2033 17543,2012 17576,1991 17609,1969 17643,1947 17674,1925 17706,1903 17736,1881 17766,1859 17795,1836 17823,1814 17850,1791 17876,1769 17901,1746 17925,1724 17948,1702 17970,1680 17991,1658 18011,1636 18031,1614 18052,1588 18072,1563 18092,1537 18111,1509 18129,1481 18145,1453 18163,1422 18180,1390 18196,1356 18213,1320 18229,1282 18245,1243 18262,1202 18279,1159 18295,1113 18311,1067 18327,1021 18342,975 18356,930 18370,888 18383,848 18393,813 18403,783 18410,758 18416,739 18420,724 18423,716 18424,710 18425,708 " />
</svg>
