<?xml version="1.0" encoding="UTF-8" standalone="no"?>
<!-- Creator: fig2dev Version 3.2 Patchlevel 5e -->

<!-- CreationDate: Tue Oct 27 16:19:54 2015 -->

<!-- Magnification: 1.050 -->

<svg
   xmlns:dc="http://purl.org/dc/elements/1.1/"
   xmlns:cc="http://creativecommons.org/ns#"
   xmlns:rdf="http://www.w3.org/1999/02/22-rdf-syntax-ns#"
   xmlns:svg="http://www.w3.org/2000/svg"
   xmlns="http://www.w3.org/2000/svg"
   xmlns:sodipodi="http://sodipodi.sourceforge.net/DTD/sodipodi-0.dtd"
   xmlns:inkscape="http://www.inkscape.org/namespaces/inkscape"
   width="8.4in"
   height="5.1in"
   viewBox="2305 2204 10043 6119"
   id="svg2"
   version="1.1"
   inkscape:version="0.91 r13725"
   sodipodi:docname="fig_farbeStrategieKrumm1.svg">
  <metadata
     id="metadata96">
    <rdf:RDF>
      <cc:Work
         rdf:about="">
        <dc:format>image/svg+xml</dc:format>
        <dc:type
           rdf:resource="http://purl.org/dc/dcmitype/StillImage" />
      </cc:Work>
    </rdf:RDF>
  </metadata>
  <defs
     id="defs94" />
  <sodipodi:namedview
     pagecolor="#ffffff"
     bordercolor="#666666"
     borderopacity="1"
     objecttolerance="10"
     gridtolerance="10"
     guidetolerance="10"
     inkscape:pageopacity="0"
     inkscape:pageshadow="2"
     inkscape:window-width="640"
     inkscape:window-height="480"
     id="namedview92"
     showgrid="false"
     inkscape:zoom="0.51416123"
     inkscape:cx="377.99998"
     inkscape:cy="229.5"
     inkscape:window-x="142"
     inkscape:window-y="60"
     inkscape:window-maximized="0"
     inkscape:current-layer="svg2" />
  <polygon
     id="polygon6"
     style="fill:#d8d8ff;stroke:#0000ff;stroke-width:16;stroke-linecap:round;stroke-linejoin:round"
     points="4960,7181 4913,5149 4913,5149 6000,5905 " />
  <polygon
     id="polygon8"
     style="fill:#d8d8ff;stroke:#0000ff;stroke-width:16;stroke-linecap:round;stroke-linejoin:round"
     points="5905,8267 6000,5905 6000,5905 7039,7181 " />
  <polygon
     id="polygon10"
     style="fill:#d8d8ff;stroke:#0000ff;stroke-width:16;stroke-linecap:round;stroke-linejoin:round"
     points="4913,5149 3401,4771 3401,4771 4771,3779 " />
  <polygon
     id="polygon12"
     style="fill:#d8d8ff;stroke:#0000ff;stroke-width:16;stroke-linecap:round;stroke-linejoin:round"
     points="6283,4299 4913,5149 4913,5149 6000,5905 " />
  <polygon
     id="polygon14"
     style="fill:#d8d8ff;stroke:#0000ff;stroke-width:16;stroke-linecap:round;stroke-linejoin:round"
     points="6000,5905 6283,4299 6283,4299 7370,5102 " />
  <polygon
     id="polygon16"
     style="fill:#d8d8ff;stroke:#0000ff;stroke-width:16;stroke-linecap:round;stroke-linejoin:round"
     points="7370,5102 6000,5905 6000,5905 7039,7181 " />
  <polygon
     id="polygon18"
     style="fill:#d8d8ff;stroke:#0000ff;stroke-width:16;stroke-linecap:round;stroke-linejoin:round"
     points="4913,5149 4771,3779 4771,3779 6283,4299 " />
  <polyline
     id="polyline20"
     style="fill:#d8d8ff;stroke:#0000ff;stroke-width:16;stroke-linecap:round;stroke-linejoin:miter"
     points="2362,5905 3779,6377 3401,4771 " />
  <polygon
     id="polygon22"
     style="fill:#d8d8ff;stroke:#0000ff;stroke-width:16;stroke-linecap:round;stroke-linejoin:round"
     points="4913,7181 6000,5905 6000,5905 5905,8267 " />
  <polygon
     id="polygon24"
     style="fill:#d8d8ff;stroke:#0000ff;stroke-width:16;stroke-linecap:round;stroke-linejoin:miter"
     points="3401,4771 3779,6377 3779,6377 4913,5149 " />
  <polygon
     id="polygon26"
     style="fill:#d8d8ff;stroke:#0000ff;stroke-width:16;stroke-linecap:round;stroke-linejoin:miter"
     points="4960,7181 3779,6377 3779,6377 4913,5149 " />
  <polygon
     id="polygon28"
     style="fill:#d8d8ff;stroke:#0000ff;stroke-width:16;stroke-linecap:round;stroke-linejoin:round"
     points="7370,5102 7039,7181 7039,7181 8267,6377 " />
  <polygon
     id="polygon30"
     style="fill:#d8d8ff;stroke:#0000ff;stroke-width:16;stroke-linecap:round;stroke-linejoin:round"
     points="6283,4299 4771,3779 4771,3779 6094,3259 " />
  <polygon
     id="polygon32"
     style="fill:#d8d8ff;stroke:#0000ff;stroke-width:16;stroke-linecap:round;stroke-linejoin:round"
     points="6283,4299 6094,3259 6094,3259 7559,3874 " />
  <polygon
     id="polygon34"
     style="fill:#d8d8ff;stroke:#0000ff;stroke-width:16;stroke-linecap:round;stroke-linejoin:round"
     points="7559,3874 6094,3259 6094,3259 7606,2881 " />
  <polygon
     id="polygon36"
     style="fill:#d8d8ff;stroke:#0000ff;stroke-width:16;stroke-linecap:round;stroke-linejoin:round"
     points="7606,2881 7559,3874 7559,3874 8976,3496 " />
  <polygon
     id="polygon38"
     style="fill:#d8d8ff;stroke:#0000ff;stroke-width:16;stroke-linecap:round;stroke-linejoin:round"
     points="8976,3496 7606,2881 7606,2881 8740,2598 " />
  <polygon
     id="polygon40"
     style="fill:#d8d8ff;stroke:#0000ff;stroke-width:16;stroke-linecap:round;stroke-linejoin:round"
     points="8976,3496 8740,2598 8740,2598 10393,3118 " />
  <polygon
     id="polygon42"
     style="fill:#d8d8ff;stroke:#0000ff;stroke-width:16;stroke-linecap:round;stroke-linejoin:round"
     points="7370,5102 6283,4299 6283,4299 7559,3874 " />
  <polygon
     id="polygon44"
     style="fill:#d8d8ff;stroke:#0000ff;stroke-width:16;stroke-linecap:round;stroke-linejoin:round"
     points="7370,5102 7559,3874 7559,3874 8598,4677 " />
  <polygon
     id="polygon46"
     style="fill:#d8d8ff;stroke:#0000ff;stroke-width:16;stroke-linecap:round;stroke-linejoin:round"
     points="8598,4677 7370,5102 7370,5102 8267,6377 " />
  <polygon
     id="polygon48"
     style="fill:#d8d8ff;stroke:#0000ff;stroke-width:16;stroke-linecap:round;stroke-linejoin:round"
     points="8267,6330 8598,4677 8598,4677 9448,5905 " />
  <polygon
     id="polygon50"
     style="fill:#d8d8ff;stroke:#0000ff;stroke-width:16;stroke-linecap:round;stroke-linejoin:round"
     points="8598,4724 7559,3874 7559,3874 8976,3496 " />
  <polygon
     id="polygon52"
     style="fill:#d8d8ff;stroke:#0000ff;stroke-width:16;stroke-linecap:round;stroke-linejoin:round"
     points="8598,4677 8976,3496 8976,3496 10062,4346 " />
  <polygon
     id="polygon54"
     style="fill:#d8d8ff;stroke:#0000ff;stroke-width:16;stroke-linecap:round;stroke-linejoin:round"
     points="10015,4346 8598,4677 8598,4677 9448,5905 " />
  <polygon
     id="polygon56"
     style="fill:#d8d8ff;stroke:#0000ff;stroke-width:16;stroke-linecap:round;stroke-linejoin:round"
     points="10393,3118 8976,3496 8976,3496 10015,4299 " />
  <polygon
     id="polygon58"
     style="fill:#d8d8ff;stroke:#0000ff;stroke-width:16;stroke-linecap:round;stroke-linejoin:round"
     points="10015,4346 10393,3118 10393,3118 11574,4015 " />
  <polygon
     id="polygon60"
     style="fill:#d8d8ff;stroke:#0000ff;stroke-width:16;stroke-linecap:round;stroke-linejoin:round"
     points="9448,5905 10015,4346 10015,4346 10629,5716 " />
  <polygon
     id="polygon62"
     style="fill:#d8d8ff;stroke:#0000ff;stroke-width:16;stroke-linecap:round;stroke-linejoin:round"
     points="10629,5716 10015,4346 10015,4346 11574,4015 " />
  <polygon
     id="polygon64"
     style="fill:#d8d8ff;stroke:#0000ff;stroke-width:16;stroke-linecap:round;stroke-linejoin:round"
     points="10629,5716 11574,4015 11574,4015 12000,5669 " />
  <text
     style="font-style:normal;font-weight:normal;font-size:378px;font-family:Helvetica;text-anchor:start;fill:#ff0000;stroke-width:0.025in"
     id="text66"
     font-size="378"
     font-weight="normal"
     font-style="normal"
     y="2598"
     x="9685"
     xml:space="preserve">Fläche</text>
  <text
     style="font-style:normal;font-weight:normal;font-size:378px;font-family:Helvetica;text-anchor:start;fill:#0000ff;stroke-width:0.025in"
     id="text68"
     font-size="378"
     font-weight="normal"
     font-style="normal"
     y="7322"
     x="7795"
     xml:space="preserve">approximierendes</text>
  <text
     style="font-style:normal;font-weight:normal;font-size:378px;font-family:Helvetica;text-anchor:start;fill:#0000ff;stroke-width:0.025in"
     id="text70"
     font-size="378"
     font-weight="normal"
     font-style="normal"
     y="7937"
     x="7795"
     xml:space="preserve">Dreiecksnetz</text>
  <polyline
     id="polyline72"
     style="fill:none;stroke:#ff0000;stroke-width:63;stroke-linecap:round;stroke-linejoin:bevel"
     points="2362,5905 2363,5904 2365,5901 2370,5896 2376,5887 2387,5876 2401,5860 2417,5840 2438,5816 2464,5787 2492,5755 2523,5718 2558,5678 2596,5635 2635,5589 2677,5542 2720,5493 2764,5443 2808,5394 2852,5343 2897,5294 2940,5246 2984,5197 3026,5151 3067,5106 3108,5063 3148,5020 3186,4980 3224,4941 3259,4903 3295,4867 3330,4832 3364,4797 3398,4765 3432,4733 3464,4702 3497,4672 3529,4642 3562,4613 3594,4584 3628,4556 3661,4528 3692,4501 3722,4475 3755,4450 3786,4424 3819,4397 3853,4372 3886,4346 3922,4320 3956,4293 3993,4266 4030,4240 4068,4213 4107,4186 4146,4159 4186,4132 4228,4104 4270,4077 4312,4050 4356,4023 4401,3995 4446,3968 4491,3941 4537,3913 4583,3887 4630,3860 4678,3834 4726,3807 4774,3782 4823,3756 4871,3732 4920,3707 4970,3682 5019,3658 5068,3635 5118,3612 5167,3589 5216,3567 5266,3546 5316,3524 5365,3503 5415,3483 5465,3463 5516,3443 5566,3423 5617,3404 5669,3385 5713,3370 5758,3354 5803,3338 5849,3322 5897,3307 5944,3291 5993,3275 6044,3260 6094,3245 6148,3229 6201,3213 6257,3196 6314,3181 6374,3164 6435,3147 6499,3130 6564,3113 6632,3096 6702,3078 6774,3059 6849,3040 6925,3021 7004,3001 7085,2981 7168,2961 7253,2941 7339,2920 7426,2899 7514,2878 7604,2858 7692,2837 7780,2816 7868,2796 7953,2776 8037,2758 8118,2739 8195,2721 8268,2704 8338,2688 8402,2674 8459,2661 8513,2648 8559,2638 8600,2629 8636,2621 8665,2615 8688,2609 8706,2605 8720,2602 8729,2600 8735,2599 8739,2598 8740,2598 " />
  <polyline
     id="polyline74"
     style="fill:none;stroke:#ff0000;stroke-width:63;stroke-linecap:round;stroke-linejoin:bevel"
     points="2362,5905 2364,5906 2368,5907 2376,5910 2389,5914 2407,5921 2431,5928 2460,5939 2495,5951 2536,5965 2582,5981 2632,5998 2685,6016 2741,6036 2798,6056 2856,6076 2915,6097 2973,6118 3029,6138 3085,6158 3139,6177 3190,6196 3239,6215 3287,6232 3333,6249 3376,6265 3418,6282 3458,6298 3497,6312 3533,6328 3569,6343 3605,6358 3639,6372 3673,6387 3707,6402 3740,6417 3773,6432 3805,6448 3839,6462 3871,6479 3905,6495 3939,6512 3972,6529 4007,6546 4041,6565 4076,6583 4111,6602 4145,6622 4181,6642 4217,6662 4253,6683 4288,6705 4323,6726 4359,6748 4394,6770 4429,6793 4464,6815 4497,6838 4532,6861 4564,6885 4598,6908 4629,6931 4661,6954 4692,6977 4723,7001 4752,7024 4782,7047 4810,7070 4838,7093 4866,7118 4894,7141 4921,7165 4948,7189 4975,7214 5001,7239 5028,7265 5056,7292 5083,7319 5111,7348 5141,7378 5170,7409 5201,7442 5232,7477 5265,7512 5299,7550 5334,7590 5371,7632 5408,7675 5447,7720 5486,7766 5526,7813 5567,7861 5607,7908 5647,7955 5685,8001 5721,8045 5755,8086 5786,8123 5815,8157 5838,8186 5859,8211 5875,8230 5887,8245 5896,8256 5901,8262 5904,8265 5905,8267 " />
  <polyline
     id="polyline76"
     style="fill:none;stroke:#ff0000;stroke-width:63;stroke-linecap:round;stroke-linejoin:bevel"
     points="5905,8267 5906,8266 5909,8263 5916,8257 5925,8248 5938,8235 5955,8218 5977,8196 6004,8171 6034,8140 6069,8107 6107,8069 6149,8029 6192,7986 6238,7942 6284,7897 6331,7850 6380,7804 6427,7759 6473,7715 6519,7671 6563,7629 6606,7588 6648,7549 6688,7511 6727,7475 6765,7440 6802,7406 6836,7375 6871,7343 6904,7314 6937,7286 6969,7257 7000,7230 7032,7204 7063,7177 7095,7151 7126,7126 7155,7101 7186,7077 7216,7053 7247,7028 7277,7004 7310,6980 7341,6955 7374,6931 7407,6906 7441,6880 7476,6856 7510,6831 7546,6806 7582,6781 7618,6755 7655,6730 7692,6705 7730,6680 7767,6655 7805,6630 7844,6605 7882,6581 7921,6557 7959,6534 7997,6511 8035,6488 8073,6466 8111,6444 8149,6423 8185,6402 8222,6382 8259,6362 8295,6343 8331,6324 8367,6305 8402,6287 8437,6270 8473,6254 8508,6237 8543,6220 8578,6204 8614,6188 8649,6173 8686,6157 8723,6141 8760,6125 8797,6111 8836,6096 8875,6080 8915,6066 8955,6051 8996,6036 9038,6023 9080,6008 9122,5994 9165,5980 9209,5966 9253,5953 9297,5940 9341,5927 9385,5914 9430,5902 9475,5890 9520,5879 9564,5867 9608,5857 9652,5846 9696,5837 9739,5827 9783,5818 9825,5809 9868,5801 9910,5793 9951,5785 9993,5778 10034,5772 10075,5765 10115,5759 10156,5753 10197,5748 10237,5742 10278,5737 10320,5733 10361,5728 10404,5723 10447,5720 10491,5716 10537,5713 10584,5709 10633,5706 10683,5703 10735,5700 10790,5697 10847,5695 10906,5693 10966,5690 11029,5688 11095,5686 11162,5685 11230,5682 11299,5680 11370,5679 11440,5677 11509,5676 11577,5675 11644,5674 11707,5673 11765,5672 11819,5671 11868,5671 11911,5670 11948,5670 11977,5670 12002,5669 12019,5669 12032,5669 12040,5669 12045,5669 12047,5669 " />
  <polyline
     id="polyline78"
     style="fill:none;stroke:#ff0000;stroke-width:63;stroke-linecap:round;stroke-linejoin:bevel"
     points="8740,2598 8742,2598 8745,2599 8752,2601 8763,2604 8779,2608 8800,2614 8826,2621 8857,2629 8895,2639 8938,2650 8986,2664 9040,2678 9096,2693 9155,2709 9218,2727 9282,2744 9348,2763 9413,2781 9478,2800 9543,2817 9607,2835 9669,2854 9729,2871 9787,2889 9844,2906 9898,2922 9950,2939 10001,2955 10048,2971 10094,2985 10138,3001 10181,3016 10222,3030 10262,3045 10300,3060 10338,3075 10373,3089 10409,3104 10444,3119 10477,3133 10512,3149 10551,3167 10588,3186 10627,3205 10665,3225 10703,3245 10741,3266 10779,3288 10816,3310 10854,3333 10892,3356 10929,3380 10966,3405 11003,3432 11040,3458 11076,3485 11111,3512 11147,3541 11182,3570 11216,3600 11249,3629 11281,3659 11313,3690 11344,3720 11374,3752 11402,3783 11430,3814 11457,3845 11483,3877 11507,3908 11530,3941 11553,3972 11575,4004 11595,4036 11615,4068 11634,4100 11653,4134 11670,4165 11686,4197 11701,4229 11717,4263 11732,4298 11745,4334 11760,4371 11774,4410 11786,4450 11800,4492 11813,4537 11826,4583 11839,4632 11851,4682 11865,4735 11878,4791 11890,4848 11904,4908 11917,4969 11929,5030 11942,5093 11954,5156 11967,5219 11977,5280 11989,5339 12000,5395 12008,5446 12016,5493 12024,5534 12030,5570 12035,5601 12039,5624 12043,5641 12045,5654 12046,5662 12047,5667 12047,5669 " />
  <polyline
     id="polyline80"
     style="fill:none;stroke:#ff0000;stroke-width:48;stroke-linecap:round;stroke-linejoin:bevel;stroke-dasharray:104, 104"
     points="3779,6377 3780,6376 3782,6373 3787,6367 3795,6359 3805,6345 3820,6328 3838,6306 3859,6281 3884,6250 3911,6217 3943,6179 3976,6139 4012,6096 4050,6052 4088,6007 4127,5961 4165,5914 4204,5869 4243,5825 4281,5781 4318,5739 4353,5698 4388,5659 4422,5622 4454,5585 4487,5550 4517,5517 4548,5485 4577,5454 4605,5424 4635,5396 4662,5367 4690,5340 4719,5314 4746,5288 4774,5261 4803,5236 4830,5211 4857,5187 4886,5163 4914,5139 4943,5114 4973,5090 5003,5065 5034,5041 5065,5016 5098,4991 5130,4966 5164,4941 5198,4916 5233,4891 5269,4866 5304,4840 5341,4815 5379,4790 5417,4765 5455,4741 5492,4716 5531,4691 5570,4667 5609,4644 5648,4621 5687,4598 5725,4576 5764,4554 5803,4533 5842,4512 5880,4492 5919,4472 5956,4453 5994,4434 6032,4415 6070,4397 6107,4381 6144,4364 6182,4347 6220,4330 6257,4314 6292,4300 6330,4285 6367,4269 6406,4255 6444,4240 6483,4225 6523,4211 6564,4196 6605,4182 6648,4167 6691,4153 6734,4138 6780,4123 6824,4109 6870,4094 6916,4079 6963,4065 7011,4051 7058,4036 7106,4022 7154,4008 7203,3993 7251,3980 7299,3966 7348,3951 7397,3938 7445,3925 7492,3911 7541,3898 7588,3885 7635,3871 7682,3859 7730,3846 7776,3834 7822,3821 7867,3809 7912,3797 7959,3784 8004,3772 8049,3760 8094,3748 8136,3736 8177,3724 8219,3713 8262,3701 8305,3690 8349,3677 8393,3665 8439,3652 8487,3639 8534,3626 8584,3611 8635,3596 8688,3582 8743,3566 8800,3550 8857,3533 8918,3517 8981,3499 9045,3480 9112,3461 9181,3441 9250,3421 9321,3400 9394,3380 9466,3359 9540,3337 9612,3316 9685,3296 9755,3275 9823,3255 9888,3236 9950,3218 10007,3203 10060,3187 10108,3173 10151,3161 10186,3150 10218,3141 10243,3133 10262,3128 10277,3124 10287,3121 10293,3119 10298,3118 10299,3118 " />
  <polyline
     id="polyline82"
     style="fill:none;stroke:#ff0000;stroke-width:48;stroke-linecap:round;stroke-linejoin:bevel;stroke-dasharray:104, 104"
     points="4960,7181 4961,7179 4964,7175 4969,7168 4977,7158 4987,7142 5002,7122 5019,7097 5040,7067 5064,7033 5091,6995 5121,6954 5151,6911 5184,6867 5216,6822 5250,6775 5282,6730 5315,6686 5348,6643 5379,6601 5408,6561 5438,6522 5467,6486 5495,6450 5522,6416 5547,6384 5573,6353 5598,6323 5623,6293 5648,6266 5672,6238 5697,6211 5722,6184 5748,6157 5771,6133 5794,6109 5818,6086 5842,6061 5867,6036 5892,6012 5919,5988 5946,5963 5974,5938 6003,5912 6032,5886 6062,5860 6094,5835 6125,5808 6159,5782 6193,5756 6226,5729 6262,5702 6298,5676 6333,5650 6371,5625 6408,5598 6446,5573 6485,5548 6522,5523 6561,5499 6601,5475 6640,5450 6680,5427 6720,5404 6760,5382 6800,5360 6839,5338 6880,5317 6921,5296 6962,5276 7004,5256 7047,5236 7082,5219 7119,5203 7155,5187 7193,5170 7231,5154 7270,5138 7310,5121 7351,5105 7392,5088 7435,5071 7478,5055 7522,5038 7567,5021 7613,5004 7660,4987 7708,4971 7756,4954 7805,4937 7855,4920 7905,4903 7955,4887 8007,4870 8058,4853 8110,4836 8162,4820 8215,4804 8266,4788 8319,4772 8371,4756 8424,4741 8475,4726 8527,4710 8578,4696 8629,4682 8680,4667 8730,4654 8780,4640 8829,4626 8878,4614 8927,4600 8975,4587 9023,4575 9070,4563 9118,4551 9165,4539 9212,4528 9259,4515 9307,4503 9354,4492 9401,4480 9449,4469 9498,4457 9548,4446 9598,4434 9649,4423 9702,4410 9756,4398 9812,4386 9868,4373 9928,4360 9989,4347 10051,4333 10116,4319 10183,4305 10251,4290 10323,4275 10395,4260 10470,4244 10544,4228 10621,4212 10699,4196 10775,4180 10853,4163 10929,4148 11002,4133 11075,4118 11143,4103 11208,4090 11269,4078 11324,4067 11374,4056 11419,4047 11457,4039 11489,4033 11516,4027 11537,4023 11551,4019 11563,4017 11569,4016 11573,4015 11574,4015 " />
  <polyline
     id="polyline84"
     style="fill:none;stroke:#ff0000;stroke-width:48;stroke-linecap:round;stroke-linejoin:bevel;stroke-dasharray:104, 104"
     points="3401,4771 3403,4771 3407,4772 3415,4773 3426,4775 3443,4779 3466,4782 3493,4787 3527,4792 3566,4798 3609,4807 3656,4814 3707,4824 3759,4833 3814,4844 3869,4854 3925,4865 3981,4875 4034,4887 4088,4897 4139,4908 4188,4919 4237,4930 4283,4941 4327,4952 4370,4963 4411,4974 4451,4985 4490,4997 4527,5008 4563,5020 4599,5033 4635,5045 4670,5058 4705,5071 4740,5086 4773,5100 4806,5114 4839,5129 4873,5145 4908,5162 4942,5179 4977,5195 5013,5214 5048,5233 5084,5252 5121,5273 5158,5294 5195,5315 5233,5338 5271,5360 5309,5384 5346,5408 5384,5433 5423,5458 5461,5483 5498,5509 5535,5534 5572,5561 5609,5588 5645,5614 5680,5640 5715,5668 5749,5694 5782,5721 5815,5748 5847,5775 5879,5801 5909,5827 5940,5854 5969,5881 5998,5907 6027,5933 6055,5961 6082,5987 6110,6014 6137,6041 6164,6070 6192,6098 6219,6129 6246,6159 6275,6191 6303,6223 6332,6257 6362,6292 6392,6329 6425,6368 6456,6408 6490,6451 6524,6494 6560,6539 6596,6586 6633,6635 6670,6683 6707,6732 6744,6782 6781,6830 6816,6878 6851,6923 6882,6967 6912,7007 6939,7044 6963,7077 6983,7104 7000,7127 7014,7146 7024,7160 7030,7169 7036,7175 7038,7180 7039,7181 " />
  <polyline
     id="polyline86"
     style="fill:none;stroke:#ff0000;stroke-width:48;stroke-linecap:round;stroke-linejoin:bevel;stroke-dasharray:104, 104"
     points="4771,3779 4773,3780 4777,3781 4785,3783 4797,3787 4815,3793 4838,3800 4868,3808 4902,3820 4943,3833 4990,3847 5040,3863 5095,3880 5152,3899 5212,3918 5273,3938 5336,3958 5398,3979 5459,3998 5520,4018 5579,4038 5635,4058 5690,4077 5743,4096 5794,4114 5843,4132 5889,4149 5933,4166 5976,4182 6017,4199 6057,4216 6096,4232 6133,4247 6169,4264 6204,4280 6239,4297 6272,4313 6307,4330 6342,4348 6377,4367 6412,4386 6448,4406 6482,4426 6518,4447 6553,4468 6588,4490 6624,4512 6661,4535 6697,4559 6732,4583 6769,4608 6805,4634 6840,4659 6876,4685 6912,4712 6948,4740 6982,4767 7017,4794 7050,4822 7084,4849 7117,4877 7149,4904 7181,4933 7211,4960 7241,4987 7271,5015 7299,5042 7327,5069 7354,5096 7380,5122 7405,5149 7430,5175 7456,5202 7480,5228 7505,5256 7530,5285 7555,5313 7580,5342 7605,5373 7629,5403 7654,5435 7680,5468 7706,5503 7733,5540 7760,5577 7790,5616 7819,5658 7848,5701 7880,5746 7912,5794 7945,5841 7977,5890 8011,5940 8044,5989 8076,6037 8107,6085 8136,6129 8163,6170 8187,6206 8208,6239 8225,6266 8240,6288 8250,6305 8259,6317 8263,6324 8266,6328 8267,6330 " />
  <polyline
     id="polyline88"
     style="fill:none;stroke:#ff0000;stroke-width:48;stroke-linecap:round;stroke-linejoin:bevel;stroke-dasharray:104, 104"
     points="6141,3307 6143,3308 6148,3309 6156,3312 6169,3316 6186,3322 6211,3331 6240,3341 6275,3354 6316,3367 6362,3384 6411,3402 6465,3421 6520,3441 6578,3462 6636,3483 6695,3505 6752,3526 6809,3547 6865,3568 6918,3589 6970,3609 7019,3628 7066,3648 7112,3666 7155,3685 7197,3702 7237,3719 7276,3737 7313,3754 7349,3771 7384,3787 7419,3805 7453,3822 7486,3840 7520,3858 7552,3876 7585,3895 7618,3913 7651,3933 7685,3953 7718,3974 7752,3995 7785,4017 7820,4039 7855,4062 7889,4087 7924,4111 7959,4136 7993,4161 8029,4187 8064,4214 8098,4241 8133,4268 8167,4296 8201,4323 8235,4351 8267,4379 8300,4407 8331,4435 8363,4462 8393,4491 8423,4518 8452,4546 8480,4574 8508,4601 8535,4628 8561,4656 8586,4682 8612,4709 8637,4737 8661,4764 8685,4790 8708,4817 8732,4846 8755,4874 8779,4902 8802,4933 8826,4963 8850,4995 8874,5028 8899,5063 8924,5099 8951,5137 8978,5175 9006,5217 9035,5259 9065,5304 9095,5350 9126,5397 9158,5445 9188,5493 9219,5542 9250,5590 9279,5636 9308,5680 9334,5721 9358,5760 9379,5794 9398,5823 9413,5847 9425,5867 9435,5883 9441,5893 9445,5900 9447,5903 9448,5905 " />
  <polyline
     id="polyline90"
     style="fill:none;stroke:#ff0000;stroke-width:48;stroke-linecap:round;stroke-linejoin:bevel;stroke-dasharray:104, 104"
     points="7653,2881 7655,2882 7659,2883 7667,2888 7678,2892 7695,2899 7718,2910 7745,2921 7780,2936 7819,2953 7863,2973 7912,2994 7965,3017 8020,3041 8078,3066 8137,3092 8197,3119 8256,3145 8314,3171 8372,3196 8429,3222 8483,3247 8536,3270 8586,3293 8635,3315 8680,3336 8724,3357 8766,3377 8807,3396 8845,3415 8881,3433 8917,3450 8952,3467 8984,3484 9017,3501 9048,3518 9080,3534 9110,3551 9143,3569 9176,3588 9209,3607 9243,3626 9275,3646 9308,3665 9340,3686 9373,3707 9405,3728 9438,3749 9470,3772 9502,3794 9534,3817 9566,3841 9597,3865 9629,3889 9659,3914 9690,3940 9719,3966 9749,3991 9777,4017 9804,4044 9832,4070 9858,4097 9883,4123 9907,4150 9931,4177 9954,4204 9976,4230 9998,4258 10018,4285 10039,4313 10059,4341 10078,4370 10096,4397 10114,4425 10131,4453 10149,4483 10165,4514 10182,4545 10199,4579 10217,4614 10234,4650 10251,4688 10270,4729 10288,4771 10308,4816 10327,4864 10347,4912 10368,4963 10389,5017 10410,5071 10431,5127 10453,5184 10474,5240 10495,5297 10515,5351 10534,5403 10552,5453 10569,5497 10582,5537 10595,5572 10605,5601 10614,5625 10620,5643 10624,5654 10627,5662 10628,5667 10629,5669 " />
</svg>
