<?xml version="1.0" encoding="UTF-8" standalone="no"?>
<!-- Creator: fig2dev Version 3.2 Patchlevel 5e -->

<!-- CreationDate: Wed Sep 30 10:36:30 2015 -->

<!-- Magnification: 1.050 -->

<svg
   xmlns:dc="http://purl.org/dc/elements/1.1/"
   xmlns:cc="http://creativecommons.org/ns#"
   xmlns:rdf="http://www.w3.org/1999/02/22-rdf-syntax-ns#"
   xmlns:svg="http://www.w3.org/2000/svg"
   xmlns="http://www.w3.org/2000/svg"
   xmlns:sodipodi="http://sodipodi.sourceforge.net/DTD/sodipodi-0.dtd"
   xmlns:inkscape="http://www.inkscape.org/namespaces/inkscape"
   width="10.1in"
   height="4.0in"
   viewBox="2001 898 12107 4830"
   id="svg2"
   version="1.1"
   inkscape:version="0.91 r13725"
   sodipodi:docname="fig_clip3DFuerStoerend.svg">
  <metadata
     id="metadata48">
    <rdf:RDF>
      <cc:Work
         rdf:about="">
        <dc:format>image/svg+xml</dc:format>
        <dc:type
           rdf:resource="http://purl.org/dc/dcmitype/StillImage" />
      </cc:Work>
    </rdf:RDF>
  </metadata>
  <defs
     id="defs46" />
  <sodipodi:namedview
     pagecolor="#ffffff"
     bordercolor="#666666"
     borderopacity="1"
     objecttolerance="10"
     gridtolerance="10"
     guidetolerance="10"
     inkscape:pageopacity="0"
     inkscape:pageshadow="2"
     inkscape:window-width="2418"
     inkscape:window-height="1261"
     id="namedview44"
     showgrid="false"
     inkscape:zoom="1.0957095"
     inkscape:cx="227.05424"
     inkscape:cy="170.52087"
     inkscape:window-x="142"
     inkscape:window-y="60"
     inkscape:window-maximized="1"
     inkscape:current-layer="svg2" />
  <circle
     id="circle6"
     style="fill:#3fc33f;stroke:#00b000;stroke-width:8"
     r="487"
     cy="2479"
     cx="8976" />
  <polygon
     id="polygon8"
     style="fill:#3fc33f;stroke:#00b000;stroke-width:8;stroke-linecap:butt;stroke-linejoin:miter"
     points="8976,3543 8503,4015 8267,3307 7559,3307 7559,3307 8267,2834 " />
  <polygon
     id="polygon10"
     style="fill:#3fc33f;stroke:#00b000;stroke-width:8;stroke-linecap:butt;stroke-linejoin:miter"
     points="8267,4488 7322,3779 7322,3779 8031,3779 " />
  <polygon
     id="polygon12"
     style="fill:#3fc33f;stroke:#00b000;stroke-width:8;stroke-linecap:butt;stroke-linejoin:miter"
     points="7795,1417 7882,2068 7409,2540 7228,2220 6465,1832 6465,1832 7322,1842 " />
  <polygon
     id="polygon14"
     style="fill:#b86f3f;stroke:#a14000;stroke-width:8;stroke-linecap:butt;stroke-linejoin:miter"
     points="6377,3779 5196,2125 5196,2125 4724,3779 " />
  <polygon
     id="polygon16"
     style="fill:#3fc33f;stroke:#00b000;stroke-width:8;stroke-linecap:butt;stroke-linejoin:bevel"
     points="9997,3076 10032,3081 10064,3087 10092,3093 10117,3099 10139,3105 10158,3110 10175,3116 10190,3120 10203,3125 10216,3129 10228,3134 10241,3141 10254,3147 10267,3155 10282,3165 10298,3177 10314,3191 10331,3209 10349,3229 10366,3252 10382,3278 10393,3307 10401,3339 10404,3372 10402,3402 10395,3429 10386,3454 10374,3475 10360,3492 10345,3507 10329,3521 10312,3532 10295,3543 10278,3553 10260,3565 10243,3579 10226,3593 10212,3611 10197,3632 10183,3656 10173,3683 10164,3714 10159,3746 10157,3779 10160,3821 10170,3855 10183,3880 10199,3895 10217,3903 10236,3904 10256,3902 10276,3898 10295,3892 10314,3890 10333,3891 10351,3900 10367,3914 10381,3940 10390,3973 10393,4015 10392,4041 10389,4067 10386,4093 10383,4118 10379,4142 10376,4165 10373,4187 10372,4207 10371,4226 10371,4245 10371,4262 10372,4279 10373,4295 10373,4310 10373,4326 10373,4341 10371,4356 10368,4371 10363,4387 10355,4402 10345,4416 10331,4431 10313,4446 10291,4458 10264,4470 10234,4479 10197,4486 10157,4488 10116,4486 10074,4480 10031,4473 9989,4464 9949,4453 9910,4443 9874,4431 9839,4420 9807,4410 9777,4400 9748,4389 9721,4380 9695,4369 9670,4360 9645,4350 9620,4340 9596,4329 9571,4317 9545,4304 9519,4289 9490,4274 9461,4256 9430,4235 9399,4212 9365,4185 9333,4157 9299,4125 9268,4091 9238,4054 9212,4015 9190,3973 9173,3931 9162,3890 9154,3854 9151,3819 9151,3788 9153,3761 9159,3737 9165,3716 9172,3698 9181,3682 9191,3668 9202,3654 9212,3641 9224,3629 9235,3615 9248,3602 9261,3586 9275,3569 9290,3549 9306,3527 9321,3502 9339,3475 9358,3444 9379,3412 9400,3377 9424,3341 9448,3307 9479,3269 9508,3235 9535,3207 9561,3183 9583,3164 9602,3148 9617,3137 9631,3127 9641,3121 9650,3116 9657,3112 9665,3109 9672,3108 9680,3106 9690,3104 9701,3101 9716,3099 9734,3095 9755,3090 9781,3085 9811,3080 9844,3076 9882,3071 9921,3070 9921,3070 9960,3071 " />
  <polygon
     id="polygon18"
     style="fill:#3fc33f;stroke:#00b000;stroke-width:8;stroke-linecap:butt;stroke-linejoin:bevel"
     points="9401,4676 9423,4676 9443,4677 9462,4677 9479,4677 9493,4676 9506,4675 9519,4674 9531,4672 9543,4672 9554,4672 9566,4674 9577,4678 9590,4684 9602,4692 9614,4706 9625,4723 9633,4745 9637,4771 9637,4798 9634,4826 9627,4853 9618,4878 9607,4901 9594,4921 9582,4940 9567,4956 9552,4970 9538,4983 9523,4996 9508,5008 9493,5022 9479,5037 9464,5053 9450,5072 9438,5095 9426,5119 9416,5147 9408,5179 9403,5211 9401,5244 9404,5286 9415,5320 9429,5346 9448,5364 9469,5375 9491,5380 9516,5382 9539,5381 9563,5381 9585,5381 9606,5385 9624,5393 9638,5406 9647,5426 9647,5451 9637,5480 9626,5500 9610,5519 9594,5535 9577,5552 9562,5567 9546,5581 9532,5592 9521,5603 9509,5612 9499,5622 9489,5630 9480,5637 9469,5645 9459,5652 9445,5659 9430,5668 9412,5675 9391,5682 9364,5691 9334,5698 9298,5704 9257,5711 9213,5715 9165,5716 9122,5715 9080,5712 9038,5709 8999,5703 8961,5699 8925,5695 8893,5691 8861,5688 8833,5685 8807,5681 8782,5679 8758,5677 8734,5675 8712,5673 8690,5670 8668,5667 8647,5664 8625,5658 8604,5651 8582,5643 8560,5633 8539,5619 8518,5604 8499,5586 8482,5564 8469,5539 8459,5510 8456,5480 8459,5449 8468,5418 8480,5386 8496,5357 8514,5329 8534,5302 8555,5278 8577,5255 8599,5235 8622,5216 8644,5200 8667,5184 8690,5169 8712,5155 8735,5141 8759,5127 8783,5113 8807,5099 8832,5084 8858,5067 8886,5048 8913,5029 8942,5007 8973,4984 9004,4959 9036,4932 9069,4903 9102,4875 9134,4846 9165,4818 9211,4777 9248,4744 9276,4719 9294,4702 9304,4690 9308,4684 9307,4682 9301,4682 9295,4685 9288,4687 9281,4690 9278,4692 9277,4692 9281,4691 9292,4689 9308,4685 9329,4681 9354,4677 9354,4677 9378,4676 " />
  <polyline
     id="polyline20"
     style="fill:none;stroke:#b000b0;stroke-width:63;stroke-linecap:butt;stroke-linejoin:miter"
     points="11574,1039 6850,2220 6850,4393 11574,5574 " />
  <text
     style="font-style:normal;font-weight:normal;font-size:378px;font-family:Helvetica;text-anchor:middle;fill:#ff0000;stroke-width:0.025in"
     id="text22"
     font-size="378"
     font-weight="normal"
     font-style="normal"
     y="4488"
     x="3543"
     xml:space="preserve">Projektions-</text>
  <text
     style="font-style:normal;font-weight:normal;font-size:378px;font-family:Helvetica;text-anchor:middle;fill:#ff0000;stroke-width:0.025in"
     id="text24"
     font-size="378"
     font-weight="normal"
     font-style="normal"
     y="5013.667"
     x="3543"
     xml:space="preserve">ebene</text>
  <text
     style="font-style:normal;font-weight:normal;font-size:378px;font-family:Helvetica;text-anchor:middle;fill:#a14000;stroke-width:0.025in"
     id="text26"
     font-size="378"
     font-weight="normal"
     font-style="normal"
     y="1363.3333"
     x="5196"
     xml:space="preserve">störendes</text>
  <text
     style="font-style:normal;font-weight:normal;font-size:378px;font-family:Helvetica;text-anchor:middle;fill:#a14000;stroke-width:0.025in"
     id="text28"
     font-size="378"
     font-weight="normal"
     font-style="normal"
     y="1889"
     x="5196"
     xml:space="preserve">Objekt</text>
  <text
     style="font-style:normal;font-weight:normal;font-size:378px;font-family:Helvetica;text-anchor:middle;fill:#b000b0;stroke-width:0.025in"
     id="text30"
     font-size="378"
     font-weight="normal"
     font-style="normal"
     y="1679.8334"
     x="11971.998"
     xml:space="preserve">Sicht-</text>
  <text
     style="font-style:normal;font-weight:normal;font-size:378px;font-family:Helvetica;text-anchor:middle;fill:#b000b0;stroke-width:0.025in"
     id="text32"
     font-size="378"
     font-weight="normal"
     font-style="normal"
     y="2178.6665"
     x="11971.998"
     xml:space="preserve">volumen</text>
  <text
     style="font-style:normal;font-weight:normal;font-size:378px;font-family:Helvetica;text-anchor:middle;fill:#00b000;stroke-width:0.025in"
     id="text34"
     font-size="378"
     font-weight="normal"
     font-style="normal"
     y="4251"
     x="12443.998"
     xml:space="preserve">„interessante“</text>
  <text
     style="font-style:normal;font-weight:normal;font-size:378px;font-family:Helvetica;text-anchor:middle;fill:#00b000;stroke-width:0.025in"
     id="text36"
     font-size="378"
     font-weight="normal"
     font-style="normal"
     y="4750.8335"
     x="12443.998"
     xml:space="preserve">Objekte</text>
  <polyline
     id="polyline38"
     style="fill:none;stroke:#0000ff;stroke-width:48;stroke-linecap:butt;stroke-linejoin:miter"
     points="2125,3307 11574,944 " />
  <polyline
     id="polyline40"
     style="fill:none;stroke:#0000ff;stroke-width:48;stroke-linecap:butt;stroke-linejoin:miter"
     points="2125,3307 11574,5669 " />
  <polyline
     id="polyline42"
     style="fill:none;stroke:#ff0000;stroke-width:63;stroke-linecap:butt;stroke-linejoin:miter"
     points="4015,2834 4015,3779 " />
</svg>
