<?xml version="1.0" encoding="UTF-8" standalone="no"?>
<!-- Creator: fig2dev Version 3.2 Patchlevel 5e -->

<!-- CreationDate: Fri Sep 25 11:46:07 2015 -->

<!-- Magnification: 1.050 -->

<svg
   xmlns:dc="http://purl.org/dc/elements/1.1/"
   xmlns:cc="http://creativecommons.org/ns#"
   xmlns:rdf="http://www.w3.org/1999/02/22-rdf-syntax-ns#"
   xmlns:svg="http://www.w3.org/2000/svg"
   xmlns="http://www.w3.org/2000/svg"
   xmlns:sodipodi="http://sodipodi.sourceforge.net/DTD/sodipodi-0.dtd"
   xmlns:inkscape="http://www.inkscape.org/namespaces/inkscape"
   width="13.2in"
   height="7.7in"
   viewBox="772 3036 15797 9281"
   id="svg2"
   version="1.1"
   inkscape:version="0.91 r13725"
   sodipodi:docname="fig_koordRollerSpeiche.svg">
  <metadata
     id="metadata182">
    <rdf:RDF>
      <cc:Work
         rdf:about="">
        <dc:format>image/svg+xml</dc:format>
        <dc:type
           rdf:resource="http://purl.org/dc/dcmitype/StillImage" />
      </cc:Work>
    </rdf:RDF>
  </metadata>
  <defs
     id="defs180" />
  <sodipodi:namedview
     pagecolor="#ffffff"
     bordercolor="#666666"
     borderopacity="1"
     objecttolerance="10"
     gridtolerance="10"
     guidetolerance="10"
     inkscape:pageopacity="0"
     inkscape:pageshadow="2"
     inkscape:window-width="640"
     inkscape:window-height="480"
     id="namedview178"
     showgrid="false"
     inkscape:zoom="0.34054835"
     inkscape:cx="593.99999"
     inkscape:cy="346.49999"
     inkscape:window-x="142"
     inkscape:window-y="60"
     inkscape:window-maximized="0"
     inkscape:current-layer="svg2" />
  <polyline
     id="polyline6"
     style="fill:none;stroke:#b000b0;stroke-width:111;stroke-linecap:butt;stroke-linejoin:round"
     points="5433,11102 6535,11102 " />
  <polygon
     id="polygon8"
     style="fill:#b000b0;stroke:#b000b0;stroke-width:111;stroke-miterlimit:8"
     points="6592,11007 6513,11102 6592,11196 6592,11196 6828,11102 " />
  <polyline
     id="polyline10"
     style="fill:none;stroke:#b000b0;stroke-width:111;stroke-linecap:butt;stroke-linejoin:round"
     points="11102,9685 12220,9311 " />
  <polygon
     id="polygon12"
     style="fill:#b000b0;stroke:#b000b0;stroke-width:111;stroke-miterlimit:8"
     points="12243,9204 12198,9318 12303,9383 12303,9383 12497,9219 " />
  <polyline
     id="polyline14"
     style="fill:none;stroke:#b000b0;stroke-width:111;stroke-linecap:butt;stroke-linejoin:round"
     points="11102,6141 12220,6514 " />
  <polygon
     id="polygon16"
     style="fill:#b000b0;stroke:#b000b0;stroke-width:111;stroke-miterlimit:8"
     points="12302,6440 12198,6506 12243,6620 12243,6620 12497,6605 " />
  <polyline
     id="polyline18"
     style="fill:none;stroke:#b000b0;stroke-width:111;stroke-linecap:butt;stroke-linejoin:round"
     points="5433,5433 6535,5433 " />
  <polygon
     id="polygon20"
     style="fill:#b000b0;stroke:#b000b0;stroke-width:111;stroke-miterlimit:8"
     points="6592,5338 6513,5433 6592,5527 6592,5527 6828,5433 " />
  <polygon
     id="polygon22"
     style="fill:none;stroke:#0000ff;stroke-width:32;stroke-linecap:butt;stroke-linejoin:round"
     points="4015,4251 3070,4724 3070,6614 3070,6614 4015,6141 " />
  <polyline
     id="polyline24"
     style="fill:#ffffff;stroke:#0000ff;stroke-width:32;stroke-linecap:butt;stroke-linejoin:round;stroke-dasharray:83, 83"
     points="2125,6141 4015,6141 " />
  <polyline
     id="polyline26"
     style="fill:#ffffff;stroke:#0000ff;stroke-width:32;stroke-linecap:butt;stroke-linejoin:round;stroke-dasharray:83, 83"
     points="2125,6141 2125,4251 " />
  <polyline
     id="polyline28"
     style="fill:#ffffff;stroke:#0000ff;stroke-width:32;stroke-linecap:butt;stroke-linejoin:round;stroke-dasharray:83, 83"
     points="2125,6141 1181,6614 " />
  <polyline
     id="polyline30"
     style="fill:#ffffff;stroke:#000000;stroke-width:32;stroke-linecap:butt;stroke-linejoin:round;stroke-dasharray:83, 83"
     points="2598,5433 2598,4251 " />
  <polyline
     id="polyline32"
     style="fill:#ffffff;stroke:#000000;stroke-width:32;stroke-linecap:butt;stroke-linejoin:round;stroke-dasharray:83, 83"
     points="2598,5433 3543,5433 " />
  <rect
     id="rect34"
     style="fill:none;stroke:#0000ff;stroke-width:32;stroke-linecap:butt;stroke-linejoin:round"
     rx="0"
     height="1889"
     width="1889"
     y="4724"
     x="1181" />
  <polygon
     id="polygon36"
     style="fill:none;stroke:#0000ff;stroke-width:32;stroke-linecap:butt;stroke-linejoin:round"
     points="4015,4251 3070,4724 1181,4724 1181,4724 2125,4251 " />
  <polyline
     id="polyline38"
     style="fill:#ffffff;stroke:#000000;stroke-width:32;stroke-linecap:butt;stroke-linejoin:round;stroke-dasharray:83, 83"
     points="2598,5433 2125,5669 " />
  <polyline
     id="polyline40"
     style="fill:#ffffff;stroke:#000000;stroke-width:32;stroke-linecap:butt;stroke-linejoin:round;stroke-dasharray:83, 83"
     points="8267,5433 9212,5433 " />
  <polyline
     id="polyline42"
     style="fill:#ffffff;stroke:#000000;stroke-width:32;stroke-linecap:butt;stroke-linejoin:round;stroke-dasharray:83, 83"
     points="8267,5433 7795,5669 " />
  <polyline
     id="polyline44"
     style="fill:#ffffff;stroke:#000000;stroke-width:32;stroke-linecap:butt;stroke-linejoin:round;stroke-dasharray:83, 83"
     points="8267,5433 8267,4251 " />
  <polygon
     id="polygon46"
     style="fill:none;stroke:#0000ff;stroke-width:32;stroke-linecap:butt;stroke-linejoin:round"
     points="8362,4488 8267,4535 8173,4535 8173,4535 8267,4488 " />
  <polygon
     id="polygon48"
     style="fill:none;stroke:#0000ff;stroke-width:32;stroke-linecap:butt;stroke-linejoin:round"
     points="8362,6377 8267,6425 8173,6425 8173,6425 8267,6377 " />
  <rect
     id="rect50"
     style="fill:none;stroke:#0000ff;stroke-width:32;stroke-linecap:butt;stroke-linejoin:round"
     rx="0"
     height="1889"
     width="94"
     y="4535"
     x="8173" />
  <polygon
     id="polygon52"
     style="fill:none;stroke:#0000ff;stroke-width:32;stroke-linecap:butt;stroke-linejoin:round"
     points="8362,6377 8267,6425 8267,4535 8267,4535 8362,4488 " />
  <polyline
     id="polyline54"
     style="fill:#ffffff;stroke:#000000;stroke-width:32;stroke-linecap:butt;stroke-linejoin:round;stroke-dasharray:83, 83"
     points="14173,8031 14173,6850 " />
  <polygon
     id="polygon56"
     style="fill:none;stroke:#0000ff;stroke-width:32;stroke-linecap:butt;stroke-linejoin:round"
     points="14267,7086 14173,7133 14078,7133 14078,7133 14173,7086 " />
  <polygon
     id="polygon58"
     style="fill:none;stroke:#0000ff;stroke-width:32;stroke-linecap:butt;stroke-linejoin:round"
     points="14267,8976 14173,9023 14078,9023 14078,9023 14173,8976 " />
  <rect
     id="rect60"
     style="fill:none;stroke:#0000ff;stroke-width:32;stroke-linecap:butt;stroke-linejoin:round"
     rx="0"
     height="1889"
     width="94"
     y="7133"
     x="14078" />
  <polygon
     id="polygon62"
     style="fill:none;stroke:#0000ff;stroke-width:32;stroke-linecap:butt;stroke-linejoin:round"
     points="14267,8976 14173,9023 14173,7133 14173,7133 14267,7086 " />
  <polygon
     id="polygon64"
     style="fill:none;stroke:#00b000;stroke-width:32;stroke-linecap:butt;stroke-linejoin:round"
     points="14314,6897 13653,6897 14031,6708 14031,6708 14692,6708 " />
  <rect
     id="rect66"
     style="fill:none;stroke:#00b000;stroke-width:32;stroke-linecap:butt;stroke-linejoin:round"
     rx="0"
     height="283"
     width="661"
     y="6897"
     x="13653" />
  <polygon
     id="polygon68"
     style="fill:none;stroke:#00b000;stroke-width:32;stroke-linecap:butt;stroke-linejoin:round"
     points="14692,6708 14314,6897 14314,7181 14314,7181 14692,6992 " />
  <polyline
     id="polyline70"
     style="fill:none;stroke:#00b000;stroke-width:16;stroke-linecap:butt;stroke-linejoin:round;stroke-dasharray:62, 62"
     points="14031,6708 14031,6992 " />
  <polyline
     id="polyline72"
     style="fill:none;stroke:#00b000;stroke-width:16;stroke-linecap:butt;stroke-linejoin:round;stroke-dasharray:62, 62"
     points="14031,6992 14645,6992 " />
  <polyline
     id="polyline74"
     style="fill:none;stroke:#00b000;stroke-width:16;stroke-linecap:butt;stroke-linejoin:round;stroke-dasharray:62, 62"
     points="14031,6992 13653,7181 " />
  <polyline
     id="polyline76"
     style="fill:#ffffff;stroke:#000000;stroke-width:32;stroke-linecap:butt;stroke-linejoin:round;stroke-dasharray:83, 83"
     points="8267,11102 8267,9921 " />
  <polyline
     id="polyline78"
     style="fill:#ffffff;stroke:#000000;stroke-width:32;stroke-linecap:butt;stroke-linejoin:round;stroke-dasharray:83, 83"
     points="8267,11102 9212,11102 " />
  <polyline
     id="polyline80"
     style="fill:#ffffff;stroke:#000000;stroke-width:32;stroke-linecap:butt;stroke-linejoin:round;stroke-dasharray:83, 83"
     points="8267,11102 7795,11338 " />
  <polygon
     id="polygon82"
     style="fill:none;stroke:#00b000;stroke-width:32;stroke-linecap:butt;stroke-linejoin:round"
     points="8409,11055 7748,11055 8125,10866 8125,10866 8787,10866 " />
  <rect
     id="rect84"
     style="fill:none;stroke:#00b000;stroke-width:32;stroke-linecap:butt;stroke-linejoin:round"
     rx="0"
     height="283"
     width="661"
     y="11055"
     x="7748" />
  <polygon
     id="polygon86"
     style="fill:none;stroke:#00b000;stroke-width:32;stroke-linecap:butt;stroke-linejoin:round"
     points="8787,10866 8409,11055 8409,11338 8409,11338 8787,11149 " />
  <polyline
     id="polyline88"
     style="fill:none;stroke:#00b000;stroke-width:16;stroke-linecap:butt;stroke-linejoin:round;stroke-dasharray:62, 62"
     points="8125,10866 8125,11149 " />
  <polyline
     id="polyline90"
     style="fill:none;stroke:#00b000;stroke-width:16;stroke-linecap:butt;stroke-linejoin:round;stroke-dasharray:62, 62"
     points="8125,11149 8740,11149 " />
  <polyline
     id="polyline92"
     style="fill:none;stroke:#00b000;stroke-width:16;stroke-linecap:butt;stroke-linejoin:round;stroke-dasharray:62, 62"
     points="8125,11149 7748,11338 " />
  <polygon
     id="polygon94"
     style="fill:none;stroke:#00b000;stroke-width:32;stroke-linecap:butt;stroke-linejoin:round"
     points="4015,9921 3070,10393 3070,12283 3070,12283 4015,11811 " />
  <polyline
     id="polyline96"
     style="fill:#ffffff;stroke:#00b000;stroke-width:32;stroke-linecap:butt;stroke-linejoin:round;stroke-dasharray:83, 83"
     points="2125,11811 4015,11811 " />
  <polyline
     id="polyline98"
     style="fill:#ffffff;stroke:#00b000;stroke-width:32;stroke-linecap:butt;stroke-linejoin:round;stroke-dasharray:83, 83"
     points="2125,11811 2125,9921 " />
  <polyline
     id="polyline100"
     style="fill:#ffffff;stroke:#00b000;stroke-width:32;stroke-linecap:butt;stroke-linejoin:round;stroke-dasharray:83, 83"
     points="2125,11811 1181,12283 " />
  <polyline
     id="polyline102"
     style="fill:#ffffff;stroke:#000000;stroke-width:32;stroke-linecap:butt;stroke-linejoin:round;stroke-dasharray:83, 83"
     points="2598,11102 2598,9921 " />
  <polyline
     id="polyline104"
     style="fill:#ffffff;stroke:#000000;stroke-width:32;stroke-linecap:butt;stroke-linejoin:round;stroke-dasharray:83, 83"
     points="2598,11102 3543,11102 " />
  <rect
     id="rect106"
     style="fill:none;stroke:#00b000;stroke-width:32;stroke-linecap:butt;stroke-linejoin:round"
     rx="0"
     height="1889"
     width="1889"
     y="10393"
     x="1181" />
  <polygon
     id="polygon108"
     style="fill:none;stroke:#00b000;stroke-width:32;stroke-linecap:butt;stroke-linejoin:round"
     points="4015,9921 3070,10393 1181,10393 1181,10393 2125,9921 " />
  <polyline
     id="polyline110"
     style="fill:#ffffff;stroke:#000000;stroke-width:32;stroke-linecap:butt;stroke-linejoin:round;stroke-dasharray:83, 83"
     points="2598,11102 2125,11338 " />
  <text
     style="font-style:normal;font-weight:normal;font-size:378px;font-family:Helvetica;text-anchor:middle;fill:#b000b0;stroke-width:0.025in"
     id="text112"
     font-size="378"
     font-weight="normal"
     font-style="normal"
     y="7795"
     x="2598"
     xml:space="preserve">Einheitswürfel</text>
  <text
     style="font-style:normal;font-weight:normal;font-size:378px;font-family:Helvetica;text-anchor:middle;fill:#b000b0;stroke-width:0.025in"
     id="text114"
     font-size="378"
     font-weight="normal"
     font-style="normal"
     y="7795"
     x="6141"
     xml:space="preserve">skalieren</text>
  <text
     style="font-style:normal;font-weight:normal;font-size:378px;font-family:Helvetica;text-anchor:middle;fill:#b000b0;stroke-width:0.025in"
     id="text116"
     font-size="378"
     font-weight="normal"
     font-style="normal"
     y="7795"
     x="11338"
     xml:space="preserve">verschieben</text>
  <polyline
     id="polyline118"
     style="fill:#ffffff;stroke:#000000;stroke-width:32;stroke-linecap:butt;stroke-linejoin:round"
     points="2598,4488 2598,3258 " />
  <polygon
     id="polygon120"
     style="fill:#000000;stroke:#000000;stroke-width:48;stroke-miterlimit:8"
     points="2535,3223 2598,3270 2661,3223 2661,3223 2598,3081 " />
  <polyline
     id="polyline122"
     style="fill:#ffffff;stroke:#000000;stroke-width:32;stroke-linecap:butt;stroke-linejoin:round"
     points="3543,5433 4771,5433 " />
  <polygon
     id="polygon124"
     style="fill:#000000;stroke:#000000;stroke-width:48;stroke-miterlimit:8"
     points="4808,5370 4761,5433 4808,5496 4808,5496 4950,5433 " />
  <polyline
     id="polyline126"
     style="fill:#ffffff;stroke:#000000;stroke-width:32;stroke-linecap:butt;stroke-linejoin:round"
     points="2125,5669 1821,5821 " />
  <polygon
     id="polygon128"
     style="fill:#000000;stroke:#000000;stroke-width:48;stroke-miterlimit:8"
     points="1817,5892 1832,5815 1761,5780 1761,5780 1662,5900 " />
  <polyline
     id="polyline130"
     style="fill:#ffffff;stroke:#000000;stroke-width:32;stroke-linecap:butt;stroke-linejoin:round"
     points="8267,5433 8267,3258 " />
  <polygon
     id="polygon132"
     style="fill:#000000;stroke:#000000;stroke-width:48;stroke-miterlimit:8"
     points="8204,3223 8267,3270 8330,3223 8330,3223 8267,3081 " />
  <polyline
     id="polyline134"
     style="fill:#ffffff;stroke:#000000;stroke-width:32;stroke-linecap:butt;stroke-linejoin:round"
     points="8267,5433 10440,5433 " />
  <polygon
     id="polygon136"
     style="fill:#000000;stroke:#000000;stroke-width:48;stroke-miterlimit:8"
     points="10477,5370 10430,5433 10477,5496 10477,5496 10619,5433 " />
  <polyline
     id="polyline138"
     style="fill:#ffffff;stroke:#000000;stroke-width:32;stroke-linecap:butt;stroke-linejoin:round"
     points="8267,5433 7490,5821 " />
  <polygon
     id="polygon140"
     style="fill:#000000;stroke:#000000;stroke-width:48;stroke-miterlimit:8"
     points="7486,5892 7501,5815 7429,5780 7429,5780 7332,5900 " />
  <polyline
     id="polyline142"
     style="fill:#ffffff;stroke:#000000;stroke-width:32;stroke-linecap:butt;stroke-linejoin:round"
     points="14173,8976 16346,8976 " />
  <polygon
     id="polygon144"
     style="fill:#000000;stroke:#000000;stroke-width:48;stroke-miterlimit:8"
     points="16383,8913 16335,8976 16383,9039 16383,9039 16524,8976 " />
  <polyline
     id="polyline146"
     style="fill:#ffffff;stroke:#000000;stroke-width:32;stroke-linecap:butt;stroke-linejoin:round"
     points="14173,8976 13396,9364 " />
  <polygon
     id="polygon148"
     style="fill:#000000;stroke:#000000;stroke-width:48;stroke-miterlimit:8"
     points="13392,9436 13406,9358 13335,9323 13335,9323 13237,9443 " />
  <polyline
     id="polyline150"
     style="fill:#ffffff;stroke:#000000;stroke-width:32;stroke-linecap:butt;stroke-linejoin:round"
     points="14173,8976 14173,6329 " />
  <polygon
     id="polygon152"
     style="fill:#000000;stroke:#000000;stroke-width:48;stroke-miterlimit:8"
     points="14110,6293 14173,6341 14236,6293 14236,6293 14173,6152 " />
  <polyline
     id="polyline154"
     style="fill:#ffffff;stroke:#000000;stroke-width:32;stroke-linecap:butt;stroke-linejoin:round"
     points="8267,10960 8267,8928 " />
  <polygon
     id="polygon156"
     style="fill:#000000;stroke:#000000;stroke-width:48;stroke-miterlimit:8"
     points="8204,8892 8267,8939 8330,8892 8330,8892 8267,8750 " />
  <polyline
     id="polyline158"
     style="fill:#ffffff;stroke:#000000;stroke-width:32;stroke-linecap:butt;stroke-linejoin:round"
     points="8598,11102 10440,11102 " />
  <polygon
     id="polygon160"
     style="fill:#000000;stroke:#000000;stroke-width:48;stroke-miterlimit:8"
     points="10477,11039 10430,11102 10477,11165 10477,11165 10619,11102 " />
  <polyline
     id="polyline162"
     style="fill:#ffffff;stroke:#000000;stroke-width:32;stroke-linecap:butt;stroke-linejoin:round"
     points="8078,11196 7490,11490 " />
  <polygon
     id="polygon164"
     style="fill:#000000;stroke:#000000;stroke-width:48;stroke-miterlimit:8"
     points="7486,11562 7501,11484 7429,11449 7429,11449 7332,11569 " />
  <polyline
     id="polyline166"
     style="fill:#ffffff;stroke:#000000;stroke-width:32;stroke-linecap:butt;stroke-linejoin:round"
     points="2598,10157 2598,8928 " />
  <polygon
     id="polygon168"
     style="fill:#000000;stroke:#000000;stroke-width:48;stroke-miterlimit:8"
     points="2535,8892 2598,8939 2661,8892 2661,8892 2598,8750 " />
  <polyline
     id="polyline170"
     style="fill:#ffffff;stroke:#000000;stroke-width:32;stroke-linecap:butt;stroke-linejoin:round"
     points="3543,11102 4771,11102 " />
  <polygon
     id="polygon172"
     style="fill:#000000;stroke:#000000;stroke-width:48;stroke-miterlimit:8"
     points="4808,11039 4761,11102 4808,11165 4808,11165 4950,11102 " />
  <polyline
     id="polyline174"
     style="fill:#ffffff;stroke:#000000;stroke-width:32;stroke-linecap:butt;stroke-linejoin:round"
     points="2125,11338 1821,11490 " />
  <polygon
     id="polygon176"
     style="fill:#000000;stroke:#000000;stroke-width:48;stroke-miterlimit:8"
     points="1817,11562 1832,11484 1761,11449 1761,11449 1662,11569 " />
</svg>
