<?xml version="1.0" encoding="UTF-8" standalone="no"?>
<!-- Creator: fig2dev Version 3.2 Patchlevel 5e -->

<!-- CreationDate: Thu Sep 24 12:16:52 2015 -->

<!-- Magnification: 1.050 -->

<svg
   xmlns:dc="http://purl.org/dc/elements/1.1/"
   xmlns:cc="http://creativecommons.org/ns#"
   xmlns:rdf="http://www.w3.org/1999/02/22-rdf-syntax-ns#"
   xmlns:svg="http://www.w3.org/2000/svg"
   xmlns="http://www.w3.org/2000/svg"
   xmlns:sodipodi="http://sodipodi.sourceforge.net/DTD/sodipodi-0.dtd"
   xmlns:inkscape="http://www.inkscape.org/namespaces/inkscape"
   width="6.6in"
   height="3.7in"
   viewBox="1855 538 7864 4456"
   id="svg2"
   version="1.1"
   inkscape:version="0.91 r13725"
   sodipodi:docname="fig_hardwarePlotterFlach.svg">
  <metadata
     id="metadata52">
    <rdf:RDF>
      <cc:Work
         rdf:about="">
        <dc:format>image/svg+xml</dc:format>
        <dc:type
           rdf:resource="http://purl.org/dc/dcmitype/StillImage" />
      </cc:Work>
    </rdf:RDF>
  </metadata>
  <defs
     id="defs50" />
  <sodipodi:namedview
     pagecolor="#ffffff"
     bordercolor="#666666"
     borderopacity="1"
     objecttolerance="10"
     gridtolerance="10"
     guidetolerance="10"
     inkscape:pageopacity="0"
     inkscape:pageshadow="2"
     inkscape:window-width="640"
     inkscape:window-height="480"
     id="namedview48"
     showgrid="false"
     inkscape:zoom="0.7087087"
     inkscape:cx="297"
     inkscape:cy="166.5"
     inkscape:window-x="142"
     inkscape:window-y="60"
     inkscape:window-maximized="0"
     inkscape:current-layer="svg2" />
  <polygon
     id="polygon6"
     style="fill:#d8d8ff;stroke:#0000ff;stroke-width:0;stroke-linecap:butt;stroke-linejoin:round"
     points="6614,4251 2834,4251 4960,2125 4960,2125 8740,2125 " />
  <text
     style="font-style:normal;font-weight:normal;font-size:378px;font-family:Helvetica;text-anchor:start;fill:#0000ff;stroke-width:0.025in"
     id="text8"
     font-size="378"
     font-weight="normal"
     font-style="normal"
     y="4015"
     x="3543"
     xml:space="preserve">Papier</text>
  <polygon
     id="polygon10"
     style="fill:none;stroke:#000000;stroke-width:32;stroke-linecap:butt;stroke-linejoin:round"
     points="9685,1653 6850,4488 1889,4488 1889,4488 4724,1653 " />
  <polygon
     id="polygon12"
     style="fill:none;stroke:#000000;stroke-width:32;stroke-linecap:butt;stroke-linejoin:round"
     points="8976,1889 6614,4251 2598,4251 2598,4251 4960,1889 " />
  <polyline
     id="polyline14"
     style="fill:none;stroke:#000000;stroke-width:32;stroke-linecap:butt;stroke-linejoin:round"
     points="1889,4488 1889,4960 6850,4960 6850,4488 " />
  <polyline
     id="polyline16"
     style="fill:none;stroke:#000000;stroke-width:32;stroke-linecap:butt;stroke-linejoin:round"
     points="6850,4960 9685,2125 9685,1653 " />
  <polyline
     id="polyline18"
     style="fill:none;stroke:#000000;stroke-width:32;stroke-linecap:butt;stroke-linejoin:round"
     points="4960,1889 4960,2125 8740,2125 " />
  <polyline
     id="polyline20"
     style="fill:none;stroke:#000000;stroke-width:32;stroke-linecap:butt;stroke-linejoin:round"
     points="4960,2125 2834,4251 " />
  <polygon
     id="polygon22"
     style="fill:#ffffff;stroke:#00b000;stroke-width:63;stroke-linecap:butt;stroke-linejoin:round"
     points="8503,2598 3543,2598 3543,2834 3543,2834 8503,2834 " />
  <polygon
     id="polygon24"
     style="fill:#ffffff;stroke:#00b000;stroke-width:63;stroke-linecap:butt;stroke-linejoin:round"
     points="8740,2362 8503,2598 3543,2598 3543,2598 3779,2362 " />
  <polygon
     id="polygon26"
     style="fill:#ffffff;stroke:#00b000;stroke-width:63;stroke-linecap:butt;stroke-linejoin:round"
     points="8503,2834 8503,2598 8740,2362 8740,2362 8740,2598 " />
  <polygon
     id="polygon28"
     style="fill:#ff0000;stroke:#ff0000;stroke-width:8;stroke-linecap:butt;stroke-linejoin:round"
     points="7086,3307 7181,3070 7181,2220 6992,2220 6992,2220 6992,3070 " />
  <polyline
     id="polyline30"
     style="fill:none;stroke:#00b000;stroke-width:63;stroke-linecap:butt;stroke-linejoin:round"
     points="8446,4074 9270,3248 " />
  <polygon
     id="polygon32"
     style="fill:#00b000;stroke:#00b000;stroke-width:63;stroke-miterlimit:8"
     points="9256,3149 9268,3249 9367,3260 9367,3260 9446,3071 " />
  <polygon
     id="polygon34"
     style="fill:#00b000;stroke:#00b000;stroke-width:63;stroke-miterlimit:8"
     points="8457,4171 8446,4071 8346,4059 8346,4059 8268,4249 " />
  <polyline
     id="polyline36"
     style="fill:none;stroke:#ff0000;stroke-width:63;stroke-linecap:butt;stroke-linejoin:round"
     points="6629,1181 7543,1181 " />
  <polygon
     id="polygon38"
     style="fill:#ff0000;stroke:#ff0000;stroke-width:63;stroke-miterlimit:8"
     points="7603,1102 7540,1181 7603,1259 7603,1259 7792,1181 " />
  <polygon
     id="polygon40"
     style="fill:#ff0000;stroke:#ff0000;stroke-width:63;stroke-miterlimit:8"
     points="6570,1259 6633,1181 6570,1102 6570,1102 6381,1181 " />
  <polyline
     id="polyline42"
     style="fill:none;stroke:#ff0000;stroke-width:63;stroke-linecap:butt;stroke-linejoin:bevel"
     points="7086,3307 7084,3309 7078,3312 7068,3318 7053,3328 7032,3341 7005,3358 6974,3378 6938,3400 6899,3424 6859,3449 6818,3475 6777,3499 6738,3523 6699,3545 6663,3566 6627,3586 6595,3604 6564,3619 6534,3635 6507,3649 6479,3660 6453,3672 6428,3682 6403,3692 6377,3700 6350,3709 6323,3717 6296,3724 6267,3731 6239,3737 6209,3742 6180,3746 6151,3751 6120,3754 6090,3756 6059,3757 6029,3757 5998,3757 5968,3756 5939,3754 5910,3751 5882,3746 5855,3742 5828,3737 5803,3731 5778,3724 5754,3717 5731,3709 5709,3700 5686,3691 5664,3680 5641,3670 5619,3658 5596,3646 5574,3632 5552,3617 5529,3603 5506,3587 5483,3571 5461,3554 5438,3538 5416,3520 5394,3503 5372,3486 5351,3468 5330,3451 5310,3436 5290,3419 5270,3403 5251,3388 5233,3374 5214,3360 5196,3346 5176,3332 5156,3317 5137,3303 5116,3289 5093,3275 5070,3260 5045,3246 5019,3230 4991,3214 4961,3197 4930,3181 4898,3163 4866,3145 4834,3128 4806,3113 4780,3100 4759,3088 4743,3081 4732,3075 4727,3071 4724,3070 " />
  <text
     style="font-style:normal;font-weight:normal;font-size:378px;font-family:Times;text-anchor:middle;fill:#ff0000;stroke-width:0.025in"
     id="text44"
     font-size="378"
     font-weight="normal"
     font-style="normal"
     y="944"
     x="7086"
     xml:space="preserve">$v_x$</text>
  <text
     style="font-style:normal;font-weight:normal;font-size:378px;font-family:Times;text-anchor:end;fill:#00b000;stroke-width:0.025in"
     id="text46"
     font-size="378"
     font-weight="normal"
     font-style="normal"
     y="4015"
     x="9212"
     xml:space="preserve">$v_y$</text>
</svg>
