<?xml version="1.0" encoding="UTF-8" standalone="no"?>
<!-- Creator: fig2dev Version 3.2 Patchlevel 5e -->

<!-- CreationDate: Tue Oct 27 16:32:40 2015 -->

<!-- Magnification: 1.050 -->

<svg
   xmlns:dc="http://purl.org/dc/elements/1.1/"
   xmlns:cc="http://creativecommons.org/ns#"
   xmlns:rdf="http://www.w3.org/1999/02/22-rdf-syntax-ns#"
   xmlns:svg="http://www.w3.org/2000/svg"
   xmlns="http://www.w3.org/2000/svg"
   xmlns:sodipodi="http://sodipodi.sourceforge.net/DTD/sodipodi-0.dtd"
   xmlns:inkscape="http://www.inkscape.org/namespaces/inkscape"
   width="5.2in"
   height="3.2in"
   viewBox="4205 3250 6234 3892"
   id="svg2"
   version="1.1"
   inkscape:version="0.91 r13725"
   sodipodi:docname="fig_farbeGouraudNormale2.svg">
  <metadata
     id="metadata86">
    <rdf:RDF>
      <cc:Work
         rdf:about="">
        <dc:format>image/svg+xml</dc:format>
        <dc:type
           rdf:resource="http://purl.org/dc/dcmitype/StillImage" />
      </cc:Work>
    </rdf:RDF>
  </metadata>
  <defs
     id="defs84" />
  <sodipodi:namedview
     pagecolor="#ffffff"
     bordercolor="#666666"
     borderopacity="1"
     objecttolerance="10"
     gridtolerance="10"
     guidetolerance="10"
     inkscape:pageopacity="0"
     inkscape:pageshadow="2"
     inkscape:window-width="640"
     inkscape:window-height="480"
     id="namedview82"
     showgrid="false"
     inkscape:zoom="0.81944443"
     inkscape:cx="233.99999"
     inkscape:cy="144"
     inkscape:window-x="142"
     inkscape:window-y="60"
     inkscape:window-maximized="0"
     inkscape:current-layer="svg2" />
  <polygon
     id="polygon6"
     style="fill:#ccccff;stroke:#0000ff;stroke-width:48;stroke-linecap:butt;stroke-linejoin:round"
     points="7086,4960 5669,7086 4724,6141 4724,6141 6141,4015 " />
  <polygon
     id="polygon8"
     style="fill:#9999ff;stroke:#0000ff;stroke-width:48;stroke-linecap:butt;stroke-linejoin:round"
     points="6614,6141 5669,7086 7086,4960 7086,4960 8031,4015 " />
  <polygon
     id="polygon10"
     style="fill:#ccccff;stroke:#0000ff;stroke-width:48;stroke-linecap:butt;stroke-linejoin:round"
     points="8976,4960 7559,7086 6614,6141 6614,6141 8031,4015 " />
  <polygon
     id="polygon12"
     style="fill:#9999ff;stroke:#0000ff;stroke-width:48;stroke-linecap:butt;stroke-linejoin:round"
     points="8503,6141 7559,7086 8976,4960 8976,4960 9921,4015 " />
  <polyline
     id="polyline14"
     style="fill:#9999ff;stroke:#0000ff;stroke-width:48;stroke-linecap:butt;stroke-linejoin:round"
     points="5669,4488 6141,4015 4724,6141 4251,6614 " />
  <polyline
     id="polyline16"
     style="fill:#ccccff;stroke:#0000ff;stroke-width:48;stroke-linecap:butt;stroke-linejoin:round"
     points="10393,4488 9921,4015 8503,6141 8976,6614 " />
  <polyline
     id="polyline18"
     style="fill:none;stroke:#0000ff;stroke-width:63;stroke-linecap:butt;stroke-linejoin:round"
     points="7559,5905 8064,5533 " />
  <polygon
     id="polygon20"
     style="fill:#0000ff;stroke:#0000ff;stroke-width:63;stroke-miterlimit:8"
     points="8065,5435 8060,5535 8158,5562 8158,5562 8264,5386 " />
  <polyline
     id="polyline22"
     style="fill:none;stroke:#0000ff;stroke-width:63;stroke-linecap:butt;stroke-linejoin:round"
     points="5669,5905 6174,5533 " />
  <polygon
     id="polygon24"
     style="fill:#0000ff;stroke:#0000ff;stroke-width:63;stroke-miterlimit:8"
     points="6175,5435 6171,5535 6268,5562 6268,5562 6374,5386 " />
  <polyline
     id="polyline26"
     style="fill:none;stroke:#0000ff;stroke-width:63;stroke-linecap:butt;stroke-linejoin:round"
     points="9448,5905 9953,5533 " />
  <polygon
     id="polygon28"
     style="fill:#0000ff;stroke:#0000ff;stroke-width:63;stroke-miterlimit:8"
     points="9954,5435 9950,5535 10048,5562 10048,5562 10154,5386 " />
  <polyline
     id="polyline30"
     style="fill:none;stroke:#0000ff;stroke-width:63;stroke-linecap:butt;stroke-linejoin:round"
     points="8740,5433 8445,5138 " />
  <polygon
     id="polygon32"
     style="fill:#0000ff;stroke:#0000ff;stroke-width:63;stroke-miterlimit:8"
     points="8346,5150 8446,5139 8457,5039 8457,5039 8268,4961 " />
  <polyline
     id="polyline34"
     style="fill:none;stroke:#0000ff;stroke-width:63;stroke-linecap:butt;stroke-linejoin:round"
     points="4960,5433 4665,5138 " />
  <polygon
     id="polygon36"
     style="fill:#0000ff;stroke:#0000ff;stroke-width:63;stroke-miterlimit:8"
     points="4566,5150 4666,5139 4678,5039 4678,5039 4489,4961 " />
  <polyline
     id="polyline38"
     style="fill:none;stroke:#0000ff;stroke-width:63;stroke-linecap:butt;stroke-linejoin:round"
     points="6850,5433 6508,5090 " />
  <polygon
     id="polygon40"
     style="fill:#0000ff;stroke:#0000ff;stroke-width:63;stroke-miterlimit:8"
     points="6409,5103 6509,5091 6520,4992 6520,4992 6331,4914 " />
  <polyline
     id="polyline42"
     style="fill:none;stroke:#b000b0;stroke-width:63;stroke-linecap:butt;stroke-linejoin:round"
     points="6141,4015 6141,3558 " />
  <polygon
     id="polygon44"
     style="fill:#b000b0;stroke:#b000b0;stroke-width:63;stroke-miterlimit:8"
     points="6062,3499 6141,3562 6220,3499 6220,3499 6141,3310 " />
  <polyline
     id="polyline46"
     style="fill:none;stroke:#b000b0;stroke-width:63;stroke-linecap:butt;stroke-linejoin:round"
     points="7086,4960 7086,4502 " />
  <polygon
     id="polygon48"
     style="fill:#b000b0;stroke:#b000b0;stroke-width:63;stroke-miterlimit:8"
     points="7007,4444 7086,4507 7165,4444 7165,4444 7086,4255 " />
  <polyline
     id="polyline50"
     style="fill:none;stroke:#b000b0;stroke-width:63;stroke-linecap:butt;stroke-linejoin:round"
     points="8976,4960 8976,4502 " />
  <polygon
     id="polygon52"
     style="fill:#b000b0;stroke:#b000b0;stroke-width:63;stroke-miterlimit:8"
     points="8897,4444 8976,4507 9055,4444 9055,4444 8976,4255 " />
  <polyline
     id="polyline54"
     style="fill:none;stroke:#b000b0;stroke-width:63;stroke-linecap:butt;stroke-linejoin:round"
     points="8031,4015 8031,3558 " />
  <polygon
     id="polygon56"
     style="fill:#b000b0;stroke:#b000b0;stroke-width:63;stroke-miterlimit:8"
     points="7952,3499 8031,3562 8110,3499 8110,3499 8031,3310 " />
  <polyline
     id="polyline58"
     style="fill:none;stroke:#b000b0;stroke-width:63;stroke-linecap:butt;stroke-linejoin:round"
     points="9921,4015 9921,3558 " />
  <polygon
     id="polygon60"
     style="fill:#b000b0;stroke:#b000b0;stroke-width:63;stroke-miterlimit:8"
     points="9842,3499 9921,3562 10000,3499 10000,3499 9921,3310 " />
  <polyline
     id="polyline62"
     style="fill:none;stroke:#b000b0;stroke-width:63;stroke-linecap:butt;stroke-linejoin:round"
     points="8503,6141 8503,5683 " />
  <polygon
     id="polygon64"
     style="fill:#b000b0;stroke:#b000b0;stroke-width:63;stroke-miterlimit:8"
     points="8425,5625 8503,5688 8582,5625 8582,5625 8503,5436 " />
  <polyline
     id="polyline66"
     style="fill:none;stroke:#b000b0;stroke-width:63;stroke-linecap:butt;stroke-linejoin:round"
     points="7559,7086 7559,6392 " />
  <polygon
     id="polygon68"
     style="fill:#b000b0;stroke:#b000b0;stroke-width:63;stroke-miterlimit:8"
     points="7480,6333 7559,6396 7637,6333 7637,6333 7559,6144 " />
  <polyline
     id="polyline70"
     style="fill:none;stroke:#b000b0;stroke-width:63;stroke-linecap:butt;stroke-linejoin:round"
     points="6614,6141 6614,5683 " />
  <polygon
     id="polygon72"
     style="fill:#b000b0;stroke:#b000b0;stroke-width:63;stroke-miterlimit:8"
     points="6535,5625 6614,5688 6692,5625 6692,5625 6614,5436 " />
  <polyline
     id="polyline74"
     style="fill:none;stroke:#b000b0;stroke-width:63;stroke-linecap:butt;stroke-linejoin:round"
     points="5669,7086 5669,6628 " />
  <polygon
     id="polygon76"
     style="fill:#b000b0;stroke:#b000b0;stroke-width:63;stroke-miterlimit:8"
     points="5590,6570 5669,6633 5748,6570 5748,6570 5669,6381 " />
  <polyline
     id="polyline78"
     style="fill:none;stroke:#b000b0;stroke-width:63;stroke-linecap:butt;stroke-linejoin:round"
     points="4724,6141 4724,5683 " />
  <polygon
     id="polygon80"
     style="fill:#b000b0;stroke:#b000b0;stroke-width:63;stroke-miterlimit:8"
     points="4645,5625 4724,5688 4803,5625 4803,5625 4724,5436 " />
</svg>
