<?xml version="1.0" encoding="UTF-8" standalone="no"?>
<!-- Creator: fig2dev Version 3.2 Patchlevel 5e -->

<!-- CreationDate: Thu Oct 22 15:53:30 2015 -->

<!-- Magnification: 1.050 -->

<svg
   xmlns:dc="http://purl.org/dc/elements/1.1/"
   xmlns:cc="http://creativecommons.org/ns#"
   xmlns:rdf="http://www.w3.org/1999/02/22-rdf-syntax-ns#"
   xmlns:svg="http://www.w3.org/2000/svg"
   xmlns="http://www.w3.org/2000/svg"
   xmlns:sodipodi="http://sodipodi.sourceforge.net/DTD/sodipodi-0.dtd"
   xmlns:inkscape="http://www.inkscape.org/namespaces/inkscape"
   width="5.6in"
   height="2.3in"
   viewBox="2788 2552 6706 2807"
   id="svg2"
   version="1.1"
   inkscape:version="0.91 r13725"
   sodipodi:docname="fig_farbeEffekteDiffus1.svg">
  <metadata
     id="metadata50">
    <rdf:RDF>
      <cc:Work
         rdf:about="">
        <dc:format>image/svg+xml</dc:format>
        <dc:type
           rdf:resource="http://purl.org/dc/dcmitype/StillImage" />
      </cc:Work>
    </rdf:RDF>
  </metadata>
  <defs
     id="defs48" />
  <sodipodi:namedview
     pagecolor="#ffffff"
     bordercolor="#666666"
     borderopacity="1"
     objecttolerance="10"
     gridtolerance="10"
     guidetolerance="10"
     inkscape:pageopacity="0"
     inkscape:pageshadow="2"
     inkscape:window-width="640"
     inkscape:window-height="480"
     id="namedview46"
     showgrid="false"
     inkscape:zoom="0.90277779"
     inkscape:cx="252"
     inkscape:cy="103.5"
     inkscape:window-x="142"
     inkscape:window-y="60"
     inkscape:window-maximized="0"
     inkscape:current-layer="svg2" />
  <polyline
     id="polyline6"
     style="fill:none;stroke:#ff0000;stroke-width:48;stroke-linecap:butt;stroke-linejoin:miter"
     points="6094,5244 3673,4407 " />
  <polygon
     id="polygon8"
     style="fill:#ff0000;stroke:#ff0000;stroke-width:48;stroke-miterlimit:8"
     points="3603,4449 3669,4405 3645,4330 3645,4330 3490,4344 " />
  <circle
     id="circle10"
     style="fill:#ffffff;stroke:#ffffff;stroke-width:8"
     r="94"
     cy="5018"
     cx="5485" />
  <circle
     id="circle12"
     style="fill:#ffffff;stroke:#ffffff;stroke-width:8"
     r="94"
     cy="5072"
     cx="5566" />
  <polyline
     id="polyline14"
     style="fill:none;stroke:#ff0000;stroke-width:48;stroke-linecap:butt;stroke-linejoin:miter"
     points="4629,5291 2997,4345 " />
  <polygon
     id="polygon16"
     style="fill:#ff0000;stroke:#ff0000;stroke-width:48;stroke-miterlimit:8"
     points="2920,4373 2993,4343 2983,4264 2983,4264 2830,4248 " />
  <polyline
     id="polyline18"
     style="fill:none;stroke:#ff0000;stroke-width:48;stroke-linecap:butt;stroke-linejoin:miter"
     points="6803,5244 6151,3202 " />
  <polygon
     id="polygon20"
     style="fill:#ff0000;stroke:#ff0000;stroke-width:48;stroke-miterlimit:8"
     points="6074,3171 6149,3197 6195,3133 6195,3133 6092,3018 " />
  <polyline
     id="polyline22"
     style="fill:none;stroke:#ff0000;stroke-width:48;stroke-linecap:butt;stroke-linejoin:miter"
     points="5480,5149 5349,3117 " />
  <polygon
     id="polygon24"
     style="fill:#ff0000;stroke:#ff0000;stroke-width:48;stroke-miterlimit:8"
     points="5283,3068 5350,3111 5409,3060 5409,3060 5338,2923 " />
  <circle
     id="circle26"
     style="fill:#ffffff;stroke:#ffffff;stroke-width:8"
     r="94"
     cy="4488"
     cx="5433" />
  <circle
     id="circle28"
     style="fill:#ffffff;stroke:#ffffff;stroke-width:8"
     r="94"
     cy="3637"
     cx="6283" />
  <circle
     id="circle30"
     style="fill:#ffffff;stroke:#ffffff;stroke-width:8"
     r="94"
     cy="4157"
     cx="6472" />
  <circle
     id="circle32"
     style="fill:#ffffff;stroke:#ffffff;stroke-width:8"
     r="94"
     cy="4724"
     cx="6614" />
  <circle
     id="circle34"
     style="fill:#ffffff;stroke:#ffffff;stroke-width:8"
     r="94"
     cy="4866"
     cx="5055" />
  <polyline
     id="polyline36"
     style="fill:none;stroke:#ff0000;stroke-width:48;stroke-linecap:butt;stroke-linejoin:miter"
     points="8740,2598 6047,5291 " />
  <polyline
     id="polyline38"
     style="fill:none;stroke:#ff0000;stroke-width:48;stroke-linecap:butt;stroke-linejoin:miter"
     points="8031,2598 5480,5149 " />
  <polyline
     id="polyline40"
     style="fill:none;stroke:#ff0000;stroke-width:48;stroke-linecap:butt;stroke-linejoin:miter"
     points="7322,2598 4629,5291 " />
  <polyline
     id="polyline42"
     style="fill:none;stroke:#ff0000;stroke-width:48;stroke-linecap:butt;stroke-linejoin:miter"
     points="9448,2598 6803,5244 " />
  <polyline
     id="polyline44"
     style="fill:none;stroke:#b000b0;stroke-width:48;stroke-linecap:butt;stroke-linejoin:bevel"
     points="3070,5196 3074,5195 3081,5194 3092,5192 3110,5188 3133,5184 3161,5179 3191,5173 3223,5167 3254,5162 3285,5156 3314,5152 3341,5149 3365,5146 3388,5143 3411,5142 3430,5141 3450,5141 3469,5141 3488,5142 3508,5143 3529,5145 3549,5148 3570,5151 3592,5154 3613,5159 3635,5163 3656,5168 3678,5173 3699,5177 3719,5183 3738,5187 3757,5191 3775,5194 3791,5197 3806,5201 3821,5203 3835,5205 3854,5206 3871,5205 3889,5204 3906,5202 3923,5198 3939,5194 3954,5190 3968,5186 3981,5182 3993,5177 4005,5175 4015,5173 4026,5171 4037,5171 4049,5171 4061,5172 4074,5175 4088,5179 4100,5183 4114,5187 4127,5192 4140,5198 4153,5205 4165,5212 4176,5218 4187,5226 4200,5233 4213,5240 4227,5249 4242,5257 4258,5265 4275,5273 4292,5280 4310,5288 4328,5293 4347,5298 4366,5303 4386,5307 4402,5309 4418,5311 4436,5312 4454,5312 4474,5313 4495,5312 4516,5311 4538,5310 4561,5308 4583,5306 4605,5302 4628,5299 4649,5296 4670,5293 4691,5289 4710,5285 4729,5279 4748,5275 4768,5270 4788,5264 4808,5257 4828,5250 4848,5244 4868,5235 4889,5228 4909,5220 4929,5212 4948,5205 4965,5196 4983,5190 5000,5183 5016,5176 5032,5170 5047,5165 5064,5159 5081,5153 5099,5148 5117,5143 5135,5138 5154,5133 5174,5130 5193,5126 5213,5124 5232,5122 5251,5120 5270,5119 5288,5118 5307,5118 5323,5118 5340,5119 5358,5119 5376,5121 5396,5122 5416,5124 5436,5127 5457,5130 5477,5133 5497,5137 5517,5141 5537,5145 5554,5150 5572,5154 5589,5160 5606,5165 5622,5170 5638,5176 5654,5183 5671,5189 5687,5196 5703,5204 5720,5211 5737,5218 5754,5227 5771,5233 5786,5240 5801,5247 5816,5253 5830,5258 5844,5262 5858,5268 5874,5272 5889,5275 5905,5278 5922,5281 5940,5283 5958,5285 5974,5286 5992,5286 6010,5286 6026,5285 6043,5282 6057,5280 6072,5278 6087,5275 6102,5271 6118,5267 6135,5261 6152,5256 6170,5251 6186,5245 6203,5239 6219,5234 6235,5229 6248,5226 6262,5223 6276,5220 6287,5218 6301,5218 6313,5218 6327,5218 6341,5219 6355,5222 6369,5223 6384,5225 6398,5226 6412,5227 6426,5228 6440,5228 6453,5228 6467,5227 6480,5226 6495,5225 6511,5224 6528,5223 6544,5222 6561,5219 6577,5218 6594,5218 6609,5218 6624,5218 6639,5218 6654,5220 6667,5222 6681,5225 6696,5227 6709,5231 6725,5234 6740,5237 6755,5241 6771,5245 6786,5248 6802,5250 6815,5252 6830,5253 6844,5252 6858,5252 6872,5250 6887,5247 6901,5243 6918,5237 6934,5231 6952,5225 6970,5217 6986,5211 7004,5204 7022,5196 7039,5189 7055,5184 7070,5177 7086,5173 7102,5168 7118,5165 7133,5162 7150,5159 7168,5156 7186,5155 7203,5154 7220,5154 7238,5154 7254,5155 7271,5158 7286,5160 7300,5162 7315,5165 7329,5168 7342,5172 7357,5176 7372,5181 7386,5186 7402,5192 7418,5197 7434,5204 7449,5209 7465,5215 7481,5220 7497,5226 7511,5231 7527,5236 7543,5240 7560,5245 7576,5249 7595,5253 7614,5257 7634,5260 7654,5264 7674,5267 7695,5270 7715,5272 7734,5273 7752,5274 7770,5275 7787,5275 7804,5275 7821,5274 7838,5273 7856,5271 7874,5269 7891,5267 7909,5262 7927,5259 7944,5255 7960,5250 7975,5245 7989,5239 8003,5234 8015,5228 8030,5220 8044,5212 8058,5203 8072,5193 8087,5183 8102,5172 8117,5163 8132,5152 8145,5143 8160,5133 8174,5125 8188,5118 8201,5111 8215,5106 8228,5101 8243,5096 8259,5091 8275,5087 8291,5084 8307,5081 8323,5079 8339,5078 8353,5077 8367,5077 8381,5077 8393,5079 8408,5081 8422,5084 8435,5088 8450,5092 8465,5099 8478,5105 8493,5112 8507,5120 8520,5127 8533,5134 8546,5142 8559,5149 8572,5156 8585,5164 8599,5171 8615,5179 8630,5187 8647,5194 8664,5202 8682,5208 8699,5214 8716,5219 8731,5224 8748,5228 8762,5231 8776,5233 8791,5235 8807,5237 8824,5238 8839,5239 8856,5240 8873,5240 8890,5240 8906,5240 8920,5239 8934,5238 8948,5237 8960,5236 8975,5234 8988,5231 9002,5229 9017,5226 9032,5223 9045,5218 9060,5215 9074,5211 9087,5208 9100,5204 9113,5200 9126,5196 9139,5193 9152,5189 9167,5185 9184,5181 9204,5175 9226,5170 9249,5164 9271,5159 9289,5153 9300,5150 9306,5149 9307,5149 " />
</svg>
