<?xml version="1.0" encoding="UTF-8" standalone="no"?>
<!-- Creator: fig2dev Version 3.2 Patchlevel 5e -->

<!-- CreationDate: Thu Oct 29 15:38:54 2015 -->

<!-- Magnification: 1.050 -->

<svg
   xmlns:dc="http://purl.org/dc/elements/1.1/"
   xmlns:cc="http://creativecommons.org/ns#"
   xmlns:rdf="http://www.w3.org/1999/02/22-rdf-syntax-ns#"
   xmlns:svg="http://www.w3.org/2000/svg"
   xmlns="http://www.w3.org/2000/svg"
   xmlns:sodipodi="http://sodipodi.sourceforge.net/DTD/sodipodi-0.dtd"
   xmlns:inkscape="http://www.inkscape.org/namespaces/inkscape"
   width="12.2in"
   height="4.0in"
   viewBox="3039 1818 14618 4826"
   id="svg2"
   version="1.1"
   inkscape:version="0.91 r13725"
   sodipodi:docname="fig_farbeRadiosityRaumwinkel2.svg">
  <metadata
     id="metadata50">
    <rdf:RDF>
      <cc:Work
         rdf:about="">
        <dc:format>image/svg+xml</dc:format>
        <dc:type
           rdf:resource="http://purl.org/dc/dcmitype/StillImage" />
      </cc:Work>
    </rdf:RDF>
  </metadata>
  <defs
     id="defs48" />
  <sodipodi:namedview
     pagecolor="#ffffff"
     bordercolor="#666666"
     borderopacity="1"
     objecttolerance="10"
     gridtolerance="10"
     guidetolerance="10"
     inkscape:pageopacity="0"
     inkscape:pageshadow="2"
     inkscape:window-width="2418"
     inkscape:window-height="1261"
     id="namedview46"
     showgrid="false"
     inkscape:zoom="1.1720714"
     inkscape:cx="504.38866"
     inkscape:cy="126.19195"
     inkscape:window-x="142"
     inkscape:window-y="60"
     inkscape:window-maximized="1"
     inkscape:current-layer="svg2" />
  <text
     style="font-style:normal;font-weight:normal;font-size:353px;font-family:Times;text-anchor:start;fill:#b000b0;stroke-width:0.025in"
     id="text6"
     font-size="353"
     font-weight="normal"
     font-style="normal"
     y="2929"
     x="11102"
     xml:space="preserve">$\dd A$</text>
  <text
     style="font-style:normal;font-weight:normal;font-size:353px;font-family:Times;text-anchor:start;fill:#b000b0;stroke-width:0.025in"
     id="text8"
     font-size="353"
     font-weight="normal"
     font-style="normal"
     y="4110"
     x="13039"
     xml:space="preserve">$A$</text>
  <path
     inkscape:connector-curvature="0"
     id="path10"
     d="m 10346,3070 a 607,607 0 0 0 -47,567"
     style="fill:none;stroke:#a14000;stroke-width:32;stroke-linecap:butt" />
  <circle
     id="circle12"
     style="fill:none;stroke:#0000ff;stroke-width:48"
     r="1889"
     cy="4724"
     cx="4960" />
  <circle
     id="circle14"
     style="fill:#0000ff;stroke:#0000ff;stroke-width:8"
     r="94"
     cy="4724"
     cx="4960" />
  <polygon
     id="polygon16"
     style="fill:none;stroke:#b000b0;stroke-width:63;stroke-linecap:butt;stroke-linejoin:round"
     points="11811,3779 11338,4015 11338,3307 11338,3307 11811,3070 " />
  <polyline
     id="polyline18"
     style="fill:none;stroke:#a14000;stroke-width:63;stroke-linecap:butt;stroke-linejoin:round"
     points="11574,3543 10193,2851 " />
  <polygon
     id="polygon20"
     style="fill:#a14000;stroke:#a14000;stroke-width:63;stroke-miterlimit:8"
     points="10103,2895 10195,2853 10174,2754 10174,2754 9970,2741 " />
  <polyline
     id="polyline22"
     style="fill:none;stroke:#a14000;stroke-width:16;stroke-linecap:butt;stroke-linejoin:round;stroke-dasharray:62, 62"
     points="11574,3543 4913,4724 " />
  <polyline
     id="polyline24"
     style="fill:none;stroke:#a14000;stroke-width:63;stroke-linecap:butt;stroke-linejoin:round"
     points="11574,3543 10074,3786 " />
  <polygon
     id="polygon26"
     style="fill:#a14000;stroke:#a14000;stroke-width:63;stroke-miterlimit:8"
     points="10027,3874 10076,3785 10002,3718 10002,3718 9828,3826 " />
  <polyline
     id="polyline28"
     style="fill:none;stroke:#b000b0;stroke-width:16;stroke-linecap:butt;stroke-linejoin:round;stroke-dasharray:62, 62"
     points="4960,4724 11811,3070 " />
  <polyline
     id="polyline30"
     style="fill:none;stroke:#b000b0;stroke-width:16;stroke-linecap:butt;stroke-linejoin:round;stroke-dasharray:62, 62"
     points="4960,4724 11338,4015 " />
  <polygon
     id="polygon32"
     style="fill:none;stroke:#0000ff;stroke-width:63;stroke-linecap:butt;stroke-linejoin:round"
     points="6519,4488 6330,4582 6330,4440 6330,4440 6519,4346 " />
  <polygon
     id="polygon34"
     style="fill:none;stroke:#b000b0;stroke-width:32;stroke-linecap:butt;stroke-linejoin:bevel"
     points="11708,2007 11718,2025 11729,2043 11738,2062 11748,2083 11757,2106 11766,2129 11776,2153 11785,2179 11794,2205 11804,2233 11814,2262 11823,2291 11834,2322 11845,2352 11857,2384 11868,2415 11881,2447 11895,2478 11908,2511 11923,2542 11939,2574 11954,2605 11972,2637 11990,2668 12010,2700 12031,2732 12049,2758 12069,2785 12089,2811 12111,2838 12133,2867 12157,2894 12181,2923 12206,2953 12233,2982 12260,3013 12287,3043 12316,3074 12344,3105 12373,3137 12403,3168 12432,3200 12461,3231 12490,3262 12519,3294 12546,3325 12575,3357 12601,3387 12627,3417 12653,3446 12676,3476 12699,3504 12721,3531 12741,3559 12760,3585 12777,3610 12793,3635 12809,3660 12822,3685 12834,3709 12847,3737 12858,3764 12867,3793 12874,3820 12879,3848 12883,3876 12885,3903 12885,3930 12882,3958 12879,3985 12873,4012 12867,4038 12857,4065 12847,4090 12835,4115 12822,4140 12808,4163 12792,4186 12775,4208 12758,4229 12740,4250 12721,4269 12702,4288 12682,4306 12661,4323 12640,4339 12619,4354 12598,4370 12575,4385 12551,4401 12525,4415 12500,4430 12474,4445 12447,4458 12419,4473 12392,4488 12364,4502 12335,4517 12308,4532 12280,4546 12253,4561 12225,4576 12199,4591 12173,4605 12149,4621 12125,4636 12103,4650 12083,4666 12065,4682 12047,4698 12031,4713 12016,4729 12003,4746 11992,4764 11980,4785 11970,4807 11961,4830 11953,4854 11947,4880 11942,4907 11937,4934 11931,4962 11927,4992 11923,5020 11918,5049 11912,5078 11906,5106 11899,5133 11891,5160 11882,5186 11870,5209 11858,5232 11843,5253 11827,5272 11808,5290 11787,5307 11770,5318 11751,5329 11730,5338 11708,5346 11685,5355 11659,5362 11632,5370 11604,5375 11574,5379 11544,5383 11511,5386 11479,5387 11445,5388 11411,5387 11376,5385 11340,5382 11306,5378 11270,5373 11235,5366 11202,5359 11168,5350 11135,5340 11104,5329 11072,5316 11043,5303 11015,5289 10987,5273 10961,5256 10937,5238 10913,5220 10892,5202 10872,5181 10852,5160 10833,5138 10815,5113 10798,5088 10782,5061 10766,5033 10751,5002 10738,4972 10724,4938 10711,4904 10700,4869 10689,4833 10680,4795 10670,4756 10663,4718 10656,4677 10649,4637 10645,4595 10640,4554 10637,4512 10635,4470 10633,4428 10632,4386 10632,4344 10633,4302 10634,4261 10636,4219 10638,4177 10641,4136 10645,4094 10649,4056 10654,4018 10658,3981 10663,3942 10669,3902 10675,3862 10682,3822 10688,3780 10696,3738 10704,3696 10711,3653 10720,3609 10729,3566 10738,3521 10747,3477 10758,3433 10767,3387 10776,3343 10787,3299 10796,3255 10807,3212 10816,3169 10827,3127 10836,3085 10846,3045 10855,3005 10865,2966 10874,2929 10882,2892 10892,2856 10899,2822 10908,2787 10915,2754 10922,2723 10930,2691 10937,2661 10945,2620 10954,2580 10962,2540 10970,2502 10977,2465 10985,2427 10993,2390 11000,2354 11007,2319 11015,2285 11022,2251 11029,2219 11038,2188 11045,2159 11054,2131 11063,2103 11071,2078 11081,2055 11090,2033 11101,2013 11111,1994 11122,1976 11134,1961 11146,1946 11159,1933 11173,1921 11187,1909 11203,1900 11219,1890 11237,1882 11256,1875 11275,1868 11296,1863 11317,1859 11339,1856 11361,1854 11384,1853 11408,1853 11432,1855 11455,1857 11478,1861 11501,1866 11523,1872 11545,1880 11566,1889 11586,1899 11605,1909 11623,1921 11640,1933 11656,1946 11671,1961 11685,1976 11685,1976 11696,1991 " />
  <text
     style="font-style:normal;font-weight:normal;font-size:353px;font-family:Times;text-anchor:start;fill:#0000ff;stroke-width:0.025in"
     id="text36"
     font-size="353"
     font-weight="normal"
     font-style="normal"
     y="4629"
     x="4535"
     xml:space="preserve">$\point{P}$</text>
  <text
     style="font-style:normal;font-weight:normal;font-size:353px;font-family:Times;text-anchor:start;fill:#0000ff;stroke-width:0.025in"
     id="text38"
     font-size="353"
     font-weight="normal"
     font-style="normal"
     y="4251"
     x="5669"
     xml:space="preserve">$\dd ω$</text>
  <text
     style="font-style:normal;font-weight:normal;font-size:353px;font-family:Times;text-anchor:start;fill:#a14000;stroke-width:0.025in"
     id="text40"
     font-size="353"
     font-weight="normal"
     font-style="normal"
     y="3826"
     x="7842"
     xml:space="preserve">$r$</text>
  <text
     style="font-style:normal;font-weight:normal;font-size:353px;font-family:Times;text-anchor:start;fill:#a14000;stroke-width:0.025in"
     id="text42"
     font-size="353"
     font-weight="normal"
     font-style="normal"
     y="2645"
     x="10062"
     xml:space="preserve">$\vektor{n}$</text>
  <text
     style="font-style:normal;font-weight:normal;font-size:353px;font-family:Times;text-anchor:start;fill:#a14000;stroke-width:0.025in"
     id="text44"
     font-size="353"
     font-weight="normal"
     font-style="normal"
     y="3401"
     x="9874"
     xml:space="preserve">$φ$</text>
</svg>
