<?xml version="1.0" encoding="UTF-8" standalone="no"?>
<!-- Creator: fig2dev Version 3.2 Patchlevel 5e -->

<!-- CreationDate: Thu Oct 22 10:47:47 2015 -->

<!-- Magnification: 1.050 -->

<svg
   xmlns:dc="http://purl.org/dc/elements/1.1/"
   xmlns:cc="http://creativecommons.org/ns#"
   xmlns:rdf="http://www.w3.org/1999/02/22-rdf-syntax-ns#"
   xmlns:svg="http://www.w3.org/2000/svg"
   xmlns="http://www.w3.org/2000/svg"
   xmlns:sodipodi="http://sodipodi.sourceforge.net/DTD/sodipodi-0.dtd"
   xmlns:inkscape="http://www.inkscape.org/namespaces/inkscape"
   width="7.9in"
   height="4.2in"
   viewBox="2871 3981 9446 5011"
   id="svg2"
   version="1.1"
   inkscape:version="0.91 r13725"
   sodipodi:docname="fig_farbeModellFaltungUngleich.svg">
  <metadata
     id="metadata80">
    <rdf:RDF>
      <cc:Work
         rdf:about="">
        <dc:format>image/svg+xml</dc:format>
        <dc:type
           rdf:resource="http://purl.org/dc/dcmitype/StillImage" />
      </cc:Work>
    </rdf:RDF>
  </metadata>
  <defs
     id="defs78" />
  <sodipodi:namedview
     pagecolor="#ffffff"
     bordercolor="#666666"
     borderopacity="1"
     objecttolerance="10"
     gridtolerance="10"
     guidetolerance="10"
     inkscape:pageopacity="0"
     inkscape:pageshadow="2"
     inkscape:window-width="2418"
     inkscape:window-height="1261"
     id="namedview76"
     showgrid="false"
     inkscape:zoom="1.2486773"
     inkscape:cx="380.89916"
     inkscape:cy="180.08424"
     inkscape:window-x="142"
     inkscape:window-y="60"
     inkscape:window-maximized="1"
     inkscape:current-layer="svg2" />
  <polyline
     id="polyline6"
     style="fill:none;stroke:#b000b0;stroke-width:32;stroke-linecap:butt;stroke-linejoin:miter"
     points="10393,7795 10393,8267 " />
  <polyline
     id="polyline8"
     style="fill:none;stroke:#ff0000;stroke-width:32;stroke-linecap:butt;stroke-linejoin:miter"
     points="4440,7795 4440,8267 " />
  <polyline
     id="polyline10"
     style="fill:none;stroke:#ffd600;stroke-width:32;stroke-linecap:butt;stroke-linejoin:miter"
     points="5480,7795 5480,8267 " />
  <polyline
     id="polyline12"
     style="fill:none;stroke:#0000ff;stroke-width:32;stroke-linecap:butt;stroke-linejoin:miter"
     points="8362,7795 8362,8267 " />
  <polyline
     id="polyline14"
     style="fill:none;stroke:#00b000;stroke-width:32;stroke-linecap:butt;stroke-linejoin:miter"
     points="6755,7795 6755,8267 " />
  <polyline
     id="polyline16"
     style="fill:none;stroke:#000000;stroke-width:32;stroke-linecap:butt;stroke-linejoin:miter"
     points="3543,8031 12094,8031 " />
  <polygon
     id="polygon18"
     style="fill:#000000;stroke:#000000;stroke-width:32;stroke-miterlimit:8"
     points="12139,7984 12092,8031 12139,8078 12139,8078 12281,8031 " />
  <polyline
     id="polyline20"
     style="fill:none;stroke:#000000;stroke-width:32;stroke-linecap:butt;stroke-linejoin:miter"
     points="3543,8031 3543,4203 " />
  <polygon
     id="polygon22"
     style="fill:#000000;stroke:#000000;stroke-width:32;stroke-miterlimit:8"
     points="3496,4159 3543,4206 3590,4159 3590,4159 3543,4017 " />
  <polyline
     id="polyline24"
     style="fill:none;stroke:#ff0000;stroke-width:63;stroke-linecap:butt;stroke-linejoin:bevel"
     points="3590,7937 3592,7934 3596,7929 3604,7921 3612,7909 3623,7895 3634,7879 3645,7863 3655,7846 3665,7829 3674,7812 3682,7792 3691,7771 3700,7748 3706,7734 3711,7719 3716,7703 3721,7687 3728,7669 3734,7649 3740,7629 3746,7606 3753,7583 3760,7556 3766,7530 3774,7502 3781,7472 3788,7441 3796,7408 3803,7375 3811,7341 3818,7306 3825,7269 3833,7232 3840,7194 3846,7155 3854,7116 3860,7076 3867,7035 3874,6992 3879,6960 3883,6928 3888,6894 3892,6859 3898,6824 3903,6788 3908,6750 3913,6711 3919,6672 3924,6632 3929,6591 3934,6549 3940,6506 3946,6462 3951,6418 3956,6374 3963,6330 3968,6285 3973,6241 3980,6196 3985,6152 3990,6109 3996,6066 4002,6024 4007,5982 4012,5941 4017,5901 4023,5862 4028,5824 4033,5787 4038,5753 4044,5718 4048,5685 4053,5652 4057,5620 4062,5590 4069,5549 4076,5509 4082,5471 4090,5434 4097,5398 4103,5362 4112,5328 4119,5294 4127,5261 4135,5229 4142,5198 4151,5169 4159,5141 4167,5114 4176,5089 4184,5065 4193,5042 4201,5021 4209,5001 4218,4983 4226,4966 4235,4951 4243,4936 4250,4922 4259,4909 4267,4897 4280,4881 4292,4866 4305,4852 4319,4838 4333,4826 4348,4814 4364,4804 4380,4795 4395,4787 4412,4780 4428,4773 4444,4768 4460,4764 4476,4761 4491,4759 4506,4756 4520,4755 4535,4755 4550,4755 4564,4756 4579,4759 4594,4761 4609,4764 4626,4768 4642,4774 4658,4781 4675,4789 4690,4797 4706,4808 4722,4819 4737,4832 4751,4847 4765,4861 4777,4877 4790,4894 4803,4913 4811,4927 4819,4941 4828,4957 4835,4974 4844,4992 4852,5011 4860,5030 4869,5053 4878,5076 4887,5100 4895,5125 4904,5152 4913,5180 4921,5209 4931,5238 4939,5269 4948,5300 4957,5333 4965,5364 4974,5398 4982,5432 4991,5465 4998,5500 5006,5534 5015,5570 5023,5606 5029,5634 5036,5664 5043,5693 5049,5723 5057,5755 5063,5787 5070,5821 5078,5855 5086,5890 5093,5926 5101,5963 5109,6001 5118,6038 5126,6078 5134,6117 5143,6157 5151,6197 5160,6238 5168,6278 5177,6319 5186,6359 5194,6398 5203,6437 5211,6476 5219,6515 5228,6553 5236,6591 5245,6627 5252,6663 5260,6699 5268,6733 5275,6767 5283,6801 5291,6834 5299,6872 5309,6909 5317,6945 5325,6983 5335,7020 5344,7057 5353,7095 5362,7131 5372,7169 5382,7206 5392,7243 5401,7279 5411,7316 5421,7352 5430,7386 5440,7421 5449,7454 5459,7486 5468,7518 5478,7548 5487,7576 5496,7604 5504,7630 5512,7655 5521,7679 5528,7701 5537,7722 5544,7742 5551,7761 5559,7779 5570,7806 5583,7833 5594,7856 5607,7878 5618,7898 5631,7916 5645,7932 5657,7947 5671,7960 5685,7971 5698,7981 5712,7989 5725,7996 5739,8002 5753,8006 5766,8010 5780,8013 5795,8015 5812,8017 5828,8020 5847,8023 5867,8024 5887,8026 5909,8027 5931,8028 5954,8029 5977,8030 6001,8030 6023,8031 6045,8031 6066,8031 6087,8031 6107,8031 6125,8031 6144,8031 6163,8031 6182,8031 6202,8031 6222,8031 6243,8031 6264,8031 6285,8031 6307,8031 6328,8031 6350,8031 6371,8031 6392,8031 6414,8031 6435,8031 6456,8031 6474,8031 6492,8031 6511,8031 6532,8031 6554,8031 6578,8031 6604,8031 6633,8031 6664,8031 6697,8031 6730,8031 6765,8031 6797,8031 6828,8031 6853,8031 6873,8031 6886,8031 6894,8031 6897,8031 " />
  <polyline
     id="polyline26"
     style="fill:none;stroke:#ffd600;stroke-width:63;stroke-linecap:butt;stroke-linejoin:bevel"
     points="3968,7937 3971,7934 3977,7931 3988,7925 4005,7916 4026,7904 4050,7888 4077,7871 4107,7854 4135,7835 4163,7816 4191,7797 4216,7779 4240,7760 4262,7741 4283,7722 4303,7702 4323,7682 4343,7660 4362,7637 4374,7622 4388,7604 4402,7586 4415,7568 4429,7548 4443,7527 4457,7505 4472,7482 4487,7458 4502,7433 4517,7406 4533,7379 4549,7351 4564,7322 4580,7292 4596,7260 4612,7229 4626,7197 4642,7165 4657,7131 4671,7098 4685,7064 4699,7030 4712,6996 4726,6962 4739,6928 4751,6893 4764,6858 4775,6823 4787,6787 4797,6754 4807,6722 4817,6688 4827,6655 4837,6620 4847,6584 4856,6548 4867,6511 4876,6473 4887,6434 4896,6395 4907,6355 4916,6316 4927,6276 4936,6235 4946,6195 4956,6154 4965,6114 4975,6075 4984,6035 4994,5997 5003,5960 5013,5923 5021,5887 5029,5853 5038,5819 5046,5785 5055,5755 5063,5724 5071,5695 5079,5668 5086,5640 5095,5615 5102,5590 5112,5556 5124,5525 5134,5495 5146,5466 5158,5438 5169,5412 5182,5386 5193,5362 5206,5340 5218,5319 5231,5299 5244,5280 5256,5264 5269,5249 5281,5234 5294,5222 5306,5211 5318,5202 5330,5192 5341,5185 5353,5179 5363,5173 5375,5169 5385,5165 5400,5161 5415,5158 5429,5155 5445,5153 5461,5153 5477,5154 5493,5155 5510,5159 5527,5162 5544,5167 5561,5172 5577,5179 5593,5186 5609,5193 5625,5201 5639,5210 5654,5218 5669,5228 5680,5236 5693,5245 5704,5254 5717,5264 5730,5275 5742,5287 5756,5300 5770,5315 5783,5331 5797,5348 5811,5366 5824,5386 5838,5407 5851,5430 5865,5454 5879,5479 5891,5505 5904,5531 5917,5560 5928,5589 5941,5620 5952,5653 5961,5676 5969,5701 5976,5727 5985,5753 5993,5781 6002,5809 6011,5840 6019,5871 6029,5903 6037,5937 6047,5971 6056,6007 6066,6043 6075,6079 6085,6116 6094,6154 6103,6193 6113,6230 6122,6269 6132,6307 6141,6345 6151,6383 6159,6419 6169,6456 6177,6492 6186,6527 6195,6561 6203,6595 6212,6628 6219,6661 6227,6692 6236,6724 6245,6760 6255,6794 6264,6829 6274,6864 6283,6898 6293,6933 6304,6967 6314,7002 6325,7037 6335,7070 6347,7105 6359,7139 6370,7171 6382,7204 6393,7235 6406,7267 6417,7297 6430,7327 6441,7354 6454,7381 6466,7407 6478,7432 6490,7456 6502,7478 6514,7500 6527,7520 6538,7540 6551,7559 6566,7582 6583,7604 6600,7626 6618,7647 6636,7667 6655,7687 6675,7707 6695,7725 6716,7743 6737,7761 6758,7777 6779,7793 6801,7808 6822,7822 6843,7836 6862,7847 6882,7859 6902,7869 6921,7879 6940,7888 6958,7897 6976,7905 6998,7914 7019,7923 7041,7932 7063,7941 7085,7948 7108,7956 7131,7964 7155,7970 7179,7977 7202,7984 7225,7989 7247,7994 7269,7998 7290,8003 7311,8007 7331,8010 7351,8013 7370,8015 7388,8017 7408,8019 7428,8022 7449,8023 7470,8025 7491,8026 7513,8027 7537,8028 7559,8029 7581,8030 7604,8030 7626,8030 7647,8031 7668,8031 7689,8031 7709,8031 7729,8031 7748,8031 7766,8031 7786,8031 7806,8031 7827,8031 7848,8031 7869,8031 7891,8031 7914,8031 7937,8031 7959,8031 7982,8031 8004,8031 8025,8031 8046,8031 8067,8031 8087,8031 8107,8031 8125,8031 8144,8031 8164,8031 8184,8031 8205,8031 8228,8031 8253,8031 8280,8031 8308,8031 8339,8031 8370,8031 8402,8031 8431,8031 8456,8031 8477,8031 8491,8031 8499,8031 8503,8031 " />
  <polyline
     id="polyline28"
     style="fill:none;stroke:#00b000;stroke-width:63;stroke-linecap:butt;stroke-linejoin:bevel"
     points="5763,8031 5764,8031 5767,8029 5776,8026 5791,8020 5811,8012 5834,8002 5860,7989 5887,7976 5912,7963 5937,7949 5959,7937 5979,7922 5996,7908 6014,7892 6030,7876 6047,7858 6057,7845 6069,7830 6079,7816 6091,7800 6102,7783 6114,7764 6125,7744 6137,7723 6149,7701 6160,7677 6173,7653 6184,7627 6196,7600 6207,7572 6218,7543 6228,7513 6239,7484 6248,7454 6258,7422 6267,7391 6276,7359 6284,7327 6291,7293 6299,7259 6304,7233 6309,7207 6314,7180 6320,7151 6324,7122 6329,7091 6334,7060 6339,7027 6344,6995 6348,6960 6352,6925 6358,6889 6362,6852 6366,6814 6371,6776 6375,6738 6380,6699 6384,6660 6388,6620 6392,6581 6396,6541 6401,6502 6405,6462 6409,6424 6413,6386 6416,6347 6420,6310 6425,6272 6429,6236 6432,6199 6436,6162 6440,6125 6445,6089 6449,6052 6453,6015 6457,5977 6462,5940 6467,5901 6472,5862 6476,5822 6481,5782 6487,5742 6492,5701 6497,5660 6502,5619 6508,5579 6514,5538 6519,5498 6524,5457 6531,5418 6536,5378 6541,5340 6546,5302 6552,5267 6557,5231 6562,5196 6566,5163 6572,5131 6576,5100 6581,5070 6585,5041 6590,5014 6594,4986 6598,4960 6604,4923 6609,4888 6615,4853 6621,4820 6626,4787 6632,4755 6637,4724 6643,4693 6648,4664 6654,4636 6659,4608 6664,4582 6669,4558 6674,4534 6679,4512 6683,4492 6687,4472 6692,4454 6697,4437 6700,4422 6704,4407 6708,4393 6714,4372 6721,4352 6727,4332 6734,4313 6742,4296 6749,4279 6758,4262 6766,4247 6774,4235 6783,4222 6792,4212 6801,4203 6809,4195 6818,4188 6828,4183 6838,4178 6849,4174 6860,4171 6872,4167 6885,4166 6897,4165 6910,4166 6922,4167 6934,4171 6945,4174 6956,4178 6966,4183 6976,4188 6985,4195 6994,4203 7002,4212 7012,4222 7020,4235 7028,4247 7037,4262 7045,4279 7053,4296 7060,4313 7067,4332 7074,4352 7080,4372 7086,4393 7090,4407 7095,4423 7098,4437 7102,4455 7107,4473 7111,4492 7116,4513 7121,4535 7125,4559 7130,4584 7135,4611 7141,4639 7146,4667 7151,4698 7158,4729 7163,4762 7168,4795 7173,4829 7180,4865 7185,4900 7190,4937 7196,4976 7201,5002 7204,5028 7208,5056 7212,5085 7216,5114 7222,5145 7226,5176 7230,5209 7235,5244 7240,5278 7245,5314 7250,5352 7255,5390 7260,5428 7267,5468 7272,5508 7277,5549 7282,5590 7289,5632 7294,5673 7300,5715 7306,5757 7311,5799 7317,5840 7322,5881 7328,5922 7333,5963 7338,6003 7343,6043 7349,6081 7354,6120 7359,6159 7364,6198 7370,6236 7375,6274 7380,6312 7385,6351 7391,6390 7396,6429 7401,6469 7406,6509 7412,6549 7418,6590 7423,6630 7429,6671 7435,6713 7441,6754 7447,6795 7454,6837 7460,6878 7466,6918 7472,6958 7479,6998 7485,7036 7492,7074 7499,7110 7505,7146 7511,7181 7518,7214 7524,7247 7530,7278 7537,7308 7543,7337 7549,7364 7555,7391 7562,7417 7568,7441 7574,7464 7584,7499 7594,7531 7605,7563 7616,7592 7628,7620 7639,7648 7652,7674 7665,7698 7677,7721 7691,7743 7704,7764 7718,7783 7733,7801 7746,7817 7761,7832 7775,7845 7790,7858 7803,7869 7817,7879 7830,7888 7844,7897 7858,7905 7875,7914 7892,7923 7910,7932 7929,7941 7949,7948 7969,7956 7990,7964 8011,7970 8033,7977 8055,7984 8077,7989 8098,7994 8120,7998 8141,8003 8161,8007 8181,8010 8201,8013 8220,8015 8239,8017 8259,8019 8279,8022 8300,8023 8321,8025 8342,8026 8364,8027 8387,8028 8409,8029 8431,8030 8454,8030 8476,8030 8497,8031 8518,8031 8539,8031 8559,8031 8579,8031 8598,8031 8617,8031 8637,8031 8657,8031 8678,8031 8699,8031 8720,8031 8742,8031 8765,8031 8787,8031 8809,8031 8832,8031 8854,8031 8875,8031 8896,8031 8917,8031 8937,8031 8957,8031 8976,8031 8995,8031 9015,8031 9035,8031 9056,8031 9079,8031 9103,8031 9130,8031 9159,8031 9189,8031 9220,8031 9252,8031 9281,8031 9307,8031 9328,8031 9341,8031 9350,8031 9354,8031 " />
  <polyline
     id="polyline30"
     style="fill:none;stroke:#0000ff;stroke-width:63;stroke-linecap:butt;stroke-linejoin:bevel"
     points="6236,8031 6239,8030 6245,8027 6256,8020 6272,8012 6293,8002 6318,7988 6345,7974 6374,7959 6403,7943 6431,7928 6458,7913 6483,7899 6508,7886 6530,7872 6551,7860 6571,7848 6591,7836 6611,7823 6629,7811 6646,7800 6662,7788 6680,7776 6697,7763 6714,7751 6733,7737 6752,7722 6771,7708 6791,7692 6811,7675 6831,7657 6852,7640 6873,7622 6893,7603 6914,7584 6934,7565 6955,7545 6974,7525 6994,7505 7013,7484 7032,7464 7049,7443 7068,7422 7086,7401 7102,7382 7118,7363 7133,7343 7149,7322 7165,7301 7182,7279 7198,7256 7215,7232 7232,7208 7250,7183 7267,7158 7285,7131 7302,7104 7320,7078 7338,7050 7355,7023 7373,6995 7390,6967 7406,6940 7423,6913 7439,6887 7455,6860 7470,6834 7485,6808 7500,6783 7514,6758 7529,6733 7543,6708 7558,6682 7572,6655 7588,6627 7603,6600 7618,6573 7633,6544 7649,6515 7665,6487 7680,6457 7696,6428 7712,6397 7728,6368 7743,6339 7759,6310 7774,6281 7790,6253 7804,6225 7819,6199 7833,6173 7846,6148 7860,6123 7872,6100 7885,6078 7897,6056 7909,6035 7921,6015 7935,5990 7951,5965 7966,5940 7982,5917 7997,5892 8013,5869 8030,5847 8047,5825 8064,5804 8080,5785 8098,5766 8115,5750 8132,5734 8150,5720 8166,5708 8183,5697 8200,5688 8218,5680 8235,5674 8251,5669 8271,5665 8291,5662 8312,5661 8334,5661 8358,5664 8381,5667 8405,5672 8429,5678 8454,5687 8478,5695 8502,5706 8525,5716 8549,5728 8570,5740 8591,5754 8609,5766 8628,5780 8645,5795 8660,5808 8675,5822 8688,5837 8703,5851 8717,5868 8730,5886 8744,5904 8758,5924 8771,5944 8785,5965 8798,5987 8811,6010 8825,6033 8837,6056 8850,6080 8862,6104 8875,6129 8888,6154 8900,6179 8913,6204 8923,6224 8934,6245 8944,6267 8956,6289 8967,6312 8980,6337 8993,6362 9005,6388 9020,6414 9034,6441 9048,6470 9064,6499 9079,6528 9095,6557 9111,6586 9127,6617 9144,6646 9160,6676 9176,6704 9192,6733 9209,6762 9226,6789 9241,6816 9258,6844 9274,6871 9291,6897 9307,6922 9322,6946 9338,6972 9355,6997 9373,7023 9391,7049 9408,7076 9427,7102 9446,7129 9466,7156 9486,7183 9507,7210 9528,7237 9549,7265 9571,7291 9592,7317 9614,7342 9635,7367 9657,7392 9678,7415 9699,7438 9720,7460 9741,7481 9761,7501 9782,7521 9802,7539 9822,7558 9842,7574 9865,7594 9889,7613 9913,7631 9939,7649 9964,7667 9990,7685 10016,7701 10044,7718 10071,7734 10099,7750 10127,7765 10155,7779 10183,7794 10211,7807 10238,7820 10265,7832 10291,7843 10317,7854 10342,7864 10366,7872 10389,7882 10412,7890 10434,7898 10456,7905 10479,7912 10503,7920 10527,7927 10550,7934 10574,7941 10598,7948 10622,7954 10647,7961 10671,7966 10697,7972 10722,7977 10747,7983 10771,7987 10795,7991 10819,7995 10843,8000 10866,8003 10889,8006 10911,8008 10933,8011 10954,8013 10976,8015 10998,8017 11020,8018 11042,8020 11065,8022 11089,8024 11113,8025 11139,8026 11164,8027 11190,8028 11215,8028 11241,8029 11268,8029 11293,8030 11318,8030 11342,8030 11366,8031 11390,8031 11413,8031 11435,8031 11456,8031 11476,8031 11496,8031 11520,8031 11543,8031 11567,8031 11591,8031 11616,8031 11644,8031 11672,8031 11702,8031 11735,8031 11767,8031 11800,8031 11830,8031 11857,8031 11878,8031 11892,8031 11901,8031 11905,8031 " />
  <polyline
     id="polyline32"
     style="fill:none;stroke:#b000b0;stroke-width:63;stroke-linecap:butt;stroke-linejoin:bevel"
     points="7275,8031 7278,8031 7283,8030 7294,8029 7311,8026 7333,8023 7361,8019 7394,8014 7432,8009 7471,8004 7513,7997 7556,7991 7600,7985 7640,7977 7680,7971 7718,7966 7754,7960 7786,7953 7818,7947 7848,7942 7876,7935 7902,7930 7928,7924 7952,7918 7976,7911 8000,7905 8025,7898 8050,7890 8075,7882 8100,7874 8125,7864 8152,7855 8178,7844 8204,7834 8232,7822 8258,7811 8285,7799 8312,7786 8340,7773 8366,7760 8392,7746 8418,7733 8445,7719 8470,7706 8495,7692 8519,7678 8543,7664 8566,7650 8591,7636 8614,7622 8636,7608 8658,7594 8680,7580 8703,7565 8726,7550 8750,7534 8774,7518 8800,7501 8825,7483 8851,7465 8877,7446 8904,7427 8931,7408 8958,7388 8984,7369 9012,7349 9038,7329 9064,7309 9089,7288 9116,7268 9140,7248 9165,7228 9189,7209 9212,7189 9236,7169 9259,7149 9281,7130 9302,7111 9324,7092 9346,7072 9370,7051 9393,7032 9416,7009 9439,6988 9462,6965 9486,6943 9510,6920 9533,6897 9558,6873 9582,6850 9605,6827 9628,6803 9650,6780 9673,6756 9694,6734 9715,6711 9735,6690 9755,6668 9774,6648 9792,6627 9809,6607 9826,6588 9842,6570 9858,6551 9877,6528 9896,6503 9914,6480 9932,6457 9951,6434 9969,6410 9987,6387 10005,6363 10022,6340 10039,6317 10056,6293 10073,6271 10089,6250 10104,6229 10120,6209 10136,6191 10151,6172 10164,6155 10179,6138 10193,6122 10206,6108 10220,6094 10237,6077 10255,6061 10272,6047 10291,6031 10311,6017 10331,6004 10352,5991 10373,5979 10395,5968 10417,5958 10439,5949 10460,5941 10482,5934 10503,5929 10523,5926 10543,5923 10563,5921 10582,5921 10601,5922 10621,5923 10641,5926 10661,5930 10682,5935 10704,5942 10725,5950 10747,5959 10769,5970 10791,5982 10812,5994 10833,6009 10853,6024 10873,6039 10892,6056 10910,6073 10928,6091 10944,6110 10957,6124 10970,6140 10982,6156 10995,6174 11007,6192 11020,6211 11034,6232 11046,6253 11060,6275 11074,6299 11086,6323 11100,6348 11112,6373 11126,6400 11139,6427 11151,6454 11164,6481 11176,6509 11188,6536 11200,6564 11211,6592 11222,6620 11233,6648 11244,6677 11254,6704 11264,6731 11274,6760 11285,6789 11295,6818 11306,6849 11316,6880 11327,6913 11338,6945 11350,6979 11360,7013 11372,7046 11383,7080 11395,7113 11405,7146 11416,7179 11427,7210 11438,7241 11447,7271 11458,7299 11467,7328 11477,7354 11485,7379 11495,7403 11503,7426 11511,7448 11522,7476 11532,7502 11544,7527 11554,7552 11565,7575 11575,7598 11587,7622 11597,7643 11609,7664 11619,7682 11630,7701 11640,7719 11651,7736 11661,7752 11671,7765 11680,7779 11690,7792 11698,7804 11708,7816 11716,7826 11727,7840 11738,7853 11750,7866 11762,7880 11775,7896 11790,7911 11805,7928 11823,7946 11840,7965 11858,7983 11874,8000 11887,8013 11897,8023 11902,8028 11905,8031 " />
  <text
     style="font-style:normal;font-variant:normal;font-weight:normal;font-stretch:normal;font-size:378.006073px;line-height:125%;font-family:sans-serif;-inkscape-font-specification:'sans-serif, Normal';text-align:center;writing-mode:lr-tb;text-anchor:middle;fill:#b000b0;stroke-width:0.025in"
     id="text36"
     font-size="378"
     font-weight="normal"
     font-style="normal"
     y="8834"
     x="10440"
     xml:space="preserve"
     sodipodi:linespacing="125%">$λ₅$</text>
  <text
     style="font-style:normal;font-variant:normal;font-weight:normal;font-stretch:normal;font-size:378.006073px;line-height:125%;font-family:sans-serif;-inkscape-font-specification:'sans-serif, Normal';text-align:end;writing-mode:lr-tb;text-anchor:end;fill:#000000;stroke-width:0.025in"
     id="text38"
     font-size="378"
     font-weight="bold"
     font-style="italic"
     y="4488"
     x="3307"
     xml:space="preserve"
     sodipodi:linespacing="125%">$G$</text>
  <text
     style="font-style:normal;font-variant:normal;font-weight:normal;font-stretch:normal;font-size:378.006073px;line-height:125%;font-family:sans-serif;-inkscape-font-specification:'sans-serif, Normal';text-align:center;writing-mode:lr-tb;text-anchor:middle;fill:#ff0000;stroke-width:0.025in"
     id="text40"
     font-size="378"
     font-weight="bold"
     font-style="italic"
     y="4535"
     x="4440"
     xml:space="preserve"
     sodipodi:linespacing="125%">$G₁$</text>
  <text
     style="font-style:normal;font-variant:normal;font-weight:normal;font-stretch:normal;font-size:378.006073px;line-height:125%;font-family:sans-serif;-inkscape-font-specification:'sans-serif, Normal';text-align:center;writing-mode:lr-tb;text-anchor:middle;fill:#ffd600;stroke-width:0.025in"
     id="text44"
     font-size="378"
     font-weight="bold"
     font-style="italic"
     y="4818"
     x="5527"
     xml:space="preserve"
     sodipodi:linespacing="125%">$G₂$</text>
  <text
     style="font-style:normal;font-variant:normal;font-weight:normal;font-stretch:normal;font-size:378.006073px;line-height:125%;font-family:sans-serif;-inkscape-font-specification:'sans-serif, Normal';text-align:center;writing-mode:lr-tb;text-anchor:middle;fill:#00b000;stroke-width:0.025in"
     id="text48"
     font-size="378"
     font-weight="bold"
     font-style="italic"
     y="4582"
     x="7653"
     xml:space="preserve"
     sodipodi:linespacing="125%">$G₃$</text>
  <text
     style="font-style:normal;font-variant:normal;font-weight:normal;font-stretch:normal;font-size:378.006073px;line-height:125%;font-family:sans-serif;-inkscape-font-specification:'sans-serif, Normal';text-align:center;writing-mode:lr-tb;text-anchor:middle;fill:#0000ff;stroke-width:0.025in"
     id="text52"
     font-size="378"
     font-weight="bold"
     font-style="italic"
     y="5433"
     x="8645"
     xml:space="preserve"
     sodipodi:linespacing="125%">$G₄$</text>
  <text
     style="font-style:normal;font-variant:normal;font-weight:normal;font-stretch:normal;font-size:378.006073px;line-height:125%;font-family:sans-serif;-inkscape-font-specification:'sans-serif, Normal';text-align:center;writing-mode:lr-tb;text-anchor:middle;fill:#b000b0;stroke-width:0.025in"
     id="text56"
     font-size="378"
     font-weight="bold"
     font-style="italic"
     y="5669"
     x="10582"
     xml:space="preserve"
     sodipodi:linespacing="125%">$G₅$</text>
  <text
     style="font-style:normal;font-variant:normal;font-weight:normal;font-stretch:normal;font-size:378.006073px;line-height:125%;font-family:sans-serif;-inkscape-font-specification:'sans-serif, Normal';text-align:center;writing-mode:lr-tb;text-anchor:middle;fill:#0000ff;stroke-width:0.025in"
     id="text60"
     font-size="378"
     font-weight="normal"
     font-style="normal"
     y="8834"
     x="8409"
     xml:space="preserve"
     sodipodi:linespacing="125%">$λ₄$</text>
  <text
     style="font-style:normal;font-variant:normal;font-weight:normal;font-stretch:normal;font-size:378.006073px;line-height:125%;font-family:sans-serif;-inkscape-font-specification:'sans-serif, Normal';text-align:center;writing-mode:lr-tb;text-anchor:middle;fill:#00b000;stroke-width:0.025in"
     id="text64"
     font-size="378"
     font-weight="normal"
     font-style="normal"
     y="8834"
     x="6803"
     xml:space="preserve"
     sodipodi:linespacing="125%">$λ₃$</text>
  <text
     style="font-style:normal;font-variant:normal;font-weight:normal;font-stretch:normal;font-size:378.006073px;line-height:125%;font-family:sans-serif;-inkscape-font-specification:'sans-serif, Normal';text-align:center;writing-mode:lr-tb;text-anchor:middle;fill:#ffd600;stroke-width:0.025in"
     id="text68"
     font-size="378"
     font-weight="normal"
     font-style="normal"
     y="8834"
     x="5527"
     xml:space="preserve"
     sodipodi:linespacing="125%">$λ₂$</text>
  <text
     style="font-style:normal;font-variant:normal;font-weight:normal;font-stretch:normal;font-size:378.006073px;line-height:125%;font-family:sans-serif;-inkscape-font-specification:'sans-serif, Normal';text-align:center;writing-mode:lr-tb;text-anchor:middle;fill:#ff0000;stroke-width:0.025in"
     id="text72"
     font-size="378"
     font-weight="normal"
     font-style="normal"
     y="8834"
     x="4488"
     xml:space="preserve"
     sodipodi:linespacing="125%">$λ₁$</text>
</svg>
