<?xml version="1.0" encoding="UTF-8" standalone="no"?>
<!-- Creator: fig2dev Version 3.2 Patchlevel 5e -->

<!-- CreationDate: Wed Nov 18 15:11:43 2015 -->

<!-- Magnification: 1.050 -->

<svg
   xmlns:dc="http://purl.org/dc/elements/1.1/"
   xmlns:cc="http://creativecommons.org/ns#"
   xmlns:rdf="http://www.w3.org/1999/02/22-rdf-syntax-ns#"
   xmlns:svg="http://www.w3.org/2000/svg"
   xmlns="http://www.w3.org/2000/svg"
   xmlns:sodipodi="http://sodipodi.sourceforge.net/DTD/sodipodi-0.dtd"
   xmlns:inkscape="http://www.inkscape.org/namespaces/inkscape"
   width="15.6in"
   height="5.4in"
   viewBox="-1327 1833 18733 6450"
   id="svg2"
   version="1.1"
   inkscape:version="0.92.3 (2405546, 2018-03-11)"
   sodipodi:docname="fig_farbeRadiosityGatherShoot.svg">
  <metadata
     id="metadata74">
    <rdf:RDF>
      <cc:Work
         rdf:about="">
        <dc:format>image/svg+xml</dc:format>
        <dc:type
           rdf:resource="http://purl.org/dc/dcmitype/StillImage" />
      </cc:Work>
    </rdf:RDF>
  </metadata>
  <defs
     id="defs72" />
  <sodipodi:namedview
     pagecolor="#ffffff"
     bordercolor="#666666"
     borderopacity="1"
     objecttolerance="10"
     gridtolerance="10"
     guidetolerance="10"
     inkscape:pageopacity="0"
     inkscape:pageshadow="2"
     inkscape:window-width="2432"
     inkscape:window-height="1273"
     id="namedview70"
     showgrid="false"
     inkscape:zoom="1.2962963"
     inkscape:cx="605.09451"
     inkscape:cy="331.71669"
     inkscape:window-x="128"
     inkscape:window-y="60"
     inkscape:window-maximized="1"
     inkscape:current-layer="svg2" />
  <polygon
     id="polygon6"
     style="fill:none;stroke:#0000ff;stroke-width:63;stroke-linecap:butt;stroke-linejoin:round"
     points="13228,6377 12519,6850 11338,6850 11338,6850 12047,6377 " />
  <polygon
     id="polygon8"
     style="fill:none;stroke:#0000ff;stroke-width:63;stroke-linecap:butt;stroke-linejoin:round"
     points="11574,2834 10866,3307 9685,3307 9685,3307 10393,2834 " />
  <polygon
     id="polygon10"
     style="fill:none;stroke:#0000ff;stroke-width:63;stroke-linecap:butt;stroke-linejoin:round"
     points="13464,1889 12755,2362 11574,2362 11574,2362 12283,1889 " />
  <polygon
     id="polygon12"
     style="fill:none;stroke:#0000ff;stroke-width:63;stroke-linecap:butt;stroke-linejoin:round"
     points="15590,2125 14881,2598 13700,2598 13700,2598 14409,2125 " />
  <polygon
     id="polygon14"
     style="fill:none;stroke:#0000ff;stroke-width:63;stroke-linecap:butt;stroke-linejoin:round"
     points="16535,3307 15826,3779 14645,3779 14645,3779 15354,3307 " />
  <polyline
     id="polyline16"
     style="fill:none;stroke:#b000b0;stroke-width:63;stroke-linecap:butt;stroke-linejoin:round"
     points="11811,6141 10732,3771 " />
  <polygon
     id="polygon18"
     style="fill:#b000b0;stroke:#b000b0;stroke-width:63;stroke-miterlimit:8"
     points="10636,3749 10733,3774 10779,3683 10779,3683 10629,3545 " />
  <polyline
     id="polyline20"
     style="fill:none;stroke:#b000b0;stroke-width:63;stroke-linecap:butt;stroke-linejoin:round"
     points="12283,6141 12502,2848 " />
  <polygon
     id="polygon22"
     style="fill:#b000b0;stroke:#b000b0;stroke-width:63;stroke-miterlimit:8"
     points="12427,2784 12501,2852 12583,2794 12583,2794 12518,2601 " />
  <polyline
     id="polyline24"
     style="fill:none;stroke:#b000b0;stroke-width:63;stroke-linecap:butt;stroke-linejoin:round"
     points="12755,6141 14297,3059 " />
  <polygon
     id="polygon26"
     style="fill:#b000b0;stroke:#b000b0;stroke-width:63;stroke-miterlimit:8"
     points="14251,2970 14293,3061 14392,3040 14392,3040 14407,2836 " />
  <polyline
     id="polyline28"
     style="fill:none;stroke:#b000b0;stroke-width:63;stroke-linecap:butt;stroke-linejoin:round"
     points="13228,6141 15175,4193 " />
  <polygon
     id="polygon30"
     style="fill:#b000b0;stroke:#b000b0;stroke-width:63;stroke-miterlimit:8"
     points="15162,4094 15173,4194 15273,4205 15273,4205 15352,4016 " />
  <polygon
     id="polygon32"
     style="fill:none;stroke:#0000ff;stroke-width:63;stroke-linecap:butt;stroke-linejoin:round"
     points="5196,6377 4488,6850 3307,6850 3307,6850 4015,6377 " />
  <polygon
     id="polygon34"
     style="fill:none;stroke:#0000ff;stroke-width:63;stroke-linecap:butt;stroke-linejoin:round"
     points="3543,2834 2834,3307 1653,3307 1653,3307 2362,2834 " />
  <polygon
     id="polygon36"
     style="fill:none;stroke:#0000ff;stroke-width:63;stroke-linecap:butt;stroke-linejoin:round"
     points="5433,1889 4724,2362 3543,2362 3543,2362 4251,1889 " />
  <polygon
     id="polygon38"
     style="fill:none;stroke:#0000ff;stroke-width:63;stroke-linecap:butt;stroke-linejoin:round"
     points="7559,2125 6850,2598 5669,2598 5669,2598 6377,2125 " />
  <polygon
     id="polygon40"
     style="fill:none;stroke:#0000ff;stroke-width:63;stroke-linecap:butt;stroke-linejoin:round"
     points="8503,3307 7795,3779 6614,3779 6614,3779 7322,3307 " />
  <polyline
     id="polyline42"
     style="fill:none;stroke:#b000b0;stroke-width:63;stroke-linecap:butt;stroke-linejoin:round"
     points="2598,3543 3675,5912 " />
  <polygon
     id="polygon44"
     style="fill:#b000b0;stroke:#b000b0;stroke-width:63;stroke-miterlimit:8"
     points="3771,5933 3673,5908 3628,5998 3628,5998 3778,6138 " />
  <polyline
     id="polyline46"
     style="fill:none;stroke:#b000b0;stroke-width:63;stroke-linecap:butt;stroke-linejoin:round"
     points="4488,2598 4267,5890 " />
  <polygon
     id="polygon48"
     style="fill:#b000b0;stroke:#b000b0;stroke-width:63;stroke-miterlimit:8"
     points="4342,5953 4267,5885 4185,5943 4185,5943 4251,6137 " />
  <polyline
     id="polyline50"
     style="fill:none;stroke:#b000b0;stroke-width:63;stroke-linecap:butt;stroke-linejoin:round"
     points="6377,2834 4835,5916 " />
  <polygon
     id="polygon52"
     style="fill:#b000b0;stroke:#b000b0;stroke-width:63;stroke-miterlimit:8"
     points="4879,6004 4837,5912 4739,5933 4739,5933 4725,6138 " />
  <polyline
     id="polyline54"
     style="fill:none;stroke:#b000b0;stroke-width:63;stroke-linecap:butt;stroke-linejoin:round"
     points="7322,4015 5374,5963 " />
  <polygon
     id="polygon56"
     style="fill:#b000b0;stroke:#b000b0;stroke-width:63;stroke-miterlimit:8"
     points="5386,6060 5375,5961 5275,5949 5275,5949 5197,6139 " />
  <text
     style="font-style:normal;font-weight:normal;font-size:467px;line-height:0%;font-family:Times;text-anchor:start;fill:#b000b0;stroke-width:0.025in"
     id="text58"
     font-size="467"
     font-weight="normal"
     font-style="normal"
     y="5007"
     x="1181"
     xml:space="preserve">$ρ_j Fᵢⱼ Bⱼ$</text>
  <text
     style="font-style:normal;font-weight:normal;font-size:467px;line-height:0%;font-family:Times;text-anchor:middle;fill:#b000b0;stroke-width:0.025in"
     id="text60"
     font-size="467"
     font-weight="normal"
     font-style="normal"
     y="8267"
     x="4251"
     xml:space="preserve">Gather</text>
  <text
     style="font-style:normal;font-weight:normal;font-size:467px;line-height:0%;font-family:Times;text-anchor:end;fill:#0000ff;stroke-width:0.025in"
     id="text62"
     font-size="467"
     font-weight="normal"
     font-style="normal"
     y="7464"
     x="4535"
     xml:space="preserve">$\dd Aᵢ$</text>
  <text
     style="font-style:normal;font-weight:normal;font-size:467px;line-height:0%;font-family:Times;text-anchor:start;fill:#b000b0;stroke-width:0.025in"
     id="text64"
     font-size="467"
     font-weight="normal"
     font-style="normal"
     y="5244"
     x="10204"
     xml:space="preserve">$Δ$</text>
  <text
     style="font-style:normal;font-weight:normal;font-size:467px;line-height:0%;font-family:Times;text-anchor:end;fill:#0000ff;stroke-width:0.025in"
     id="text66"
     font-size="467"
     font-weight="normal"
     font-style="normal"
     y="7464"
     x="12566"
     xml:space="preserve">$\dd Aᵢ$</text>
  <text
     style="font-style:normal;font-weight:normal;font-size:467px;line-height:0%;font-family:Times;text-anchor:middle;fill:#b000b0;stroke-width:0.025in"
     id="text68"
     font-size="467"
     font-weight="normal"
     font-style="normal"
     y="8267"
     x="12283"
     xml:space="preserve">Shoot</text>
</svg>
