<?xml version="1.0" encoding="UTF-8" standalone="no"?>
<!-- Creator: fig2dev Version 3.2 Patchlevel 5e -->

<!-- CreationDate: Thu Nov 26 11:36:35 2015 -->

<!-- Magnification: 1.050 -->

<svg
   xmlns:dc="http://purl.org/dc/elements/1.1/"
   xmlns:cc="http://creativecommons.org/ns#"
   xmlns:rdf="http://www.w3.org/1999/02/22-rdf-syntax-ns#"
   xmlns:svg="http://www.w3.org/2000/svg"
   xmlns="http://www.w3.org/2000/svg"
   xmlns:sodipodi="http://sodipodi.sourceforge.net/DTD/sodipodi-0.dtd"
   xmlns:inkscape="http://www.inkscape.org/namespaces/inkscape"
   width="11.1in"
   height="4.8in"
   viewBox="2316 2079 13320 5761"
   id="svg2"
   version="1.1"
   inkscape:version="0.91 r13725"
   sodipodi:docname="fig_objekteVolumenZellraster.svg">
  <metadata
     id="metadata220">
    <rdf:RDF>
      <cc:Work
         rdf:about="">
        <dc:format>image/svg+xml</dc:format>
        <dc:type
           rdf:resource="http://purl.org/dc/dcmitype/StillImage" />
        <dc:title></dc:title>
      </cc:Work>
    </rdf:RDF>
  </metadata>
  <defs
     id="defs218" />
  <sodipodi:namedview
     pagecolor="#ffffff"
     bordercolor="#666666"
     borderopacity="1"
     objecttolerance="10"
     gridtolerance="10"
     guidetolerance="10"
     inkscape:pageopacity="0"
     inkscape:pageshadow="2"
     inkscape:window-width="2418"
     inkscape:window-height="1269"
     id="namedview216"
     showgrid="false"
     inkscape:zoom="1.2882225"
     inkscape:cx="513.35587"
     inkscape:cy="248.34673"
     inkscape:window-x="142"
     inkscape:window-y="60"
     inkscape:window-maximized="1"
     inkscape:current-layer="svg2" />
  <polygon
     id="polygon6"
     style="fill:#bfbfff;stroke:#0000ff;stroke-width:48;stroke-linecap:butt;stroke-linejoin:bevel"
     points="2746,5421 2737,5403 2726,5384 2716,5366 2705,5348 2693,5329 2682,5310 2671,5291 2660,5272 2649,5253 2639,5234 2628,5215 2620,5197 2612,5179 2603,5161 2597,5144 2591,5126 2584,5107 2579,5088 2575,5068 2571,5048 2567,5027 2565,5005 2563,4982 2562,4960 2562,4936 2563,4913 2565,4891 2567,4868 2571,4846 2575,4825 2579,4805 2585,4785 2591,4766 2598,4748 2605,4729 2614,4712 2623,4695 2634,4676 2644,4658 2656,4639 2668,4620 2681,4601 2693,4582 2706,4563 2720,4544 2732,4525 2744,4507 2755,4489 2766,4470 2776,4452 2786,4435 2795,4417 2803,4398 2810,4380 2817,4360 2824,4340 2829,4319 2834,4297 2838,4275 2843,4251 2845,4229 2847,4206 2847,4183 2847,4161 2846,4140 2844,4120 2840,4100 2836,4081 2832,4064 2827,4047 2819,4030 2812,4014 2804,3997 2794,3981 2785,3965 2773,3948 2762,3931 2750,3914 2738,3897 2725,3880 2712,3863 2700,3846 2688,3829 2677,3814 2666,3797 2656,3780 2646,3764 2638,3748 2629,3731 2622,3713 2615,3694 2608,3674 2602,3654 2597,3632 2593,3610 2590,3587 2586,3564 2584,3541 2583,3518 2583,3495 2583,3472 2584,3450 2586,3429 2590,3408 2594,3388 2598,3370 2603,3351 2609,3331 2616,3312 2623,3292 2632,3272 2641,3251 2650,3230 2660,3209 2670,3187 2680,3166 2690,3144 2700,3123 2709,3102 2719,3081 2726,3060 2734,3040 2741,3020 2748,3000 2752,2981 2758,2962 2762,2942 2766,2922 2770,2901 2774,2879 2779,2857 2783,2835 2788,2812 2792,2789 2797,2766 2803,2744 2809,2722 2815,2701 2822,2680 2829,2661 2837,2642 2846,2624 2855,2606 2866,2591 2877,2574 2890,2558 2903,2543 2918,2528 2934,2513 2952,2498 2970,2485 2990,2470 3009,2456 3029,2444 3050,2431 3071,2419 3092,2409 3113,2398 3134,2389 3154,2381 3173,2373 3192,2366 3210,2360 3228,2354 3249,2347 3270,2342 3292,2337 3313,2333 3334,2329 3356,2327 3377,2326 3399,2325 3420,2326 3441,2327 3462,2329 3482,2333 3502,2337 3521,2342 3540,2347 3559,2354 3575,2361 3593,2367 3611,2375 3630,2384 3650,2392 3670,2402 3690,2412 3712,2423 3733,2433 3755,2443 3776,2453 3797,2464 3818,2473 3838,2481 3858,2490 3877,2498 3895,2504 3913,2512 3931,2517 3949,2522 3968,2527 3987,2531 4006,2534 4026,2537 4046,2540 4067,2541 4088,2543 4108,2544 4129,2544 4150,2544 4170,2543 4190,2542 4209,2541 4228,2539 4248,2537 4267,2535 4286,2533 4306,2530 4327,2527 4348,2523 4370,2520 4393,2517 4416,2513 4439,2510 4462,2507 4487,2503 4510,2501 4533,2499 4555,2497 4576,2495 4596,2495 4616,2494 4635,2495 4654,2496 4669,2497 4685,2499 4701,2501 4717,2504 4732,2509 4747,2514 4763,2519 4776,2525 4791,2533 4804,2541 4816,2551 4828,2560 4839,2571 4849,2582 4857,2594 4864,2605 4870,2619 4875,2633 4878,2646 4881,2661 4883,2679 4883,2697 4883,2717 4881,2738 4879,2761 4876,2784 4872,2809 4868,2834 4864,2860 4858,2886 4854,2912 4849,2937 4845,2962 4841,2985 4838,3008 4836,3030 4834,3050 4834,3070 4834,3087 4836,3104 4838,3120 4841,3135 4846,3151 4851,3167 4857,3182 4865,3195 4873,3209 4883,3222 4894,3233 4906,3245 4918,3255 4931,3264 4944,3272 4959,3279 4975,3286 4990,3291 5006,3295 5023,3299 5041,3301 5060,3303 5080,3306 5100,3307 5122,3308 5145,3309 5169,3310 5193,3310 5217,3311 5243,3312 5268,3313 5292,3315 5316,3317 5339,3320 5361,3323 5382,3328 5403,3333 5422,3339 5440,3345 5457,3354 5472,3363 5487,3374 5501,3385 5514,3399 5527,3414 5540,3430 5550,3448 5561,3467 5569,3487 5577,3507 5584,3529 5589,3551 5593,3573 5596,3595 5598,3617 5598,3639 5598,3661 5596,3682 5594,3703 5590,3724 5585,3744 5580,3765 5572,3786 5565,3807 5555,3829 5546,3851 5535,3875 5524,3898 5512,3921 5500,3945 5488,3968 5476,3991 5463,4014 5451,4037 5440,4059 5429,4081 5419,4102 5409,4123 5401,4144 5394,4165 5386,4185 5379,4206 5374,4228 5369,4250 5363,4274 5360,4297 5357,4321 5354,4346 5352,4371 5351,4397 5351,4424 5352,4450 5353,4476 5354,4502 5357,4528 5360,4554 5363,4579 5367,4603 5373,4628 5378,4654 5382,4674 5387,4696 5393,4717 5399,4740 5404,4763 5412,4786 5418,4810 5425,4835 5432,4861 5439,4888 5446,4914 5454,4941 5461,4967 5468,4995 5476,5022 5482,5049 5488,5076 5493,5102 5500,5127 5504,5153 5509,5177 5512,5203 5517,5227 5520,5252 5522,5276 5524,5300 5525,5325 5526,5351 5526,5377 5526,5403 5525,5430 5524,5458 5522,5485 5519,5512 5516,5540 5511,5568 5507,5595 5502,5622 5497,5649 5490,5674 5484,5699 5477,5723 5469,5746 5461,5769 5453,5791 5444,5811 5435,5830 5425,5850 5414,5870 5402,5890 5390,5910 5376,5929 5362,5949 5346,5969 5332,5988 5315,6008 5298,6028 5281,6047 5264,6066 5247,6085 5229,6103 5211,6122 5194,6140 5177,6158 5161,6176 5145,6193 5129,6209 5114,6226 5100,6243 5086,6260 5072,6277 5059,6293 5045,6311 5033,6329 5019,6348 5005,6368 4991,6387 4977,6407 4962,6428 4948,6448 4932,6469 4917,6489 4901,6509 4886,6529 4870,6548 4854,6566 4838,6583 4823,6601 4806,6617 4790,6633 4773,6647 4755,6661 4738,6675 4719,6687 4699,6701 4678,6712 4656,6725 4634,6737 4611,6748 4585,6759 4561,6769 4536,6779 4510,6787 4485,6795 4459,6803 4434,6810 4410,6815 4386,6820 4363,6825 4340,6828 4319,6831 4298,6833 4279,6834 4260,6834 4237,6834 4215,6832 4194,6830 4172,6827 4151,6823 4130,6817 4109,6811 4089,6805 4068,6798 4048,6791 4029,6784 4009,6776 3991,6770 3973,6763 3955,6756 3939,6750 3922,6745 3905,6740 3888,6735 3870,6731 3853,6727 3834,6724 3815,6721 3795,6718 3774,6714 3753,6712 3732,6709 3711,6707 3690,6704 3669,6702 3649,6700 3630,6697 3611,6693 3593,6691 3575,6688 3559,6685 3542,6681 3525,6677 3508,6671 3492,6666 3476,6660 3460,6653 3444,6645 3428,6637 3414,6627 3401,6618 3388,6607 3377,6596 3367,6584 3358,6573 3352,6560 3345,6546 3341,6533 3338,6519 3336,6504 3336,6489 3336,6472 3338,6454 3340,6435 3343,6415 3346,6395 3351,6374 3355,6352 3359,6331 3363,6310 3367,6289 3371,6269 3374,6249 3376,6232 3378,6214 3378,6197 3378,6181 3376,6165 3373,6151 3369,6136 3363,6121 3356,6108 3349,6094 3339,6080 3330,6067 3318,6054 3307,6043 3294,6031 3280,6019 3267,6010 3253,6001 3239,5991 3225,5983 3211,5975 3196,5968 3180,5960 3163,5952 3145,5944 3127,5937 3108,5927 3089,5919 3069,5909 3050,5900 3030,5889 3013,5879 2995,5867 2978,5856 2961,5843 2946,5830 2934,5817 2921,5803 2910,5788 2900,5774 2891,5758 2881,5741 2872,5723 2862,5703 2854,5683 2845,5662 2836,5640 2828,5618 2819,5597 2811,5575 2804,5553 2795,5533 2788,5512 2780,5493 2771,5475 2764,5457 2764,5457 2754,5438 " />
  <polygon
     id="polygon8"
     style="fill:#bfbfff;stroke:#0000ff;stroke-width:48;stroke-linecap:butt;stroke-linejoin:bevel"
     points="6352,3708 6369,3700 6387,3694 6408,3687 6429,3679 6451,3673 6475,3666 6499,3658 6523,3651 6548,3644 6571,3636 6594,3628 6616,3620 6637,3611 6657,3603 6675,3592 6692,3583 6709,3571 6724,3559 6740,3545 6753,3530 6768,3516 6782,3499 6794,3481 6808,3463 6819,3444 6832,3425 6843,3405 6854,3386 6865,3369 6874,3350 6885,3332 6894,3315 6903,3299 6913,3283 6924,3266 6936,3249 6948,3231 6961,3214 6975,3197 6990,3182 7005,3166 7022,3150 7039,3135 7056,3122 7074,3109 7091,3098 7110,3087 7128,3078 7146,3069 7165,3063 7182,3057 7200,3051 7218,3047 7238,3043 7258,3040 7279,3038 7301,3036 7324,3035 7348,3034 7370,3035 7393,3036 7415,3038 7437,3040 7458,3043 7478,3047 7498,3051 7517,3057 7535,3063 7553,3069 7570,3076 7588,3084 7606,3093 7624,3103 7640,3114 7658,3126 7675,3140 7692,3153 7708,3168 7722,3184 7737,3200 7751,3216 7762,3234 7774,3251 7784,3270 7794,3288 7803,3307 7809,3324 7817,3342 7823,3362 7829,3382 7835,3403 7840,3425 7845,3448 7849,3472 7854,3496 7857,3521 7860,3545 7862,3569 7864,3592 7866,3616 7867,3638 7867,3660 7867,3681 7867,3701 7866,3721 7866,3740 7864,3760 7862,3780 7860,3799 7857,3819 7854,3839 7849,3859 7845,3879 7840,3899 7835,3919 7828,3939 7821,3958 7814,3977 7806,3996 7799,4014 7791,4032 7781,4051 7773,4068 7763,4087 7755,4102 7745,4119 7735,4137 7724,4155 7713,4174 7700,4193 7688,4213 7674,4233 7659,4253 7645,4272 7629,4293 7613,4313 7596,4332 7581,4351 7564,4369 7547,4387 7530,4404 7513,4419 7497,4434 7480,4449 7462,4462 7444,4475 7425,4489 7405,4501 7385,4514 7364,4527 7342,4538 7320,4550 7297,4561 7274,4572 7251,4581 7228,4591 7205,4599 7183,4606 7162,4614 7141,4620 7120,4625 7100,4629 7081,4634 7063,4638 7042,4641 7022,4643 7002,4645 6981,4646 6960,4647 6940,4647 6919,4646 6898,4644 6877,4642 6856,4639 6835,4635 6816,4630 6796,4625 6777,4619 6760,4613 6742,4605 6725,4598 6708,4591 6691,4581 6675,4572 6657,4561 6639,4550 6621,4538 6603,4524 6584,4511 6565,4496 6548,4480 6529,4464 6512,4448 6494,4431 6478,4414 6462,4397 6448,4381 6434,4364 6422,4347 6409,4330 6397,4313 6386,4296 6374,4278 6364,4259 6353,4240 6343,4220 6333,4199 6323,4178 6314,4157 6306,4136 6298,4115 6290,4094 6284,4074 6278,4055 6272,4036 6267,4018 6263,4001 6260,3984 6256,3965 6253,3946 6249,3927 6248,3908 6247,3889 6247,3870 6248,3853 6251,3834 6255,3817 6260,3800 6267,3784 6276,3770 6285,3757 6296,3744 6308,3734 6323,3724 6323,3724 6337,3716 " />
  <polyline
     id="polyline16"
     style="fill:none;stroke:#0000ff;stroke-width:48;stroke-linecap:butt;stroke-linejoin:miter"
     points="2362,2125 8031,2125 " />
  <polyline
     id="polyline18"
     style="fill:none;stroke:#0000ff;stroke-width:48;stroke-linecap:butt;stroke-linejoin:miter"
     points="2362,2834 8031,2834 " />
  <polyline
     id="polyline20"
     style="fill:none;stroke:#0000ff;stroke-width:48;stroke-linecap:butt;stroke-linejoin:miter"
     points="2362,3543 8031,3543 " />
  <polyline
     id="polyline22"
     style="fill:none;stroke:#0000ff;stroke-width:48;stroke-linecap:butt;stroke-linejoin:miter"
     points="2362,4251 8031,4251 " />
  <polyline
     id="polyline24"
     style="fill:none;stroke:#0000ff;stroke-width:48;stroke-linecap:butt;stroke-linejoin:miter"
     points="2362,4960 8031,4960 " />
  <polyline
     id="polyline26"
     style="fill:none;stroke:#0000ff;stroke-width:48;stroke-linecap:butt;stroke-linejoin:miter"
     points="2362,5669 8031,5669 " />
  <polyline
     id="polyline28"
     style="fill:none;stroke:#0000ff;stroke-width:48;stroke-linecap:butt;stroke-linejoin:miter"
     points="2362,6377 8031,6377 " />
  <polyline
     id="polyline30"
     style="fill:none;stroke:#0000ff;stroke-width:48;stroke-linecap:butt;stroke-linejoin:miter"
     points="2362,7086 8031,7086 " />
  <polyline
     id="polyline32"
     style="fill:none;stroke:#0000ff;stroke-width:48;stroke-linecap:butt;stroke-linejoin:miter"
     points="2362,7795 8031,7795 " />
  <polyline
     id="polyline34"
     style="fill:none;stroke:#0000ff;stroke-width:48;stroke-linecap:butt;stroke-linejoin:miter"
     points="2362,2125 2362,7795 " />
  <polyline
     id="polyline36"
     style="fill:none;stroke:#0000ff;stroke-width:48;stroke-linecap:butt;stroke-linejoin:miter"
     points="3070,2125 3070,7795 " />
  <polyline
     id="polyline38"
     style="fill:none;stroke:#0000ff;stroke-width:48;stroke-linecap:butt;stroke-linejoin:miter"
     points="4488,2125 4488,7795 " />
  <polyline
     id="polyline40"
     style="fill:none;stroke:#0000ff;stroke-width:48;stroke-linecap:butt;stroke-linejoin:miter"
     points="5196,2125 5196,7795 " />
  <polyline
     id="polyline42"
     style="fill:none;stroke:#0000ff;stroke-width:48;stroke-linecap:butt;stroke-linejoin:miter"
     points="5905,2125 5905,7795 " />
  <polyline
     id="polyline44"
     style="fill:none;stroke:#0000ff;stroke-width:48;stroke-linecap:butt;stroke-linejoin:miter"
     points="6614,2125 6614,7795 " />
  <polyline
     id="polyline46"
     style="fill:none;stroke:#0000ff;stroke-width:48;stroke-linecap:butt;stroke-linejoin:miter"
     points="7322,2125 7322,7795 " />
  <polyline
     id="polyline48"
     style="fill:none;stroke:#0000ff;stroke-width:48;stroke-linecap:butt;stroke-linejoin:miter"
     points="8031,2125 8031,7795 " />
  <polyline
     id="polyline50"
     style="fill:none;stroke:#0000ff;stroke-width:48;stroke-linecap:butt;stroke-linejoin:miter"
     points="3779,2125 3779,7795 " />
  <polyline
     id="polyline52"
     style="fill:none;stroke:#0000ff;stroke-width:48;stroke-linecap:butt;stroke-linejoin:miter"
     points="9921,2125 15590,2125 " />
  <polyline
     id="polyline54"
     style="fill:none;stroke:#0000ff;stroke-width:48;stroke-linecap:butt;stroke-linejoin:miter"
     points="9921,2834 15590,2834 " />
  <polyline
     id="polyline56"
     style="fill:none;stroke:#0000ff;stroke-width:48;stroke-linecap:butt;stroke-linejoin:miter"
     points="9921,3543 15590,3543 " />
  <polyline
     id="polyline58"
     style="fill:none;stroke:#0000ff;stroke-width:48;stroke-linecap:butt;stroke-linejoin:miter"
     points="9921,4251 15590,4251 " />
  <polyline
     id="polyline60"
     style="fill:none;stroke:#0000ff;stroke-width:48;stroke-linecap:butt;stroke-linejoin:miter"
     points="9921,4960 15590,4960 " />
  <polyline
     id="polyline62"
     style="fill:none;stroke:#0000ff;stroke-width:48;stroke-linecap:butt;stroke-linejoin:miter"
     points="9921,5669 15590,5669 " />
  <polyline
     id="polyline64"
     style="fill:none;stroke:#0000ff;stroke-width:48;stroke-linecap:butt;stroke-linejoin:miter"
     points="9921,6377 15590,6377 " />
  <polyline
     id="polyline66"
     style="fill:none;stroke:#0000ff;stroke-width:48;stroke-linecap:butt;stroke-linejoin:miter"
     points="9921,7086 15590,7086 " />
  <polyline
     id="polyline68"
     style="fill:none;stroke:#0000ff;stroke-width:48;stroke-linecap:butt;stroke-linejoin:miter"
     points="9921,7795 15590,7795 " />
  <polyline
     id="polyline70"
     style="fill:none;stroke:#0000ff;stroke-width:48;stroke-linecap:butt;stroke-linejoin:miter"
     points="9921,2125 9921,7795 " />
  <polyline
     id="polyline72"
     style="fill:none;stroke:#0000ff;stroke-width:48;stroke-linecap:butt;stroke-linejoin:miter"
     points="10629,2125 10629,7795 " />
  <polyline
     id="polyline74"
     style="fill:none;stroke:#0000ff;stroke-width:48;stroke-linecap:butt;stroke-linejoin:miter"
     points="12047,2125 12047,7795 " />
  <polyline
     id="polyline76"
     style="fill:none;stroke:#0000ff;stroke-width:48;stroke-linecap:butt;stroke-linejoin:miter"
     points="12755,2125 12755,7795 " />
  <polyline
     id="polyline78"
     style="fill:none;stroke:#0000ff;stroke-width:48;stroke-linecap:butt;stroke-linejoin:miter"
     points="13464,2125 13464,7795 " />
  <polyline
     id="polyline80"
     style="fill:none;stroke:#0000ff;stroke-width:48;stroke-linecap:butt;stroke-linejoin:miter"
     points="14173,2125 14173,7795 " />
  <polyline
     id="polyline82"
     style="fill:none;stroke:#0000ff;stroke-width:48;stroke-linecap:butt;stroke-linejoin:miter"
     points="14881,2125 14881,7795 " />
  <polyline
     id="polyline84"
     style="fill:none;stroke:#0000ff;stroke-width:48;stroke-linecap:butt;stroke-linejoin:miter"
     points="15590,2125 15590,7795 " />
  <polyline
     id="polyline86"
     style="fill:none;stroke:#0000ff;stroke-width:48;stroke-linecap:butt;stroke-linejoin:miter"
     points="11338,2125 11338,7795 " />
  <text
     style="font-style:normal;font-weight:normal;font-size:378px;font-family:Helvetica;text-anchor:middle;fill:#0000ff;stroke-width:0.025in"
     id="text88"
     font-size="378"
     font-weight="normal"
     font-style="normal"
     y="2692"
     x="10299"
     xml:space="preserve">$1$</text>
  <text
     style="font-style:normal;font-weight:normal;font-size:378px;font-family:Helvetica;text-anchor:middle;fill:#0000ff;stroke-width:0.025in"
     id="text90"
     font-size="378"
     font-weight="normal"
     font-style="normal"
     y="2692"
     x="11007"
     xml:space="preserve">$1$</text>
  <text
     style="font-style:normal;font-weight:normal;font-size:378px;font-family:Helvetica;text-anchor:middle;fill:#0000ff;stroke-width:0.025in"
     id="text92"
     font-size="378"
     font-weight="normal"
     font-style="normal"
     y="2692"
     x="11716"
     xml:space="preserve">$1$</text>
  <text
     style="font-style:normal;font-weight:normal;font-size:378px;font-family:Helvetica;text-anchor:middle;fill:#0000ff;stroke-width:0.025in"
     id="text94"
     font-size="378"
     font-weight="normal"
     font-style="normal"
     y="2692"
     x="12425"
     xml:space="preserve">$1$</text>
  <text
     style="font-style:normal;font-weight:normal;font-size:378px;font-family:Helvetica;text-anchor:middle;fill:#0000ff;stroke-width:0.025in"
     id="text96"
     font-size="378"
     font-weight="normal"
     font-style="normal"
     y="3401"
     x="10299"
     xml:space="preserve">$1$</text>
  <text
     style="font-style:normal;font-weight:normal;font-size:378px;font-family:Helvetica;text-anchor:middle;fill:#0000ff;stroke-width:0.025in"
     id="text98"
     font-size="378"
     font-weight="normal"
     font-style="normal"
     y="3401"
     x="11007"
     xml:space="preserve">$1$</text>
  <text
     style="font-style:normal;font-weight:normal;font-size:378px;font-family:Helvetica;text-anchor:middle;fill:#0000ff;stroke-width:0.025in"
     id="text100"
     font-size="378"
     font-weight="normal"
     font-style="normal"
     y="3401"
     x="11716"
     xml:space="preserve">$1$</text>
  <text
     style="font-style:normal;font-weight:normal;font-size:378px;font-family:Helvetica;text-anchor:middle;fill:#0000ff;stroke-width:0.025in"
     id="text102"
     font-size="378"
     font-weight="normal"
     font-style="normal"
     y="3401"
     x="12425"
     xml:space="preserve">$1$</text>
  <text
     style="font-style:normal;font-weight:normal;font-size:378px;font-family:Helvetica;text-anchor:middle;fill:#0000ff;stroke-width:0.025in"
     id="text104"
     font-size="378"
     font-weight="normal"
     font-style="normal"
     y="3401"
     x="13133"
     xml:space="preserve">$1$</text>
  <text
     style="font-style:normal;font-weight:normal;font-size:378px;font-family:Helvetica;text-anchor:middle;fill:#0000ff;stroke-width:0.025in"
     id="text106"
     font-size="378"
     font-weight="normal"
     font-style="normal"
     y="4110"
     x="13133"
     xml:space="preserve">$1$</text>
  <text
     style="font-style:normal;font-weight:normal;font-size:378px;font-family:Helvetica;text-anchor:middle;fill:#0000ff;stroke-width:0.025in"
     id="text108"
     font-size="378"
     font-weight="normal"
     font-style="normal"
     y="4110"
     x="12425"
     xml:space="preserve">$1$</text>
  <text
     style="font-style:normal;font-weight:normal;font-size:378px;font-family:Helvetica;text-anchor:middle;fill:#0000ff;stroke-width:0.025in"
     id="text110"
     font-size="378"
     font-weight="normal"
     font-style="normal"
     y="4110"
     x="11716"
     xml:space="preserve">$1$</text>
  <text
     style="font-style:normal;font-weight:normal;font-size:378px;font-family:Helvetica;text-anchor:middle;fill:#0000ff;stroke-width:0.025in"
     id="text112"
     font-size="378"
     font-weight="normal"
     font-style="normal"
     y="4110"
     x="11007"
     xml:space="preserve">$1$</text>
  <text
     style="font-style:normal;font-weight:normal;font-size:378px;font-family:Helvetica;text-anchor:middle;fill:#0000ff;stroke-width:0.025in"
     id="text114"
     font-size="378"
     font-weight="normal"
     font-style="normal"
     y="4110"
     x="10299"
     xml:space="preserve">$1$</text>
  <text
     style="font-style:normal;font-weight:normal;font-size:378px;font-family:Helvetica;text-anchor:middle;fill:#0000ff;stroke-width:0.025in"
     id="text116"
     font-size="378"
     font-weight="normal"
     font-style="normal"
     y="4818"
     x="10299"
     xml:space="preserve">$1$</text>
  <text
     style="font-style:normal;font-weight:normal;font-size:378px;font-family:Helvetica;text-anchor:middle;fill:#0000ff;stroke-width:0.025in"
     id="text118"
     font-size="378"
     font-weight="normal"
     font-style="normal"
     y="4818"
     x="11007"
     xml:space="preserve">$1$</text>
  <text
     style="font-style:normal;font-weight:normal;font-size:378px;font-family:Helvetica;text-anchor:middle;fill:#0000ff;stroke-width:0.025in"
     id="text120"
     font-size="378"
     font-weight="normal"
     font-style="normal"
     y="4818"
     x="11716"
     xml:space="preserve">$1$</text>
  <text
     style="font-style:normal;font-weight:normal;font-size:378px;font-family:Helvetica;text-anchor:middle;fill:#0000ff;stroke-width:0.025in"
     id="text122"
     font-size="378"
     font-weight="normal"
     font-style="normal"
     y="4818"
     x="12425"
     xml:space="preserve">$1$</text>
  <text
     style="font-style:normal;font-weight:normal;font-size:378px;font-family:Helvetica;text-anchor:middle;fill:#0000ff;stroke-width:0.025in"
     id="text124"
     font-size="378"
     font-weight="normal"
     font-style="normal"
     y="4818"
     x="13133"
     xml:space="preserve">$1$</text>
  <text
     style="font-style:normal;font-weight:normal;font-size:378px;font-family:Helvetica;text-anchor:middle;fill:#0000ff;stroke-width:0.025in"
     id="text126"
     font-size="378"
     font-weight="normal"
     font-style="normal"
     y="5527"
     x="13133"
     xml:space="preserve">$1$</text>
  <text
     style="font-style:normal;font-weight:normal;font-size:378px;font-family:Helvetica;text-anchor:middle;fill:#0000ff;stroke-width:0.025in"
     id="text128"
     font-size="378"
     font-weight="normal"
     font-style="normal"
     y="5527"
     x="12425"
     xml:space="preserve">$1$</text>
  <text
     style="font-style:normal;font-weight:normal;font-size:378px;font-family:Helvetica;text-anchor:middle;fill:#0000ff;stroke-width:0.025in"
     id="text130"
     font-size="378"
     font-weight="normal"
     font-style="normal"
     y="5527"
     x="11716"
     xml:space="preserve">$1$</text>
  <text
     style="font-style:normal;font-weight:normal;font-size:378px;font-family:Helvetica;text-anchor:middle;fill:#0000ff;stroke-width:0.025in"
     id="text132"
     font-size="378"
     font-weight="normal"
     font-style="normal"
     y="5527"
     x="11007"
     xml:space="preserve">$1$</text>
  <text
     style="font-style:normal;font-weight:normal;font-size:378px;font-family:Helvetica;text-anchor:middle;fill:#0000ff;stroke-width:0.025in"
     id="text134"
     font-size="378"
     font-weight="normal"
     font-style="normal"
     y="5527"
     x="10299"
     xml:space="preserve">$1$</text>
  <text
     style="font-style:normal;font-weight:normal;font-size:378px;font-family:Helvetica;text-anchor:middle;fill:#0000ff;stroke-width:0.025in"
     id="text136"
     font-size="378"
     font-weight="normal"
     font-style="normal"
     y="6236"
     x="10299"
     xml:space="preserve">$1$</text>
  <text
     style="font-style:normal;font-weight:normal;font-size:378px;font-family:Helvetica;text-anchor:middle;fill:#0000ff;stroke-width:0.025in"
     id="text138"
     font-size="378"
     font-weight="normal"
     font-style="normal"
     y="6236"
     x="11007"
     xml:space="preserve">$1$</text>
  <text
     style="font-style:normal;font-weight:normal;font-size:378px;font-family:Helvetica;text-anchor:middle;fill:#0000ff;stroke-width:0.025in"
     id="text140"
     font-size="378"
     font-weight="normal"
     font-style="normal"
     y="6236"
     x="11716"
     xml:space="preserve">$1$</text>
  <text
     style="font-style:normal;font-weight:normal;font-size:378px;font-family:Helvetica;text-anchor:middle;fill:#0000ff;stroke-width:0.025in"
     id="text142"
     font-size="378"
     font-weight="normal"
     font-style="normal"
     y="6236"
     x="12425"
     xml:space="preserve">$1$</text>
  <text
     style="font-style:normal;font-weight:normal;font-size:378px;font-family:Helvetica;text-anchor:middle;fill:#0000ff;stroke-width:0.025in"
     id="text144"
     font-size="378"
     font-weight="normal"
     font-style="normal"
     y="6236"
     x="13133"
     xml:space="preserve">$1$</text>
  <text
     style="font-style:normal;font-weight:normal;font-size:378px;font-family:Helvetica;text-anchor:middle;fill:#0000ff;stroke-width:0.025in"
     id="text146"
     font-size="378"
     font-weight="normal"
     font-style="normal"
     y="6944"
     x="12425"
     xml:space="preserve">$1$</text>
  <text
     style="font-style:normal;font-weight:normal;font-size:378px;font-family:Helvetica;text-anchor:middle;fill:#0000ff;stroke-width:0.025in"
     id="text148"
     font-size="378"
     font-weight="normal"
     font-style="normal"
     y="6944"
     x="11716"
     xml:space="preserve">$1$</text>
  <text
     style="font-style:normal;font-weight:normal;font-size:378px;font-family:Helvetica;text-anchor:middle;fill:#0000ff;stroke-width:0.025in"
     id="text150"
     font-size="378"
     font-weight="normal"
     font-style="normal"
     y="6944"
     x="11007"
     xml:space="preserve">$1$</text>
  <text
     style="font-style:normal;font-weight:normal;font-size:378px;font-family:Helvetica;text-anchor:middle;fill:#0000ff;stroke-width:0.025in"
     id="text152"
     font-size="378"
     font-weight="normal"
     font-style="normal"
     y="3401"
     x="15259"
     xml:space="preserve">$1$</text>
  <text
     style="font-style:normal;font-weight:normal;font-size:378px;font-family:Helvetica;text-anchor:middle;fill:#0000ff;stroke-width:0.025in"
     id="text154"
     font-size="378"
     font-weight="normal"
     font-style="normal"
     y="3401"
     x="14551"
     xml:space="preserve">$1$</text>
  <text
     style="font-style:normal;font-weight:normal;font-size:378px;font-family:Helvetica;text-anchor:middle;fill:#0000ff;stroke-width:0.025in"
     id="text156"
     font-size="378"
     font-weight="normal"
     font-style="normal"
     y="4110"
     x="13842"
     xml:space="preserve">$1$</text>
  <text
     style="font-style:normal;font-weight:normal;font-size:378px;font-family:Helvetica;text-anchor:middle;fill:#0000ff;stroke-width:0.025in"
     id="text158"
     font-size="378"
     font-weight="normal"
     font-style="normal"
     y="4110"
     x="14551"
     xml:space="preserve">$1$</text>
  <text
     style="font-style:normal;font-weight:normal;font-size:378px;font-family:Helvetica;text-anchor:middle;fill:#0000ff;stroke-width:0.025in"
     id="text160"
     font-size="378"
     font-weight="normal"
     font-style="normal"
     y="4110"
     x="15259"
     xml:space="preserve">$1$</text>
  <text
     style="font-style:normal;font-weight:normal;font-size:378px;font-family:Helvetica;text-anchor:middle;fill:#0000ff;stroke-width:0.025in"
     id="text162"
     font-size="378"
     font-weight="normal"
     font-style="normal"
     y="4818"
     x="15259"
     xml:space="preserve">$1$</text>
  <text
     style="font-style:normal;font-weight:normal;font-size:378px;font-family:Helvetica;text-anchor:middle;fill:#0000ff;stroke-width:0.025in"
     id="text164"
     font-size="378"
     font-weight="normal"
     font-style="normal"
     y="4818"
     x="14551"
     xml:space="preserve">$1$</text>
  <text
     style="font-style:normal;font-weight:normal;font-size:378px;font-family:Helvetica;text-anchor:middle;fill:#0000ff;stroke-width:0.025in"
     id="text166"
     font-size="378"
     font-weight="normal"
     font-style="normal"
     y="4818"
     x="13842"
     xml:space="preserve">$1$</text>
  <text
     style="font-style:normal;font-weight:normal;font-size:378px;font-family:Helvetica;text-anchor:middle;fill:#0000ff;stroke-width:0.025in"
     id="text168"
     font-size="378"
     font-weight="normal"
     font-style="normal"
     y="2692"
     x="13133"
     xml:space="preserve">$0$</text>
  <text
     style="font-style:normal;font-weight:normal;font-size:378px;font-family:Helvetica;text-anchor:middle;fill:#0000ff;stroke-width:0.025in"
     id="text170"
     font-size="378"
     font-weight="normal"
     font-style="normal"
     y="2692"
     x="13842"
     xml:space="preserve">$0$</text>
  <text
     style="font-style:normal;font-weight:normal;font-size:378px;font-family:Helvetica;text-anchor:middle;fill:#0000ff;stroke-width:0.025in"
     id="text172"
     font-size="378"
     font-weight="normal"
     font-style="normal"
     y="2692"
     x="14551"
     xml:space="preserve">$0$</text>
  <text
     style="font-style:normal;font-weight:normal;font-size:378px;font-family:Helvetica;text-anchor:middle;fill:#0000ff;stroke-width:0.025in"
     id="text174"
     font-size="378"
     font-weight="normal"
     font-style="normal"
     y="2692"
     x="15259"
     xml:space="preserve">$0$</text>
  <text
     style="font-style:normal;font-weight:normal;font-size:378px;font-family:Helvetica;text-anchor:middle;fill:#0000ff;stroke-width:0.025in"
     id="text176"
     font-size="378"
     font-weight="normal"
     font-style="normal"
     y="3401"
     x="13842"
     xml:space="preserve">$0$</text>
  <text
     style="font-style:normal;font-weight:normal;font-size:378px;font-family:Helvetica;text-anchor:middle;fill:#0000ff;stroke-width:0.025in"
     id="text178"
     font-size="378"
     font-weight="normal"
     font-style="normal"
     y="5527"
     x="13842"
     xml:space="preserve">$0$</text>
  <text
     style="font-style:normal;font-weight:normal;font-size:378px;font-family:Helvetica;text-anchor:middle;fill:#0000ff;stroke-width:0.025in"
     id="text180"
     font-size="378"
     font-weight="normal"
     font-style="normal"
     y="5527"
     x="14551"
     xml:space="preserve">$0$</text>
  <text
     style="font-style:normal;font-weight:normal;font-size:378px;font-family:Helvetica;text-anchor:middle;fill:#0000ff;stroke-width:0.025in"
     id="text182"
     font-size="378"
     font-weight="normal"
     font-style="normal"
     y="5527"
     x="15259"
     xml:space="preserve">$0$</text>
  <text
     style="font-style:normal;font-weight:normal;font-size:378px;font-family:Helvetica;text-anchor:middle;fill:#0000ff;stroke-width:0.025in"
     id="text184"
     font-size="378"
     font-weight="normal"
     font-style="normal"
     y="6236"
     x="13842"
     xml:space="preserve">$0$</text>
  <text
     style="font-style:normal;font-weight:normal;font-size:378px;font-family:Helvetica;text-anchor:middle;fill:#0000ff;stroke-width:0.025in"
     id="text186"
     font-size="378"
     font-weight="normal"
     font-style="normal"
     y="6236"
     x="14551"
     xml:space="preserve">$0$</text>
  <text
     style="font-style:normal;font-weight:normal;font-size:378px;font-family:Helvetica;text-anchor:middle;fill:#0000ff;stroke-width:0.025in"
     id="text188"
     font-size="378"
     font-weight="normal"
     font-style="normal"
     y="6236"
     x="15259"
     xml:space="preserve">$0$</text>
  <text
     style="font-style:normal;font-weight:normal;font-size:378px;font-family:Helvetica;text-anchor:middle;fill:#0000ff;stroke-width:0.025in"
     id="text190"
     font-size="378"
     font-weight="normal"
     font-style="normal"
     y="6944"
     x="13133"
     xml:space="preserve">$0$</text>
  <text
     style="font-style:normal;font-weight:normal;font-size:378px;font-family:Helvetica;text-anchor:middle;fill:#0000ff;stroke-width:0.025in"
     id="text192"
     font-size="378"
     font-weight="normal"
     font-style="normal"
     y="6944"
     x="13842"
     xml:space="preserve">$0$</text>
  <text
     style="font-style:normal;font-weight:normal;font-size:378px;font-family:Helvetica;text-anchor:middle;fill:#0000ff;stroke-width:0.025in"
     id="text194"
     font-size="378"
     font-weight="normal"
     font-style="normal"
     y="6944"
     x="14551"
     xml:space="preserve">$0$</text>
  <text
     style="font-style:normal;font-weight:normal;font-size:378px;font-family:Helvetica;text-anchor:middle;fill:#0000ff;stroke-width:0.025in"
     id="text196"
     font-size="378"
     font-weight="normal"
     font-style="normal"
     y="6944"
     x="15259"
     xml:space="preserve">$0$</text>
  <text
     style="font-style:normal;font-weight:normal;font-size:378px;font-family:Helvetica;text-anchor:middle;fill:#0000ff;stroke-width:0.025in"
     id="text198"
     font-size="378"
     font-weight="normal"
     font-style="normal"
     y="6944"
     x="10299"
     xml:space="preserve">$0$</text>
  <text
     style="font-style:normal;font-weight:normal;font-size:378px;font-family:Helvetica;text-anchor:middle;fill:#0000ff;stroke-width:0.025in"
     id="text200"
     font-size="378"
     font-weight="normal"
     font-style="normal"
     y="7653"
     x="10299"
     xml:space="preserve">$0$</text>
  <text
     style="font-style:normal;font-weight:normal;font-size:378px;font-family:Helvetica;text-anchor:middle;fill:#0000ff;stroke-width:0.025in"
     id="text202"
     font-size="378"
     font-weight="normal"
     font-style="normal"
     y="7653"
     x="11007"
     xml:space="preserve">$0$</text>
  <text
     style="font-style:normal;font-weight:normal;font-size:378px;font-family:Helvetica;text-anchor:middle;fill:#0000ff;stroke-width:0.025in"
     id="text204"
     font-size="378"
     font-weight="normal"
     font-style="normal"
     y="7653"
     x="11716"
     xml:space="preserve">$0$</text>
  <text
     style="font-style:normal;font-weight:normal;font-size:378px;font-family:Helvetica;text-anchor:middle;fill:#0000ff;stroke-width:0.025in"
     id="text206"
     font-size="378"
     font-weight="normal"
     font-style="normal"
     y="7653"
     x="12425"
     xml:space="preserve">$0$</text>
  <text
     style="font-style:normal;font-weight:normal;font-size:378px;font-family:Helvetica;text-anchor:middle;fill:#0000ff;stroke-width:0.025in"
     id="text208"
     font-size="378"
     font-weight="normal"
     font-style="normal"
     y="7653"
     x="13133"
     xml:space="preserve">$0$</text>
  <text
     style="font-style:normal;font-weight:normal;font-size:378px;font-family:Helvetica;text-anchor:middle;fill:#0000ff;stroke-width:0.025in"
     id="text210"
     font-size="378"
     font-weight="normal"
     font-style="normal"
     y="7653"
     x="13842"
     xml:space="preserve">$0$</text>
  <text
     style="font-style:normal;font-weight:normal;font-size:378px;font-family:Helvetica;text-anchor:middle;fill:#0000ff;stroke-width:0.025in"
     id="text212"
     font-size="378"
     font-weight="normal"
     font-style="normal"
     y="7653"
     x="14551"
     xml:space="preserve">$0$</text>
  <text
     style="font-style:normal;font-weight:normal;font-size:378px;font-family:Helvetica;text-anchor:middle;fill:#0000ff;stroke-width:0.025in"
     id="text214"
     font-size="378"
     font-weight="normal"
     font-style="normal"
     y="7653"
     x="15259"
     xml:space="preserve">$0$</text>
  <text
     style="font-style:normal;font-weight:normal;font-size:378px;font-family:Helvetica;text-anchor:middle;fill:#0000ff;stroke-width:0.025in"
     id="text116-1"
     font-size="378"
     font-weight="normal"
     font-style="normal"
     y="4920.1685"
     x="8939.748"
     xml:space="preserve">≙</text>
</svg>
