<?xml version="1.0" encoding="UTF-8" standalone="no"?>
<!-- Creator: fig2dev Version 3.2 Patchlevel 5e -->

<!-- CreationDate: Thu Sep 24 15:03:09 2015 -->

<!-- Magnification: 1.050 -->

<svg
   xmlns:dc="http://purl.org/dc/elements/1.1/"
   xmlns:cc="http://creativecommons.org/ns#"
   xmlns:rdf="http://www.w3.org/1999/02/22-rdf-syntax-ns#"
   xmlns:svg="http://www.w3.org/2000/svg"
   xmlns="http://www.w3.org/2000/svg"
   xmlns:sodipodi="http://sodipodi.sourceforge.net/DTD/sodipodi-0.dtd"
   xmlns:inkscape="http://www.inkscape.org/namespaces/inkscape"
   width="11.5in"
   height="4.3in"
   viewBox="3992 3744 13758 5156"
   id="svg2"
   version="1.1"
   inkscape:version="0.91 r13725"
   sodipodi:docname="fig_hardwareLCDDurchsichtig.svg">
  <metadata
     id="metadata108">
    <rdf:RDF>
      <cc:Work
         rdf:about="">
        <dc:format>image/svg+xml</dc:format>
        <dc:type
           rdf:resource="http://purl.org/dc/dcmitype/StillImage" />
      </cc:Work>
    </rdf:RDF>
  </metadata>
  <defs
     id="defs106" />
  <sodipodi:namedview
     pagecolor="#ffffff"
     bordercolor="#666666"
     borderopacity="1"
     objecttolerance="10"
     gridtolerance="10"
     guidetolerance="10"
     inkscape:pageopacity="0"
     inkscape:pageshadow="2"
     inkscape:window-width="2418"
     inkscape:window-height="1261"
     id="namedview104"
     showgrid="false"
     inkscape:zoom="0.48115942"
     inkscape:cx="519.57831"
     inkscape:cy="193.50001"
     inkscape:window-x="142"
     inkscape:window-y="60"
     inkscape:window-maximized="1"
     inkscape:current-layer="svg2" />
  <polygon
     id="polygon6"
     style="fill:#ffffff;stroke:#000000;stroke-width:32;stroke-linecap:butt;stroke-linejoin:round"
     points="17480,7322 16062,6614 16062,3779 16062,3779 17480,4488 " />
  <polygon
     id="polygon8"
     style="fill:#ffffff;stroke:#000000;stroke-width:32;stroke-linecap:butt;stroke-linejoin:round"
     points="17716,4488 17480,4488 16062,3779 16062,3779 16299,3779 " />
  <polygon
     id="polygon10"
     style="fill:#ffffff;stroke:#000000;stroke-width:32;stroke-linecap:butt;stroke-linejoin:round"
     points="17716,7322 17480,7322 17480,4488 17480,4488 17716,4488 " />
  <rect
     id="rect12"
     style="fill:#bfbfff;stroke:#0000ff;stroke-width:16;stroke-linecap:butt;stroke-linejoin:miter"
     rx="0"
     height="708"
     width="2125"
     y="5433"
     x="14409" />
  <polygon
     id="polygon14"
     style="fill:#bfbfff;stroke:#0000ff;stroke-width:16;stroke-linecap:butt;stroke-linejoin:miter"
     points="14645,6141 15118,6377 17007,6377 17007,6377 16535,6141 " />
  <polyline
     id="polyline16"
     style="fill:none;stroke:#00b000;stroke-width:63;stroke-linecap:butt;stroke-linejoin:miter"
     points="11811,6614 11574,5669 " />
  <polygon
     id="polygon18"
     style="fill:#bfbfff;stroke:#0000ff;stroke-width:16;stroke-linecap:butt;stroke-linejoin:miter"
     points="10724,5858 11338,6614 11574,6614 11574,6614 11291,5716 " />
  <polyline
     id="polyline20"
     style="fill:none;stroke:#00b000;stroke-width:63;stroke-linecap:butt;stroke-linejoin:miter"
     points="11102,6614 10393,5905 " />
  <polygon
     id="polygon22"
     style="fill:#bfbfff;stroke:#0000ff;stroke-width:16;stroke-linecap:butt;stroke-linejoin:miter"
     points="9732,6047 10629,6614 10866,6614 10866,6614 10062,5952 " />
  <polyline
     id="polyline24"
     style="fill:none;stroke:#00b000;stroke-width:63;stroke-linecap:butt;stroke-linejoin:miter"
     points="9448,6141 10393,6614 " />
  <polygon
     id="polygon26"
     style="fill:#bfbfff;stroke:#0000ff;stroke-width:16;stroke-linecap:butt;stroke-linejoin:miter"
     points="8740,6141 9685,6614 10157,6614 10157,6614 9212,6141 " />
  <polygon
     id="polygon28"
     style="fill:#bfbfff;stroke:#0000ff;stroke-width:16;stroke-linecap:butt;stroke-linejoin:miter"
     points="11858,5669 12047,6614 12188,6614 12188,6614 12188,5669 " />
  <polygon
     id="polygon30"
     style="fill:#ffffff;stroke:#000000;stroke-width:32;stroke-linecap:butt;stroke-linejoin:round"
     points="15590,7322 14173,6614 14173,3779 14173,3779 15590,4488 " />
  <polygon
     id="polygon32"
     style="fill:#ffffff;stroke:#000000;stroke-width:32;stroke-linecap:butt;stroke-linejoin:round"
     points="15826,4488 15590,4488 14173,3779 14173,3779 14409,3779 " />
  <polygon
     id="polygon34"
     style="fill:#ffffff;stroke:#000000;stroke-width:32;stroke-linecap:butt;stroke-linejoin:round"
     points="15826,7322 15590,7322 15590,4488 15590,4488 15826,4488 " />
  <rect
     id="rect36"
     style="fill:#bfbfff;stroke:#0000ff;stroke-width:16;stroke-linecap:butt;stroke-linejoin:miter"
     rx="0"
     height="708"
     width="2125"
     y="5433"
     x="12519" />
  <polygon
     id="polygon38"
     style="fill:#ffffff;stroke:#000000;stroke-width:32;stroke-linecap:butt;stroke-linejoin:round"
     points="13700,7322 12283,6614 12283,3779 12283,3779 13700,4488 " />
  <polygon
     id="polygon40"
     style="fill:#ffffff;stroke:#000000;stroke-width:32;stroke-linecap:butt;stroke-linejoin:round"
     points="13937,4488 13700,4488 12283,3779 12283,3779 12519,3779 " />
  <polygon
     id="polygon42"
     style="fill:#ffffff;stroke:#000000;stroke-width:32;stroke-linecap:butt;stroke-linejoin:round"
     points="13937,7322 13700,7322 13700,4488 13700,4488 13937,4488 " />
  <polyline
     id="polyline44"
     style="fill:none;stroke:#00b000;stroke-width:63;stroke-linecap:butt;stroke-linejoin:miter"
     points="12425,6614 12425,5669 " />
  <polygon
     id="polygon46"
     style="fill:#ffffff;stroke:#000000;stroke-width:32;stroke-linecap:butt;stroke-linejoin:round"
     points="8740,7292 7322,6614 7322,3779 7322,3779 8740,4457 " />
  <polygon
     id="polygon48"
     style="fill:#ffffff;stroke:#000000;stroke-width:32;stroke-linecap:butt;stroke-linejoin:round"
     points="8976,4488 8740,4488 7322,3779 7322,3779 7559,3779 " />
  <polygon
     id="polygon50"
     style="fill:#ffffff;stroke:#000000;stroke-width:32;stroke-linecap:butt;stroke-linejoin:round"
     points="8976,7322 8740,7322 8740,4488 8740,4488 8976,4488 " />
  <polygon
     id="polygon52"
     style="fill:#ffffff;stroke:#000000;stroke-width:32;stroke-linecap:butt;stroke-linejoin:round"
     points="7086,4488 6850,4488 5433,3779 5433,3779 5669,3779 " />
  <polyline
     id="polyline54"
     style="fill:#ffffff;stroke:#0000ff;stroke-width:63;stroke-linecap:butt;stroke-linejoin:round"
     points="14881,6614 14881,4975 " />
  <polygon
     id="polygon56"
     style="fill:#0000ff;stroke:#0000ff;stroke-width:63;stroke-miterlimit:8"
     points="14803,4916 14881,4979 14960,4916 14960,4916 14881,4727 " />
  <polyline
     id="polyline58"
     style="fill:#ffffff;stroke:#0000ff;stroke-width:63;stroke-linecap:butt;stroke-linejoin:round"
     points="16299,8031 5447,8031 " />
  <polygon
     id="polygon60"
     style="fill:#0000ff;stroke:#0000ff;stroke-width:63;stroke-miterlimit:8"
     points="5388,8110 5451,8031 5388,7952 5388,7952 5200,8031 " />
  <polyline
     id="polyline62"
     style="fill:#ffffff;stroke:#ff0000;stroke-width:48;stroke-linecap:butt;stroke-linejoin:round"
     points="8267,6614 7795,6377 " />
  <polyline
     id="polyline64"
     style="fill:#ffffff;stroke:#ff0000;stroke-width:48;stroke-linecap:butt;stroke-linejoin:round"
     points="8267,6519 7795,6283 " />
  <polyline
     id="polyline66"
     style="fill:#ffffff;stroke:#ff0000;stroke-width:48;stroke-linecap:butt;stroke-linejoin:round"
     points="8267,6425 7795,6188 " />
  <polyline
     id="polyline68"
     style="fill:#ffffff;stroke:#ff0000;stroke-width:48;stroke-linecap:butt;stroke-linejoin:round"
     points="8267,6330 7795,6094 " />
  <polyline
     id="polyline70"
     style="fill:#ffffff;stroke:#ff0000;stroke-width:48;stroke-linecap:butt;stroke-linejoin:round"
     points="8267,6236 7795,6000 " />
  <polyline
     id="polyline72"
     style="fill:#ffffff;stroke:#ff0000;stroke-width:48;stroke-linecap:butt;stroke-linejoin:round"
     points="8267,6141 7795,5905 " />
  <polyline
     id="polyline74"
     style="fill:#ffffff;stroke:#ff0000;stroke-width:48;stroke-linecap:butt;stroke-linejoin:round"
     points="13228,6614 13228,6141 " />
  <polyline
     id="polyline76"
     style="fill:#ffffff;stroke:#ff0000;stroke-width:48;stroke-linecap:butt;stroke-linejoin:round"
     points="13133,6566 13133,6094 " />
  <polyline
     id="polyline78"
     style="fill:#ffffff;stroke:#ff0000;stroke-width:48;stroke-linecap:butt;stroke-linejoin:round"
     points="13039,6519 13039,6047 " />
  <polyline
     id="polyline80"
     style="fill:#ffffff;stroke:#ff0000;stroke-width:48;stroke-linecap:butt;stroke-linejoin:round"
     points="12944,6472 12944,6000 " />
  <polyline
     id="polyline82"
     style="fill:#ffffff;stroke:#ff0000;stroke-width:48;stroke-linecap:butt;stroke-linejoin:round"
     points="12850,6425 12850,5952 " />
  <polyline
     id="polyline84"
     style="fill:#ffffff;stroke:#ff0000;stroke-width:48;stroke-linecap:butt;stroke-linejoin:round"
     points="12755,6377 12755,5905 " />
  <text
     style="font-style:normal;font-weight:normal;font-size:378.00670624px;font-family:Times;text-anchor:middle;fill:#00b000;stroke-width:0.025in;-inkscape-font-specification:'Times, Normal';font-stretch:normal;font-variant:normal;text-align:center;writing-mode:lr;line-height:125%;"
     id="text86"
     font-size="378"
     font-weight="bold"
     font-style="normal"
     y="7322"
     x="10866"
     xml:space="preserve"
     sodipodi:linespacing="125%">Flüssigkristalle</text>
  <text
     style="font-style:normal;font-weight:normal;font-size:378.00670624px;font-family:Times;text-anchor:middle;fill:#0000ff;stroke-width:0.025in;-inkscape-font-specification:'Times, Normal';font-stretch:normal;font-variant:normal;text-align:center;writing-mode:lr;line-height:125%;"
     id="text88"
     font-size="378"
     font-weight="bold"
     font-style="normal"
     y="8740"
     x="10629"
     xml:space="preserve"
     sodipodi:linespacing="125%">Licht (Schwingungsebenen)</text>
  <polygon
     id="polygon90"
     style="fill:#bfbfff;stroke:#0000ff;stroke-width:16;stroke-linecap:butt;stroke-linejoin:miter"
     points="5905,6141 6377,6377 8267,6377 8267,6377 7795,6141 " />
  <polygon
     id="polygon92"
     style="fill:#ffffff;stroke:#000000;stroke-width:32;stroke-linecap:butt;stroke-linejoin:round"
     points="6850,7322 5433,6614 5433,3779 5433,3779 6850,4488 " />
  <polygon
     id="polygon94"
     style="fill:#ffffff;stroke:#000000;stroke-width:32;stroke-linecap:butt;stroke-linejoin:round"
     points="7086,7322 6850,7322 6850,4488 6850,4488 7086,4488 " />
  <polyline
     id="polyline96"
     style="fill:#ffffff;stroke:#0000ff;stroke-width:63;stroke-linecap:butt;stroke-linejoin:round"
     points="5905,5433 6152,5556 " />
  <polygon
     id="polygon98"
     style="fill:#0000ff;stroke:#0000ff;stroke-width:63;stroke-miterlimit:8"
     points="6240,5511 6149,5553 6170,5652 6170,5652 6374,5667 " />
  <polygon
     id="polygon100"
     style="fill:#ffd600;stroke:#ffd600;stroke-width:8;stroke-linecap:butt;stroke-linejoin:miter"
     points="5905,5905 5905,6377 6377,6614 6377,6614 6377,6141 " />
  <polygon
     id="polygon102"
     style="fill:#bfbfff;stroke:#0000ff;stroke-width:16;stroke-linecap:butt;stroke-linejoin:miter"
     points="4015,6141 4488,6377 6377,6377 6377,6377 5905,6141 " />
</svg>
