<?xml version="1.0" encoding="UTF-8" standalone="no"?>
<!-- Creator: fig2dev Version 3.2 Patchlevel 5e -->

<!-- CreationDate: Tue Sep 29 16:33:56 2015 -->

<!-- Magnification: 1.050 -->

<svg
   xmlns:dc="http://purl.org/dc/elements/1.1/"
   xmlns:cc="http://creativecommons.org/ns#"
   xmlns:rdf="http://www.w3.org/1999/02/22-rdf-syntax-ns#"
   xmlns:svg="http://www.w3.org/2000/svg"
   xmlns="http://www.w3.org/2000/svg"
   xmlns:sodipodi="http://sodipodi.sourceforge.net/DTD/sodipodi-0.dtd"
   xmlns:inkscape="http://www.inkscape.org/namespaces/inkscape"
   width="14.3in"
   height="8.0in"
   viewBox="1360 437 17146 9565"
   id="svg2"
   version="1.1"
   inkscape:version="0.92.4 (5da689c313, 2019-01-14)"
   sodipodi:docname="fig_clipPolygonBsp.svg">
  <metadata
     id="metadata42">
    <rdf:RDF>
      <cc:Work
         rdf:about="">
        <dc:format>image/svg+xml</dc:format>
        <dc:type
           rdf:resource="http://purl.org/dc/dcmitype/StillImage" />
        <dc:title></dc:title>
      </cc:Work>
    </rdf:RDF>
  </metadata>
  <defs
     id="defs40" />
  <sodipodi:namedview
     pagecolor="#ffffff"
     bordercolor="#666666"
     borderopacity="1"
     objecttolerance="10"
     gridtolerance="10"
     guidetolerance="10"
     inkscape:pageopacity="0"
     inkscape:pageshadow="2"
     inkscape:window-width="2432"
     inkscape:window-height="1273"
     id="namedview38"
     showgrid="false"
     inkscape:zoom="0.92709556"
     inkscape:cx="560.77603"
     inkscape:cy="365.86309"
     inkscape:window-x="128"
     inkscape:window-y="60"
     inkscape:window-maximized="1"
     inkscape:current-layer="svg2" />
  <polygon
     id="polygon6"
     style="fill:none;stroke:#00b000;stroke-width:32;stroke-linecap:butt;stroke-linejoin:round"
     points="4251,3543 1889,3307 1889,3307 3307,1653 " />
  <polygon
     id="polygon8"
     style="fill:none;stroke:#00b000;stroke-width:32;stroke-linecap:butt;stroke-linejoin:round"
     points="12047,3779 8267,2598 8267,2598 10393,472 " />
  <polygon
     id="polygon10"
     style="fill:#00b000;stroke:#00b000;stroke-width:0;stroke-linecap:butt;stroke-linejoin:round"
     points="4251,3543 1889,3307 1889,3307 3307,1653 " />
  <polygon
     id="polygon12"
     style="fill:#00b000;stroke:#00b000;stroke-width:0;stroke-linecap:butt;stroke-linejoin:round"
     points="10866,1417 11338,2362 11338,3543 8267,2598 8267,2598 9448,1417 " />
  <polygon
     id="polygon14"
     style="fill:none;stroke:#00b000;stroke-width:32;stroke-linecap:butt;stroke-linejoin:round"
     points="3354,6141 4535,7322 5007,5905 2881,5669 2881,5669 2173,8503 " />
  <polygon
     id="polygon16"
     style="fill:#00b000;stroke:#00b000;stroke-width:0;stroke-linecap:butt;stroke-linejoin:round"
     points="3118,6614 2173,8503 2173,8503 2645,6614 " />
  <polygon
     id="polygon18"
     style="fill:#00b000;stroke:#00b000;stroke-width:0;stroke-linecap:butt;stroke-linejoin:round"
     points="4771,6614 3826,6614 3826,6614 4535,7322 " />
  <rect
     id="rect20"
     style="fill:none;stroke:#00b000;stroke-width:32;stroke-linecap:butt;stroke-linejoin:round"
     rx="0"
     height="3779"
     width="4724"
     y="6188"
     x="7039" />
  <rect
     id="rect22"
     style="fill:#00b000;stroke:#00b000;stroke-width:0;stroke-linecap:butt;stroke-linejoin:round"
     rx="0"
     height="2834"
     width="3779"
     y="6661"
     x="7511" />
  <polygon
     id="polygon24"
     style="fill:none;stroke:#00b000;stroke-width:32;stroke-linecap:butt;stroke-linejoin:round"
     points="18472,2409 15874,2409 15401,519 15401,519 14692,3354 " />
  <polygon
     id="polygon26"
     style="fill:#00b000;stroke:#00b000;stroke-width:0;stroke-linecap:butt;stroke-linejoin:round"
     points="15874,2409 17527,2409 17527,2645 14692,3354 15165,1464 15165,1464 15637,1464 " />
  <rect
     id="rect28"
     style="fill:none;stroke:#ff0000;stroke-width:63;stroke-linecap:butt;stroke-linejoin:round"
     rx="0"
     height="2834"
     width="3779"
     y="1417"
     x="1417" />
  <rect
     id="rect30"
     style="fill:none;stroke:#ff0000;stroke-width:63;stroke-linecap:butt;stroke-linejoin:round"
     rx="0"
     height="2834"
     width="3779"
     y="1417"
     x="7559" />
  <rect
     id="rect32"
     style="fill:none;stroke:#ff0000;stroke-width:63;stroke-linecap:butt;stroke-linejoin:round"
     rx="0"
     height="2834"
     width="3779"
     y="6614"
     x="1464" />
  <rect
     id="rect34"
     style="fill:none;stroke:#ff0000;stroke-width:63;stroke-linecap:butt;stroke-linejoin:round"
     rx="0"
     height="2834"
     width="3779"
     y="6661"
     x="7511" />
  <rect
     id="rect36"
     style="fill:none;stroke:#ff0000;stroke-width:63;stroke-linecap:butt;stroke-linejoin:round"
     rx="0"
     height="2834"
     width="3779"
     y="1464"
     x="13748" />
  <rect
     id="rect34-7"
     style="fill:none;stroke:#ff0000;stroke-width:62.99999619;stroke-linecap:butt;stroke-linejoin:round"
     rx="0"
     height="2834"
     width="3778.9998"
     y="6661.0747"
     x="13733.755" />
  <polygon
     transform="matrix(0.2957851,0,0,0.28736682,14669.919,5652.384)"
     id="polygon8-6"
     style="fill:none;stroke:#00b000;stroke-width:109.75986481;stroke-linecap:butt;stroke-linejoin:round"
     points="10393,472 12047,3779 8267,2598 " />
</svg>
