<?xml version="1.0" encoding="UTF-8" standalone="no"?>
<!-- Creator: fig2dev Version 3.2 Patchlevel 5e -->

<!-- CreationDate: Wed Sep 30 10:53:48 2015 -->

<!-- Magnification: 1.050 -->

<svg
   xmlns:dc="http://purl.org/dc/elements/1.1/"
   xmlns:cc="http://creativecommons.org/ns#"
   xmlns:rdf="http://www.w3.org/1999/02/22-rdf-syntax-ns#"
   xmlns:svg="http://www.w3.org/2000/svg"
   xmlns="http://www.w3.org/2000/svg"
   xmlns:sodipodi="http://sodipodi.sourceforge.net/DTD/sodipodi-0.dtd"
   xmlns:inkscape="http://www.inkscape.org/namespaces/inkscape"
   width="4.2in"
   height="4.2in"
   viewBox="3036 2091 5029 5029"
   id="svg2"
   version="1.1"
   inkscape:version="0.91 r13725"
   sodipodi:docname="fig_sichtRemoved.svg">
  <metadata
     id="metadata30">
    <rdf:RDF>
      <cc:Work
         rdf:about="">
        <dc:format>image/svg+xml</dc:format>
        <dc:type
           rdf:resource="http://purl.org/dc/dcmitype/StillImage" />
      </cc:Work>
    </rdf:RDF>
  </metadata>
  <defs
     id="defs28" />
  <sodipodi:namedview
     pagecolor="#ffffff"
     bordercolor="#666666"
     borderopacity="1"
     objecttolerance="10"
     gridtolerance="10"
     guidetolerance="10"
     inkscape:pageopacity="0"
     inkscape:pageshadow="2"
     inkscape:window-width="640"
     inkscape:window-height="480"
     id="namedview26"
     showgrid="false"
     inkscape:zoom="0.62433865"
     inkscape:cx="190.60169"
     inkscape:cy="188.99999"
     inkscape:window-x="142"
     inkscape:window-y="60"
     inkscape:window-maximized="0"
     inkscape:current-layer="svg2" />
  <polygon
     id="polygon6"
     style="fill:#ffffff;stroke:#00b000;stroke-width:32;stroke-linecap:butt;stroke-linejoin:round"
     points="8031,4015 7086,4488 5196,4488 5196,4488 6141,4015 " />
  <polygon
     id="polygon8"
     style="fill:#ffffff;stroke:#00b000;stroke-width:32;stroke-linecap:butt;stroke-linejoin:miter"
     points="8031,4015 6141,4015 6141,2125 6141,2125 8031,2125 " />
  <polygon
     id="polygon10"
     style="fill:#ffffff;stroke:#00b000;stroke-width:32;stroke-linecap:butt;stroke-linejoin:miter"
     points="7086,4488 5196,4488 5196,2598 5196,2598 7086,2598 " />
  <polygon
     id="polygon12"
     style="fill:#ffffff;stroke:#00b000;stroke-width:32;stroke-linecap:butt;stroke-linejoin:round"
     points="8031,4015 7086,4488 7086,2598 7086,2598 8031,2125 " />
  <polygon
     id="polygon14"
     style="fill:#ffffff;stroke:#00b000;stroke-width:32;stroke-linecap:butt;stroke-linejoin:round"
     points="8031,2125 7086,2598 5196,2598 5196,2598 6141,2125 " />
  <polygon
     id="polygon16"
     style="fill:#ffffff;stroke:#ff0000;stroke-width:32;stroke-linecap:butt;stroke-linejoin:round"
     points="7322,6377 5905,7086 3070,7086 3070,7086 4488,6377 " />
  <polygon
     id="polygon18"
     style="fill:#ffffff;stroke:#ff0000;stroke-width:32;stroke-linecap:butt;stroke-linejoin:miter"
     points="7322,3543 4488,3543 4488,6377 4488,6377 7322,6377 " />
  <polygon
     id="polygon20"
     style="fill:#ffffff;stroke:#ff0000;stroke-width:32;stroke-linecap:butt;stroke-linejoin:miter"
     points="5905,4251 3070,4251 3070,7086 3070,7086 5905,7086 " />
  <polygon
     id="polygon22"
     style="fill:#ffffff;stroke:#ff0000;stroke-width:32;stroke-linecap:butt;stroke-linejoin:round"
     points="7322,3543 5905,4251 3070,4251 3070,4251 4488,3543 " />
  <polygon
     id="polygon24"
     style="fill:#ffffff;stroke:#ff0000;stroke-width:32;stroke-linecap:butt;stroke-linejoin:round"
     points="7322,6377 5905,7086 5905,4251 5905,4251 7322,3543 " />
</svg>
