<?xml version="1.0" encoding="UTF-8" standalone="no"?>
<!-- Creator: fig2dev Version 3.2 Patchlevel 5e -->

<!-- CreationDate: Thu Sep 24 15:12:41 2015 -->

<!-- Magnification: 1.050 -->

<svg
   xmlns:dc="http://purl.org/dc/elements/1.1/"
   xmlns:cc="http://creativecommons.org/ns#"
   xmlns:rdf="http://www.w3.org/1999/02/22-rdf-syntax-ns#"
   xmlns:svg="http://www.w3.org/2000/svg"
   xmlns="http://www.w3.org/2000/svg"
   xmlns:sodipodi="http://sodipodi.sourceforge.net/DTD/sodipodi-0.dtd"
   xmlns:inkscape="http://www.inkscape.org/namespaces/inkscape"
   width="8.5in"
   height="5.6in"
   viewBox="1874 5026 10226 6699"
   id="svg2"
   version="1.1"
   inkscape:version="0.91 r13725"
   sodipodi:docname="fig_hardwareDrucker.svg">
  <metadata
     id="metadata104">
    <rdf:RDF>
      <cc:Work
         rdf:about="">
        <dc:format>image/svg+xml</dc:format>
        <dc:type
           rdf:resource="http://purl.org/dc/dcmitype/StillImage" />
      </cc:Work>
    </rdf:RDF>
  </metadata>
  <defs
     id="defs102" />
  <sodipodi:namedview
     pagecolor="#ffffff"
     bordercolor="#666666"
     borderopacity="1"
     objecttolerance="10"
     gridtolerance="10"
     guidetolerance="10"
     inkscape:pageopacity="0"
     inkscape:pageshadow="2"
     inkscape:window-width="2418"
     inkscape:window-height="1261"
     id="namedview100"
     showgrid="false"
     inkscape:zoom="0.93650795"
     inkscape:cx="124.44576"
     inkscape:cy="287.22557"
     inkscape:window-x="142"
     inkscape:window-y="60"
     inkscape:window-maximized="1"
     inkscape:current-layer="svg2" />
  <polyline
     id="polyline6"
     style="fill:#ff0000;stroke:#000000;stroke-width:63;stroke-linecap:butt;stroke-linejoin:miter"
     points="3689,7517 3925,7328 " />
  <text
     style="font-style:normal;font-weight:normal;font-size:378px;font-family:Helvetica;text-anchor:start;fill:#0000ff;stroke-width:0.025in"
     id="text8"
     font-size="378"
     font-weight="normal"
     font-style="normal"
     y="9212"
     x="6850"
     xml:space="preserve">Papier</text>
  <ellipse
     cy="7322"
     cx="4251"
     id="ellipse10"
     style="fill:#ffffff;stroke:#00b000;stroke-width:63"
     ry="472"
     rx="314" />
  <ellipse
     cy="10110"
     cx="2913"
     id="ellipse12"
     style="fill:#ff0000;stroke:#ff0000;stroke-width:8"
     ry="56"
     rx="73" />
  <ellipse
     cy="10393"
     cx="2913"
     id="ellipse14"
     style="fill:#ff0000;stroke:#ff0000;stroke-width:8"
     ry="56"
     rx="73" />
  <ellipse
     cy="10677"
     cx="2913"
     id="ellipse16"
     style="fill:#ff0000;stroke:#ff0000;stroke-width:8"
     ry="56"
     rx="73" />
  <ellipse
     cy="10960"
     cx="2913"
     id="ellipse18"
     style="fill:#ff0000;stroke:#ff0000;stroke-width:8"
     ry="56"
     rx="73" />
  <ellipse
     cy="11244"
     cx="2913"
     id="ellipse20"
     style="fill:#ff0000;stroke:#ff0000;stroke-width:8"
     ry="56"
     rx="73" />
  <ellipse
     cy="10251"
     cx="3464"
     id="ellipse22"
     style="fill:#ff0000;stroke:#ff0000;stroke-width:8"
     ry="56"
     rx="73" />
  <ellipse
     cy="10535"
     cx="3464"
     id="ellipse24"
     style="fill:#ff0000;stroke:#ff0000;stroke-width:8"
     ry="56"
     rx="73" />
  <ellipse
     cy="10818"
     cx="3464"
     id="ellipse26"
     style="fill:#ff0000;stroke:#ff0000;stroke-width:8"
     ry="56"
     rx="73" />
  <ellipse
     cy="11102"
     cx="3464"
     id="ellipse28"
     style="fill:#ff0000;stroke:#ff0000;stroke-width:8"
     ry="56"
     rx="73" />
  <ellipse
     cy="11385"
     cx="3464"
     id="ellipse30"
     style="fill:#ff0000;stroke:#ff0000;stroke-width:8"
     ry="56"
     rx="73" />
  <rect
     id="rect32"
     style="fill:none;stroke:#ff0000;stroke-width:63;stroke-linecap:butt;stroke-linejoin:miter"
     rx="0"
     height="1842"
     width="1286"
     y="9826"
     x="2545" />
  <rect
     id="rect34"
     style="fill:#ffffff;stroke:#00b000;stroke-width:0;stroke-linecap:butt;stroke-linejoin:miter"
     rx="0"
     height="944"
     width="3779"
     y="6850"
     x="4251" />
  <ellipse
     cy="7322"
     cx="8031"
     id="ellipse36"
     style="fill:#ffffff;stroke:#00b000;stroke-width:63"
     ry="472"
     rx="314" />
  <polyline
     id="polyline38"
     style="fill:#ffffff;stroke:#00b000;stroke-width:63;stroke-linecap:butt;stroke-linejoin:miter"
     points="4251,7795 8031,7795 " />
  <polyline
     id="polyline40"
     style="fill:none;stroke:#ff0000;stroke-width:63;stroke-linecap:butt;stroke-linejoin:round"
     points="5212,5669 6125,5669 " />
  <polygon
     id="polygon42"
     style="fill:#ff0000;stroke:#ff0000;stroke-width:63;stroke-miterlimit:8"
     points="6185,5590 6122,5669 6185,5748 6185,5748 6374,5669 " />
  <polygon
     id="polygon44"
     style="fill:#ff0000;stroke:#ff0000;stroke-width:63;stroke-miterlimit:8"
     points="5152,5748 5215,5669 5152,5590 5152,5590 4963,5669 " />
  <polyline
     id="polyline46"
     style="fill:#ffffff;stroke:#00b000;stroke-width:63;stroke-linecap:butt;stroke-linejoin:miter"
     points="4251,6850 8031,6850 " />
  <text
     style="font-style:normal;font-weight:normal;font-size:378px;font-family:Times;text-anchor:middle;fill:#ff0000;stroke-width:0.025in"
     id="text48"
     font-size="378"
     font-weight="normal"
     font-style="normal"
     y="5433"
     x="5669"
     xml:space="preserve">$vₓ$</text>
  <text
     style="font-style:normal;font-weight:normal;font-size:378px;font-family:Times;text-anchor:end;fill:#00b000;stroke-width:0.025in"
     id="text50"
     font-size="378"
     font-weight="normal"
     font-style="normal"
     y="7511"
     x="10440"
     xml:space="preserve">$v_y$</text>
  <polygon
     id="polygon52"
     style="fill:#d8d8ff;stroke:#0000ff;stroke-width:63;stroke-linecap:butt;stroke-linejoin:round"
     points="4204,7086 4157,7228 4157,7417 4204,7559 4299,7700 4488,7795 4629,7889 4724,8031 4960,8503 8267,8503 8031,8031 7937,7889 7795,7795 7606,7700 7511,7559 7464,7464 7464,7228 7511,7086 7606,6944 7795,6850 7937,6755 8031,6614 8267,6141 4960,6141 4724,6614 4629,6755 4488,6850 4488,6850 4299,6944 " />
  <text
     style="font-style:normal;font-weight:normal;font-size:378px;font-family:Helvetica;text-anchor:start;fill:#ff0000;stroke-width:0.025in"
     id="text54"
     font-size="378"
     font-weight="normal"
     font-style="normal"
     y="9448"
     x="1889"
     xml:space="preserve">Druckkopf</text>
  <text
     style="font-style:normal;font-weight:normal;font-size:378px;font-family:Helvetica;text-anchor:start;fill:#ff0000;stroke-width:0.025in"
     id="text56"
     font-size="378"
     font-weight="normal"
     font-style="normal"
     y="10629"
     x="4251"
     xml:space="preserve">meist ein paar Dutzend Punkte,</text>
  <text
     style="font-style:normal;font-weight:normal;font-size:378px;font-family:Helvetica;text-anchor:start;fill:#ff0000;stroke-width:0.025in"
     id="text58"
     font-size="378"
     font-weight="normal"
     font-style="normal"
     y="11338"
     x="4251"
     xml:space="preserve">vertikal adressierbar</text>
  <polyline
     id="polyline60"
     style="fill:#ff0000;stroke:#b000b0;stroke-width:63;stroke-linecap:butt;stroke-linejoin:miter"
     points="4393,7133 5433,7133 " />
  <polyline
     id="polyline62"
     style="fill:#ff0000;stroke:#b000b0;stroke-width:63;stroke-linecap:butt;stroke-linejoin:miter"
     points="4582,7039 5196,7039 " />
  <polyline
     id="polyline64"
     style="fill:#ff0000;stroke:#b000b0;stroke-width:63;stroke-linecap:butt;stroke-linejoin:miter"
     points="4771,6944 5196,6944 " />
  <polyline
     id="polyline66"
     style="fill:#ff0000;stroke:#b000b0;stroke-width:63;stroke-linecap:butt;stroke-linejoin:miter"
     points="4866,6850 6188,6850 " />
  <polyline
     id="polyline68"
     style="fill:#ff0000;stroke:#b000b0;stroke-width:63;stroke-linecap:butt;stroke-linejoin:miter"
     points="4960,6755 7559,6755 " />
  <polyline
     id="polyline70"
     style="fill:#ff0000;stroke:#b000b0;stroke-width:63;stroke-linecap:butt;stroke-linejoin:miter"
     points="5007,6661 5716,6661 " />
  <polyline
     id="polyline72"
     style="fill:#ff0000;stroke:#b000b0;stroke-width:63;stroke-linecap:butt;stroke-linejoin:miter"
     points="5102,6425 6661,6425 " />
  <polyline
     id="polyline74"
     style="fill:#ff0000;stroke:#b000b0;stroke-width:63;stroke-linecap:butt;stroke-linejoin:miter"
     points="5196,6330 6377,6330 " />
  <rect
     id="rect76"
     style="fill:#ff0000;stroke:#ff0000;stroke-width:8;stroke-linecap:butt;stroke-linejoin:miter"
     rx="0"
     height="425"
     width="283"
     y="7275"
     x="5527" />
  <polyline
     id="polyline78"
     style="fill:#ff0000;stroke:#b000b0;stroke-width:63;stroke-linecap:butt;stroke-linejoin:miter"
     points="4346,7275 5196,7275 " />
  <polyline
     id="polyline80"
     style="fill:#ff0000;stroke:#b000b0;stroke-width:63;stroke-linecap:butt;stroke-linejoin:miter"
     points="4346,7370 5433,7370 " />
  <polyline
     id="polyline82"
     style="fill:#ff0000;stroke:#ff0000;stroke-width:32;stroke-linecap:butt;stroke-linejoin:miter"
     points="4152,8781 5303,7884 " />
  <polygon
     id="polygon84"
     style="fill:#ff0000;stroke:#ff0000;stroke-width:16;stroke-miterlimit:8"
     points="5324,7806 5322,7868 5382,7881 5382,7881 5447,7772 " />
  <polyline
     id="polyline86"
     style="fill:none;stroke:#00b000;stroke-width:63;stroke-linecap:butt;stroke-linejoin:bevel"
     points="9803,6866 9898,7043 9884,7019 9867,6990 9849,6958 9830,6925 9811,6894 9792,6864 9774,6835 9756,6809 9739,6786 9723,6765 9708,6747 9692,6731 9677,6717 9661,6704 9646,6692 9629,6682 9611,6672 9593,6664 9574,6657 9555,6650 9534,6645 9513,6641 9492,6638 9470,6636 9448,6636 9426,6636 9404,6638 9383,6641 9362,6645 9341,6650 9322,6657 9303,6664 9286,6672 9268,6682 9252,6692 9235,6704 9219,6717 9205,6730 9189,6745 9174,6762 9160,6780 9146,6798 9131,6818 9118,6839 9105,6860 9092,6883 9081,6907 9070,6929 9060,6952 9050,6975 9042,6998 9035,7020 9027,7043 9021,7064 9016,7086 9011,7108 9005,7130 9001,7152 8998,7175 8995,7198 8992,7223 8990,7247 8988,7272 8987,7297 8986,7322 8987,7348 8988,7373 8990,7398 8992,7422 8995,7446 8998,7469 9001,7492 9005,7514 9011,7537 9016,7559 9021,7581 9027,7602 9035,7625 9042,7647 9050,7670 9060,7693 9070,7716 9081,7738 9092,7761 9105,7784 9118,7805 9131,7826 9146,7846 9160,7865 9174,7883 9189,7900 9205,7914 9219,7928 9235,7941 9252,7952 9268,7963 9286,7972 9303,7981 9322,7988 9341,7994 9362,8000 9383,8004 9404,8007 9426,8009 9448,8009 9470,8009 9492,8007 9513,8004 9534,8000 9555,7994 9574,7988 9593,7981 9611,7972 9629,7963 9646,7952 9661,7941 9677,7928 9692,7913 9708,7898 9723,7880 9739,7859 9756,7836 9774,7809 9792,7781 9811,7751 9830,7719 9849,7687 9867,7655 9884,7626 9898,7602 9802,7779 " />
  <polygon
     id="polygon88"
     style="fill:#00b000;stroke:#00b000;stroke-width:63;stroke-miterlimit:8"
     points="9761,7691 9801,7783 9901,7764 9901,7764 9920,7561 " />
  <polygon
     id="polygon90"
     style="fill:#00b000;stroke:#00b000;stroke-width:63;stroke-miterlimit:8"
     points="9899,6878 9800,6860 9760,6953 9760,6953 9919,7083 " />
  <polygon
     id="polygon92"
     style="fill:#ffffff;stroke:#000000;stroke-width:32;stroke-linecap:butt;stroke-linejoin:round"
     points="7849,7417 7771,7511 3630,7511 3630,7511 3709,7417 " />
  <polygon
     id="polygon94"
     style="fill:#ffffff;stroke:#000000;stroke-width:32;stroke-linecap:butt;stroke-linejoin:round"
     points="7771,7606 7771,7511 7849,7417 7849,7417 7849,7511 " />
  <polygon
     id="polygon96"
     style="fill:#ffffff;stroke:#000000;stroke-width:32;stroke-linecap:butt;stroke-linejoin:round"
     points="7771,7511 3630,7511 3630,7606 3630,7606 7771,7606 " />
  <polyline
     id="polyline98"
     style="fill:#ff0000;stroke:#000000;stroke-width:63;stroke-linecap:butt;stroke-linejoin:miter"
     points="7795,7511 8031,7322 " />
</svg>
