<?xml version="1.0" encoding="UTF-8" standalone="no"?>
<!-- Creator: fig2dev Version 3.2 Patchlevel 5e -->

<!-- CreationDate: Wed Oct 28 10:34:36 2015 -->

<!-- Magnification: 1.050 -->

<svg
   xmlns:dc="http://purl.org/dc/elements/1.1/"
   xmlns:cc="http://creativecommons.org/ns#"
   xmlns:rdf="http://www.w3.org/1999/02/22-rdf-syntax-ns#"
   xmlns:svg="http://www.w3.org/2000/svg"
   xmlns="http://www.w3.org/2000/svg"
   xmlns:sodipodi="http://sodipodi.sourceforge.net/DTD/sodipodi-0.dtd"
   xmlns:inkscape="http://www.inkscape.org/namespaces/inkscape"
   width="6.2in"
   height="3.6in"
   viewBox="1833 2777 7436 4365"
   id="svg2"
   version="1.1"
   inkscape:version="0.91 r13725"
   sodipodi:docname="fig_farbePhongNormalen.svg">
  <metadata
     id="metadata60">
    <rdf:RDF>
      <cc:Work
         rdf:about="">
        <dc:format>image/svg+xml</dc:format>
        <dc:type
           rdf:resource="http://purl.org/dc/dcmitype/StillImage" />
      </cc:Work>
    </rdf:RDF>
  </metadata>
  <defs
     id="defs58" />
  <sodipodi:namedview
     pagecolor="#ffffff"
     bordercolor="#666666"
     borderopacity="1"
     objecttolerance="10"
     gridtolerance="10"
     guidetolerance="10"
     inkscape:pageopacity="0"
     inkscape:pageshadow="2"
     inkscape:window-width="640"
     inkscape:window-height="480"
     id="namedview56"
     showgrid="false"
     inkscape:zoom="0.72839508"
     inkscape:cx="278.99999"
     inkscape:cy="162"
     inkscape:window-x="142"
     inkscape:window-y="60"
     inkscape:window-maximized="0"
     inkscape:current-layer="svg2" />
  <polygon
     id="polygon6"
     style="fill:#ffd8d8;stroke:#ff0000;stroke-width:0;stroke-linecap:butt;stroke-linejoin:miter"
     points="8267,7086 2834,5905 2834,5905 8031,4015 " />
  <polyline
     id="polyline8"
     style="fill:#ffd8d8;stroke:#ff0000;stroke-width:32;stroke-linecap:butt;stroke-linejoin:bevel"
     points="2834,5905 2835,5904 2838,5902 2844,5899 2852,5892 2865,5885 2881,5874 2902,5859 2929,5842 2960,5821 2996,5797 3038,5769 3084,5738 3135,5703 3191,5668 3251,5628 3314,5587 3380,5544 3448,5500 3518,5455 3589,5408 3661,5362 3733,5316 3805,5270 3877,5225 3948,5181 4018,5138 4087,5096 4154,5055 4220,5015 4284,4976 4346,4939 4407,4904 4467,4871 4524,4838 4580,4807 4635,4777 4688,4749 4741,4722 4792,4696 4843,4671 4892,4647 4941,4624 4990,4603 5038,4582 5085,4561 5132,4542 5180,4523 5228,4506 5275,4488 5322,4471 5371,4454 5419,4438 5468,4423 5518,4407 5567,4392 5618,4379 5670,4365 5723,4351 5777,4338 5833,4325 5890,4312 5949,4300 6010,4287 6072,4275 6137,4263 6203,4251 6271,4239 6343,4227 6415,4216 6491,4204 6567,4193 6646,4181 6727,4171 6809,4159 6892,4148 6976,4137 7060,4127 7144,4116 7227,4106 7309,4095 7388,4086 7466,4077 7540,4069 7610,4060 7675,4053 7735,4047 7791,4040 7839,4035 7883,4031 7920,4027 7950,4024 7975,4020 7995,4018 8010,4017 8019,4016 8026,4015 8030,4015 8031,4015 " />
  <polyline
     id="polyline10"
     style="fill:#ffd8d8;stroke:#ff0000;stroke-width:32;stroke-linecap:butt;stroke-linejoin:bevel"
     points="8031,4015 8032,4017 8033,4020 8036,4028 8040,4038 8047,4054 8055,4075 8066,4102 8078,4134 8094,4172 8111,4214 8129,4261 8149,4312 8171,4368 8193,4426 8215,4485 8238,4545 8261,4607 8284,4668 8306,4729 8327,4789 8348,4848 8368,4904 8387,4959 8404,5013 8420,5064 8436,5113 8450,5161 8464,5206 8475,5250 8487,5293 8496,5334 8506,5374 8513,5412 8520,5449 8527,5486 8532,5523 8536,5559 8540,5594 8543,5630 8545,5669 8548,5708 8548,5746 8548,5785 8546,5825 8544,5866 8541,5907 8538,5949 8533,5993 8527,6038 8519,6085 8511,6133 8501,6183 8491,6236 8479,6289 8467,6346 8453,6403 8439,6461 8425,6521 8409,6581 8393,6641 8377,6700 8362,6758 8347,6811 8332,6862 8319,6909 8307,6951 8297,6986 8288,7017 8281,7040 8276,7059 8271,7071 8269,7080 8268,7084 8267,7086 " />
  <polyline
     id="polyline12"
     style="fill:#ffffff;stroke:#ff0000;stroke-width:32;stroke-linecap:butt;stroke-linejoin:bevel"
     points="2834,5905 2835,5905 2838,5905 2845,5906 2855,5907 2869,5908 2888,5909 2912,5911 2942,5914 2978,5918 3021,5921 3069,5926 3123,5930 3183,5935 3248,5942 3318,5948 3392,5954 3469,5962 3550,5969 3634,5977 3719,5986 3805,5994 3892,6003 3980,6011 4066,6019 4152,6028 4237,6037 4321,6046 4402,6054 4482,6064 4560,6072 4636,6080 4709,6089 4781,6097 4850,6106 4917,6115 4982,6123 5045,6132 5106,6140 5166,6149 5224,6157 5280,6165 5335,6174 5388,6183 5441,6192 5492,6201 5543,6211 5592,6220 5641,6229 5691,6239 5739,6249 5787,6260 5839,6270 5890,6283 5942,6295 5993,6307 6045,6320 6096,6333 6149,6347 6201,6362 6255,6376 6309,6392 6364,6409 6420,6426 6478,6444 6538,6462 6598,6481 6661,6501 6724,6523 6790,6545 6857,6567 6927,6592 6997,6617 7069,6642 7143,6668 7217,6695 7293,6722 7369,6749 7444,6777 7520,6805 7594,6832 7668,6859 7738,6886 7806,6912 7871,6936 7932,6958 7988,6980 8039,6999 8086,7017 8127,7033 8161,7045 8191,7057 8215,7066 8234,7074 8247,7079 8257,7082 8263,7084 8266,7085 8267,7086 " />
  <polygon
     id="polygon14"
     style="fill:none;stroke:#0000ff;stroke-width:63;stroke-linecap:butt;stroke-linejoin:round"
     points="8267,7086 2834,5905 2834,5905 8031,4015 " />
  <polyline
     id="polyline16"
     style="fill:none;stroke:#0000ff;stroke-width:63;stroke-linecap:butt;stroke-linejoin:miter"
     points="2834,5905 2028,4697 " />
  <polygon
     id="polygon18"
     style="fill:#0000ff;stroke:#0000ff;stroke-width:63;stroke-miterlimit:8"
     points="1929,4690 2030,4699 2060,4603 2060,4603 1890,4490 " />
  <polyline
     id="polyline20"
     style="fill:none;stroke:#0000ff;stroke-width:63;stroke-linecap:butt;stroke-linejoin:miter"
     points="8031,4015 8611,3049 " />
  <polygon
     id="polygon22"
     style="fill:#0000ff;stroke:#0000ff;stroke-width:63;stroke-miterlimit:8"
     points="8573,2957 8607,3051 8707,3038 8707,3038 8738,2836 " />
  <polyline
     id="polyline24"
     style="fill:none;stroke:#0000ff;stroke-width:63;stroke-linecap:butt;stroke-linejoin:miter"
     points="8267,7086 8967,6910 " />
  <polygon
     id="polygon26"
     style="fill:#0000ff;stroke:#0000ff;stroke-width:63;stroke-miterlimit:8"
     points="9005,6819 8963,6911 9043,6972 9043,6972 9208,6850 " />
  <polyline
     id="polyline28"
     style="fill:none;stroke:#b000b0;stroke-width:63;stroke-linecap:butt;stroke-linejoin:miter"
     points="4724,5196 4287,3968 " />
  <polygon
     id="polygon30"
     style="fill:#b000b0;stroke:#b000b0;stroke-width:63;stroke-miterlimit:8"
     points="4193,3938 4288,3971 4341,3885 4341,3885 4204,3734 " />
  <polyline
     id="polyline32"
     style="fill:none;stroke:#b000b0;stroke-width:63;stroke-linecap:butt;stroke-linejoin:miter"
     points="6614,4488 6731,3273 " />
  <polygon
     id="polygon34"
     style="fill:#b000b0;stroke:#b000b0;stroke-width:63;stroke-miterlimit:8"
     points="6659,3206 6730,3276 6815,3222 6815,3222 6755,3026 " />
  <polyline
     id="polyline36"
     style="fill:none;stroke:#b000b0;stroke-width:63;stroke-linecap:butt;stroke-linejoin:miter"
     points="8125,5102 8703,4523 " />
  <polygon
     id="polygon38"
     style="fill:#b000b0;stroke:#b000b0;stroke-width:63;stroke-miterlimit:8"
     points="8689,4425 8701,4524 8801,4536 8801,4536 8879,4347 " />
  <polyline
     id="polyline40"
     style="fill:none;stroke:#b000b0;stroke-width:63;stroke-linecap:butt;stroke-linejoin:miter"
     points="8173,6047 8803,5696 " />
  <polygon
     id="polygon42"
     style="fill:#b000b0;stroke:#b000b0;stroke-width:63;stroke-miterlimit:8"
     points="8816,5598 8800,5697 8893,5736 8893,5736 9020,5575 " />
  <polyline
     id="polyline44"
     style="fill:none;stroke:#b000b0;stroke-width:63;stroke-linecap:butt;stroke-linejoin:miter"
     points="4771,6330 4808,5495 " />
  <polygon
     id="polygon46"
     style="fill:#b000b0;stroke:#b000b0;stroke-width:63;stroke-miterlimit:8"
     points="4731,5432 4807,5498 4889,5439 4889,5439 4818,5247 " />
  <polyline
     id="polyline48"
     style="fill:none;stroke:#b000b0;stroke-width:63;stroke-linecap:butt;stroke-linejoin:miter"
     points="6661,6755 7168,6102 " />
  <polygon
     id="polygon50"
     style="fill:#b000b0;stroke:#b000b0;stroke-width:63;stroke-miterlimit:8"
     points="7142,6008 7165,6106 7266,6104 7266,6104 7320,5907 " />
  <polyline
     id="polyline52"
     style="fill:none;stroke:#b000b0;stroke-width:63;stroke-linecap:butt;stroke-linejoin:miter"
     points="6094,5574 6240,4734 " />
  <polygon
     id="polygon54"
     style="fill:#b000b0;stroke:#b000b0;stroke-width:63;stroke-miterlimit:8"
     points="6172,4663 6239,4739 6327,4690 6327,4690 6282,4491 " />
</svg>
