<?xml version="1.0" encoding="UTF-8" standalone="no"?>
<!-- Creator: fig2dev Version 3.2 Patchlevel 5e -->

<!-- CreationDate: Tue Oct 27 16:11:00 2015 -->

<!-- Magnification: 1.050 -->

<svg
   xmlns:dc="http://purl.org/dc/elements/1.1/"
   xmlns:cc="http://creativecommons.org/ns#"
   xmlns:rdf="http://www.w3.org/1999/02/22-rdf-syntax-ns#"
   xmlns:svg="http://www.w3.org/2000/svg"
   xmlns="http://www.w3.org/2000/svg"
   xmlns:sodipodi="http://sodipodi.sourceforge.net/DTD/sodipodi-0.dtd"
   xmlns:inkscape="http://www.inkscape.org/namespaces/inkscape"
   width="8.2in"
   height="2.7in"
   viewBox="2110 4453 9818 3291"
   id="svg2"
   version="1.1"
   inkscape:version="0.91 r13725"
   sodipodi:docname="fig_farbeEffekteWinkelabhaengig2.svg">
  <metadata
     id="metadata24">
    <rdf:RDF>
      <cc:Work
         rdf:about="">
        <dc:format>image/svg+xml</dc:format>
        <dc:type
           rdf:resource="http://purl.org/dc/dcmitype/StillImage" />
      </cc:Work>
    </rdf:RDF>
  </metadata>
  <defs
     id="defs22" />
  <sodipodi:namedview
     pagecolor="#ffffff"
     bordercolor="#666666"
     borderopacity="1"
     objecttolerance="10"
     gridtolerance="10"
     guidetolerance="10"
     inkscape:pageopacity="0"
     inkscape:pageshadow="2"
     inkscape:window-width="640"
     inkscape:window-height="480"
     id="namedview20"
     showgrid="false"
     inkscape:zoom="0.61653118"
     inkscape:cx="368.99999"
     inkscape:cy="121.5"
     inkscape:window-x="142"
     inkscape:window-y="60"
     inkscape:window-maximized="0"
     inkscape:current-layer="svg2" />
  <polyline
     id="polyline6"
     style="fill:none;stroke:#000000;stroke-width:32;stroke-linecap:butt;stroke-linejoin:miter"
     points="3070,7086 7370,7086 " />
  <polygon
     id="polygon8"
     style="fill:#000000;stroke:#000000;stroke-width:32;stroke-miterlimit:8"
     points="7415,7039 7367,7086 7415,7133 7415,7133 7556,7086 " />
  <polyline
     id="polyline10"
     style="fill:none;stroke:#000000;stroke-width:32;stroke-linecap:butt;stroke-linejoin:miter"
     points="3070,7086 3070,4676 " />
  <polygon
     id="polygon12"
     style="fill:#000000;stroke:#000000;stroke-width:32;stroke-miterlimit:8"
     points="3023,4632 3070,4679 3118,4632 3118,4632 3070,4490 " />
  <polyline
     id="polyline14"
     style="fill:none;stroke:#b000b0;stroke-width:63;stroke-linecap:butt;stroke-linejoin:bevel"
     points="3070,5196 3071,5196 3076,5196 3086,5197 3102,5198 3125,5201 3150,5203 3176,5206 3202,5210 3225,5214 3247,5219 3267,5226 3286,5233 3303,5241 3322,5252 3335,5259 3349,5269 3363,5278 3377,5289 3392,5301 3407,5315 3423,5329 3439,5345 3455,5362 3470,5380 3487,5400 3503,5420 3519,5441 3533,5463 3548,5485 3563,5508 3576,5531 3589,5555 3602,5581 3614,5606 3623,5626 3632,5647 3640,5669 3650,5692 3658,5715 3668,5740 3676,5765 3686,5792 3695,5819 3704,5846 3714,5875 3723,5904 3733,5933 3742,5963 3752,5991 3762,6020 3772,6050 3781,6078 3791,6106 3800,6133 3809,6159 3819,6185 3828,6211 3838,6236 3848,6260 3858,6283 3869,6310 3882,6338 3896,6364 3908,6391 3923,6418 3937,6445 3952,6472 3967,6498 3983,6525 3998,6552 4014,6577 4030,6602 4046,6626 4060,6649 4076,6672 4090,6693 4104,6714 4117,6734 4130,6752 4142,6770 4154,6787 4165,6803 4174,6816 4183,6829 4192,6841 4201,6854 4211,6866 4221,6878 4233,6890 4244,6901 4258,6913 4272,6924 4288,6935 4305,6945 4324,6956 4345,6965 4367,6975 4391,6984 4417,6993 4445,7000 4474,7007 4506,7015 4539,7021 4575,7027 4613,7033 4653,7038 4695,7042 4740,7047 4768,7049 4797,7051 4828,7054 4860,7056 4894,7058 4929,7060 4966,7061 5005,7063 5047,7065 5091,7066 5138,7067 5186,7069 5237,7070 5292,7071 5350,7072 5409,7074 5472,7075 5538,7076 5607,7077 5677,7078 5751,7079 5826,7080 5904,7080 5982,7081 6060,7082 6139,7082 6218,7083 6293,7083 6367,7084 6438,7084 6504,7084 6565,7085 6622,7085 6671,7085 6714,7085 6752,7086 6782,7086 6806,7086 6824,7086 6836,7086 6844,7086 6848,7086 6850,7086 " />
  <text
     style="font-style:normal;font-weight:normal;font-size:429px;font-family:Times;text-anchor:start;fill:#000000;stroke-width:0.025in"
     id="text16"
     font-size="429"
     font-weight="normal"
     font-style="normal"
     y="7559"
     x="7559"
     xml:space="preserve">$ψ$</text>
  <text
     style="font-style:normal;font-weight:normal;font-size:429px;font-family:Times;text-anchor:start;fill:#000000;stroke-width:0.025in"
     id="text18"
     font-size="429"
     font-weight="normal"
     font-style="normal"
     y="4960"
     x="2125"
     xml:space="preserve">$\frac{I_{\text{out}}}{I_{\text{in}}}$</text>
</svg>
