<?xml version="1.0" encoding="UTF-8" standalone="no"?>
<!-- Creator: fig2dev Version 3.2 Patchlevel 5e -->

<!-- CreationDate: Thu Sep 24 15:13:48 2015 -->

<!-- Magnification: 1.050 -->

<svg
   xmlns:dc="http://purl.org/dc/elements/1.1/"
   xmlns:cc="http://creativecommons.org/ns#"
   xmlns:rdf="http://www.w3.org/1999/02/22-rdf-syntax-ns#"
   xmlns:svg="http://www.w3.org/2000/svg"
   xmlns="http://www.w3.org/2000/svg"
   xmlns:sodipodi="http://sodipodi.sourceforge.net/DTD/sodipodi-0.dtd"
   xmlns:inkscape="http://www.inkscape.org/namespaces/inkscape"
   width="6.5in"
   height="3.5in"
   viewBox="2541 2440 7765 4188"
   id="svg2"
   version="1.1"
   inkscape:version="0.91 r13725"
   sodipodi:docname="fig_hardwareDruckerNadel.svg">
  <metadata
     id="metadata40">
    <rdf:RDF>
      <cc:Work
         rdf:about="">
        <dc:format>image/svg+xml</dc:format>
        <dc:type
           rdf:resource="http://purl.org/dc/dcmitype/StillImage" />
      </cc:Work>
    </rdf:RDF>
  </metadata>
  <defs
     id="defs38" />
  <sodipodi:namedview
     pagecolor="#ffffff"
     bordercolor="#666666"
     borderopacity="1"
     objecttolerance="10"
     gridtolerance="10"
     guidetolerance="10"
     inkscape:pageopacity="0"
     inkscape:pageshadow="2"
     inkscape:window-width="640"
     inkscape:window-height="480"
     id="namedview36"
     showgrid="false"
     inkscape:zoom="0.74920635"
     inkscape:cx="292.5"
     inkscape:cy="157.5"
     inkscape:window-x="142"
     inkscape:window-y="60"
     inkscape:window-maximized="0"
     inkscape:current-layer="svg2" />
  <polygon
     id="polygon6"
     style="fill:#d8d8ff;stroke:#0000ff;stroke-width:63;stroke-linecap:butt;stroke-linejoin:miter"
     points="5433,4960 2598,5905 2598,3543 2598,3543 5433,2598 " />
  <polygon
     id="polygon8"
     style="fill:#ff7f7f;stroke:#ff0000;stroke-width:0;stroke-linecap:butt;stroke-linejoin:miter"
     points="4724,4251 3307,4724 3307,4251 3307,4251 4724,3779 " />
  <polyline
     id="polyline10"
     style="fill:#ff7f7f;stroke:#ff0000;stroke-width:63;stroke-linecap:butt;stroke-linejoin:miter"
     points="3307,4251 4724,3779 " />
  <polyline
     id="polyline12"
     style="fill:#ff7f7f;stroke:#ff0000;stroke-width:63;stroke-linecap:butt;stroke-linejoin:miter"
     points="3307,4724 4724,4251 " />
  <polyline
     id="polyline14"
     style="fill:none;stroke:#000000;stroke-width:63;stroke-linecap:butt;stroke-linejoin:miter"
     points="6157,4960 6834,4960 " />
  <polygon
     id="polygon16"
     style="fill:#000000;stroke:#000000;stroke-width:63;stroke-miterlimit:8"
     points="6894,4881 6831,4960 6894,5039 6894,5039 7083,4960 " />
  <polygon
     id="polygon18"
     style="fill:#000000;stroke:#000000;stroke-width:63;stroke-miterlimit:8"
     points="6097,5039 6160,4960 6097,4881 6097,4881 5908,4960 " />
  <polyline
     id="polyline20"
     style="fill:none;stroke:#00b000;stroke-width:63;stroke-linecap:butt;stroke-linejoin:bevel"
     points="5732,3875 5733,3875 5736,3878 5743,3884 5756,3893 5771,3905 5785,3918 5800,3930 5813,3942 5824,3953 5834,3963 5841,3973 5849,3984 5856,3995 5863,4007 5869,4020 5877,4035 5883,4050 5888,4067 5893,4085 5899,4101 5903,4119 5907,4137 5910,4155 5912,4173 5914,4188 5916,4205 5918,4222 5919,4241 5920,4260 5920,4280 5920,4300 5920,4319 5920,4339 5919,4358 5918,4376 5916,4393 5914,4410 5912,4426 5910,4444 5907,4461 5903,4478 5899,4496 5895,4513 5890,4530 5885,4544 5880,4559 5875,4571 5869,4582 5864,4592 5860,4599 5857,4603 5854,4607 5849,4612 5846,4615 5843,4617 5839,4619 5836,4621 5832,4621 5827,4622 5824,4621 5820,4621 5817,4619 5813,4617 5809,4615 5805,4612 5802,4607 5799,4603 5796,4599 5791,4592 5786,4582 5781,4571 5776,4559 5771,4544 5765,4530 5760,4513 5756,4496 5752,4478 5749,4461 5745,4444 5742,4426 5741,4412 5739,4397 5738,4383 5737,4367 5737,4350 5736,4333 5737,4316 5738,4297 5739,4279 5741,4260 5743,4242 5746,4224 5750,4207 5754,4191 5758,4174 5763,4157 5770,4141 5776,4124 5783,4108 5792,4091 5800,4074 5809,4056 5820,4039 5830,4023 5841,4006 5851,3991 5863,3976 5874,3963 5883,3951 5893,3940 5903,3930 5912,3922 5924,3911 5937,3903 5948,3897 5961,3890 5972,3886 5985,3883 5997,3882 6009,3882 6019,3882 6030,3884 6040,3887 6050,3890 6061,3895 6074,3901 6087,3908 6099,3917 6113,3926 6125,3937 6137,3947 6148,3960 6158,3971 6167,3984 6174,3995 6181,4007 6187,4020 6195,4035 6201,4050 6206,4067 6212,4085 6217,4101 6221,4119 6225,4137 6228,4155 6230,4173 6233,4188 6234,4205 6236,4222 6237,4241 6238,4260 6238,4280 6238,4300 6238,4319 6238,4339 6237,4358 6236,4376 6234,4393 6233,4410 6230,4426 6228,4444 6225,4461 6221,4478 6217,4496 6213,4513 6208,4530 6203,4544 6198,4559 6193,4571 6187,4582 6182,4592 6178,4599 6175,4603 6172,4607 6167,4612 6164,4615 6161,4617 6157,4619 6154,4621 6150,4621 6145,4622 6142,4621 6138,4621 6135,4619 6131,4617 6128,4615 6123,4612 6120,4607 6117,4603 6114,4599 6109,4592 6104,4582 6099,4571 6094,4559 6089,4544 6083,4530 6078,4513 6074,4496 6070,4478 6067,4461 6064,4444 6060,4426 6059,4412 6057,4397 6056,4383 6055,4367 6055,4350 6054,4333 6055,4316 6056,4297 6057,4279 6059,4260 6061,4242 6065,4224 6068,4207 6072,4191 6076,4174 6081,4157 6088,4141 6094,4124 6101,4108 6110,4091 6118,4074 6128,4056 6138,4039 6149,4023 6159,4006 6170,3991 6181,3976 6192,3963 6201,3951 6212,3940 6221,3930 6230,3922 6242,3911 6255,3903 6266,3897 6279,3890 6290,3886 6303,3883 6316,3882 6327,3882 6338,3882 6348,3884 6359,3887 6368,3890 6380,3895 6392,3901 6405,3908 6417,3917 6431,3926 6444,3937 6455,3947 6466,3960 6476,3971 6486,3984 6492,3995 6499,4007 6506,4020 6513,4035 6519,4050 6524,4067 6530,4085 6535,4101 6539,4119 6543,4137 6546,4155 6549,4173 6551,4188 6552,4205 6554,4222 6555,4241 6556,4260 6556,4280 6556,4300 6556,4319 6556,4339 6555,4358 6554,4376 6552,4393 6551,4410 6549,4426 6546,4444 6543,4461 6539,4478 6535,4496 6531,4513 6527,4530 6521,4544 6516,4559 6511,4571 6506,4582 6500,4592 6496,4599 6493,4603 6490,4607 6486,4612 6482,4615 6479,4617 6475,4619 6472,4621 6468,4621 6464,4622 6460,4621 6456,4621 6453,4619 6449,4617 6446,4615 6441,4612 6438,4607 6435,4603 6432,4599 6427,4592 6423,4582 6417,4571 6412,4559 6407,4544 6402,4530 6396,4513 6392,4496 6388,4478 6385,4461 6382,4444 6379,4426 6377,4412 6375,4397 6374,4383 6373,4367 6373,4350 6372,4333 6373,4316 6374,4297 6375,4279 6377,4260 6380,4242 6383,4224 6386,4207 6390,4191 6394,4174 6400,4157 6406,4141 6412,4124 6419,4108 6428,4091 6436,4074 6446,4056 6456,4039 6467,4023 6477,4006 6488,3991 6499,3976 6510,3963 6520,3951 6530,3940 6539,3930 6549,3922 6560,3911 6573,3903 6584,3897 6597,3890 6609,3886 6622,3883 6634,3882 6645,3882 6657,3882 6667,3884 6677,3887 6687,3890 6699,3895 6710,3901 6723,3908 6735,3917 6749,3926 6762,3937 6773,3947 6784,3960 6794,3971 6803,3984 6810,3995 6817,4007 6824,4020 6830,4035 6837,4050 6843,4067 6849,4085 6853,4101 6857,4119 6861,4137 6865,4155 6868,4173 6870,4188 6871,4205 6873,4222 6874,4241 6874,4260 6875,4280 6875,4300 6875,4319 6874,4339 6874,4358 6873,4376 6871,4393 6870,4410 6868,4426 6865,4444 6861,4461 6858,4478 6854,4496 6849,4513 6845,4530 6839,4544 6834,4559 6829,4571 6824,4582 6818,4592 6813,4599 6810,4603 6807,4607 6804,4612 6801,4615 6796,4617 6793,4619 6789,4621 6786,4621 6782,4622 6777,4621 6774,4621 6770,4619 6767,4617 6764,4615 6760,4612 6756,4607 6753,4603 6750,4599 6745,4592 6741,4582 6735,4571 6730,4559 6725,4544 6720,4530 6716,4513 6711,4496 6707,4478 6703,4461 6700,4444 6698,4426 6696,4412 6695,4397 6693,4383 6692,4367 6692,4350 6691,4333 6692,4316 6693,4297 6695,4279 6697,4260 6699,4242 6702,4224 6705,4207 6709,4191 6713,4174 6719,4157 6725,4141 6731,4124 6739,4108 6747,4091 6755,4074 6765,4056 6775,4039 6786,4023 6796,4006 6807,3991 6818,3976 6829,3963 6838,3951 6849,3940 6858,3930 6868,3922 6879,3911 6891,3903 6903,3897 6915,3890 6928,3886 6940,3883 6952,3882 6963,3882 6974,3882 6984,3884 6995,3887 7004,3890 7016,3895 7028,3901 7041,3908 7054,3917 7066,3926 7079,3937 7090,3947 7102,3960 7111,3971 7121,3984 7128,3995 7134,4007 7142,4020 7148,4035 7154,4050 7161,4067 7166,4085 7171,4101 7175,4119 7179,4137 7182,4155 7185,4173 7187,4188 7188,4205 7190,4222 7191,4241 7192,4260 7192,4280 7192,4300 7192,4319 7192,4339 7191,4358 7190,4376 7188,4393 7187,4410 7185,4426 7182,4444 7179,4461 7175,4478 7171,4496 7167,4513 7162,4530 7156,4544 7151,4559 7146,4571 7142,4582 7137,4592 7131,4599 7128,4603 7125,4607 7122,4612 7118,4615 7114,4617 7111,4619 7107,4621 7104,4621 7100,4622 7096,4621 7092,4621 7088,4619 7085,4617 7082,4615 7078,4612 7075,4607 7071,4603 7068,4599 7063,4592 7058,4582 7054,4571 7048,4559 7043,4544 7038,4530 7033,4513 7028,4496 7024,4478 7021,4461 7018,4444 7015,4426 7014,4412 7012,4397 7011,4383 7009,4367 7009,4350 7008,4333 7009,4316 7011,4297 7012,4279 7014,4260 7016,4242 7019,4224 7022,4207 7026,4191 7030,4174 7036,4157 7042,4141 7048,4124 7056,4108 7064,4091 7072,4074 7082,4056 7091,4039 7101,4023 7111,4006 7122,3991 7131,3976 7141,3963 7150,3951 7159,3940 7167,3930 7174,3922 7188,3907 7201,3897 7214,3889 7228,3883 7241,3879 7253,3876 7258,3875 7259,3875 " />
  <text
     style="font-style:normal;font-weight:normal;font-size:378px;font-family:Helvetica;text-anchor:start;fill:#00b000;stroke-width:0.025in"
     id="text22"
     font-size="378"
     font-weight="normal"
     font-style="normal"
     y="3543"
     x="5905"
     xml:space="preserve">Magnet</text>
  <text
     style="font-style:normal;font-weight:normal;font-size:378px;font-family:Helvetica;text-anchor:start;fill:#0000ff;stroke-width:0.025in"
     id="text24"
     font-size="378"
     font-weight="normal"
     font-style="normal"
     y="2834"
     x="2598"
     xml:space="preserve">Papier</text>
  <text
     style="font-style:normal;font-weight:normal;font-size:378px;font-family:Helvetica;text-anchor:start;fill:#000000;stroke-width:0.025in"
     id="text26"
     font-size="378"
     font-weight="normal"
     font-style="normal"
     y="4771"
     x="7417"
     xml:space="preserve">Drucknadel</text>
  <polyline
     id="polyline28"
     style="fill:#ff7f7f;stroke:#000000;stroke-width:63;stroke-linecap:butt;stroke-linejoin:miter"
     points="4015,4251 8031,4251 " />
  <polyline
     id="polyline30"
     style="fill:#ffffff;stroke:#ff0000;stroke-width:16;stroke-linecap:butt;stroke-linejoin:miter"
     points="3543,6141 3753,4878 " />
  <polygon
     id="polygon32"
     style="fill:#ff0000;stroke:#ff0000;stroke-width:16;stroke-miterlimit:8"
     points="3714,4822 3754,4868 3806,4837 3806,4837 3780,4713 " />
  <text
     style="font-style:normal;font-weight:normal;font-size:378px;font-family:Helvetica;text-anchor:start;fill:#ff0000;stroke-width:0.025in"
     id="text34"
     font-size="378"
     font-weight="normal"
     font-style="normal"
     y="6614"
     x="2598"
     xml:space="preserve">Farbband</text>
</svg>
