<?xml version="1.0" encoding="UTF-8" standalone="no"?>
<!-- Creator: fig2dev Version 3.2 Patchlevel 5e -->

<!-- CreationDate: Wed Oct 28 10:45:09 2015 -->

<!-- Magnification: 1.050 -->

<svg
   xmlns:dc="http://purl.org/dc/elements/1.1/"
   xmlns:cc="http://creativecommons.org/ns#"
   xmlns:rdf="http://www.w3.org/1999/02/22-rdf-syntax-ns#"
   xmlns:svg="http://www.w3.org/2000/svg"
   xmlns="http://www.w3.org/2000/svg"
   xmlns:sodipodi="http://sodipodi.sourceforge.net/DTD/sodipodi-0.dtd"
   xmlns:inkscape="http://www.inkscape.org/namespaces/inkscape"
   width="18.1in"
   height="11.3in"
   viewBox="-1457 -2670 21732 13552"
   id="svg2"
   version="1.1"
   inkscape:version="0.91 r13725"
   sodipodi:docname="fig_farbeTexturFlat1.svg">
  <metadata
     id="metadata166">
    <rdf:RDF>
      <cc:Work
         rdf:about="">
        <dc:format>image/svg+xml</dc:format>
        <dc:type
           rdf:resource="http://purl.org/dc/dcmitype/StillImage" />
      </cc:Work>
    </rdf:RDF>
  </metadata>
  <defs
     id="defs164" />
  <sodipodi:namedview
     pagecolor="#ffffff"
     bordercolor="#666666"
     borderopacity="1"
     objecttolerance="10"
     gridtolerance="10"
     guidetolerance="10"
     inkscape:pageopacity="0"
     inkscape:pageshadow="2"
     inkscape:window-width="2418"
     inkscape:window-height="1261"
     id="namedview162"
     showgrid="false"
     inkscape:zoom="0.65635083"
     inkscape:cx="797.06758"
     inkscape:cy="432.21615"
     inkscape:window-x="142"
     inkscape:window-y="60"
     inkscape:window-maximized="1"
     inkscape:current-layer="svg2" />
  <polyline
     id="polyline6"
     style="fill:#ffffff;stroke:#000000;stroke-width:63;stroke-linecap:butt;stroke-linejoin:miter"
     points="9448,-708 -944,3307 " />
  <polyline
     id="polyline8"
     style="fill:none;stroke:#b000b0;stroke-width:32;stroke-linecap:butt;stroke-linejoin:bevel;stroke-dasharray:83, 83"
     points="15118,4724 15118,4722 15117,4719 15117,4711 15114,4700 15112,4683 15110,4662 15106,4634 15102,4599 15097,4558 15091,4512 15084,4458 15077,4400 15068,4335 15060,4267 15050,4195 15040,4119 15029,4041 15019,3963 15007,3882 14997,3801 14985,3721 14974,3641 14962,3564 14951,3487 14940,3413 14929,3340 14917,3270 14907,3203 14895,3138 14885,3075 14874,3014 14864,2955 14852,2899 14841,2845 14831,2793 14820,2743 14809,2693 14798,2646 14787,2601 14776,2556 14765,2513 14753,2470 14741,2428 14728,2387 14717,2346 14701,2300 14686,2254 14670,2208 14654,2163 14637,2118 14620,2073 14602,2028 14583,1984 14564,1939 14544,1895 14524,1849 14503,1805 14481,1761 14459,1717 14436,1673 14413,1629 14390,1586 14366,1543 14341,1500 14317,1458 14291,1417 14265,1376 14240,1336 14214,1297 14188,1258 14162,1222 14136,1185 14110,1149 14083,1113 14058,1080 14032,1047 14006,1015 13981,983 13955,953 13929,923 13904,895 13879,867 13854,839 13828,813 13803,787 13774,759 13745,730 13717,702 13687,675 13657,647 13626,620 13594,593 13561,565 13526,537 13490,509 13453,480 13414,450 13373,419 13330,389 13286,356 13239,324 13191,290 13142,256 13092,222 13042,187 12992,154 12942,120 12894,88 12848,57 12805,29 12765,3 12729,-19 12699,-39 12674,-55 12653,-69 12637,-79 12626,-86 12619,-91 12616,-93 12614,-94 " />
  <text
     style="font-style:normal;font-weight:normal;font-size:504px;font-family:Times;text-anchor:start;fill:#000000;stroke-width:0.025in"
     id="text10"
     font-size="504"
     font-weight="normal"
     font-style="normal"
     y="3401"
     x="2456"
     xml:space="preserve">Pixmap</text>
  <rect
     id="rect12"
     style="fill:#ffffff;stroke:#000000;stroke-width:0;stroke-linecap:butt;stroke-linejoin:miter"
     rx="0"
     height="2362"
     width="2834"
     y="472"
     x="1181" />
  <rect
     id="rect14"
     style="fill:#ffffff;stroke:#000000;stroke-width:0;stroke-linecap:butt;stroke-linejoin:miter"
     rx="0"
     height="708"
     width="1322"
     y="2692"
     x="12897" />
  <path
     inkscape:connector-curvature="0"
     id="path16"
     d="m -1417,3354 a 535,535 0 0 0 945,0"
     style="fill:#ffffff;stroke:#000000;stroke-width:63;stroke-linecap:butt" />
  <polyline
     id="polyline18"
     style="fill:none;stroke:#ff0000;stroke-width:32;stroke-linecap:butt;stroke-linejoin:miter"
     points="5905,7322 5905,8976 " />
  <polyline
     id="polyline20"
     style="fill:none;stroke:#ff0000;stroke-width:32;stroke-linecap:butt;stroke-linejoin:miter"
     points="6141,7322 6141,8976 " />
  <polyline
     id="polyline22"
     style="fill:none;stroke:#ff0000;stroke-width:32;stroke-linecap:butt;stroke-linejoin:miter"
     points="6377,7322 6377,8976 " />
  <polyline
     id="polyline24"
     style="fill:none;stroke:#ff0000;stroke-width:32;stroke-linecap:butt;stroke-linejoin:miter"
     points="6614,7322 6614,8976 " />
  <polyline
     id="polyline26"
     style="fill:none;stroke:#ff0000;stroke-width:32;stroke-linecap:butt;stroke-linejoin:miter"
     points="6850,7322 6850,8976 " />
  <polyline
     id="polyline28"
     style="fill:none;stroke:#ff0000;stroke-width:32;stroke-linecap:butt;stroke-linejoin:miter"
     points="7086,7322 7086,8976 " />
  <polyline
     id="polyline30"
     style="fill:none;stroke:#ff0000;stroke-width:32;stroke-linecap:butt;stroke-linejoin:miter"
     points="7322,7322 7322,8976 " />
  <polyline
     id="polyline32"
     style="fill:none;stroke:#ff0000;stroke-width:32;stroke-linecap:butt;stroke-linejoin:miter"
     points="7559,7322 7559,8976 " />
  <polyline
     id="polyline34"
     style="fill:none;stroke:#ff0000;stroke-width:32;stroke-linecap:butt;stroke-linejoin:miter"
     points="7795,7322 7795,8976 " />
  <polyline
     id="polyline36"
     style="fill:none;stroke:#ff0000;stroke-width:32;stroke-linecap:butt;stroke-linejoin:miter"
     points="8031,7322 8031,8976 " />
  <polyline
     id="polyline38"
     style="fill:none;stroke:#ff0000;stroke-width:32;stroke-linecap:butt;stroke-linejoin:miter"
     points="8267,7322 8267,8976 " />
  <rect
     id="rect40"
     style="fill:#ff0000;stroke:#ff0000;stroke-width:32;stroke-linecap:butt;stroke-linejoin:miter"
     rx="0"
     height="236"
     width="236"
     y="8031"
     x="7322" />
  <polyline
     id="polyline42"
     style="fill:#b000b0;stroke:#b000b0;stroke-width:48;stroke-linecap:butt;stroke-linejoin:miter"
     points="11338,4960 11338,1668 " />
  <polygon
     id="polygon44"
     style="fill:#b000b0;stroke:#b000b0;stroke-width:48;stroke-miterlimit:8"
     points="11275,1617 11338,1680 11401,1617 11401,1617 11338,1428 " />
  <polyline
     id="polyline46"
     style="fill:#b000b0;stroke:#b000b0;stroke-width:48;stroke-linecap:butt;stroke-linejoin:miter"
     points="11102,4724 15574,4724 " />
  <polygon
     id="polygon48"
     style="fill:#b000b0;stroke:#b000b0;stroke-width:48;stroke-miterlimit:8"
     points="15626,4661 15563,4724 15626,4787 15626,4787 15815,4724 " />
  <polyline
     id="polyline50"
     style="fill:none;stroke:#b000b0;stroke-width:32;stroke-linecap:butt;stroke-linejoin:miter"
     points="11338,2125 15118,2125 15118,4724 " />
  <polygon
     id="polygon52"
     style="fill:none;stroke:#ff0000;stroke-width:63;stroke-linecap:butt;stroke-linejoin:miter"
     points="14645,2598 13937,4251 11811,4251 11811,4251 12519,2598 " />
  <polyline
     id="polyline54"
     style="fill:none;stroke:#ff0000;stroke-width:32;stroke-linecap:butt;stroke-linejoin:miter;stroke-dasharray:83, 83"
     points="5905,7322 12519,2598 " />
  <polyline
     id="polyline56"
     style="fill:none;stroke:#ff0000;stroke-width:32;stroke-linecap:butt;stroke-linejoin:miter;stroke-dasharray:83, 83"
     points="8267,8976 13937,4251 " />
  <polyline
     id="polyline58"
     style="fill:none;stroke:#ff0000;stroke-width:32;stroke-linecap:butt;stroke-linejoin:miter;stroke-dasharray:83, 83"
     points="7448,8151 13559,3448 " />
  <polyline
     id="polyline60"
     style="fill:none;stroke:#000000;stroke-width:32;stroke-linecap:butt;stroke-linejoin:miter"
     points="1181,472 4015,472 " />
  <polyline
     id="polyline62"
     style="fill:none;stroke:#000000;stroke-width:32;stroke-linecap:butt;stroke-linejoin:miter"
     points="1181,944 4015,944 " />
  <polyline
     id="polyline64"
     style="fill:none;stroke:#000000;stroke-width:32;stroke-linecap:butt;stroke-linejoin:miter"
     points="1181,1417 4015,1417 " />
  <polyline
     id="polyline66"
     style="fill:none;stroke:#000000;stroke-width:32;stroke-linecap:butt;stroke-linejoin:miter"
     points="1181,1889 4015,1889 " />
  <polyline
     id="polyline68"
     style="fill:none;stroke:#000000;stroke-width:32;stroke-linecap:butt;stroke-linejoin:miter"
     points="1181,2362 4015,2362 " />
  <polyline
     id="polyline70"
     style="fill:none;stroke:#000000;stroke-width:32;stroke-linecap:butt;stroke-linejoin:miter"
     points="1181,2834 4015,2834 " />
  <polyline
     id="polyline72"
     style="fill:none;stroke:#000000;stroke-width:32;stroke-linecap:butt;stroke-linejoin:miter"
     points="1181,472 1181,2834 " />
  <polyline
     id="polyline74"
     style="fill:none;stroke:#000000;stroke-width:32;stroke-linecap:butt;stroke-linejoin:miter"
     points="1653,472 1653,2834 " />
  <polyline
     id="polyline76"
     style="fill:none;stroke:#000000;stroke-width:32;stroke-linecap:butt;stroke-linejoin:miter"
     points="2125,472 2125,2834 " />
  <polyline
     id="polyline78"
     style="fill:none;stroke:#000000;stroke-width:32;stroke-linecap:butt;stroke-linejoin:miter"
     points="2598,472 2598,2834 " />
  <polyline
     id="polyline80"
     style="fill:none;stroke:#000000;stroke-width:32;stroke-linecap:butt;stroke-linejoin:miter"
     points="3070,472 3070,2834 " />
  <polyline
     id="polyline82"
     style="fill:none;stroke:#000000;stroke-width:32;stroke-linecap:butt;stroke-linejoin:miter"
     points="3543,472 3543,2834 " />
  <polyline
     id="polyline84"
     style="fill:none;stroke:#000000;stroke-width:32;stroke-linecap:butt;stroke-linejoin:miter"
     points="4015,472 4015,2834 " />
  <polyline
     id="polyline86"
     style="fill:none;stroke:#000000;stroke-width:63;stroke-linecap:butt;stroke-linejoin:miter"
     points="-944,3307 3307,1653 " />
  <polyline
     id="polyline88"
     style="fill:none;stroke:#000000;stroke-width:32;stroke-linecap:round;stroke-linejoin:miter;stroke-dasharray:10, 83"
     points="3307,1653 4015,1370 " />
  <polyline
     id="polyline90"
     style="fill:none;stroke:#ff0000;stroke-width:32;stroke-linecap:butt;stroke-linejoin:miter"
     points="5905,7559 8267,7559 " />
  <polyline
     id="polyline92"
     style="fill:none;stroke:#ff0000;stroke-width:32;stroke-linecap:butt;stroke-linejoin:miter"
     points="5905,7795 8267,7795 " />
  <polyline
     id="polyline94"
     style="fill:none;stroke:#ff0000;stroke-width:32;stroke-linecap:butt;stroke-linejoin:miter"
     points="5905,8031 8267,8031 " />
  <polyline
     id="polyline96"
     style="fill:none;stroke:#ff0000;stroke-width:32;stroke-linecap:butt;stroke-linejoin:miter"
     points="5905,8267 8267,8267 " />
  <polyline
     id="polyline98"
     style="fill:none;stroke:#ff0000;stroke-width:32;stroke-linecap:butt;stroke-linejoin:miter"
     points="5905,8503 8267,8503 " />
  <polyline
     id="polyline100"
     style="fill:none;stroke:#ff0000;stroke-width:32;stroke-linecap:butt;stroke-linejoin:miter"
     points="5905,8740 8267,8740 " />
  <polyline
     id="polyline102"
     style="fill:none;stroke:#ff0000;stroke-width:32;stroke-linecap:butt;stroke-linejoin:miter"
     points="5905,8976 8267,8976 " />
  <polyline
     id="polyline104"
     style="fill:none;stroke:#ff0000;stroke-width:32;stroke-linecap:butt;stroke-linejoin:miter"
     points="5905,7322 8267,7322 " />
  <polyline
     id="polyline106"
     style="fill:#ff0000;stroke:#000000;stroke-width:32;stroke-linecap:butt;stroke-linejoin:miter"
     points="12330,9874 12330,10346 "
     transform="translate(133.407,0)" />
  <polyline
     id="polyline108"
     style="fill:#ff0000;stroke:#000000;stroke-width:32;stroke-linecap:butt;stroke-linejoin:miter"
     points="12803,9874 12803,10346 "
     transform="translate(133.407,0)" />
  <polyline
     id="polyline110"
     style="fill:#ff0000;stroke:#000000;stroke-width:32;stroke-linecap:butt;stroke-linejoin:miter"
     points="13275,9874 13275,10346 "
     transform="translate(133.407,0)" />
  <polyline
     id="polyline112"
     style="fill:none;stroke:#0000ff;stroke-width:63;stroke-linecap:butt;stroke-linejoin:bevel"
     points="7086,-519 7087,-520 7090,-522 7097,-528 7106,-535 7119,-545 7137,-559 7159,-577 7185,-598 7216,-623 7252,-651 7292,-683 7334,-717 7380,-752 7428,-790 7479,-830 7529,-869 7581,-909 7632,-949 7683,-987 7734,-1026 7783,-1063 7830,-1099 7878,-1133 7922,-1166 7966,-1197 8008,-1228 8048,-1256 8087,-1282 8124,-1309 8161,-1333 8197,-1355 8230,-1377 8264,-1398 8298,-1417 8330,-1436 8362,-1454 8393,-1471 8425,-1487 8456,-1504 8493,-1522 8531,-1539 8567,-1556 8605,-1572 8643,-1588 8682,-1604 8721,-1618 8761,-1633 8801,-1647 8841,-1660 8882,-1674 8924,-1687 8965,-1698 9008,-1710 9050,-1720 9092,-1731 9134,-1740 9176,-1750 9218,-1758 9260,-1766 9301,-1774 9342,-1780 9382,-1786 9422,-1792 9460,-1797 9499,-1801 9535,-1804 9572,-1807 9608,-1811 9644,-1813 9678,-1815 9712,-1817 9745,-1818 9779,-1819 9814,-1819 9849,-1819 9884,-1819 9920,-1819 9955,-1818 9991,-1817 10027,-1816 10064,-1815 10101,-1814 10138,-1813 10176,-1812 10215,-1811 10253,-1809 10291,-1808 10330,-1808 10370,-1807 10409,-1807 10448,-1808 10487,-1808 10524,-1809 10563,-1812 10601,-1814 10638,-1816 10676,-1819 10712,-1822 10748,-1826 10784,-1832 10819,-1837 10855,-1843 10890,-1849 10925,-1858 10960,-1866 10992,-1874 11023,-1883 11056,-1892 11088,-1903 11122,-1914 11156,-1927 11191,-1942 11228,-1956 11267,-1972 11307,-1990 11349,-2009 11392,-2030 11438,-2052 11485,-2075 11534,-2100 11586,-2125 11639,-2154 11694,-2182 11750,-2212 11806,-2241 11862,-2271 11918,-2301 11971,-2330 12023,-2359 12071,-2385 12115,-2409 12154,-2431 12188,-2450 12217,-2466 12240,-2479 12257,-2489 12269,-2496 12277,-2500 12281,-2502 12283,-2503 " />
  <polyline
     id="polyline114"
     style="fill:none;stroke:#0000ff;stroke-width:63;stroke-linecap:butt;stroke-linejoin:bevel"
     points="12283,-2503 12282,-2501 12280,-2496 12277,-2486 12271,-2471 12264,-2449 12255,-2422 12243,-2388 12229,-2350 12215,-2306 12198,-2260 12181,-2211 12164,-2160 12148,-2109 12131,-2058 12114,-2009 12098,-1962 12085,-1917 12070,-1872 12057,-1832 12046,-1793 12035,-1756 12025,-1720 12016,-1688 12008,-1655 12001,-1625 11993,-1595 11987,-1567 11982,-1539 11976,-1511 11970,-1480 11965,-1448 11961,-1417 11958,-1385 11953,-1354 11951,-1322 11949,-1290 11948,-1258 11948,-1226 11948,-1193 11949,-1161 11951,-1128 11953,-1096 11958,-1064 11962,-1033 11967,-1002 11973,-972 11981,-942 11988,-913 11996,-886 12006,-858 12015,-832 12026,-806 12037,-781 12050,-756 12062,-732 12075,-709 12089,-687 12103,-665 12119,-642 12137,-619 12155,-595 12176,-571 12198,-545 12222,-518 12248,-491 12276,-461 12306,-430 12338,-398 12371,-366 12406,-332 12440,-299 12475,-265 12510,-234 12541,-203 12571,-177 12596,-153 12618,-133 12635,-118 12646,-107 12655,-99 12659,-96 12661,-94 " />
  <polyline
     id="polyline116"
     style="fill:none;stroke:#0000ff;stroke-width:63;stroke-linecap:butt;stroke-linejoin:bevel"
     points="12614,-94 12612,-93 12608,-91 12601,-87 12590,-80 12573,-72 12552,-60 12527,-46 12495,-30 12460,-11 12423,9 12382,30 12339,53 12296,76 12250,99 12206,122 12162,144 12119,165 12078,186 12037,205 11998,224 11961,241 11924,258 11888,272 11855,287 11820,301 11787,313 11754,326 11721,338 11689,349 11655,360 11622,370 11589,379 11556,388 11524,397 11489,406 11455,414 11419,424 11383,431 11345,439 11308,448 11269,455 11229,462 11189,470 11148,477 11106,485 11065,491 11023,497 10980,502 10938,509 10896,514 10854,519 10812,523 10770,528 10729,532 10689,535 10649,538 10611,541 10572,543 10534,545 10497,546 10461,549 10426,550 10391,550 10356,551 10323,551 10286,551 10251,550 10216,550 10180,549 10144,546 10109,545 10073,543 10036,541 10000,539 9963,537 9926,534 9889,532 9851,529 9814,527 9777,523 9739,520 9702,517 9666,515 9629,512 9593,510 9558,507 9522,504 9487,502 9453,500 9419,499 9386,497 9354,496 9321,496 9290,495 9258,495 9228,495 9196,496 9165,496 9133,498 9102,499 9070,501 9037,504 9004,508 8971,511 8936,515 8901,519 8866,524 8830,531 8794,537 8758,544 8721,552 8684,560 8647,569 8611,578 8574,588 8537,599 8501,611 8466,622 8430,634 8395,646 8362,660 8328,672 8296,687 8263,701 8232,716 8200,731 8170,746 8139,763 8110,780 8081,795 8054,812 8026,830 7997,848 7969,868 7941,888 7910,910 7880,933 7848,958 7816,984 7782,1012 7746,1041 7710,1072 7672,1106 7633,1141 7592,1176 7550,1214 7508,1253 7466,1292 7423,1331 7382,1370 7342,1407 7304,1443 7270,1476 7238,1505 7211,1531 7188,1553 7169,1571 7154,1585 7145,1594 7139,1601 7134,1605 7133,1606 " />
  <polyline
     id="polyline118"
     style="fill:none;stroke:#0000ff;stroke-width:63;stroke-linecap:butt;stroke-linejoin:bevel"
     points="7086,-519 7085,-517 7082,-511 7077,-501 7069,-486 7059,-464 7045,-437 7029,-405 7012,-369 6993,-329 6973,-288 6953,-246 6934,-205 6915,-164 6897,-124 6880,-87 6866,-50 6852,-16 6839,16 6828,48 6817,77 6808,107 6800,135 6792,163 6785,192 6780,220 6773,248 6768,278 6764,307 6760,337 6756,368 6753,398 6751,431 6749,464 6748,497 6748,531 6747,564 6748,599 6749,633 6751,667 6753,701 6756,734 6760,767 6764,798 6768,830 6773,860 6779,890 6784,918 6790,945 6796,972 6804,998 6811,1023 6818,1050 6828,1077 6837,1102 6849,1128 6860,1155 6873,1182 6887,1210 6902,1239 6919,1270 6938,1301 6957,1335 6978,1369 7000,1403 7022,1438 7043,1471 7064,1502 7083,1530 7099,1554 7112,1574 7122,1589 7128,1598 7131,1604 7133,1606 " />
  <polyline
     id="polyline120"
     style="fill:none;stroke:#b000b0;stroke-width:32;stroke-linecap:butt;stroke-linejoin:bevel;stroke-dasharray:83, 83"
     points="11338,4724 11337,4723 11336,4720 11332,4714 11327,4705 11319,4692 11309,4676 11295,4655 11278,4627 11258,4596 11234,4559 11208,4516 11177,4470 11145,4417 11109,4362 11070,4302 11029,4239 10987,4174 10942,4106 10897,4036 10851,3966 10804,3896 10755,3825 10708,3755 10661,3686 10614,3617 10566,3551 10520,3486 10475,3423 10430,3362 10386,3302 10343,3246 10301,3191 10260,3139 10219,3088 10179,3040 10139,2993 10100,2949 10062,2906 10025,2865 9987,2826 9949,2788 9912,2751 9875,2716 9837,2682 9799,2649 9761,2618 9723,2586 9685,2556 9646,2528 9606,2498 9565,2470 9524,2443 9483,2416 9440,2390 9397,2364 9352,2339 9306,2313 9258,2289 9210,2265 9160,2241 9107,2217 9053,2193 8997,2169 8938,2145 8878,2121 8815,2097 8750,2073 8683,2049 8614,2024 8541,2000 8468,1974 8392,1950 8314,1925 8235,1900 8155,1875 8073,1849 7991,1825 7909,1801 7828,1777 7749,1754 7671,1732 7595,1710 7523,1690 7454,1671 7390,1653 7331,1636 7276,1622 7228,1609 7186,1597 7149,1588 7119,1580 7093,1573 7075,1568 7060,1564 7049,1562 7044,1560 7040,1559 7039,1559 " />
  <polyline
     id="polyline122"
     style="fill:none;stroke:#b000b0;stroke-width:32;stroke-linecap:butt;stroke-linejoin:bevel;stroke-dasharray:83, 83"
     points="11338,2125 11337,2123 11334,2120 11330,2113 11321,2102 11311,2087 11296,2067 11278,2041 11256,2011 11232,1977 11204,1939 11174,1898 11142,1855 11109,1809 11075,1764 11041,1718 11006,1673 10972,1628 10938,1584 10906,1542 10873,1501 10841,1462 10811,1424 10782,1388 10752,1354 10724,1321 10696,1290 10667,1258 10639,1229 10612,1200 10583,1170 10554,1142 10525,1114 10496,1086 10470,1062 10444,1039 10417,1015 10389,991 10362,965 10332,941 10303,916 10272,891 10241,866 10208,840 10175,814 10141,789 10107,763 10071,735 10034,709 9997,683 9960,656 9922,629 9882,603 9843,576 9803,550 9763,523 9722,497 9681,472 9640,447 9600,422 9559,397 9518,372 9477,349 9436,326 9395,303 9354,281 9313,259 9273,237 9232,217 9192,196 9152,176 9111,156 9071,137 9032,118 8994,100 8957,83 8919,67 8880,50 8841,33 8802,16 8761,0 8719,-16 8676,-33 8632,-50 8585,-68 8538,-86 8488,-103 8437,-122 8384,-141 8328,-160 8271,-180 8212,-201 8151,-222 8088,-243 8023,-264 7956,-286 7889,-309 7822,-331 7754,-353 7687,-375 7619,-396 7554,-417 7491,-438 7433,-457 7376,-475 7324,-492 7277,-507 7235,-519 7198,-531 7168,-541 7143,-549 7123,-555 7108,-559 7098,-563 7091,-565 7087,-566 7086,-566 " />
  <polyline
     id="polyline124"
     style="fill:none;stroke:#b000b0;stroke-width:32;stroke-linecap:butt;stroke-linejoin:bevel;stroke-dasharray:83, 83"
     points="15118,2125 15118,2123 15117,2120 15116,2113 15113,2101 15110,2086 15106,2065 15101,2037 15095,2006 15088,1968 15080,1926 15070,1879 15060,1828 15049,1775 15038,1718 15026,1660 15014,1603 15001,1544 14988,1485 14976,1426 14963,1370 14951,1314 14938,1260 14925,1207 14913,1156 14900,1106 14887,1058 14874,1011 14861,965 14849,920 14835,876 14822,833 14808,790 14793,747 14779,704 14764,661 14748,618 14732,575 14718,536 14702,498 14687,458 14671,419 14655,379 14638,338 14620,297 14602,255 14583,212 14563,167 14543,123 14523,79 14501,33 14479,-11 14457,-58 14434,-104 14411,-152 14387,-200 14363,-247 14338,-296 14312,-343 14286,-391 14260,-439 14234,-487 14207,-534 14180,-581 14153,-627 14125,-674 14098,-719 14071,-764 14044,-808 14016,-851 13989,-894 13962,-935 13935,-976 13908,-1016 13881,-1056 13854,-1093 13827,-1131 13800,-1168 13773,-1204 13746,-1238 13719,-1273 13693,-1307 13662,-1343 13632,-1379 13602,-1414 13571,-1449 13540,-1483 13507,-1518 13474,-1551 13440,-1586 13404,-1620 13367,-1655 13329,-1690 13290,-1725 13248,-1761 13205,-1799 13161,-1837 13113,-1875 13065,-1914 13016,-1954 12964,-1994 12912,-2036 12858,-2077 12805,-2118 12750,-2159 12697,-2200 12644,-2239 12594,-2277 12545,-2312 12500,-2346 12458,-2376 12420,-2404 12388,-2428 12360,-2449 12337,-2466 12318,-2478 12304,-2489 12293,-2496 12288,-2500 12284,-2502 12283,-2503 " />
  <text
     style="font-style:normal;font-weight:normal;font-size:504px;font-family:Times;text-anchor:start;fill:#0000ff;stroke-width:0.025in"
     id="text126"
     font-size="504"
     font-weight="normal"
     font-style="normal"
     y="-2125"
     x="7228"
     xml:space="preserve">Objekt $O$</text>
  <text
     style="font-style:normal;font-weight:normal;font-size:504px;font-family:Times;text-anchor:start;fill:#0000ff;stroke-width:0.025in"
     id="text128"
     font-size="504"
     font-weight="normal"
     font-style="normal"
     y="-1086"
     x="9023"
     xml:space="preserve">$P(s, t)$</text>
  <text
     style="font-style:normal;font-weight:normal;font-size:504px;font-family:Times;text-anchor:middle;fill:#b000b0;stroke-width:0.025in"
     id="text130"
     font-size="504"
     font-weight="normal"
     font-style="normal"
     y="3212"
     x="7653"
     xml:space="preserve">Parameterbereich</text>
  <text
     style="font-style:normal;font-weight:normal;font-size:504px;font-family:Times;text-anchor:middle;fill:#b000b0;stroke-width:0.025in"
     id="text132"
     font-size="504"
     font-weight="normal"
     font-style="normal"
     y="2598"
     x="15496"
     xml:space="preserve">$D$</text>
  <text
     style="font-style:normal;font-weight:normal;font-size:504px;font-family:Times;text-anchor:end;fill:#ff0000;stroke-width:0.025in"
     id="text134"
     font-size="504"
     font-weight="normal"
     font-style="normal"
     y="9685"
     x="7559"
     xml:space="preserve">Texture Map</text>
  <text
     style="font-style:normal;font-weight:normal;font-size:504px;font-family:Times;text-anchor:start;fill:#000000;stroke-width:0.025in"
     id="text136"
     font-size="504"
     font-weight="normal"
     font-style="normal"
     y="8267"
     x="10393"
     xml:space="preserve">Texel, \zB „rot“</text>
  <text
     style="font-style:normal;font-weight:normal;font-size:504px;font-family:Times;text-anchor:start;fill:#000000;stroke-width:0.025in"
     id="text138"
     font-size="504"
     font-weight="normal"
     font-style="normal"
     y="8976"
     x="10629"
     xml:space="preserve">$Rₐ = (1, 0, 0)$</text>
  <text
     style="font-style:normal;font-weight:normal;font-size:504px;font-family:Times;text-anchor:start;fill:#000000;stroke-width:0.025in"
     id="text140"
     font-size="504"
     font-weight="normal"
     font-style="normal"
     y="9685"
     x="10629"
     xml:space="preserve">$R_d = (1, 0, 0)$</text>
  <text
     style="font-style:normal;font-weight:normal;font-size:504px;font-family:Times;text-anchor:middle;fill:#000000;stroke-width:0.025in"
     id="text142"
     font-size="504"
     font-weight="normal"
     font-style="normal"
     y="10866"
     x="12463.408"
     xml:space="preserve">R</text>
  <text
     style="font-style:normal;font-weight:normal;font-size:504px;font-family:Times;text-anchor:start;fill:#b000b0;stroke-width:0.025in"
     id="text144"
     font-size="504"
     font-weight="normal"
     font-style="normal"
     y="3165"
     x="12992"
     xml:space="preserve">$(s, t)$</text>
  <text
     style="font-style:normal;font-weight:normal;font-size:504px;font-family:Times;text-anchor:middle;fill:#000000;stroke-width:0.025in"
     id="text146"
     font-size="504"
     font-weight="normal"
     font-style="normal"
     y="10866"
     x="12936.408"
     xml:space="preserve">G</text>
  <text
     style="font-style:normal;font-weight:normal;font-size:504px;font-family:Times;text-anchor:middle;fill:#000000;stroke-width:0.025in"
     id="text148"
     font-size="504"
     font-weight="normal"
     font-style="normal"
     y="10866"
     x="13408.408"
     xml:space="preserve">B</text>
  <path
     inkscape:connector-curvature="0"
     id="path150"
     d="m -1417,3354 a 590,590 0 0 1 945,0"
     style="fill:#ffffff;stroke:#000000;stroke-width:63;stroke-linecap:butt" />
  <circle
     id="circle152"
     style="fill:#b000b0;stroke:#b000b0;stroke-width:32"
     r="106"
     cy="3401"
     cx="13606" />
  <circle
     id="circle154"
     style="fill:#0000ff;stroke:#0000ff;stroke-width:32"
     r="106"
     cy="-720"
     cx="9448" />
  <polyline
     id="polyline156"
     style="fill:#ff0000;stroke:#000000;stroke-width:32;stroke-linecap:butt;stroke-linejoin:miter"
     points="10299,8125 7841,8125 " />
  <polygon
     id="polygon158"
     style="fill:#000000;stroke:#000000;stroke-width:32;stroke-miterlimit:8"
     points="7786,8188 7834,8125 7786,8062 7786,8062 7645,8125 " />
  <circle
     id="circle160"
     style="fill:#ffffff;stroke:#000000;stroke-width:63"
     r="240"
     cy="3354"
     cx="-944" />
</svg>
