<?xml version="1.0" encoding="UTF-8" standalone="no"?>
<!-- Creator: fig2dev Version 3.2 Patchlevel 5e -->

<!-- CreationDate: Thu Sep 24 15:30:20 2015 -->

<!-- Magnification: 1.050 -->

<svg
   xmlns:dc="http://purl.org/dc/elements/1.1/"
   xmlns:cc="http://creativecommons.org/ns#"
   xmlns:rdf="http://www.w3.org/1999/02/22-rdf-syntax-ns#"
   xmlns:svg="http://www.w3.org/2000/svg"
   xmlns="http://www.w3.org/2000/svg"
   xmlns:sodipodi="http://sodipodi.sourceforge.net/DTD/sodipodi-0.dtd"
   xmlns:inkscape="http://www.inkscape.org/namespaces/inkscape"
   width="9.8in"
   height="10.2in"
   viewBox="152 1133 11790 12256"
   id="svg2"
   version="1.1"
   inkscape:version="0.91 r13725"
   sodipodi:docname="fig_hardwareMausOptisch.svg">
  <metadata
     id="metadata220">
    <rdf:RDF>
      <cc:Work
         rdf:about="">
        <dc:format>image/svg+xml</dc:format>
        <dc:type
           rdf:resource="http://purl.org/dc/dcmitype/StillImage" />
      </cc:Work>
    </rdf:RDF>
  </metadata>
  <defs
     id="defs218" />
  <sodipodi:namedview
     pagecolor="#ffffff"
     bordercolor="#666666"
     borderopacity="1"
     objecttolerance="10"
     gridtolerance="10"
     guidetolerance="10"
     inkscape:pageopacity="0"
     inkscape:pageshadow="2"
     inkscape:window-width="2418"
     inkscape:window-height="1261"
     id="namedview216"
     showgrid="false"
     inkscape:zoom="0.72713378"
     inkscape:cx="162.32556"
     inkscape:cy="505.81597"
     inkscape:window-x="142"
     inkscape:window-y="60"
     inkscape:window-maximized="1"
     inkscape:current-layer="svg2" />
  <rect
     id="rect6"
     style="fill:#f0e2d8;stroke:#a14000;stroke-width:0;stroke-linecap:butt;stroke-linejoin:miter"
     rx="0"
     height="2598"
     width="3070"
     y="5433"
     x="2598" />
  <rect
     id="rect8"
     style="fill:#f0e2d8;stroke:#a14000;stroke-width:0;stroke-linecap:butt;stroke-linejoin:miter"
     rx="0"
     height="2598"
     width="3070"
     y="5433"
     x="6850" />
  <rect
     id="rect10"
     style="fill:#d8d8ff;stroke:#0000ff;stroke-width:63;stroke-linecap:butt;stroke-linejoin:miter"
     rx="110"
     height="1653"
     width="1653"
     y="9685"
     x="5196" />
  <polyline
     id="polyline12"
     style="fill:#d8ffff;stroke:#0000ff;stroke-width:63;stroke-linecap:butt;stroke-linejoin:miter"
     points="5433,9448 5433,9685 " />
  <polyline
     id="polyline14"
     style="fill:#d8ffff;stroke:#0000ff;stroke-width:63;stroke-linecap:butt;stroke-linejoin:miter"
     points="4960,9921 5196,9921 " />
  <polyline
     id="polyline16"
     style="fill:#d8ffff;stroke:#0000ff;stroke-width:63;stroke-linecap:butt;stroke-linejoin:miter"
     points="5669,9448 5669,9685 " />
  <polyline
     id="polyline18"
     style="fill:#d8ffff;stroke:#0000ff;stroke-width:63;stroke-linecap:butt;stroke-linejoin:miter"
     points="5905,9448 5905,9685 " />
  <polyline
     id="polyline20"
     style="fill:#d8ffff;stroke:#0000ff;stroke-width:63;stroke-linecap:butt;stroke-linejoin:miter"
     points="6141,9448 6141,9685 " />
  <polyline
     id="polyline22"
     style="fill:#d8ffff;stroke:#0000ff;stroke-width:63;stroke-linecap:butt;stroke-linejoin:miter"
     points="6377,9448 6377,9685 " />
  <polyline
     id="polyline24"
     style="fill:#d8ffff;stroke:#0000ff;stroke-width:63;stroke-linecap:butt;stroke-linejoin:miter"
     points="6614,9448 6614,9685 " />
  <polyline
     id="polyline26"
     style="fill:#d8ffff;stroke:#0000ff;stroke-width:63;stroke-linecap:butt;stroke-linejoin:miter"
     points="5433,11338 5433,11574 " />
  <polyline
     id="polyline28"
     style="fill:#d8ffff;stroke:#0000ff;stroke-width:63;stroke-linecap:butt;stroke-linejoin:miter"
     points="5669,11338 5669,11574 " />
  <polyline
     id="polyline30"
     style="fill:#d8ffff;stroke:#0000ff;stroke-width:63;stroke-linecap:butt;stroke-linejoin:miter"
     points="5905,11338 5905,11574 " />
  <polyline
     id="polyline32"
     style="fill:#d8ffff;stroke:#0000ff;stroke-width:63;stroke-linecap:butt;stroke-linejoin:miter"
     points="6141,11338 6141,11574 " />
  <polyline
     id="polyline34"
     style="fill:#d8ffff;stroke:#0000ff;stroke-width:63;stroke-linecap:butt;stroke-linejoin:miter"
     points="6377,11338 6377,11574 " />
  <polyline
     id="polyline36"
     style="fill:#d8ffff;stroke:#0000ff;stroke-width:63;stroke-linecap:butt;stroke-linejoin:miter"
     points="6614,11338 6614,11574 " />
  <polyline
     id="polyline38"
     style="fill:#d8ffff;stroke:#0000ff;stroke-width:63;stroke-linecap:butt;stroke-linejoin:miter"
     points="4960,10157 5196,10157 " />
  <polyline
     id="polyline40"
     style="fill:#d8ffff;stroke:#0000ff;stroke-width:63;stroke-linecap:butt;stroke-linejoin:miter"
     points="4960,10393 5196,10393 " />
  <polyline
     id="polyline42"
     style="fill:#d8ffff;stroke:#0000ff;stroke-width:63;stroke-linecap:butt;stroke-linejoin:miter"
     points="4960,10629 5196,10629 " />
  <polyline
     id="polyline44"
     style="fill:#d8ffff;stroke:#0000ff;stroke-width:63;stroke-linecap:butt;stroke-linejoin:miter"
     points="4960,10866 5196,10866 " />
  <polyline
     id="polyline46"
     style="fill:#d8ffff;stroke:#0000ff;stroke-width:63;stroke-linecap:butt;stroke-linejoin:miter"
     points="4960,11102 5196,11102 " />
  <polyline
     id="polyline48"
     style="fill:#d8ffff;stroke:#0000ff;stroke-width:63;stroke-linecap:butt;stroke-linejoin:miter"
     points="6850,9921 7086,9921 " />
  <polyline
     id="polyline50"
     style="fill:#d8ffff;stroke:#0000ff;stroke-width:63;stroke-linecap:butt;stroke-linejoin:miter"
     points="6850,10157 7086,10157 " />
  <polyline
     id="polyline52"
     style="fill:#d8ffff;stroke:#0000ff;stroke-width:63;stroke-linecap:butt;stroke-linejoin:miter"
     points="6850,10393 7086,10393 " />
  <polyline
     id="polyline54"
     style="fill:#d8ffff;stroke:#0000ff;stroke-width:63;stroke-linecap:butt;stroke-linejoin:miter"
     points="6850,10629 7086,10629 " />
  <polyline
     id="polyline56"
     style="fill:#d8ffff;stroke:#0000ff;stroke-width:63;stroke-linecap:butt;stroke-linejoin:miter"
     points="6850,10866 7086,10866 " />
  <polyline
     id="polyline58"
     style="fill:#d8ffff;stroke:#0000ff;stroke-width:63;stroke-linecap:butt;stroke-linejoin:miter"
     points="6850,11102 7086,11102 " />
  <polygon
     id="polygon60"
     style="fill:none;stroke:#000000;stroke-width:63;stroke-linecap:butt;stroke-linejoin:round"
     points="10157,2125 8503,3543 2834,3543 2834,3543 4251,2125 " />
  <polyline
     id="polyline62"
     style="fill:#e5ffff;stroke:#00ffff;stroke-width:32;stroke-linecap:butt;stroke-linejoin:miter"
     points="4015,3070 4015,2125 5433,1653 7559,1653 8267,1889 8267,2834 8031,3070 " />
  <ellipse
     cy="6750"
     cx="4507"
     id="ellipse64"
     style="fill:none;stroke:#a14000;stroke-width:32"
     ry="541"
     rx="798" />
  <ellipse
     cy="6749"
     cx="4507"
     id="ellipse66"
     style="fill:none;stroke:#a14000;stroke-width:32"
     ry="405"
     rx="595" />
  <ellipse
     cy="6749"
     cx="4507"
     id="ellipse68"
     style="fill:none;stroke:#a14000;stroke-width:32"
     ry="269"
     rx="391" />
  <ellipse
     cy="8005.3433"
     cx="7181.2036"
     id="ellipse70"
     style="fill:none;stroke:#a14000;stroke-width:32"
     ry="541"
     rx="798"
     transform="matrix(0.98481347,-0.17361575,0.17361575,0.98481347,0,0)" />
  <ellipse
     cy="8004.3589"
     cx="7181.3774"
     id="ellipse72"
     style="fill:none;stroke:#a14000;stroke-width:32"
     ry="405"
     rx="595"
     transform="matrix(0.98481347,-0.17361575,0.17361575,0.98481347,0,0)" />
  <ellipse
     cy="8004.3589"
     cx="7181.3774"
     id="ellipse74"
     style="fill:none;stroke:#a14000;stroke-width:32"
     ry="269"
     rx="391"
     transform="matrix(0.98481347,-0.17361575,0.17361575,0.98481347,0,0)" />
  <polyline
     id="polyline76"
     style="fill:none;stroke:#b000b0;stroke-width:63;stroke-linecap:butt;stroke-linejoin:round"
     points="4724,2598 6141,3070 6850,2834 " />
  <polygon
     id="polygon78"
     style="fill:#ff0000;stroke:#ff0000;stroke-width:8;stroke-linecap:butt;stroke-linejoin:round"
     points="7322,2834 7228,2551 6803,2692 6803,2692 6897,2976 " />
  <polyline
     id="polyline80"
     style="fill:none;stroke:#a14000;stroke-width:32;stroke-linecap:butt;stroke-linejoin:bevel"
     points="2555,6460 2558,6460 2563,6460 2575,6460 2592,6459 2615,6458 2644,6457 2678,6456 2717,6455 2759,6453 2803,6450 2848,6448 2892,6445 2936,6441 2977,6438 3018,6434 3056,6430 3091,6426 3125,6420 3158,6415 3188,6409 3217,6403 3246,6395 3274,6388 3301,6380 3329,6370 3354,6361 3379,6351 3405,6341 3432,6329 3458,6318 3485,6305 3512,6292 3540,6279 3568,6265 3597,6250 3627,6236 3656,6220 3686,6205 3715,6190 3744,6174 3774,6159 3803,6143 3833,6129 3862,6114 3890,6100 3918,6087 3945,6074 3972,6061 3998,6050 4025,6038 4051,6028 4076,6018 4101,6009 4129,6000 4156,5991 4184,5984 4212,5976 4241,5969 4270,5964 4300,5959 4330,5954 4361,5950 4392,5947 4424,5945 4456,5944 4488,5944 4519,5944 4552,5945 4583,5947 4615,5950 4645,5954 4676,5959 4705,5964 4734,5969 4764,5976 4791,5984 4819,5991 4847,6000 4874,6009 4899,6018 4924,6028 4951,6038 4977,6050 5003,6061 5030,6074 5058,6087 5085,6100 5113,6114 5143,6129 5172,6143 5202,6159 5231,6174 5260,6190 5290,6205 5319,6220 5349,6236 5378,6250 5407,6265 5436,6279 5463,6292 5490,6305 5518,6318 5544,6329 5570,6341 5596,6351 5622,6361 5647,6370 5674,6380 5701,6388 5730,6395 5758,6403 5787,6409 5818,6415 5850,6420 5884,6426 5920,6430 5958,6434 5998,6438 6039,6441 6083,6445 6128,6448 6173,6450 6217,6453 6259,6455 6298,6456 6331,6457 6361,6458 6384,6459 6401,6460 6412,6460 6417,6460 6420,6460 " />
  <polyline
     id="polyline82"
     style="fill:none;stroke:#a14000;stroke-width:32;stroke-linecap:butt;stroke-linejoin:bevel"
     points="2555,6100 2558,6100 2563,6100 2575,6100 2592,6099 2615,6099 2644,6098 2678,6097 2717,6096 2759,6095 2803,6094 2848,6092 2892,6090 2936,6088 2977,6086 3018,6082 3056,6080 3091,6077 3125,6074 3158,6070 3188,6066 3217,6061 3246,6057 3274,6052 3301,6046 3329,6040 3356,6033 3383,6026 3411,6018 3439,6010 3468,6002 3498,5993 3527,5983 3558,5973 3588,5963 3619,5952 3651,5942 3683,5930 3715,5919 3746,5908 3779,5897 3811,5886 3842,5876 3872,5865 3903,5856 3932,5845 3962,5837 3991,5828 4018,5820 4047,5813 4074,5805 4101,5799 4129,5793 4156,5786 4184,5781 4212,5777 4241,5772 4270,5769 4300,5764 4330,5762 4361,5759 4392,5757 4424,5756 4456,5755 4488,5755 4519,5755 4552,5756 4583,5757 4615,5759 4645,5762 4676,5764 4705,5769 4734,5772 4764,5777 4791,5781 4819,5786 4847,5793 4874,5799 4901,5805 4929,5813 4957,5820 4984,5828 5014,5837 5043,5845 5072,5856 5103,5865 5133,5876 5165,5886 5196,5897 5229,5908 5260,5920 5292,5930 5324,5942 5356,5952 5387,5963 5418,5973 5448,5983 5478,5993 5507,6002 5537,6010 5565,6018 5592,6026 5619,6033 5647,6040 5674,6046 5701,6052 5730,6057 5758,6061 5787,6066 5818,6070 5850,6074 5884,6077 5920,6080 5958,6082 5998,6086 6039,6088 6083,6090 6128,6092 6173,6094 6217,6095 6259,6096 6298,6097 6331,6098 6361,6099 6384,6099 6401,6100 6412,6100 6417,6100 6420,6100 " />
  <polyline
     id="polyline84"
     style="fill:none;stroke:#a14000;stroke-width:32;stroke-linecap:butt;stroke-linejoin:bevel"
     points="2555,5738 2558,5738 2563,5738 2575,5738 2592,5738 2615,5737 2644,5737 2678,5737 2717,5736 2759,5736 2803,5735 2848,5734 2892,5733 2936,5732 2977,5731 3018,5730 3056,5728 3091,5727 3125,5724 3158,5723 3188,5721 3217,5719 3246,5717 3274,5714 3301,5711 3329,5709 3356,5704 3383,5701 3411,5697 3439,5694 3468,5690 3498,5685 3527,5680 3558,5675 3588,5670 3619,5665 3651,5659 3683,5654 3715,5648 3746,5643 3779,5637 3811,5632 3842,5627 3872,5622 3903,5616 3932,5612 3962,5607 3991,5603 4018,5600 4047,5595 4074,5592 4101,5589 4129,5586 4156,5583 4184,5580 4212,5577 4241,5575 4270,5573 4300,5572 4330,5570 4361,5569 4392,5568 4424,5567 4456,5567 4488,5567 4519,5567 4552,5567 4583,5568 4615,5569 4645,5570 4676,5572 4705,5573 4734,5575 4764,5577 4791,5580 4819,5583 4847,5586 4874,5589 4901,5592 4929,5595 4957,5600 4984,5603 5014,5607 5043,5612 5072,5616 5103,5622 5133,5627 5165,5632 5196,5637 5229,5643 5260,5649 5292,5654 5324,5659 5356,5665 5387,5670 5418,5675 5448,5680 5478,5685 5507,5690 5537,5694 5565,5697 5592,5701 5619,5704 5647,5709 5674,5711 5701,5714 5730,5717 5758,5719 5787,5721 5818,5723 5850,5724 5884,5727 5920,5728 5958,5730 5998,5731 6039,5732 6083,5733 6128,5734 6173,5735 6217,5736 6259,5736 6298,5737 6331,5737 6361,5737 6384,5738 6401,5738 6412,5738 6417,5738 6420,5738 " />
  <polyline
     id="polyline86"
     style="fill:none;stroke:#a14000;stroke-width:32;stroke-linecap:butt;stroke-linejoin:bevel"
     points="2555,5378 2558,5378 2563,5378 2575,5378 2592,5378 2615,5378 2644,5378 2678,5378 2717,5378 2759,5378 2803,5378 2848,5378 2892,5378 2936,5378 2977,5378 3018,5378 3056,5378 3091,5378 3125,5378 3158,5378 3188,5378 3217,5378 3246,5378 3274,5378 3301,5378 3329,5378 3356,5378 3383,5378 3411,5378 3439,5378 3468,5378 3498,5378 3527,5378 3558,5378 3588,5378 3619,5378 3651,5378 3683,5378 3715,5378 3746,5378 3779,5378 3811,5378 3842,5378 3872,5378 3903,5378 3932,5378 3962,5378 3991,5378 4018,5378 4047,5378 4074,5378 4101,5378 4129,5378 4156,5378 4184,5378 4212,5378 4241,5378 4270,5378 4300,5378 4330,5378 4361,5378 4392,5378 4424,5378 4456,5378 4488,5378 4519,5378 4552,5378 4583,5378 4615,5378 4645,5378 4676,5378 4705,5378 4734,5378 4764,5378 4791,5378 4819,5378 4847,5378 4874,5378 4901,5378 4929,5378 4957,5378 4984,5378 5014,5378 5043,5378 5072,5378 5103,5378 5133,5378 5165,5378 5196,5378 5229,5378 5260,5378 5292,5378 5324,5378 5356,5378 5387,5378 5418,5378 5448,5378 5478,5378 5507,5378 5537,5378 5565,5378 5592,5378 5619,5378 5647,5378 5674,5378 5701,5378 5730,5378 5758,5378 5787,5378 5818,5378 5850,5378 5884,5378 5920,5378 5958,5378 5998,5378 6039,5378 6083,5378 6128,5378 6173,5378 6217,5378 6259,5378 6298,5378 6331,5378 6361,5378 6384,5378 6401,5378 6412,5378 6417,5378 6420,5378 " />
  <polyline
     id="polyline88"
     style="fill:none;stroke:#a14000;stroke-width:32;stroke-linecap:butt;stroke-linejoin:bevel"
     points="2555,5559 2558,5559 2563,5559 2575,5559 2592,5559 2615,5559 2644,5558 2678,5558 2717,5558 2759,5558 2803,5556 2848,5556 2892,5555 2936,5554 2977,5554 3018,5553 3056,5552 3091,5551 3125,5550 3158,5549 3188,5548 3217,5547 3246,5546 3274,5544 3301,5542 3329,5541 3356,5539 3383,5537 3411,5534 3439,5531 3468,5529 3498,5526 3527,5523 3558,5521 3588,5518 3619,5513 3651,5510 3683,5507 3715,5504 3746,5501 3779,5498 3811,5495 3842,5490 3872,5487 3903,5485 3932,5482 3962,5479 3991,5477 4018,5474 4047,5471 4074,5469 4101,5467 4129,5466 4156,5464 4184,5462 4212,5461 4241,5460 4270,5459 4300,5458 4330,5457 4361,5456 4392,5456 4424,5455 4456,5455 4488,5455 4519,5455 4552,5455 4583,5456 4615,5456 4645,5457 4676,5458 4705,5459 4734,5460 4764,5461 4791,5462 4819,5464 4847,5466 4874,5467 4901,5469 4929,5471 4957,5474 4984,5477 5014,5479 5043,5482 5072,5485 5103,5487 5133,5490 5165,5495 5196,5498 5229,5501 5260,5504 5292,5507 5324,5510 5356,5513 5387,5518 5418,5521 5448,5523 5478,5526 5507,5529 5537,5531 5565,5534 5592,5537 5619,5539 5647,5541 5674,5542 5701,5544 5730,5546 5758,5547 5787,5548 5818,5549 5850,5550 5884,5551 5920,5552 5958,5553 5998,5554 6039,5554 6083,5555 6128,5556 6173,5556 6217,5558 6259,5558 6298,5558 6331,5558 6361,5559 6384,5559 6401,5559 6412,5559 6417,5559 6420,5559 " />
  <polyline
     id="polyline90"
     style="fill:none;stroke:#a14000;stroke-width:32;stroke-linecap:butt;stroke-linejoin:bevel"
     points="2555,5919 2558,5919 2563,5919 2575,5919 2592,5918 2615,5918 2644,5918 2678,5917 2717,5916 2759,5914 2803,5913 2848,5912 2892,5910 2936,5908 2977,5907 3018,5905 3056,5903 3091,5900 3125,5898 3158,5895 3188,5891 3217,5888 3246,5884 3274,5880 3301,5876 3329,5870 3356,5865 3383,5860 3411,5854 3439,5847 3468,5840 3498,5833 3527,5825 3558,5817 3588,5808 3619,5800 3651,5792 3683,5782 3715,5774 3746,5765 3779,5756 3811,5748 3842,5739 3872,5731 3903,5722 3932,5715 3962,5708 3991,5700 4018,5694 4047,5688 4074,5682 4101,5677 4129,5672 4156,5668 4184,5664 4212,5659 4241,5656 4270,5653 4300,5650 4330,5648 4361,5646 4392,5645 4424,5644 4456,5643 4488,5643 4519,5643 4552,5644 4583,5645 4615,5646 4645,5648 4676,5650 4705,5653 4734,5656 4764,5659 4791,5664 4819,5668 4847,5672 4874,5677 4901,5682 4929,5688 4957,5694 4984,5700 5014,5708 5043,5715 5072,5722 5103,5731 5133,5739 5165,5748 5196,5756 5229,5765 5260,5774 5292,5782 5324,5792 5356,5800 5387,5808 5418,5817 5448,5825 5478,5833 5507,5840 5537,5847 5565,5854 5592,5860 5619,5865 5647,5870 5674,5876 5701,5880 5730,5884 5758,5888 5787,5891 5818,5895 5850,5898 5884,5900 5920,5903 5958,5905 5998,5907 6039,5908 6083,5910 6128,5912 6173,5913 6217,5914 6259,5916 6298,5917 6331,5918 6361,5918 6384,5918 6401,5919 6412,5919 6417,5919 6420,5919 " />
  <polyline
     id="polyline92"
     style="fill:none;stroke:#a14000;stroke-width:32;stroke-linecap:butt;stroke-linejoin:bevel"
     points="2555,6641 2558,6641 2563,6641 2575,6640 2592,6640 2615,6639 2644,6638 2678,6636 2717,6634 2759,6632 2803,6629 2848,6626 2892,6622 2936,6619 2977,6615 3018,6609 3056,6604 3091,6599 3125,6593 3158,6586 3188,6579 3217,6572 3246,6563 3274,6554 3301,6543 3329,6533 3354,6522 3379,6510 3405,6497 3432,6485 3458,6470 3485,6455 3512,6439 3540,6424 3568,6407 3597,6389 3627,6371 3656,6353 3686,6335 3715,6317 3744,6298 3774,6280 3803,6262 3833,6244 3862,6226 3890,6209 3918,6194 3945,6178 3972,6163 3998,6149 4025,6136 4051,6123 4076,6111 4101,6100 4129,6090 4156,6079 4184,6070 4212,6061 4241,6053 4270,6046 4300,6039 4330,6034 4361,6030 4392,6027 4424,6024 4456,6023 4488,6023 4519,6023 4552,6024 4583,6027 4615,6030 4645,6034 4676,6039 4705,6046 4734,6053 4764,6061 4791,6070 4819,6079 4847,6090 4874,6100 4899,6111 4924,6123 4951,6136 4977,6149 5003,6163 5030,6178 5058,6194 5085,6209 5113,6226 5143,6244 5172,6262 5202,6280 5231,6298 5260,6317 5290,6335 5319,6353 5349,6371 5378,6389 5407,6407 5436,6424 5463,6439 5490,6455 5518,6470 5544,6485 5570,6497 5596,6510 5622,6522 5647,6533 5674,6543 5701,6554 5730,6563 5758,6572 5787,6579 5818,6586 5850,6593 5884,6599 5920,6604 5958,6609 5998,6615 6039,6619 6083,6622 6128,6626 6173,6629 6217,6632 6259,6634 6298,6636 6331,6638 6361,6639 6384,6640 6401,6640 6412,6641 6417,6641 6420,6641 " />
  <polyline
     id="polyline94"
     style="fill:none;stroke:#a14000;stroke-width:32;stroke-linecap:butt;stroke-linejoin:bevel"
     points="2555,8086 2558,8086 2563,8086 2575,8086 2592,8086 2615,8086 2644,8086 2678,8086 2717,8086 2759,8086 2803,8086 2848,8086 2892,8086 2936,8086 2977,8086 3018,8086 3056,8086 3091,8086 3125,8086 3158,8086 3188,8086 3217,8086 3246,8086 3274,8086 3301,8086 3329,8086 3356,8086 3383,8086 3411,8086 3439,8086 3468,8086 3498,8086 3527,8086 3558,8086 3588,8086 3619,8086 3651,8086 3683,8086 3715,8086 3746,8086 3779,8086 3811,8086 3842,8086 3872,8086 3903,8086 3932,8086 3962,8086 3991,8086 4018,8086 4047,8086 4074,8086 4101,8086 4129,8086 4156,8086 4184,8086 4212,8086 4241,8086 4270,8086 4300,8086 4330,8086 4361,8086 4392,8086 4424,8086 4456,8086 4488,8086 4519,8086 4552,8086 4583,8086 4615,8086 4645,8086 4676,8086 4705,8086 4734,8086 4764,8086 4791,8086 4819,8086 4847,8086 4874,8086 4901,8086 4929,8086 4957,8086 4984,8086 5014,8086 5043,8086 5072,8086 5103,8086 5133,8086 5165,8086 5196,8086 5229,8086 5260,8086 5292,8086 5324,8086 5356,8086 5387,8086 5418,8086 5448,8086 5478,8086 5507,8086 5537,8086 5565,8086 5592,8086 5619,8086 5647,8086 5674,8086 5701,8086 5730,8086 5758,8086 5787,8086 5818,8086 5850,8086 5884,8086 5920,8086 5958,8086 5998,8086 6039,8086 6083,8086 6128,8086 6173,8086 6217,8086 6259,8086 6298,8086 6331,8086 6361,8086 6384,8086 6401,8086 6412,8086 6417,8086 6420,8086 " />
  <polyline
     id="polyline96"
     style="fill:none;stroke:#a14000;stroke-width:32;stroke-linecap:butt;stroke-linejoin:bevel"
     points="2555,7725 2558,7725 2563,7725 2575,7725 2592,7725 2615,7727 2644,7727 2678,7727 2717,7728 2759,7728 2803,7729 2848,7730 2892,7731 2936,7732 2977,7733 3018,7734 3056,7736 3091,7737 3125,7739 3158,7740 3188,7742 3217,7744 3246,7748 3274,7750 3301,7753 3329,7756 3356,7759 3383,7762 3411,7766 3439,7771 3468,7775 3498,7779 3527,7784 3558,7788 3588,7794 3619,7799 3651,7804 3683,7811 3715,7816 3746,7821 3779,7827 3811,7833 3842,7838 3872,7843 3903,7847 3932,7853 3962,7857 3991,7861 4018,7865 4047,7869 4074,7872 4101,7876 4129,7879 4156,7882 4184,7884 4212,7887 4241,7889 4270,7891 4300,7892 4330,7895 4361,7896 4392,7897 4424,7898 4456,7898 4488,7898 4519,7898 4552,7898 4583,7897 4615,7896 4645,7895 4676,7892 4705,7891 4734,7889 4764,7887 4791,7884 4819,7882 4847,7879 4874,7876 4901,7872 4929,7869 4957,7865 4984,7861 5014,7857 5043,7853 5072,7847 5103,7843 5133,7838 5165,7833 5196,7827 5229,7821 5260,7816 5292,7811 5324,7804 5356,7799 5387,7794 5418,7788 5448,7784 5478,7779 5507,7775 5537,7771 5565,7766 5592,7762 5619,7759 5647,7756 5674,7753 5701,7750 5730,7748 5758,7744 5787,7742 5818,7740 5850,7739 5884,7737 5920,7736 5958,7734 5998,7733 6039,7732 6083,7731 6128,7730 6173,7729 6217,7728 6259,7728 6298,7727 6331,7727 6361,7727 6384,7725 6401,7725 6412,7725 6417,7725 6420,7725 " />
  <polyline
     id="polyline98"
     style="fill:none;stroke:#a14000;stroke-width:32;stroke-linecap:butt;stroke-linejoin:bevel"
     points="2555,7003 2558,7003 2563,7003 2575,7003 2592,7004 2615,7005 2644,7006 2678,7007 2717,7008 2759,7011 2803,7014 2848,7016 2892,7019 2936,7022 2977,7025 3018,7029 3056,7034 3091,7038 3125,7043 3158,7048 3188,7055 3217,7061 3246,7068 3274,7076 3301,7084 3329,7093 3354,7103 3379,7112 3405,7123 3432,7134 3458,7146 3485,7159 3512,7171 3540,7185 3568,7198 3597,7213 3627,7228 3656,7244 3686,7258 3715,7274 3744,7290 3774,7304 3803,7320 3833,7335 3862,7350 3890,7363 3918,7377 3945,7390 3972,7402 3998,7414 4025,7425 4051,7436 4076,7445 4101,7455 4129,7464 4156,7472 4184,7480 4212,7487 4241,7495 4270,7500 4300,7505 4330,7509 4361,7513 4392,7517 4424,7519 4456,7520 4488,7520 4519,7520 4552,7519 4583,7517 4615,7513 4645,7509 4676,7505 4705,7500 4734,7495 4764,7487 4791,7480 4819,7472 4847,7464 4874,7455 4899,7445 4924,7436 4951,7425 4977,7414 5003,7402 5030,7390 5058,7377 5085,7363 5113,7350 5143,7335 5172,7320 5202,7304 5231,7290 5260,7274 5290,7258 5319,7244 5349,7228 5378,7213 5407,7198 5436,7185 5463,7171 5490,7159 5518,7146 5544,7134 5570,7123 5596,7112 5622,7103 5647,7093 5674,7084 5701,7076 5730,7068 5758,7061 5787,7055 5818,7048 5850,7043 5884,7038 5920,7034 5958,7029 5998,7025 6039,7022 6083,7019 6128,7016 6173,7014 6217,7011 6259,7008 6298,7007 6331,7006 6361,7005 6384,7004 6401,7003 6412,7003 6417,7003 6420,7003 " />
  <polyline
     id="polyline100"
     style="fill:none;stroke:#a14000;stroke-width:32;stroke-linecap:butt;stroke-linejoin:bevel"
     points="2555,6823 2558,6823 2563,6823 2575,6824 2592,6824 2615,6825 2644,6826 2678,6828 2717,6830 2759,6832 2803,6834 2848,6837 2892,6841 2936,6845 2977,6849 3018,6854 3056,6859 3091,6865 3125,6871 3158,6877 3188,6885 3217,6892 3246,6900 3274,6910 3301,6920 3329,6931 3354,6941 3379,6954 3405,6966 3432,6979 3458,6994 3485,7008 3512,7024 3540,7040 3568,7057 3597,7075 3627,7092 3656,7110 3686,7128 3715,7147 3744,7166 3774,7184 3803,7202 3833,7219 3862,7237 3890,7254 3918,7270 3945,7286 3972,7300 3998,7315 4025,7328 4051,7340 4076,7353 4101,7363 4129,7374 4156,7384 4184,7394 4212,7402 4241,7411 4270,7418 4300,7424 4330,7429 4361,7434 4392,7437 4424,7440 4456,7441 4488,7441 4519,7441 4552,7440 4583,7437 4615,7434 4645,7429 4676,7424 4705,7418 4734,7411 4764,7402 4791,7394 4819,7384 4847,7374 4874,7363 4899,7353 4924,7340 4951,7328 4977,7315 5003,7300 5030,7286 5058,7270 5085,7254 5113,7237 5143,7219 5172,7202 5202,7184 5231,7166 5260,7147 5290,7128 5319,7110 5349,7092 5378,7075 5407,7057 5436,7040 5463,7024 5490,7008 5518,6994 5544,6979 5570,6966 5596,6954 5622,6941 5647,6931 5674,6920 5701,6910 5730,6900 5758,6892 5787,6885 5818,6877 5850,6871 5884,6865 5920,6859 5958,6854 5998,6849 6039,6845 6083,6841 6128,6837 6173,6834 6217,6832 6259,6830 6298,6828 6331,6826 6361,6825 6384,6824 6401,6824 6412,6823 6417,6823 6420,6823 " />
  <polyline
     id="polyline102"
     style="fill:none;stroke:#a14000;stroke-width:32;stroke-linecap:butt;stroke-linejoin:bevel"
     points="2555,7906 2558,7906 2563,7906 2575,7906 2592,7906 2615,7906 2644,7907 2678,7907 2717,7907 2759,7907 2803,7908 2848,7908 2892,7909 2936,7910 2977,7910 3018,7911 3056,7912 3091,7913 3125,7914 3158,7916 3188,7917 3217,7918 3246,7919 3274,7921 3301,7923 3329,7924 3356,7926 3383,7928 3411,7930 3439,7933 3468,7935 3498,7939 3527,7942 3558,7944 3588,7947 3619,7951 3651,7954 3683,7958 3715,7961 3746,7964 3779,7967 3811,7970 3842,7974 3872,7977 3903,7980 3932,7983 3962,7986 3991,7988 4018,7991 4047,7993 4074,7995 4101,7997 4129,7998 4156,8001 4184,8003 4212,8004 4241,8005 4270,8006 4300,8007 4330,8008 4361,8009 4392,8009 4424,8010 4456,8010 4488,8010 4519,8010 4552,8010 4583,8009 4615,8009 4645,8008 4676,8007 4705,8006 4734,8005 4764,8004 4791,8003 4819,8001 4847,7998 4874,7997 4901,7995 4929,7993 4957,7991 4984,7988 5014,7986 5043,7983 5072,7980 5103,7977 5133,7974 5165,7970 5196,7967 5229,7964 5260,7961 5292,7958 5324,7954 5356,7951 5387,7947 5418,7944 5448,7942 5478,7939 5507,7935 5537,7933 5565,7930 5592,7928 5619,7926 5647,7924 5674,7923 5701,7921 5730,7919 5758,7918 5787,7917 5818,7916 5850,7914 5884,7913 5920,7912 5958,7911 5998,7910 6039,7910 6083,7909 6128,7908 6173,7908 6217,7907 6259,7907 6298,7907 6331,7907 6361,7906 6384,7906 6401,7906 6412,7906 6417,7906 6420,7906 " />
  <polyline
     id="polyline104"
     style="fill:none;stroke:#a14000;stroke-width:32;stroke-linecap:butt;stroke-linejoin:bevel"
     points="2555,7545 2558,7545 2563,7545 2575,7545 2592,7546 2615,7546 2644,7546 2678,7547 2717,7548 2759,7549 2803,7550 2848,7551 2892,7553 2936,7555 2977,7556 3018,7559 3056,7561 3091,7564 3125,7566 3158,7569 3188,7572 3217,7575 3246,7580 3274,7584 3301,7588 3329,7593 3356,7598 3383,7604 3411,7610 3439,7616 3468,7624 3498,7631 3527,7638 3558,7647 3588,7655 3619,7664 3651,7672 3683,7681 3715,7690 3746,7698 3779,7708 3811,7716 3842,7724 3872,7733 3903,7741 3932,7749 3962,7756 3991,7763 4018,7770 4047,7776 4074,7781 4101,7786 4129,7792 4156,7796 4184,7800 4212,7804 4241,7807 4270,7811 4300,7814 4330,7816 4361,7818 4392,7819 4424,7820 4456,7821 4488,7821 4519,7821 4552,7820 4583,7819 4615,7818 4645,7816 4676,7814 4705,7811 4734,7807 4764,7804 4791,7800 4819,7796 4847,7792 4874,7786 4901,7781 4929,7776 4957,7770 4984,7763 5014,7756 5043,7749 5072,7741 5103,7733 5133,7724 5165,7716 5196,7708 5229,7698 5260,7690 5292,7681 5324,7672 5356,7664 5387,7655 5418,7647 5448,7638 5478,7631 5507,7624 5537,7616 5565,7610 5592,7604 5619,7598 5647,7593 5674,7588 5701,7584 5730,7580 5758,7575 5787,7572 5818,7569 5850,7566 5884,7564 5920,7561 5958,7559 5998,7556 6039,7555 6083,7553 6128,7551 6173,7550 6217,7549 6259,7548 6298,7547 6331,7546 6361,7546 6384,7546 6401,7545 6412,7545 6417,7545 6420,7545 " />
  <polyline
     id="polyline106"
     style="fill:none;stroke:#a14000;stroke-width:32;stroke-linecap:butt;stroke-linejoin:bevel"
     points="2555,7183 2558,7183 2563,7183 2575,7183 2592,7184 2615,7184 2644,7185 2678,7186 2717,7188 2759,7189 2803,7191 2848,7193 2892,7196 2936,7200 2977,7202 3018,7206 3056,7209 3091,7213 3125,7217 3158,7223 3188,7227 3217,7233 3246,7239 3274,7246 3301,7253 3329,7261 3354,7269 3379,7277 3405,7287 3432,7296 3458,7307 3485,7317 3512,7329 3540,7340 3568,7353 3597,7365 3627,7378 3656,7392 3686,7404 3715,7418 3744,7432 3774,7444 3803,7458 3833,7470 3862,7483 3890,7496 3918,7507 3945,7519 3972,7529 3998,7540 4025,7549 4051,7559 4076,7567 4101,7574 4129,7583 4156,7590 4184,7597 4212,7603 4241,7609 4270,7614 4300,7618 4330,7623 4361,7626 4392,7628 4424,7630 4456,7631 4488,7631 4519,7631 4552,7630 4583,7628 4615,7626 4645,7623 4676,7618 4705,7614 4734,7609 4764,7603 4791,7597 4819,7590 4847,7583 4874,7574 4899,7567 4924,7559 4951,7549 4977,7540 5003,7529 5030,7519 5058,7507 5085,7496 5113,7483 5143,7470 5172,7458 5202,7444 5231,7432 5260,7418 5290,7404 5319,7392 5349,7378 5378,7365 5407,7353 5436,7340 5463,7329 5490,7317 5518,7307 5544,7296 5570,7287 5596,7277 5622,7269 5647,7261 5674,7253 5701,7246 5730,7239 5758,7233 5787,7227 5818,7223 5850,7217 5884,7213 5920,7209 5958,7206 5998,7202 6039,7200 6083,7196 6128,7193 6173,7191 6217,7189 6259,7188 6298,7186 6331,7185 6361,7184 6384,7184 6401,7183 6412,7183 6417,7183 6420,7183 " />
  <polyline
     id="polyline108"
     style="fill:none;stroke:#a14000;stroke-width:32;stroke-linecap:butt;stroke-linejoin:bevel"
     points="2555,6281 2558,6281 2563,6281 2575,6281 2592,6280 2615,6280 2644,6279 2678,6278 2717,6276 2759,6275 2803,6272 2848,6270 2892,6267 2936,6264 2977,6262 3018,6258 3056,6255 3091,6250 3125,6246 3158,6241 3188,6237 3217,6230 3246,6224 3274,6218 3301,6211 3329,6202 3354,6195 3379,6186 3405,6177 3432,6167 3458,6157 3485,6146 3512,6135 3540,6123 3568,6111 3597,6098 3627,6086 3656,6072 3686,6059 3715,6046 3744,6032 3774,6019 3803,6006 3833,5993 3862,5981 3890,5968 3918,5956 3945,5945 3972,5934 3998,5924 4025,5914 4051,5905 4076,5897 4101,5889 4129,5881 4156,5874 4184,5866 4212,5861 4241,5855 4270,5849 4300,5845 4330,5841 4361,5838 4392,5836 4424,5834 4456,5833 4488,5833 4519,5833 4552,5834 4583,5836 4615,5838 4645,5841 4676,5845 4705,5849 4734,5855 4764,5861 4791,5866 4819,5874 4847,5881 4874,5889 4899,5897 4924,5905 4951,5914 4977,5924 5003,5934 5030,5945 5058,5956 5085,5968 5113,5981 5143,5993 5172,6006 5202,6019 5231,6032 5260,6046 5290,6059 5319,6072 5349,6086 5378,6098 5407,6111 5436,6123 5463,6135 5490,6146 5518,6157 5544,6167 5570,6177 5596,6186 5622,6195 5647,6202 5674,6211 5701,6218 5730,6224 5758,6230 5787,6237 5818,6241 5850,6246 5884,6250 5920,6255 5958,6258 5998,6262 6039,6264 6083,6267 6128,6270 6173,6272 6217,6275 6259,6276 6298,6278 6331,6279 6361,6280 6384,6280 6401,6281 6412,6281 6417,6281 6420,6281 " />
  <polyline
     id="polyline110"
     style="fill:none;stroke:#a14000;stroke-width:32;stroke-linecap:butt;stroke-linejoin:bevel"
     points="2555,7363 2558,7363 2563,7363 2575,7363 2592,7364 2615,7364 2644,7365 2678,7366 2717,7367 2759,7369 2803,7370 2848,7372 2892,7374 2936,7376 2977,7378 3018,7381 3056,7383 3091,7386 3125,7390 3158,7394 3188,7398 3217,7402 3246,7406 3274,7412 3301,7418 3329,7424 3356,7430 3383,7438 3411,7445 3439,7454 3468,7462 3498,7470 3527,7481 3558,7490 3588,7501 3619,7511 3651,7522 3683,7533 3715,7545 3746,7555 3779,7567 3811,7577 3842,7588 3872,7598 3903,7608 3932,7618 3962,7627 3991,7635 4018,7644 4047,7651 4074,7658 4101,7666 4129,7671 4156,7677 4184,7682 4212,7687 4241,7692 4270,7695 4300,7699 4330,7701 4361,7704 4392,7707 4424,7708 4456,7709 4488,7709 4519,7709 4552,7708 4583,7707 4615,7704 4645,7701 4676,7699 4705,7695 4734,7692 4764,7687 4791,7682 4819,7677 4847,7671 4874,7666 4901,7658 4929,7651 4957,7644 4984,7635 5014,7627 5043,7618 5072,7608 5103,7598 5133,7588 5165,7577 5196,7567 5229,7555 5260,7544 5292,7533 5324,7522 5356,7511 5387,7501 5418,7490 5448,7481 5478,7470 5507,7462 5537,7454 5565,7445 5592,7438 5619,7430 5647,7424 5674,7418 5701,7412 5730,7406 5758,7402 5787,7398 5818,7394 5850,7390 5884,7386 5920,7383 5958,7381 5998,7378 6039,7376 6083,7374 6128,7372 6173,7370 6217,7369 6259,7367 6298,7366 6331,7365 6361,7364 6384,7364 6401,7363 6412,7363 6417,7363 6420,7363 " />
  <polyline
     id="polyline112"
     style="fill:none;stroke:#a14000;stroke-width:32;stroke-linecap:butt;stroke-linejoin:bevel"
     points="6490,6690 6493,6689 6498,6688 6510,6686 6525,6683 6549,6678 6577,6672 6611,6665 6648,6657 6689,6647 6732,6638 6776,6627 6819,6617 6861,6605 6902,6595 6941,6584 6977,6574 7012,6562 7044,6552 7076,6541 7104,6530 7132,6518 7160,6507 7185,6494 7211,6480 7236,6467 7259,6454 7282,6439 7307,6425 7330,6409 7354,6393 7379,6376 7403,6359 7428,6341 7454,6322 7480,6303 7506,6283 7532,6263 7559,6242 7585,6222 7612,6202 7638,6181 7665,6161 7691,6141 7716,6122 7742,6103 7767,6086 7792,6068 7817,6051 7840,6035 7864,6019 7887,6005 7911,5990 7934,5977 7960,5964 7985,5950 8011,5938 8037,5926 8065,5914 8093,5903 8121,5892 8151,5883 8180,5875 8211,5866 8241,5859 8272,5851 8304,5845 8335,5841 8367,5837 8398,5833 8430,5830 8460,5828 8491,5827 8521,5827 8552,5828 8581,5829 8609,5832 8639,5835 8667,5839 8696,5843 8722,5847 8749,5853 8776,5859 8804,5865 8832,5872 8860,5880 8890,5887 8920,5897 8950,5905 8981,5914 9013,5924 9044,5933 9076,5944 9108,5954 9140,5964 9171,5974 9203,5984 9234,5993 9266,6003 9295,6011 9325,6020 9355,6028 9383,6035 9412,6043 9439,6049 9466,6055 9493,6060 9520,6065 9548,6069 9576,6073 9606,6075 9635,6077 9665,6079 9696,6079 9729,6079 9763,6078 9799,6076 9837,6074 9877,6071 9919,6067 9962,6062 10007,6058 10051,6053 10095,6047 10136,6041 10175,6037 10208,6032 10238,6028 10260,6025 10277,6023 10288,6020 10293,6019 10297,6019 " />
  <polyline
     id="polyline114"
     style="fill:none;stroke:#a14000;stroke-width:32;stroke-linecap:butt;stroke-linejoin:bevel"
     points="6428,6335 6431,6335 6436,6333 6448,6331 6464,6328 6487,6324 6515,6319 6549,6311 6586,6304 6628,6295 6671,6286 6714,6277 6759,6266 6801,6257 6841,6247 6880,6238 6917,6228 6952,6219 6985,6211 7016,6201 7045,6192 7074,6182 7101,6173 7127,6163 7153,6153 7180,6142 7205,6131 7231,6119 7257,6107 7283,6094 7310,6080 7337,6066 7365,6051 7394,6036 7422,6020 7450,6005 7480,5989 7509,5972 7539,5955 7569,5940 7598,5923 7627,5907 7656,5891 7685,5876 7713,5861 7740,5846 7767,5832 7795,5818 7821,5805 7847,5793 7872,5781 7899,5771 7924,5759 7950,5749 7976,5739 8004,5730 8031,5720 8059,5711 8088,5702 8117,5694 8148,5687 8178,5679 8208,5672 8240,5666 8271,5660 8303,5655 8334,5650 8366,5646 8396,5643 8428,5639 8457,5637 8488,5635 8517,5634 8546,5633 8575,5633 8603,5634 8632,5634 8659,5636 8687,5637 8716,5640 8744,5643 8773,5646 8803,5649 8833,5653 8865,5657 8896,5661 8928,5667 8961,5672 8994,5677 9027,5682 9061,5688 9093,5693 9127,5698 9161,5703 9193,5709 9225,5714 9256,5718 9288,5722 9318,5727 9348,5730 9377,5733 9406,5735 9434,5738 9462,5739 9490,5741 9518,5741 9546,5742 9575,5741 9605,5741 9636,5739 9669,5737 9702,5735 9738,5732 9776,5728 9816,5723 9858,5718 9901,5713 9945,5707 9989,5701 10033,5695 10074,5689 10113,5683 10146,5678 10176,5674 10198,5670 10215,5668 10226,5666 10232,5665 10235,5665 " />
  <polyline
     id="polyline116"
     style="fill:none;stroke:#a14000;stroke-width:32;stroke-linecap:butt;stroke-linejoin:bevel"
     points="6365,5980 6368,5980 6373,5977 6385,5976 6401,5973 6424,5969 6452,5963 6486,5956 6524,5949 6565,5942 6608,5933 6653,5925 6697,5916 6739,5907 6780,5899 6818,5890 6856,5883 6891,5875 6924,5867 6956,5860 6985,5853 7014,5845 7042,5838 7068,5830 7096,5823 7122,5816 7148,5807 7174,5799 7202,5791 7228,5782 7256,5773 7283,5763 7312,5753 7341,5743 7371,5733 7401,5722 7430,5711 7461,5700 7491,5690 7523,5678 7553,5668 7583,5656 7613,5646 7643,5635 7671,5626 7700,5615 7728,5606 7756,5596 7782,5588 7809,5580 7836,5571 7862,5563 7888,5555 7914,5548 7942,5541 7969,5533 7997,5526 8026,5519 8054,5512 8085,5505 8114,5499 8145,5492 8176,5486 8207,5481 8239,5475 8270,5469 8302,5464 8333,5460 8364,5455 8394,5451 8425,5447 8454,5444 8483,5441 8512,5438 8540,5436 8569,5433 8596,5430 8623,5429 8650,5427 8678,5426 8706,5425 8734,5424 8764,5423 8793,5423 8824,5422 8854,5422 8886,5422 8917,5421 8949,5421 8981,5421 9014,5421 9046,5421 9079,5421 9110,5421 9142,5420 9173,5420 9204,5420 9234,5419 9264,5418 9293,5418 9321,5417 9350,5416 9377,5414 9404,5413 9432,5411 9460,5408 9487,5406 9516,5404 9545,5401 9575,5398 9608,5394 9641,5390 9677,5384 9715,5379 9754,5374 9796,5367 9839,5361 9883,5355 9927,5348 9970,5340 10012,5334 10050,5328 10085,5322 10113,5317 10136,5314 10152,5311 10163,5309 10169,5308 10172,5308 " />
  <polyline
     id="polyline118"
     style="fill:none;stroke:#a14000;stroke-width:32;stroke-linecap:butt;stroke-linejoin:bevel"
     points="6302,5625 6305,5625 6310,5624 6322,5622 6338,5618 6361,5614 6389,5609 6424,5604 6461,5596 6502,5589 6546,5582 6591,5574 6634,5566 6677,5559 6718,5551 6758,5544 6795,5538 6830,5531 6864,5526 6895,5520 6925,5514 6955,5509 6982,5505 7009,5500 7037,5496 7064,5490 7090,5485 7118,5481 7145,5476 7173,5471 7202,5466 7230,5461 7259,5456 7290,5450 7320,5445 7351,5440 7382,5435 7413,5428 7444,5423 7476,5418 7507,5412 7539,5406 7569,5401 7600,5396 7630,5391 7659,5385 7688,5380 7716,5375 7744,5371 7772,5365 7798,5361 7825,5356 7853,5351 7879,5346 7906,5341 7934,5337 7963,5332 7991,5327 8020,5321 8051,5316 8081,5311 8112,5306 8143,5300 8175,5294 8206,5289 8237,5283 8268,5277 8300,5272 8330,5267 8361,5261 8391,5256 8420,5251 8449,5246 8477,5240 8506,5236 8533,5231 8559,5227 8586,5222 8614,5216 8640,5212 8667,5207 8696,5203 8724,5197 8752,5192 8782,5187 8812,5182 8843,5176 8873,5171 8904,5166 8936,5160 8967,5154 8998,5149 9029,5143 9061,5138 9091,5132 9122,5127 9152,5122 9182,5117 9210,5111 9238,5106 9267,5102 9294,5097 9320,5092 9348,5087 9375,5082 9401,5078 9428,5072 9457,5068 9486,5063 9516,5058 9548,5051 9581,5046 9616,5040 9654,5034 9693,5026 9734,5019 9777,5012 9821,5003 9865,4996 9908,4988 9949,4981 9988,4974 10022,4969 10050,4963 10073,4959 10089,4956 10100,4954 10106,4953 10109,4953 " />
  <polyline
     id="polyline120"
     style="fill:none;stroke:#a14000;stroke-width:32;stroke-linecap:butt;stroke-linejoin:bevel"
     points="6333,5802 6337,5802 6342,5801 6353,5799 6369,5796 6392,5792 6420,5786 6454,5780 6493,5773 6534,5765 6577,5757 6621,5749 6665,5740 6708,5732 6749,5724 6788,5717 6826,5709 6860,5702 6894,5695 6925,5689 6955,5682 6984,5676 7012,5669 7039,5662 7066,5656 7092,5650 7119,5644 7146,5636 7172,5629 7200,5622 7228,5614 7256,5607 7285,5598 7314,5590 7344,5582 7375,5573 7405,5565 7436,5555 7466,5547 7498,5539 7528,5529 7559,5521 7589,5512 7619,5504 7649,5496 7677,5487 7706,5480 7734,5472 7761,5465 7787,5458 7815,5450 7841,5444 7867,5438 7895,5432 7922,5425 7949,5418 7977,5412 8006,5406 8035,5400 8065,5394 8095,5387 8125,5381 8157,5376 8187,5370 8219,5364 8250,5359 8282,5353 8313,5349 8344,5343 8374,5339 8405,5334 8434,5331 8464,5327 8492,5322 8520,5319 8548,5316 8575,5313 8602,5310 8629,5308 8657,5304 8684,5302 8712,5299 8741,5297 8770,5295 8801,5292 8831,5290 8861,5288 8893,5286 8924,5283 8957,5281 8988,5278 9021,5276 9053,5274 9084,5272 9116,5270 9146,5268 9176,5266 9207,5262 9236,5260 9265,5258 9293,5255 9320,5253 9348,5250 9375,5248 9402,5245 9429,5241 9458,5238 9486,5235 9514,5231 9545,5227 9577,5223 9611,5217 9647,5212 9683,5207 9723,5201 9764,5193 9807,5187 9851,5180 9896,5172 9939,5165 9981,5159 10018,5152 10053,5146 10081,5142 10104,5138 10120,5134 10132,5132 10137,5131 10140,5131 " />
  <polyline
     id="polyline122"
     style="fill:none;stroke:#a14000;stroke-width:32;stroke-linecap:butt;stroke-linejoin:bevel"
     points="6396,6157 6400,6157 6405,6155 6416,6153 6432,6150 6455,6145 6483,6140 6517,6134 6556,6125 6597,6117 6640,6109 6683,6099 6727,6090 6769,6081 6810,6072 6850,6062 6887,6054 6921,6046 6954,6037 6985,6029 7015,6020 7043,6011 7070,6003 7098,5994 7124,5985 7150,5975 7175,5965 7202,5954 7228,5944 7255,5932 7281,5921 7310,5908 7337,5896 7365,5883 7395,5869 7424,5856 7454,5841 7483,5827 7513,5813 7543,5798 7573,5784 7603,5770 7632,5756 7660,5742 7690,5730 7717,5717 7745,5704 7772,5693 7799,5681 7825,5671 7850,5660 7877,5651 7903,5640 7929,5632 7955,5623 7983,5614 8010,5606 8038,5597 8068,5589 8097,5582 8128,5574 8158,5568 8188,5561 8220,5555 8251,5549 8283,5544 8314,5539 8346,5534 8376,5531 8407,5527 8437,5525 8468,5522 8497,5520 8525,5519 8554,5518 8582,5517 8611,5517 8638,5517 8665,5518 8693,5518 8722,5520 8751,5521 8781,5523 8811,5525 8841,5527 8873,5529 8904,5532 8937,5535 8970,5539 9002,5542 9036,5545 9068,5548 9101,5551 9133,5554 9166,5558 9198,5560 9229,5563 9260,5565 9290,5567 9319,5569 9349,5570 9377,5571 9405,5572 9433,5573 9461,5573 9488,5572 9517,5572 9545,5571 9574,5569 9606,5567 9637,5564 9672,5561 9708,5558 9745,5552 9785,5548 9826,5543 9869,5537 9913,5530 9958,5524 10002,5518 10043,5511 10081,5505 10115,5500 10144,5496 10166,5492 10183,5489 10195,5487 10200,5486 10203,5486 " />
  <polyline
     id="polyline124"
     style="fill:none;stroke:#a14000;stroke-width:32;stroke-linecap:butt;stroke-linejoin:bevel"
     points="6521,6869 6524,6868 6530,6867 6541,6865 6557,6861 6580,6856 6608,6850 6642,6843 6680,6834 6721,6825 6764,6814 6807,6803 6850,6792 6892,6781 6933,6769 6972,6758 7008,6746 7042,6734 7075,6723 7105,6710 7134,6699 7162,6685 7189,6672 7214,6658 7239,6643 7265,6628 7288,6613 7311,6597 7334,6580 7357,6562 7381,6543 7405,6524 7429,6504 7454,6483 7479,6461 7504,6439 7530,6417 7555,6394 7582,6371 7608,6347 7634,6324 7659,6301 7686,6278 7711,6256 7737,6234 7761,6212 7786,6191 7811,6171 7835,6152 7858,6133 7882,6115 7905,6098 7928,6082 7951,6068 7975,6052 8001,6037 8027,6023 8053,6009 8080,5996 8108,5985 8136,5973 8164,5963 8195,5953 8224,5944 8255,5937 8286,5929 8318,5923 8349,5918 8381,5913 8412,5911 8444,5909 8475,5908 8506,5908 8536,5909 8566,5910 8596,5913 8625,5917 8654,5922 8683,5927 8711,5933 8739,5940 8765,5946 8793,5954 8820,5963 8849,5972 8878,5982 8908,5992 8938,6004 8970,6015 9001,6028 9033,6040 9064,6053 9097,6066 9129,6079 9162,6092 9194,6104 9226,6117 9258,6130 9289,6142 9320,6154 9351,6165 9380,6176 9409,6185 9438,6195 9466,6203 9493,6212 9521,6218 9547,6225 9576,6230 9605,6236 9634,6240 9664,6244 9694,6246 9725,6248 9758,6248 9793,6248 9828,6248 9867,6246 9907,6244 9949,6241 9993,6237 10037,6233 10081,6228 10125,6223 10167,6218 10206,6214 10240,6209 10269,6205 10291,6202 10308,6200 10320,6198 10325,6197 10328,6197 " />
  <polyline
     id="polyline126"
     style="fill:none;stroke:#a14000;stroke-width:32;stroke-linecap:butt;stroke-linejoin:bevel"
     points="6772,8291 6775,8291 6781,8290 6792,8288 6808,8285 6831,8281 6859,8276 6894,8270 6932,8263 6973,8256 7017,8248 7061,8241 7104,8233 7147,8225 7188,8218 7228,8211 7266,8204 7300,8198 7334,8193 7365,8186 7396,8181 7425,8176 7453,8172 7480,8166 7507,8162 7534,8157 7561,8152 7588,8148 7615,8142 7644,8138 7672,8133 7700,8128 7730,8122 7760,8117 7791,8112 7821,8107 7853,8101 7883,8095 7914,8090 7946,8085 7977,8078 8009,8073 8039,8068 8070,8062 8100,8057 8130,8052 8158,8047 8186,8041 8215,8037 8242,8032 8268,8028 8296,8023 8323,8017 8349,8013 8376,8008 8405,8004 8433,7998 8461,7993 8491,7988 8521,7983 8552,7977 8582,7972 8614,7967 8644,7961 8676,7955 8707,7950 8739,7944 8770,7939 8801,7933 8831,7928 8861,7923 8891,7918 8919,7912 8948,7907 8975,7903 9003,7898 9029,7893 9057,7888 9083,7883 9110,7879 9138,7874 9166,7869 9194,7864 9223,7859 9252,7854 9281,7848 9312,7843 9343,7838 9374,7833 9405,7826 9437,7821 9468,7816 9500,7809 9530,7804 9562,7799 9592,7794 9622,7788 9651,7783 9680,7778 9708,7773 9736,7769 9763,7763 9791,7759 9817,7754 9844,7749 9871,7744 9899,7739 9927,7735 9955,7730 9986,7724 10017,7718 10051,7713 10087,7707 10123,7700 10163,7693 10204,7686 10247,7678 10290,7670 10334,7662 10379,7655 10419,7648 10457,7640 10492,7635 10520,7630 10543,7626 10559,7623 10571,7620 10576,7619 10579,7619 " />
  <polyline
     id="polyline128"
     style="fill:none;stroke:#a14000;stroke-width:32;stroke-linecap:butt;stroke-linejoin:bevel"
     points="6710,7937 6713,7937 6719,7935 6730,7933 6746,7930 6769,7927 6797,7922 6832,7917 6870,7910 6912,7904 6955,7897 6999,7890 7043,7883 7086,7877 7127,7870 7167,7865 7205,7860 7239,7855 7274,7850 7306,7846 7336,7843 7365,7840 7394,7838 7422,7836 7449,7834 7477,7832 7504,7830 7531,7829 7560,7827 7588,7827 7617,7826 7647,7825 7677,7825 7708,7824 7739,7824 7771,7824 7803,7824 7836,7824 7868,7824 7900,7823 7932,7823 7965,7823 7996,7823 8028,7823 8058,7822 8089,7822 8118,7821 8148,7821 8176,7820 8204,7819 8232,7817 8259,7816 8286,7814 8313,7813 8342,7809 8370,7807 8398,7804 8428,7801 8457,7798 8488,7794 8518,7790 8549,7785 8580,7781 8612,7776 8643,7771 8675,7764 8706,7759 8737,7753 8768,7746 8797,7739 8828,7733 8856,7727 8885,7719 8913,7712 8940,7704 8967,7697 8994,7690 9020,7682 9046,7674 9072,7666 9100,7657 9126,7648 9154,7639 9182,7629 9211,7619 9239,7609 9269,7598 9299,7588 9329,7577 9359,7567 9391,7555 9421,7544 9451,7533 9481,7523 9511,7512 9541,7502 9570,7491 9598,7482 9626,7471 9654,7463 9680,7454 9708,7445 9734,7437 9760,7429 9786,7421 9814,7414 9840,7406 9868,7399 9897,7392 9926,7384 9958,7377 9991,7370 10026,7362 10064,7354 10102,7345 10143,7337 10185,7329 10229,7320 10274,7312 10317,7303 10358,7295 10396,7289 10430,7281 10458,7276 10481,7272 10497,7269 10509,7268 10514,7266 10517,7266 " />
  <polyline
     id="polyline130"
     style="fill:none;stroke:#a14000;stroke-width:32;stroke-linecap:butt;stroke-linejoin:bevel"
     points="6584,7225 6587,7225 6593,7224 6604,7222 6621,7219 6643,7216 6672,7212 6706,7207 6745,7203 6787,7197 6830,7191 6875,7186 6919,7182 6962,7177 7004,7173 7044,7170 7083,7168 7119,7166 7153,7165 7186,7165 7216,7165 7247,7167 7276,7169 7304,7171 7334,7175 7362,7180 7388,7184 7415,7189 7442,7195 7470,7202 7498,7209 7527,7216 7556,7224 7586,7233 7616,7241 7647,7251 7678,7260 7710,7270 7742,7280 7774,7291 7805,7300 7838,7311 7869,7320 7900,7330 7931,7339 7962,7348 7991,7357 8020,7364 8049,7372 8077,7379 8106,7385 8132,7392 8159,7397 8185,7401 8214,7405 8242,7409 8271,7413 8300,7415 8329,7416 8360,7417 8390,7417 8420,7416 8451,7414 8482,7412 8514,7407 8545,7403 8577,7399 8608,7393 8640,7385 8670,7378 8701,7370 8730,7361 8760,7352 8788,7341 8816,7330 8844,7318 8870,7307 8896,7294 8921,7280 8946,7267 8970,7254 8994,7239 9017,7225 9041,7209 9064,7193 9089,7176 9113,7159 9139,7141 9165,7122 9190,7103 9216,7083 9243,7063 9269,7042 9296,7022 9322,7002 9349,6981 9375,6961 9401,6941 9427,6922 9453,6903 9478,6886 9502,6868 9527,6851 9551,6835 9574,6819 9598,6805 9622,6790 9645,6777 9670,6764 9696,6750 9721,6738 9749,6726 9777,6714 9805,6703 9837,6692 9869,6682 9904,6670 9940,6660 9979,6649 10019,6639 10061,6627 10104,6617 10149,6606 10192,6597 10233,6587 10270,6579 10304,6572 10332,6566 10355,6561 10371,6558 10383,6556 10388,6555 10391,6554 " />
  <polyline
     id="polyline132"
     style="fill:none;stroke:#a14000;stroke-width:32;stroke-linecap:butt;stroke-linejoin:bevel"
     points="6553,7047 6556,7047 6561,7046 6573,7044 6590,7042 6612,7039 6641,7035 6675,7030 6713,7026 6755,7021 6800,7016 6844,7012 6888,7007 6932,7003 6974,7000 7014,6998 7053,6996 7088,6996 7123,6996 7155,6996 7187,6998 7217,7000 7247,7004 7276,7008 7304,7014 7334,7020 7360,7026 7387,7033 7415,7041 7443,7049 7471,7059 7501,7068 7530,7079 7561,7090 7592,7102 7623,7114 7655,7127 7687,7140 7719,7152 7752,7166 7784,7179 7817,7191 7848,7204 7881,7216 7911,7229 7943,7240 7973,7252 8003,7262 8032,7272 8060,7281 8089,7290 8116,7298 8143,7304 8170,7312 8199,7317 8227,7322 8257,7328 8286,7331 8316,7334 8345,7335 8375,7336 8407,7336 8437,7335 8469,7333 8500,7331 8532,7327 8564,7321 8595,7315 8626,7308 8657,7300 8687,7291 8717,7281 8746,7271 8774,7259 8802,7248 8829,7235 8855,7222 8880,7208 8906,7193 8931,7177 8954,7162 8977,7146 9000,7129 9023,7111 9047,7093 9071,7074 9096,7054 9121,7033 9145,7012 9170,6990 9196,6966 9222,6943 9248,6920 9274,6897 9300,6874 9327,6851 9352,6828 9378,6805 9403,6783 9427,6762 9453,6741 9477,6721 9501,6701 9525,6683 9548,6665 9571,6648 9594,6633 9617,6617 9643,6602 9668,6586 9693,6573 9720,6559 9748,6546 9776,6535 9807,6522 9839,6511 9874,6499 9910,6488 9948,6476 9989,6465 10031,6453 10074,6443 10118,6431 10160,6420 10201,6411 10239,6403 10272,6395 10301,6389 10324,6384 10341,6381 10351,6379 10356,6377 10360,6376 " />
  <polyline
     id="polyline134"
     style="fill:none;stroke:#a14000;stroke-width:32;stroke-linecap:butt;stroke-linejoin:bevel"
     points="6741,8114 6744,8114 6749,8113 6761,8111 6776,8108 6800,8103 6828,8099 6862,8093 6900,8087 6942,8080 6985,8073 7029,8066 7074,8058 7117,8052 7158,8045 7197,8038 7235,8033 7270,8028 7303,8023 7336,8018 7366,8014 7396,8010 7424,8007 7451,8004 7479,8001 7506,7997 7533,7995 7561,7992 7588,7990 7616,7987 7646,7985 7675,7983 7704,7980 7735,7977 7765,7975 7797,7973 7829,7971 7861,7969 7892,7966 7925,7964 7956,7962 7989,7960 8020,7958 8051,7955 8081,7953 8111,7950 8140,7948 8170,7946 8198,7943 8225,7941 8253,7938 8280,7935 8307,7932 8334,7929 8362,7926 8390,7923 8418,7919 8448,7914 8477,7911 8508,7906 8538,7902 8569,7897 8600,7892 8632,7886 8663,7881 8695,7876 8725,7869 8756,7864 8787,7858 8817,7851 8847,7845 8876,7839 8904,7834 8933,7827 8960,7820 8987,7814 9015,7807 9041,7801 9067,7795 9095,7787 9121,7780 9148,7773 9176,7765 9205,7758 9233,7750 9262,7741 9293,7733 9323,7724 9354,7716 9384,7707 9416,7698 9446,7690 9477,7680 9507,7672 9538,7664 9568,7655 9597,7647 9626,7638 9654,7631 9682,7624 9710,7616 9736,7609 9763,7602 9790,7595 9816,7589 9843,7583 9870,7576 9898,7569 9927,7563 9956,7556 9988,7550 10022,7543 10056,7537 10094,7528 10133,7521 10174,7513 10217,7505 10261,7497 10305,7488 10348,7480 10389,7472 10428,7465 10461,7459 10490,7454 10513,7449 10529,7446 10540,7444 10545,7443 10549,7443 " />
  <polyline
     id="polyline136"
     style="fill:none;stroke:#a14000;stroke-width:32;stroke-linecap:butt;stroke-linejoin:bevel"
     points="6679,7759 6682,7759 6687,7758 6699,7756 6716,7753 6738,7750 6767,7745 6801,7740 6839,7734 6880,7728 6924,7721 6969,7715 7013,7709 7056,7702 7097,7697 7137,7693 7174,7688 7210,7685 7244,7681 7276,7678 7307,7676 7337,7674 7365,7673 7394,7673 7421,7672 7449,7672 7477,7673 7505,7674 7533,7675 7562,7676 7592,7678 7622,7680 7652,7682 7683,7686 7715,7688 7748,7691 7780,7694 7814,7697 7846,7700 7879,7703 7912,7707 7945,7710 7977,7713 8009,7715 8040,7718 8071,7720 8100,7722 8130,7724 8159,7725 8187,7727 8216,7728 8243,7729 8271,7729 8299,7729 8327,7728 8355,7727 8384,7724 8413,7722 8444,7720 8474,7717 8504,7714 8535,7710 8566,7706 8598,7701 8629,7695 8661,7690 8692,7683 8723,7677 8754,7670 8784,7662 8813,7655 8843,7647 8871,7639 8898,7630 8925,7622 8952,7613 8978,7604 9004,7594 9030,7584 9057,7573 9083,7563 9109,7551 9137,7540 9164,7527 9192,7514 9220,7502 9249,7488 9278,7475 9309,7460 9338,7446 9369,7432 9398,7417 9427,7403 9458,7388 9487,7375 9516,7361 9544,7349 9572,7336 9600,7323 9627,7312 9654,7300 9680,7290 9706,7279 9732,7269 9758,7259 9784,7250 9811,7241 9839,7233 9867,7224 9897,7215 9928,7207 9961,7198 9995,7190 10032,7182 10072,7172 10113,7163 10155,7154 10198,7145 10242,7135 10285,7127 10326,7119 10365,7110 10398,7104 10427,7099 10450,7095 10466,7091 10477,7089 10482,7087 10486,7087 " />
  <polyline
     id="polyline138"
     style="fill:none;stroke:#a14000;stroke-width:32;stroke-linecap:butt;stroke-linejoin:bevel"
     points="6616,7402 6619,7402 6624,7401 6636,7399 6653,7397 6675,7394 6704,7390 6738,7384 6776,7379 6818,7374 6861,7367 6906,7362 6951,7357 6994,7352 7036,7348 7076,7344 7113,7341 7149,7339 7184,7337 7216,7336 7247,7336 7277,7336 7307,7337 7335,7339 7363,7342 7392,7345 7418,7349 7444,7353 7471,7357 7499,7362 7526,7367 7554,7373 7584,7379 7613,7386 7644,7393 7674,7401 7704,7408 7736,7416 7767,7424 7799,7433 7830,7440 7862,7448 7893,7456 7924,7463 7954,7471 7985,7478 8014,7485 8044,7491 8072,7497 8099,7502 8127,7507 8154,7511 8180,7516 8206,7520 8235,7522 8263,7525 8291,7527 8321,7528 8350,7528 8380,7528 8410,7528 8440,7526 8471,7524 8502,7521 8534,7518 8565,7513 8597,7508 8628,7502 8660,7496 8690,7488 8721,7480 8750,7471 8780,7462 8808,7453 8836,7443 8864,7433 8890,7421 8916,7409 8942,7398 8967,7385 8991,7373 9015,7360 9039,7346 9062,7332 9087,7318 9111,7302 9137,7287 9162,7270 9188,7253 9214,7235 9240,7218 9267,7200 9294,7182 9321,7163 9348,7145 9375,7127 9401,7108 9427,7091 9454,7074 9480,7057 9505,7040 9530,7024 9554,7008 9580,6995 9604,6980 9627,6966 9651,6954 9674,6942 9699,6930 9725,6917 9752,6906 9779,6895 9806,6883 9836,6874 9867,6864 9900,6853 9934,6844 9971,6833 10010,6823 10051,6812 10093,6802 10136,6792 10180,6782 10223,6772 10264,6763 10302,6755 10335,6748 10364,6742 10387,6738 10403,6734 10414,6732 10419,6731 10423,6730 " />
  <polyline
     id="polyline140"
     style="fill:none;stroke:#a14000;stroke-width:32;stroke-linecap:butt;stroke-linejoin:bevel"
     points="6459,6514 6462,6513 6468,6512 6479,6510 6495,6507 6518,6502 6546,6496 6580,6489 6618,6481 6659,6472 6702,6462 6745,6452 6789,6443 6831,6432 6872,6422 6911,6411 6948,6401 6982,6391 7015,6381 7045,6370 7075,6361 7103,6349 7129,6339 7155,6327 7182,6314 7207,6303 7230,6290 7254,6278 7278,6264 7301,6249 7327,6236 7351,6220 7376,6204 7401,6187 7427,6171 7454,6153 7480,6136 7506,6117 7533,6099 7561,6080 7587,6062 7614,6045 7640,6026 7667,6009 7693,5991 7719,5974 7744,5958 7770,5942 7794,5926 7819,5912 7842,5898 7866,5884 7890,5871 7913,5860 7939,5846 7965,5835 7991,5823 8017,5812 8045,5801 8073,5792 8101,5782 8131,5773 8160,5764 8191,5756 8221,5749 8253,5742 8284,5736 8316,5731 8347,5727 8379,5723 8410,5720 8440,5718 8472,5716 8501,5716 8532,5716 8560,5716 8590,5717 8618,5719 8646,5722 8675,5725 8701,5729 8727,5733 8754,5737 8782,5742 8810,5748 8838,5753 8867,5759 8897,5766 8927,5773 8957,5781 8988,5788 9019,5796 9050,5804 9083,5813 9114,5820 9146,5828 9176,5836 9208,5843 9238,5851 9269,5858 9298,5865 9327,5871 9355,5877 9383,5882 9411,5887 9438,5891 9464,5896 9490,5900 9519,5902 9547,5905 9575,5907 9605,5908 9635,5908 9666,5908 9698,5907 9733,5905 9769,5903 9806,5900 9846,5897 9888,5892 9931,5887 9976,5882 10020,5877 10064,5870 10106,5865 10144,5860 10178,5855 10207,5850 10229,5847 10246,5845 10258,5843 10263,5842 10266,5842 " />
  <polyline
     id="polyline142"
     style="fill:none;stroke:#a14000;stroke-width:32;stroke-linecap:butt;stroke-linejoin:bevel"
     points="6647,7580 6650,7580 6656,7579 6667,7576 6683,7574 6706,7570 6735,7566 6769,7561 6807,7555 6849,7549 6892,7543 6937,7538 6981,7531 7024,7526 7065,7521 7105,7517 7143,7512 7179,7509 7213,7507 7246,7505 7276,7503 7306,7503 7335,7502 7363,7503 7391,7503 7419,7505 7447,7506 7476,7509 7504,7511 7533,7514 7563,7518 7593,7522 7625,7526 7656,7530 7688,7535 7721,7541 7754,7546 7787,7551 7821,7556 7854,7562 7887,7567 7920,7572 7953,7577 7985,7583 8016,7587 8048,7591 8078,7595 8108,7598 8137,7602 8165,7604 8194,7607 8222,7608 8250,7610 8278,7610 8306,7611 8335,7611 8364,7610 8393,7609 8424,7607 8454,7605 8485,7602 8516,7598 8548,7594 8579,7589 8611,7584 8642,7579 8672,7572 8704,7565 8734,7558 8764,7550 8793,7542 8823,7533 8851,7524 8878,7514 8904,7505 8932,7496 8957,7485 8983,7475 9008,7463 9035,7451 9061,7439 9087,7426 9114,7413 9141,7398 9169,7383 9197,7369 9226,7353 9254,7337 9283,7321 9313,7304 9343,7288 9373,7272 9402,7255 9432,7239 9460,7224 9488,7208 9517,7193 9545,7179 9572,7164 9598,7150 9625,7138 9651,7125 9677,7113 9702,7103 9729,7091 9755,7081 9781,7071 9808,7062 9837,7053 9866,7043 9897,7034 9930,7025 9965,7016 10002,7006 10040,6997 10081,6987 10123,6978 10167,6967 10211,6958 10254,6950 10296,6940 10333,6933 10367,6925 10395,6920 10418,6916 10434,6913 10446,6911 10451,6909 10454,6909 " />
  <text
     style="font-style:normal;font-weight:normal;font-size:303px;font-family:Helvetica;text-anchor:start;fill:#ff0000;stroke-width:0.025in"
     id="text144"
     font-size="303"
     font-weight="normal"
     font-style="normal"
     y="2740"
     x="7417"
     xml:space="preserve">Kamera</text>
  <text
     style="font-style:normal;font-weight:normal;font-size:303px;font-family:Helvetica;text-anchor:middle;fill:#ff0000;stroke-width:0.025in"
     id="text146"
     font-size="303"
     font-weight="normal"
     font-style="normal"
     y="1937"
     x="4771"
     xml:space="preserve">(LED, Laser)</text>
  <text
     style="font-style:normal;font-weight:normal;font-size:303px;font-family:Helvetica;text-anchor:middle;fill:#ff0000;stroke-width:0.025in"
     id="text148"
     font-size="303"
     font-weight="normal"
     font-style="normal"
     y="1464"
     x="4771"
     xml:space="preserve">Lichtquelle</text>
  <text
     style="font-style:normal;font-weight:normal;font-size:303px;font-family:Helvetica;text-anchor:end;fill:#000000;stroke-width:0.025in"
     id="text150"
     font-size="303"
     font-weight="normal"
     font-style="normal"
     y="4488"
     x="4724"
     xml:space="preserve">Zeitpunkt</text>
  <text
     style="font-style:normal;font-weight:normal;font-size:303px;font-family:Helvetica;text-anchor:start;fill:#0000ff;stroke-width:0.025in"
     id="text152"
     font-size="303"
     font-weight="normal"
     font-style="normal"
     y="10629"
     x="7795"
     xml:space="preserve">Signalprozessor</text>
  <text
     style="font-style:normal;font-weight:normal;font-size:378px;font-family:Times;text-anchor:middle;fill:#000000;stroke-width:0.025in"
     id="text154"
     font-size="378"
     font-weight="normal"
     font-style="normal"
     y="13228"
     x="6047"
     xml:space="preserve">$x = +0.02$, $y = -0.03$, $ = 10$</text>
  <text
     style="font-style:normal;font-weight:normal;font-size:378px;font-family:Times;text-anchor:start;fill:#000000;stroke-width:0.025in"
     id="text156"
     font-size="378"
     font-weight="normal"
     font-style="normal"
     y="4488"
     x="8031"
     xml:space="preserve">$t + t$</text>
  <text
     style="font-style:normal;font-weight:normal;font-size:378px;font-family:Times;text-anchor:start;fill:#000000;stroke-width:0.025in"
     id="text158"
     font-size="378"
     font-weight="normal"
     font-style="normal"
     y="4488"
     x="4960"
     xml:space="preserve">$t$</text>
  <rect
     id="rect160"
     style="fill:#ffffff;stroke:#ffffff;stroke-width:8;stroke-linecap:butt;stroke-linejoin:round"
     rx="0"
     height="755"
     width="755"
     y="2220"
     x="4346" />
  <circle
     id="circle162"
     style="fill:none;stroke:#ff0000;stroke-width:63"
     r="157"
     cy="2598"
     cx="4724" />
  <polyline
     id="polyline164"
     style="fill:none;stroke:#ff0000;stroke-width:63;stroke-linecap:butt;stroke-linejoin:round"
     points="4881,2440 5007,2314 " />
  <polyline
     id="polyline166"
     style="fill:none;stroke:#ff0000;stroke-width:63;stroke-linecap:butt;stroke-linejoin:round"
     points="4944,2598 5039,2598 " />
  <polyline
     id="polyline168"
     style="fill:none;stroke:#ff0000;stroke-width:63;stroke-linecap:butt;stroke-linejoin:round"
     points="4881,2755 5007,2881 " />
  <polyline
     id="polyline170"
     style="fill:none;stroke:#ff0000;stroke-width:63;stroke-linecap:butt;stroke-linejoin:round"
     points="4724,2818 4724,2944 " />
  <polyline
     id="polyline172"
     style="fill:none;stroke:#ff0000;stroke-width:63;stroke-linecap:butt;stroke-linejoin:round"
     points="4566,2755 4440,2881 " />
  <polyline
     id="polyline174"
     style="fill:none;stroke:#ff0000;stroke-width:63;stroke-linecap:butt;stroke-linejoin:round"
     points="4503,2598 4409,2598 " />
  <polyline
     id="polyline176"
     style="fill:none;stroke:#ff0000;stroke-width:63;stroke-linecap:butt;stroke-linejoin:round"
     points="4566,2440 4440,2314 " />
  <polyline
     id="polyline178"
     style="fill:none;stroke:#ff0000;stroke-width:63;stroke-linecap:butt;stroke-linejoin:round"
     points="4724,2377 4724,2283 " />
  <rect
     id="rect180"
     style="fill:#ffffff;stroke:#ffffff;stroke-width:0;stroke-linecap:butt;stroke-linejoin:miter"
     rx="0"
     height="708"
     width="4251"
     y="4724"
     x="2362" />
  <rect
     id="rect182"
     style="fill:#ffffff;stroke:#ffffff;stroke-width:0;stroke-linecap:butt;stroke-linejoin:miter"
     rx="0"
     height="708"
     width="4251"
     y="7795"
     x="2362" />
  <rect
     id="rect184"
     style="fill:#ffffff;stroke:#ffffff;stroke-width:0;stroke-linecap:butt;stroke-linejoin:miter"
     rx="0"
     height="3779"
     width="236"
     y="4724"
     x="2362" />
  <rect
     id="rect186"
     style="fill:#ffffff;stroke:#ffffff;stroke-width:0;stroke-linecap:butt;stroke-linejoin:miter"
     rx="0"
     height="3779"
     width="944"
     y="4724"
     x="5669" />
  <rect
     id="rect188"
     style="fill:#ffffff;stroke:#ffffff;stroke-width:0;stroke-linecap:butt;stroke-linejoin:miter"
     rx="0"
     height="708"
     width="4251"
     y="7795"
     x="6377" />
  <rect
     id="rect190"
     style="fill:#ffffff;stroke:#ffffff;stroke-width:0;stroke-linecap:butt;stroke-linejoin:miter"
     rx="0"
     height="3779"
     width="708"
     y="4724"
     x="9921" />
  <rect
     id="rect192"
     style="fill:#ffffff;stroke:#ffffff;stroke-width:0;stroke-linecap:butt;stroke-linejoin:miter"
     rx="0"
     height="708"
     width="3543"
     y="4724"
     x="6377" />
  <rect
     id="rect194"
     style="fill:#ffffff;stroke:#ffffff;stroke-width:0;stroke-linecap:butt;stroke-linejoin:miter"
     rx="0"
     height="3779"
     width="708"
     y="4724"
     x="6141" />
  <polyline
     id="polyline196"
     style="fill:#f0e2d8;stroke:#000000;stroke-width:32;stroke-linecap:butt;stroke-linejoin:miter;stroke-dasharray:83, 83"
     points="6850,3307 4635,5079 " />
  <polygon
     id="polygon198"
     style="fill:#000000;stroke:#000000;stroke-width:32;stroke-miterlimit:8"
     points="4628,5142 4636,5076 4570,5068 4570,5068 4489,5194 " />
  <polyline
     id="polyline200"
     style="fill:#f0e2d8;stroke:#000000;stroke-width:32;stroke-linecap:butt;stroke-linejoin:miter;stroke-dasharray:83, 83"
     points="7322,3307 7965,5019 " />
  <polygon
     id="polygon202"
     style="fill:#000000;stroke:#000000;stroke-width:32;stroke-miterlimit:8"
     points="8023,5044 7962,5017 7934,5078 7934,5078 8029,5194 " />
  <polyline
     id="polyline204"
     style="fill:#f0e2d8;stroke:#000000;stroke-width:32;stroke-linecap:butt;stroke-linejoin:miter;stroke-dasharray:83, 83"
     points="4488,8031 5535,9079 " />
  <polygon
     id="polygon206"
     style="fill:#000000;stroke:#000000;stroke-width:32;stroke-miterlimit:8"
     points="5598,9075 5531,9075 5531,9142 5531,9142 5666,9209 " />
  <polyline
     id="polyline208"
     style="fill:#f0e2d8;stroke:#000000;stroke-width:32;stroke-linecap:butt;stroke-linejoin:miter;stroke-dasharray:83, 83"
     points="8031,8031 6982,9079 " />
  <polygon
     id="polygon210"
     style="fill:#000000;stroke:#000000;stroke-width:32;stroke-miterlimit:8"
     points="6985,9142 6985,9075 6918,9075 6918,9075 6852,9209 " />
  <polyline
     id="polyline212"
     style="fill:#f0e2d8;stroke:#000000;stroke-width:32;stroke-linecap:butt;stroke-linejoin:miter;stroke-dasharray:83, 83"
     points="6047,11811 6047,12566 " />
  <polygon
     id="polygon214"
     style="fill:#000000;stroke:#000000;stroke-width:32;stroke-miterlimit:8"
     points="6094,12612 6047,12564 6000,12612 6000,12612 6047,12753 " />
</svg>
