<?xml version="1.0" encoding="UTF-8" standalone="no"?>
<!-- Creator: fig2dev Version 3.2 Patchlevel 5e -->

<!-- CreationDate: Wed Oct 28 10:57:59 2015 -->

<!-- Magnification: 1.050 -->

<svg
   xmlns:dc="http://purl.org/dc/elements/1.1/"
   xmlns:cc="http://creativecommons.org/ns#"
   xmlns:rdf="http://www.w3.org/1999/02/22-rdf-syntax-ns#"
   xmlns:svg="http://www.w3.org/2000/svg"
   xmlns="http://www.w3.org/2000/svg"
   xmlns:sodipodi="http://sodipodi.sourceforge.net/DTD/sodipodi-0.dtd"
   xmlns:inkscape="http://www.inkscape.org/namespaces/inkscape"
   width="20.6in"
   height="4.4in"
   viewBox="-3934 2337 24697 5291"
   id="svg2"
   version="1.1"
   inkscape:version="0.92.3 (2405546, 2018-03-11)"
   sodipodi:docname="fig_farbeTexturBump2.svg">
  <metadata
     id="metadata52">
    <rdf:RDF>
      <cc:Work
         rdf:about="">
        <dc:format>image/svg+xml</dc:format>
        <dc:type
           rdf:resource="http://purl.org/dc/dcmitype/StillImage" />
      </cc:Work>
    </rdf:RDF>
  </metadata>
  <defs
     id="defs50" />
  <sodipodi:namedview
     pagecolor="#ffffff"
     bordercolor="#666666"
     borderopacity="1"
     objecttolerance="10"
     gridtolerance="10"
     guidetolerance="10"
     inkscape:pageopacity="0"
     inkscape:pageshadow="2"
     inkscape:window-width="2432"
     inkscape:window-height="1273"
     id="namedview48"
     showgrid="false"
     inkscape:zoom="0.98166125"
     inkscape:cx="553.33722"
     inkscape:cy="165.94685"
     inkscape:window-x="128"
     inkscape:window-y="60"
     inkscape:window-maximized="1"
     inkscape:current-layer="svg2" />
  <polyline
     id="polyline6"
     style="fill:none;stroke:#a14000;stroke-width:48;stroke-linecap:round;stroke-linejoin:bevel"
     points="2362,5196 2363,5194 2366,5190 2372,5183 2381,5171 2393,5155 2410,5133 2430,5107 2454,5077 2480,5042 2510,5004 2542,4963 2575,4921 2609,4878 2643,4834 2678,4791 2711,4749 2744,4708 2775,4669 2806,4632 2835,4596 2864,4562 2891,4530 2917,4498 2943,4470 2967,4441 2992,4414 3016,4389 3039,4364 3063,4339 3086,4314 3110,4291 3133,4267 3158,4244 3183,4220 3207,4197 3233,4174 3259,4150 3286,4127 3313,4102 3341,4078 3370,4054 3399,4031 3429,4007 3460,3984 3490,3960 3522,3937 3553,3913 3586,3891 3617,3868 3650,3847 3682,3826 3714,3805 3745,3785 3778,3766 3809,3748 3841,3730 3871,3712 3903,3696 3933,3679 3964,3665 3994,3650 4025,3635 4055,3622 4086,3608 4116,3595 4148,3583 4180,3570 4213,3559 4247,3546 4282,3534 4320,3523 4359,3511 4400,3499 4443,3487 4488,3475 4535,3462 4584,3449 4636,3436 4688,3423 4743,3409 4797,3397 4851,3384 4904,3372 4955,3360 5003,3350 5046,3339 5085,3331 5118,3323 5145,3318 5165,3313 5180,3310 5189,3309 5194,3307 5196,3307 " />
  <polyline
     id="polyline8"
     style="fill:none;stroke:#a14000;stroke-width:48;stroke-linecap:round;stroke-linejoin:bevel"
     points="5196,3307 5197,3309 5201,3313 5207,3320 5215,3332 5228,3348 5245,3370 5265,3396 5289,3426 5315,3461 5344,3499 5377,3540 5409,3582 5444,3625 5478,3669 5512,3712 5546,3754 5579,3795 5610,3834 5640,3871 5670,3907 5698,3941 5725,3973 5752,4005 5778,4033 5802,4061 5826,4089 5850,4114 5874,4139 5898,4164 5921,4188 5945,4213 5968,4236 5992,4259 6017,4283 6041,4306 6068,4329 6094,4353 6121,4376 6149,4401 6177,4425 6206,4449 6236,4472 6266,4496 6298,4519 6329,4543 6362,4566 6394,4590 6427,4612 6460,4635 6494,4656 6528,4677 6561,4698 6595,4718 6628,4737 6662,4755 6696,4773 6728,4791 6762,4807 6795,4824 6828,4838 6861,4853 6895,4868 6929,4881 6959,4893 6990,4904 7021,4916 7053,4928 7086,4938 7120,4949 7155,4959 7191,4970 7230,4980 7270,4991 7312,5001 7356,5012 7402,5023 7450,5034 7501,5045 7553,5057 7607,5068 7664,5080 7720,5091 7777,5103 7835,5114 7891,5126 7947,5137 8000,5146 8049,5155 8094,5165 8135,5172 8170,5179 8199,5184 8222,5188 8240,5191 8253,5194 8261,5195 8265,5196 8267,5196 " />
  <polyline
     id="polyline10"
     style="fill:none;stroke:#a14000;stroke-width:48;stroke-linecap:round;stroke-linejoin:bevel"
     points="2362,5196 2363,5197 2366,5202 2370,5208 2379,5217 2389,5232 2404,5250 2422,5273 2444,5300 2468,5332 2495,5365 2524,5403 2556,5442 2590,5483 2623,5525 2657,5567 2691,5608 2725,5649 2758,5689 2790,5727 2822,5764 2853,5800 2882,5834 2912,5866 2940,5898 2969,5927 2996,5956 3023,5985 3050,6012 3078,6038 3105,6065 3132,6090 3160,6116 3189,6141 3214,6164 3240,6187 3268,6209 3295,6233 3323,6257 3353,6280 3383,6304 3414,6328 3445,6352 3478,6376 3510,6402 3545,6426 3580,6451 3614,6476 3651,6501 3688,6528 3724,6553 3762,6578 3801,6603 3840,6627 3879,6653 3918,6677 3956,6701 3995,6725 4035,6748 4074,6771 4113,6793 4152,6815 4191,6836 4228,6857 4266,6878 4304,6898 4342,6917 4379,6936 4416,6955 4453,6973 4490,6991 4528,7007 4562,7023 4598,7039 4634,7055 4670,7070 4707,7086 4745,7101 4783,7117 4823,7132 4864,7147 4907,7163 4951,7180 4996,7195 5043,7212 5092,7229 5144,7247 5197,7265 5252,7282 5309,7301 5367,7320 5427,7339 5488,7358 5549,7378 5611,7397 5672,7416 5731,7435 5788,7451 5844,7468 5896,7484 5943,7499 5985,7511 6023,7523 6054,7532 6081,7541 6102,7547 6118,7551 6129,7554 6136,7556 6139,7559 6141,7559 " />
  <polyline
     id="polyline12"
     style="fill:none;stroke:#ff0000;stroke-width:63;stroke-linecap:round;stroke-linejoin:bevel"
     points="3354,4110 3355,4112 3358,4115 3363,4121 3372,4133 3383,4148 3399,4166 3418,4190 3440,4218 3465,4249 3492,4284 3522,4321 3553,4359 3585,4397 3617,4437 3649,4476 3680,4515 3711,4552 3740,4587 3770,4622 3797,4655 3823,4685 3849,4716 3874,4743 3898,4770 3921,4796 3944,4820 3966,4845 3988,4869 4010,4892 4032,4914 4055,4937 4076,4957 4097,4978 4119,4999 4141,5020 4164,5042 4187,5063 4212,5085 4237,5106 4262,5128 4288,5150 4316,5172 4343,5195 4371,5217 4401,5239 4431,5262 4461,5285 4493,5307 4524,5329 4557,5351 4590,5373 4622,5394 4656,5415 4689,5436 4724,5456 4758,5476 4792,5496 4827,5514 4862,5533 4897,5551 4933,5569 4969,5587 5004,5604 5041,5620 5079,5637 5110,5651 5144,5666 5177,5679 5212,5693 5248,5707 5285,5721 5322,5735 5362,5750 5404,5764 5448,5780 5493,5795 5542,5812 5592,5827 5645,5844 5699,5862 5757,5880 5816,5899 5878,5918 5942,5937 6008,5956 6074,5976 6142,5996 6211,6017 6278,6036 6344,6056 6408,6075 6469,6093 6527,6110 6579,6124 6627,6138 6669,6151 6705,6161 6734,6170 6759,6176 6776,6181 6789,6184 6796,6186 6801,6187 6803,6188 " />
  <polyline
     id="polyline14"
     style="fill:none;stroke:#ff0000;stroke-width:63;stroke-linecap:round;stroke-linejoin:bevel"
     points="3779,6614 3780,6612 3782,6607 3786,6600 3792,6588 3801,6572 3812,6551 3826,6523 3842,6493 3861,6457 3881,6418 3903,6377 3926,6334 3950,6290 3974,6246 3998,6202 4023,6159 4046,6117 4069,6076 4091,6037 4113,6000 4134,5964 4154,5930 4175,5898 4194,5866 4214,5836 4233,5806 4251,5778 4271,5751 4290,5723 4310,5696 4330,5669 4351,5641 4372,5614 4393,5587 4415,5560 4438,5531 4462,5504 4487,5475 4512,5446 4537,5417 4564,5387 4592,5358 4619,5329 4647,5299 4677,5270 4706,5240 4735,5212 4766,5183 4796,5154 4827,5127 4857,5100 4887,5074 4917,5047 4948,5022 4977,4998 5006,4975 5036,4953 5064,4931 5092,4910 5121,4890 5149,4871 5176,4852 5205,4834 5234,4815 5264,4797 5294,4781 5324,4764 5356,4747 5388,4731 5423,4716 5458,4700 5495,4683 5534,4667 5575,4650 5617,4635 5662,4617 5710,4600 5757,4583 5806,4565 5856,4549 5905,4532 5953,4516 5998,4501 6040,4488 6077,4475 6110,4466 6136,4457 6157,4450 6172,4446 6181,4443 6186,4441 6188,4440 " />
  <polyline
     id="polyline16"
     style="fill:none;stroke:#a14000;stroke-width:48;stroke-linecap:round;stroke-linejoin:bevel"
     points="6170,7582 6171,7580 6172,7574 6174,7565 6178,7551 6183,7531 6191,7506 6200,7475 6209,7439 6222,7398 6235,7354 6248,7308 6263,7259 6278,7211 6292,7163 6308,7116 6323,7069 6339,7025 6353,6982 6368,6941 6383,6902 6397,6865 6412,6829 6427,6794 6441,6760 6457,6727 6473,6695 6489,6662 6507,6629 6524,6598 6540,6569 6557,6539 6575,6510 6593,6480 6612,6450 6632,6419 6651,6389 6672,6358 6695,6325 6718,6292 6741,6260 6765,6227 6790,6195 6815,6161 6841,6129 6868,6095 6895,6062 6921,6030 6950,5998 6977,5967 7004,5935 7033,5906 7060,5877 7087,5848 7114,5820 7142,5794 7169,5767 7195,5743 7222,5719 7248,5696 7274,5674 7299,5653 7325,5633 7351,5613 7380,5592 7408,5572 7438,5552 7467,5533 7499,5516 7530,5499 7563,5481 7596,5464 7632,5448 7670,5432 7709,5415 7750,5399 7793,5382 7838,5365 7884,5350 7931,5333 7979,5317 8025,5302 8071,5288 8114,5274 8154,5261 8190,5251 8220,5241 8246,5234 8265,5228 8280,5224 8288,5222 8293,5220 8296,5219 " />
  <text
     style="font-style:normal;font-weight:normal;font-size:504px;line-height:0%;font-family:Times;text-anchor:start;fill:#a14000;stroke-width:0.025in"
     id="text18"
     font-size="504"
     font-weight="normal"
     font-style="normal"
     y="5622"
     x="8503"
     xml:space="preserve">Fläche</text>
  <text
     style="font-style:normal;font-weight:normal;font-size:504px;line-height:0%;font-family:Times;text-anchor:start;fill:#a14000;stroke-width:0.025in"
     id="text20"
     font-size="504"
     font-weight="normal"
     font-style="normal"
     y="5055"
     x="8503"
     xml:space="preserve">(nicht gekrümmte)</text>
  <text
     style="font-style:normal;font-weight:normal;font-size:504px;line-height:0%;font-family:Times;text-anchor:start;fill:#a14000;stroke-width:0.025in"
     id="text22"
     font-size="504"
     font-weight="normal"
     font-style="normal"
     y="4488"
     x="8503"
     xml:space="preserve">„ursprüngliche“</text>
  <text
     style="font-style:normal;font-weight:normal;font-size:504px;line-height:0%;font-family:Times;text-anchor:start;fill:#ff0000;stroke-width:0.025in"
     id="text24"
     font-size="504"
     font-weight="normal"
     font-style="normal"
     y="7086"
     x="1700"
     xml:space="preserve">$s ≡ \text{const}$</text>
  <text
     style="font-style:normal;font-weight:normal;font-size:504px;line-height:0%;font-family:Times;text-anchor:end;fill:#0000ff;stroke-width:0.025in"
     id="text26"
     font-size="504"
     font-weight="normal"
     font-style="normal"
     y="2881"
     x="3590"
     xml:space="preserve">$n_{\point{P}}$</text>
  <text
     style="font-style:normal;font-weight:normal;font-size:504px;line-height:0%;font-family:Times;text-anchor:end;fill:#0000ff;stroke-width:0.025in"
     id="text28"
     font-size="504"
     font-weight="normal"
     font-style="normal"
     y="4251"
     x="5196"
     xml:space="preserve">$\point{P}ₜ$</text>
  <text
     style="font-style:normal;font-weight:normal;font-size:504px;line-height:0%;font-family:Times;text-anchor:start;fill:#ff0000;stroke-width:0.025in"
     id="text30"
     font-size="504"
     font-weight="normal"
     font-style="normal"
     y="5480"
     x="5007"
     xml:space="preserve">$\point{P} = \point{P}(s, t)$</text>
  <text
     style="font-style:normal;font-weight:normal;font-size:504px;line-height:0%;font-family:Times;text-anchor:start;fill:#ff0000;stroke-width:0.025in"
     id="text32"
     font-size="504"
     font-weight="normal"
     font-style="normal"
     y="4015"
     x="1228"
     xml:space="preserve">$t ≡ \text{const}$</text>
  <text
     style="font-style:normal;font-weight:normal;font-size:504px;line-height:0%;font-family:Times;text-anchor:end;fill:#0000ff;stroke-width:0.025in"
     id="text34"
     font-size="504"
     font-weight="normal"
     font-style="normal"
     y="6708"
     x="5952"
     xml:space="preserve">$\point{P}ₛ$</text>
  <polyline
     id="polyline36"
     style="fill:none;stroke:#0000ff;stroke-width:63;stroke-linecap:butt;stroke-linejoin:miter"
     points="4582,5385 5223,4632 " />
  <polygon
     id="polygon38"
     style="fill:#0000ff;stroke:#0000ff;stroke-width:63;stroke-miterlimit:8"
     points="5201,4534 5219,4633 5320,4636 5320,4636 5383,4441 " />
  <polyline
     id="polyline40"
     style="fill:none;stroke:#0000ff;stroke-width:63;stroke-linecap:butt;stroke-linejoin:miter"
     points="4582,5385 5648,6096 " />
  <polygon
     id="polygon42"
     style="fill:#0000ff;stroke:#0000ff;stroke-width:63;stroke-miterlimit:8"
     points="5740,6062 5645,6093 5653,6194 5653,6194 5855,6234 " />
  <polyline
     id="polyline44"
     style="fill:none;stroke:#0000ff;stroke-width:63;stroke-linecap:butt;stroke-linejoin:miter"
     points="4582,5385 3861,3308 " />
  <polygon
     id="polygon46"
     style="fill:#0000ff;stroke:#0000ff;stroke-width:63;stroke-miterlimit:8"
     points="3767,3277 3862,3311 3916,3226 3916,3226 3780,3074 " />
</svg>
