<?xml version="1.0" encoding="UTF-8" standalone="no"?>
<!-- Creator: fig2dev Version 3.2 Patchlevel 5e -->

<!-- CreationDate: Thu Oct 22 10:35:42 2015 -->

<!-- Magnification: 1.050 -->

<svg
   xmlns:dc="http://purl.org/dc/elements/1.1/"
   xmlns:cc="http://creativecommons.org/ns#"
   xmlns:rdf="http://www.w3.org/1999/02/22-rdf-syntax-ns#"
   xmlns:svg="http://www.w3.org/2000/svg"
   xmlns="http://www.w3.org/2000/svg"
   xmlns:sodipodi="http://sodipodi.sourceforge.net/DTD/sodipodi-0.dtd"
   xmlns:inkscape="http://www.inkscape.org/namespaces/inkscape"
   width="14.6in"
   height="4.3in"
   viewBox="-2086 3519 17540 5217"
   id="svg2"
   version="1.1"
   inkscape:version="0.91 r13725"
   sodipodi:docname="fig_farbeModellSampling.svg">
  <metadata
     id="metadata58">
    <rdf:RDF>
      <cc:Work
         rdf:about="">
        <dc:format>image/svg+xml</dc:format>
        <dc:type
           rdf:resource="http://purl.org/dc/dcmitype/StillImage" />
      </cc:Work>
    </rdf:RDF>
  </metadata>
  <defs
     id="defs56" />
  <sodipodi:namedview
     pagecolor="#ffffff"
     bordercolor="#666666"
     borderopacity="1"
     objecttolerance="10"
     gridtolerance="10"
     guidetolerance="10"
     inkscape:pageopacity="0"
     inkscape:pageshadow="2"
     inkscape:window-width="2418"
     inkscape:window-height="1261"
     id="namedview54"
     showgrid="false"
     inkscape:zoom="0.97940206"
     inkscape:cx="641.90651"
     inkscape:cy="245.19521"
     inkscape:window-x="142"
     inkscape:window-y="60"
     inkscape:window-maximized="1"
     inkscape:current-layer="svg2" />
  <polyline
     id="polyline6"
     style="fill:none;stroke:#000000;stroke-width:32;stroke-linecap:butt;stroke-linejoin:miter"
     points="3543,8031 12094,8031 " />
  <polygon
     id="polygon8"
     style="fill:#000000;stroke:#000000;stroke-width:32;stroke-miterlimit:8"
     points="12139,7984 12092,8031 12139,8078 12139,8078 12281,8031 " />
  <polyline
     id="polyline10"
     style="fill:none;stroke:#000000;stroke-width:32;stroke-linecap:butt;stroke-linejoin:miter"
     points="3543,8031 3543,3967 " />
  <polygon
     id="polygon12"
     style="fill:#000000;stroke:#000000;stroke-width:32;stroke-miterlimit:8"
     points="3496,3923 3543,3970 3590,3923 3590,3923 3543,3781 " />
  <polyline
     id="polyline14"
     style="fill:none;stroke:#b000b0;stroke-width:63;stroke-linecap:butt;stroke-linejoin:miter"
     points="4960,8031 4960,7228 " />
  <polyline
     id="polyline16"
     style="fill:none;stroke:#b000b0;stroke-width:63;stroke-linecap:butt;stroke-linejoin:miter"
     points="11102,8031 11102,7559 " />
  <polyline
     id="polyline18"
     style="fill:none;stroke:#b000b0;stroke-width:63;stroke-linecap:butt;stroke-linejoin:miter"
     points="10393,8031 10393,4488 " />
  <polyline
     id="polyline20"
     style="fill:none;stroke:#b000b0;stroke-width:63;stroke-linecap:butt;stroke-linejoin:miter"
     points="9685,8031 9685,3590 " />
  <polyline
     id="polyline22"
     style="fill:none;stroke:#b000b0;stroke-width:63;stroke-linecap:butt;stroke-linejoin:miter"
     points="8976,8031 8976,5102 " />
  <polyline
     id="polyline24"
     style="fill:none;stroke:#b000b0;stroke-width:63;stroke-linecap:butt;stroke-linejoin:miter"
     points="8267,8031 8267,6094 " />
  <polyline
     id="polyline26"
     style="fill:none;stroke:#b000b0;stroke-width:63;stroke-linecap:butt;stroke-linejoin:miter"
     points="7795,8031 7795,5244 " />
  <polyline
     id="polyline28"
     style="fill:none;stroke:#b000b0;stroke-width:63;stroke-linecap:butt;stroke-linejoin:miter"
     points="7322,8031 7322,4535 " />
  <polyline
     id="polyline30"
     style="fill:none;stroke:#b000b0;stroke-width:63;stroke-linecap:butt;stroke-linejoin:miter"
     points="6850,8031 6850,4299 " />
  <polyline
     id="polyline32"
     style="fill:none;stroke:#b000b0;stroke-width:63;stroke-linecap:butt;stroke-linejoin:miter"
     points="6377,8031 6377,4582 " />
  <polyline
     id="polyline34"
     style="fill:none;stroke:#b000b0;stroke-width:63;stroke-linecap:butt;stroke-linejoin:miter"
     points="5905,8031 5905,5716 " />
  <polyline
     id="polyline36"
     style="fill:none;stroke:#b000b0;stroke-width:63;stroke-linecap:butt;stroke-linejoin:miter"
     points="5433,8031 5433,6850 " />
  <polyline
     id="polyline38"
     style="fill:none;stroke:#b000b0;stroke-width:63;stroke-linecap:butt;stroke-linejoin:miter"
     points="4110,8031 4110,7559 " />
  <polyline
     id="polyline40"
     style="fill:none;stroke:#b000b0;stroke-width:32;stroke-linecap:butt;stroke-linejoin:bevel;stroke-dasharray:125, 125"
     points="3543,7795 3544,7795 3548,7795 3558,7794 3574,7794 3596,7792 3620,7791 3646,7788 3670,7785 3692,7782 3713,7778 3731,7774 3748,7769 3763,7762 3779,7756 3793,7749 3806,7740 3821,7732 3835,7721 3850,7711 3865,7700 3881,7689 3898,7677 3913,7665 3929,7653 3944,7643 3960,7632 3973,7622 3988,7613 4002,7605 4015,7598 4031,7591 4047,7585 4062,7579 4080,7574 4097,7570 4115,7567 4134,7564 4152,7562 4170,7561 4186,7560 4204,7559 4220,7559 4236,7559 4251,7559 4267,7559 4283,7559 4299,7559 4317,7558 4333,7556 4351,7555 4370,7553 4388,7550 4406,7547 4423,7543 4440,7539 4456,7532 4472,7526 4488,7520 4501,7512 4515,7504 4530,7496 4543,7485 4559,7475 4574,7464 4590,7453 4606,7441 4622,7428 4638,7417 4653,7406 4668,7396 4682,7385 4697,7377 4710,7369 4724,7362 4740,7355 4755,7348 4771,7342 4789,7337 4806,7332 4824,7327 4843,7322 4860,7318 4878,7313 4895,7308 4913,7302 4929,7297 4944,7290 4960,7283 4974,7276 4987,7268 5002,7258 5016,7249 5032,7237 5046,7226 5062,7212 5079,7198 5095,7185 5110,7170 5125,7156 5141,7142 5154,7127 5169,7113 5183,7100 5196,7086 5208,7075 5220,7062 5233,7049 5246,7036 5259,7022 5273,7008 5287,6994 5300,6978 5315,6962 5329,6946 5342,6930 5356,6913 5370,6897 5383,6879 5396,6862 5408,6846 5421,6828 5433,6811 5442,6795 5453,6780 5462,6764 5472,6747 5483,6728 5495,6709 5505,6690 5517,6669 5528,6647 5540,6625 5551,6603 5562,6579 5573,6556 5585,6532 5596,6508 5607,6483 5618,6459 5629,6435 5639,6411 5649,6387 5659,6363 5669,6339 5677,6317 5686,6296 5694,6274 5702,6251 5712,6227 5720,6203 5730,6179 5739,6154 5749,6128 5758,6100 5767,6073 5777,6046 5787,6017 5797,5989 5806,5962 5816,5933 5825,5905 5835,5878 5844,5850 5854,5823 5862,5797 5871,5771 5880,5744 5888,5719 5897,5694 5905,5669 5914,5641 5923,5614 5932,5587 5942,5559 5951,5530 5961,5501 5971,5471 5982,5442 5991,5412 6002,5381 6012,5351 6024,5320 6034,5290 6045,5259 6055,5230 6065,5202 6075,5173 6086,5146 6095,5120 6104,5095 6114,5069 6123,5045 6132,5022 6141,5000 6151,4975 6161,4951 6171,4927 6181,4902 6192,4878 6203,4854 6214,4830 6225,4806 6237,4782 6248,4759 6260,4734 6270,4712 6282,4690 6293,4668 6305,4647 6316,4628 6327,4609 6338,4591 6348,4574 6358,4558 6368,4542 6377,4528 6391,4508 6405,4488 6419,4469 6433,4450 6449,4432 6464,4414 6479,4396 6496,4381 6512,4365 6528,4351 6542,4338 6558,4326 6572,4316 6586,4306 6600,4298 6614,4291 6627,4284 6641,4279 6656,4274 6669,4270 6685,4266 6700,4264 6716,4263 6732,4262 6748,4263 6764,4264 6779,4266 6794,4270 6808,4274 6823,4279 6836,4284 6850,4291 6864,4298 6877,4306 6892,4314 6906,4325 6921,4335 6936,4346 6952,4358 6969,4370 6984,4382 7000,4393 7015,4404 7030,4414 7044,4425 7059,4433 7072,4441 7086,4449 7102,4455 7118,4462 7133,4468 7151,4473 7168,4478 7186,4483 7205,4488 7223,4492 7240,4497 7257,4502 7275,4508 7291,4513 7307,4520 7322,4528 7336,4534 7350,4542 7364,4552 7378,4562 7394,4574 7408,4587 7424,4601 7441,4617 7457,4633 7472,4650 7487,4668 7503,4686 7517,4705 7531,4724 7545,4744 7559,4764 7568,4779 7579,4794 7588,4810 7598,4827 7609,4846 7620,4865 7631,4883 7643,4904 7654,4927 7666,4949 7677,4971 7688,4995 7699,5018 7711,5042 7722,5066 7733,5090 7744,5114 7755,5139 7765,5163 7775,5187 7785,5211 7795,5236 7804,5258 7813,5281 7822,5306 7832,5330 7841,5355 7850,5381 7861,5407 7871,5435 7881,5462 7891,5489 7902,5518 7913,5545 7924,5573 7934,5600 7945,5627 7954,5652 7965,5677 7975,5701 7985,5725 7994,5748 8004,5769 8013,5788 8022,5807 8031,5826 8043,5849 8055,5872 8068,5893 8080,5914 8094,5934 8108,5954 8121,5972 8135,5990 8150,6007 8163,6023 8177,6036 8191,6049 8204,6060 8218,6071 8230,6080 8243,6089 8256,6095 8267,6102 8281,6109 8295,6114 8309,6119 8323,6122 8339,6127 8353,6129 8369,6130 8386,6131 8402,6130 8417,6129 8432,6127 8448,6122 8461,6119 8476,6114 8490,6109 8503,6102 8515,6095 8528,6089 8540,6080 8553,6071 8566,6060 8580,6049 8594,6036 8607,6023 8622,6007 8636,5990 8649,5972 8663,5954 8677,5934 8690,5914 8703,5893 8716,5872 8728,5849 8740,5826 8749,5807 8758,5788 8767,5769 8776,5746 8786,5724 8795,5700 8806,5675 8816,5649 8826,5622 8836,5593 8847,5565 8858,5534 8869,5504 8879,5472 8890,5441 8899,5409 8910,5377 8920,5345 8930,5314 8939,5282 8949,5251 8958,5219 8966,5188 8976,5158 8983,5130 8992,5102 8999,5074 9007,5045 9016,5016 9023,4986 9032,4956 9041,4924 9049,4893 9058,4860 9067,4828 9076,4795 9085,4762 9095,4729 9103,4697 9112,4664 9121,4633 9130,4601 9139,4570 9147,4540 9156,4511 9165,4482 9172,4455 9181,4429 9189,4403 9196,4377 9205,4353 9212,4330 9222,4301 9232,4272 9241,4244 9252,4217 9262,4190 9274,4162 9285,4135 9296,4109 9308,4082 9319,4056 9331,4032 9341,4008 9353,3984 9364,3962 9376,3941 9386,3920 9398,3901 9408,3883 9419,3865 9428,3849 9439,3834 9448,3819 9462,3799 9476,3779 9490,3760 9504,3741 9520,3723 9534,3706 9550,3688 9567,3672 9583,3656 9598,3643 9613,3629 9629,3617 9643,3607 9657,3597 9671,3589 9685,3583 9698,3575 9712,3570 9727,3565 9740,3562 9756,3558 9771,3555 9786,3554 9803,3553 9819,3554 9835,3555 9849,3558 9865,3562 9879,3565 9893,3570 9907,3575 9921,3583 9934,3589 9948,3597 9963,3607 9976,3617 9992,3629 10007,3643 10023,3656 10039,3672 10055,3688 10071,3706 10086,3723 10101,3741 10115,3760 10130,3779 10143,3799 10157,3819 10166,3833 10175,3846 10184,3862 10194,3878 10203,3895 10213,3912 10223,3931 10234,3952 10243,3974 10254,3997 10264,4022 10276,4048 10286,4075 10297,4103 10307,4134 10317,4164 10327,4196 10338,4229 10347,4263 10356,4298 10366,4333 10375,4370 10384,4409 10393,4449 10400,4476 10405,4504 10411,4534 10417,4564 10424,4595 10430,4627 10436,4661 10443,4696 10449,4732 10456,4769 10462,4807 10470,4846 10476,4886 10483,4925 10490,4967 10497,5009 10504,5051 10512,5095 10518,5138 10525,5182 10533,5225 10539,5268 10546,5311 10553,5354 10560,5397 10566,5439 10574,5480 10580,5521 10586,5562 10593,5601 10599,5640 10605,5678 10612,5716 10618,5754 10623,5790 10629,5826 10636,5867 10643,5907 10649,5947 10657,5987 10664,6027 10671,6068 10678,6108 10685,6148 10693,6188 10701,6229 10708,6269 10716,6310 10724,6350 10731,6390 10740,6429 10748,6469 10755,6507 10764,6544 10771,6581 10780,6617 10787,6653 10794,6686 10802,6719 10810,6751 10817,6782 10824,6811 10831,6839 10838,6867 10846,6894 10852,6919 10859,6944 10866,6969 10875,7002 10886,7035 10895,7067 10906,7099 10916,7129 10928,7160 10938,7189 10950,7218 10961,7247 10973,7274 10984,7300 10995,7327 11006,7351 11018,7374 11029,7396 11040,7417 11051,7436 11062,7455 11072,7472 11082,7488 11092,7504 11102,7520 11116,7539 11129,7559 11144,7577 11158,7596 11173,7614 11188,7632 11204,7650 11220,7666 11236,7681 11252,7695 11267,7709 11282,7720 11296,7731 11311,7740 11324,7749 11338,7756 11354,7762 11370,7770 11385,7775 11403,7780 11420,7785 11438,7791 11457,7795 11475,7799 11492,7804 11509,7809 11527,7815 11543,7820 11559,7827 11574,7835 11588,7841 11602,7849 11616,7858 11630,7868 11646,7879 11660,7889 11676,7901 11693,7913 11709,7925 11724,7937 11739,7947 11755,7958 11769,7968 11783,7976 11797,7985 11811,7992 11826,7998 11842,8005 11859,8010 11877,8014 11898,8018 11920,8022 11944,8025 11969,8027 11993,8028 12015,8030 12032,8030 12041,8031 12046,8031 12047,8031 " />
  <text
     style="font-style:normal;font-weight:normal;font-size:429px;font-family:Times;text-anchor:end;fill:#b000b0;stroke-width:0.025in"
     id="text42"
     font-size="429"
     font-weight="normal"
     font-style="normal"
     y="4015"
     x="3307"
     xml:space="preserve">$I$</text>
  <text
     style="font-style:normal;font-weight:normal;font-size:429px;font-family:Times;text-anchor:middle;fill:#b000b0;stroke-width:0.025in"
     id="text44"
     font-size="429"
     font-weight="normal"
     font-style="normal"
     y="8503"
     x="11102"
     xml:space="preserve">$λ₁₃$</text>
  <text
     style="font-style:normal;font-weight:normal;font-size:429px;font-family:Times;text-anchor:middle;fill:#b000b0;stroke-width:0.025in"
     id="text46"
     font-size="429"
     font-weight="normal"
     font-style="normal"
     y="8551"
     x="4960"
     xml:space="preserve">$λ₂$</text>
  <text
     style="font-style:normal;font-weight:normal;font-size:429px;font-family:Times;text-anchor:middle;fill:#b000b0;stroke-width:0.025in"
     id="text48"
     font-size="429"
     font-weight="normal"
     font-style="normal"
     y="8551"
     x="4110"
     xml:space="preserve">$λ₁$</text>
  <text
     style="font-style:normal;font-weight:normal;font-size:429px;font-family:Times;text-anchor:middle;fill:#b000b0;stroke-width:0.025in"
     id="text50"
     font-size="429"
     font-weight="normal"
     font-style="normal"
     y="7322"
     x="3968"
     xml:space="preserve">$I₁$</text>
  <text
     style="font-style:normal;font-weight:normal;font-size:429px;font-family:Times;text-anchor:middle;fill:#b000b0;stroke-width:0.025in"
     id="text52"
     font-size="429"
     font-weight="normal"
     font-style="normal"
     y="6944"
     x="4771"
     xml:space="preserve">$I₂$</text>
</svg>
