<?xml version="1.0" encoding="UTF-8" standalone="no"?>
<!-- Creator: fig2dev Version 3.2 Patchlevel 5e -->

<!-- CreationDate: Thu Nov 26 11:29:58 2015 -->

<!-- Magnification: 1.050 -->

<svg
   xmlns:dc="http://purl.org/dc/elements/1.1/"
   xmlns:cc="http://creativecommons.org/ns#"
   xmlns:rdf="http://www.w3.org/1999/02/22-rdf-syntax-ns#"
   xmlns:svg="http://www.w3.org/2000/svg"
   xmlns="http://www.w3.org/2000/svg"
   xmlns:sodipodi="http://sodipodi.sourceforge.net/DTD/sodipodi-0.dtd"
   xmlns:inkscape="http://www.inkscape.org/namespaces/inkscape"
   width="7.2in"
   height="4.0in"
   viewBox="3250 3014 8617 4837"
   id="svg2"
   version="1.1"
   inkscape:version="0.91 r13725"
   sodipodi:docname="fig_objekteFlaechenbasiertDurchdringung.svg">
  <metadata
     id="metadata28">
    <rdf:RDF>
      <cc:Work
         rdf:about="">
        <dc:format>image/svg+xml</dc:format>
        <dc:type
           rdf:resource="http://purl.org/dc/dcmitype/StillImage" />
        <dc:title></dc:title>
      </cc:Work>
    </rdf:RDF>
  </metadata>
  <defs
     id="defs26" />
  <sodipodi:namedview
     pagecolor="#ffffff"
     bordercolor="#666666"
     borderopacity="1"
     objecttolerance="10"
     gridtolerance="10"
     guidetolerance="10"
     inkscape:pageopacity="0"
     inkscape:pageshadow="2"
     inkscape:window-width="640"
     inkscape:window-height="480"
     id="namedview24"
     showgrid="false"
     inkscape:zoom="0.65555556"
     inkscape:cx="323.99999"
     inkscape:cy="180"
     inkscape:window-x="142"
     inkscape:window-y="60"
     inkscape:window-maximized="0"
     inkscape:current-layer="svg2" />
  <polyline
     id="polyline6"
     style="fill:none;stroke:#ff0000;stroke-width:63;stroke-linecap:butt;stroke-linejoin:bevel"
     points="3307,4960 3308,4958 3311,4953 3315,4944 3322,4931 3333,4912 3346,4888 3363,4858 3382,4824 3404,4786 3428,4744 3454,4701 3479,4657 3506,4613 3532,4569 3560,4527 3586,4486 3611,4447 3636,4410 3661,4375 3686,4344 3709,4313 3732,4286 3755,4260 3778,4236 3801,4213 3824,4192 3848,4171 3872,4152 3898,4134 3921,4117 3946,4100 3971,4085 3997,4070 4025,4055 4053,4040 4082,4026 4112,4011 4143,3997 4175,3984 4207,3969 4241,3955 4276,3943 4310,3929 4345,3916 4381,3903 4416,3889 4452,3877 4488,3864 4523,3851 4559,3839 4595,3826 4629,3814 4664,3801 4698,3790 4731,3777 4764,3764 4796,3752 4828,3739 4859,3727 4890,3714 4921,3700 4951,3687 4981,3672 5012,3657 5042,3641 5074,3626 5105,3608 5137,3590 5170,3570 5205,3550 5240,3528 5277,3504 5316,3479 5357,3453 5399,3425 5442,3396 5486,3365 5531,3335 5576,3303 5622,3272 5666,3241 5708,3211 5748,3184 5783,3159 5815,3135 5841,3117 5863,3101 5880,3089 5891,3080 5899,3075 5903,3071 5905,3070 " />
  <polyline
     id="polyline8"
     style="fill:none;stroke:#ff0000;stroke-width:63;stroke-linecap:butt;stroke-linejoin:bevel"
     points="3307,4960 3309,4961 3313,4962 3320,4965 3333,4971 3351,4978 3374,4987 3402,4999 3436,5014 3474,5029 3517,5047 3563,5066 3611,5086 3661,5108 3712,5129 3763,5151 3815,5173 3864,5194 3912,5215 3960,5235 4005,5255 4048,5275 4089,5293 4128,5311 4165,5329 4201,5345 4236,5361 4268,5378 4300,5394 4331,5409 4361,5425 4390,5440 4419,5456 4449,5472 4478,5489 4509,5506 4539,5524 4570,5542 4601,5560 4632,5579 4663,5597 4695,5616 4727,5636 4760,5656 4792,5676 4826,5696 4859,5716 4893,5736 4927,5756 4960,5776 4994,5796 5027,5815 5061,5834 5095,5853 5128,5870 5161,5887 5193,5904 5226,5920 5257,5935 5289,5950 5319,5964 5351,5977 5381,5990 5412,6002 5442,6013 5472,6024 5503,6033 5533,6043 5565,6051 5597,6058 5630,6067 5665,6073 5699,6079 5737,6086 5776,6091 5817,6096 5860,6101 5905,6106 5952,6110 6002,6114 6053,6117 6106,6121 6160,6124 6215,6127 6268,6130 6322,6132 6372,6134 6420,6136 6464,6137 6502,6138 6535,6139 6562,6140 6582,6140 6597,6141 6606,6141 6612,6141 6614,6141 " />
  <polyline
     id="polyline10"
     style="fill:none;stroke:#ff0000;stroke-width:63;stroke-linecap:butt;stroke-linejoin:bevel"
     points="5905,3070 5907,3070 5912,3070 5922,3070 5937,3071 5958,3071 5984,3072 6017,3074 6057,3075 6102,3077 6153,3079 6207,3081 6264,3084 6323,3086 6383,3090 6444,3093 6502,3098 6560,3102 6617,3106 6670,3111 6722,3117 6771,3122 6817,3128 6861,3134 6903,3141 6943,3148 6981,3156 7017,3165 7050,3173 7084,3183 7116,3193 7146,3204 7175,3215 7205,3228 7234,3241 7265,3256 7294,3272 7322,3289 7352,3307 7381,3324 7411,3344 7439,3364 7468,3385 7498,3406 7527,3429 7558,3451 7587,3476 7616,3500 7647,3524 7677,3548 7707,3573 7737,3597 7766,3623 7796,3647 7826,3671 7856,3694 7885,3717 7914,3740 7943,3762 7972,3783 8002,3804 8031,3824 8059,3843 8089,3862 8119,3880 8150,3898 8178,3912 8207,3928 8238,3943 8269,3956 8303,3970 8337,3984 8372,3997 8410,4010 8450,4024 8492,4036 8536,4049 8582,4061 8632,4075 8683,4088 8737,4101 8793,4115 8851,4129 8910,4141 8971,4155 9030,4167 9089,4180 9146,4192 9201,4203 9251,4213 9296,4222 9336,4229 9370,4237 9396,4242 9417,4245 9432,4248 9441,4250 9446,4251 9448,4251 " />
  <polyline
     id="polyline12"
     style="fill:none;stroke:#ff0000;stroke-width:63;stroke-linecap:butt;stroke-linejoin:bevel"
     points="6614,6141 6615,6139 6617,6135 6621,6128 6627,6116 6636,6100 6647,6078 6662,6052 6679,6022 6698,5987 6719,5949 6741,5908 6765,5866 6790,5823 6815,5779 6839,5736 6865,5694 6890,5653 6914,5614 6938,5576 6961,5541 6983,5507 7005,5475 7027,5443 7049,5415 7070,5386 7092,5359 7113,5334 7135,5309 7159,5283 7181,5259 7205,5236 7227,5213 7250,5191 7274,5169 7298,5147 7324,5125 7351,5103 7378,5081 7405,5059 7435,5036 7464,5014 7496,4991 7526,4969 7559,4946 7591,4924 7625,4902 7658,4880 7693,4858 7728,4837 7762,4816 7798,4795 7833,4775 7867,4756 7903,4738 7938,4719 7971,4701 8006,4684 8039,4667 8073,4651 8106,4636 8139,4621 8172,4606 8203,4593 8236,4579 8267,4566 8299,4554 8331,4541 8363,4530 8396,4518 8429,4507 8464,4495 8498,4485 8534,4473 8572,4462 8611,4451 8651,4439 8695,4428 8739,4416 8785,4405 8833,4392 8882,4381 8934,4368 8985,4355 9038,4344 9089,4331 9141,4320 9190,4308 9236,4298 9279,4288 9318,4280 9353,4272 9381,4266 9404,4261 9422,4257 9434,4255 9442,4253 9446,4251 9448,4251 " />
  <polyline
     id="polyline14"
     style="fill:none;stroke:#0000ff;stroke-width:63;stroke-linecap:butt;stroke-linejoin:bevel"
     points="8503,3543 8504,3545 8508,3549 8512,3556 8520,3569 8531,3586 8545,3609 8562,3636 8583,3669 8607,3707 8635,3749 8664,3794 8695,3841 8727,3889 8760,3939 8793,3988 8826,4037 8858,4085 8891,4131 8922,4176 8952,4218 8981,4258 9011,4297 9038,4332 9065,4366 9090,4398 9117,4429 9142,4457 9166,4485 9191,4511 9215,4536 9240,4560 9266,4583 9291,4606 9316,4627 9342,4649 9370,4670 9397,4691 9425,4711 9454,4732 9483,4751 9513,4771 9545,4790 9576,4809 9609,4828 9643,4846 9677,4862 9712,4879 9746,4896 9783,4912 9819,4928 9856,4942 9892,4956 9929,4970 9966,4982 10004,4994 10040,5004 10077,5015 10114,5024 10150,5033 10186,5041 10222,5048 10258,5055 10292,5061 10328,5066 10363,5070 10397,5075 10433,5079 10466,5081 10499,5083 10533,5085 10567,5086 10603,5087 10639,5087 10676,5086 10714,5085 10754,5083 10796,5081 10839,5079 10886,5075 10933,5071 10982,5066 11034,5061 11087,5056 11143,5049 11200,5043 11257,5036 11316,5028 11374,5021 11432,5014 11487,5006 11541,4999 11590,4992 11636,4985 11677,4980 11712,4975 11741,4971 11765,4966 11783,4964 11796,4962 11804,4961 11808,4960 11811,4960 " />
  <polyline
     id="polyline16"
     style="fill:none;stroke:#0000ff;stroke-width:63;stroke-linecap:butt;stroke-linejoin:bevel"
     points="5905,5433 5906,5435 5907,5439 5911,5446 5917,5459 5924,5477 5933,5500 5946,5528 5961,5562 5977,5600 5996,5643 6016,5689 6038,5737 6060,5787 6083,5838 6108,5889 6131,5941 6155,5990 6178,6038 6201,6086 6223,6131 6245,6174 6267,6215 6288,6254 6308,6291 6329,6327 6349,6362 6370,6394 6390,6426 6410,6457 6431,6487 6452,6516 6474,6545 6496,6575 6517,6601 6539,6628 6561,6655 6584,6682 6608,6709 6634,6737 6659,6764 6686,6791 6713,6818 6742,6846 6771,6873 6802,6901 6833,6929 6865,6956 6898,6983 6932,7011 6965,7038 7001,7064 7037,7090 7072,7117 7109,7142 7146,7166 7183,7190 7220,7214 7258,7236 7296,7258 7334,7280 7372,7300 7409,7320 7447,7340 7485,7358 7523,7376 7561,7393 7600,7409 7637,7425 7677,7441 7712,7454 7748,7467 7784,7480 7822,7491 7860,7504 7900,7516 7940,7527 7983,7538 8026,7549 8072,7560 8119,7571 8169,7582 8220,7593 8275,7604 8330,7615 8389,7626 8450,7637 8513,7649 8578,7660 8645,7672 8713,7682 8782,7694 8851,7706 8919,7716 8985,7727 9050,7736 9112,7745 9170,7755 9224,7762 9272,7770 9314,7776 9350,7781 9380,7785 9404,7788 9422,7791 9435,7793 9442,7794 9446,7795 9448,7795 " />
  <polyline
     id="polyline18"
     style="fill:none;stroke:#0000ff;stroke-width:63;stroke-linecap:butt;stroke-linejoin:bevel"
     points="5905,5433 5906,5430 5909,5427 5913,5420 5921,5409 5931,5395 5946,5375 5964,5349 5986,5319 6011,5283 6039,5244 6071,5201 6104,5153 6141,5104 6179,5053 6218,5000 6258,4946 6298,4894 6338,4841 6376,4791 6415,4742 6453,4693 6490,4648 6527,4604 6561,4562 6596,4523 6628,4486 6661,4450 6692,4415 6724,4384 6754,4353 6785,4324 6815,4297 6846,4269 6876,4244 6907,4220 6937,4196 6969,4173 7000,4151 7032,4129 7064,4107 7098,4086 7132,4066 7169,4045 7206,4025 7245,4005 7285,3985 7327,3965 7372,3945 7418,3925 7466,3905 7517,3884 7570,3863 7626,3841 7682,3820 7742,3798 7803,3776 7865,3754 7928,3732 7991,3710 8054,3689 8115,3669 8174,3649 8229,3631 8281,3614 8328,3598 8369,3585 8405,3573 8435,3564 8458,3556 8476,3551 8489,3547 8497,3545 8501,3544 8503,3543 " />
  <polyline
     id="polyline20"
     style="fill:none;stroke:#0000ff;stroke-width:63;stroke-linecap:butt;stroke-linejoin:bevel"
     points="9448,7795 9449,7793 9450,7787 9453,7778 9457,7764 9462,7744 9468,7719 9477,7688 9487,7652 9499,7611 9510,7567 9524,7521 9537,7472 9551,7424 9565,7376 9579,7329 9592,7282 9606,7238 9619,7195 9633,7154 9646,7116 9658,7078 9671,7042 9683,7007 9696,6973 9709,6940 9722,6908 9735,6875 9749,6843 9763,6811 9776,6782 9790,6752 9803,6723 9818,6693 9833,6663 9848,6633 9865,6601 9882,6569 9900,6537 9918,6503 9937,6471 9956,6436 9977,6403 9998,6368 10020,6333 10043,6300 10066,6265 10090,6230 10114,6196 10138,6162 10163,6129 10188,6096 10215,6062 10240,6031 10266,6000 10292,5969 10320,5939 10346,5910 10373,5881 10400,5854 10428,5826 10455,5799 10482,5773 10512,5748 10537,5724 10563,5702 10591,5680 10619,5658 10647,5636 10677,5614 10708,5592 10741,5569 10774,5546 10810,5523 10847,5499 10886,5475 10928,5449 10970,5423 11015,5396 11062,5369 11111,5340 11162,5312 11213,5282 11266,5253 11320,5224 11374,5194 11426,5165 11479,5137 11529,5109 11576,5084 11620,5061 11660,5039 11696,5020 11727,5004 11752,4991 11772,4980 11787,4972 11798,4966 11805,4963 11808,4961 11811,4960 " />
  <polyline
     id="polyline22"
     style="fill:none;stroke:#b000b0;stroke-width:63;stroke-linecap:round;stroke-linejoin:bevel;stroke-dasharray:10, 94"
     points="8881,4110 8879,4111 8873,4112 8862,4114 8847,4117 8825,4122 8797,4128 8764,4135 8725,4144 8683,4153 8638,4163 8592,4174 8544,4184 8498,4195 8453,4205 8409,4216 8368,4225 8328,4235 8291,4243 8256,4253 8223,4261 8192,4268 8162,4277 8135,4284 8108,4291 8081,4299 8056,4307 8031,4314 8005,4323 7979,4331 7952,4341 7926,4349 7900,4359 7872,4369 7846,4379 7819,4390 7793,4401 7765,4412 7738,4424 7711,4436 7685,4448 7658,4460 7632,4474 7606,4487 7581,4499 7555,4513 7531,4527 7508,4539 7485,4553 7463,4566 7441,4580 7419,4594 7398,4607 7378,4622 7357,4636 7336,4650 7315,4666 7293,4682 7272,4699 7250,4716 7227,4734 7205,4753 7182,4773 7159,4793 7134,4814 7111,4836 7087,4859 7063,4882 7040,4907 7017,4931 6994,4956 6971,4980 6949,5005 6927,5030 6904,5057 6883,5082 6864,5108 6843,5134 6823,5162 6803,5189 6787,5211 6770,5234 6753,5258 6737,5282 6720,5309 6702,5336 6684,5364 6665,5394 6646,5426 6625,5460 6604,5496 6582,5533 6558,5573 6534,5614 6509,5658 6482,5703 6456,5750 6430,5796 6404,5843 6377,5888 6352,5932 6329,5973 6308,6011 6289,6045 6274,6073 6261,6096 6250,6114 6244,6127 6239,6135 6237,6139 6236,6141 " />
</svg>
