<?xml version="1.0" encoding="UTF-8" standalone="no"?>
<!-- Creator: fig2dev Version 3.2 Patchlevel 5e -->

<!-- CreationDate: Wed Sep 30 10:37:21 2015 -->

<!-- Magnification: 1.050 -->

<svg
   xmlns:dc="http://purl.org/dc/elements/1.1/"
   xmlns:cc="http://creativecommons.org/ns#"
   xmlns:rdf="http://www.w3.org/1999/02/22-rdf-syntax-ns#"
   xmlns:svg="http://www.w3.org/2000/svg"
   xmlns="http://www.w3.org/2000/svg"
   xmlns:sodipodi="http://sodipodi.sourceforge.net/DTD/sodipodi-0.dtd"
   xmlns:inkscape="http://www.inkscape.org/namespaces/inkscape"
   width="8.7in"
   height="4.1in"
   viewBox="-754 787 10496 4897"
   id="svg2"
   version="1.1"
   inkscape:version="0.91 r13725"
   sodipodi:docname="fig_clip3DFuerVorne.svg">
  <metadata
     id="metadata54">
    <rdf:RDF>
      <cc:Work
         rdf:about="">
        <dc:format>image/svg+xml</dc:format>
        <dc:type
           rdf:resource="http://purl.org/dc/dcmitype/StillImage" />
      </cc:Work>
    </rdf:RDF>
  </metadata>
  <defs
     id="defs52" />
  <sodipodi:namedview
     pagecolor="#ffffff"
     bordercolor="#666666"
     borderopacity="1"
     objecttolerance="10"
     gridtolerance="10"
     guidetolerance="10"
     inkscape:pageopacity="0"
     inkscape:pageshadow="2"
     inkscape:window-width="2418"
     inkscape:window-height="1261"
     id="namedview50"
     showgrid="false"
     inkscape:zoom="1.2720307"
     inkscape:cx="443.69063"
     inkscape:cy="205.24421"
     inkscape:window-x="142"
     inkscape:window-y="60"
     inkscape:window-maximized="1"
     inkscape:current-layer="svg2" />
  <circle
     id="circle6"
     style="fill:#3fc33f;stroke:#00b000;stroke-width:8"
     r="351"
     cy="2657"
     cx="7782" />
  <polygon
     id="polygon8"
     style="fill:#d09f7f;stroke:#a14000;stroke-width:8;stroke-linecap:butt;stroke-linejoin:miter"
     points="-47,3307 -330,2881 -566,2976 -566,2976 -472,3307 " />
  <polygon
     id="polygon10"
     style="fill:#d09f7f;stroke:#a14000;stroke-width:8;stroke-linecap:butt;stroke-linejoin:miter"
     points="755,4015 283,3165 283,3165 94,3543 " />
  <polygon
     id="polygon12"
     style="fill:#d09f7f;stroke:#a14000;stroke-width:8;stroke-linecap:butt;stroke-linejoin:miter"
     points="1748,3070 992,2834 1133,2173 519,2503 519,2503 850,3401 " />
  <polygon
     id="polygon14"
     style="fill:#d09f7f;stroke:#a14000;stroke-width:8;stroke-linecap:butt;stroke-linejoin:miter"
     points="330,4393 -377,4157 -94,3448 -472,3732 -472,3732 -566,4488 " />
  <polygon
     id="polygon16"
     style="fill:#d09f7f;stroke:#a14000;stroke-width:8;stroke-linecap:butt;stroke-linejoin:miter"
     points="2362,4393 3118,3354 2740,2787 2740,2787 3685,3354 " />
  <polygon
     id="polygon18"
     style="fill:#d09f7f;stroke:#a14000;stroke-width:8;stroke-linecap:butt;stroke-linejoin:miter"
     points="2362,3874 2740,3354 2173,3070 2173,3070 1606,3685 " />
  <polyline
     id="polyline20"
     style="fill:none;stroke:#a14000;stroke-width:16;stroke-linecap:butt;stroke-linejoin:miter"
     points="-708,4866 -614,4960 1559,4960 1653,5055 1748,4960 3921,4960 4015,4866 " />
  <polygon
     id="polygon22"
     style="fill:#3fc33f;stroke:#00b000;stroke-width:8;stroke-linecap:butt;stroke-linejoin:miter"
     points="7782,3424 7441,3765 7270,3254 6759,3254 6759,3254 7270,2913 " />
  <polygon
     id="polygon24"
     style="fill:#3fc33f;stroke:#00b000;stroke-width:8;stroke-linecap:butt;stroke-linejoin:miter"
     points="7270,4107 6587,3595 6587,3595 7100,3595 " />
  <polygon
     id="polygon26"
     style="fill:#3fc33f;stroke:#00b000;stroke-width:8;stroke-linecap:butt;stroke-linejoin:miter"
     points="6929,1889 6992,2360 6650,2701 6519,2469 5968,2188 5968,2188 6587,2196 " />
  <polygon
     id="polygon28"
     style="fill:#3fc33f;stroke:#00b000;stroke-width:8;stroke-linecap:butt;stroke-linejoin:bevel"
     points="8531,3088 8559,3093 8584,3099 8606,3104 8625,3109 8641,3113 8655,3118 8667,3122 8678,3126 8688,3130 8700,3135 8711,3142 8724,3150 8737,3161 8751,3173 8766,3189 8782,3208 8795,3230 8806,3254 8812,3283 8813,3311 8809,3337 8802,3359 8791,3377 8779,3393 8764,3404 8749,3415 8734,3425 8719,3435 8704,3445 8689,3458 8676,3472 8662,3490 8651,3512 8642,3539 8637,3566 8635,3595 8638,3629 8646,3655 8659,3673 8672,3682 8688,3686 8704,3685 8721,3680 8737,3676 8752,3675 8768,3678 8782,3688 8794,3706 8803,3732 8806,3765 8805,3787 8803,3809 8800,3830 8796,3851 8793,3871 8791,3889 8790,3906 8790,3923 8790,3938 8790,3952 8791,3966 8791,3979 8791,3991 8791,4005 8789,4017 8785,4030 8780,4043 8770,4055 8759,4068 8743,4079 8723,4090 8698,4098 8668,4104 8635,4107 8601,4104 8565,4100 8530,4093 8495,4085 8462,4076 8432,4067 8404,4057 8376,4049 8352,4039 8328,4031 8306,4024 8285,4015 8265,4007 8244,3998 8224,3989 8203,3979 8181,3968 8158,3954 8134,3940 8108,3923 8081,3903 8054,3881 8027,3856 8000,3827 7974,3798 7952,3765 7933,3730 7921,3695 7912,3661 7909,3632 7908,3605 7910,3582 7914,3562 7920,3545 7927,3530 7934,3518 7943,3506 7952,3496 7963,3485 7972,3474 7984,3461 7994,3447 8007,3432 8019,3414 8034,3392 8049,3369 8066,3341 8083,3313 8102,3283 8123,3254 8150,3222 8175,3194 8198,3171 8218,3153 8235,3140 8247,3129 8259,3122 8266,3118 8274,3113 8280,3111 8286,3110 8293,3108 8303,3106 8314,3104 8329,3101 8348,3097 8372,3092 8400,3088 8431,3084 8465,3083 8465,3083 8498,3084 " />
  <polygon
     id="polygon30"
     style="fill:#3fc33f;stroke:#00b000;stroke-width:8;stroke-linecap:butt;stroke-linejoin:bevel"
     points="8093,4242 8111,4243 8125,4243 8140,4243 8153,4243 8163,4242 8174,4241 8183,4240 8193,4240 8202,4240 8212,4242 8221,4245 8230,4251 8240,4261 8249,4274 8256,4290 8260,4311 8260,4335 8256,4360 8248,4383 8239,4404 8227,4422 8216,4437 8203,4450 8191,4462 8177,4473 8164,4485 8151,4497 8138,4511 8125,4527 8114,4546 8104,4570 8096,4595 8091,4623 8089,4653 8092,4686 8101,4713 8115,4733 8131,4745 8150,4750 8169,4752 8188,4752 8208,4752 8226,4753 8243,4758 8257,4766 8265,4781 8267,4801 8260,4824 8249,4840 8236,4856 8221,4871 8207,4885 8195,4896 8182,4907 8173,4915 8163,4923 8155,4931 8146,4937 8137,4943 8128,4950 8115,4957 8100,4963 8081,4970 8058,4977 8031,4983 7997,4988 7960,4993 7919,4994 7883,4993 7847,4991 7813,4986 7780,4983 7750,4979 7722,4976 7696,4973 7672,4971 7651,4969 7630,4966 7610,4964 7591,4962 7573,4960 7554,4958 7537,4954 7519,4949 7500,4942 7482,4934 7464,4922 7446,4909 7432,4892 7418,4872 7409,4850 7406,4824 7409,4796 7419,4768 7432,4741 7448,4714 7466,4691 7485,4669 7506,4650 7526,4634 7546,4618 7567,4604 7588,4592 7609,4579 7630,4566 7651,4554 7674,4540 7697,4525 7721,4509 7748,4491 7774,4470 7802,4448 7832,4423 7861,4397 7890,4371 7919,4346 7955,4313 7985,4287 8005,4268 8016,4257 8022,4250 8022,4247 8018,4247 8012,4249 8007,4251 8002,4254 8000,4255 8002,4255 8007,4253 8018,4250 8035,4246 8055,4243 8055,4243 8074,4242 " />
  <polyline
     id="polyline32"
     style="fill:none;stroke:#b000b0;stroke-width:63;stroke-linecap:butt;stroke-linejoin:miter"
     points="9685,1511 5905,2456 5905,4157 9685,5102 " />
  <text
     style="font-style:normal;font-weight:normal;font-size:378px;font-family:Helvetica;text-anchor:middle;fill:#b000b0;stroke-width:0.025in"
     id="text34"
     font-size="378"
     font-weight="normal"
     font-style="normal"
     y="1181"
     x="7086"
     xml:space="preserve">Sicht-</text>
  <text
     style="font-style:normal;font-weight:normal;font-size:378px;font-family:Helvetica;text-anchor:middle;fill:#b000b0;stroke-width:0.025in"
     id="text36"
     font-size="378"
     font-weight="normal"
     font-style="normal"
     y="1653"
     x="7086"
     xml:space="preserve">volumen</text>
  <text
     style="font-style:normal;font-weight:normal;font-size:378px;font-family:Helvetica;text-anchor:middle;fill:#ff0000;stroke-width:0.025in"
     id="text38"
     font-size="378"
     font-weight="normal"
     font-style="normal"
     y="2125"
     x="4015"
     xml:space="preserve">Projektions-</text>
  <text
     style="font-style:normal;font-weight:normal;font-size:378px;font-family:Helvetica;text-anchor:middle;fill:#ff0000;stroke-width:0.025in"
     id="text40"
     font-size="378"
     font-weight="normal"
     font-style="normal"
     y="2598"
     x="4015"
     xml:space="preserve">ebene</text>
  <text
     style="font-style:normal;font-weight:normal;font-size:378px;font-family:Helvetica;text-anchor:middle;fill:#a14000;stroke-width:0.025in"
     id="text42"
     font-size="378"
     font-weight="normal"
     font-style="normal"
     y="5669"
     x="1653"
     xml:space="preserve">„vor“ der PE</text>
  <polyline
     id="polyline44"
     style="fill:none;stroke:#0000ff;stroke-width:48;stroke-linecap:butt;stroke-linejoin:miter"
     points="-708,4015 9685,1417 " />
  <polyline
     id="polyline46"
     style="fill:none;stroke:#0000ff;stroke-width:48;stroke-linecap:butt;stroke-linejoin:miter"
     points="-708,2598 9685,5196 " />
  <polyline
     id="polyline48"
     style="fill:none;stroke:#ff0000;stroke-width:63;stroke-linecap:butt;stroke-linejoin:miter"
     points="4015,2834 4015,3779 " />
</svg>
