<?xml version="1.0" encoding="UTF-8" standalone="no"?>
<!-- Creator: fig2dev Version 3.2 Patchlevel 5e -->

<!-- CreationDate: Tue Oct 27 16:26:26 2015 -->

<!-- Magnification: 1.050 -->

<svg
   xmlns:dc="http://purl.org/dc/elements/1.1/"
   xmlns:cc="http://creativecommons.org/ns#"
   xmlns:rdf="http://www.w3.org/1999/02/22-rdf-syntax-ns#"
   xmlns:svg="http://www.w3.org/2000/svg"
   xmlns="http://www.w3.org/2000/svg"
   xmlns:sodipodi="http://sodipodi.sourceforge.net/DTD/sodipodi-0.dtd"
   xmlns:inkscape="http://www.inkscape.org/namespaces/inkscape"
   width="7.5in"
   height="2.7in"
   viewBox="-230 3969 9017 3226"
   id="svg2"
   version="1.1"
   inkscape:version="0.91 r13725"
   sodipodi:docname="fig_farbeStrategieBouknightMach2.svg">
  <metadata
     id="metadata36">
    <rdf:RDF>
      <cc:Work
         rdf:about="">
        <dc:format>image/svg+xml</dc:format>
        <dc:type
           rdf:resource="http://purl.org/dc/dcmitype/StillImage" />
      </cc:Work>
    </rdf:RDF>
  </metadata>
  <defs
     id="defs34" />
  <sodipodi:namedview
     pagecolor="#ffffff"
     bordercolor="#666666"
     borderopacity="1"
     objecttolerance="10"
     gridtolerance="10"
     guidetolerance="10"
     inkscape:pageopacity="0"
     inkscape:pageshadow="2"
     inkscape:window-width="640"
     inkscape:window-height="480"
     id="namedview32"
     showgrid="false"
     inkscape:zoom="0.67407407"
     inkscape:cx="337.5"
     inkscape:cy="121.5"
     inkscape:window-x="142"
     inkscape:window-y="60"
     inkscape:window-maximized="0"
     inkscape:current-layer="svg2" />
  <polyline
     id="polyline6"
     style="fill:none;stroke:#000000;stroke-width:48;stroke-linecap:butt;stroke-linejoin:miter"
     points="2362,7086 2362,4266 " />
  <polygon
     id="polygon8"
     style="fill:#000000;stroke:#000000;stroke-width:48;stroke-miterlimit:8"
     points="2299,4216 2362,4279 2425,4216 2425,4216 2362,4027 " />
  <polyline
     id="polyline10"
     style="fill:none;stroke:#ff0000;stroke-width:63;stroke-linecap:butt;stroke-linejoin:miter"
     points="2362,5196 5196,5196 " />
  <polyline
     id="polyline12"
     style="fill:none;stroke:#ff0000;stroke-width:63;stroke-linecap:butt;stroke-linejoin:miter"
     points="5196,6377 8031,6377 " />
  <polyline
     id="polyline14"
     style="fill:none;stroke:#000000;stroke-width:48;stroke-linecap:butt;stroke-linejoin:miter"
     points="2362,7086 8488,7086 " />
  <polygon
     id="polygon16"
     style="fill:#000000;stroke:#000000;stroke-width:48;stroke-miterlimit:8"
     points="8539,7023 8476,7086 8539,7149 8539,7149 8728,7086 " />
  <polyline
     id="polyline18"
     style="fill:none;stroke:#0000ff;stroke-width:32;stroke-linecap:butt;stroke-linejoin:miter;stroke-dasharray:83, 83"
     points="5227,4716 5227,6841 " />
  <polyline
     id="polyline20"
     style="fill:none;stroke:#ff0000;stroke-width:32;stroke-linecap:butt;stroke-linejoin:miter;stroke-dasharray:83, 83"
     points="5162,5202 5162,6383 " />
  <polyline
     id="polyline22"
     style="fill:none;stroke:#0000ff;stroke-width:63;stroke-linecap:butt;stroke-linejoin:bevel"
     points="2362,5149 2363,5149 2367,5149 2376,5149 2393,5149 2415,5149 2439,5149 2465,5149 2489,5149 2511,5149 2532,5149 2550,5149 2566,5149 2582,5149 2598,5149 2614,5149 2629,5149 2645,5149 2663,5149 2680,5149 2698,5149 2717,5149 2734,5149 2752,5149 2769,5149 2787,5149 2803,5149 2818,5149 2834,5149 2850,5149 2866,5149 2881,5149 2899,5149 2916,5149 2934,5149 2953,5149 2971,5149 2988,5149 3005,5149 3023,5149 3039,5149 3055,5149 3070,5149 3086,5149 3102,5149 3118,5149 3135,5149 3152,5149 3170,5149 3189,5149 3207,5149 3225,5149 3241,5149 3259,5149 3275,5149 3291,5149 3307,5149 3322,5149 3338,5149 3354,5149 3372,5149 3388,5149 3406,5149 3425,5149 3443,5149 3461,5149 3478,5149 3496,5149 3511,5149 3527,5149 3543,5149 3559,5149 3574,5149 3590,5149 3608,5149 3625,5149 3643,5149 3661,5149 3679,5149 3697,5149 3714,5149 3732,5149 3748,5149 3763,5149 3779,5149 3795,5149 3811,5149 3826,5149 3844,5149 3861,5149 3879,5149 3898,5149 3916,5149 3933,5149 3950,5149 3968,5149 3984,5149 4000,5149 4015,5149 4031,5149 4047,5149 4062,5149 4080,5149 4097,5149 4115,5149 4134,5149 4152,5149 4170,5149 4186,5149 4204,5149 4220,5149 4236,5149 4251,5149 4267,5149 4283,5149 4299,5149 4316,5149 4333,5149 4351,5149 4368,5149 4386,5149 4404,5149 4419,5149 4436,5149 4451,5149 4466,5149 4480,5149 4494,5149 4508,5149 4522,5149 4537,5149 4552,5149 4567,5148 4583,5148 4599,5147 4615,5147 4630,5146 4646,5145 4662,5144 4677,5143 4692,5142 4706,5140 4721,5138 4735,5135 4751,5133 4767,5130 4785,5126 4802,5122 4819,5117 4837,5110 4855,5104 4873,5097 4890,5088 4906,5079 4922,5069 4937,5059 4953,5047 4965,5036 4979,5023 4993,5008 5006,4993 5021,4975 5037,4955 5055,4932 5072,4907 5092,4879 5112,4850 5132,4822 5150,4793 5167,4769 5180,4749 5189,4735 5194,4728 5196,4724 " />
  <polyline
     id="polyline24"
     style="fill:none;stroke:#0000ff;stroke-width:63;stroke-linecap:butt;stroke-linejoin:bevel"
     points="8031,6425 8030,6425 8026,6425 8016,6425 8000,6425 7977,6425 7953,6425 7928,6425 7904,6425 7882,6425 7861,6425 7843,6425 7826,6425 7811,6425 7795,6425 7779,6425 7763,6425 7748,6425 7730,6425 7713,6425 7695,6425 7676,6425 7658,6425 7640,6425 7624,6425 7606,6425 7590,6425 7574,6425 7559,6425 7543,6425 7527,6425 7511,6425 7493,6425 7477,6425 7459,6425 7440,6425 7422,6425 7404,6425 7387,6425 7370,6425 7354,6425 7338,6425 7322,6425 7307,6425 7291,6425 7275,6425 7257,6425 7240,6425 7223,6425 7204,6425 7186,6425 7168,6425 7151,6425 7133,6425 7118,6425 7102,6425 7086,6425 7070,6425 7055,6425 7039,6425 7021,6425 7004,6425 6986,6425 6967,6425 6950,6425 6932,6425 6915,6425 6897,6425 6881,6425 6866,6425 6850,6425 6834,6425 6818,6425 6803,6425 6785,6425 6768,6425 6750,6425 6731,6425 6713,6425 6696,6425 6679,6425 6661,6425 6645,6425 6629,6425 6614,6425 6598,6425 6582,6425 6566,6425 6549,6425 6532,6425 6514,6425 6495,6425 6477,6425 6459,6425 6443,6425 6425,6425 6409,6425 6393,6425 6377,6425 6362,6425 6346,6425 6330,6425 6312,6425 6296,6425 6278,6425 6259,6425 6241,6425 6223,6425 6206,6425 6188,6425 6173,6425 6157,6425 6141,6425 6125,6425 6110,6425 6094,6425 6077,6425 6059,6425 6041,6425 6025,6425 6007,6425 5989,6425 5973,6425 5956,6425 5942,6425 5927,6425 5913,6425 5899,6425 5885,6425 5870,6425 5856,6425 5841,6425 5825,6426 5809,6426 5794,6427 5778,6427 5762,6428 5746,6429 5731,6430 5716,6431 5700,6433 5687,6434 5672,6436 5657,6438 5641,6440 5626,6444 5608,6448 5591,6452 5573,6457 5555,6464 5538,6470 5520,6477 5503,6486 5487,6495 5470,6504 5456,6515 5441,6528 5427,6538 5414,6551 5400,6565 5386,6581 5372,6599 5356,6619 5338,6642 5320,6667 5300,6695 5280,6724 5260,6752 5243,6781 5226,6805 5213,6825 5204,6838 5198,6846 5196,6850 " />
  <text
     style="font-style:normal;font-weight:normal;font-size:378px;font-family:Helvetica;text-anchor:start;fill:#0000ff;stroke-width:0.025in"
     id="text26"
     font-size="378"
     font-weight="normal"
     font-style="normal"
     y="4960"
     x="5669"
     xml:space="preserve">subjektiv</text>
  <text
     style="font-style:normal;font-weight:normal;font-size:378px;font-family:Helvetica;text-anchor:start;fill:#ff0000;stroke-width:0.025in"
     id="text28"
     font-size="378"
     font-weight="normal"
     font-style="normal"
     y="5669"
     x="5669"
     xml:space="preserve">objektiv</text>
  <text
     style="font-style:normal;font-weight:normal;font-size:378px;font-family:Helvetica;text-anchor:end;fill:#000000;stroke-width:0.025in"
     id="text30"
     font-size="378"
     font-weight="normal"
     font-style="normal"
     y="4488"
     x="2125"
     xml:space="preserve">Intensität</text>
</svg>
