<?xml version="1.0" encoding="UTF-8" standalone="no"?>
<!-- Creator: fig2dev Version 3.2 Patchlevel 5e -->

<!-- CreationDate: Wed Oct 28 10:49:24 2015 -->

<!-- Magnification: 1.050 -->

<svg
   xmlns:dc="http://purl.org/dc/elements/1.1/"
   xmlns:cc="http://creativecommons.org/ns#"
   xmlns:rdf="http://www.w3.org/1999/02/22-rdf-syntax-ns#"
   xmlns:svg="http://www.w3.org/2000/svg"
   xmlns="http://www.w3.org/2000/svg"
   xmlns:sodipodi="http://sodipodi.sourceforge.net/DTD/sodipodi-0.dtd"
   xmlns:inkscape="http://www.inkscape.org/namespaces/inkscape"
   width="6.5in"
   height="2.5in"
   viewBox="881 3981 7778 3026"
   id="svg2"
   version="1.1"
   inkscape:version="0.91 r13725"
   sodipodi:docname="fig_farbeTexturFlat2.svg">
  <metadata
     id="metadata86">
    <rdf:RDF>
      <cc:Work
         rdf:about="">
        <dc:format>image/svg+xml</dc:format>
        <dc:type
           rdf:resource="http://purl.org/dc/dcmitype/StillImage" />
      </cc:Work>
    </rdf:RDF>
  </metadata>
  <defs
     id="defs84" />
  <sodipodi:namedview
     pagecolor="#ffffff"
     bordercolor="#666666"
     borderopacity="1"
     objecttolerance="10"
     gridtolerance="10"
     guidetolerance="10"
     inkscape:pageopacity="0"
     inkscape:pageshadow="2"
     inkscape:window-width="640"
     inkscape:window-height="480"
     id="namedview82"
     showgrid="false"
     inkscape:zoom="0.77777778"
     inkscape:cx="292.5"
     inkscape:cy="112.5"
     inkscape:window-x="142"
     inkscape:window-y="60"
     inkscape:window-maximized="0"
     inkscape:current-layer="svg2" />
  <rect
     id="rect6"
     style="fill:#ff7f7f;stroke:#ff0000;stroke-width:0;stroke-linecap:butt;stroke-linejoin:miter"
     rx="0"
     height="236"
     width="708"
     y="4251"
     x="7086" />
  <rect
     id="rect8"
     style="fill:#ff7f7f;stroke:#ff0000;stroke-width:0;stroke-linecap:butt;stroke-linejoin:miter"
     rx="0"
     height="236"
     width="1417"
     y="4488"
     x="6377" />
  <rect
     id="rect10"
     style="fill:#ff7f7f;stroke:#ff0000;stroke-width:0;stroke-linecap:butt;stroke-linejoin:miter"
     rx="0"
     height="236"
     width="1889"
     y="4724"
     x="6141" />
  <rect
     id="rect12"
     style="fill:#ff7f7f;stroke:#ff0000;stroke-width:0;stroke-linecap:butt;stroke-linejoin:miter"
     rx="0"
     height="236"
     width="1889"
     y="4960"
     x="6141" />
  <rect
     id="rect14"
     style="fill:#ff7f7f;stroke:#ff0000;stroke-width:0;stroke-linecap:butt;stroke-linejoin:miter"
     rx="0"
     height="236"
     width="1653"
     y="5196"
     x="6377" />
  <rect
     id="rect16"
     style="fill:#ff7f7f;stroke:#ff0000;stroke-width:0;stroke-linecap:butt;stroke-linejoin:miter"
     rx="0"
     height="236"
     width="1181"
     y="5433"
     x="6614" />
  <rect
     id="rect18"
     style="fill:#ff7f7f;stroke:#ff0000;stroke-width:0;stroke-linecap:butt;stroke-linejoin:miter"
     rx="0"
     height="236"
     width="708"
     y="5669"
     x="6614" />
  <polyline
     id="polyline20"
     style="fill:none;stroke:#ff0000;stroke-width:32;stroke-linecap:butt;stroke-linejoin:miter"
     points="5669,4015 8503,4015 " />
  <polyline
     id="polyline22"
     style="fill:none;stroke:#ff0000;stroke-width:32;stroke-linecap:butt;stroke-linejoin:miter"
     points="5669,4251 8503,4251 " />
  <polyline
     id="polyline24"
     style="fill:none;stroke:#ff0000;stroke-width:32;stroke-linecap:butt;stroke-linejoin:miter"
     points="5669,4488 8503,4488 " />
  <polyline
     id="polyline26"
     style="fill:none;stroke:#ff0000;stroke-width:32;stroke-linecap:butt;stroke-linejoin:miter"
     points="5669,4724 8503,4724 " />
  <polyline
     id="polyline28"
     style="fill:none;stroke:#ff0000;stroke-width:32;stroke-linecap:butt;stroke-linejoin:miter"
     points="5669,4960 8503,4960 " />
  <polyline
     id="polyline30"
     style="fill:none;stroke:#ff0000;stroke-width:32;stroke-linecap:butt;stroke-linejoin:miter"
     points="5669,5196 8503,5196 " />
  <polyline
     id="polyline32"
     style="fill:none;stroke:#ff0000;stroke-width:32;stroke-linecap:butt;stroke-linejoin:miter"
     points="5669,5433 8503,5433 " />
  <polyline
     id="polyline34"
     style="fill:none;stroke:#ff0000;stroke-width:32;stroke-linecap:butt;stroke-linejoin:miter"
     points="5669,5669 8503,5669 " />
  <polyline
     id="polyline36"
     style="fill:none;stroke:#ff0000;stroke-width:32;stroke-linecap:butt;stroke-linejoin:miter"
     points="5669,5905 8503,5905 " />
  <polyline
     id="polyline38"
     style="fill:none;stroke:#ff0000;stroke-width:32;stroke-linecap:butt;stroke-linejoin:miter"
     points="5669,6141 8503,6141 " />
  <rect
     id="rect40"
     style="fill:none;stroke:#000000;stroke-width:63;stroke-linecap:butt;stroke-linejoin:miter"
     rx="0"
     height="472"
     width="472"
     y="4960"
     x="2362" />
  <polyline
     id="polyline42"
     style="fill:none;stroke:#ff0000;stroke-width:32;stroke-linecap:butt;stroke-linejoin:miter"
     points="5669,4015 5669,6141 " />
  <polyline
     id="polyline44"
     style="fill:none;stroke:#ff0000;stroke-width:32;stroke-linecap:butt;stroke-linejoin:miter"
     points="5905,4015 5905,6141 " />
  <polyline
     id="polyline46"
     style="fill:none;stroke:#ff0000;stroke-width:32;stroke-linecap:butt;stroke-linejoin:miter"
     points="6141,4015 6141,6141 " />
  <polyline
     id="polyline48"
     style="fill:none;stroke:#ff0000;stroke-width:32;stroke-linecap:butt;stroke-linejoin:miter"
     points="6377,4015 6377,6141 " />
  <polyline
     id="polyline50"
     style="fill:none;stroke:#ff0000;stroke-width:32;stroke-linecap:butt;stroke-linejoin:miter"
     points="6614,4015 6614,6141 " />
  <polyline
     id="polyline52"
     style="fill:none;stroke:#ff0000;stroke-width:32;stroke-linecap:butt;stroke-linejoin:miter"
     points="6850,4015 6850,6141 " />
  <polyline
     id="polyline54"
     style="fill:none;stroke:#ff0000;stroke-width:32;stroke-linecap:butt;stroke-linejoin:miter"
     points="7086,4015 7086,6141 " />
  <polyline
     id="polyline56"
     style="fill:none;stroke:#ff0000;stroke-width:32;stroke-linecap:butt;stroke-linejoin:miter"
     points="7322,4015 7322,6141 " />
  <polyline
     id="polyline58"
     style="fill:none;stroke:#ff0000;stroke-width:32;stroke-linecap:butt;stroke-linejoin:miter"
     points="7559,4015 7559,6141 " />
  <polyline
     id="polyline60"
     style="fill:none;stroke:#ff0000;stroke-width:32;stroke-linecap:butt;stroke-linejoin:miter"
     points="7795,4015 7795,6141 " />
  <polyline
     id="polyline62"
     style="fill:none;stroke:#ff0000;stroke-width:32;stroke-linecap:butt;stroke-linejoin:miter"
     points="8031,4015 8031,6141 " />
  <polyline
     id="polyline64"
     style="fill:none;stroke:#ff0000;stroke-width:32;stroke-linecap:butt;stroke-linejoin:miter"
     points="8267,4015 8267,6141 " />
  <polyline
     id="polyline66"
     style="fill:none;stroke:#ff0000;stroke-width:32;stroke-linecap:butt;stroke-linejoin:miter"
     points="8503,4015 8503,6141 " />
  <text
     style="font-style:normal;font-weight:normal;font-size:378px;font-family:Helvetica;text-anchor:middle;fill:#ff0000;stroke-width:0.025in"
     id="text68"
     font-size="378"
     font-weight="normal"
     font-style="normal"
     y="6850"
     x="7086"
     xml:space="preserve">Texture Map</text>
  <text
     style="font-style:normal;font-weight:normal;font-size:378px;font-family:Helvetica;text-anchor:end;fill:#000000;stroke-width:0.025in"
     id="text70"
     font-size="378"
     font-weight="normal"
     font-style="normal"
     y="5433"
     x="2125"
     xml:space="preserve">Pixel</text>
  <polygon
     id="polygon72"
     style="fill:none;stroke:#0000ff;stroke-width:63;stroke-linecap:butt;stroke-linejoin:round"
     points="7937,5291 6944,5811 6236,4818 6236,4818 7653,4393 " />
  <polyline
     id="polyline74"
     style="fill:none;stroke:#0000ff;stroke-width:32;stroke-linecap:butt;stroke-linejoin:bevel;stroke-dasharray:83, 83"
     points="2362,4960 2363,4959 2367,4958 2373,4955 2383,4950 2397,4943 2416,4934 2440,4922 2471,4908 2507,4891 2548,4872 2595,4850 2646,4826 2702,4800 2762,4772 2826,4743 2892,4712 2960,4682 3030,4650 3101,4619 3172,4587 3243,4557 3313,4527 3382,4498 3450,4470 3517,4443 3581,4416 3643,4392 3703,4369 3761,4348 3818,4327 3872,4308 3925,4291 3975,4276 4025,4261 4072,4247 4118,4236 4162,4224 4206,4215 4248,4207 4290,4200 4330,4194 4370,4190 4410,4185 4449,4182 4488,4181 4530,4180 4572,4180 4614,4181 4656,4183 4698,4187 4740,4193 4783,4199 4826,4207 4870,4217 4915,4227 4961,4240 5008,4254 5057,4269 5107,4286 5159,4305 5211,4325 5267,4347 5322,4370 5380,4394 5439,4420 5499,4447 5560,4475 5620,4503 5681,4533 5741,4562 5800,4592 5858,4620 5912,4648 5964,4675 6012,4700 6056,4722 6095,4743 6130,4761 6158,4776 6182,4789 6201,4800 6215,4807 6225,4812 6230,4816 6235,4817 6236,4818 " />
  <polyline
     id="polyline76"
     style="fill:none;stroke:#0000ff;stroke-width:32;stroke-linecap:butt;stroke-linejoin:bevel;stroke-dasharray:83, 83"
     points="2834,4960 2836,4959 2839,4958 2847,4955 2858,4950 2875,4942 2897,4933 2924,4921 2957,4908 2995,4891 3038,4873 3086,4852 3138,4831 3192,4808 3249,4784 3308,4760 3367,4735 3426,4711 3486,4687 3545,4663 3602,4641 3657,4619 3712,4598 3764,4578 3816,4559 3865,4540 3912,4523 3959,4508 4004,4492 4048,4477 4091,4464 4133,4451 4174,4438 4215,4427 4256,4416 4296,4406 4337,4395 4377,4386 4416,4376 4456,4367 4496,4359 4536,4350 4578,4343 4619,4334 4662,4327 4705,4320 4748,4312 4793,4305 4838,4299 4883,4292 4930,4286 4977,4280 5024,4274 5072,4268 5121,4263 5169,4258 5217,4253 5266,4248 5315,4244 5363,4241 5412,4237 5460,4234 5507,4230 5554,4228 5602,4226 5648,4224 5693,4222 5738,4221 5782,4219 5825,4219 5868,4218 5910,4218 5951,4217 5992,4218 6032,4218 6072,4218 6111,4219 6150,4220 6192,4221 6234,4223 6276,4225 6319,4227 6361,4229 6404,4233 6448,4236 6492,4240 6538,4244 6584,4248 6634,4254 6683,4259 6735,4265 6789,4271 6845,4278 6901,4285 6960,4293 7020,4301 7081,4309 7143,4318 7203,4326 7262,4335 7320,4344 7376,4351 7427,4359 7475,4366 7517,4372 7552,4377 7583,4383 7607,4386 7626,4389 7638,4391 7647,4392 7651,4393 7653,4393 " />
  <polyline
     id="polyline78"
     style="fill:none;stroke:#0000ff;stroke-width:32;stroke-linecap:butt;stroke-linejoin:bevel;stroke-dasharray:83, 83"
     points="2362,5433 2364,5432 2367,5430 2374,5427 2386,5422 2403,5415 2425,5405 2452,5394 2487,5379 2527,5363 2572,5343 2622,5322 2678,5299 2738,5274 2802,5249 2868,5222 2935,5194 3004,5167 3074,5139 3143,5111 3211,5085 3279,5059 3345,5034 3409,5011 3471,4987 3532,4965 3590,4945 3646,4927 3699,4910 3751,4893 3801,4878 3848,4865 3895,4852 3940,4840 3983,4830 4025,4822 4066,4813 4106,4806 4144,4800 4183,4794 4222,4790 4260,4787 4301,4784 4342,4782 4384,4781 4425,4781 4466,4782 4508,4783 4549,4785 4591,4788 4633,4792 4675,4797 4718,4804 4760,4810 4803,4817 4846,4826 4889,4835 4931,4845 4974,4855 5016,4867 5059,4878 5101,4891 5142,4903 5184,4916 5224,4931 5265,4944 5303,4959 5342,4974 5380,4988 5418,5003 5455,5019 5490,5034 5526,5049 5561,5065 5594,5080 5627,5096 5660,5111 5692,5126 5724,5142 5756,5158 5791,5174 5825,5191 5860,5209 5895,5227 5930,5245 5966,5264 6003,5282 6039,5302 6078,5323 6118,5344 6159,5367 6202,5391 6247,5416 6293,5441 6341,5468 6390,5496 6440,5524 6492,5552 6543,5582 6595,5610 6644,5639 6692,5667 6739,5692 6781,5716 6818,5738 6851,5757 6879,5773 6901,5785 6918,5796 6931,5802 6938,5807 6942,5809 6944,5811 " />
  <polyline
     id="polyline80"
     style="fill:none;stroke:#0000ff;stroke-width:32;stroke-linecap:butt;stroke-linejoin:bevel;stroke-dasharray:83, 83"
     points="2834,5433 2836,5432 2839,5430 2847,5428 2858,5424 2874,5419 2896,5412 2922,5402 2956,5391 2994,5378 3038,5362 3087,5346 3140,5329 3197,5310 3256,5290 3319,5270 3382,5249 3446,5229 3511,5208 3575,5188 3638,5168 3700,5150 3762,5131 3821,5114 3879,5098 3934,5083 3989,5068 4043,5055 4093,5042 4143,5030 4192,5019 4240,5009 4287,5000 4332,4991 4379,4983 4424,4976 4469,4970 4514,4963 4560,4957 4606,4953 4648,4948 4690,4944 4733,4940 4776,4937 4820,4935 4866,4932 4911,4930 4957,4928 5003,4927 5050,4925 5099,4924 5147,4923 5196,4923 5246,4923 5296,4923 5348,4924 5398,4924 5449,4927 5501,4928 5552,4930 5604,4932 5656,4934 5708,4936 5758,4939 5809,4942 5860,4945 5909,4949 5959,4952 6008,4956 6055,4959 6102,4963 6150,4967 6195,4972 6239,4976 6283,4981 6326,4985 6368,4990 6409,4995 6449,4999 6488,5004 6527,5008 6564,5014 6601,5018 6638,5023 6683,5029 6728,5036 6773,5043 6816,5049 6860,5057 6903,5064 6946,5071 6991,5079 7035,5087 7080,5097 7126,5105 7173,5116 7222,5125 7271,5135 7322,5147 7374,5159 7426,5170 7480,5182 7532,5194 7585,5207 7635,5218 7685,5230 7731,5240 7773,5251 7811,5260 7844,5268 7871,5275 7893,5280 7911,5285 7923,5288 7930,5290 7934,5291 7937,5291 " />
</svg>
